# Blender 5.1.0
# www.blender.org
mtllib Octaedro.mtl
o obj1
v -2.597879 2.466249 -1.015396
v -8.545538 18.562868 -16.149204
v 12.443021 18.621365 -7.039615
v 3.333255 18.726812 13.948712
v -2.614395 34.823433 -1.185107
v -17.655298 18.668304 4.839130
vn 0.3254 -0.5811 -0.7460
vn 0.7487 0.5794 0.3221
vn 0.3248 0.5736 -0.7520
vn -0.7493 0.5753 -0.3281
vn 0.7493 -0.5753 0.3281
vn -0.3254 0.5811 0.7460
vn -0.7487 -0.5794 -0.3221
vn -0.3248 -0.5736 0.7520
vt 0.000000 0.000000
s 1
g off
usemtl Material.001
f 1/1/1 2/1/1 3/1/1
f 4/1/2 3/1/2 5/1/2
f 3/1/3 2/1/3 5/1/3
f 6/1/4 5/1/4 2/1/4
f 1/1/5 3/1/5 4/1/5
f 6/1/6 4/1/6 5/1/6
f 6/1/7 2/1/7 1/1/7
f 6/1/8 1/1/8 4/1/8
