# Blender 5.0.1
# www.blender.org
mtllib bolsaizq.mtl
o health_pack.001
v 1.390370 4.815740 1.769620
v 1.596130 4.801000 1.544030
v 1.658700 4.869800 1.935570
v 1.864310 4.856000 1.714850
v 2.762690 4.526860 1.658540
v 2.805330 4.584140 1.584620
v 2.675990 4.172300 0.854600
v 2.740590 4.313730 0.830930
v 3.775930 4.478710 1.498910
v 3.735310 4.212150 0.744290
v 3.805040 4.071650 0.756160
v 3.831340 4.421020 1.565390
v -3.866980 4.063040 0.854600
v -3.780290 4.736670 1.658540
v -3.802390 4.204570 0.830930
v -3.737640 4.793950 1.584620
v -2.767050 4.802450 1.498910
v -2.807670 4.212150 0.744290
v -2.711480 4.744760 1.565390
v -2.737780 4.071650 0.756160
v -1.291850 5.553590 1.643750
v -1.407180 4.815740 1.769620
v -1.612940 4.801000 1.544030
v 0.982890 5.818810 1.598380
v -0.999700 5.818810 1.598380
v -1.080020 6.010880 1.336040
v -1.494500 5.625920 1.400041
v -1.881120 4.856000 1.714850
v -1.758630 5.795050 1.553941
v -1.184610 6.335970 1.462510
v -1.675510 4.869800 1.935570
v -1.556290 5.722210 1.796800
v -1.104300 6.144320 1.727320
v 1.087490 6.144320 1.727320
v 1.167640 6.335970 1.462510
v 1.063050 6.010880 1.336040
v 1.275040 5.553590 1.643750
v 1.477690 5.625920 1.400041
v 1.741820 5.795050 1.553941
v 1.539480 5.722210 1.796800
v 0.000780 4.426210 0.790260
v 3.334530 3.133220 0.217130
v 0.000000 3.041080 -0.139630
v 3.676630 4.248050 0.975950
v 0.000000 4.766970 1.725360
v 4.107770 4.450180 1.657420
v 4.682410 4.308850 1.689130
v 4.679450 4.146150 1.059770
v 4.629490 2.989920 0.429310
v 4.447850 2.050140 0.086730
v 3.374060 1.841680 -0.127920
v 0.000000 1.472490 -0.268920
v 0.000000 0.640320 -0.526470
v -3.374060 1.841680 -0.127920
v 3.596160 1.009400 -0.281990
v 0.000000 0.000000 0.000000
v -3.596160 1.009400 -0.281990
v -4.447850 2.050140 0.086730
v -4.255320 4.737500 1.657420
v -4.668710 4.113880 1.008930
v -4.829960 4.613400 1.787060
v -3.619040 4.163590 0.926130
v -4.629490 2.920300 0.501770
v -3.324720 3.076050 0.231230
v -1.507730 4.645250 1.738600
v -1.507730 4.836700 1.663320
v -1.507730 4.902380 1.831060
v -1.507730 4.755140 1.976070
v -1.507730 4.516070 1.973600
v -1.770610 4.836700 1.663320
v -1.770610 4.645250 1.738600
v -1.770450 4.516070 1.973600
v 1.753800 4.755140 1.976070
v 1.753650 4.516070 1.973600
v 1.753800 4.645250 1.738600
v 1.753650 4.902380 1.831060
v 1.753650 4.836700 1.663320
v -1.770610 4.755140 1.976070
v -1.770610 4.902380 1.831060
v 1.490760 4.755140 1.976070
v 1.490760 4.645250 1.738600
v 1.490920 4.516070 1.973600
v 1.490920 4.902380 1.831060
v 1.490920 4.836700 1.663320
vn -0.1012 0.9825 -0.1565
vn -0.1015 0.9825 -0.1564
vn -0.1019 0.9824 -0.1563
vn 0.5494 -0.7967 0.2516
vn 0.8649 -0.4870 0.1215
vn 0.9082 -0.4124 0.0718
vn 0.5429 -0.8047 0.2402
vn -0.1576 -0.9275 0.3391
vn -0.5833 -0.7555 0.2983
vn -0.8800 -0.4302 0.2013
vn -0.8799 -0.4303 0.2013
vn -0.8250 -0.5085 0.2464
vn 0.9013 -0.3750 0.2170
vn 0.6215 -0.6416 0.4496
vn 0.8976 -0.3813 0.2212
vn 0.5823 -0.6639 0.4692
vn -0.4802 -0.6784 0.5560
vn -0.5324 -0.6521 0.5396
vn -0.8442 -0.3991 0.3578
vn -0.8490 -0.3924 0.3540
vn 0.0983 0.1216 0.9877
vn 0.0978 0.1319 0.9864
vn 0.0978 0.1312 0.9865
vn 0.0983 0.1204 0.9878
vn 0.0983 0.1215 0.9877
vn 0.0850 0.1264 0.9883
vn 0.0852 0.1259 0.9884
vn 0.0852 0.1261 0.9884
vn 0.0851 0.1264 0.9883
vn -0.8802 0.4332 -0.1938
vn -0.1026 0.1884 0.9767
vn -0.9802 0.1274 -0.1515
vn 0.3718 0.8902 -0.2634
vn 0.0178 0.1453 0.9892
vn -0.3717 0.8902 -0.2633
vn 0.0150 0.1654 0.9861
vn 0.9846 -0.1083 0.1371
vn 0.8839 -0.4264 0.1921
vn 0.3636 -0.8965 0.2531
vn 0.2202 -0.2631 -0.9393
vn 0.1369 -0.1768 -0.9747
vn 0.1000 -0.3863 -0.9170
vn -0.1001 -0.3863 -0.9169
vn -0.3635 -0.8966 0.2531
vn -0.0178 0.1454 0.9892
vn 0.8802 0.4332 -0.1938
vn -0.0151 0.1653 0.9861
vn 0.1026 0.1884 0.9767
vn -0.9846 -0.1083 0.1371
vn -0.8839 -0.4265 0.1921
vn 0.9802 0.1274 -0.1514
vn -0.2202 -0.2632 -0.9393
vn -0.1369 -0.1768 -0.9747
vn 0.0074 -0.7857 0.6185
vn 0.0037 -0.3437 0.9391
vn -0.1259 -0.4109 0.9030
vn -0.1081 -0.7719 0.6265
vn 0.0027 -0.9310 0.3649
vn -0.1369 -0.9391 0.3153
vn -0.1616 -0.7603 0.6291
vn -0.2443 -0.9386 0.2438
vn -0.1758 -0.4066 0.8965
vn -0.1604 -0.2661 0.9505
vn -0.0997 -0.2233 0.9696
vn -0.0000 -0.1978 0.9802
vn -0.0000 0.2254 0.9743
vn 0.1001 -0.2325 0.9674
vn -0.0929 -0.1356 0.9864
vn 0.1360 -0.7768 0.6148
vn 0.2936 -0.7756 0.5588
vn 0.1321 -0.6043 0.7858
vn 0.0792 -0.6459 0.7593
vn 0.1998 -0.4118 0.8891
vn 0.1418 -0.4129 0.8997
vn 0.1768 -0.3048 0.9359
vn 0.0929 -0.1356 0.9864
vn -0.0000 0.6351 0.7724
vn -1.0000 -0.0000 -0.0000
vn -0.0000 0.6603 0.7510
vn -0.0000 0.3659 0.9306
vn -0.0000 0.6604 0.7509
vn -0.0000 0.8763 0.4817
vn -0.0000 0.6605 0.7508
vn 0.1012 0.9825 -0.1565
vn 0.1015 0.9825 -0.1564
vn 0.1019 0.9824 -0.1563
vn -1.0000 -0.0001 -0.0000
vn -1.0000 -0.0002 0.0001
vn -1.0000 0.0006 -0.0003
vn -1.0000 -0.0007 0.0003
vn 1.0000 0.0007 -0.0003
vn 1.0000 0.0003 -0.0001
vn 1.0000 -0.0000 -0.0000
vn 1.0000 -0.0001 -0.0000
vn 1.0000 -0.0002 0.0001
vn 1.0000 -0.0007 0.0003
vn -0.0001 0.6606 0.7508
vn -0.0001 0.6603 0.7510
vn -0.0000 0.6605 0.7509
vt 0.825700 0.847700
vt 0.809600 0.854600
vt 0.816400 0.833500
vt 0.800300 0.840800
vt 0.915000 0.226100
vt 0.908200 0.225100
vt 0.902300 0.301800
vt 0.914100 0.301800
vt 0.984400 0.226100
vt 0.985400 0.301800
vt 0.997100 0.301800
vt 0.991700 0.225100
vt 0.909200 0.316400
vt 0.990200 0.316400
vt 0.985400 0.306200
vt 0.914100 0.306200
vt 0.938500 0.942800
vt 0.976100 0.986900
vt 0.961400 0.993600
vt 0.816400 0.931000
vt 0.925800 0.913900
vt 0.920900 0.931000
vt 0.951700 0.931500
vt 0.991700 0.980200
vt 0.965300 0.919300
vt 0.931200 0.895400
vt 0.993200 0.809700
vt 0.953600 0.859700
vt 0.978500 0.803200
vt 0.966800 0.871000
vt 0.926800 0.878200
vt 0.939900 0.847400
vt 0.962900 0.796300
vt 0.921400 0.859600
vt 0.816400 0.859600
vt 0.811000 0.878200
vt 0.806600 0.895400
vt 0.812000 0.913900
vt 0.799300 0.942800
vt 0.786100 0.931500
vt 0.761700 0.986900
vt 0.746100 0.980200
vt 0.772500 0.919300
vt 0.776400 0.993600
vt 0.784200 0.859700
vt 0.797900 0.847400
vt 0.771000 0.871000
vt 0.744600 0.809700
vt 0.759300 0.803200
vt 0.774900 0.796300
vt 0.450700 0.407700
vt 0.450700 0.492200
vt 0.611300 0.484900
vt 0.627400 0.426300
vt 0.450900 0.343800
vt 0.652300 0.347700
vt 0.672900 0.424800
vt 0.679700 0.349600
vt 0.670900 0.482900
vt 0.664100 0.518600
vt 0.611800 0.545400
vt 0.450700 0.562000
vt 0.450700 0.586200
vt 0.289600 0.544900
vt 0.621100 0.573500
vt 0.249400 0.347200
vt 0.221700 0.345200
vt 0.228900 0.426800
vt 0.276900 0.432600
vt 0.230700 0.486300
vt 0.290300 0.487300
vt 0.237300 0.517800
vt 0.280300 0.573200
vt 0.450700 0.617200
vt 0.057100 0.942700
vt 0.071300 0.926900
vt 0.072300 0.942700
vt 0.060600 0.923000
vt 0.041300 0.929700
vt 0.072300 0.966000
vt 0.057100 0.966000
vt 0.036600 0.966000
vt 0.036600 0.942700
vt 0.911100 0.848000
vt 0.920400 0.833900
vt 0.926800 0.855000
vt 0.936500 0.841200
vt 0.060600 0.855200
vt 0.057100 0.874900
vt 0.041300 0.861900
vt 0.071300 0.859000
vt 0.072300 0.874900
vt 0.041300 0.979000
vt 0.060600 0.985700
vt 0.071300 0.981800
vt 0.060600 0.917800
vt 0.041300 0.911100
vt 0.057100 0.898100
vt 0.071300 0.913900
vt 0.072300 0.898100
vt 0.036600 0.874900
vt 0.036600 0.898100
s 1
usemtl Health_pack_mat
f 1/1/1 3/2/2 2/3/2
f 2/3/2 3/2/2 4/4/3
f 6/5/4 5/6/5 7/7/6
f 7/7/6 8/8/7 6/5/4
f 9/9/8 6/5/4 8/8/7
f 8/8/7 10/10/9 9/9/8
f 9/9/8 10/10/9 11/11/10
f 11/11/11 12/12/12 9/9/12
f 13/7/13 15/8/14 14/6/15
f 15/8/14 16/5/16 14/6/15
f 17/9/17 16/5/16 15/8/14
f 15/8/14 18/10/18 17/9/17
f 19/12/19 17/9/17 18/10/18
f 18/10/18 20/11/20 19/12/19
f 7/13/21 11/14/22 10/15/23
f 10/15/23 8/16/24 7/13/25
f 13/13/26 20/14/27 18/15/27
f 18/15/28 15/16/29 13/13/29
f 21/17/30 23/18/31 22/19/32
f 24/20/33 26/21/34 25/22/35
f 25/22/35 26/21/34 21/17/30
f 21/17/30 26/21/34 27/23/36
f 23/18/31 21/17/30 27/23/36
f 27/23/36 28/24/37 23/18/31
f 28/24/37 27/23/36 29/25/38
f 29/25/38 27/23/36 26/21/34
f 26/21/34 30/26/39 29/25/38
f 28/27/37 32/28/40 31/29/41
f 29/30/38 32/28/40 28/27/37
f 32/28/40 29/30/38 30/26/39
f 30/26/39 33/31/42 32/28/40
f 21/32/30 22/33/32 31/29/41
f 32/28/40 21/32/30 31/29/41
f 25/34/35 21/32/30 32/28/40
f 32/28/40 33/31/42 25/34/35
f 24/35/33 25/34/35 33/31/42
f 33/31/42 34/36/43 24/35/33
f 34/36/43 33/31/42 30/26/39
f 30/26/39 35/37/44 34/36/43
f 35/37/44 30/26/39 26/21/34
f 26/21/34 36/38/45 35/37/44
f 24/20/33 36/38/45 26/21/34
f 37/39/46 36/38/45 24/20/33
f 36/38/45 37/39/46 38/40/47
f 38/40/47 37/39/46 2/41/48
f 38/40/47 2/41/48 4/42/49
f 39/43/50 38/40/47 4/42/49
f 38/40/47 39/43/50 36/38/45
f 36/38/45 39/43/50 35/37/44
f 2/41/48 37/39/46 1/44/51
f 40/45/52 37/46/46 24/35/33
f 24/35/33 34/36/43 40/45/52
f 40/45/52 34/36/43 35/37/44
f 35/37/44 39/47/50 40/45/52
f 4/48/49 40/45/52 39/47/50
f 40/45/52 4/48/49 3/49/53
f 3/49/53 37/46/46 40/45/52
f 37/46/46 3/49/53 1/50/51
f 41/51/54 43/52/55 42/53/56
f 41/51/54 42/53/56 44/54/57
f 44/54/57 45/55/58 41/51/54
f 45/55/58 44/54/57 46/56/59
f 48/57/60 47/58/61 46/56/59
f 48/57/60 46/56/59 44/54/57
f 44/54/57 49/59/62 48/57/60
f 49/59/62 44/54/57 42/53/56
f 50/60/63 49/59/62 42/53/56
f 42/53/56 51/61/64 50/60/63
f 51/61/64 42/53/56 43/52/55
f 43/52/55 52/62/65 51/61/64
f 53/63/66 52/62/65 54/64/67
f 51/61/64 52/62/65 53/63/66
f 53/63/66 55/65/68 51/61/64
f 55/65/68 50/60/63 51/61/64
f 59/66/69 61/67/70 60/68/71
f 62/69/72 59/66/69 60/68/71
f 60/68/71 63/70/73 62/69/72
f 62/69/72 63/70/73 64/71/74
f 63/70/73 58/72/75 64/71/74
f 64/71/74 58/72/75 54/64/67
f 54/64/67 58/72/75 57/73/76
f 54/64/67 57/73/76 53/63/66
f 57/73/76 56/74/77 53/63/66
f 55/65/68 53/63/66 56/74/77
f 45/55/58 59/66/69 62/69/72
f 62/69/72 41/51/54 45/55/58
f 41/51/54 62/69/72 64/71/74
f 64/71/74 43/52/55 41/51/54
f 43/52/55 64/71/74 54/64/67
f 54/64/67 52/62/65 43/52/55
f 65/75/78 67/76/78 66/77/78
f 65/75/78 68/78/78 67/76/78
f 68/78/78 65/75/78 69/79/78
f 65/75/79 66/77/80 70/80/80
f 70/80/80 71/81/81 65/75/79
f 65/75/79 71/81/81 72/82/82
f 72/82/82 69/83/82 65/75/83
f 22/84/84 23/85/85 31/86/85
f 23/85/85 28/87/86 31/86/85
f 73/88/87 75/89/88 74/90/89
f 75/89/88 73/88/87 76/91/90
f 76/91/90 77/92/90 75/89/88
f 72/93/91 71/81/92 78/94/92
f 79/95/93 78/94/92 71/81/92
f 71/81/92 70/80/93 79/95/93
f 80/96/94 82/97/91 81/98/95
f 83/99/96 80/96/94 81/98/95
f 81/98/95 84/100/96 83/99/96
f 74/101/82 75/89/97 82/102/82
f 82/102/82 75/89/98 81/98/99
f 84/100/80 81/98/99 75/89/98
f 75/89/98 77/92/80 84/100/80
