# Blender 5.0.1
# www.blender.org
mtllib cajaQuestion.mtl
g Object008_low_Mesh
v -0.190000 0.500000 -0.190000
v -0.250000 0.500000 -0.190000
v -0.190000 0.440000 -0.190000
v -0.250000 0.440000 -0.190000
v -0.190000 0.500000 0.190000
v -0.250000 0.500000 0.190000
v -0.190000 0.440000 0.190000
v -0.250000 0.440000 0.190000
vn -0.0000 -0.0000 -1.0000
vn -0.0000 -0.0000 1.0000
vn -0.0000 1.0000 -0.0000
vn -1.0000 -0.0000 -0.0000
vn -0.0000 -1.0000 -0.0000
vn 1.0000 -0.0000 -0.0000
vt 0.961191 0.743597
vt 0.995050 0.777456
vt 0.961191 0.777456
vt 0.907903 0.573183
vt 0.941761 0.539325
vt 0.941761 0.573183
vt 0.727117 0.675320
vt 0.512681 0.641461
vt 0.727117 0.641461
vt 0.565969 0.343934
vt 0.780406 0.377793
vt 0.565969 0.377793
vt 0.335053 0.503799
vt 0.549490 0.537657
vt 0.335053 0.537657
vt 0.553931 0.377792
vt 0.339493 0.343934
vt 0.553931 0.343934
vt 0.995050 0.743597
vt 0.907903 0.539325
vt 0.512681 0.675320
vt 0.780406 0.343934
vt 0.549490 0.503799
vt 0.339493 0.377792
s 1
g off
g Object008_low_Material.013
usemtl Material.013
f 3/1/1 2/2/1 1/3/1
f 6/4/2 7/5/2 5/6/2
s 2
f 2/7/3 5/8/3 1/9/3
s 4
f 4/10/4 6/11/4 2/12/4
s 2
f 3/13/5 8/14/5 4/15/5
s 4
f 1/16/6 7/17/6 3/18/6
s 1
f 3/1/1 4/19/1 2/2/1
f 6/4/2 8/20/2 7/5/2
s 2
f 2/7/3 6/21/3 5/8/3
s 4
f 4/10/4 8/22/4 6/11/4
s 2
f 3/13/5 7/23/5 8/14/5
s 4
f 1/16/6 5/24/6 7/17/6
g Object016_low_Mesh
v -0.226274 0.476384 0.183848
v -0.183848 0.476384 0.226274
v -0.183848 0.496384 0.226274
v -0.226274 0.496384 0.183848
v 0.183848 0.476384 -0.226274
v 0.183848 0.496384 -0.226274
v 0.226274 0.496384 -0.183848
v 0.226274 0.476384 -0.183848
vn -0.7071 -0.0000 0.7071
vn 0.7071 -0.0000 -0.7071
vn -0.7071 -0.0000 -0.7071
vn -0.0000 1.0000 -0.0000
vn 0.7071 -0.0000 0.7071
vn -0.0000 -1.0000 -0.0000
vt 0.919189 0.494918
vt 0.907903 0.528776
vt 0.907903 0.494918
vt 0.970073 0.059729
vt 0.984536 0.090410
vt 0.970073 0.090410
vt 0.002000 0.526003
vt 0.324841 0.541747
vt 0.002000 0.541746
vt 0.329299 0.121899
vt 0.002001 0.155767
vt 0.002000 0.121909
vt 0.002000 0.614817
vt 0.324841 0.630561
vt 0.002000 0.630561
vt 0.329299 0.275656
vt 0.002000 0.241808
vt 0.329299 0.241798
vt 0.919189 0.528776
vt 0.984536 0.059729
vt 0.324841 0.526003
vt 0.329299 0.155757
vt 0.324841 0.614817
vt 0.002001 0.275666
s 1
g off
g Object016_low_Material.013
usemtl Material.013
f 9/25/7 11/26/7 12/27/7
f 13/28/8 15/29/8 16/30/8
s 2
f 12/31/9 13/32/9 9/33/9
s 4
f 12/34/10 15/35/10 14/36/10
s 2
f 10/37/11 15/38/11 11/39/11
s 4
f 9/40/12 16/41/12 10/42/12
s 1
f 9/25/7 10/43/7 11/26/7
f 13/28/8 14/44/8 15/29/8
s 2
f 12/31/9 14/45/9 13/32/9
s 4
f 12/34/10 11/46/10 15/35/10
s 2
f 10/37/11 16/47/11 15/38/11
s 4
f 9/40/12 13/48/12 16/41/12
g Object025_low_Mesh
v 0.226384 0.433848 -0.226274
v 0.226384 0.476274 -0.183848
v 0.246384 0.476274 -0.183848
v 0.246384 0.433848 -0.226274
v 0.226384 0.023726 0.183848
v 0.246384 0.023726 0.183848
v 0.246384 0.066152 0.226274
v 0.226384 0.066152 0.226274
vn -0.0000 0.7071 -0.7071
vn -0.0000 -0.7071 0.7071
vn -0.0000 -0.7071 -0.7071
vn 1.0000 -0.0000 -0.0000
vn -0.0000 0.7071 0.7071
vn -1.0000 -0.0000 -0.0000
vt 0.970073 1.019763
vt 0.984536 1.050444
vt 0.970073 1.050444
vt 0.962333 1.064170
vt 0.947869 1.094851
vt 0.947869 1.064170
vt 0.666775 1.057710
vt 0.343934 1.041966
vt 0.666775 1.041966
vt 0.329839 1.035853
vt 0.002000 1.007712
vt 0.329249 1.002000
vt 0.324841 1.586154
vt 0.002000 1.570410
vt 0.324841 1.570410
vt 0.002000 1.361707
vt 0.329299 1.395555
vt 0.002001 1.395565
vt 0.984536 1.019763
vt 0.962333 1.094851
vt 0.343934 1.057710
vt 0.002591 1.041566
vt 0.002000 1.586154
vt 0.329298 1.361697
s 1
g off
g Object025_low_Material.013
usemtl Material.013
f 18/49/13 20/50/13 17/51/13
f 22/52/14 24/53/14 21/54/14
s 2
f 20/55/15 21/56/15 17/57/15
s 4
f 19/58/16 22/59/16 20/60/16
s 2
f 18/61/17 23/62/17 19/63/17
s 4
f 17/64/18 24/65/18 18/66/18
s 1
f 18/49/13 19/67/13 20/50/13
f 22/52/14 23/68/14 24/53/14
s 2
f 20/55/15 22/69/15 21/56/15
s 4
f 19/58/16 23/70/16 22/59/16
s 2
f 18/61/17 24/71/17 23/62/17
s 4
f 17/64/18 21/72/18 24/65/18
g Object026_low_Mesh
v 0.226384 0.023726 -0.183848
v 0.226384 0.066152 -0.226274
v 0.243276 0.066152 -0.226274
v 0.243276 0.023726 -0.183848
v 0.226384 0.433848 0.226274
v 0.243276 0.433848 0.226274
v 0.243276 0.476274 0.183848
v 0.226384 0.476274 0.183848
vn -0.0000 -0.7071 -0.7071
vn -0.0000 0.7071 0.7071
vn -0.0000 -0.7071 0.7071
vn 1.0000 -0.0000 -0.0000
vn -0.0000 0.7071 -0.7071
vn -1.0000 -0.0000 -0.0000
vt 0.943429 1.499359
vt 0.955785 1.530393
vt 0.943429 1.530393
vt 0.844768 1.423816
vt 0.832411 1.392782
vt 0.844768 1.392782
vt 0.002000 1.451162
vt 0.329298 1.441630
vt 0.329298 1.451162
vt 0.339493 1.002010
vt 0.666793 1.035858
vt 0.339494 1.035868
vt 0.002000 1.454952
vt 0.325506 1.468276
vt 0.002000 1.468276
vt 0.002001 1.435531
vt 0.329298 1.401663
vt 0.329299 1.435522
vt 0.955785 1.499359
vt 0.832411 1.423816
vt 0.002000 1.441629
vt 0.666792 1.002000
vt 0.325506 1.454952
vt 0.002000 1.401673
s 1
g off
g Object026_low_Material.013
usemtl Material.013
f 26/73/19 28/74/19 25/75/19
f 29/76/20 31/77/20 32/78/20
s 2
f 25/79/21 30/80/21 29/81/21
s 4
f 27/82/22 30/83/22 28/84/22
s 2
f 26/85/23 31/86/23 27/87/23
s 4
f 26/88/24 29/89/24 32/90/24
s 1
f 26/73/19 27/91/19 28/74/19
f 29/76/20 30/92/20 31/77/20
s 2
f 25/79/21 28/93/21 30/80/21
s 4
f 27/82/22 31/94/22 30/83/22
s 2
f 26/85/23 32/95/23 31/86/23
s 4
f 26/88/24 25/96/24 29/89/24
g Object011_low_Mesh
v 0.250000 0.000000 0.190000
v 0.190000 0.000000 0.190000
v 0.250000 0.060000 0.190000
v 0.190000 0.060000 0.190000
v 0.250000 0.000000 -0.190000
v 0.190000 0.000000 -0.190000
v 0.250000 0.060000 -0.190000
v 0.190000 0.060000 -0.190000
vn -0.0000 -0.0000 1.0000
vn -0.0000 -0.0000 -1.0000
vn -0.0000 -1.0000 -0.0000
vn -1.0000 -0.0000 -0.0000
vn -0.0000 1.0000 -0.0000
vn 1.0000 -0.0000 -0.0000
vt 0.995050 0.897355
vt 0.961191 0.863496
vt 0.995050 0.863496
vt 0.901795 0.494918
vt 0.867937 0.528776
vt 0.867937 0.494918
vt 0.780406 0.417759
vt 0.565969 0.383900
vt 0.780406 0.383900
vt 0.998000 0.617591
vt 0.783563 0.583732
vt 0.998000 0.583732
vt 0.561528 0.463833
vt 0.775965 0.497692
vt 0.561528 0.497692
vt 0.632580 0.264001
vt 0.847017 0.297860
vt 0.632580 0.297860
vt 0.961191 0.897355
vt 0.901795 0.528776
vt 0.565969 0.417759
vt 0.783563 0.617591
vt 0.775965 0.463833
vt 0.847017 0.264001
s 1
g off
g Object011_low_Material.013
usemtl Material.013
f 35/97/25 34/98/25 33/99/25
f 38/100/26 39/101/26 37/102/26
s 2
f 34/103/27 37/104/27 33/105/27
s 4
f 36/106/28 38/107/28 34/108/28
s 2
f 35/109/29 40/110/29 36/111/29
s 4
f 33/112/30 39/113/30 35/114/30
s 1
f 35/97/25 36/115/25 34/98/25
f 38/100/26 40/116/26 39/101/26
s 2
f 34/103/27 38/117/27 37/104/27
s 4
f 36/106/28 40/118/28 38/107/28
s 2
f 35/109/29 39/119/29 40/110/29
s 4
f 33/112/30 37/120/30 39/113/30
g Object022_low_Mesh
v 0.226274 0.433848 0.226384
v 0.183848 0.476274 0.226384
v 0.183848 0.476274 0.246384
v 0.226274 0.433848 0.246384
v -0.183848 0.023726 0.226384
v -0.183848 0.023726 0.246384
v -0.226274 0.066152 0.246384
v -0.226274 0.066152 0.226384
vn 0.7071 0.7071 -0.0000
vn -0.7071 -0.7071 -0.0000
vn 0.7071 -0.7071 -0.0000
vn -0.0000 -0.0000 1.0000
vn -0.7071 0.7071 -0.0000
vn -0.0000 -0.0000 -1.0000
vt 0.843697 1.342267
vt 0.832411 1.308408
vt 0.843697 1.308408
vt 0.869078 1.108577
vt 0.854615 1.139258
vt 0.854615 1.108577
vt 0.002000 1.548206
vt 0.324841 1.563950
vt 0.002000 1.563950
vt 0.329299 1.201832
vt 0.002001 1.235700
vt 0.002000 1.201841
vt 0.002000 1.592613
vt 0.324841 1.608357
vt 0.002000 1.608357
vt 0.329299 1.355589
vt 0.002000 1.321740
vt 0.329298 1.321730
vt 0.832411 1.342267
vt 0.869078 1.139258
vt 0.324841 1.548206
vt 0.329299 1.235690
vt 0.324841 1.592613
vt 0.002001 1.355599
s 1
g off
g Object022_low_Material.013
usemtl Material.013
f 42/121/31 44/122/31 41/123/31
f 46/124/32 48/125/32 45/126/32
s 2
f 44/127/33 45/128/33 41/129/33
s 4
f 44/130/34 47/131/34 46/132/34
s 2
f 42/133/35 47/134/35 43/135/35
s 4
f 41/136/36 48/137/36 42/138/36
s 1
f 42/121/31 43/139/31 44/122/31
f 46/124/32 47/140/32 48/125/32
s 2
f 44/127/33 46/141/33 45/128/33
s 4
f 44/130/34 43/142/34 47/131/34
s 2
f 42/133/35 48/143/35 47/134/35
s 4
f 41/136/36 45/144/36 48/137/36
g Object023_low_Mesh
v 0.183848 0.023726 0.226384
v 0.226274 0.066152 0.226384
v 0.226274 0.066152 0.243276
v 0.183848 0.023726 0.243276
v -0.226274 0.433848 0.226384
v -0.226274 0.433848 0.243276
v -0.183848 0.476274 0.243276
v -0.183848 0.476274 0.226384
vn 0.7071 -0.7071 -0.0000
vn -0.7071 0.7071 -0.0000
vn -0.7071 -0.7071 -0.0000
vn -0.0000 -0.0000 1.0000
vn 0.7071 0.7071 -0.0000
vn -0.0000 -0.0000 -1.0000
vt 0.938022 1.499359
vt 0.925666 1.530393
vt 0.925666 1.499359
vt 0.844768 1.383850
vt 0.832411 1.352815
vt 0.844768 1.352815
vt 0.002000 1.472714
vt 0.325506 1.486039
vt 0.002000 1.486039
vt 0.002000 1.161875
vt 0.329299 1.195724
vt 0.002001 1.195734
vt 0.672546 1.002000
vt 0.996052 1.015324
vt 0.672546 1.015324
vt 0.002001 1.315632
vt 0.329298 1.281764
vt 0.329299 1.315623
vt 0.938022 1.530393
vt 0.832411 1.383850
vt 0.325506 1.472715
vt 0.329298 1.161865
vt 0.996052 1.002000
vt 0.002000 1.281774
s 1
g off
g Object023_low_Material.013
usemtl Material.013
f 49/145/37 51/146/37 52/147/37
f 53/148/38 55/149/38 56/150/38
s 2
f 52/151/39 53/152/39 49/153/39
s 4
f 51/154/40 54/155/40 52/156/40
s 2
f 50/157/41 55/158/41 51/159/41
s 4
f 50/160/42 53/161/42 56/162/42
s 1
f 49/145/37 50/163/37 51/146/37
f 53/148/38 54/164/38 55/149/38
s 2
f 52/151/39 54/165/39 53/152/39
s 4
f 51/154/40 55/166/40 54/155/40
s 2
f 50/157/41 56/167/41 55/158/41
s 4
f 50/160/42 49/168/42 53/161/42
g Object018_low_Mesh
v -0.226384 0.433848 0.226274
v -0.226384 0.476274 0.183848
v -0.246384 0.476274 0.183848
v -0.246384 0.433848 0.226274
v -0.226384 0.023726 -0.183848
v -0.246384 0.023726 -0.183848
v -0.246384 0.066152 -0.226274
v -0.226384 0.066152 -0.226274
vn -0.0000 0.7071 0.7071
vn -0.0000 -0.7071 -0.7071
vn -0.0000 -0.7071 0.7071
vn -1.0000 -0.0000 -0.0000
vn -0.0000 0.7071 -0.7071
vn 1.0000 -0.0000 -0.0000
vt 0.970073 0.050444
vt 0.984536 0.019763
vt 0.984536 0.050444
vt 0.962333 0.064170
vt 0.947869 0.094851
vt 0.947869 0.064170
vt 0.666775 0.057710
vt 0.343934 0.041966
vt 0.666775 0.041966
vt 0.329839 0.035853
vt 0.002000 0.007712
vt 0.329249 0.002000
vt 0.324841 0.586154
vt 0.002000 0.570410
vt 0.324841 0.570410
vt 0.002000 0.361707
vt 0.329299 0.395555
vt 0.002001 0.395565
vt 0.970073 0.019763
vt 0.962333 0.094851
vt 0.343934 0.057710
vt 0.002591 0.041565
vt 0.002000 0.586154
vt 0.329298 0.361697
s 1
g off
g Object018_low_Material.013
usemtl Material.013
f 57/169/43 59/170/43 60/171/43
f 62/172/44 64/173/44 61/174/44
s 2
f 60/175/45 61/176/45 57/177/45
s 4
f 59/178/46 62/179/46 60/180/46
s 2
f 58/181/47 63/182/47 59/183/47
s 4
f 57/184/48 64/185/48 58/186/48
s 1
f 57/169/43 58/187/43 59/170/43
f 62/172/44 63/188/44 64/173/44
s 2
f 60/175/45 62/189/45 61/176/45
s 4
f 59/178/46 63/190/46 62/179/46
s 2
f 58/181/47 64/191/47 63/182/47
s 4
f 57/184/48 61/192/48 64/185/48
g Object015_low_Mesh
v -0.183848 0.476384 -0.226274
v -0.226274 0.476384 -0.183848
v -0.226274 0.493276 -0.183848
v -0.183848 0.493276 -0.226274
v 0.226274 0.476384 0.183848
v 0.226274 0.493276 0.183848
v 0.183848 0.493276 0.226274
v 0.183848 0.476384 0.226274
vn -0.7071 -0.0000 -0.7071
vn 0.7071 -0.0000 0.7071
vn 0.7071 -0.0000 -0.7071
vn -0.0000 1.0000 -0.0000
vn -0.7071 -0.0000 0.7071
vn -0.0000 -1.0000 -0.0000
vt 0.973548 0.530393
vt 0.961191 0.499359
vt 0.973548 0.499359
vt 0.844768 0.463782
vt 0.832411 0.432748
vt 0.844768 0.432748
vt 0.002000 0.490477
vt 0.325506 0.503802
vt 0.002000 0.503802
vt 0.006441 0.041976
vt 0.333740 0.075825
vt 0.006442 0.075835
vt 0.002000 0.508240
vt 0.325506 0.521565
vt 0.002000 0.521565
vt 0.002001 0.115801
vt 0.329298 0.081933
vt 0.329299 0.115791
vt 0.961191 0.530393
vt 0.832411 0.463782
vt 0.325506 0.490477
vt 0.333739 0.041966
vt 0.325506 0.508240
vt 0.002000 0.081942
s 1
g off
g Object015_low_Material.013
usemtl Material.013
f 66/193/49 68/194/49 65/195/49
f 69/196/50 71/197/50 72/198/50
s 2
f 68/199/51 69/200/51 65/201/51
s 4
f 67/202/52 70/203/52 68/204/52
s 2
f 66/205/53 71/206/53 67/207/53
s 4
f 66/208/54 69/209/54 72/210/54
s 1
f 66/193/49 67/211/49 68/194/49
f 69/196/50 70/212/50 71/197/50
s 2
f 68/199/51 70/213/51 69/200/51
s 4
f 67/202/52 71/214/52 70/203/52
s 2
f 66/205/53 72/215/53 71/206/53
s 4
f 66/208/54 65/216/54 69/209/54
g Object024_low_Mesh
v -0.190000 0.060000 0.226274
v 0.190000 0.060000 0.226274
v -0.190000 0.440000 0.226274
v 0.190000 0.440000 0.226274
vn -0.0000 -0.0000 1.0000
vt 0.949153 1.774682
vt 0.734716 1.989119
vt 0.734716 1.774682
vt 0.949153 1.989119
s 1
g off
g Object024_low_Material.013
usemtl Material.013
f 74/217/55 75/218/55 73/219/55
f 74/217/55 76/220/55 75/218/55
g Object019_low_Mesh
v -0.226274 0.060000 -0.190000
v -0.226274 0.060000 0.190000
v -0.226274 0.440000 -0.190000
v -0.226274 0.440000 0.190000
vn -1.0000 -0.0000 -0.0000
vt 0.727118 0.774682
vt 0.512681 0.989119
vt 0.512681 0.774682
vt 0.727118 0.989119
s 1
g off
g Object019_low_Material.013
usemtl Material.013
f 78/221/56 79/222/56 77/223/56
f 78/221/56 80/224/56 79/222/56
g Object001_low_Mesh
v -0.190000 0.000000 -0.250000
v -0.250000 0.000000 -0.250000
v -0.190000 0.000000 -0.190000
v -0.250000 0.000000 -0.190000
v -0.190000 0.500000 -0.250000
v -0.250000 0.500000 -0.250000
v -0.190000 0.500000 -0.190000
v -0.250000 0.500000 -0.190000
vn -0.0000 -1.0000 -0.0000
vn -0.0000 1.0000 -0.0000
vn -0.0000 -0.0000 -1.0000
vn -1.0000 -0.0000 -0.0000
vn -0.0000 -0.0000 1.0000
vn 1.0000 -0.0000 -0.0000
vt 0.995050 0.697523
vt 0.961191 0.663665
vt 0.995050 0.663665
vt 0.961191 0.817422
vt 0.995050 0.783563
vt 0.995050 0.817422
vt 0.284154 0.750811
vt 0.002000 0.716953
vt 0.284154 0.716953
vt 0.284154 0.670879
vt 0.002000 0.637020
vt 0.284154 0.637020
vt 0.002000 0.956751
vt 0.284154 0.990609
vt 0.002000 0.990609
vt 0.284154 0.910677
vt 0.002000 0.876818
vt 0.284154 0.876818
vt 0.961191 0.697523
vt 0.961191 0.783563
vt 0.002000 0.750811
vt 0.002000 0.670879
vt 0.284154 0.956751
vt 0.002000 0.910677
s 1
g off
g Object001_low_Material.013
usemtl Material.013
f 83/225/57 82/226/57 81/227/57
f 86/228/58 87/229/58 85/230/58
s 2
f 82/231/59 85/232/59 81/233/59
s 4
f 84/234/60 86/235/60 82/236/60
s 2
f 83/237/61 88/238/61 84/239/61
s 4
f 81/240/62 87/241/62 83/242/62
s 1
f 83/225/57 84/243/57 82/226/57
f 86/228/58 88/244/58 87/229/58
s 2
f 82/231/59 86/245/59 85/232/59
s 4
f 84/234/60 88/246/60 86/235/60
s 2
f 83/237/61 87/247/61 88/238/61
s 4
f 81/240/62 85/248/62 87/241/62
g Object017_low_Mesh
v -0.226384 0.023726 0.183848
v -0.226384 0.066152 0.226274
v -0.243276 0.066152 0.226274
v -0.243276 0.023726 0.183848
v -0.226384 0.433848 -0.226274
v -0.243276 0.433848 -0.226274
v -0.243276 0.476274 -0.183848
v -0.226384 0.476274 -0.183848
vn -0.0000 -0.7071 0.7071
vn -0.0000 0.7071 -0.7071
vn -0.0000 -0.7071 -0.7071
vn -1.0000 -0.0000 -0.0000
vn -0.0000 0.7071 0.7071
vn 1.0000 -0.0000 -0.0000
vt 0.943429 0.499359
vt 0.955785 0.530393
vt 0.943429 0.530393
vt 0.844768 0.423816
vt 0.832411 0.392782
vt 0.844768 0.392782
vt 0.002000 0.451162
vt 0.329298 0.441630
vt 0.329298 0.451162
vt 0.339493 0.002010
vt 0.666793 0.035858
vt 0.339494 0.035868
vt 0.002000 0.454952
vt 0.325506 0.468276
vt 0.002000 0.468276
vt 0.002001 0.435532
vt 0.329298 0.401663
vt 0.329299 0.435522
vt 0.955785 0.499359
vt 0.832411 0.423816
vt 0.002000 0.441629
vt 0.666792 0.002000
vt 0.325506 0.454952
vt 0.002000 0.401673
s 1
g off
g Object017_low_Material.013
usemtl Material.013
f 90/249/63 92/250/63 89/251/63
f 93/252/64 95/253/64 96/254/64
s 2
f 89/255/65 94/256/65 93/257/65
s 4
f 91/258/66 94/259/66 92/260/66
s 2
f 90/261/67 95/262/67 91/263/67
s 4
f 90/264/68 93/265/68 96/266/68
s 1
f 90/249/63 91/267/63 92/250/63
f 93/252/64 94/268/64 95/253/64
s 2
f 89/255/65 92/269/65 94/256/65
s 4
f 91/258/66 95/270/66 94/259/66
s 2
f 90/261/67 96/271/67 95/262/67
s 4
f 90/264/68 89/272/68 93/265/68
g Object007_low_Mesh
v -0.250000 0.000000 0.190000
v -0.250000 0.000000 0.250000
v -0.190000 0.000000 0.190000
v -0.190000 0.000000 0.250000
v -0.250000 0.500000 0.190000
v -0.250000 0.500000 0.250000
v -0.190000 0.500000 0.190000
v -0.190000 0.500000 0.250000
vn -0.0000 -1.0000 -0.0000
vn -0.0000 1.0000 -0.0000
vn -1.0000 -0.0000 -0.0000
vn -0.0000 -0.0000 1.0000
vn 1.0000 -0.0000 -0.0000
vn -0.0000 -0.0000 -1.0000
vt 0.995050 0.823530
vt 0.961191 0.857388
vt 0.961191 0.823530
vt 0.788004 0.503799
vt 0.821863 0.537658
vt 0.788004 0.537658
vt 0.284154 0.790778
vt 0.002000 0.756919
vt 0.284154 0.756919
vt 0.284154 0.870710
vt 0.002000 0.836852
vt 0.284154 0.836852
vt 0.621647 0.177961
vt 0.339493 0.144102
vt 0.621647 0.144102
vt 0.626088 0.098028
vt 0.343934 0.064170
vt 0.626088 0.064170
vt 0.995050 0.857388
vt 0.821863 0.503799
vt 0.002000 0.790778
vt 0.002000 0.870710
vt 0.339493 0.177961
vt 0.343934 0.098028
s 1
g off
g Object007_low_Material.013
usemtl Material.013
f 99/273/69 98/274/69 97/275/69
f 102/276/70 103/277/70 101/278/70
s 2
f 98/279/71 101/280/71 97/281/71
s 4
f 100/282/72 102/283/72 98/284/72
s 2
f 99/285/73 104/286/73 100/287/73
s 4
f 97/288/74 103/289/74 99/290/74
s 1
f 99/273/69 100/291/69 98/274/69
f 102/276/70 104/292/70 103/277/70
s 2
f 98/279/71 102/293/71 101/280/71
s 4
f 100/282/72 104/294/72 102/283/72
s 2
f 99/285/73 103/295/73 104/286/73
s 4
f 97/288/74 101/296/74 103/289/74
g Object020_low_Mesh
v -0.190000 0.476274 -0.190000
v -0.190000 0.476274 0.190000
v 0.190000 0.476274 -0.190000
v 0.190000 0.476274 0.190000
vn -0.0000 1.0000 -0.0000
vt 0.505082 0.774682
vt 0.290646 0.989119
vt 0.290646 0.774682
vt 0.505082 0.989119
s 1
g off
g Object020_low_Material.013
usemtl Material.013
f 106/297/75 107/298/75 105/299/75
f 106/297/75 108/300/75 107/298/75
g Object002_low_Mesh
v -0.190000 0.500000 -0.250000
v -0.190000 0.500000 -0.190000
v -0.190000 0.440000 -0.250000
v -0.190000 0.440000 -0.190000
v 0.190000 0.500000 -0.250000
v 0.190000 0.500000 -0.190000
v 0.190000 0.440000 -0.250000
v 0.190000 0.440000 -0.190000
vn -1.0000 -0.0000 -0.0000
vn 1.0000 -0.0000 -0.0000
vn -0.0000 1.0000 -0.0000
vn -0.0000 -0.0000 1.0000
vn -0.0000 -1.0000 -0.0000
vn -0.0000 -0.0000 -1.0000
vt 0.792445 0.383900
vt 0.826303 0.417759
vt 0.792445 0.417759
vt 0.792445 0.337826
vt 0.826303 0.303968
vt 0.826303 0.337826
vt 0.637020 0.064170
vt 0.851457 0.098028
vt 0.637020 0.098028
vt 0.565969 0.423867
vt 0.780406 0.457725
vt 0.565969 0.457725
vt 0.561528 0.543766
vt 0.775965 0.577624
vt 0.561528 0.577624
vt 0.549490 0.577624
vt 0.335053 0.543766
vt 0.549490 0.543766
vt 0.826303 0.383900
vt 0.792445 0.303968
vt 0.851457 0.064170
vt 0.780406 0.423867
vt 0.775965 0.543766
vt 0.335053 0.577624
s 1
g off
g Object002_low_Material.013
usemtl Material.013
f 111/301/76 110/302/76 109/303/76
f 114/304/77 115/305/77 113/306/77
s 2
f 110/307/78 113/308/78 109/309/78
s 4
f 112/310/79 114/311/79 110/312/79
s 2
f 111/313/80 116/314/80 112/315/80
s 4
f 109/316/81 115/317/81 111/318/81
s 1
f 111/301/76 112/319/76 110/302/76
f 114/304/77 116/320/77 115/305/77
s 2
f 110/307/78 114/321/78 113/308/78
s 4
f 112/310/79 116/322/79 114/311/79
s 2
f 111/313/80 115/323/80 116/314/80
s 4
f 109/316/81 113/324/81 115/317/81
g Object021_low_Mesh
v 0.190000 0.060000 -0.226274
v -0.190000 0.060000 -0.226274
v 0.190000 0.440000 -0.226274
v -0.190000 0.440000 -0.226274
vn -0.0000 -0.0000 -1.0000
vt 0.949153 0.774682
vt 0.734716 0.989119
vt 0.734716 0.774682
vt 0.949153 0.989119
s 1
g off
g Object021_low_Material.013
usemtl Material.013
f 118/325/82 119/326/82 117/327/82
f 118/325/82 120/328/82 119/326/82
g Object013_low_Mesh
v -0.183848 0.023726 -0.226384
v -0.226274 0.066152 -0.226384
v -0.226274 0.066152 -0.243276
v -0.183848 0.023726 -0.243276
v 0.226274 0.433848 -0.226384
v 0.226274 0.433848 -0.243276
v 0.183848 0.476274 -0.243276
v 0.183848 0.476274 -0.226384
vn -0.7071 -0.7071 -0.0000
vn 0.7071 0.7071 -0.0000
vn 0.7071 -0.7071 -0.0000
vn -0.0000 -0.0000 -1.0000
vn -0.7071 0.7071 -0.0000
vn -0.0000 -0.0000 1.0000
vt 0.938022 0.530393
vt 0.925666 0.499359
vt 0.938022 0.499359
vt 0.844768 0.383850
vt 0.832411 0.352815
vt 0.844768 0.352815
vt 0.002000 0.472714
vt 0.325506 0.486039
vt 0.002000 0.486039
vt 0.002000 0.161875
vt 0.329299 0.195724
vt 0.002001 0.195734
vt 0.672546 0.002000
vt 0.996052 0.015324
vt 0.672546 0.015324
vt 0.002001 0.315632
vt 0.329298 0.281764
vt 0.329299 0.315623
vt 0.925666 0.530393
vt 0.832411 0.383850
vt 0.325506 0.472715
vt 0.329298 0.161865
vt 0.996052 0.002000
vt 0.002000 0.281774
s 1
g off
g Object013_low_Material.013
usemtl Material.013
f 122/329/83 124/330/83 121/331/83
f 125/332/84 127/333/84 128/334/84
s 2
f 124/335/85 125/336/85 121/337/85
s 4
f 123/338/86 126/339/86 124/340/86
s 2
f 122/341/87 127/342/87 123/343/87
s 4
f 122/344/88 125/345/88 128/346/88
s 1
f 122/329/83 123/347/83 124/330/83
f 125/332/84 126/348/84 127/333/84
s 2
f 124/335/85 126/349/85 125/336/85
s 4
f 123/338/86 127/350/86 126/339/86
s 2
f 122/341/87 128/351/87 127/342/87
s 4
f 122/344/88 121/352/88 125/345/88
g Object006_low_Mesh
v -0.190000 0.500000 0.190000
v -0.190000 0.500000 0.250000
v -0.190000 0.440000 0.190000
v -0.190000 0.440000 0.250000
v 0.190000 0.500000 0.190000
v 0.190000 0.500000 0.250000
v 0.190000 0.440000 0.190000
v 0.190000 0.440000 0.250000
vn -1.0000 -0.0000 -0.0000
vn 1.0000 -0.0000 -0.0000
vn -0.0000 1.0000 -0.0000
vn -0.0000 -0.0000 1.0000
vn -0.0000 -1.0000 -0.0000
vn -0.0000 -0.0000 -1.0000
vt 0.947869 0.539325
vt 0.981728 0.573183
vt 0.947869 0.573183
vt 0.907903 0.093588
vt 0.941761 0.059729
vt 0.941761 0.093588
vt 0.290646 0.730275
vt 0.505082 0.764134
vt 0.290646 0.764134
vt 0.339493 0.303968
vt 0.553931 0.337826
vt 0.339493 0.337826
vt 0.290646 0.685868
vt 0.505082 0.719727
vt 0.290646 0.719727
vt 0.847017 0.177961
vt 0.632580 0.144102
vt 0.847017 0.144102
vt 0.981728 0.539325
vt 0.907903 0.059729
vt 0.505082 0.730275
vt 0.553931 0.303968
vt 0.505082 0.685868
vt 0.632580 0.177961
s 1
g off
g Object006_low_Material.013
usemtl Material.013
f 131/353/89 130/354/89 129/355/89
f 134/356/90 135/357/90 133/358/90
s 2
f 130/359/91 133/360/91 129/361/91
s 4
f 132/362/92 134/363/92 130/364/92
s 2
f 131/365/93 136/366/93 132/367/93
s 4
f 129/368/94 135/369/94 131/370/94
s 1
f 131/353/89 132/371/89 130/354/89
f 134/356/90 136/372/90 135/357/90
s 2
f 130/359/91 134/373/91 133/360/91
s 4
f 132/362/92 136/374/92 134/363/92
s 2
f 131/365/93 135/375/93 136/366/93
s 4
f 129/368/94 133/376/94 135/369/94
g Object030_low_Mesh
v 0.190000 0.023726 -0.190000
v 0.190000 0.023726 0.190000
v -0.190000 0.023726 -0.190000
v -0.190000 0.023726 0.190000
vn -0.0000 -1.0000 -0.0000
vt 0.505082 1.774682
vt 0.290646 1.989119
vt 0.290646 1.774682
vt 0.505082 1.989119
s 1
g off
g Object030_low_Material.013
usemtl Material.013
f 138/377/95 139/378/95 137/379/95
f 138/377/95 140/380/95 139/378/95
g Object027_low_Mesh
v 0.226274 0.060000 0.190000
v 0.226274 0.060000 -0.190000
v 0.226274 0.440000 0.190000
v 0.226274 0.440000 -0.190000
vn 1.0000 -0.0000 -0.0000
vt 0.727118 1.774682
vt 0.512681 1.989119
vt 0.512681 1.774682
vt 0.727118 1.989119
s 1
g off
g Object027_low_Material.013
usemtl Material.013
f 142/381/96 143/382/96 141/383/96
f 142/381/96 144/384/96 143/382/96
g Object004_low_Mesh
v 0.250000 0.500000 -0.190000
v 0.190000 0.500000 -0.190000
v 0.250000 0.440000 -0.190000
v 0.190000 0.440000 -0.190000
v 0.250000 0.500000 0.190000
v 0.190000 0.500000 0.190000
v 0.250000 0.440000 0.190000
v 0.190000 0.440000 0.190000
vn -0.0000 -0.0000 -1.0000
vn -0.0000 -0.0000 1.0000
vn -0.0000 1.0000 -0.0000
vn -1.0000 -0.0000 -0.0000
vn -0.0000 -1.0000 -0.0000
vn 1.0000 -0.0000 -0.0000
vt 0.827970 0.494918
vt 0.861829 0.528776
vt 0.827970 0.528776
vt 0.961191 0.737490
vt 0.995050 0.703631
vt 0.995050 0.737490
vt 0.505082 0.675320
vt 0.290646 0.641461
vt 0.505082 0.641461
vt 0.335053 0.583732
vt 0.549490 0.617590
vt 0.335053 0.617590
vt 0.727117 0.719727
vt 0.512681 0.685868
vt 0.727117 0.685868
vt 0.727117 0.764134
vt 0.512681 0.730275
vt 0.727117 0.730275
vt 0.861829 0.494918
vt 0.961191 0.703631
vt 0.290646 0.675320
vt 0.549490 0.583732
vt 0.512681 0.719727
vt 0.512681 0.764134
s 1
g off
g Object004_low_Material.013
usemtl Material.013
f 147/385/97 146/386/97 145/387/97
f 150/388/98 151/389/98 149/390/98
s 2
f 146/391/99 149/392/99 145/393/99
s 4
f 148/394/100 150/395/100 146/396/100
s 2
f 147/397/101 152/398/101 148/399/101
s 4
f 145/400/102 151/401/102 147/402/102
s 1
f 147/385/97 148/403/97 146/386/97
f 150/388/98 152/404/98 151/389/98
s 2
f 146/391/99 150/405/99 149/392/99
s 4
f 148/394/100 152/406/100 150/395/100
s 2
f 147/397/101 151/407/101 152/398/101
s 4
f 145/400/102 149/408/102 151/401/102
g Object003_low_Mesh
v 0.250000 0.000000 -0.190000
v 0.250000 0.000000 -0.250000
v 0.190000 0.000000 -0.190000
v 0.190000 0.000000 -0.250000
v 0.250000 0.500000 -0.190000
v 0.250000 0.500000 -0.250000
v 0.190000 0.500000 -0.190000
v 0.190000 0.500000 -0.250000
vn -0.0000 -1.0000 -0.0000
vn -0.0000 1.0000 -0.0000
vn 1.0000 -0.0000 -0.0000
vn -0.0000 -0.0000 -1.0000
vn -1.0000 -0.0000 -0.0000
vn -0.0000 -0.0000 1.0000
vt 0.827970 0.573183
vt 0.861829 0.539325
vt 0.861829 0.573183
vt 0.897355 0.093587
vt 0.863496 0.059729
vt 0.897355 0.059729
vt 0.339493 0.184069
vt 0.621647 0.217928
vt 0.339493 0.217928
vt 0.621647 0.297860
vt 0.339493 0.264001
vt 0.621647 0.264001
vt 0.621647 0.137995
vt 0.339493 0.104136
vt 0.621647 0.104136
vt 0.284154 0.710845
vt 0.002000 0.676987
vt 0.284154 0.676987
vt 0.827970 0.539325
vt 0.863496 0.093587
vt 0.621647 0.184069
vt 0.339493 0.297860
vt 0.339493 0.137995
vt 0.002000 0.710845
s 1
g off
g Object003_low_Material.013
usemtl Material.013
f 155/409/103 154/410/103 153/411/103
f 158/412/104 159/413/104 157/414/104
s 2
f 154/415/105 157/416/105 153/417/105
s 4
f 156/418/106 158/419/106 154/420/106
s 2
f 155/421/107 160/422/107 156/423/107
s 4
f 153/424/108 159/425/108 155/426/108
s 1
f 155/409/103 156/427/103 154/410/103
f 158/412/104 160/428/104 159/413/104
s 2
f 154/415/105 158/429/105 157/416/105
s 4
f 156/418/106 160/430/106 158/419/106
s 2
f 155/421/107 159/431/107 160/422/107
s 4
f 153/424/108 157/432/108 159/425/108
g Object029_low_Mesh
v 0.183848 0.023616 -0.226274
v 0.226274 0.023616 -0.183848
v 0.226274 0.006724 -0.183848
v 0.183848 0.006724 -0.226274
v -0.226274 0.023616 0.183848
v -0.226274 0.006724 0.183848
v -0.183848 0.006724 0.226274
v -0.183848 0.023616 0.226274
vn 0.7071 -0.0000 -0.7071
vn -0.7071 -0.0000 0.7071
vn -0.7071 -0.0000 -0.7071
vn -0.0000 -1.0000 -0.0000
vn 0.7071 -0.0000 0.7071
vn -0.0000 1.0000 -0.0000
vt 0.973548 1.530393
vt 0.961191 1.499359
vt 0.973548 1.499359
vt 0.844768 1.463782
vt 0.832411 1.432748
vt 0.844768 1.432748
vt 0.002000 1.490477
vt 0.325506 1.503802
vt 0.002000 1.503802
vt 0.006441 1.041976
vt 0.333740 1.075825
vt 0.006442 1.075835
vt 0.002000 1.508240
vt 0.325506 1.521565
vt 0.002000 1.521565
vt 0.002001 1.115801
vt 0.329298 1.081933
vt 0.329299 1.115791
vt 0.961191 1.530393
vt 0.832411 1.463782
vt 0.325506 1.490477
vt 0.333739 1.041966
vt 0.325506 1.508240
vt 0.002000 1.081942
s 1
g off
g Object029_low_Material.013
usemtl Material.013
f 162/433/109 164/434/109 161/435/109
f 165/436/110 167/437/110 168/438/110
s 2
f 164/439/111 165/440/111 161/441/111
s 4
f 163/442/112 166/443/112 164/444/112
s 2
f 162/445/113 167/446/113 163/447/113
s 4
f 162/448/114 165/449/114 168/450/114
s 1
f 162/433/109 163/451/109 164/434/109
f 165/436/110 166/452/110 167/437/110
s 2
f 164/439/111 166/453/111 165/440/111
s 4
f 163/442/112 167/454/112 166/443/112
s 2
f 162/445/113 168/455/113 167/446/113
s 4
f 162/448/114 161/456/114 165/449/114
g Object005_low_Mesh
v 0.190000 0.000000 0.250000
v 0.250000 0.000000 0.250000
v 0.190000 0.000000 0.190000
v 0.250000 0.000000 0.190000
v 0.190000 0.500000 0.250000
v 0.250000 0.500000 0.250000
v 0.190000 0.500000 0.190000
v 0.250000 0.500000 0.190000
vn -0.0000 -1.0000 -0.0000
vn -0.0000 1.0000 -0.0000
vn -0.0000 -0.0000 1.0000
vn 1.0000 -0.0000 -0.0000
vn -0.0000 -0.0000 -1.0000
vn -1.0000 -0.0000 -0.0000
vt 0.788004 0.463833
vt 0.821863 0.497692
vt 0.788004 0.497692
vt 0.995050 0.903462
vt 0.961191 0.937321
vt 0.961191 0.903462
vt 0.621647 0.257894
vt 0.339493 0.224035
vt 0.621647 0.224035
vt 0.284154 0.830744
vt 0.002000 0.796886
vt 0.284154 0.796886
vt 0.284154 0.950643
vt 0.002000 0.916784
vt 0.284154 0.916784
vt 0.959141 0.053621
vt 0.676987 0.019763
vt 0.959141 0.019763
vt 0.821863 0.463833
vt 0.995050 0.937321
vt 0.339493 0.257894
vt 0.002000 0.830744
vt 0.002000 0.950643
vt 0.676987 0.053621
s 1
g off
g Object005_low_Material.013
usemtl Material.013
f 171/457/115 170/458/115 169/459/115
f 174/460/116 175/461/116 173/462/116
s 2
f 170/463/117 173/464/117 169/465/117
s 4
f 172/466/118 174/467/118 170/468/118
s 2
f 171/469/119 176/470/119 172/471/119
s 4
f 169/472/120 175/473/120 171/474/120
s 1
f 171/457/115 172/475/115 170/458/115
f 174/460/116 176/476/116 175/461/116
s 2
f 170/463/117 174/477/117 173/464/117
s 4
f 172/466/118 176/478/118 174/467/118
s 2
f 171/469/119 175/479/119 176/470/119
s 4
f 169/472/120 173/480/120 175/473/120
g Object028_low_Mesh
v 0.226274 0.023616 0.183848
v 0.183848 0.023616 0.226274
v 0.183848 0.003616 0.226274
v 0.226274 0.003616 0.183848
v -0.183848 0.023616 -0.226274
v -0.183848 0.003616 -0.226274
v -0.226274 0.003616 -0.183848
v -0.226274 0.023616 -0.183848
vn 0.7071 -0.0000 0.7071
vn -0.7071 -0.0000 -0.7071
vn 0.7071 -0.0000 -0.7071
vn -0.0000 -1.0000 -0.0000
vn -0.7071 -0.0000 0.7071
vn -0.0000 1.0000 -0.0000
vt 0.919189 1.494918
vt 0.907903 1.528776
vt 0.907903 1.494918
vt 0.970073 1.059729
vt 0.984536 1.090410
vt 0.970073 1.090410
vt 0.002000 1.526003
vt 0.324841 1.541747
vt 0.002000 1.541746
vt 0.329299 1.121899
vt 0.002001 1.155767
vt 0.002000 1.121909
vt 0.002000 1.614817
vt 0.324841 1.630561
vt 0.002000 1.630561
vt 0.329299 1.275656
vt 0.002000 1.241807
vt 0.329299 1.241798
vt 0.919189 1.528776
vt 0.984536 1.059729
vt 0.324841 1.526003
vt 0.329299 1.155757
vt 0.324841 1.614817
vt 0.002001 1.275666
s 1
g off
g Object028_low_Material.013
usemtl Material.013
f 177/481/121 179/482/121 180/483/121
f 181/484/122 183/485/122 184/486/122
s 2
f 180/487/123 181/488/123 177/489/123
s 4
f 180/490/124 183/491/124 182/492/124
s 2
f 178/493/125 183/494/125 179/495/125
s 4
f 177/496/126 184/497/126 178/498/126
s 1
f 177/481/121 178/499/121 179/482/121
f 181/484/122 182/500/122 183/485/122
s 2
f 180/487/123 182/501/123 181/488/123
s 4
f 180/490/124 179/502/124 183/491/124
s 2
f 178/493/125 184/503/125 183/494/125
s 4
f 177/496/126 181/504/126 184/497/126
g Object009_low_Mesh
v 0.190000 0.000000 -0.250000
v 0.190000 0.000000 -0.190000
v 0.190000 0.060000 -0.250000
v 0.190000 0.060000 -0.190000
v -0.190000 0.000000 -0.250000
v -0.190000 0.000000 -0.190000
v -0.190000 0.060000 -0.250000
v -0.190000 0.060000 -0.190000
vn 1.0000 -0.0000 -0.0000
vn -1.0000 -0.0000 -0.0000
vn -0.0000 -1.0000 -0.0000
vn -0.0000 -0.0000 1.0000
vn -0.0000 1.0000 -0.0000
vn -0.0000 -0.0000 -1.0000
vt 0.821863 0.577624
vt 0.788004 0.543766
vt 0.821863 0.543766
vt 0.826303 0.423867
vt 0.792445 0.457725
vt 0.792445 0.423867
vt 0.949152 0.719727
vt 0.734716 0.685868
vt 0.949152 0.685868
vt 0.847017 0.217927
vt 0.632580 0.184069
vt 0.847017 0.184069
vt 0.775965 0.617591
vt 0.561528 0.583732
vt 0.775965 0.583732
vt 0.734716 0.730275
vt 0.949152 0.764134
vt 0.734716 0.764134
vt 0.788004 0.577624
vt 0.826303 0.457725
vt 0.734716 0.719727
vt 0.632580 0.217927
vt 0.561528 0.617590
vt 0.949152 0.730275
s 1
g off
g Object009_low_Material.013
usemtl Material.013
f 187/505/127 186/506/127 185/507/127
f 190/508/128 191/509/128 189/510/128
s 2
f 186/511/129 189/512/129 185/513/129
s 4
f 188/514/130 190/515/130 186/516/130
s 2
f 187/517/131 192/518/131 188/519/131
s 4
f 185/520/132 191/521/132 187/522/132
s 1
f 187/505/127 188/523/127 186/506/127
f 190/508/128 192/524/128 191/509/128
s 2
f 186/511/129 190/525/129 189/512/129
s 4
f 188/514/130 192/526/130 190/515/130
s 2
f 187/517/131 191/527/131 192/518/131
s 4
f 185/520/132 189/528/132 191/521/132
g Object014_low_Mesh
v -0.226274 0.433848 -0.226384
v -0.183848 0.476274 -0.226384
v -0.183848 0.476274 -0.246384
v -0.226274 0.433848 -0.246384
v 0.183848 0.023726 -0.226384
v 0.183848 0.023726 -0.246384
v 0.226274 0.066152 -0.246384
v 0.226274 0.066152 -0.226384
vn -0.7071 0.7071 -0.0000
vn 0.7071 -0.7071 -0.0000
vn -0.7071 -0.7071 -0.0000
vn -0.0000 -0.0000 -1.0000
vn 0.7071 0.7071 -0.0000
vn -0.0000 -0.0000 1.0000
vt 0.843697 0.342267
vt 0.832411 0.308408
vt 0.843697 0.308408
vt 0.854615 0.108577
vt 0.869078 0.139258
vt 0.854615 0.139258
vt 0.002000 0.548206
vt 0.324841 0.563950
vt 0.002000 0.563950
vt 0.329299 0.201832
vt 0.002001 0.235700
vt 0.002000 0.201841
vt 0.002000 0.592613
vt 0.324841 0.608357
vt 0.002000 0.608357
vt 0.329299 0.355589
vt 0.002000 0.321740
vt 0.329298 0.321731
vt 0.832411 0.342267
vt 0.869078 0.108577
vt 0.324841 0.548206
vt 0.329299 0.235690
vt 0.324841 0.592613
vt 0.002001 0.355599
s 1
g off
g Object014_low_Material.013
usemtl Material.013
f 194/529/133 196/530/133 193/531/133
f 197/532/134 199/533/134 200/534/134
s 2
f 196/535/135 197/536/135 193/537/135
s 4
f 196/538/136 199/539/136 198/540/136
s 2
f 194/541/137 199/542/137 195/543/137
s 4
f 193/544/138 200/545/138 194/546/138
s 1
f 194/529/133 195/547/133 196/530/133
f 197/532/134 198/548/134 199/533/134
s 2
f 196/535/135 198/549/135 197/536/135
s 4
f 196/538/136 195/550/136 199/539/136
s 2
f 194/541/137 200/551/137 199/542/137
s 4
f 193/544/138 197/552/138 200/545/138
g Object010_low_Mesh
v -0.190000 0.000000 0.190000
v -0.250000 0.000000 0.190000
v -0.190000 0.060000 0.190000
v -0.250000 0.060000 0.190000
v -0.190000 0.000000 -0.190000
v -0.250000 0.000000 -0.190000
v -0.190000 0.060000 -0.190000
v -0.250000 0.060000 -0.190000
vn -0.0000 -0.0000 1.0000
vn -0.0000 -0.0000 -1.0000
vn -0.0000 -1.0000 -0.0000
vn -1.0000 -0.0000 -0.0000
vn -0.0000 1.0000 -0.0000
vn 1.0000 -0.0000 -0.0000
vt 0.995050 0.657557
vt 0.961191 0.623698
vt 0.995050 0.623698
vt 0.901795 0.539325
vt 0.867937 0.573183
vt 0.867937 0.539325
vt 0.847017 0.137995
vt 0.632580 0.104136
vt 0.847017 0.104136
vt 0.553931 0.457725
vt 0.339493 0.423867
vt 0.553931 0.423867
vt 0.335053 0.463833
vt 0.549490 0.497691
vt 0.335053 0.497691
vt 0.565969 0.303968
vt 0.780406 0.337826
vt 0.565969 0.337826
vt 0.961191 0.657557
vt 0.901795 0.573183
vt 0.632580 0.137995
vt 0.339493 0.457725
vt 0.549490 0.463833
vt 0.780406 0.303968
s 1
g off
g Object010_low_Material.013
usemtl Material.013
f 203/553/139 202/554/139 201/555/139
f 206/556/140 207/557/140 205/558/140
s 2
f 202/559/141 205/560/141 201/561/141
s 4
f 204/562/142 206/563/142 202/564/142
s 2
f 203/565/143 208/566/143 204/567/143
s 4
f 201/568/144 207/569/144 203/570/144
s 1
f 203/553/139 204/571/139 202/554/139
f 206/556/140 208/572/140 207/557/140
s 2
f 202/559/141 206/573/141 205/560/141
s 4
f 204/562/142 208/574/142 206/563/142
s 2
f 203/565/143 207/575/143 208/566/143
s 4
f 201/568/144 205/576/144 207/569/144
g Object012_low_Mesh
v 0.190000 0.000000 0.190000
v 0.190000 0.000000 0.250000
v 0.190000 0.060000 0.190000
v 0.190000 0.060000 0.250000
v -0.190000 0.000000 0.190000
v -0.190000 0.000000 0.250000
v -0.190000 0.060000 0.190000
v -0.190000 0.060000 0.250000
vn 1.0000 -0.0000 -0.0000
vn -1.0000 -0.0000 -0.0000
vn -0.0000 -1.0000 -0.0000
vn -0.0000 -0.0000 1.0000
vn -0.0000 1.0000 -0.0000
vn -0.0000 -0.0000 -1.0000
vt 0.826303 0.377792
vt 0.792445 0.343934
vt 0.826303 0.343934
vt 0.995050 0.943429
vt 0.961191 0.977287
vt 0.961191 0.943429
vt 0.949152 0.675320
vt 0.734716 0.641461
vt 0.949152 0.641461
vt 0.553931 0.417759
vt 0.339493 0.383900
vt 0.553931 0.383900
vt 0.775965 0.537658
vt 0.561528 0.503799
vt 0.775965 0.503799
vt 0.632580 0.224035
vt 0.847017 0.257894
vt 0.632580 0.257894
vt 0.792445 0.377792
vt 0.995050 0.977287
vt 0.734716 0.675320
vt 0.339493 0.417759
vt 0.561528 0.537658
vt 0.847017 0.224035
s 1
g off
g Object012_low_Material.013
usemtl Material.013
f 211/577/145 210/578/145 209/579/145
f 214/580/146 215/581/146 213/582/146
s 2
f 210/583/147 213/584/147 209/585/147
s 4
f 212/586/148 214/587/148 210/588/148
s 2
f 211/589/149 216/590/149 212/591/149
s 4
f 209/592/150 215/593/150 211/594/150
s 1
f 211/577/145 212/595/145 210/578/145
f 214/580/146 216/596/146 215/581/146
s 2
f 210/583/147 214/597/147 213/584/147
s 4
f 212/586/148 216/598/148 214/587/148
s 2
f 211/589/149 215/599/149 216/590/149
s 4
f 209/592/150 213/600/150 215/593/150
