# Blender 5.0.1
# www.blender.org
mtllib cajaMetalExclamation.mtl
g Object02_low_Mesh
v -0.190000 0.476274 -0.190000
v -0.190000 0.476274 0.190000
v 0.190000 0.476274 -0.190000
v 0.190000 0.476274 0.190000
vn -0.0000 1.0000 -0.0000
vt 0.787439 0.739004
vt 0.529703 0.996740
vt 0.529703 0.739004
vt 0.787439 0.996740
s 1
g off
g Object02_low_Material.012
usemtl Material.012
f 2/1/1 3/2/1 1/3/1
f 2/1/1 4/4/1 3/2/1
g Object17_low_Mesh
v -0.190000 0.000000 -0.250000
v -0.250000 0.000000 -0.250000
v -0.190000 0.000000 -0.190000
v -0.250000 0.000000 -0.190000
v -0.190000 0.500000 -0.250000
v -0.250000 0.500000 -0.250000
v -0.190000 0.500000 -0.190000
v -0.250000 0.500000 -0.190000
vn -0.0000 -1.0000 -0.0000
vn -0.0000 1.0000 -0.0000
vn -0.0000 -0.0000 -1.0000
vn -1.0000 -0.0000 -0.0000
vn -0.0000 -0.0000 1.0000
vn 1.0000 -0.0000 -0.0000
vt 0.838849 0.770599
vt 0.798154 0.729904
vt 0.838849 0.729904
vt 0.798154 0.907100
vt 0.838849 0.866405
vt 0.838849 0.907100
vt 0.341027 0.133596
vt 0.001900 0.092900
vt 0.341027 0.092900
vt 0.686829 0.042595
vt 0.347702 0.001900
vt 0.686829 0.001900
vt 0.001900 0.274901
vt 0.341027 0.315597
vt 0.001900 0.315597
vt 0.341026 0.634099
vt 0.001900 0.593403
vt 0.341026 0.593403
vt 0.798154 0.770599
vt 0.798154 0.866405
vt 0.001900 0.133596
vt 0.347702 0.042595
vt 0.341027 0.274901
vt 0.001900 0.634099
s 1
g off
g Object17_low_Material.012
usemtl Material.012
f 7/5/2 6/6/2 5/7/2
f 10/8/3 11/9/3 9/10/3
s 2
f 6/11/4 9/12/4 5/13/4
s 4
f 8/14/5 10/15/5 6/16/5
s 2
f 7/17/6 12/18/6 8/19/6
s 4
f 5/20/7 11/21/7 7/22/7
s 1
f 7/5/2 8/23/2 6/6/2
f 10/8/3 12/24/3 11/9/3
s 2
f 6/11/4 10/25/4 9/12/4
s 4
f 8/14/5 12/26/5 10/15/5
s 2
f 7/17/6 11/27/6 12/18/6
s 4
f 5/20/7 9/28/7 11/21/7
g Object10_low_Mesh
v 0.190000 0.000000 -0.250000
v 0.190000 0.000000 -0.190000
v 0.190000 0.060000 -0.250000
v 0.190000 0.060000 -0.190000
v -0.190000 0.000000 -0.250000
v -0.190000 0.000000 -0.190000
v -0.190000 0.060000 -0.250000
v -0.190000 0.060000 -0.190000
vn 1.0000 -0.0000 -0.0000
vn -1.0000 -0.0000 -0.0000
vn -0.0000 -1.0000 -0.0000
vn -0.0000 -0.0000 1.0000
vn -0.0000 1.0000 -0.0000
vn -0.0000 -0.0000 -1.0000
vt 0.979900 0.361097
vt 0.939205 0.320402
vt 0.979900 0.320402
vt 0.929850 0.320402
vt 0.889155 0.361097
vt 0.889155 0.320402
vt 0.787439 0.729649
vt 0.529703 0.688954
vt 0.787439 0.688954
vt 0.609988 0.397497
vt 0.352252 0.356802
vt 0.609988 0.356802
vt 0.878440 0.406597
vt 0.620703 0.365902
vt 0.878440 0.365902
vt 0.352252 0.447802
vt 0.609988 0.488497
vt 0.352252 0.488497
vt 0.939205 0.361097
vt 0.929850 0.361097
vt 0.529703 0.729649
vt 0.352252 0.397497
vt 0.620703 0.406597
vt 0.609988 0.447802
s 1
g off
g Object10_low_Material.012
usemtl Material.012
f 15/29/8 14/30/8 13/31/8
f 18/32/9 19/33/9 17/34/9
s 2
f 14/35/10 17/36/10 13/37/10
s 4
f 16/38/11 18/39/11 14/40/11
s 2
f 15/41/12 20/42/12 16/43/12
s 4
f 13/44/13 19/45/13 15/46/13
s 1
f 15/29/8 16/47/8 14/30/8
f 18/32/9 20/48/9 19/33/9
s 2
f 14/35/10 18/49/10 17/36/10
s 4
f 16/38/11 20/50/11 18/39/11
s 2
f 15/41/12 19/51/12 20/42/12
s 4
f 13/44/13 17/52/13 19/45/13
g Object11_low_Mesh
v -0.190000 0.500000 -0.190000
v -0.250000 0.500000 -0.190000
v -0.190000 0.440000 -0.190000
v -0.250000 0.440000 -0.190000
v -0.190000 0.500000 0.190000
v -0.250000 0.500000 0.190000
v -0.190000 0.440000 0.190000
v -0.250000 0.440000 0.190000
vn -0.0000 -0.0000 -1.0000
vn -0.0000 -0.0000 1.0000
vn -0.0000 1.0000 -0.0000
vn -1.0000 -0.0000 -0.0000
vn -0.0000 -1.0000 -0.0000
vn 1.0000 -0.0000 -0.0000
vt 0.798154 0.911905
vt 0.838849 0.952600
vt 0.798154 0.952600
vt 0.889155 0.406597
vt 0.929850 0.365902
vt 0.929850 0.406597
vt 0.609988 0.670499
vt 0.352252 0.629803
vt 0.609988 0.629803
vt 0.001900 0.957405
vt 0.259637 0.998100
vt 0.001900 0.998100
vt 0.001900 0.820904
vt 0.259637 0.861599
vt 0.001900 0.861599
vt 0.259637 0.725098
vt 0.001900 0.684404
vt 0.259637 0.684404
vt 0.838849 0.911905
vt 0.889155 0.365902
vt 0.352252 0.670499
vt 0.259637 0.957405
vt 0.259637 0.820904
vt 0.001900 0.725098
s 1
g off
g Object11_low_Material.012
usemtl Material.012
f 23/53/14 22/54/14 21/55/14
f 26/56/15 27/57/15 25/58/15
s 2
f 22/59/16 25/60/16 21/61/16
s 4
f 24/62/17 26/63/17 22/64/17
s 2
f 23/65/18 28/66/18 24/67/18
s 4
f 21/68/19 27/69/19 23/70/19
s 1
f 23/53/14 24/71/14 22/54/14
f 26/56/15 28/72/15 27/57/15
s 2
f 22/59/16 26/73/16 25/60/16
s 4
f 24/62/17 28/74/17 26/63/17
s 2
f 23/65/18 27/75/18 28/66/18
s 4
f 21/68/19 25/76/19 27/69/19
g Object01_low_Mesh
v 0.190000 0.060000 -0.226274
v -0.190000 0.060000 -0.226274
v 0.190000 0.440000 -0.226274
v -0.190000 0.440000 -0.226274
vn -0.0000 -0.0000 -1.0000
vt 0.523538 0.739004
vt 0.265801 0.996740
vt 0.265801 0.739004
vt 0.523538 0.996740
s 1
g off
g Object01_low_Material.012
usemtl Material.012
f 30/77/20 31/78/20 29/79/20
f 30/77/20 32/80/20 31/78/20
g Object16_low_Mesh
v -0.250000 0.000000 0.190000
v -0.250000 0.000000 0.250000
v -0.190000 0.000000 0.190000
v -0.190000 0.000000 0.250000
v -0.250000 0.500000 0.190000
v -0.250000 0.500000 0.250000
v -0.190000 0.500000 0.190000
v -0.190000 0.500000 0.250000
vn -0.0000 -1.0000 -0.0000
vn -0.0000 1.0000 -0.0000
vn -1.0000 -0.0000 -0.0000
vn -0.0000 -0.0000 1.0000
vn 1.0000 -0.0000 -0.0000
vn -0.0000 -0.0000 -1.0000
vt 0.979900 0.274901
vt 0.939205 0.315597
vt 0.939205 0.274901
vt 0.889155 0.138401
vt 0.929850 0.179096
vt 0.889155 0.179096
vt 0.341027 0.224596
vt 0.001900 0.183901
vt 0.341027 0.183901
vt 0.341027 0.361097
vt 0.001900 0.320402
vt 0.341027 0.320402
vt 0.341027 0.497598
vt 0.001900 0.456902
vt 0.341027 0.456902
vt 0.341027 0.270097
vt 0.001900 0.229401
vt 0.341027 0.229401
vt 0.979900 0.315597
vt 0.929850 0.138401
vt 0.001900 0.224596
vt 0.001900 0.361097
vt 0.001900 0.497598
vt 0.001900 0.270097
s 1
g off
g Object16_low_Material.012
usemtl Material.012
f 35/81/21 34/82/21 33/83/21
f 38/84/22 39/85/22 37/86/22
s 2
f 34/87/23 37/88/23 33/89/23
s 4
f 36/90/24 38/91/24 34/92/24
s 2
f 35/93/25 40/94/25 36/95/25
s 4
f 33/96/26 39/97/26 35/98/26
s 1
f 35/81/21 36/99/21 34/82/21
f 38/84/22 40/100/22 39/85/22
s 2
f 34/87/23 38/101/23 37/88/23
s 4
f 36/90/24 40/102/24 38/91/24
s 2
f 35/93/25 39/103/25 40/94/25
s 4
f 33/96/26 37/104/26 39/97/26
g Object15_low_Mesh
v 0.190000 0.000000 0.250000
v 0.250000 0.000000 0.250000
v 0.190000 0.000000 0.190000
v 0.250000 0.000000 0.190000
v 0.190000 0.500000 0.250000
v 0.250000 0.500000 0.250000
v 0.190000 0.500000 0.190000
v 0.250000 0.500000 0.190000
vn -0.0000 -1.0000 -0.0000
vn -0.0000 1.0000 -0.0000
vn -0.0000 -0.0000 1.0000
vn 1.0000 -0.0000 -0.0000
vn -0.0000 -0.0000 -1.0000
vn -1.0000 -0.0000 -0.0000
vt 0.798154 0.820904
vt 0.838849 0.861600
vt 0.798154 0.861600
vt 0.979900 0.183901
vt 0.939205 0.224596
vt 0.939205 0.183901
vt 0.341026 0.588598
vt 0.001900 0.547903
vt 0.341026 0.547903
vt 0.341027 0.179096
vt 0.001900 0.138401
vt 0.341027 0.138401
vt 0.341027 0.406597
vt 0.001900 0.365902
vt 0.341027 0.365902
vt 0.341027 0.042595
vt 0.001900 0.001900
vt 0.341027 0.001900
vt 0.838849 0.820904
vt 0.979900 0.224596
vt 0.001900 0.588598
vt 0.001900 0.179096
vt 0.001900 0.406597
vt 0.001900 0.042595
s 1
g off
g Object15_low_Material.012
usemtl Material.012
f 43/105/27 42/106/27 41/107/27
f 46/108/28 47/109/28 45/110/28
s 2
f 42/111/29 45/112/29 41/113/29
s 4
f 44/114/30 46/115/30 42/116/30
s 2
f 43/117/31 48/118/31 44/119/31
s 4
f 41/120/32 47/121/32 43/122/32
s 1
f 43/105/27 44/123/27 42/106/27
f 46/108/28 48/124/28 47/109/28
s 2
f 42/111/29 46/125/29 45/112/29
s 4
f 44/114/30 48/126/30 46/115/30
s 2
f 43/117/31 47/127/31 48/118/31
s 4
f 41/120/32 45/128/32 47/121/32
g Object12_low_Mesh
v -0.190000 0.000000 0.190000
v -0.250000 0.000000 0.190000
v -0.190000 0.060000 0.190000
v -0.250000 0.060000 0.190000
v -0.190000 0.000000 -0.190000
v -0.250000 0.000000 -0.190000
v -0.190000 0.060000 -0.190000
v -0.250000 0.060000 -0.190000
vn -0.0000 -0.0000 1.0000
vn -0.0000 -0.0000 -1.0000
vn -0.0000 -1.0000 -0.0000
vn -1.0000 -0.0000 -0.0000
vn -0.0000 1.0000 -0.0000
vn 1.0000 -0.0000 -0.0000
vt 0.838849 0.725099
vt 0.798154 0.684404
vt 0.838849 0.684404
vt 0.929850 0.092900
vt 0.889155 0.133596
vt 0.889155 0.092900
vt 0.878440 0.133596
vt 0.620703 0.092900
vt 0.878440 0.092900
vt 0.259637 0.952600
vt 0.001900 0.911905
vt 0.259637 0.911905
vt 0.001900 0.775404
vt 0.259637 0.816099
vt 0.001900 0.816099
vt 0.620703 0.320402
vt 0.878440 0.361097
vt 0.620703 0.361097
vt 0.798154 0.725099
vt 0.929850 0.133596
vt 0.620703 0.133596
vt 0.001900 0.952600
vt 0.259637 0.775404
vt 0.878440 0.320402
s 1
g off
g Object12_low_Material.012
usemtl Material.012
f 51/129/33 50/130/33 49/131/33
f 54/132/34 55/133/34 53/134/34
s 2
f 50/135/35 53/136/35 49/137/35
s 4
f 52/138/36 54/139/36 50/140/36
s 2
f 51/141/37 56/142/37 52/143/37
s 4
f 49/144/38 55/145/38 51/146/38
s 1
f 51/129/33 52/147/33 50/130/33
f 54/132/34 56/148/34 55/133/34
s 2
f 50/135/35 54/149/35 53/136/35
s 4
f 52/138/36 56/150/36 54/139/36
s 2
f 51/141/37 55/151/37 56/142/37
s 4
f 49/144/38 53/152/38 55/145/38
g Object05_low_Mesh
v 0.226274 0.060000 0.190000
v 0.226274 0.060000 -0.190000
v 0.226274 0.440000 0.190000
v 0.226274 0.440000 -0.190000
vn 1.0000 -0.0000 -0.0000
vt 0.609988 1.047400
vt 0.352252 1.305136
vt 0.352252 1.047400
vt 0.609988 1.305136
s 1
g off
g Object05_low_Material.012
usemtl Material.012
f 58/153/39 59/154/39 57/155/39
f 58/153/39 60/156/39 59/154/39
g Object14_low_Mesh
v 0.250000 0.000000 0.190000
v 0.190000 0.000000 0.190000
v 0.250000 0.060000 0.190000
v 0.190000 0.060000 0.190000
v 0.250000 0.000000 -0.190000
v 0.190000 0.000000 -0.190000
v 0.250000 0.060000 -0.190000
v 0.190000 0.060000 -0.190000
vn -0.0000 -0.0000 1.0000
vn -0.0000 -0.0000 -1.0000
vn -0.0000 -1.0000 -0.0000
vn -1.0000 -0.0000 -0.0000
vn -0.0000 1.0000 -0.0000
vn 1.0000 -0.0000 -0.0000
vt 0.838849 0.816100
vt 0.798154 0.775404
vt 0.838849 0.775404
vt 0.929850 0.047400
vt 0.889155 0.088095
vt 0.889155 0.047400
vt 0.878440 0.452097
vt 0.620703 0.411402
vt 0.878440 0.411402
vt 0.878439 0.679599
vt 0.620703 0.638903
vt 0.878439 0.638903
vt 0.620703 0.456902
vt 0.878440 0.497598
vt 0.620703 0.497598
vt 0.620703 0.274901
vt 0.878440 0.315596
vt 0.620703 0.315596
vt 0.798154 0.816100
vt 0.929850 0.088095
vt 0.620703 0.452097
vt 0.620703 0.679599
vt 0.878440 0.456902
vt 0.878440 0.274901
s 1
g off
g Object14_low_Material.012
usemtl Material.012
f 63/157/40 62/158/40 61/159/40
f 66/160/41 67/161/41 65/162/41
s 2
f 62/163/42 65/164/42 61/165/42
s 4
f 64/166/43 66/167/43 62/168/43
s 2
f 63/169/44 68/170/44 64/171/44
s 4
f 61/172/45 67/173/45 63/174/45
s 1
f 63/157/40 64/175/40 62/158/40
f 66/160/41 68/176/41 67/161/41
s 2
f 62/163/42 66/177/42 65/164/42
s 4
f 64/166/43 68/178/43 66/167/43
s 2
f 63/169/44 67/179/44 68/170/44
s 4
f 61/172/45 65/180/45 67/173/45
g Object13_low_Mesh
v 0.250000 0.500000 -0.190000
v 0.190000 0.500000 -0.190000
v 0.250000 0.440000 -0.190000
v 0.190000 0.440000 -0.190000
v 0.250000 0.500000 0.190000
v 0.190000 0.500000 0.190000
v 0.250000 0.440000 0.190000
v 0.190000 0.440000 0.190000
vn -0.0000 -0.0000 -1.0000
vn -0.0000 -0.0000 1.0000
vn -0.0000 1.0000 -0.0000
vn -1.0000 -0.0000 -0.0000
vn -0.0000 -1.0000 -0.0000
vn 1.0000 -0.0000 -0.0000
vt 0.889155 0.229401
vt 0.929850 0.270096
vt 0.889155 0.270096
vt 0.957405 0.042596
vt 0.998100 0.001900
vt 0.998100 0.042596
vt 0.609988 0.624998
vt 0.352252 0.584303
vt 0.609988 0.584303
vt 0.620703 0.138401
vt 0.878440 0.179096
vt 0.620703 0.179096
vt 0.523537 0.729649
vt 0.265801 0.688954
vt 0.523537 0.688954
vt 0.609988 0.579498
vt 0.352252 0.538803
vt 0.609988 0.538803
vt 0.929850 0.229401
vt 0.957405 0.001900
vt 0.352252 0.624998
vt 0.878440 0.138401
vt 0.265801 0.729649
vt 0.352252 0.579498
s 1
g off
g Object13_low_Material.012
usemtl Material.012
f 71/181/46 70/182/46 69/183/46
f 74/184/47 75/185/47 73/186/47
s 2
f 70/187/48 73/188/48 69/189/48
s 4
f 72/190/49 74/191/49 70/192/49
s 2
f 71/193/50 76/194/50 72/195/50
s 4
f 69/196/51 75/197/51 71/198/51
s 1
f 71/181/46 72/199/46 70/182/46
f 74/184/47 76/200/47 75/185/47
s 2
f 70/187/48 74/201/48 73/188/48
s 4
f 72/190/49 76/202/49 74/191/49
s 2
f 71/193/50 75/203/50 76/194/50
s 4
f 69/196/51 73/204/51 75/197/51
g Object06_low_Mesh
v -0.190000 0.060000 0.226274
v 0.190000 0.060000 0.226274
v -0.190000 0.440000 0.226274
v 0.190000 0.440000 0.226274
vn -0.0000 -0.0000 1.0000
vt 0.523538 1.739004
vt 0.265801 1.996740
vt 0.265801 1.739004
vt 0.523538 1.996740
s 1
g off
g Object06_low_Material.012
usemtl Material.012
f 78/205/52 79/206/52 77/207/52
f 78/205/52 80/208/52 79/206/52
g Object00_low_Mesh
v 0.250000 0.000000 -0.190000
v 0.250000 0.000000 -0.250000
v 0.190000 0.000000 -0.190000
v 0.190000 0.000000 -0.250000
v 0.250000 0.500000 -0.190000
v 0.250000 0.500000 -0.250000
v 0.190000 0.500000 -0.190000
v 0.190000 0.500000 -0.250000
vn -0.0000 -1.0000 -0.0000
vn -0.0000 1.0000 -0.0000
vn 1.0000 -0.0000 -0.0000
vn -0.0000 -0.0000 -1.0000
vn -1.0000 -0.0000 -0.0000
vn -0.0000 -0.0000 1.0000
vt 0.939205 0.088096
vt 0.979900 0.047400
vt 0.979900 0.088096
vt 0.979900 0.133596
vt 0.939205 0.092900
vt 0.979900 0.092900
vt 0.001900 0.411402
vt 0.341027 0.452098
vt 0.001900 0.452098
vt 0.341026 0.679599
vt 0.001900 0.638903
vt 0.341026 0.638903
vt 0.341027 0.543098
vt 0.001900 0.502403
vt 0.341027 0.502403
vt 0.341027 0.088095
vt 0.001900 0.047400
vt 0.341027 0.047400
vt 0.939205 0.047400
vt 0.939205 0.133596
vt 0.341027 0.411402
vt 0.001900 0.679599
vt 0.001900 0.543098
vt 0.001900 0.088095
s 1
g off
g Object00_low_Material.012
usemtl Material.012
f 83/209/53 82/210/53 81/211/53
f 86/212/54 87/213/54 85/214/54
s 2
f 82/215/55 85/216/55 81/217/55
s 4
f 84/218/56 86/219/56 82/220/56
s 2
f 83/221/57 88/222/57 84/223/57
s 4
f 81/224/58 87/225/58 83/226/58
s 1
f 83/209/53 84/227/53 82/210/53
f 86/212/54 88/228/54 87/213/54
s 2
f 82/215/55 86/229/55 85/216/55
s 4
f 84/218/56 88/230/56 86/219/56
s 2
f 83/221/57 87/231/57 88/222/57
s 4
f 81/224/58 85/232/58 87/225/58
g Object09_low_Mesh
v 0.190000 0.000000 0.190000
v 0.190000 0.000000 0.250000
v 0.190000 0.060000 0.190000
v 0.190000 0.060000 0.250000
v -0.190000 0.000000 0.190000
v -0.190000 0.000000 0.250000
v -0.190000 0.060000 0.190000
v -0.190000 0.060000 0.250000
vn 1.0000 -0.0000 -0.0000
vn -1.0000 -0.0000 -0.0000
vn -0.0000 -1.0000 -0.0000
vn -0.0000 -0.0000 1.0000
vn -0.0000 1.0000 -0.0000
vn -0.0000 -0.0000 -1.0000
vt 0.929850 0.224596
vt 0.889155 0.183901
vt 0.929850 0.183901
vt 0.838850 0.957405
vt 0.798154 0.998100
vt 0.798154 0.957405
vt 0.878439 0.634099
vt 0.620703 0.593403
vt 0.878439 0.593403
vt 0.951240 0.042595
vt 0.693504 0.001900
vt 0.951240 0.001900
vt 0.609988 0.351997
vt 0.352252 0.311302
vt 0.609988 0.311302
vt 0.620703 0.183901
vt 0.878440 0.224596
vt 0.620703 0.224596
vt 0.889155 0.224596
vt 0.838850 0.998100
vt 0.620703 0.634099
vt 0.693504 0.042595
vt 0.352252 0.351997
vt 0.878440 0.183901
s 1
g off
g Object09_low_Material.012
usemtl Material.012
f 91/233/59 90/234/59 89/235/59
f 94/236/60 95/237/60 93/238/60
s 2
f 90/239/61 93/240/61 89/241/61
s 4
f 92/242/62 94/243/62 90/244/62
s 2
f 91/245/63 96/246/63 92/247/63
s 4
f 89/248/64 95/249/64 91/250/64
s 1
f 91/233/59 92/251/59 90/234/59
f 94/236/60 96/252/60 95/237/60
s 2
f 90/239/61 94/253/61 93/240/61
s 4
f 92/242/62 96/254/62 94/243/62
s 2
f 91/245/63 95/255/63 96/246/63
s 4
f 89/248/64 93/256/64 95/249/64
g Object03_low_Mesh
v -0.226274 0.060000 -0.190000
v -0.226274 0.060000 0.190000
v -0.226274 0.440000 -0.190000
v -0.226274 0.440000 0.190000
vn -1.0000 -0.0000 -0.0000
vt 0.609988 0.047400
vt 0.352252 0.305136
vt 0.352252 0.047400
vt 0.609988 0.305136
s 1
g off
g Object03_low_Material.012
usemtl Material.012
f 98/257/65 99/258/65 97/259/65
f 98/257/65 100/260/65 99/258/65
g Object08_low_Mesh
v -0.190000 0.500000 -0.250000
v -0.190000 0.500000 -0.190000
v -0.190000 0.440000 -0.250000
v -0.190000 0.440000 -0.190000
v 0.190000 0.500000 -0.250000
v 0.190000 0.500000 -0.190000
v 0.190000 0.440000 -0.250000
v 0.190000 0.440000 -0.190000
vn -1.0000 -0.0000 -0.0000
vn 1.0000 -0.0000 -0.0000
vn -0.0000 1.0000 -0.0000
vn -0.0000 -0.0000 1.0000
vn -0.0000 -1.0000 -0.0000
vn -0.0000 -0.0000 -1.0000
vt 0.939205 0.365902
vt 0.979900 0.406597
vt 0.939205 0.406597
vt 0.939205 0.179096
vt 0.979900 0.138401
vt 0.979900 0.179096
vt 0.352252 0.402302
vt 0.609988 0.442997
vt 0.352252 0.442997
vt 0.620703 0.047400
vt 0.878440 0.088095
vt 0.620703 0.088095
vt 0.352252 0.493302
vt 0.609988 0.533998
vt 0.352252 0.533998
vt 0.259637 0.907099
vt 0.001900 0.866405
vt 0.259637 0.866405
vt 0.979900 0.365902
vt 0.939205 0.138401
vt 0.609988 0.402302
vt 0.878440 0.047400
vt 0.609988 0.493302
vt 0.001900 0.907099
s 1
g off
g Object08_low_Material.012
usemtl Material.012
f 103/261/66 102/262/66 101/263/66
f 106/264/67 107/265/67 105/266/67
s 2
f 102/267/68 105/268/68 101/269/68
s 4
f 104/270/69 106/271/69 102/272/69
s 2
f 103/273/70 108/274/70 104/275/70
s 4
f 101/276/71 107/277/71 103/278/71
s 1
f 103/261/66 104/279/66 102/262/66
f 106/264/67 108/280/67 107/265/67
s 2
f 102/267/68 106/281/68 105/268/68
s 4
f 104/270/69 108/282/69 106/271/69
s 2
f 103/273/70 107/283/70 108/274/70
s 4
f 101/276/71 105/284/71 107/277/71
g Object04_low_Mesh
v 0.190000 0.023726 -0.190000
v 0.190000 0.023726 0.190000
v -0.190000 0.023726 -0.190000
v -0.190000 0.023726 0.190000
vn -0.0000 -1.0000 -0.0000
vt 0.787439 1.739004
vt 0.529703 1.996740
vt 0.529703 1.739004
vt 0.787439 1.996740
s 1
g off
g Object04_low_Material.012
usemtl Material.012
f 110/285/72 111/286/72 109/287/72
f 110/285/72 112/288/72 111/286/72
g Object07_low_Mesh
v -0.190000 0.500000 0.190000
v -0.190000 0.500000 0.250000
v -0.190000 0.440000 0.190000
v -0.190000 0.440000 0.250000
v 0.190000 0.500000 0.190000
v 0.190000 0.500000 0.250000
v 0.190000 0.440000 0.190000
v 0.190000 0.440000 0.250000
vn -1.0000 -0.0000 -0.0000
vn 1.0000 -0.0000 -0.0000
vn -0.0000 1.0000 -0.0000
vn -0.0000 -0.0000 1.0000
vn -0.0000 -1.0000 -0.0000
vn -0.0000 -0.0000 -1.0000
vt 0.939205 0.229401
vt 0.979900 0.270097
vt 0.939205 0.270097
vt 0.889155 0.315597
vt 0.929850 0.274901
vt 0.929850 0.315597
vt 0.620703 0.547903
vt 0.878439 0.588598
vt 0.620703 0.588598
vt 0.001900 0.729904
vt 0.259637 0.770599
vt 0.001900 0.770599
vt 0.620703 0.502403
vt 0.878439 0.543098
vt 0.620703 0.543098
vt 0.878440 0.270096
vt 0.620703 0.229401
vt 0.878440 0.229401
vt 0.979900 0.229401
vt 0.889155 0.274901
vt 0.878439 0.547903
vt 0.259637 0.729904
vt 0.878439 0.502403
vt 0.620703 0.270096
s 1
g off
g Object07_low_Material.012
usemtl Material.012
f 115/289/73 114/290/73 113/291/73
f 118/292/74 119/293/74 117/294/74
s 2
f 114/295/75 117/296/75 113/297/75
s 4
f 116/298/76 118/299/76 114/300/76
s 2
f 115/301/77 120/302/77 116/303/77
s 4
f 113/304/78 119/305/78 115/306/78
s 1
f 115/289/73 116/307/73 114/290/73
f 118/292/74 120/308/74 119/293/74
s 2
f 114/295/75 118/309/75 117/296/75
s 4
f 116/298/76 120/310/76 118/299/76
s 2
f 115/301/77 119/311/77 120/302/77
s 4
f 113/304/78 117/312/78 119/305/78
