# Blender 5.0.1
# www.blender.org
mtllib cajaFlechaArriba.mtl
g Object005_low_Mesh.008
g Object015_low_Mesh.018
g Object009_low_Mesh.012
g Object003_low_Mesh.006
g Object002_low_Mesh.005
g Object016_low_Mesh.019
g Object013_low_Mesh.016
g Object012_low_Mesh.015
g Object011_low_Mesh.014
g Object022_low_Mesh.024
g Object004_low_Mesh.007
g Object027_low_Mesh.029
g Object007_low_Mesh.010
g Object029_low_Mesh.031
g Object021_low_Mesh.003
g Object020_low_Mesh.023
g Object023_low_Mesh.025
g Object017_low_Mesh.020
g Object006_low_Mesh.009
g Object010_low_Mesh.013
g Object030_low_Mesh.032
g Object014_low_Mesh.017
g Object024_low_Mesh.026
g Object028_low_Mesh.030
g Object018_low_Mesh.021
g Object025_low_Mesh.027
g Object026_low_Mesh.028
g Object001_low_Mesh.004
g Object008_low_Mesh.011
g Object019_low_Mesh.022
g Object026_low.001_Mesh.088
g Object020_low.001_Mesh.083
g Object027_low.001_Mesh.089
g Object021_low.001_Mesh
v 0.190000 0.060000 -0.226274
v -0.190000 0.060000 -0.226274
v 0.190000 0.440000 -0.226274
v -0.190000 0.440000 -0.226274
vn -0.0000 -0.0000 -1.0000
vt 0.949153 0.774682
vt 0.734716 0.989119
vt 0.734716 0.774682
vt 0.949153 0.989119
s 1
g off
g Object021_low.001_Material.011
usemtl Material.011
f 2/1/1 3/2/1 1/3/1
f 2/1/1 4/4/1 3/2/1
g Object016_low.001_Mesh
v -0.226274 0.476384 0.183848
v -0.183848 0.476384 0.226274
v -0.183848 0.496384 0.226274
v -0.226274 0.496384 0.183848
v 0.183848 0.476384 -0.226274
v 0.183848 0.496384 -0.226274
v 0.226274 0.496384 -0.183848
v 0.226274 0.476384 -0.183848
vn -0.7071 -0.0000 0.7071
vn 0.7071 -0.0000 -0.7071
vn -0.7071 -0.0000 -0.7071
vn -0.0000 1.0000 -0.0000
vn 0.7071 -0.0000 0.7071
vn -0.0000 -1.0000 -0.0000
vt 0.919189 0.494918
vt 0.907903 0.528776
vt 0.907903 0.494918
vt 0.970073 0.059729
vt 0.984536 0.090410
vt 0.970073 0.090410
vt 0.002000 0.526003
vt 0.324841 0.541747
vt 0.002000 0.541746
vt 0.329299 0.121899
vt 0.002001 0.155767
vt 0.002000 0.121909
vt 0.002000 0.614817
vt 0.324841 0.630561
vt 0.002000 0.630561
vt 0.329299 0.275656
vt 0.002000 0.241808
vt 0.329299 0.241798
vt 0.919189 0.528776
vt 0.984536 0.059729
vt 0.324841 0.526003
vt 0.329299 0.155757
vt 0.324841 0.614817
vt 0.002001 0.275666
s 1
g off
g Object016_low.001_Material.011
usemtl Material.011
f 5/5/2 7/6/2 8/7/2
f 9/8/3 11/9/3 12/10/3
s 2
f 8/11/4 9/12/4 5/13/4
s 4
f 8/14/5 11/15/5 10/16/5
s 2
f 6/17/6 11/18/6 7/19/6
s 4
f 5/20/7 12/21/7 6/22/7
s 1
f 5/5/2 6/23/2 7/6/2
f 9/8/3 10/24/3 11/9/3
s 2
f 8/11/4 10/25/4 9/12/4
s 4
f 8/14/5 7/26/5 11/15/5
s 2
f 6/17/6 12/27/6 11/18/6
s 4
f 5/20/7 9/28/7 12/21/7
g Object020_low.002_Mesh
v -0.190000 0.476274 -0.190000
v -0.190000 0.476274 0.190000
v 0.190000 0.476274 -0.190000
v 0.190000 0.476274 0.190000
vn -0.0000 1.0000 -0.0000
vt 0.505082 0.774682
vt 0.290646 0.989119
vt 0.290646 0.774682
vt 0.505082 0.989119
s 1
g off
g Object020_low.002_Material.011
usemtl Material.011
f 14/29/8 15/30/8 13/31/8
f 14/29/8 16/32/8 15/30/8
g Object027_low.002_Mesh
v 0.226274 0.060000 0.190000
v 0.226274 0.060000 -0.190000
v 0.226274 0.440000 0.190000
v 0.226274 0.440000 -0.190000
vn 1.0000 -0.0000 -0.0000
vt 0.727118 1.774682
vt 0.512681 1.989119
vt 0.512681 1.774682
vt 0.727118 1.989119
s 1
g off
g Object027_low.002_Material.011
usemtl Material.011
f 18/33/9 19/34/9 17/35/9
f 18/33/9 20/36/9 19/34/9
g Object002_low.001_Mesh
v -0.190000 0.500000 -0.250000
v -0.190000 0.500000 -0.190000
v -0.190000 0.440000 -0.250000
v -0.190000 0.440000 -0.190000
v 0.190000 0.500000 -0.250000
v 0.190000 0.500000 -0.190000
v 0.190000 0.440000 -0.250000
v 0.190000 0.440000 -0.190000
vn -1.0000 -0.0000 -0.0000
vn 1.0000 -0.0000 -0.0000
vn -0.0000 1.0000 -0.0000
vn -0.0000 -0.0000 1.0000
vn -0.0000 -1.0000 -0.0000
vn -0.0000 -0.0000 -1.0000
vt 0.792445 0.383900
vt 0.826303 0.417759
vt 0.792445 0.417759
vt 0.792445 0.337826
vt 0.826303 0.303968
vt 0.826303 0.337826
vt 0.637020 0.064170
vt 0.851457 0.098028
vt 0.637020 0.098028
vt 0.565969 0.423867
vt 0.780406 0.457725
vt 0.565969 0.457725
vt 0.561528 0.543766
vt 0.775965 0.577624
vt 0.561528 0.577624
vt 0.549490 0.577624
vt 0.335053 0.543766
vt 0.549490 0.543766
vt 0.826303 0.383900
vt 0.792445 0.303968
vt 0.851457 0.064170
vt 0.780406 0.423867
vt 0.775965 0.543766
vt 0.335053 0.577624
s 1
g off
g Object002_low.001_Material.011
usemtl Material.011
f 23/37/10 22/38/10 21/39/10
f 26/40/11 27/41/11 25/42/11
s 2
f 22/43/12 25/44/12 21/45/12
s 4
f 24/46/13 26/47/13 22/48/13
s 2
f 23/49/14 28/50/14 24/51/14
s 4
f 21/52/15 27/53/15 23/54/15
s 1
f 23/37/10 24/55/10 22/38/10
f 26/40/11 28/56/11 27/41/11
s 2
f 22/43/12 26/57/12 25/44/12
s 4
f 24/46/13 28/58/13 26/47/13
s 2
f 23/49/14 27/59/14 28/50/14
s 4
f 21/52/15 25/60/15 27/53/15
g Object017_low.001_Mesh
v -0.226384 0.023726 0.183848
v -0.226384 0.066152 0.226274
v -0.243276 0.066152 0.226274
v -0.243276 0.023726 0.183848
v -0.226384 0.433848 -0.226274
v -0.243276 0.433848 -0.226274
v -0.243276 0.476274 -0.183848
v -0.226384 0.476274 -0.183848
vn -0.0000 -0.7071 0.7071
vn -0.0000 0.7071 -0.7071
vn -0.0000 -0.7071 -0.7071
vn -1.0000 -0.0000 -0.0000
vn -0.0000 0.7071 0.7071
vn 1.0000 -0.0000 -0.0000
vt 0.943429 0.499359
vt 0.955785 0.530393
vt 0.943429 0.530393
vt 0.844768 0.423816
vt 0.832411 0.392782
vt 0.844768 0.392782
vt 0.002000 0.451162
vt 0.329298 0.441630
vt 0.329298 0.451162
vt 0.339493 0.002010
vt 0.666793 0.035858
vt 0.339494 0.035868
vt 0.002000 0.454952
vt 0.325506 0.468276
vt 0.002000 0.468276
vt 0.002001 0.435532
vt 0.329298 0.401663
vt 0.329299 0.435522
vt 0.955785 0.499359
vt 0.832411 0.423816
vt 0.002000 0.441629
vt 0.666792 0.002000
vt 0.325506 0.454952
vt 0.002000 0.401673
s 1
g off
g Object017_low.001_Material.011
usemtl Material.011
f 30/61/16 32/62/16 29/63/16
f 33/64/17 35/65/17 36/66/17
s 2
f 29/67/18 34/68/18 33/69/18
s 4
f 31/70/19 34/71/19 32/72/19
s 2
f 30/73/20 35/74/20 31/75/20
s 4
f 30/76/21 33/77/21 36/78/21
s 1
f 30/61/16 31/79/16 32/62/16
f 33/64/17 34/80/17 35/65/17
s 2
f 29/67/18 32/81/18 34/68/18
s 4
f 31/70/19 35/82/19 34/71/19
s 2
f 30/73/20 36/83/20 35/74/20
s 4
f 30/76/21 29/84/21 33/77/21
g Object008_low.001_Mesh
v -0.190000 0.500000 -0.190000
v -0.250000 0.500000 -0.190000
v -0.190000 0.440000 -0.190000
v -0.250000 0.440000 -0.190000
v -0.190000 0.500000 0.190000
v -0.250000 0.500000 0.190000
v -0.190000 0.440000 0.190000
v -0.250000 0.440000 0.190000
vn -0.0000 -0.0000 -1.0000
vn -0.0000 -0.0000 1.0000
vn -0.0000 1.0000 -0.0000
vn -1.0000 -0.0000 -0.0000
vn -0.0000 -1.0000 -0.0000
vn 1.0000 -0.0000 -0.0000
vt 0.961191 0.743597
vt 0.995050 0.777456
vt 0.961191 0.777456
vt 0.907903 0.573183
vt 0.941761 0.539325
vt 0.941761 0.573183
vt 0.727117 0.675320
vt 0.512681 0.641461
vt 0.727117 0.641461
vt 0.565969 0.343934
vt 0.780406 0.377793
vt 0.565969 0.377793
vt 0.335053 0.503799
vt 0.549490 0.537657
vt 0.335053 0.537657
vt 0.553931 0.377792
vt 0.339493 0.343934
vt 0.553931 0.343934
vt 0.995050 0.743597
vt 0.907903 0.539325
vt 0.512681 0.675320
vt 0.780406 0.343934
vt 0.549490 0.503799
vt 0.339493 0.377792
s 1
g off
g Object008_low.001_Material.011
usemtl Material.011
f 39/85/22 38/86/22 37/87/22
f 42/88/23 43/89/23 41/90/23
s 2
f 38/91/24 41/92/24 37/93/24
s 4
f 40/94/25 42/95/25 38/96/25
s 2
f 39/97/26 44/98/26 40/99/26
s 4
f 37/100/27 43/101/27 39/102/27
s 1
f 39/85/22 40/103/22 38/86/22
f 42/88/23 44/104/23 43/89/23
s 2
f 38/91/24 42/105/24 41/92/24
s 4
f 40/94/25 44/106/25 42/95/25
s 2
f 39/97/26 43/107/26 44/98/26
s 4
f 37/100/27 41/108/27 43/101/27
g Object015_low.001_Mesh
v -0.183848 0.476384 -0.226274
v -0.226274 0.476384 -0.183848
v -0.226274 0.493276 -0.183848
v -0.183848 0.493276 -0.226274
v 0.226274 0.476384 0.183848
v 0.226274 0.493276 0.183848
v 0.183848 0.493276 0.226274
v 0.183848 0.476384 0.226274
vn -0.7071 -0.0000 -0.7071
vn 0.7071 -0.0000 0.7071
vn 0.7071 -0.0000 -0.7071
vn -0.0000 1.0000 -0.0000
vn -0.7071 -0.0000 0.7071
vn -0.0000 -1.0000 -0.0000
vt 0.973548 0.530393
vt 0.961191 0.499359
vt 0.973548 0.499359
vt 0.844768 0.463782
vt 0.832411 0.432748
vt 0.844768 0.432748
vt 0.002000 0.490477
vt 0.325506 0.503802
vt 0.002000 0.503802
vt 0.006441 0.041976
vt 0.333740 0.075825
vt 0.006442 0.075835
vt 0.002000 0.508240
vt 0.325506 0.521565
vt 0.002000 0.521565
vt 0.002001 0.115801
vt 0.329298 0.081933
vt 0.329299 0.115791
vt 0.961191 0.530393
vt 0.832411 0.463782
vt 0.325506 0.490477
vt 0.333739 0.041966
vt 0.325506 0.508240
vt 0.002000 0.081942
s 1
g off
g Object015_low.001_Material.011
usemtl Material.011
f 46/109/28 48/110/28 45/111/28
f 49/112/29 51/113/29 52/114/29
s 2
f 48/115/30 49/116/30 45/117/30
s 4
f 47/118/31 50/119/31 48/120/31
s 2
f 46/121/32 51/122/32 47/123/32
s 4
f 46/124/33 49/125/33 52/126/33
s 1
f 46/109/28 47/127/28 48/110/28
f 49/112/29 50/128/29 51/113/29
s 2
f 48/115/30 50/129/30 49/116/30
s 4
f 47/118/31 51/130/31 50/119/31
s 2
f 46/121/32 52/131/32 51/122/32
s 4
f 46/124/33 45/132/33 49/125/33
g Object005_low.001_Mesh
v 0.190000 0.000000 0.250000
v 0.250000 0.000000 0.250000
v 0.190000 0.000000 0.190000
v 0.250000 0.000000 0.190000
v 0.190000 0.500000 0.250000
v 0.250000 0.500000 0.250000
v 0.190000 0.500000 0.190000
v 0.250000 0.500000 0.190000
vn -0.0000 -1.0000 -0.0000
vn -0.0000 1.0000 -0.0000
vn -0.0000 -0.0000 1.0000
vn 1.0000 -0.0000 -0.0000
vn -0.0000 -0.0000 -1.0000
vn -1.0000 -0.0000 -0.0000
vt 0.788004 0.463833
vt 0.821863 0.497692
vt 0.788004 0.497692
vt 0.995050 0.903462
vt 0.961191 0.937321
vt 0.961191 0.903462
vt 0.621647 0.257894
vt 0.339493 0.224035
vt 0.621647 0.224035
vt 0.284154 0.830744
vt 0.002000 0.796886
vt 0.284154 0.796886
vt 0.284154 0.950643
vt 0.002000 0.916784
vt 0.284154 0.916784
vt 0.959141 0.053621
vt 0.676987 0.019763
vt 0.959141 0.019763
vt 0.821863 0.463833
vt 0.995050 0.937321
vt 0.339493 0.257894
vt 0.002000 0.830744
vt 0.002000 0.950643
vt 0.676987 0.053621
s 1
g off
g Object005_low.001_Material.011
usemtl Material.011
f 55/133/34 54/134/34 53/135/34
f 58/136/35 59/137/35 57/138/35
s 2
f 54/139/36 57/140/36 53/141/36
s 4
f 56/142/37 58/143/37 54/144/37
s 2
f 55/145/38 60/146/38 56/147/38
s 4
f 53/148/39 59/149/39 55/150/39
s 1
f 55/133/34 56/151/34 54/134/34
f 58/136/35 60/152/35 59/137/35
s 2
f 54/139/36 58/153/36 57/140/36
s 4
f 56/142/37 60/154/37 58/143/37
s 2
f 55/145/38 59/155/38 60/146/38
s 4
f 53/148/39 57/156/39 59/149/39
g Object029_low.001_Mesh
v 0.183848 0.023616 -0.226274
v 0.226274 0.023616 -0.183848
v 0.226274 0.006724 -0.183848
v 0.183848 0.006724 -0.226274
v -0.226274 0.023616 0.183848
v -0.226274 0.006724 0.183848
v -0.183848 0.006724 0.226274
v -0.183848 0.023616 0.226274
vn 0.7071 -0.0000 -0.7071
vn -0.7071 -0.0000 0.7071
vn -0.7071 -0.0000 -0.7071
vn -0.0000 -1.0000 -0.0000
vn 0.7071 -0.0000 0.7071
vn -0.0000 1.0000 -0.0000
vt 0.973548 1.530393
vt 0.961191 1.499359
vt 0.973548 1.499359
vt 0.844768 1.463782
vt 0.832411 1.432748
vt 0.844768 1.432748
vt 0.002000 1.490477
vt 0.325506 1.503802
vt 0.002000 1.503802
vt 0.006441 1.041976
vt 0.333740 1.075825
vt 0.006442 1.075835
vt 0.002000 1.508240
vt 0.325506 1.521565
vt 0.002000 1.521565
vt 0.002001 1.115801
vt 0.329298 1.081933
vt 0.329299 1.115791
vt 0.961191 1.530393
vt 0.832411 1.463782
vt 0.325506 1.490477
vt 0.333739 1.041966
vt 0.325506 1.508240
vt 0.002000 1.081942
s 1
g off
g Object029_low.001_Material.011
usemtl Material.011
f 62/157/40 64/158/40 61/159/40
f 65/160/41 67/161/41 68/162/41
s 2
f 64/163/42 65/164/42 61/165/42
s 4
f 63/166/43 66/167/43 64/168/43
s 2
f 62/169/44 67/170/44 63/171/44
s 4
f 62/172/45 65/173/45 68/174/45
s 1
f 62/157/40 63/175/40 64/158/40
f 65/160/41 66/176/41 67/161/41
s 2
f 64/163/42 66/177/42 65/164/42
s 4
f 63/166/43 67/178/43 66/167/43
s 2
f 62/169/44 68/179/44 67/170/44
s 4
f 62/172/45 61/180/45 65/173/45
g Object001_low.001_Mesh
v -0.190000 0.000000 -0.250000
v -0.250000 0.000000 -0.250000
v -0.190000 0.000000 -0.190000
v -0.250000 0.000000 -0.190000
v -0.190000 0.500000 -0.250000
v -0.250000 0.500000 -0.250000
v -0.190000 0.500000 -0.190000
v -0.250000 0.500000 -0.190000
vn -0.0000 -1.0000 -0.0000
vn -0.0000 1.0000 -0.0000
vn -0.0000 -0.0000 -1.0000
vn -1.0000 -0.0000 -0.0000
vn -0.0000 -0.0000 1.0000
vn 1.0000 -0.0000 -0.0000
vt 0.995050 0.697523
vt 0.961191 0.663665
vt 0.995050 0.663665
vt 0.961191 0.817422
vt 0.995050 0.783563
vt 0.995050 0.817422
vt 0.284154 0.750811
vt 0.002000 0.716953
vt 0.284154 0.716953
vt 0.284154 0.670879
vt 0.002000 0.637020
vt 0.284154 0.637020
vt 0.002000 0.956751
vt 0.284154 0.990609
vt 0.002000 0.990609
vt 0.284154 0.910677
vt 0.002000 0.876818
vt 0.284154 0.876818
vt 0.961191 0.697523
vt 0.961191 0.783563
vt 0.002000 0.750811
vt 0.002000 0.670879
vt 0.284154 0.956751
vt 0.002000 0.910677
s 1
g off
g Object001_low.001_Material.011
usemtl Material.011
f 71/181/46 70/182/46 69/183/46
f 74/184/47 75/185/47 73/186/47
s 2
f 70/187/48 73/188/48 69/189/48
s 4
f 72/190/49 74/191/49 70/192/49
s 2
f 71/193/50 76/194/50 72/195/50
s 4
f 69/196/51 75/197/51 71/198/51
s 1
f 71/181/46 72/199/46 70/182/46
f 74/184/47 76/200/47 75/185/47
s 2
f 70/187/48 74/201/48 73/188/48
s 4
f 72/190/49 76/202/49 74/191/49
s 2
f 71/193/50 75/203/50 76/194/50
s 4
f 69/196/51 73/204/51 75/197/51
g Object024_low.001_Mesh
v -0.190000 0.060000 0.226274
v 0.190000 0.060000 0.226274
v -0.190000 0.440000 0.226274
v 0.190000 0.440000 0.226274
vn -0.0000 -0.0000 1.0000
vt 0.949153 1.774682
vt 0.734716 1.989119
vt 0.734716 1.774682
vt 0.949153 1.989119
s 1
g off
g Object024_low.001_Material.011
usemtl Material.011
f 78/205/52 79/206/52 77/207/52
f 78/205/52 80/208/52 79/206/52
g Object028_low.001_Mesh
v 0.226274 0.023616 0.183848
v 0.183848 0.023616 0.226274
v 0.183848 0.003616 0.226274
v 0.226274 0.003616 0.183848
v -0.183848 0.023616 -0.226274
v -0.183848 0.003616 -0.226274
v -0.226274 0.003616 -0.183848
v -0.226274 0.023616 -0.183848
vn 0.7071 -0.0000 0.7071
vn -0.7071 -0.0000 -0.7071
vn 0.7071 -0.0000 -0.7071
vn -0.0000 -1.0000 -0.0000
vn -0.7071 -0.0000 0.7071
vn -0.0000 1.0000 -0.0000
vt 0.919189 1.494918
vt 0.907903 1.528776
vt 0.907903 1.494918
vt 0.970073 1.059729
vt 0.984536 1.090410
vt 0.970073 1.090410
vt 0.002000 1.526003
vt 0.324841 1.541747
vt 0.002000 1.541746
vt 0.329299 1.121899
vt 0.002001 1.155767
vt 0.002000 1.121909
vt 0.002000 1.614817
vt 0.324841 1.630561
vt 0.002000 1.630561
vt 0.329299 1.275656
vt 0.002000 1.241807
vt 0.329299 1.241798
vt 0.919189 1.528776
vt 0.984536 1.059729
vt 0.324841 1.526003
vt 0.329299 1.155757
vt 0.324841 1.614817
vt 0.002001 1.275666
s 1
g off
g Object028_low.001_Material.011
usemtl Material.011
f 81/209/53 83/210/53 84/211/53
f 85/212/54 87/213/54 88/214/54
s 2
f 84/215/55 85/216/55 81/217/55
s 4
f 84/218/56 87/219/56 86/220/56
s 2
f 82/221/57 87/222/57 83/223/57
s 4
f 81/224/58 88/225/58 82/226/58
s 1
f 81/209/53 82/227/53 83/210/53
f 85/212/54 86/228/54 87/213/54
s 2
f 84/215/55 86/229/55 85/216/55
s 4
f 84/218/56 83/230/56 87/219/56
s 2
f 82/221/57 88/231/57 87/222/57
s 4
f 81/224/58 85/232/58 88/225/58
g Object007_low.001_Mesh
v -0.250000 0.000000 0.190000
v -0.250000 0.000000 0.250000
v -0.190000 0.000000 0.190000
v -0.190000 0.000000 0.250000
v -0.250000 0.500000 0.190000
v -0.250000 0.500000 0.250000
v -0.190000 0.500000 0.190000
v -0.190000 0.500000 0.250000
vn -0.0000 -1.0000 -0.0000
vn -0.0000 1.0000 -0.0000
vn -1.0000 -0.0000 -0.0000
vn -0.0000 -0.0000 1.0000
vn 1.0000 -0.0000 -0.0000
vn -0.0000 -0.0000 -1.0000
vt 0.995050 0.823530
vt 0.961191 0.857388
vt 0.961191 0.823530
vt 0.788004 0.503799
vt 0.821863 0.537658
vt 0.788004 0.537658
vt 0.284154 0.790778
vt 0.002000 0.756919
vt 0.284154 0.756919
vt 0.284154 0.870710
vt 0.002000 0.836852
vt 0.284154 0.836852
vt 0.621647 0.177961
vt 0.339493 0.144102
vt 0.621647 0.144102
vt 0.626088 0.098028
vt 0.343934 0.064170
vt 0.626088 0.064170
vt 0.995050 0.857388
vt 0.821863 0.503799
vt 0.002000 0.790778
vt 0.002000 0.870710
vt 0.339493 0.177961
vt 0.343934 0.098028
s 1
g off
g Object007_low.001_Material.011
usemtl Material.011
f 91/233/59 90/234/59 89/235/59
f 94/236/60 95/237/60 93/238/60
s 2
f 90/239/61 93/240/61 89/241/61
s 4
f 92/242/62 94/243/62 90/244/62
s 2
f 91/245/63 96/246/63 92/247/63
s 4
f 89/248/64 95/249/64 91/250/64
s 1
f 91/233/59 92/251/59 90/234/59
f 94/236/60 96/252/60 95/237/60
s 2
f 90/239/61 94/253/61 93/240/61
s 4
f 92/242/62 96/254/62 94/243/62
s 2
f 91/245/63 95/255/63 96/246/63
s 4
f 89/248/64 93/256/64 95/249/64
g Object030_low.001_Mesh
v 0.190000 0.023726 -0.190000
v 0.190000 0.023726 0.190000
v -0.190000 0.023726 -0.190000
v -0.190000 0.023726 0.190000
vn -0.0000 -1.0000 -0.0000
vt 0.505082 1.774682
vt 0.290646 1.989119
vt 0.290646 1.774682
vt 0.505082 1.989119
s 1
g off
g Object030_low.001_Material.011
usemtl Material.011
f 98/257/65 99/258/65 97/259/65
f 98/257/65 100/260/65 99/258/65
g Object009_low.001_Mesh
v 0.190000 0.000000 -0.250000
v 0.190000 0.000000 -0.190000
v 0.190000 0.060000 -0.250000
v 0.190000 0.060000 -0.190000
v -0.190000 0.000000 -0.250000
v -0.190000 0.000000 -0.190000
v -0.190000 0.060000 -0.250000
v -0.190000 0.060000 -0.190000
vn 1.0000 -0.0000 -0.0000
vn -1.0000 -0.0000 -0.0000
vn -0.0000 -1.0000 -0.0000
vn -0.0000 -0.0000 1.0000
vn -0.0000 1.0000 -0.0000
vn -0.0000 -0.0000 -1.0000
vt 0.821863 0.577624
vt 0.788004 0.543766
vt 0.821863 0.543766
vt 0.826303 0.423867
vt 0.792445 0.457725
vt 0.792445 0.423867
vt 0.949152 0.719727
vt 0.734716 0.685868
vt 0.949152 0.685868
vt 0.847017 0.217927
vt 0.632580 0.184069
vt 0.847017 0.184069
vt 0.775965 0.617591
vt 0.561528 0.583732
vt 0.775965 0.583732
vt 0.734716 0.730275
vt 0.949152 0.764134
vt 0.734716 0.764134
vt 0.788004 0.577624
vt 0.826303 0.457725
vt 0.734716 0.719727
vt 0.632580 0.217927
vt 0.561528 0.617590
vt 0.949152 0.730275
s 1
g off
g Object009_low.001_Material.011
usemtl Material.011
f 103/261/66 102/262/66 101/263/66
f 106/264/67 107/265/67 105/266/67
s 2
f 102/267/68 105/268/68 101/269/68
s 4
f 104/270/69 106/271/69 102/272/69
s 2
f 103/273/70 108/274/70 104/275/70
s 4
f 101/276/71 107/277/71 103/278/71
s 1
f 103/261/66 104/279/66 102/262/66
f 106/264/67 108/280/67 107/265/67
s 2
f 102/267/68 106/281/68 105/268/68
s 4
f 104/270/69 108/282/69 106/271/69
s 2
f 103/273/70 107/283/70 108/274/70
s 4
f 101/276/71 105/284/71 107/277/71
g Object025_low.001_Mesh
v 0.226384 0.433848 -0.226274
v 0.226384 0.476274 -0.183848
v 0.246384 0.476274 -0.183848
v 0.246384 0.433848 -0.226274
v 0.226384 0.023726 0.183848
v 0.246384 0.023726 0.183848
v 0.246384 0.066152 0.226274
v 0.226384 0.066152 0.226274
vn -0.0000 0.7071 -0.7071
vn -0.0000 -0.7071 0.7071
vn -0.0000 -0.7071 -0.7071
vn 1.0000 -0.0000 -0.0000
vn -0.0000 0.7071 0.7071
vn -1.0000 -0.0000 -0.0000
vt 0.970073 1.019763
vt 0.984536 1.050444
vt 0.970073 1.050444
vt 0.962333 1.064170
vt 0.947869 1.094851
vt 0.947869 1.064170
vt 0.666775 1.057710
vt 0.343934 1.041966
vt 0.666775 1.041966
vt 0.329839 1.035853
vt 0.002000 1.007712
vt 0.329249 1.002000
vt 0.324841 1.586154
vt 0.002000 1.570410
vt 0.324841 1.570410
vt 0.002000 1.361707
vt 0.329299 1.395555
vt 0.002001 1.395565
vt 0.984536 1.019763
vt 0.962333 1.094851
vt 0.343934 1.057710
vt 0.002591 1.041566
vt 0.002000 1.586154
vt 0.329298 1.361697
s 1
g off
g Object025_low.001_Material.011
usemtl Material.011
f 110/285/72 112/286/72 109/287/72
f 114/288/73 116/289/73 113/290/73
s 2
f 112/291/74 113/292/74 109/293/74
s 4
f 111/294/75 114/295/75 112/296/75
s 2
f 110/297/76 115/298/76 111/299/76
s 4
f 109/300/77 116/301/77 110/302/77
s 1
f 110/285/72 111/303/72 112/286/72
f 114/288/73 115/304/73 116/289/73
s 2
f 112/291/74 114/305/74 113/292/74
s 4
f 111/294/75 115/306/75 114/295/75
s 2
f 110/297/76 116/307/76 115/298/76
s 4
f 109/300/77 113/308/77 116/301/77
g Object023_low.001_Mesh
v 0.183848 0.023726 0.226384
v 0.226274 0.066152 0.226384
v 0.226274 0.066152 0.243276
v 0.183848 0.023726 0.243276
v -0.226274 0.433848 0.226384
v -0.226274 0.433848 0.243276
v -0.183848 0.476274 0.243276
v -0.183848 0.476274 0.226384
vn 0.7071 -0.7071 -0.0000
vn -0.7071 0.7071 -0.0000
vn -0.7071 -0.7071 -0.0000
vn -0.0000 -0.0000 1.0000
vn 0.7071 0.7071 -0.0000
vn -0.0000 -0.0000 -1.0000
vt 0.938022 1.499359
vt 0.925666 1.530393
vt 0.925666 1.499359
vt 0.844768 1.383850
vt 0.832411 1.352815
vt 0.844768 1.352815
vt 0.002000 1.472714
vt 0.325506 1.486039
vt 0.002000 1.486039
vt 0.002000 1.161875
vt 0.329299 1.195724
vt 0.002001 1.195734
vt 0.672546 1.002000
vt 0.996052 1.015324
vt 0.672546 1.015324
vt 0.002001 1.315632
vt 0.329298 1.281764
vt 0.329299 1.315623
vt 0.938022 1.530393
vt 0.832411 1.383850
vt 0.325506 1.472715
vt 0.329298 1.161865
vt 0.996052 1.002000
vt 0.002000 1.281774
s 1
g off
g Object023_low.001_Material.011
usemtl Material.011
f 117/309/78 119/310/78 120/311/78
f 121/312/79 123/313/79 124/314/79
s 2
f 120/315/80 121/316/80 117/317/80
s 4
f 119/318/81 122/319/81 120/320/81
s 2
f 118/321/82 123/322/82 119/323/82
s 4
f 118/324/83 121/325/83 124/326/83
s 1
f 117/309/78 118/327/78 119/310/78
f 121/312/79 122/328/79 123/313/79
s 2
f 120/315/80 122/329/80 121/316/80
s 4
f 119/318/81 123/330/81 122/319/81
s 2
f 118/321/82 124/331/82 123/322/82
s 4
f 118/324/83 117/332/83 121/325/83
g Object022_low.001_Mesh
v 0.226274 0.433848 0.226384
v 0.183848 0.476274 0.226384
v 0.183848 0.476274 0.246384
v 0.226274 0.433848 0.246384
v -0.183848 0.023726 0.226384
v -0.183848 0.023726 0.246384
v -0.226274 0.066152 0.246384
v -0.226274 0.066152 0.226384
vn 0.7071 0.7071 -0.0000
vn -0.7071 -0.7071 -0.0000
vn 0.7071 -0.7071 -0.0000
vn -0.0000 -0.0000 1.0000
vn -0.7071 0.7071 -0.0000
vn -0.0000 -0.0000 -1.0000
vt 0.843697 1.342267
vt 0.832411 1.308408
vt 0.843697 1.308408
vt 0.869078 1.108577
vt 0.854615 1.139258
vt 0.854615 1.108577
vt 0.002000 1.548206
vt 0.324841 1.563950
vt 0.002000 1.563950
vt 0.329299 1.201832
vt 0.002001 1.235700
vt 0.002000 1.201841
vt 0.002000 1.592613
vt 0.324841 1.608357
vt 0.002000 1.608357
vt 0.329299 1.355589
vt 0.002000 1.321740
vt 0.329298 1.321730
vt 0.832411 1.342267
vt 0.869078 1.139258
vt 0.324841 1.548206
vt 0.329299 1.235690
vt 0.324841 1.592613
vt 0.002001 1.355599
s 1
g off
g Object022_low.001_Material.011
usemtl Material.011
f 126/333/84 128/334/84 125/335/84
f 130/336/85 132/337/85 129/338/85
s 2
f 128/339/86 129/340/86 125/341/86
s 4
f 128/342/87 131/343/87 130/344/87
s 2
f 126/345/88 131/346/88 127/347/88
s 4
f 125/348/89 132/349/89 126/350/89
s 1
f 126/333/84 127/351/84 128/334/84
f 130/336/85 131/352/85 132/337/85
s 2
f 128/339/86 130/353/86 129/340/86
s 4
f 128/342/87 127/354/87 131/343/87
s 2
f 126/345/88 132/355/88 131/346/88
s 4
f 125/348/89 129/356/89 132/349/89
g Object004_low.001_Mesh
v 0.250000 0.500000 -0.190000
v 0.190000 0.500000 -0.190000
v 0.250000 0.440000 -0.190000
v 0.190000 0.440000 -0.190000
v 0.250000 0.500000 0.190000
v 0.190000 0.500000 0.190000
v 0.250000 0.440000 0.190000
v 0.190000 0.440000 0.190000
vn -0.0000 -0.0000 -1.0000
vn -0.0000 -0.0000 1.0000
vn -0.0000 1.0000 -0.0000
vn -1.0000 -0.0000 -0.0000
vn -0.0000 -1.0000 -0.0000
vn 1.0000 -0.0000 -0.0000
vt 0.827970 0.494918
vt 0.861829 0.528776
vt 0.827970 0.528776
vt 0.961191 0.737490
vt 0.995050 0.703631
vt 0.995050 0.737490
vt 0.505082 0.675320
vt 0.290646 0.641461
vt 0.505082 0.641461
vt 0.335053 0.583732
vt 0.549490 0.617590
vt 0.335053 0.617590
vt 0.727117 0.719727
vt 0.512681 0.685868
vt 0.727117 0.685868
vt 0.727117 0.764134
vt 0.512681 0.730275
vt 0.727117 0.730275
vt 0.861829 0.494918
vt 0.961191 0.703631
vt 0.290646 0.675320
vt 0.549490 0.583732
vt 0.512681 0.719727
vt 0.512681 0.764134
s 1
g off
g Object004_low.001_Material.011
usemtl Material.011
f 135/357/90 134/358/90 133/359/90
f 138/360/91 139/361/91 137/362/91
s 2
f 134/363/92 137/364/92 133/365/92
s 4
f 136/366/93 138/367/93 134/368/93
s 2
f 135/369/94 140/370/94 136/371/94
s 4
f 133/372/95 139/373/95 135/374/95
s 1
f 135/357/90 136/375/90 134/358/90
f 138/360/91 140/376/91 139/361/91
s 2
f 134/363/92 138/377/92 137/364/92
s 4
f 136/366/93 140/378/93 138/367/93
s 2
f 135/369/94 139/379/94 140/370/94
s 4
f 133/372/95 137/380/95 139/373/95
g Object026_low.002_Mesh
v 0.226384 0.023726 -0.183848
v 0.226384 0.066152 -0.226274
v 0.243276 0.066152 -0.226274
v 0.243276 0.023726 -0.183848
v 0.226384 0.433848 0.226274
v 0.243276 0.433848 0.226274
v 0.243276 0.476274 0.183848
v 0.226384 0.476274 0.183848
vn -0.0000 -0.7071 -0.7071
vn -0.0000 0.7071 0.7071
vn -0.0000 -0.7071 0.7071
vn 1.0000 -0.0000 -0.0000
vn -0.0000 0.7071 -0.7071
vn -1.0000 -0.0000 -0.0000
vt 0.943429 1.499359
vt 0.955785 1.530393
vt 0.943429 1.530393
vt 0.844768 1.423816
vt 0.832411 1.392782
vt 0.844768 1.392782
vt 0.002000 1.451162
vt 0.329298 1.441630
vt 0.329298 1.451162
vt 0.339493 1.002010
vt 0.666793 1.035858
vt 0.339494 1.035868
vt 0.002000 1.454952
vt 0.325506 1.468276
vt 0.002000 1.468276
vt 0.002001 1.435531
vt 0.329298 1.401663
vt 0.329299 1.435522
vt 0.955785 1.499359
vt 0.832411 1.423816
vt 0.002000 1.441629
vt 0.666792 1.002000
vt 0.325506 1.454952
vt 0.002000 1.401673
s 1
g off
g Object026_low.002_Material.011
usemtl Material.011
f 142/381/96 144/382/96 141/383/96
f 145/384/97 147/385/97 148/386/97
s 2
f 141/387/98 146/388/98 145/389/98
s 4
f 143/390/99 146/391/99 144/392/99
s 2
f 142/393/100 147/394/100 143/395/100
s 4
f 142/396/101 145/397/101 148/398/101
s 1
f 142/381/96 143/399/96 144/382/96
f 145/384/97 146/400/97 147/385/97
s 2
f 141/387/98 144/401/98 146/388/98
s 4
f 143/390/99 147/402/99 146/391/99
s 2
f 142/393/100 148/403/100 147/394/100
s 4
f 142/396/101 141/404/101 145/397/101
g Object014_low.001_Mesh
v -0.226274 0.433848 -0.226384
v -0.183848 0.476274 -0.226384
v -0.183848 0.476274 -0.246384
v -0.226274 0.433848 -0.246384
v 0.183848 0.023726 -0.226384
v 0.183848 0.023726 -0.246384
v 0.226274 0.066152 -0.246384
v 0.226274 0.066152 -0.226384
vn -0.7071 0.7071 -0.0000
vn 0.7071 -0.7071 -0.0000
vn -0.7071 -0.7071 -0.0000
vn -0.0000 -0.0000 -1.0000
vn 0.7071 0.7071 -0.0000
vn -0.0000 -0.0000 1.0000
vt 0.843697 0.342267
vt 0.832411 0.308408
vt 0.843697 0.308408
vt 0.854615 0.108577
vt 0.869078 0.139258
vt 0.854615 0.139258
vt 0.002000 0.548206
vt 0.324841 0.563950
vt 0.002000 0.563950
vt 0.329299 0.201832
vt 0.002001 0.235700
vt 0.002000 0.201841
vt 0.002000 0.592613
vt 0.324841 0.608357
vt 0.002000 0.608357
vt 0.329299 0.355589
vt 0.002000 0.321740
vt 0.329298 0.321731
vt 0.832411 0.342267
vt 0.869078 0.108577
vt 0.324841 0.548206
vt 0.329299 0.235690
vt 0.324841 0.592613
vt 0.002001 0.355599
s 1
g off
g Object014_low.001_Material.011
usemtl Material.011
f 150/405/102 152/406/102 149/407/102
f 153/408/103 155/409/103 156/410/103
s 2
f 152/411/104 153/412/104 149/413/104
s 4
f 152/414/105 155/415/105 154/416/105
s 2
f 150/417/106 155/418/106 151/419/106
s 4
f 149/420/107 156/421/107 150/422/107
s 1
f 150/405/102 151/423/102 152/406/102
f 153/408/103 154/424/103 155/409/103
s 2
f 152/411/104 154/425/104 153/412/104
s 4
f 152/414/105 151/426/105 155/415/105
s 2
f 150/417/106 156/427/106 155/418/106
s 4
f 149/420/107 153/428/107 156/421/107
g Object011_low.001_Mesh
v 0.250000 0.000000 0.190000
v 0.190000 0.000000 0.190000
v 0.250000 0.060000 0.190000
v 0.190000 0.060000 0.190000
v 0.250000 0.000000 -0.190000
v 0.190000 0.000000 -0.190000
v 0.250000 0.060000 -0.190000
v 0.190000 0.060000 -0.190000
vn -0.0000 -0.0000 1.0000
vn -0.0000 -0.0000 -1.0000
vn -0.0000 -1.0000 -0.0000
vn -1.0000 -0.0000 -0.0000
vn -0.0000 1.0000 -0.0000
vn 1.0000 -0.0000 -0.0000
vt 0.995050 0.897355
vt 0.961191 0.863496
vt 0.995050 0.863496
vt 0.901795 0.494918
vt 0.867937 0.528776
vt 0.867937 0.494918
vt 0.780406 0.417759
vt 0.565969 0.383900
vt 0.780406 0.383900
vt 0.998000 0.617591
vt 0.783563 0.583732
vt 0.998000 0.583732
vt 0.561528 0.463833
vt 0.775965 0.497692
vt 0.561528 0.497692
vt 0.632580 0.264001
vt 0.847017 0.297860
vt 0.632580 0.297860
vt 0.961191 0.897355
vt 0.901795 0.528776
vt 0.565969 0.417759
vt 0.783563 0.617591
vt 0.775965 0.463833
vt 0.847017 0.264001
s 1
g off
g Object011_low.001_Material.011
usemtl Material.011
f 159/429/108 158/430/108 157/431/108
f 162/432/109 163/433/109 161/434/109
s 2
f 158/435/110 161/436/110 157/437/110
s 4
f 160/438/111 162/439/111 158/440/111
s 2
f 159/441/112 164/442/112 160/443/112
s 4
f 157/444/113 163/445/113 159/446/113
s 1
f 159/429/108 160/447/108 158/430/108
f 162/432/109 164/448/109 163/433/109
s 2
f 158/435/110 162/449/110 161/436/110
s 4
f 160/438/111 164/450/111 162/439/111
s 2
f 159/441/112 163/451/112 164/442/112
s 4
f 157/444/113 161/452/113 163/445/113
g Object018_low.001_Mesh
v -0.226384 0.433848 0.226274
v -0.226384 0.476274 0.183848
v -0.246384 0.476274 0.183848
v -0.246384 0.433848 0.226274
v -0.226384 0.023726 -0.183848
v -0.246384 0.023726 -0.183848
v -0.246384 0.066152 -0.226274
v -0.226384 0.066152 -0.226274
vn -0.0000 0.7071 0.7071
vn -0.0000 -0.7071 -0.7071
vn -0.0000 -0.7071 0.7071
vn -1.0000 -0.0000 -0.0000
vn -0.0000 0.7071 -0.7071
vn 1.0000 -0.0000 -0.0000
vt 0.970073 0.050444
vt 0.984536 0.019763
vt 0.984536 0.050444
vt 0.962333 0.064170
vt 0.947869 0.094851
vt 0.947869 0.064170
vt 0.666775 0.057710
vt 0.343934 0.041966
vt 0.666775 0.041966
vt 0.329839 0.035853
vt 0.002000 0.007712
vt 0.329249 0.002000
vt 0.324841 0.586154
vt 0.002000 0.570410
vt 0.324841 0.570410
vt 0.002000 0.361707
vt 0.329299 0.395555
vt 0.002001 0.395565
vt 0.970073 0.019763
vt 0.962333 0.094851
vt 0.343934 0.057710
vt 0.002591 0.041565
vt 0.002000 0.586154
vt 0.329298 0.361697
s 1
g off
g Object018_low.001_Material.011
usemtl Material.011
f 165/453/114 167/454/114 168/455/114
f 170/456/115 172/457/115 169/458/115
s 2
f 168/459/116 169/460/116 165/461/116
s 4
f 167/462/117 170/463/117 168/464/117
s 2
f 166/465/118 171/466/118 167/467/118
s 4
f 165/468/119 172/469/119 166/470/119
s 1
f 165/453/114 166/471/114 167/454/114
f 170/456/115 171/472/115 172/457/115
s 2
f 168/459/116 170/473/116 169/460/116
s 4
f 167/462/117 171/474/117 170/463/117
s 2
f 166/465/118 172/475/118 171/466/118
s 4
f 165/468/119 169/476/119 172/469/119
g Object006_low.001_Mesh
v -0.190000 0.500000 0.190000
v -0.190000 0.500000 0.250000
v -0.190000 0.440000 0.190000
v -0.190000 0.440000 0.250000
v 0.190000 0.500000 0.190000
v 0.190000 0.500000 0.250000
v 0.190000 0.440000 0.190000
v 0.190000 0.440000 0.250000
vn -1.0000 -0.0000 -0.0000
vn 1.0000 -0.0000 -0.0000
vn -0.0000 1.0000 -0.0000
vn -0.0000 -0.0000 1.0000
vn -0.0000 -1.0000 -0.0000
vn -0.0000 -0.0000 -1.0000
vt 0.947869 0.539325
vt 0.981728 0.573183
vt 0.947869 0.573183
vt 0.907903 0.093588
vt 0.941761 0.059729
vt 0.941761 0.093588
vt 0.290646 0.730275
vt 0.505082 0.764134
vt 0.290646 0.764134
vt 0.339493 0.303968
vt 0.553931 0.337826
vt 0.339493 0.337826
vt 0.290646 0.685868
vt 0.505082 0.719727
vt 0.290646 0.719727
vt 0.847017 0.177961
vt 0.632580 0.144102
vt 0.847017 0.144102
vt 0.981728 0.539325
vt 0.907903 0.059729
vt 0.505082 0.730275
vt 0.553931 0.303968
vt 0.505082 0.685868
vt 0.632580 0.177961
s 1
g off
g Object006_low.001_Material.011
usemtl Material.011
f 175/477/120 174/478/120 173/479/120
f 178/480/121 179/481/121 177/482/121
s 2
f 174/483/122 177/484/122 173/485/122
s 4
f 176/486/123 178/487/123 174/488/123
s 2
f 175/489/124 180/490/124 176/491/124
s 4
f 173/492/125 179/493/125 175/494/125
s 1
f 175/477/120 176/495/120 174/478/120
f 178/480/121 180/496/121 179/481/121
s 2
f 174/483/122 178/497/122 177/484/122
s 4
f 176/486/123 180/498/123 178/487/123
s 2
f 175/489/124 179/499/124 180/490/124
s 4
f 173/492/125 177/500/125 179/493/125
g Object010_low.001_Mesh
v -0.190000 0.000000 0.190000
v -0.250000 0.000000 0.190000
v -0.190000 0.060000 0.190000
v -0.250000 0.060000 0.190000
v -0.190000 0.000000 -0.190000
v -0.250000 0.000000 -0.190000
v -0.190000 0.060000 -0.190000
v -0.250000 0.060000 -0.190000
vn -0.0000 -0.0000 1.0000
vn -0.0000 -0.0000 -1.0000
vn -0.0000 -1.0000 -0.0000
vn -1.0000 -0.0000 -0.0000
vn -0.0000 1.0000 -0.0000
vn 1.0000 -0.0000 -0.0000
vt 0.995050 0.657557
vt 0.961191 0.623698
vt 0.995050 0.623698
vt 0.901795 0.539325
vt 0.867937 0.573183
vt 0.867937 0.539325
vt 0.847017 0.137995
vt 0.632580 0.104136
vt 0.847017 0.104136
vt 0.553931 0.457725
vt 0.339493 0.423867
vt 0.553931 0.423867
vt 0.335053 0.463833
vt 0.549490 0.497691
vt 0.335053 0.497691
vt 0.565969 0.303968
vt 0.780406 0.337826
vt 0.565969 0.337826
vt 0.961191 0.657557
vt 0.901795 0.573183
vt 0.632580 0.137995
vt 0.339493 0.457725
vt 0.549490 0.463833
vt 0.780406 0.303968
s 1
g off
g Object010_low.001_Material.011
usemtl Material.011
f 183/501/126 182/502/126 181/503/126
f 186/504/127 187/505/127 185/506/127
s 2
f 182/507/128 185/508/128 181/509/128
s 4
f 184/510/129 186/511/129 182/512/129
s 2
f 183/513/130 188/514/130 184/515/130
s 4
f 181/516/131 187/517/131 183/518/131
s 1
f 183/501/126 184/519/126 182/502/126
f 186/504/127 188/520/127 187/505/127
s 2
f 182/507/128 186/521/128 185/508/128
s 4
f 184/510/129 188/522/129 186/511/129
s 2
f 183/513/130 187/523/130 188/514/130
s 4
f 181/516/131 185/524/131 187/517/131
g Object012_low.001_Mesh
v 0.190000 0.000000 0.190000
v 0.190000 0.000000 0.250000
v 0.190000 0.060000 0.190000
v 0.190000 0.060000 0.250000
v -0.190000 0.000000 0.190000
v -0.190000 0.000000 0.250000
v -0.190000 0.060000 0.190000
v -0.190000 0.060000 0.250000
vn 1.0000 -0.0000 -0.0000
vn -1.0000 -0.0000 -0.0000
vn -0.0000 -1.0000 -0.0000
vn -0.0000 -0.0000 1.0000
vn -0.0000 1.0000 -0.0000
vn -0.0000 -0.0000 -1.0000
vt 0.826303 0.377792
vt 0.792445 0.343934
vt 0.826303 0.343934
vt 0.995050 0.943429
vt 0.961191 0.977287
vt 0.961191 0.943429
vt 0.949152 0.675320
vt 0.734716 0.641461
vt 0.949152 0.641461
vt 0.553931 0.417759
vt 0.339493 0.383900
vt 0.553931 0.383900
vt 0.775965 0.537658
vt 0.561528 0.503799
vt 0.775965 0.503799
vt 0.632580 0.224035
vt 0.847017 0.257894
vt 0.632580 0.257894
vt 0.792445 0.377792
vt 0.995050 0.977287
vt 0.734716 0.675320
vt 0.339493 0.417759
vt 0.561528 0.537658
vt 0.847017 0.224035
s 1
g off
g Object012_low.001_Material.011
usemtl Material.011
f 191/525/132 190/526/132 189/527/132
f 194/528/133 195/529/133 193/530/133
s 2
f 190/531/134 193/532/134 189/533/134
s 4
f 192/534/135 194/535/135 190/536/135
s 2
f 191/537/136 196/538/136 192/539/136
s 4
f 189/540/137 195/541/137 191/542/137
s 1
f 191/525/132 192/543/132 190/526/132
f 194/528/133 196/544/133 195/529/133
s 2
f 190/531/134 194/545/134 193/532/134
s 4
f 192/534/135 196/546/135 194/535/135
s 2
f 191/537/136 195/547/136 196/538/136
s 4
f 189/540/137 193/548/137 195/541/137
g Object019_low.001_Mesh
v -0.226274 0.060000 -0.190000
v -0.226274 0.060000 0.190000
v -0.226274 0.440000 -0.190000
v -0.226274 0.440000 0.190000
vn -1.0000 -0.0000 -0.0000
vt 0.727118 0.774682
vt 0.512681 0.989119
vt 0.512681 0.774682
vt 0.727118 0.989119
s 1
g off
g Object019_low.001_Material.011
usemtl Material.011
f 198/549/138 199/550/138 197/551/138
f 198/549/138 200/552/138 199/550/138
g Object003_low.001_Mesh
v 0.250000 0.000000 -0.190000
v 0.250000 0.000000 -0.250000
v 0.190000 0.000000 -0.190000
v 0.190000 0.000000 -0.250000
v 0.250000 0.500000 -0.190000
v 0.250000 0.500000 -0.250000
v 0.190000 0.500000 -0.190000
v 0.190000 0.500000 -0.250000
vn -0.0000 -1.0000 -0.0000
vn -0.0000 1.0000 -0.0000
vn 1.0000 -0.0000 -0.0000
vn -0.0000 -0.0000 -1.0000
vn -1.0000 -0.0000 -0.0000
vn -0.0000 -0.0000 1.0000
vt 0.827970 0.573183
vt 0.861829 0.539325
vt 0.861829 0.573183
vt 0.897355 0.093587
vt 0.863496 0.059729
vt 0.897355 0.059729
vt 0.339493 0.184069
vt 0.621647 0.217928
vt 0.339493 0.217928
vt 0.621647 0.297860
vt 0.339493 0.264001
vt 0.621647 0.264001
vt 0.621647 0.137995
vt 0.339493 0.104136
vt 0.621647 0.104136
vt 0.284154 0.710845
vt 0.002000 0.676987
vt 0.284154 0.676987
vt 0.827970 0.539325
vt 0.863496 0.093587
vt 0.621647 0.184069
vt 0.339493 0.297860
vt 0.339493 0.137995
vt 0.002000 0.710845
s 1
g off
g Object003_low.001_Material.011
usemtl Material.011
f 203/553/139 202/554/139 201/555/139
f 206/556/140 207/557/140 205/558/140
s 2
f 202/559/141 205/560/141 201/561/141
s 4
f 204/562/142 206/563/142 202/564/142
s 2
f 203/565/143 208/566/143 204/567/143
s 4
f 201/568/144 207/569/144 203/570/144
s 1
f 203/553/139 204/571/139 202/554/139
f 206/556/140 208/572/140 207/557/140
s 2
f 202/559/141 206/573/141 205/560/141
s 4
f 204/562/142 208/574/142 206/563/142
s 2
f 203/565/143 207/575/143 208/566/143
s 4
f 201/568/144 205/576/144 207/569/144
g Object013_low.001_Mesh
v -0.183848 0.023726 -0.226384
v -0.226274 0.066152 -0.226384
v -0.226274 0.066152 -0.243276
v -0.183848 0.023726 -0.243276
v 0.226274 0.433848 -0.226384
v 0.226274 0.433848 -0.243276
v 0.183848 0.476274 -0.243276
v 0.183848 0.476274 -0.226384
vn -0.7071 -0.7071 -0.0000
vn 0.7071 0.7071 -0.0000
vn 0.7071 -0.7071 -0.0000
vn -0.0000 -0.0000 -1.0000
vn -0.7071 0.7071 -0.0000
vn -0.0000 -0.0000 1.0000
vt 0.938022 0.530393
vt 0.925666 0.499359
vt 0.938022 0.499359
vt 0.844768 0.383850
vt 0.832411 0.352815
vt 0.844768 0.352815
vt 0.002000 0.472714
vt 0.325506 0.486039
vt 0.002000 0.486039
vt 0.002000 0.161875
vt 0.329299 0.195724
vt 0.002001 0.195734
vt 0.672546 0.002000
vt 0.996052 0.015324
vt 0.672546 0.015324
vt 0.002001 0.315632
vt 0.329298 0.281764
vt 0.329299 0.315623
vt 0.925666 0.530393
vt 0.832411 0.383850
vt 0.325506 0.472715
vt 0.329298 0.161865
vt 0.996052 0.002000
vt 0.002000 0.281774
s 1
g off
g Object013_low.001_Material.011
usemtl Material.011
f 210/577/145 212/578/145 209/579/145
f 213/580/146 215/581/146 216/582/146
s 2
f 212/583/147 213/584/147 209/585/147
s 4
f 211/586/148 214/587/148 212/588/148
s 2
f 210/589/149 215/590/149 211/591/149
s 4
f 210/592/150 213/593/150 216/594/150
s 1
f 210/577/145 211/595/145 212/578/145
f 213/580/146 214/596/146 215/581/146
s 2
f 212/583/147 214/597/147 213/584/147
s 4
f 211/586/148 215/598/148 214/587/148
s 2
f 210/589/149 216/599/149 215/590/149
s 4
f 210/592/150 209/600/150 213/593/150
