# Blender 5.0.1
# www.blender.org
mtllib cocoOnGoKart.mtl
g mesh_1_Mesh
v 0.251230 2.276630 0.379240
v 0.400460 2.064070 0.401770
v 0.281440 2.202840 0.076250
v 0.245530 1.491180 0.488450
v 0.000000 1.496990 0.669000
v 0.000000 1.438530 0.434430
v 0.090420 1.420960 0.339040
v 0.000000 1.839830 0.825260
v 0.000000 1.496990 0.669000
v 0.287690 1.851530 0.683940
v 0.396960 1.648290 0.412400
v 0.000000 1.438530 0.434430
v 0.000000 1.347500 0.443040
v 0.060830 1.332780 0.356730
v 0.090420 1.420960 0.339040
v 0.166290 1.469320 0.021880
v 0.000000 1.416700 0.275730
v 0.000000 1.447850 -0.061350
v 0.335360 1.615130 0.106810
v 0.114240 1.639960 -0.125080
v 0.197610 1.719490 -0.006000
v 0.203890 1.962090 -0.016280
v 0.000000 1.987720 -0.060050
v 0.000000 2.262910 0.039210
v 0.372980 1.981450 0.219220
v 0.400460 2.064070 0.401770
v 0.000000 1.668610 -0.188660
v 0.000000 1.726140 -0.030390
v 0.000000 1.447850 -0.061350
v 0.090420 1.420960 0.339040
v 0.060830 1.332780 0.356730
v 0.000000 1.320090 0.300240
v 0.000000 1.416700 0.275730
v 0.253600 2.152420 0.609320
v 0.000000 2.329930 0.370040
v 0.000000 2.205310 0.704360
v 0.000000 2.262910 0.039210
v 0.000000 2.205310 0.704360
v 0.560060 2.232740 0.458050
v 0.393920 1.996240 0.366810
v 0.235570 2.160680 0.419100
v 0.393920 1.996240 0.366810
v 0.345330 2.047530 0.513890
v 0.178190 0.663890 2.074720
v 0.135120 0.877680 1.522690
v 0.188870 0.953990 1.679650
v -0.014860 1.758320 1.209450
v 0.240480 1.838760 1.676640
v 0.199250 2.191270 1.199760
v 0.116250 1.016030 1.853290
v -0.043280 1.975220 1.950920
v -0.066120 2.605080 1.390860
v 0.423560 1.433850 0.344350
v 0.372980 1.981450 0.219220
v 0.400460 2.064070 0.401770
v 0.440060 1.398340 0.521020
v 0.423560 1.433850 0.344350
v 0.440060 1.398340 0.521020
v 0.485700 1.130840 0.166060
v 0.420410 1.266500 0.213970
v 0.420410 1.266500 0.213970
v 0.485700 1.130840 0.166060
v 0.352760 1.343080 -0.101130
v 0.025760 1.647140 -0.160500
v 0.046030 1.661590 -0.206260
v 0.000000 1.699640 -0.194830
v 0.000000 1.668290 -0.154150
v 0.000000 1.626200 -0.166890
v 0.000000 1.623920 -0.217760
v 0.000000 1.672940 -0.243120
v 0.004310 2.200450 0.643730
v 0.270430 1.156120 0.256290
v 0.441180 0.964310 0.151980
v 0.380260 0.880500 0.147760
v 0.256230 1.077940 0.319500
v 0.524670 0.928390 0.131460
v 0.384360 1.024510 -0.167830
v 0.378930 0.959940 -0.186800
v 0.403750 0.995530 -0.204230
v 0.372470 0.988500 -0.161340
v 0.380260 0.880500 0.147760
v 0.256230 1.077940 0.319500
v 0.490150 0.826070 0.172850
v 0.359730 1.095990 0.368090
v 0.359100 1.176910 0.290590
v 0.273690 1.026720 -0.361940
v 0.254040 0.940050 -0.309680
v 0.149110 1.060990 -0.284810
v 0.246930 0.948940 -0.192530
v 0.203480 0.950730 -0.267320
v 0.254040 0.940050 -0.309680
v 0.230710 1.101910 -0.173000
v 0.275680 1.114490 -0.314210
v 0.172990 1.129520 -0.262610
v 0.230710 1.101910 -0.173000
v 0.246930 0.948940 -0.192530
v 0.372470 0.988500 -0.161340
v 0.384360 1.024510 -0.167830
v 0.378930 0.959940 -0.186800
v 0.384360 1.024510 -0.167830
v 0.403750 0.995530 -0.204230
v 0.378930 0.959940 -0.186800
v 0.384360 1.024510 -0.167830
v 0.176500 1.086460 0.397240
v 0.000000 1.123550 0.489040
v 0.000000 0.879900 0.464060
v 0.130680 0.873200 0.360090
v 0.210140 1.217310 0.450250
v -0.067470 1.254550 0.502660
v 0.140280 1.142850 0.191050
v 0.130680 0.873200 0.360090
v 0.000000 0.890090 0.195410
v 0.358350 1.162650 0.418620
v 0.374220 1.222000 0.314070
v 0.243240 1.283010 0.343480
v 0.231800 1.202170 0.240950
v 0.243240 1.283010 0.343480
v 0.374220 1.222000 0.314070
v 0.425660 1.157640 0.253770
v 0.288690 1.124040 0.181860
v 0.220070 1.118080 0.358750
v 0.230740 1.021750 0.301710
v 0.395990 1.047860 0.377820
v 0.425660 1.157640 0.253770
v 0.220070 1.118080 0.358750
v 0.176500 1.086460 0.397240
v 0.230740 1.021750 0.301710
v 0.225280 0.577640 0.325080
v 0.000000 0.589090 0.146740
v 0.395990 1.047860 0.377820
v 0.230740 1.021750 0.301710
v 0.288690 1.124040 0.181860
v 0.425660 1.157640 0.253770
v 0.378930 0.959940 -0.186800
v 0.372470 0.988500 -0.161340
v 0.000000 1.130250 0.209610
v 0.000000 0.616720 0.521660
v 0.225280 0.577640 0.325080
v -0.251230 2.276630 0.379240
v -0.281440 2.202840 0.076250
v -0.400460 2.064070 0.401770
v -0.245530 1.491180 0.488450
v -0.090420 1.420960 0.339040
v 0.000000 1.839830 0.825260
v -0.287690 1.851530 0.683940
v 0.000000 1.496990 0.669000
v -0.396960 1.648290 0.412400
v 0.000000 1.438530 0.434430
v -0.090420 1.420960 0.339040
v -0.060830 1.332780 0.356730
v 0.000000 1.347500 0.443040
v -0.166290 1.469320 0.021880
v -0.335360 1.615130 0.106810
v -0.197610 1.719490 -0.006000
v -0.114240 1.639960 -0.125080
v -0.203890 1.962090 -0.016280
v 0.000000 2.262910 0.039210
v 0.000000 1.987720 -0.060050
v -0.372980 1.981450 0.219220
v -0.400460 2.064070 0.401770
v 0.000000 1.668610 -0.188660
v 0.000000 1.447850 -0.061350
v -0.090420 1.420960 0.339040
v 0.000000 1.416700 0.275730
v 0.000000 1.320090 0.300240
v -0.060830 1.332780 0.356730
v 0.000000 1.726140 -0.030390
v -0.253600 2.152420 0.609320
v 0.000000 2.205310 0.704360
v -0.560060 2.232740 0.458050
v -0.235570 2.160680 0.419100
v -0.393920 1.996240 0.366810
v -0.393920 1.996240 0.366810
v -0.345330 2.047530 0.513890
v 0.178190 0.663890 2.074720
v 0.063440 0.932960 1.681290
v 0.135120 0.877680 1.522690
v -0.273910 1.752530 1.683370
v -0.014860 1.758320 1.209450
v -0.280760 2.161600 1.202610
v 0.116250 1.016030 1.853290
v -0.043280 1.975220 1.950920
v -0.066120 2.605080 1.390860
v -0.440270 1.433850 0.344350
v -0.440040 1.398340 0.521020
v -0.400460 2.064070 0.401770
v -0.372980 1.981450 0.219220
v -0.440270 1.433850 0.344350
v -0.383180 1.266500 0.213970
v -0.485700 1.130840 0.166060
v -0.440040 1.398340 0.521020
v -0.383180 1.266500 0.213970
v -0.352760 1.343080 -0.101130
v -0.485700 1.130840 0.166060
v -0.025760 1.647140 -0.160500
v -0.046030 1.661590 -0.206260
v 0.004310 2.200450 0.643730
v -0.270430 1.156120 0.256290
v -0.256230 1.077940 0.319500
v -0.384300 0.882490 0.147470
v -0.441180 0.964310 0.151980
v -0.384360 1.024510 -0.167830
v -0.524670 0.928390 0.131450
v -0.378930 0.959930 -0.186810
v -0.403750 0.995530 -0.204240
v -0.368960 0.987710 -0.158640
v -0.384300 0.882490 0.147470
v -0.256230 1.077940 0.319500
v -0.359740 1.095990 0.368090
v -0.490150 0.826070 0.172850
v -0.359710 1.175080 0.288400
v -0.254050 0.940040 -0.309680
v -0.273690 1.026720 -0.361940
v -0.149120 1.060980 -0.284810
v -0.203480 0.950720 -0.267330
v -0.246930 0.948940 -0.192540
v -0.230710 1.101900 -0.173000
v -0.172990 1.129510 -0.262620
v -0.275670 1.114490 -0.314220
v -0.230710 1.101900 -0.173000
v -0.246930 0.948940 -0.192540
v -0.384360 1.024510 -0.167830
v -0.368960 0.987710 -0.158640
v -0.378930 0.959930 -0.186810
v -0.384360 1.024510 -0.167830
v -0.378930 0.959930 -0.186810
v -0.403750 0.995530 -0.204240
v -0.384360 1.024510 -0.167830
v -0.176510 1.086460 0.397240
v -0.130680 0.873200 0.360090
v 0.000000 0.879900 0.464060
v 0.000000 1.123550 0.489040
v -0.210140 1.217310 0.450250
v -0.067470 1.254550 0.502660
v -0.140280 1.142850 0.191050
v 0.000000 0.890090 0.195410
v -0.130680 0.873200 0.360090
v -0.358350 1.162650 0.418630
v -0.243240 1.283010 0.343480
v -0.374220 1.222000 0.314070
v -0.243650 1.182060 0.225700
v -0.374220 1.222000 0.314070
v -0.243240 1.283010 0.343480
v -0.288690 1.124040 0.181860
v -0.425660 1.157640 0.253780
v -0.220070 1.118080 0.358750
v -0.395990 1.047860 0.377820
v -0.230740 1.021750 0.301710
v -0.425660 1.157640 0.253780
v -0.220070 1.118080 0.358750
v -0.176510 1.086460 0.397240
v -0.230740 1.021750 0.301710
v 0.000000 0.589090 0.146740
v -0.225280 0.577640 0.325080
v -0.395990 1.047860 0.377820
v -0.425660 1.157640 0.253780
v -0.288690 1.124040 0.181860
v -0.230740 1.021750 0.301710
v -0.378930 0.959930 -0.186810
v -0.368960 0.987710 -0.158640
v 0.000000 1.130250 0.209610
v -0.225280 0.577640 0.325080
v 0.000000 0.616720 0.521660
v -0.406620 1.751480 -0.571400
v -0.242010 1.784010 -0.341400
v -0.233430 1.904070 -0.436550
v -0.050930 2.127120 -0.201770
v -0.129380 2.336370 -0.530980
v 0.150960 2.587610 -0.203660
v 0.112980 2.154400 0.062040
v -0.230110 1.777050 -0.359400
v 0.014430 2.118020 -0.231240
v -0.321970 2.376540 0.427890
v -0.235100 2.487390 0.408150
v -0.253340 2.347130 0.325590
v -0.331430 2.343750 0.446370
v -0.436140 2.274370 0.466700
v -0.461540 2.374970 0.573230
v -0.293420 2.223150 0.385640
v -0.436140 2.274370 0.466700
v -0.331430 2.343750 0.446370
v -0.404280 2.189270 0.314730
v -0.524400 2.079570 0.393960
v -0.458390 2.215660 0.425430
v -0.293420 2.223150 0.385640
v -0.404280 2.189270 0.314730
v -0.458390 2.215660 0.425430
v -0.363400 2.221090 0.225210
v -0.281070 2.304510 0.275240
v -0.283450 2.256460 0.119220
v -0.293420 2.223150 0.385640
v -0.281070 2.304510 0.275240
v -0.363400 2.221090 0.225210
v -0.293420 2.223150 0.385640
v -0.321970 2.376540 0.427890
v -0.253340 2.347130 0.325590
v 0.352760 1.343080 -0.101130
v 0.485700 1.130840 0.166060
v 0.420410 1.266500 0.213970
v 0.485700 1.130840 0.166060
v 0.440060 1.398340 0.521020
v 0.423560 1.433850 0.344350
v 0.420410 1.266500 0.213970
v 0.440060 1.398340 0.521020
v 0.400460 2.064070 0.401770
v 0.372980 1.981450 0.219220
v 0.423560 1.433850 0.344350
v -0.485700 1.130840 0.166060
v -0.352760 1.343080 -0.101130
v -0.383180 1.266500 0.213970
v -0.440040 1.398340 0.521020
v -0.485700 1.130840 0.166060
v -0.383180 1.266500 0.213970
v -0.440270 1.433850 0.344350
v -0.400460 2.064070 0.401770
v -0.440040 1.398340 0.521020
v -0.440270 1.433850 0.344350
v -0.372980 1.981450 0.219220
v -0.253340 2.347130 0.325590
v -0.321970 2.376540 0.427890
v -0.293420 2.223150 0.385640
v -0.235100 2.487390 0.408150
v -0.321970 2.376540 0.427890
v -0.253340 2.347130 0.325590
v -0.436140 2.274370 0.466700
v -0.293420 2.223150 0.385640
v -0.331430 2.343750 0.446370
v -0.461540 2.374970 0.573230
v -0.436140 2.274370 0.466700
v -0.331430 2.343750 0.446370
v -0.524400 2.079570 0.393960
v -0.404280 2.189270 0.314730
v -0.458390 2.215660 0.425430
v -0.404280 2.189270 0.314730
v -0.293420 2.223150 0.385640
v -0.458390 2.215660 0.425430
v -0.283450 2.256460 0.119220
v -0.281070 2.304510 0.275240
v -0.363400 2.221090 0.225210
v -0.363400 2.221090 0.225210
v -0.281070 2.304510 0.275240
v -0.293420 2.223150 0.385640
vn 0.5470 0.8255 0.1394
vn 0.9213 0.3412 0.1864
vn 0.6533 0.6060 -0.4539
vn 0.5313 -0.7708 0.3516
vn -0.0000 -0.9703 0.2418
vn -0.0000 -0.9618 0.2737
vn 0.2412 -0.9691 0.0518
vn 0.4840 -0.1891 0.8544
vn 0.5504 -0.3463 0.7597
vn 0.6777 -0.0188 0.7351
vn 0.9583 -0.2579 0.1233
vn 0.7716 -0.0232 0.6357
vn 0.5046 0.6236 0.5971
vn 0.7512 0.3836 0.5371
vn 0.7129 -0.1000 0.6941
vn 0.4625 -0.8272 -0.3191
vn -0.0000 -0.9944 -0.1061
vn -0.0000 -0.9958 -0.0920
vn 0.8456 -0.2825 -0.4529
vn 0.5908 -0.1359 -0.7953
vn 0.5153 0.2662 -0.8146
vn 0.4893 0.1080 -0.8654
vn 0.1905 0.0582 -0.9800
vn 0.2124 0.3146 -0.9251
vn 0.9046 0.0413 -0.4242
vn 0.9896 -0.0120 -0.1435
vn 0.4038 0.4244 -0.8105
vn 0.1217 0.5241 -0.8429
vn 0.3875 -0.4896 -0.7811
vn 0.6259 -0.2813 -0.7274
vn 0.5958 0.3538 -0.7210
vn 0.3756 0.3409 -0.8618
vn 0.5681 -0.2024 -0.7977
vn 0.5497 0.6260 0.5531
vn -0.0000 0.9943 0.1069
vn -0.0000 0.9370 0.3493
vn -0.0000 0.9801 -0.1985
vn 0.4000 0.2748 0.8743
vn 0.7718 0.3409 0.5368
vn 0.0383 0.3361 -0.9410
vn -0.2019 0.9724 -0.1171
vn 0.6507 -0.6240 0.4326
vn 0.3247 -0.0926 0.9413
vn 0.9988 0.0220 0.0431
vn 0.9379 -0.1223 -0.3245
vn 0.9817 0.0147 0.1899
vn 0.8700 -0.2943 -0.3955
vn 0.9948 0.0776 0.0664
vn 0.9771 0.0583 -0.2047
vn 0.9250 0.2239 0.3069
vn 0.8123 0.1943 0.5499
vn 0.8256 0.5359 0.1768
vn 0.9906 0.0480 -0.1279
vn 0.9838 0.0517 -0.1715
vn 0.9955 0.0442 -0.0841
vn 0.8345 0.3964 -0.3828
vn 0.9730 0.2263 -0.0454
vn 0.8344 0.3964 -0.3829
vn 0.5607 0.5023 -0.6583
vn 0.8869 0.4550 -0.0798
vn 0.8666 0.2106 0.4524
vn 0.9586 -0.1924 -0.2099
vn -0.0000 0.9655 0.2604
vn -0.0000 0.7921 0.6104
vn -0.0000 -0.9991 0.0426
vn -0.0000 -0.8497 -0.5273
vn -0.0000 0.2889 -0.9574
vn 0.9393 0.1024 -0.3276
vn -0.4062 0.2651 -0.8745
vn -0.1247 0.7852 -0.6066
vn -0.9043 0.3011 -0.3025
vn -0.8852 -0.1845 -0.4271
vn 0.9432 0.2949 -0.1530
vn -0.2238 0.9650 0.1370
vn 0.0384 -0.9021 -0.4299
vn 0.9414 0.0101 -0.3371
vn -0.9817 -0.1861 -0.0403
vn -0.7119 -0.6960 0.0939
vn -0.3582 -0.6954 0.6230
vn 0.1682 -0.9034 0.3944
vn 0.6453 -0.1463 0.7498
vn 0.4807 0.6673 -0.5688
vn 0.2811 0.0884 -0.9556
vn 0.0750 -0.8204 -0.5668
vn -0.9739 -0.1770 -0.1424
vn -0.0373 -0.9966 0.0734
vn -0.6793 -0.7321 -0.0499
vn -0.4600 -0.8192 -0.3426
vn 0.3287 0.9257 0.1871
vn 0.3924 0.8637 -0.3163
vn -0.5327 0.7626 -0.3669
vn -0.4844 -0.0109 0.8748
vn -0.4948 -0.3646 0.7888
vn -0.0447 -0.2318 0.9717
vn 0.0483 0.1617 0.9857
vn 0.0227 -0.6624 0.7488
vn 0.4335 0.8749 0.2160
vn 0.7770 0.0902 -0.6230
vn 0.5893 -0.5708 -0.5718
vn 0.7392 0.5301 -0.4154
vn 0.4398 -0.4895 0.7529
vn 0.3327 -0.1796 0.9258
vn 0.5636 -0.0625 0.8237
vn 0.6378 0.0113 0.7701
vn 0.3493 0.2976 0.8885
vn 0.2080 0.2048 0.9564
vn 0.4233 0.1284 -0.8969
vn 0.8140 -0.0497 -0.5787
vn 0.5205 -0.0929 -0.8488
vn 0.6507 -0.0955 0.7533
vn 0.5935 0.6393 0.4889
vn 0.3957 0.8254 0.4026
vn -0.2274 0.1360 -0.9643
vn 0.1202 0.7834 -0.6098
vn 0.2084 0.7307 -0.6501
vn 0.1611 0.7403 -0.6527
vn -0.1767 0.5467 -0.8185
vn -0.0642 -0.7805 0.6219
vn -0.2916 -0.5111 0.8085
vn 0.1662 -0.3331 0.9281
vn 0.8940 0.2712 0.3568
vn -0.6358 -0.5969 -0.4894
vn 0.6386 -0.6469 -0.4169
vn -0.9314 -0.1113 -0.3466
vn 0.6043 0.2817 -0.7453
vn 0.7017 0.1924 -0.6860
vn 0.4051 -0.7552 -0.5154
vn 0.3555 -0.7888 -0.5013
vn 0.4532 -0.7186 -0.5275
vn 0.0750 -0.8204 -0.5669
vn 0.0793 -0.9936 0.0802
vn -0.9325 0.3331 0.1399
vn -0.1488 0.2465 -0.9577
vn 0.6422 0.1468 0.7524
vn 0.6646 0.1254 0.7366
vn -0.5471 0.8255 0.1388
vn -0.6533 0.6060 -0.4539
vn -0.9213 0.3412 0.1864
vn -0.5313 -0.7708 0.3516
vn -0.2412 -0.9691 0.0518
vn -0.4850 -0.1887 0.8539
vn -0.6777 -0.0188 0.7351
vn -0.5504 -0.3463 0.7597
vn -0.9583 -0.2579 0.1233
vn -0.7716 -0.0232 0.6357
vn -0.7129 -0.1000 0.6941
vn -0.7513 0.3836 0.5371
vn -0.5380 0.6797 0.4985
vn -0.4625 -0.8272 -0.3191
vn -0.8456 -0.2825 -0.4529
vn -0.5153 0.2662 -0.8146
vn -0.5908 -0.1359 -0.7953
vn -0.4893 0.1080 -0.8654
vn -0.2124 0.3146 -0.9251
vn -0.1905 0.0582 -0.9800
vn -0.9046 0.0413 -0.4242
vn -0.9896 -0.0120 -0.1435
vn -0.4038 0.4244 -0.8105
vn -0.3875 -0.4896 -0.7811
vn -0.6259 -0.2813 -0.7274
vn -0.5681 -0.2024 -0.7977
vn -0.3756 0.3409 -0.8618
vn -0.5958 0.3538 -0.7210
vn -0.1217 0.5241 -0.8429
vn -0.5497 0.6260 0.5531
vn -0.4000 0.2748 0.8743
vn -0.7718 0.3409 0.5368
vn 0.2019 0.9724 -0.1171
vn -0.0383 0.3361 -0.9410
vn -0.6507 -0.6240 0.4326
vn -0.3247 -0.0926 0.9413
vn -0.9499 -0.3048 0.0686
vn -0.9276 -0.3054 0.2150
vn -0.8543 -0.4223 -0.3029
vn -0.9859 -0.1558 0.0616
vn -0.7852 -0.4406 -0.4350
vn -0.9601 -0.0501 -0.2750
vn -0.9394 -0.0887 0.3313
vn -0.8366 -0.0336 0.5468
vn -0.8960 0.4257 0.1261
vn -0.9939 0.0705 -0.0851
vn -0.9980 0.0618 0.0137
vn -0.9800 0.0786 -0.1831
vn -0.7907 0.3942 -0.4684
vn -0.3100 0.5162 -0.7984
vn -0.7907 0.3941 -0.4684
vn -0.9908 0.1322 0.0279
vn -0.8070 0.5870 0.0648
vn -0.8666 0.2106 0.4524
vn -0.9586 -0.1924 -0.2099
vn -0.8911 0.0122 -0.4537
vn 0.4062 0.2584 -0.8765
vn 0.8792 -0.1926 -0.4357
vn 0.9005 0.3217 -0.2926
vn 0.1318 0.7807 -0.6108
vn 0.2061 0.9667 0.1517
vn -0.9427 0.2956 -0.1545
vn -0.0360 -0.9092 -0.4148
vn -0.9414 0.0101 -0.3371
vn 0.9555 -0.2903 -0.0519
vn 0.6998 -0.7100 0.0782
vn 0.3736 -0.7008 0.6077
vn -0.6465 -0.1438 0.7493
vn -0.1508 -0.9084 0.3899
vn -0.4763 0.6665 -0.5735
vn 0.1650 -0.8560 -0.4899
vn -0.2811 0.0884 -0.9556
vn 0.9739 -0.1769 -0.1424
vn 0.6794 -0.7321 -0.0499
vn 0.0373 -0.9966 0.0735
vn -0.3286 0.9257 0.1872
vn 0.5328 0.7626 -0.3669
vn -0.3923 0.8637 -0.3164
vn 0.4865 0.0026 0.8737
vn 0.5020 -0.3787 0.7775
vn -0.0741 0.2123 0.9744
vn 0.0437 -0.2353 0.9709
vn -0.0282 -0.7067 0.7069
vn -0.4334 0.8749 0.2160
vn -0.5894 -0.5706 -0.5718
vn -0.7770 0.0902 -0.6230
vn -0.7392 0.5301 -0.4154
vn -0.4398 -0.4896 0.7529
vn -0.6378 0.0113 0.7701
vn -0.5636 -0.0625 0.8237
vn -0.3605 -0.2562 0.8969
vn -0.4075 0.3139 0.8576
vn -0.3913 0.2544 0.8844
vn -0.4048 0.0951 -0.9094
vn -0.5206 -0.0929 -0.8488
vn -0.8140 -0.0498 -0.5788
vn -0.6507 -0.0955 0.7533
vn -0.3957 0.8254 0.4026
vn -0.5935 0.6392 0.4891
vn 0.1952 0.0773 -0.9777
vn -0.2026 0.7279 -0.6551
vn -0.1455 0.7683 -0.6233
vn 0.1745 0.5399 -0.8234
vn -0.1611 0.7402 -0.6527
vn 0.0642 -0.7805 0.6218
vn -0.1662 -0.3332 0.9281
vn 0.2916 -0.5111 0.8085
vn -0.8940 0.2711 0.3568
vn 0.5444 -0.7142 -0.4399
vn -0.6303 -0.7029 -0.3295
vn 0.9195 -0.1055 -0.3787
vn -0.7017 0.1924 -0.6860
vn -0.6043 0.2817 -0.7453
vn -0.4051 -0.7551 -0.5154
vn -0.4533 -0.7185 -0.5275
vn -0.4052 -0.7551 -0.5154
vn -0.3555 -0.7888 -0.5013
vn -0.0792 -0.9936 0.0803
vn 0.8883 0.4188 0.1885
vn 0.1488 0.2465 -0.9577
vn -0.6646 0.1254 0.7366
vn -0.6422 0.1468 0.7524
vn -0.2098 -0.9611 0.1797
vn -0.3262 -0.4308 0.8414
vn -0.4395 0.1854 -0.8789
vn -0.7705 -0.0307 0.6367
vn -0.3627 0.4063 -0.8387
vn 0.3600 0.8982 0.2523
vn 0.0477 -0.9347 0.3522
vn 0.6402 -0.7610 -0.1048
vn 0.7805 -0.6196 -0.0829
vn -0.6858 0.4333 -0.5847
vn -0.5019 0.5659 -0.6541
vn -0.3794 0.3180 -0.8689
vn -0.7433 0.4705 -0.4755
vn -0.1112 0.9531 -0.2816
vn -0.6245 0.7490 -0.2212
vn -0.7633 0.5579 0.3258
vn -0.8306 -0.0012 -0.5569
vn -0.8869 -0.4550 0.0798
vn -0.8344 -0.3964 0.3829
vn -0.9730 -0.2263 0.0454
vn -0.5607 -0.5023 0.6583
vn -0.9914 -0.0519 0.1201
vn -0.9864 -0.0297 0.1619
vn -0.9942 -0.0740 0.0780
vn 0.8070 -0.5870 -0.0648
vn 0.9422 -0.2070 0.2634
vn 0.6597 -0.6385 0.3963
vn 0.9574 0.2832 0.0557
vn 0.9939 -0.0705 0.0851
vn 0.9980 -0.0618 -0.0137
vn 0.9800 -0.0786 0.1831
vn 0.8306 0.0012 0.5569
vn 0.6858 -0.4333 0.5847
vn 0.3794 -0.3180 0.8689
vn 0.5019 -0.5659 0.6541
vn 0.7433 -0.4705 0.4755
vn 0.1112 -0.9531 0.2816
vn 0.6245 -0.7490 0.2212
vn 0.7633 -0.5579 -0.3258
vt 0.289170 1.858590
vt 0.283448 1.757151
vt 0.440671 1.833758
vt 0.176638 1.470674
vt 0.134548 1.360177
vt 0.250262 1.356781
vt 0.298580 1.394847
vt 0.018115 1.653004
vt 0.018115 1.474484
vt 0.139827 1.656294
vt 0.268561 1.550020
vt 0.604993 1.504854
vt 0.604993 1.458357
vt 0.647726 1.470200
vt 0.660685 1.515074
vt 0.472556 1.421071
vt 0.328843 1.354470
vt 0.497143 1.349513
vt 0.397295 1.526473
vt 0.518073 1.503278
vt 0.483480 1.576305
vt 0.480741 1.700434
vt 0.563851 1.712781
vt 0.563851 1.855591
vt 0.361264 1.713638
vt 0.569084 1.512321
vt 0.563851 1.579273
vt 0.558358 1.397066
vt 0.940659 1.494771
vt 0.953603 1.449897
vt 0.980240 1.441726
vt 0.980240 1.490793
vt 0.153949 1.827975
vt 0.284228 1.970647
vt 0.113358 1.965675
vt 0.449927 1.975467
vt 0.018115 1.838103
vt 0.245764 1.345367
vt 0.158110 1.254210
vt 0.244264 1.205907
vt 0.372861 1.288283
vt 0.319724 1.236079
vt 0.888517 1.461662
vt 0.918199 1.606186
vt 0.882550 1.583083
vt 0.776138 1.794483
vt 0.700266 1.705468
vt 0.691239 1.858758
vt 0.843413 1.557869
vt 0.624821 1.675373
vt 0.575433 1.884967
vt 0.768963 1.681462
vt 0.820233 1.581002
vt 0.785915 1.620522
vt 0.719926 1.646899
vt 0.865567 1.607670
vt 0.832060 1.644895
vt 0.917679 1.710792
vt 0.498397 1.897483
vt 0.519756 1.903159
vt 0.515105 1.920188
vt 0.495812 1.906938
vt 0.500998 1.888119
vt 0.524453 1.886314
vt 0.536969 1.907611
vt 0.777699 1.967817
vt 0.323411 1.130524
vt 0.179591 1.130524
vt 0.179576 1.163404
vt 0.323427 1.163404
vt 0.179576 1.097645
vt 0.037409 1.130524
vt 0.037393 1.064566
vt 0.037393 1.097645
vt 0.037409 1.031870
vt 0.179576 1.031870
vt 0.323427 1.031870
vt 0.179576 1.064964
vt 0.323411 1.064903
vt 0.323411 1.097645
vt 0.459245 1.240042
vt 0.414446 1.226700
vt 0.467905 1.154239
vt 0.377895 1.174145
vt 0.414446 1.162884
vt 0.547480 1.153428
vt 0.507945 1.227679
vt 0.503600 1.151745
vt 0.494787 1.098104
vt 0.414248 1.094110
vt 0.442384 1.036337
vt 0.462764 1.036093
vt 0.427819 1.043238
vt 0.594145 1.215776
vt 0.453982 1.326426
vt 0.433801 1.327068
vt 0.468715 1.332377
vt 0.682242 1.300446
vt 0.604993 1.329118
vt 0.604993 1.203811
vt 0.710119 1.198502
vt 0.673078 1.392828
vt 0.604993 1.401457
vt 0.918826 1.333632
vt 0.875114 1.198502
vt 0.980240 1.204178
vt 0.721426 1.387365
vt 0.730667 1.435055
vt 0.697649 1.439783
vt 0.857290 1.361279
vt 0.887568 1.439783
vt 0.854566 1.435055
vt 0.810242 1.441481
vt 0.807901 1.365716
vt 0.724103 1.314124
vt 0.770156 1.302787
vt 0.774440 1.371530
vt 0.774976 1.441481
vt 0.827608 1.307576
vt 0.870203 1.290975
vt 0.781555 1.287487
vt 0.856402 1.046405
vt 0.980240 1.049052
vt 0.745829 1.208294
vt 0.797926 1.152801
vt 0.844973 1.203643
vt 0.800603 1.251960
vt 0.340532 1.224390
vt 0.037409 1.163404
vt 0.980240 1.327512
vt 0.604993 1.069982
vt 0.728831 1.046405
vt 0.289170 1.858559
vt 0.440671 1.833789
vt 0.298580 1.395061
vt 0.605360 1.504854
vt 0.661036 1.515074
vt 0.648093 1.470200
vt 0.605360 1.458357
vt 0.483495 1.576305
vt 0.361279 1.713638
vt 0.953618 1.449897
vt 0.153949 1.827944
vt 0.459245 1.240134
vt 0.377879 1.174145
vt 0.433801 1.327267
vt 0.453982 1.326624
vt 0.468715 1.332576
vt 0.682609 1.300446
vt 0.710348 1.198502
vt 0.605360 1.203811
vt 0.605360 1.329118
vt 0.673445 1.392828
vt 0.605360 1.401457
vt 0.918841 1.333632
vt 0.721777 1.387365
vt 0.698017 1.439783
vt 0.731019 1.435055
vt 0.887584 1.439783
vt 0.724470 1.314124
vt 0.774792 1.371530
vt 0.770523 1.302787
vt 0.775343 1.441481
vt 0.827623 1.307576
vt 0.781570 1.287487
vt 0.729091 1.046405
vt 0.605360 1.069982
vt 0.910304 1.563805
vt 0.910610 1.665825
vt 0.849992 1.644971
vt 0.771135 1.774165
vt 0.659461 1.662827
vt 0.594635 1.830025
vt 0.794942 1.895280
vt 0.906097 1.990889
vt 0.817204 1.990889
vt 0.817204 1.901981
vt 0.995005 1.901981
vt 0.995005 1.990889
vt 0.906097 1.901981
vt 0.906097 1.813088
vt 0.995005 1.813088
vt 0.817204 1.813088
s 1
g off
g mesh_1_Material.002
usemtl Material.002
f 1/1/1 2/2/2 3/3/3
f 4/4/4 5/5/5 6/6/6
f 4/4/4 6/6/6 7/7/7
f 8/8/8 9/9/9 4/4/4
f 8/8/8 4/4/4 10/10/10
f 10/10/10 11/11/11 2/2/2
f 4/4/4 11/11/11 10/10/10
f 12/12/12 13/13/13 14/14/14
f 12/12/12 14/14/14 15/15/15
f 16/16/16 7/7/7 17/17/17
f 16/16/16 17/17/17 18/18/18
f 4/4/4 16/16/16 19/19/19
f 19/19/19 20/20/20 21/21/21
f 22/22/22 23/23/23 24/24/24
f 25/25/25 26/2/26 11/11/11
f 25/25/25 11/11/11 19/19/19
f 21/21/21 22/22/22 25/25/25
f 21/21/21 25/25/25 19/19/19
f 21/21/21 27/26/27 28/27/28
f 20/20/20 16/16/16 29/28/29
f 30/29/30 31/30/31 32/31/32
f 30/29/30 32/31/32 33/32/33
f 23/23/23 22/22/22 21/21/21
f 23/23/23 21/21/21 28/27/28
f 22/22/22 24/24/24 3/3/3
f 34/33/34 10/10/10 2/2/2
f 34/33/34 1/1/1 35/34/35
f 34/33/34 35/34/35 36/35/36
f 35/34/35 1/1/1 3/3/3
f 35/34/35 3/3/3 37/36/37
f 1/1/1 34/33/34 2/2/2
f 38/37/38 8/8/8 10/10/10
f 38/37/38 10/10/10 34/33/34
f 25/25/25 3/3/3 2/2/2
f 7/7/7 16/16/16 4/4/4
f 39/38/39 40/39/40 41/40/41
f 42/41/42 39/38/39 43/42/43
f 43/42/43 39/38/39 41/40/41
f 44/43/44 45/44/45 46/45/46
f 45/44/45 47/46/47 48/47/48
f 45/44/45 48/47/48 46/45/46
f 47/46/47 49/48/49 48/47/48
f 50/49/50 44/43/44 46/45/46
f 46/45/46 48/47/48 51/50/51
f 46/45/46 51/50/51 50/49/50
f 48/47/48 49/48/49 52/51/52
f 48/47/48 52/51/52 51/50/51
f 53/52/53 54/53/54 55/54/53
f 53/52/53 55/54/53 56/55/55
f 57/52/56 58/55/57 59/56/58
f 57/52/56 59/56/58 60/57/59
f 61/57/60 62/56/60 63/58/60
f 64/59/61 65/60/62 66/61/63
f 64/59/61 66/61/63 67/62/64
f 68/63/65 69/64/66 65/60/62
f 68/63/65 65/60/62 64/59/61
f 65/60/62 70/65/67 66/61/63
f 69/64/66 70/65/67 65/60/62
f 20/20/20 29/28/29 27/26/27
f 11/11/11 4/4/4 19/19/19
f 20/20/20 19/19/19 16/16/16
f 49/48/49 47/46/47 71/66/68
f 71/66/68 52/51/52 49/48/49
f 72/67/69 73/68/70 74/69/71
f 72/67/69 74/69/71 75/70/72
f 73/68/70 76/71/73 77/72/74
f 78/73/75 79/74/76 76/71/73
f 77/72/74 74/69/71 73/68/70
f 80/75/77 78/73/75 81/76/78
f 82/77/79 81/76/78 83/78/80
f 82/77/79 83/78/80 84/79/81
f 76/71/73 85/80/82 84/79/81
f 76/71/73 84/79/81 83/78/80
f 85/80/82 76/71/73 73/68/70
f 85/80/82 73/68/70 72/67/69
f 86/81/83 87/82/84 88/83/85
f 89/84/86 90/85/87 91/82/88
f 92/86/89 93/87/90 94/88/91
f 95/89/92 94/88/91 88/83/85
f 88/83/85 90/85/87 96/90/93
f 95/89/92 97/91/94 98/92/95
f 96/90/93 99/93/96 97/91/94
f 92/86/89 100/94/97 93/87/90
f 86/81/83 101/95/98 102/96/99
f 86/81/83 102/96/99 87/82/84
f 86/81/83 93/87/90 103/97/100
f 86/81/83 103/97/100 101/95/98
f 95/89/92 88/83/85 96/90/93
f 86/81/83 88/83/85 94/88/91
f 104/98/101 105/99/102 106/100/103
f 104/98/101 106/100/103 107/101/104
f 108/102/105 109/103/106 105/99/102
f 108/102/105 105/99/102 104/98/101
f 110/104/107 111/105/108 112/106/109
f 108/102/105 104/98/101 113/107/110
f 108/102/105 113/107/110 114/108/111
f 108/102/105 114/108/111 115/109/112
f 116/110/113 117/111/114 118/112/115
f 118/112/115 119/113/116 120/114/117
f 118/112/115 120/114/117 116/110/113
f 121/115/118 122/116/119 123/117/120
f 121/115/118 123/117/120 113/107/110
f 113/107/110 123/117/120 124/118/121
f 113/107/110 124/118/121 114/108/111
f 125/119/122 126/120/123 116/110/113
f 116/110/113 120/114/117 127/121/124
f 116/110/113 127/121/124 125/119/122
f 111/105/108 128/122/125 129/123/126
f 111/105/108 129/123/126 112/106/109
f 130/124/127 131/125/128 132/126/127
f 130/124/127 132/126/127 133/127/129
f 110/104/107 116/110/113 126/120/123
f 22/22/22 3/3/3 25/25/25
f 113/107/110 104/98/101 121/115/118
f 31/30/31 117/111/114 32/31/32
f 13/13/13 115/109/112 14/14/14
f 116/110/113 110/104/107 117/111/114
f 95/89/92 96/90/93 97/91/94
s 2
f 89/84/86 87/82/130 134/128/131
s 1
f 77/72/74 76/71/73 79/74/76
f 135/129/132 74/69/71 77/72/74
f 78/73/75 76/71/73 83/78/80
f 81/76/78 78/73/75 83/78/80
f 110/104/107 112/106/109 136/130/133
f 126/120/123 111/105/108 110/104/107
f 107/101/104 106/100/103 137/131/134
f 107/101/104 137/131/134 138/132/135
f 32/31/32 117/111/114 110/104/107
f 32/31/32 110/104/107 136/130/133
f 109/103/106 108/102/105 13/13/13
f 108/102/105 115/109/112 13/13/13
f 86/81/83 94/88/91 93/87/90
f 139/133/136 140/134/137 141/2/138
f 142/4/139 143/135/140 6/6/6
f 142/4/139 6/6/6 5/5/5
f 144/8/141 145/10/142 142/4/139
f 144/8/141 142/4/139 146/9/143
f 145/10/142 141/2/138 147/11/144
f 142/4/139 145/10/142 147/11/144
f 148/136/145 149/137/146 150/138/147
f 148/136/145 150/138/147 151/139/148
f 152/16/149 18/18/18 17/17/17
f 152/16/149 17/17/17 143/135/140
f 142/4/139 153/19/150 152/16/149
f 153/19/150 154/140/151 155/20/152
f 156/22/153 157/24/154 158/23/155
f 159/141/156 153/19/150 147/11/144
f 159/141/156 147/11/144 160/2/157
f 154/140/151 153/19/150 159/141/156
f 154/140/151 159/141/156 156/22/153
f 154/140/151 161/26/158 155/20/152
f 155/20/152 162/28/159 152/16/149
f 163/29/160 164/32/161 165/31/162
f 163/29/160 165/31/162 166/142/163
f 158/23/155 167/27/164 154/140/151
f 158/23/155 154/140/151 156/22/153
f 156/22/153 140/134/137 157/24/154
f 168/143/165 141/2/138 145/10/142
f 168/143/165 36/35/36 35/34/35
f 168/143/165 35/34/35 139/133/136
f 35/34/35 37/36/37 140/134/137
f 35/34/35 140/134/137 139/133/136
f 139/133/136 141/2/138 168/143/165
f 169/37/166 168/143/165 145/10/142
f 169/37/166 145/10/142 144/8/141
f 159/141/156 141/2/138 140/134/137
f 143/135/140 142/4/139 152/16/149
f 170/38/167 171/40/168 172/39/169
f 173/41/170 174/42/171 170/38/167
f 174/42/171 171/40/168 170/38/167
f 175/43/172 176/45/173 177/44/174
f 177/44/174 176/45/173 178/47/175
f 177/44/174 178/47/175 179/46/176
f 179/46/176 178/47/175 180/48/177
f 181/49/178 176/45/173 175/43/172
f 176/45/173 181/49/178 182/50/179
f 176/45/173 182/50/179 178/47/175
f 178/47/175 182/50/179 183/51/180
f 178/47/175 183/51/180 180/48/177
f 184/52/181 185/55/182 186/54/181
f 184/52/181 186/54/181 187/53/183
f 188/52/184 189/57/185 190/56/186
f 188/52/184 190/56/186 191/55/187
f 192/57/188 193/58/188 194/56/188
f 195/59/189 67/62/64 66/61/63
f 195/59/189 66/61/63 196/60/190
f 68/63/65 195/59/189 196/60/190
f 68/63/65 196/60/190 69/64/66
f 196/60/190 66/61/63 70/65/67
f 69/64/66 196/60/190 70/65/67
f 155/20/152 161/26/158 162/28/159
f 147/11/144 153/19/150 142/4/139
f 155/20/152 152/16/149 153/19/150
f 180/48/177 197/66/191 179/46/176
f 197/66/191 180/48/177 183/51/180
f 198/67/192 199/70/193 200/69/194
f 198/67/192 200/69/194 201/68/195
f 201/68/195 202/72/196 203/71/197
f 204/73/198 203/71/197 205/74/199
f 202/72/196 201/68/195 200/69/194
f 206/75/200 207/76/201 204/73/198
f 208/77/202 209/79/203 210/78/204
f 208/77/202 210/78/204 207/76/201
f 203/71/197 210/78/204 209/79/203
f 203/71/197 209/79/203 211/80/205
f 211/80/205 198/67/192 201/68/195
f 211/80/205 201/68/195 203/71/197
f 212/82/206 213/144/207 214/83/208
f 212/82/206 214/83/208 215/85/209
f 216/145/210 212/82/206 215/85/209
f 217/86/211 218/88/212 219/87/213
f 220/89/214 214/83/208 218/88/212
f 214/83/208 221/90/215 215/85/209
f 220/89/214 222/92/216 223/91/217
f 221/90/215 223/91/217 224/93/218
f 217/86/211 219/87/213 225/94/219
f 213/144/207 212/82/206 226/146/220
f 213/144/207 226/146/220 227/147/221
f 213/144/207 227/147/221 228/148/222
f 213/144/207 228/148/222 219/87/213
f 220/89/214 221/90/215 214/83/208
f 213/144/207 218/88/212 214/83/208
f 229/149/223 230/150/224 231/151/225
f 229/149/223 231/151/225 232/152/226
f 233/153/227 229/149/223 232/152/226
f 233/153/227 232/152/226 234/154/228
f 235/155/229 236/106/230 237/105/231
f 233/153/227 238/156/232 229/149/223
f 233/153/227 239/157/233 240/158/234
f 233/153/227 240/158/234 238/156/232
f 241/110/235 242/112/236 243/159/237
f 242/112/236 241/110/235 244/114/238
f 242/112/236 244/114/238 245/113/239
f 246/160/240 238/156/232 247/161/241
f 246/160/240 247/161/241 248/162/242
f 238/156/232 240/158/234 249/163/243
f 238/156/232 249/163/243 247/161/241
f 250/164/244 241/110/235 251/120/245
f 241/110/235 250/164/244 252/165/246
f 241/110/235 252/165/246 244/114/238
f 237/105/231 236/106/230 253/123/247
f 237/105/231 253/123/247 254/122/248
f 255/124/249 256/127/250 257/126/251
f 255/124/249 257/126/251 258/125/252
f 235/155/229 251/120/245 241/110/235
f 156/22/153 159/141/156 140/134/137
f 238/156/232 246/160/240 229/149/223
f 166/142/163 165/31/162 243/159/237
f 151/139/148 150/138/147 239/157/233
f 241/110/235 243/159/237 235/155/229
f 220/89/214 223/91/217 221/90/215
f 216/145/210 259/128/253 212/82/206
f 202/72/196 205/74/199 203/71/197
f 260/129/254 202/72/196 200/69/194
f 204/73/198 210/78/204 203/71/197
f 207/76/201 210/78/204 204/73/198
f 235/155/229 261/130/255 236/106/230
f 251/120/245 235/155/229 237/105/231
f 230/150/224 262/166/256 263/167/257
f 230/150/224 263/167/257 231/151/225
f 165/31/162 235/155/229 243/159/237
f 165/31/162 261/130/255 235/155/229
f 234/154/228 151/139/148 233/153/227
f 233/153/227 151/139/148 239/157/233
f 213/144/207 219/87/213 218/88/212
f 264/168/258 265/169/259 266/170/260
f 266/170/260 265/169/259 267/171/261
f 266/170/260 267/171/261 268/172/262
f 268/172/262 267/171/261 269/173/263
f 267/171/261 270/174/264 269/173/263
f 264/168/258 271/169/265 265/169/259
f 265/169/259 271/169/265 272/171/266
f 265/169/259 272/171/266 267/171/261
f 272/171/266 270/174/264 267/171/261
f 264/168/258 266/170/260 271/169/265
f 271/169/265 266/170/260 272/171/266
f 272/171/266 266/170/260 268/172/262
f 272/171/266 268/172/262 269/173/263
f 269/173/263 270/174/264 272/171/266
f 273/175/267 274/176/267 275/177/267
f 276/175/268 277/178/268 278/179/268
f 279/180/269 280/178/269 281/175/269
f 282/181/270 283/182/270 284/178/270
f 285/180/271 286/181/271 287/178/271
f 288/181/272 289/177/272 290/183/272
f 291/180/273 292/177/273 293/181/273
f 294/180/274 295/175/274 296/177/274
f 297/58/275 298/56/275 299/57/275
f 300/56/276 301/55/277 302/52/276
f 300/56/276 302/52/276 303/57/278
f 304/55/279 305/54/280 306/53/279
f 304/55/279 306/53/279 307/52/281
f 308/56/282 309/58/282 310/57/282
f 311/55/283 312/56/284 313/57/283
f 311/55/283 313/57/283 314/52/285
f 315/54/286 316/55/287 317/52/286
f 315/54/286 317/52/286 318/53/288
f 319/177/289 320/175/289 321/180/289
f 322/176/290 323/175/290 324/177/290
f 325/178/291 326/180/291 327/175/291
f 328/179/292 329/178/292 330/175/292
f 331/182/293 332/181/293 333/178/293
f 334/181/294 335/180/294 336/178/294
f 337/183/295 338/177/295 339/181/295
f 340/181/296 341/177/296 342/180/296
f 20/20/20 27/26/27 21/21/21
f 167/27/164 161/26/158 154/140/151
f 88/83/85 91/82/88 90/85/87
g mesh_1.002_Mesh
v 0.648460 1.096520 0.885730
v 0.880540 0.918280 0.750980
v 0.806270 0.918280 -0.679790
v 0.670740 1.041120 -0.638100
v 0.831020 0.956020 1.206750
v 0.880540 0.918280 0.750980
v 0.648460 1.096520 0.885730
v 0.831020 0.956020 1.206750
v 0.648460 1.096520 0.885730
v 0.661060 1.102140 1.703520
v 0.581560 1.263520 0.752580
v 0.648460 1.096520 0.885730
v 0.635600 0.603390 0.478160
v 0.670740 1.041120 -0.638100
v 0.540250 1.312700 -0.410570
v 0.490760 1.255520 -0.427740
v 0.603680 1.041120 -0.645450
v 0.635600 0.603390 0.478160
v 0.648460 1.096520 0.885730
v 0.670740 1.041120 -0.638100
v 0.635600 0.603390 -0.524220
v 0.490760 1.282090 -0.488340
v 0.540250 1.312700 -0.410570
v 0.670740 1.041120 -0.638100
v 0.588640 1.110380 -0.682600
v 0.000030 1.384440 -0.447160
v 0.540250 1.312700 -0.410570
v 0.490760 1.282090 -0.488340
v 0.000030 1.358780 -0.528360
v 0.000030 1.384440 -0.447160
v 0.000030 1.323520 -0.465630
v 0.490760 1.255520 -0.427740
v 0.540250 1.312700 -0.410570
v 0.988450 0.851990 1.189960
v 0.988450 0.744310 0.757310
v 0.880540 0.918280 0.750980
v 0.831020 0.956020 1.206750
v 0.588640 1.110380 -0.682600
v 0.603680 1.041120 -0.645450
v 0.490760 1.255520 -0.427740
v 0.490760 1.282090 -0.488340
v 0.490760 1.282090 -0.488340
v 0.490760 1.255520 -0.427740
v 0.000030 1.323520 -0.465630
v 0.000030 1.358780 -0.528360
v -0.849240 0.246000 -0.522240
v 0.849390 0.246000 -0.522240
v 0.929690 0.246000 0.570580
v -0.929530 0.246000 0.570580
v 0.899990 0.648670 -0.597940
v 0.849390 0.246000 -0.522240
v -0.849240 0.246000 -0.522240
v -0.899830 0.648670 -0.597940
v 0.899990 0.815110 -0.859830
v 0.899990 0.648670 -0.597940
v -0.899830 0.648670 -0.597940
v -0.899830 0.815110 -0.859830
v 0.581560 1.263520 0.752580
v -0.581480 1.263520 0.752580
v -0.583960 1.286360 0.869430
v 0.584040 1.286360 0.869430
v -0.880390 0.918280 0.750980
v -0.648340 1.096520 0.885730
v -0.670620 1.041120 -0.638100
v -0.806120 0.918280 -0.679790
v -0.648340 1.096520 0.885730
v -0.830880 0.956020 1.206750
v -0.660940 1.102140 1.703520
v -0.635480 0.603390 0.478160
v -0.648340 1.096520 0.885730
v -0.581480 1.263520 0.752580
v -0.670620 1.041120 -0.638100
v -0.603560 1.041120 -0.645450
v -0.490660 1.255520 -0.427740
v -0.540140 1.312700 -0.410570
v 0.670740 1.041120 -0.638100
v 0.588640 1.110380 -0.682600
v -0.588540 1.110380 -0.682600
v -0.670620 1.041120 -0.638100
v -0.648340 1.096520 0.885730
v -0.635480 0.603390 0.478160
v -0.635480 0.603390 -0.524220
v -0.670620 1.041120 -0.638100
v 0.635600 0.603390 -0.524220
v -0.635480 0.603390 -0.524220
v -0.635480 0.603390 0.478160
v 0.635600 0.603390 0.478160
v -0.490660 1.282090 -0.488340
v -0.588540 1.110380 -0.682600
v -0.670620 1.041120 -0.638100
v -0.540140 1.312700 -0.410570
v 0.648460 1.096520 0.885730
v 0.584040 1.286360 0.869430
v -0.583960 1.286360 0.869430
v -0.648340 1.096520 0.885730
v 0.000030 1.384440 -0.447160
v 0.000030 1.358780 -0.528360
v -0.490660 1.282090 -0.488340
v -0.540140 1.312700 -0.410570
v 0.000030 1.384440 -0.447160
v -0.540140 1.312700 -0.410570
v -0.490660 1.255520 -0.427740
v 0.000030 1.323520 -0.465630
v -0.988280 0.851990 1.189960
v -0.830880 0.956020 1.206750
v -0.880390 0.918280 0.750980
v -0.988280 0.744310 0.757310
v -0.691120 0.899160 -1.556200
v -0.806120 0.918280 -0.679790
v -0.670620 1.041120 -0.638100
v -0.470690 1.009360 -1.539110
v -0.670620 1.041120 -0.638100
v -0.588540 1.110380 -0.682600
v -0.470690 1.009360 -1.539110
v -0.588540 1.110380 -0.682600
v -0.490660 1.282090 -0.488340
v -0.490660 1.255520 -0.427740
v -0.603560 1.041120 -0.645450
v -0.490660 1.282090 -0.488340
v 0.000030 1.358780 -0.528360
v 0.000030 1.323520 -0.465630
v -0.490660 1.255520 -0.427740
v 0.929690 0.246000 0.570580
v 0.988450 0.744310 0.757310
v -0.988280 0.744310 0.757310
v -0.929530 0.246000 0.570580
v 0.988450 0.851990 1.189960
v -0.988280 0.851990 1.189960
v -0.988280 0.744310 0.757310
v 0.988450 0.744310 0.757310
v 0.648460 1.096520 0.885730
v -0.648340 1.096520 0.885730
v 0.000000 1.102140 1.769300
v 0.273300 1.118800 -0.273320
v 0.131690 1.347410 -0.347100
v 0.105150 1.305840 -0.333680
v 0.221000 1.118800 -0.273320
v -0.133760 1.305840 -0.333680
v 0.105150 1.305840 -0.333680
v 0.131690 1.347410 -0.347100
v -0.160300 1.347410 -0.347100
v -0.160300 1.347410 -0.347100
v -0.301910 1.118800 -0.273320
v -0.249620 1.118800 -0.273320
v -0.133760 1.305840 -0.333680
v -0.301910 1.118800 -0.273320
v -0.160300 0.890200 -0.199540
v -0.133760 0.931760 -0.212960
v -0.249620 1.118800 -0.273320
v 0.105150 0.931760 -0.212960
v -0.133760 0.931760 -0.212960
v -0.160300 0.890200 -0.199540
v 0.131690 0.890200 -0.199540
v 0.131690 0.890200 -0.199540
v 0.273300 1.118800 -0.273320
v 0.221000 1.118800 -0.273320
v 0.105150 0.931760 -0.212960
v -0.047070 1.156170 -0.353530
v -0.047070 1.048150 -0.318670
v 0.051230 1.102160 -0.336100
v -0.047070 1.048150 -0.318670
v 0.051230 1.102160 -0.336100
v 0.118480 0.925420 -0.181670
v 0.051230 1.102160 -0.336100
v -0.047070 1.156170 -0.353530
v 0.118480 1.335920 -0.314150
v -0.047070 1.156170 -0.353530
v -0.047070 1.048150 -0.318670
v -0.267680 1.130670 -0.247910
v -0.014310 0.774620 -1.200460
v -0.047070 1.048150 -0.318670
v -0.047070 1.156170 -0.353530
v -0.014310 0.774620 -1.200460
v -0.047070 1.156170 -0.353530
v 0.051230 1.102160 -0.336100
v -0.014310 0.774620 -1.200460
v 0.051230 1.102160 -0.336100
v -0.047070 1.048150 -0.318670
v 0.670740 1.041120 -0.638100
v 0.470780 1.009360 -1.537440
v 0.588640 1.110380 -0.682600
v 0.899990 0.648670 -1.327100
v 0.849390 0.246000 -1.419110
v 0.610850 0.245490 -1.794600
v 0.683120 0.659650 -1.715860
v 0.899990 0.789780 -1.167470
v 0.899990 0.648670 -1.327100
v 0.683120 0.659650 -1.715860
v 0.691240 0.899160 -1.556200
v 0.899990 0.815110 -0.859830
v 0.899990 0.789780 -1.167470
v 0.691240 0.899160 -1.556200
v 0.806270 0.918280 -0.679790
v 0.691240 0.899160 -1.556200
v 0.470780 1.009360 -1.537440
v 0.670740 1.041120 -0.638100
v 0.691240 0.899160 -1.556200
v 0.683120 0.659650 -1.715860
v 0.310910 0.660260 -1.806520
v 0.470780 1.009360 -1.537440
v 0.588640 1.110380 -0.682600
v 0.470780 1.009360 -1.537440
v -0.470690 1.009360 -1.539110
v -0.588540 1.110380 -0.682600
v -0.310860 0.660260 -1.806520
v 0.310910 0.660260 -1.806520
v 0.000000 0.246000 -1.875680
v -0.899830 0.648670 -1.327100
v -0.682990 0.659650 -1.715860
v -0.610740 0.245490 -1.794600
v -0.849240 0.246000 -1.419110
v -0.899830 0.789780 -1.167470
v -0.691120 0.899160 -1.556200
v -0.682990 0.659650 -1.715860
v -0.899830 0.648670 -1.327100
v -0.310860 0.660260 -1.806520
v -0.682990 0.659650 -1.715860
v -0.691120 0.899160 -1.556200
v -0.470690 1.009360 -1.539110
v -0.610740 0.245490 -1.794600
v -0.682990 0.659650 -1.715860
v -0.310860 0.660260 -1.806520
v 0.000000 0.246000 -1.875680
v -0.899830 0.815110 -0.859830
v -0.691120 0.899160 -1.556200
v -0.899830 0.789780 -1.167470
v -0.988280 0.744310 0.757310
v -0.880390 0.918280 0.750980
v -0.806120 0.918280 -0.679790
v -0.899830 0.648670 -0.597940
v -0.849240 0.246000 -0.522240
v -0.929530 0.246000 0.570580
v -0.988280 0.744310 0.757310
v -0.899830 0.648670 -0.597940
v -0.466240 0.409220 -0.510960
v -1.029250 0.579890 -0.018580
v -0.944200 0.455770 0.076500
v -0.466240 0.409220 -0.510960
v -1.114310 0.455770 -0.113670
v -1.029250 0.579890 -0.018580
v -0.466240 0.409220 -0.510960
v -1.029250 0.331640 -0.018580
v -1.114310 0.455770 -0.113670
v -0.466240 0.409220 -0.510960
v -0.944200 0.455770 0.076500
v -1.029250 0.331640 -0.018580
v -0.944200 0.455770 0.076500
v -1.029250 0.579890 -0.018580
v -1.114310 0.455770 -0.113670
v -1.029250 0.331640 -0.018580
v -0.466240 0.409220 -0.315110
v -1.029250 0.579890 0.305830
v -0.944200 0.455770 0.400910
v -0.466240 0.409220 -0.315110
v -1.114310 0.455770 0.210740
v -1.029250 0.579890 0.305830
v -0.466240 0.409220 -0.315110
v -1.029250 0.331640 0.305830
v -1.114310 0.455770 0.210740
v -0.466240 0.409220 -0.315110
v -0.944200 0.455770 0.400910
v -1.029250 0.331640 0.305830
v -0.944200 0.455770 0.400910
v -1.029250 0.579890 0.305830
v -1.114310 0.455770 0.210740
v -1.029250 0.331640 0.305830
v 0.466240 0.409220 -0.315110
v 0.944200 0.455770 0.400910
v 1.029250 0.579890 0.305830
v 0.466240 0.409220 -0.315110
v 1.029250 0.579890 0.305830
v 1.114310 0.455770 0.210740
v 0.466240 0.409220 -0.315110
v 1.114310 0.455770 0.210740
v 1.029250 0.331640 0.305830
v 0.466240 0.409220 -0.315110
v 1.029250 0.331640 0.305830
v 0.944200 0.455770 0.400910
v 0.944200 0.455770 0.400910
v 1.029250 0.331640 0.305830
v 1.114310 0.455770 0.210740
v 1.029250 0.579890 0.305830
v 0.466240 0.409220 -0.510960
v 0.944200 0.455770 0.076500
v 1.029250 0.579890 -0.018580
v 0.466240 0.409220 -0.510960
v 1.029250 0.579890 -0.018580
v 1.114310 0.455770 -0.113670
v 0.466240 0.409220 -0.510960
v 1.114310 0.455770 -0.113670
v 1.029250 0.331640 -0.018580
v 0.466240 0.409220 -0.510960
v 1.029250 0.331640 -0.018580
v 0.944200 0.455770 0.076500
v 0.944200 0.455770 0.076500
v 1.029250 0.331640 -0.018580
v 1.114310 0.455770 -0.113670
v 1.029250 0.579890 -0.018580
v -0.622570 0.246000 1.837620
v -0.438190 0.716440 1.925000
v -0.798880 0.716440 1.868800
v -0.793540 0.246000 1.820040
v -0.660940 1.102140 1.703520
v -0.438190 0.716440 1.925000
v 0.000000 1.102140 1.769300
v -0.438190 0.716440 1.925000
v -0.622570 0.246000 1.837620
v -0.561140 0.246000 1.556940
v -0.401780 0.670820 1.598950
v -0.830880 0.956020 1.206750
v -0.798880 0.716440 1.868800
v -0.660940 1.102140 1.703520
v -0.929530 0.246000 1.556940
v -0.793540 0.246000 1.820040
v -0.798880 0.716440 1.868800
v -0.988280 0.666710 1.475610
v -0.929530 0.246000 1.556940
v -0.561140 0.246000 1.556940
v -0.622570 0.246000 1.837620
v -0.793540 0.246000 1.820040
v 0.622680 0.246000 1.837620
v 0.793680 0.246000 1.820040
v 0.799010 0.716440 1.868800
v 0.438260 0.716440 1.925000
v 0.401840 0.670820 1.598950
v 0.438260 0.716440 1.925000
v -0.438190 0.716440 1.925000
v -0.401780 0.670820 1.598950
v 0.438260 0.716440 1.925000
v 0.401840 0.670820 1.598950
v 0.561230 0.246000 1.556940
v 0.622680 0.246000 1.837620
v 0.988450 0.666710 1.475610
v 0.988450 0.851990 1.189960
v 0.831020 0.956020 1.206750
v 0.799010 0.716440 1.868800
v 0.929690 0.246000 1.556940
v 0.988450 0.666710 1.475610
v 0.799010 0.716440 1.868800
v 0.793680 0.246000 1.820040
v 0.661060 1.102140 1.703520
v 0.000000 1.102140 1.769300
v 0.438260 0.716440 1.925000
v 0.929690 0.246000 1.556940
v 0.793680 0.246000 1.820040
v 0.622680 0.246000 1.837620
v 0.561230 0.246000 1.556940
v 0.899990 0.648670 -1.327100
v 0.899990 0.789780 -1.167470
v -0.899830 0.789780 -1.167470
v -0.899830 0.648670 -1.327100
v 0.899990 0.789780 -1.167470
v 0.899990 0.815110 -0.859830
v -0.899830 0.815110 -0.859830
v -0.899830 0.789780 -1.167470
v 0.610850 0.245490 -1.794600
v 0.000000 0.246000 -1.875680
v 0.310910 0.660260 -1.806520
v 0.683120 0.659650 -1.715860
v 0.899990 0.648670 -1.327100
v -0.899830 0.648670 -1.327100
v -0.849240 0.246000 -1.419110
v 0.849390 0.246000 -1.419110
v 0.849390 0.246000 -1.419110
v -0.849240 0.246000 -1.419110
v -0.610740 0.245490 -1.794600
v 0.610850 0.245490 -1.794600
v 0.610850 0.245490 -1.794600
v -0.610740 0.245490 -1.794600
v 0.000000 0.246000 -1.875680
v 0.470780 1.009360 -1.537440
v 0.310910 0.660260 -1.806520
v -0.310860 0.660260 -1.806520
v -0.470690 1.009360 -1.539110
v -0.401780 0.670820 1.598950
v -0.561140 0.246000 1.556940
v 0.561230 0.246000 1.556940
v 0.401840 0.670820 1.598950
v 0.579780 1.017120 1.925900
v 0.567220 1.063300 1.890860
v 0.492000 1.077970 2.090940
v 0.579780 1.017120 1.925900
v 0.652900 0.954300 1.706920
v 0.567220 1.063300 1.890860
v 0.567220 1.063300 1.890860
v 0.652900 0.954300 1.706920
v 0.609340 1.083780 1.629130
v 0.609340 1.083780 1.629130
v -0.609340 1.083780 1.629130
v -0.567220 1.063300 1.890860
v 0.567220 1.063300 1.890860
v 0.492000 1.077970 2.090940
v -0.492000 1.077970 2.090940
v -0.579780 1.017120 1.925900
v 0.579780 1.017120 1.925900
v -0.579780 1.017120 1.925900
v -0.492000 1.077970 2.090940
v -0.567220 1.063300 1.890860
v -0.579780 1.017120 1.925900
v -0.567220 1.063300 1.890860
v -0.652900 0.954300 1.706920
v -0.567220 1.063300 1.890860
v -0.609340 1.083780 1.629130
v -0.652900 0.954300 1.706920
v 0.492000 1.077970 2.090940
v 0.567220 1.063300 1.890860
v -0.567220 1.063300 1.890860
v -0.492000 1.077970 2.090940
v 0.579780 1.017120 1.925900
v -0.579780 1.017120 1.925900
v -0.652900 0.954300 1.706920
v 0.652900 0.954300 1.706920
v 0.160390 1.316100 0.940760
v 0.148540 1.336200 1.040030
v -0.148740 1.336200 1.040030
v -0.160590 1.316100 0.940760
v 0.148540 1.336200 1.040030
v 0.160390 1.316100 0.940760
v 0.298610 1.043960 1.093520
v 0.250530 1.094250 1.200700
v -0.160590 1.316100 0.940760
v -0.148740 1.336200 1.040030
v -0.250720 1.094280 1.200690
v -0.298800 1.043980 1.093510
v -0.407250 1.087850 1.146740
v -0.192770 1.405970 0.955370
v -0.160590 1.316100 0.940760
v -0.298800 1.043980 1.093510
v -0.346880 1.089280 1.240620
v -0.172440 1.399460 1.036070
v -0.192770 1.405970 0.955370
v -0.407250 1.087850 1.146740
v -0.148740 1.336200 1.040030
v -0.172440 1.399460 1.036070
v -0.346880 1.089280 1.240620
v -0.250720 1.094280 1.200690
v -0.192770 1.405970 0.955370
v 0.192570 1.405970 0.955370
v 0.160390 1.316100 0.940760
v -0.160590 1.316100 0.940760
v -0.172440 1.399460 1.036070
v 0.172240 1.399460 1.036070
v 0.192570 1.405970 0.955370
v -0.192770 1.405970 0.955370
v 0.148540 1.336200 1.040030
v 0.172240 1.399460 1.036070
v -0.172440 1.399460 1.036070
v -0.148740 1.336200 1.040030
v 0.346700 1.089260 1.240630
v 0.172240 1.399460 1.036070
v 0.148540 1.336200 1.040030
v 0.250530 1.094250 1.200700
v 0.407060 1.087820 1.146750
v 0.192570 1.405970 0.955370
v 0.172240 1.399460 1.036070
v 0.346700 1.089260 1.240630
v 0.298610 1.043960 1.093520
v 0.160390 1.316100 0.940760
v 0.192570 1.405970 0.955370
v 0.407060 1.087820 1.146750
v -0.531510 0.280930 1.556940
v -0.710720 0.891480 1.432780
v -0.710720 0.838300 -1.283050
v -0.531510 0.280930 -1.419110
v 0.531510 0.280930 1.556940
v 0.531510 0.280930 -1.419110
v 0.710720 0.838300 -1.283050
v 0.710720 0.891480 1.432780
v -0.531510 0.280930 1.556940
v -0.710720 0.891480 1.432780
v -0.710720 0.838300 -1.283050
v -0.531510 0.280930 -1.419110
v -0.531510 0.280930 1.556940
v -0.531510 0.280930 -1.419110
v 0.531510 0.280930 -1.419110
v 0.531510 0.280930 1.556940
v 0.988450 0.666710 1.475610
v -0.988280 0.666710 1.475610
v -0.988280 0.851990 1.189960
v 0.988450 0.851990 1.189960
v -0.929530 0.246000 1.556940
v -0.988280 0.666710 1.475610
v 0.988450 0.666710 1.475610
v 0.929690 0.246000 1.556940
v 0.000000 1.102140 1.769300
v -0.438190 0.716440 1.925000
v 0.438260 0.716440 1.925000
v 0.581560 1.263520 0.752580
v 0.584040 1.286360 0.869430
v 0.648460 1.096520 0.885730
v 0.581560 1.263520 0.752580
v 0.635600 0.603390 0.478160
v -0.635480 0.603390 0.478160
v -0.581480 1.263520 0.752580
v -0.581480 1.263520 0.752580
v -0.648340 1.096520 0.885730
v -0.583960 1.286360 0.869430
v 0.000000 1.102140 1.769300
v -0.648340 1.096520 0.885730
v -0.660940 1.102140 1.703520
v 0.648460 1.096520 0.885730
v 0.000000 1.102140 1.769300
v 0.661060 1.102140 1.703520
v 0.880540 0.918280 0.750980
v 0.988450 0.744310 0.757310
v 0.899990 0.648670 -0.597940
v 0.806270 0.918280 -0.679790
v 0.806270 0.918280 -0.679790
v 0.899990 0.648670 -0.597940
v 0.899990 0.815110 -0.859830
v -0.899830 0.648670 -0.597940
v -0.806120 0.918280 -0.679790
v -0.899830 0.815110 -0.859830
v 0.899990 0.648670 -0.597940
v 0.988450 0.744310 0.757310
v 0.929690 0.246000 0.570580
v 0.849390 0.246000 -0.522240
v -0.899830 0.815110 -0.859830
v -0.806120 0.918280 -0.679790
v -0.691120 0.899160 -1.556200
v 0.899990 0.815110 -0.859830
v 0.691240 0.899160 -1.556200
v 0.806270 0.918280 -0.679790
v -0.830880 0.956020 1.206750
v -0.648340 1.096520 0.885730
v -0.880390 0.918280 0.750980
v 0.799010 0.716440 1.868800
v 0.831020 0.956020 1.206750
v 0.661060 1.102140 1.703520
v -0.988280 0.666710 1.475610
v -0.798880 0.716440 1.868800
v -0.830880 0.956020 1.206750
v -0.988280 0.851990 1.189960
v 0.061900 0.574800 1.558370
v 0.061900 0.381420 1.558370
v 0.061900 0.381420 1.975460
v 0.061900 0.574800 1.975460
v 0.061900 0.381420 1.558370
v 0.229380 0.284720 1.558370
v 0.229380 0.284720 1.975460
v 0.061900 0.381420 1.975460
v 0.229380 0.284720 1.558370
v 0.396850 0.381420 1.558370
v 0.396850 0.381420 1.975460
v 0.229380 0.284720 1.975460
v 0.396850 0.381420 1.558370
v 0.396850 0.574800 1.558370
v 0.396850 0.574800 1.975460
v 0.396850 0.381420 1.975460
v 0.396850 0.574800 1.558370
v 0.229380 0.671490 1.558370
v 0.229380 0.671490 1.975460
v 0.396850 0.574800 1.975460
v 0.229380 0.671490 1.558370
v 0.061900 0.574800 1.558370
v 0.061900 0.574800 1.975460
v 0.229380 0.671490 1.975460
v 0.229380 0.284720 1.975460
v 0.396850 0.381420 1.975460
v 0.396850 0.574800 1.975460
v 0.229380 0.671490 1.975460
v 0.229380 0.284720 1.975460
v 0.229380 0.671490 1.975460
v 0.061900 0.574800 1.975460
v 0.061900 0.381420 1.975460
v -0.396850 0.574800 1.558370
v -0.396850 0.381420 1.558370
v -0.396850 0.381420 1.975460
v -0.396850 0.574800 1.975460
v -0.396850 0.381420 1.558370
v -0.229380 0.284720 1.558370
v -0.229380 0.284720 1.975460
v -0.396850 0.381420 1.975460
v -0.229380 0.284720 1.558370
v -0.061900 0.381420 1.558370
v -0.061900 0.381420 1.975460
v -0.229380 0.284720 1.975460
v -0.061900 0.381420 1.558370
v -0.061900 0.574800 1.558370
v -0.061900 0.574800 1.975460
v -0.061900 0.381420 1.975460
v -0.061900 0.574800 1.558370
v -0.229380 0.671490 1.558370
v -0.229380 0.671490 1.975460
v -0.061900 0.574800 1.975460
v -0.229380 0.671490 1.558370
v -0.396850 0.574800 1.558370
v -0.396850 0.574800 1.975460
v -0.229380 0.671490 1.975460
v -0.229380 0.284720 1.975460
v -0.061900 0.381420 1.975460
v -0.061900 0.574800 1.975460
v -0.229380 0.671490 1.975460
v -0.229380 0.284720 1.975460
v -0.229380 0.671490 1.975460
v -0.396850 0.574800 1.975460
v -0.396850 0.381420 1.975460
v 0.063470 0.762920 -1.430490
v 0.063470 0.924220 -1.430490
v 0.063470 0.924220 -1.778400
v 0.063470 0.762920 -1.778400
v 0.063470 0.924220 -1.430490
v 0.203160 1.004880 -1.430490
v 0.203160 1.004880 -1.778400
v 0.063470 0.924220 -1.778400
v 0.203160 1.004880 -1.430490
v 0.342860 0.924220 -1.430490
v 0.342860 0.924220 -1.778400
v 0.203160 1.004880 -1.778400
v 0.342860 0.924220 -1.430490
v 0.342860 0.762920 -1.430490
v 0.342860 0.762920 -1.778400
v 0.342860 0.924220 -1.778400
v 0.342860 0.762920 -1.430490
v 0.203160 0.682260 -1.430490
v 0.203160 0.682260 -1.778400
v 0.342860 0.762920 -1.778400
v 0.203160 0.682260 -1.430490
v 0.063470 0.762920 -1.430490
v 0.063470 0.762920 -1.778400
v 0.203160 0.682260 -1.778400
v 0.203160 1.004880 -1.778400
v 0.342860 0.924220 -1.778400
v 0.342860 0.762920 -1.778400
v 0.203160 0.682260 -1.778400
v 0.203160 1.004880 -1.778400
v 0.203160 0.682260 -1.778400
v 0.063470 0.762920 -1.778400
v 0.063470 0.924220 -1.778400
v -0.342860 0.762920 -1.430490
v -0.342860 0.924220 -1.430490
v -0.342860 0.924220 -1.778400
v -0.342860 0.762920 -1.778400
v -0.342860 0.924220 -1.430490
v -0.203160 1.004880 -1.430490
v -0.203160 1.004880 -1.778400
v -0.342860 0.924220 -1.778400
v -0.203160 1.004880 -1.430490
v -0.063470 0.924220 -1.430490
v -0.063470 0.924220 -1.778400
v -0.203160 1.004880 -1.778400
v -0.063470 0.924220 -1.430490
v -0.063470 0.762920 -1.430490
v -0.063470 0.762920 -1.778400
v -0.063470 0.924220 -1.778400
v -0.063470 0.762920 -1.430490
v -0.203160 0.682260 -1.430490
v -0.203160 0.682260 -1.778400
v -0.063470 0.762920 -1.778400
v -0.203160 0.682260 -1.430490
v -0.342860 0.762920 -1.430490
v -0.342860 0.762920 -1.778400
v -0.203160 0.682260 -1.778400
v -0.203160 1.004880 -1.778400
v -0.063470 0.924220 -1.778400
v -0.063470 0.762920 -1.778400
v -0.203160 0.682260 -1.778400
v -0.203160 1.004880 -1.778400
v -0.203160 0.682260 -1.778400
v -0.342860 0.762920 -1.778400
v -0.342860 0.924220 -1.778400
v 0.670740 1.041120 -0.638100
v -0.670620 1.041120 -0.638100
v -0.635480 0.603390 -0.524220
v 0.635600 0.603390 -0.524220
v 0.661060 1.102140 1.703520
v 0.438260 0.716440 1.925000
v 0.799010 0.716440 1.868800
v -0.660940 1.102140 1.703520
v -0.798880 0.716440 1.868800
v -0.438190 0.716440 1.925000
v -1.245180 0.671860 1.334100
v -1.245180 0.438920 1.468580
v -0.720900 0.438920 1.468580
v -0.720900 0.671860 1.334100
v -1.245180 0.438920 1.468580
v -1.245180 0.174030 1.421880
v -0.720900 0.174030 1.421880
v -0.720900 0.438920 1.468580
v -1.245180 0.174030 1.421880
v -1.245180 0.001140 1.215830
v -0.720900 0.001140 1.215830
v -0.720900 0.174030 1.421880
v -1.245180 0.001140 1.215830
v -1.245180 0.001140 0.946860
v -0.720900 0.001140 0.946860
v -0.720900 0.001140 1.215830
v -1.245180 0.001140 0.946860
v -1.245180 0.174030 0.740810
v -0.720900 0.174030 0.740810
v -0.720900 0.001140 0.946860
v -1.245180 0.174030 0.740810
v -1.245180 0.438920 0.694100
v -0.720900 0.438920 0.694100
v -0.720900 0.174030 0.740810
v -1.245180 0.438920 0.694100
v -1.245180 0.671860 0.828590
v -0.720900 0.671860 0.828590
v -0.720900 0.438920 0.694100
v -1.245180 0.671860 0.828590
v -1.245180 0.763850 1.081340
v -0.720900 0.763850 1.081340
v -0.720900 0.671860 0.828590
v -1.245180 0.763850 1.081340
v -1.245180 0.671860 1.334100
v -0.720900 0.671860 1.334100
v -0.720900 0.763850 1.081340
v -1.245180 0.438920 1.468580
v -1.245180 0.671860 1.334100
v -1.245180 0.370640 1.081340
v -1.245180 0.174030 1.421880
v -1.245180 0.438920 1.468580
v -1.245180 0.370640 1.081340
v -1.245180 0.001140 1.215830
v -1.245180 0.174030 1.421880
v -1.245180 0.370640 1.081340
v -1.245180 0.001140 0.946860
v -1.245180 0.001140 1.215830
v -1.245180 0.370640 1.081340
v -1.245180 0.174030 0.740810
v -1.245180 0.001140 0.946860
v -1.245180 0.370640 1.081340
v -1.245180 0.438920 0.694100
v -1.245180 0.174030 0.740810
v -1.245180 0.370640 1.081340
v -1.245180 0.671860 0.828590
v -1.245180 0.438920 0.694100
v -1.245180 0.370640 1.081340
v -1.245180 0.763850 1.081340
v -1.245180 0.671860 0.828590
v -1.245180 0.370640 1.081340
v -1.245180 0.671860 1.334100
v -1.245180 0.763850 1.081340
v -1.245180 0.370640 1.081340
v -0.720900 0.671860 1.334100
v -0.720900 0.438920 1.468580
v -0.720900 0.370640 1.081340
v -0.720900 0.438920 1.468580
v -0.720900 0.174030 1.421880
v -0.720900 0.370640 1.081340
v -0.720900 0.174030 1.421880
v -0.720900 0.001140 1.215830
v -0.720900 0.370640 1.081340
v -0.720900 0.001140 1.215830
v -0.720900 0.001140 0.946860
v -0.720900 0.370640 1.081340
v -0.720900 0.001140 0.946860
v -0.720900 0.174030 0.740810
v -0.720900 0.370640 1.081340
v -0.720900 0.174030 0.740810
v -0.720900 0.438920 0.694100
v -0.720900 0.370640 1.081340
v -0.720900 0.438920 0.694100
v -0.720900 0.671860 0.828590
v -0.720900 0.370640 1.081340
v -0.720900 0.671860 0.828590
v -0.720900 0.763850 1.081340
v -0.720900 0.370640 1.081340
v -0.720900 0.763850 1.081340
v -0.720900 0.671860 1.334100
v -0.720900 0.370640 1.081340
v 0.720900 0.671860 1.334100
v 0.720900 0.438920 1.468580
v 1.245180 0.438920 1.468580
v 1.245180 0.671860 1.334100
v 0.720900 0.438920 1.468580
v 0.720900 0.174030 1.421880
v 1.245180 0.174030 1.421880
v 1.245180 0.438920 1.468580
v 0.720900 0.174030 1.421880
v 0.720900 0.001140 1.215830
v 1.245180 0.001140 1.215830
v 1.245180 0.174030 1.421880
v 0.720900 0.001140 1.215830
v 0.720900 0.001140 0.946860
v 1.245180 0.001140 0.946860
v 1.245180 0.001140 1.215830
v 0.720900 0.001140 0.946860
v 0.720900 0.174030 0.740810
v 1.245180 0.174030 0.740810
v 1.245180 0.001140 0.946860
v 0.720900 0.174030 0.740810
v 0.720900 0.438920 0.694100
v 1.245180 0.438920 0.694100
v 1.245180 0.174030 0.740810
v 0.720900 0.438920 0.694100
v 0.720900 0.671860 0.828590
v 1.245180 0.671860 0.828590
v 1.245180 0.438920 0.694100
v 0.720900 0.671860 0.828590
v 0.720900 0.763850 1.081340
v 1.245180 0.763850 1.081340
v 1.245180 0.671860 0.828590
v 0.720900 0.763850 1.081340
v 0.720900 0.671860 1.334100
v 1.245180 0.671860 1.334100
v 1.245180 0.763850 1.081340
v 0.720900 0.438920 1.468580
v 0.720900 0.671860 1.334100
v 0.720900 0.370640 1.081340
v 0.720900 0.174030 1.421880
v 0.720900 0.438920 1.468580
v 0.720900 0.370640 1.081340
v 0.720900 0.001140 1.215830
v 0.720900 0.174030 1.421880
v 0.720900 0.370640 1.081340
v 0.720900 0.001140 0.946860
v 0.720900 0.001140 1.215830
v 0.720900 0.370640 1.081340
v 0.720900 0.174030 0.740810
v 0.720900 0.001140 0.946860
v 0.720900 0.370640 1.081340
v 0.720900 0.438920 0.694100
v 0.720900 0.174030 0.740810
v 0.720900 0.370640 1.081340
v 0.720900 0.671860 0.828590
v 0.720900 0.438920 0.694100
v 0.720900 0.370640 1.081340
v 0.720900 0.763850 1.081340
v 0.720900 0.671860 0.828590
v 0.720900 0.370640 1.081340
v 0.720900 0.671860 1.334100
v 0.720900 0.763850 1.081340
v 0.720900 0.370640 1.081340
v 1.245180 0.671860 1.334100
v 1.245180 0.438920 1.468580
v 1.245180 0.370640 1.081340
v 1.245180 0.438920 1.468580
v 1.245180 0.174030 1.421880
v 1.245180 0.370640 1.081340
v 1.245180 0.174030 1.421880
v 1.245180 0.001140 1.215830
v 1.245180 0.370640 1.081340
v 1.245180 0.001140 1.215830
v 1.245180 0.001140 0.946860
v 1.245180 0.370640 1.081340
v 1.245180 0.001140 0.946860
v 1.245180 0.174030 0.740810
v 1.245180 0.370640 1.081340
v 1.245180 0.174030 0.740810
v 1.245180 0.438920 0.694100
v 1.245180 0.370640 1.081340
v 1.245180 0.438920 0.694100
v 1.245180 0.671860 0.828590
v 1.245180 0.370640 1.081340
v 1.245180 0.671860 0.828590
v 1.245180 0.763850 1.081340
v 1.245180 0.370640 1.081340
v 1.245180 0.763850 1.081340
v 1.245180 0.671860 1.334100
v 1.245180 0.370640 1.081340
v -1.179650 0.671860 -0.730280
v -1.179650 0.438920 -0.595800
v -0.655360 0.438920 -0.595800
v -0.655360 0.671860 -0.730280
v -1.179650 0.438920 -0.595800
v -1.179650 0.174030 -0.642500
v -0.655360 0.174030 -0.642500
v -0.655360 0.438920 -0.595800
v -1.179650 0.174030 -0.642500
v -1.179650 0.001140 -0.848550
v -0.655360 0.001140 -0.848550
v -0.655360 0.174030 -0.642500
v -1.179650 0.001140 -0.848550
v -1.179650 0.001140 -1.117530
v -0.655360 0.001140 -1.117530
v -0.655360 0.001140 -0.848550
v -1.179650 0.001140 -1.117530
v -1.179650 0.174030 -1.323580
v -0.655360 0.174030 -1.323580
v -0.655360 0.001140 -1.117530
v -1.179650 0.174030 -1.323580
v -1.179650 0.438920 -1.370280
v -0.655360 0.438920 -1.370280
v -0.655360 0.174030 -1.323580
v -1.179650 0.438920 -1.370280
v -1.179650 0.671860 -1.235800
v -0.655360 0.671860 -1.235800
v -0.655360 0.438920 -1.370280
v -1.179650 0.671860 -1.235800
v -1.179650 0.763850 -0.983040
v -0.655360 0.763850 -0.983040
v -0.655360 0.671860 -1.235800
v -1.179650 0.763850 -0.983040
v -1.179650 0.671860 -0.730280
v -0.655360 0.671860 -0.730280
v -0.655360 0.763850 -0.983040
v -1.179650 0.438920 -0.595800
v -1.179650 0.671860 -0.730280
v -1.179650 0.370640 -0.983040
v -1.179650 0.174030 -0.642500
v -1.179650 0.438920 -0.595800
v -1.179650 0.370640 -0.983040
v -1.179650 0.001140 -0.848550
v -1.179650 0.174030 -0.642500
v -1.179650 0.370640 -0.983040
v -1.179650 0.001140 -1.117530
v -1.179650 0.001140 -0.848550
v -1.179650 0.370640 -0.983040
v -1.179650 0.174030 -1.323580
v -1.179650 0.001140 -1.117530
v -1.179650 0.370640 -0.983040
v -1.179650 0.438920 -1.370280
v -1.179650 0.174030 -1.323580
v -1.179650 0.370640 -0.983040
v -1.179650 0.671860 -1.235800
v -1.179650 0.438920 -1.370280
v -1.179650 0.370640 -0.983040
v -1.179650 0.763850 -0.983040
v -1.179650 0.671860 -1.235800
v -1.179650 0.370640 -0.983040
v -1.179650 0.671860 -0.730280
v -1.179650 0.763850 -0.983040
v -1.179650 0.370640 -0.983040
v -0.655360 0.671860 -0.730280
v -0.655360 0.438920 -0.595800
v -0.655360 0.370640 -0.983040
v -0.655360 0.438920 -0.595800
v -0.655360 0.174030 -0.642500
v -0.655360 0.370640 -0.983040
v -0.655360 0.174030 -0.642500
v -0.655360 0.001140 -0.848550
v -0.655360 0.370640 -0.983040
v -0.655360 0.001140 -0.848550
v -0.655360 0.001140 -1.117530
v -0.655360 0.370640 -0.983040
v -0.655360 0.001140 -1.117530
v -0.655360 0.174030 -1.323580
v -0.655360 0.370640 -0.983040
v -0.655360 0.174030 -1.323580
v -0.655360 0.438920 -1.370280
v -0.655360 0.370640 -0.983040
v -0.655360 0.438920 -1.370280
v -0.655360 0.671860 -1.235800
v -0.655360 0.370640 -0.983040
v -0.655360 0.671860 -1.235800
v -0.655360 0.763850 -0.983040
v -0.655360 0.370640 -0.983040
v -0.655360 0.763850 -0.983040
v -0.655360 0.671860 -0.730280
v -0.655360 0.370640 -0.983040
v 0.655360 0.671860 -0.730280
v 0.655360 0.438920 -0.595800
v 1.179650 0.438920 -0.595800
v 1.179650 0.671860 -0.730280
v 0.655360 0.438920 -0.595800
v 0.655360 0.174030 -0.642500
v 1.179650 0.174030 -0.642500
v 1.179650 0.438920 -0.595800
v 0.655360 0.174030 -0.642500
v 0.655360 0.001140 -0.848550
v 1.179650 0.001140 -0.848550
v 1.179650 0.174030 -0.642500
v 0.655360 0.001140 -0.848550
v 0.655360 0.001140 -1.117530
v 1.179650 0.001140 -1.117530
v 1.179650 0.001140 -0.848550
v 0.655360 0.001140 -1.117530
v 0.655360 0.174030 -1.323580
v 1.179650 0.174030 -1.323580
v 1.179650 0.001140 -1.117530
v 0.655360 0.174030 -1.323580
v 0.655360 0.438920 -1.370280
v 1.179650 0.438920 -1.370280
v 1.179650 0.174030 -1.323580
v 0.655360 0.438920 -1.370280
v 0.655360 0.671860 -1.235800
v 1.179650 0.671860 -1.235800
v 1.179650 0.438920 -1.370280
v 0.655360 0.671860 -1.235800
v 0.655360 0.763850 -0.983040
v 1.179650 0.763850 -0.983040
v 1.179650 0.671860 -1.235800
v 0.655360 0.763850 -0.983040
v 0.655360 0.671860 -0.730280
v 1.179650 0.671860 -0.730280
v 1.179650 0.763850 -0.983040
v 0.655360 0.438920 -0.595800
v 0.655360 0.671860 -0.730280
v 0.655360 0.370640 -0.983040
v 0.655360 0.174030 -0.642500
v 0.655360 0.438920 -0.595800
v 0.655360 0.370640 -0.983040
v 0.655360 0.001140 -0.848550
v 0.655360 0.174030 -0.642500
v 0.655360 0.370640 -0.983040
v 0.655360 0.001140 -1.117530
v 0.655360 0.001140 -0.848550
v 0.655360 0.370640 -0.983040
v 0.655360 0.174030 -1.323580
v 0.655360 0.001140 -1.117530
v 0.655360 0.370640 -0.983040
v 0.655360 0.438920 -1.370280
v 0.655360 0.174030 -1.323580
v 0.655360 0.370640 -0.983040
v 0.655360 0.671860 -1.235800
v 0.655360 0.438920 -1.370280
v 0.655360 0.370640 -0.983040
v 0.655360 0.763850 -0.983040
v 0.655360 0.671860 -1.235800
v 0.655360 0.370640 -0.983040
v 0.655360 0.671860 -0.730280
v 0.655360 0.763850 -0.983040
v 0.655360 0.370640 -0.983040
v 1.179650 0.671860 -0.730280
v 1.179650 0.438920 -0.595800
v 1.179650 0.370640 -0.983040
v 1.179650 0.438920 -0.595800
v 1.179650 0.174030 -0.642500
v 1.179650 0.370640 -0.983040
v 1.179650 0.174030 -0.642500
v 1.179650 0.001140 -0.848550
v 1.179650 0.370640 -0.983040
v 1.179650 0.001140 -0.848550
v 1.179650 0.001140 -1.117530
v 1.179650 0.370640 -0.983040
v 1.179650 0.001140 -1.117530
v 1.179650 0.174030 -1.323580
v 1.179650 0.370640 -0.983040
v 1.179650 0.174030 -1.323580
v 1.179650 0.438920 -1.370280
v 1.179650 0.370640 -0.983040
v 1.179650 0.438920 -1.370280
v 1.179650 0.671860 -1.235800
v 1.179650 0.370640 -0.983040
v 1.179650 0.671860 -1.235800
v 1.179650 0.763850 -0.983040
v 1.179650 0.370640 -0.983040
v 1.179650 0.763850 -0.983040
v 1.179650 0.671860 -0.730280
v 1.179650 0.370640 -0.983040
vn 0.6337 0.7732 -0.0242
vn 0.5974 0.8013 -0.0310
vn 0.6685 0.7435 -0.0173
vn 0.6093 0.7929 0.0005
vn 0.6263 0.7795 -0.0150
vn 0.9511 0.1817 -0.2499
vn 0.1252 -0.6393 0.7587
vn 0.3180 -0.5144 0.7964
vn 0.1251 -0.6393 0.7587
vn -0.0745 -0.7296 0.6798
vn -0.9982 0.0597 -0.0080
vn -0.9991 0.0393 -0.0160
vn -0.9968 0.0800 -0.0000
vn 0.5896 0.6955 -0.4106
vn 0.4562 0.6900 -0.5619
vn 0.5897 0.6955 -0.4105
vn 0.6990 0.6728 -0.2425
vn 0.1597 0.9150 -0.3706
vn 0.1474 0.8848 -0.4421
vn 0.1710 0.9395 -0.2969
vn -0.1037 -0.2498 0.9627
vn -0.1134 -0.2883 0.9508
vn -0.0939 -0.2109 0.9730
vn 0.7159 0.6946 -0.0711
vn 0.8448 0.5193 -0.1292
vn 0.5506 0.8347 -0.0093
vn -0.9294 -0.3275 -0.1704
vn -0.9346 -0.3029 -0.1864
vn -0.9293 -0.3275 -0.1704
vn -0.9233 -0.3518 -0.1542
vn -0.0958 -0.8908 -0.4443
vn -0.0955 -0.9117 -0.3997
vn -0.0958 -0.8677 -0.4877
vn -0.0000 -1.0000 -0.0000
vn -0.0000 -0.1848 -0.9828
vn -0.0000 -0.8440 -0.5364
vn -0.0000 0.9814 -0.1918
vn -0.6341 0.7728 -0.0274
vn -0.6016 0.7985 -0.0202
vn -0.6654 0.7457 -0.0345
vn -0.6263 0.7794 -0.0150
vn -0.9511 0.1816 -0.2498
vn -0.1252 -0.6393 0.7587
vn 0.0745 -0.7296 0.6798
vn -0.3181 -0.5144 0.7964
vn -0.0000 0.5406 0.8413
vn -0.0000 0.5405 0.8413
vn 0.9987 0.0508 -0.0087
vn 0.9997 0.0261 -0.0000
vn 0.9970 0.0755 -0.0173
vn -0.0000 1.0000 -0.0000
vn -0.5897 0.6955 -0.4105
vn -0.6991 0.6727 -0.2424
vn -0.4563 0.6900 -0.5619
vn -0.0000 0.0855 0.9963
vn -0.1597 0.9150 -0.3706
vn -0.1710 0.9395 -0.2969
vn -0.1475 0.8848 -0.4421
vn 0.1037 -0.2498 0.9627
vn 0.0939 -0.2109 0.9730
vn 0.1134 -0.2883 0.9508
vn -0.7159 0.6946 -0.0711
vn -0.5507 0.8347 -0.0093
vn -0.8448 0.5192 -0.1292
vn -0.5477 0.8286 -0.1159
vn -0.6508 0.7524 -0.1018
vn -0.4355 0.8910 -0.1280
vn -0.6891 0.7025 -0.1777
vn 0.9294 -0.3274 -0.1705
vn 0.9233 -0.3518 -0.1542
vn 0.9346 -0.3027 -0.1865
vn 0.0958 -0.8908 -0.4443
vn 0.0958 -0.8677 -0.4877
vn 0.0955 -0.9117 -0.3997
vn -0.0000 -0.3509 0.9364
vn -0.0000 -0.9704 0.2415
vn -0.0000 1.0000 -0.0064
vn -0.0000 0.3071 0.9517
vn 0.0001 0.3072 0.9517
vn -0.0000 0.3072 0.9516
vn -0.0001 0.3072 0.9517
vn 0.0001 0.3072 0.9516
vn -0.0000 0.3073 0.9516
vn -0.0001 0.3072 0.9516
vn -0.0000 0.3072 0.9517
vn 0.1939 -0.6026 -0.7741
vn 0.1938 0.0363 -0.9804
vn -0.3873 -0.2831 -0.8774
vn -0.9994 -0.0109 -0.0337
vn 0.4984 0.7975 -0.3400
vn 0.5000 -0.8217 0.2735
vn 0.6891 0.7025 -0.1780
vn 0.8585 -0.0214 -0.5124
vn 0.8440 0.0165 -0.5362
vn 0.8585 -0.0215 -0.5124
vn 0.8711 -0.0593 -0.4876
vn 0.8351 0.3602 -0.4157
vn 0.7747 0.4738 -0.4188
vn 0.8817 0.2406 -0.4058
vn 0.5595 0.8260 -0.0680
vn 0.5413 0.8317 -0.1234
vn 0.4405 0.8944 -0.0773
vn 0.6333 0.7556 -0.1675
vn 0.2000 0.5390 -0.8182
vn 0.2002 0.5387 -0.8183
vn 0.2000 0.5389 -0.8183
vn 0.1999 0.5391 -0.8182
vn 0.0001 0.9931 -0.1173
vn 0.0002 0.9931 -0.1174
vn 0.0001 0.9931 -0.1172
vn -0.0000 0.9931 -0.1171
vn -0.0000 0.1647 -0.9863
vn -0.8585 -0.0214 -0.5124
vn -0.8711 -0.0593 -0.4875
vn -0.8440 0.0165 -0.5361
vn -0.8352 0.3601 -0.4157
vn -0.8818 0.2405 -0.4057
vn -0.7748 0.4737 -0.4188
vn -0.2019 0.5369 -0.8191
vn -0.2003 0.5387 -0.8183
vn -0.2020 0.5368 -0.8192
vn -0.2038 0.5348 -0.8200
vn -0.1833 0.1044 -0.9775
vn -0.2345 0.1419 -0.9617
vn -0.1833 0.1045 -0.9775
vn -0.1314 0.0666 -0.9891
vn -0.5596 0.8260 -0.0680
vn -0.9061 0.4181 -0.0642
vn -0.8497 0.5254 -0.0441
vn -0.9489 0.3045 -0.0834
vn -0.9916 -0.1123 -0.0640
vn -0.9933 -0.0898 -0.0730
vn -0.9916 -0.1122 -0.0640
vn -0.9894 -0.1347 -0.0551
vn 0.5741 0.7082 0.4110
vn -0.3323 0.7065 -0.6249
vn -0.4023 -0.7143 -0.5726
vn 0.5134 -0.7151 0.4744
vn -0.7453 -0.0000 0.6667
vn 0.6141 0.7000 0.3644
vn -0.4089 0.7148 -0.5673
vn -0.4697 -0.7167 -0.5154
vn 0.5637 -0.7098 0.4224
vn -0.6141 0.7000 0.3644
vn 0.4089 0.7148 -0.5673
vn 0.4697 -0.7167 -0.5154
vn -0.5637 -0.7098 0.4224
vn 0.7453 -0.0000 0.6667
vn -0.5741 0.7082 0.4110
vn 0.3323 0.7065 -0.6249
vn 0.4023 -0.7143 -0.5726
vn -0.5134 -0.7151 0.4744
vn -0.1273 -0.1130 0.9854
vn -0.1528 -0.1223 0.9807
vn -0.1017 -0.1037 0.9894
vn -0.0881 0.4573 0.8849
vn 0.9104 -0.3749 0.1751
vn 0.8998 -0.3893 0.1969
vn 0.9103 -0.3750 0.1751
vn 0.9202 -0.3603 0.1532
vn -0.8963 0.4014 0.1886
vn -0.8925 -0.0494 0.4483
vn -0.8869 -0.0576 0.4584
vn -0.8926 -0.0492 0.4482
vn -0.8981 -0.0408 0.4378
vn 0.1273 -0.1130 0.9854
vn 0.1017 -0.1037 0.9894
vn 0.1528 -0.1223 0.9807
vn -0.0000 -0.9904 0.1386
vn -0.9103 -0.3750 0.1752
vn -0.9201 -0.3604 0.1532
vn -0.8998 -0.3893 0.1970
vn 0.6282 0.6849 0.3691
vn 0.5223 0.7155 0.4641
vn 0.7209 0.6398 0.2664
vn 0.8926 -0.0491 0.4481
vn 0.8981 -0.0408 0.4379
vn 0.8926 -0.0492 0.4482
vn 0.8868 -0.0576 0.4585
vn 0.0881 0.4573 0.8849
vn -0.0000 -0.7492 0.6623
vn -0.0000 -0.9966 0.0821
vn 0.1833 0.1044 -0.9775
vn 0.1313 0.0666 -0.9891
vn 0.2345 0.1419 -0.9617
vn -0.0000 -0.2228 0.9749
vn -0.0000 -1.0000 0.0014
vn -0.0000 -1.0000 -0.0063
vn 0.0006 0.6097 -0.7927
vn -0.0000 0.6105 -0.7920
vn 0.0007 0.6094 -0.7929
vn 0.0014 0.6085 -0.7936
vn -0.0000 -0.0984 0.9951
vn 0.8475 0.4474 0.2858
vn 0.9016 0.3890 0.1895
vn 0.8962 0.4073 0.1761
vn -0.0000 0.9970 0.0780
vn -0.0000 -0.9383 0.3459
vn -0.8475 0.4474 0.2858
vn -0.9016 0.3890 0.1895
vn -0.8962 0.4073 0.1761
vn -0.0000 0.9973 -0.0731
vn -0.0000 -0.9612 0.2758
vn -0.0000 -0.9801 0.1984
vn -0.0000 -0.9801 0.1985
vn -0.8792 -0.4679 -0.0895
vn -0.8885 -0.4587 -0.0132
vn -0.8792 -0.4679 -0.0896
vn -0.8647 -0.4743 -0.1653
vn 0.8846 -0.4586 -0.0846
vn 0.9145 -0.4037 -0.0274
vn 0.8484 -0.5102 -0.1412
vn -0.5482 -0.1501 -0.8228
vn -0.5930 -0.0821 -0.8010
vn -0.4995 -0.2171 -0.8387
vn -0.7051 0.6323 0.3210
vn -0.7691 0.5918 0.2415
vn -0.6326 0.6652 0.3967
vn 0.4284 0.3372 0.8383
vn 0.5207 0.2462 0.8175
vn 0.3288 0.4224 0.8447
vn -0.0000 0.1605 -0.9870
vn -0.0000 0.9968 0.0804
vn -0.0000 0.0625 0.9980
vn -0.4284 0.3372 0.8383
vn -0.5207 0.2462 0.8175
vn -0.3288 0.4223 0.8447
vn 0.6965 0.6400 0.3245
vn 0.7339 0.6369 0.2363
vn 0.6964 0.6400 0.3246
vn 0.6526 0.6373 0.4098
vn 0.5671 -0.1434 -0.8111
vn 0.6379 -0.1044 -0.7631
vn 0.5672 -0.1434 -0.8110
vn 0.4914 -0.1812 -0.8519
vn -0.9560 -0.2934 0.0027
vn -0.9598 -0.2806 0.0055
vn -0.9520 -0.3061 -0.0000
vn 0.9560 -0.2934 0.0027
vn 0.9520 -0.3061 -0.0000
vn 0.9598 -0.2806 0.0055
vn -0.0000 -0.8390 -0.5442
vn -0.0000 -0.1898 -0.9818
vn -0.0000 0.3743 0.9273
vn 0.9459 0.3140 -0.0815
vn -0.0000 0.3839 -0.9234
vn -0.9460 0.3138 -0.0814
vn 0.0007 1.0000 -0.0069
vn -0.0007 1.0000 -0.0069
vn 0.9041 0.4214 -0.0712
vn 0.8477 0.5224 -0.0922
vn 0.9480 0.3146 -0.0492
vn 0.8907 0.3836 0.2438
vn -0.8907 0.3836 0.2438
vn 0.9910 -0.1166 -0.0654
vn 0.9937 -0.0954 -0.0581
vn 0.9878 -0.1378 -0.0726
vn -0.6425 0.7596 -0.1009
vn 0.6424 0.7597 -0.1009
vn -0.6093 0.7929 0.0005
vn 0.8963 0.4014 0.1886
vn -0.6283 0.6848 0.3691
vn -0.7209 0.6398 0.2664
vn -0.5223 0.7154 0.4640
vn -1.0000 -0.0000 -0.0000
vn -0.5000 -0.8660 -0.0000
vn 0.5000 -0.8660 -0.0000
vn 1.0000 -0.0000 -0.0000
vn 0.5000 0.8660 -0.0000
vn -0.5000 0.8660 -0.0000
vn -0.0000 -0.0000 1.0000
vn -0.0000 -0.0000 -1.0000
vn -0.0000 0.2518 0.9678
vn 0.1389 0.4316 0.8913
vn -0.1389 0.4316 0.8913
vn -0.0000 0.5000 0.8660
vn -0.0000 -0.1736 0.9848
vn -0.0000 -0.7661 0.6428
vn -0.0000 -0.7661 -0.6428
vn -0.0000 -0.1737 -0.9848
vn -0.0000 0.5000 -0.8660
vn -0.0000 0.9397 -0.3420
vn -0.0000 0.9397 0.3420
vn -0.0000 -0.1736 -0.9848
vt 0.249543 1.984983
vt 0.262640 1.934386
vt 0.787047 1.933575
vt 0.817020 1.984983
vt 0.169249 1.940996
vt 0.064122 1.986651
vt 0.466742 1.155846
vt 0.512213 1.122079
vt 0.477941 1.022369
vt 0.635317 1.602545
vt 0.635287 1.601887
vt 0.635256 1.601933
vt 0.635271 1.602545
vt 0.755529 1.113863
vt 0.749838 1.069967
vt 0.762368 1.069967
vt 0.762368 1.113863
vt 0.635256 1.602101
vt 0.635271 1.602636
vt 0.634919 1.601994
vt 0.634919 1.602208
vt 0.634919 1.602040
vt 0.172814 1.887630
vt 0.276593 1.862736
vt 0.293010 1.109487
vt 0.293010 1.109380
vt 0.292980 1.108783
vt 0.292980 1.108951
vt 0.292796 1.108890
vt 0.292796 1.109058
vt 0.836696 1.795554
vt 0.836696 1.818856
vt 0.836696 1.822467
vt 0.225752 1.155846
vt 0.225247 1.187394
vt 0.467247 1.187394
vt 0.214567 1.022369
vt 0.180295 1.122079
vt 0.634522 1.602545
vt 0.634552 1.602545
vt 0.634583 1.601933
vt 0.634552 1.601887
vt 0.154652 1.644987
vt 0.149558 1.656676
vt 0.149558 1.824242
vt 0.154652 1.835916
vt 0.199328 1.649990
vt 0.199328 1.830912
vt 0.256076 1.830912
vt 0.256076 1.649990
vt 0.634583 1.602101
vt 0.634567 1.602636
vt 0.479732 1.109196
vt 0.212762 1.109196
vt 0.959356 1.394235
vt 0.988043 1.622220
vt 0.954246 1.633053
vt 0.904383 1.398672
vt 0.933774 1.621486
vt 0.292291 1.109487
vt 0.292322 1.108951
vt 0.292322 1.108783
vt 0.292291 1.109380
vt 0.292505 1.109058
vt 0.292505 1.108890
vt 0.553539 1.625984
vt 0.230081 1.625984
vt 0.391802 1.396132
vt 0.306612 1.084410
vt 0.306688 1.062424
vt 0.306612 1.107834
vt 0.306688 1.107834
vt 0.619681 1.633053
vt 0.669543 1.399116
vt 0.640152 1.621486
vt 0.905010 1.825802
vt 0.915017 1.657472
vt 0.979598 1.657273
vt 0.970693 1.827194
vt 0.873309 1.881953
vt 0.922728 1.929337
vt 0.812200 1.892021
vt 0.585868 1.622220
vt 0.614555 1.394235
vt 0.616131 1.373794
vt 0.618135 1.319020
vt 0.709721 1.319158
vt 0.670385 1.398993
vt 0.862736 1.319158
vt 0.786236 1.224405
vt 0.954307 1.319020
vt 0.956311 1.373794
vt 0.902073 1.398993
vt 0.936528 1.224298
vt 0.760181 1.825802
vt 0.735257 1.657472
vt 0.328537 1.657472
vt 0.605207 1.090194
vt 0.547342 1.138695
vt 0.547342 1.090637
vt 0.547342 1.042565
vt 0.186584 1.400692
vt 0.103856 1.483434
vt 0.021114 1.400692
vt 0.103856 1.317965
vt 0.238221 1.200109
vt 0.283585 1.307714
vt 0.194830 1.307714
vt 0.196146 1.200109
vt 0.228781 1.395918
vt 0.391420 1.395918
vt 0.253337 1.200109
vt 0.292551 1.297279
vt 0.029131 1.836084
vt 0.095135 1.657227
vt 0.039459 1.657227
vt 0.112348 1.817173
vt 0.544649 1.200109
vt 0.586740 1.200109
vt 0.588055 1.307714
vt 0.499270 1.307714
vt 0.490304 1.297279
vt 0.529533 1.200109
vt 0.554105 1.395918
vt 0.836696 1.821962
vt 0.635914 1.224298
vt 0.676229 1.345168
vt 0.633910 1.349819
vt 0.630513 1.353200
vt 0.656033 1.341236
vt 0.618258 1.351548
vt 0.554350 1.064275
vt 0.553707 1.077250
vt 0.554044 1.077250
vt 0.553401 1.064275
vt 0.606278 1.064275
vt 0.606278 1.077250
vt 0.606109 1.077250
vt 0.606109 1.064275
vt 0.606109 1.035251
vt 0.551427 1.035251
vt 0.606109 1.051286
vt 0.552758 1.051286
vt 0.556339 1.035251
vt 0.554992 1.051286
vt 0.606278 1.051286
vt 0.606278 1.035251
vt 0.495720 1.160466
vt 0.196773 1.160466
vt 0.226945 1.413238
vt 0.556675 1.413238
vt 0.575815 1.106763
vt 0.575815 1.072430
vt 0.577407 1.072430
vt 0.577407 1.106763
vt 0.575815 1.038296
vt 0.577407 1.038296
vt 0.575815 1.038388
vt 0.577407 1.038388
vt 0.575815 1.141678
vt 0.577407 1.141678
vt 0.104224 1.318561
vt 0.033400 1.359443
vt 0.033400 1.441237
vt 0.104224 1.482134
vt 0.175047 1.441237
vt 0.175047 1.359443
vt 0.427406 1.775266
vt 0.461739 1.775266
vt 0.461739 1.831938
vt 0.427406 1.831938
vt 0.496653 1.775266
vt 0.496653 1.831938
vt 0.393286 1.775266
vt 0.393286 1.831938
vt 0.393332 1.775266
vt 0.393332 1.831938
vt 0.907367 1.188970
vt 0.836543 1.148073
vt 0.836543 1.066280
vt 0.907367 1.025398
vt 0.978206 1.066280
vt 0.978206 1.148073
vt 0.201669 1.511938
vt 0.201669 1.523321
vt 0.154423 1.523321
vt 0.154423 1.511938
vt 0.201669 1.534704
vt 0.154423 1.534704
vt 0.201669 1.546088
vt 0.154423 1.546088
vt 0.201669 1.557471
vt 0.154423 1.557471
vt 0.201669 1.568854
vt 0.154423 1.568854
vt 0.201669 1.580237
vt 0.154423 1.580237
vt 0.201669 1.591620
vt 0.154423 1.591620
vt 0.201669 1.603004
vt 0.154423 1.603004
vt 0.201669 1.614387
vt 0.154423 1.614387
vt 0.151378 1.099022
vt 0.128841 1.138067
vt 0.089107 1.087577
vt 0.143545 1.054621
vt 0.109012 1.025643
vt 0.063939 1.025643
vt 0.029407 1.054621
vt 0.021573 1.099022
vt 0.044110 1.138067
vt 0.086476 1.153474
vt 0.044110 1.275400
vt 0.021573 1.236354
vt 0.089107 1.224910
vt 0.029407 1.191954
vt 0.063939 1.162976
vt 0.109012 1.162976
vt 0.143545 1.191954
vt 0.151378 1.236354
vt 0.128841 1.275400
vt 0.086476 1.290822
vt 0.201623 1.511938
vt 0.201623 1.523321
vt 0.154928 1.523321
vt 0.154928 1.511938
vt 0.201623 1.534704
vt 0.154928 1.534704
vt 0.201623 1.546088
vt 0.154928 1.546088
vt 0.201623 1.557471
vt 0.154928 1.557471
vt 0.201623 1.568854
vt 0.154928 1.568854
vt 0.201623 1.580237
vt 0.154928 1.580237
vt 0.201623 1.591620
vt 0.154928 1.591620
vt 0.201623 1.603004
vt 0.154928 1.603004
vt 0.201623 1.614387
vt 0.154928 1.614387
s 1
g off
g mesh_1.002_Material.003
usemtl Material.003
f 343/184/297 344/185/298 345/186/297
f 343/184/297 345/186/297 346/187/299
f 347/188/300 348/185/300 349/184/300
f 350/188/301 351/184/301 352/189/301
f 353/190/302 354/191/302 355/192/302
f 356/193/303 357/194/304 358/195/305
f 356/193/303 358/195/305 359/196/306
f 360/197/307 361/198/308 362/199/307
f 360/197/307 362/199/307 363/200/309
f 364/201/310 365/194/311 366/193/312
f 364/201/310 366/193/312 367/202/313
f 368/203/314 369/194/315 370/201/314
f 368/203/314 370/201/314 371/204/316
f 372/203/317 373/205/318 374/195/317
f 372/203/317 374/195/317 375/194/319
f 376/206/320 377/207/321 378/185/320
f 376/206/320 378/185/320 379/188/322
f 380/208/323 381/209/324 382/210/325
f 380/208/323 382/210/325 383/211/326
f 384/211/327 385/210/328 386/212/327
f 384/211/327 386/212/327 387/213/329
f 388/214/330 389/214/330 390/214/330
f 388/214/330 390/214/330 391/214/330
f 392/215/331 393/214/331 394/214/331
f 392/215/331 394/214/331 395/215/331
f 396/216/332 397/215/332 398/215/332
f 396/216/332 398/215/332 399/216/332
f 400/190/333 401/217/333 402/218/333
f 400/190/333 402/218/333 403/219/333
f 404/185/334 405/184/335 406/187/334
f 404/185/334 406/187/334 407/186/336
f 408/184/337 409/188/337 410/189/337
f 411/220/338 412/221/338 413/217/338
f 414/222/339 415/223/340 416/224/339
f 414/222/339 416/224/339 417/225/341
f 418/226/342 419/227/342 420/228/343
f 418/226/342 420/228/343 421/229/343
f 422/198/344 423/197/345 424/200/344
f 422/198/344 424/200/344 425/199/346
f 426/230/347 427/231/347 428/232/347
f 426/230/347 428/232/347 429/233/347
f 430/234/348 431/235/349 432/222/348
f 430/234/348 432/222/348 433/225/350
f 434/236/351 435/219/351 436/218/351
f 434/236/351 436/218/351 437/237/351
f 438/203/352 439/204/353 440/234/352
f 438/203/352 440/234/352 441/225/354
f 442/203/355 443/225/356 444/224/355
f 442/203/355 444/224/355 445/205/357
f 446/206/358 447/188/359 448/185/358
f 446/206/358 448/185/358 449/207/360
f 450/238/361 451/239/362 452/240/361
f 450/238/361 452/240/361 453/241/363
f 454/240/364 455/242/364 456/241/364
f 457/243/365 458/244/366 459/245/365
f 457/243/365 459/245/365 460/246/367
f 461/244/368 462/247/369 463/248/368
f 461/244/368 463/248/368 464/245/370
f 465/214/371 466/215/371 467/215/371
f 465/214/371 467/215/371 468/214/371
f 469/216/372 470/216/372 471/215/372
f 469/216/372 471/215/372 472/215/372
f 473/249/373 474/250/373 475/251/373
f 476/252/374 477/252/375 478/252/375
f 476/252/374 478/252/375 479/252/374
f 480/252/376 481/252/376 482/252/376
f 480/252/376 482/252/376 483/252/376
f 484/252/377 485/252/374 486/252/374
f 484/252/377 486/252/374 487/252/377
f 488/252/374 489/252/378 490/252/378
f 488/252/374 490/252/378 491/252/374
f 492/252/379 493/252/379 494/252/379
f 492/252/379 494/252/379 495/252/379
f 496/252/380 497/252/374 498/252/381
f 496/252/380 498/252/381 499/252/380
f 500/253/374 501/253/374 502/253/374
f 503/253/382 504/253/382 505/253/382
f 506/253/383 507/253/383 508/253/383
f 509/253/384 510/253/384 511/253/384
f 512/254/385 513/253/385 514/253/385
f 515/255/386 516/253/386 517/253/386
f 518/254/387 519/253/387 520/253/387
f 521/256/388 522/257/388 523/258/388
f 524/259/389 525/260/390 526/261/391
f 524/259/389 526/261/391 527/262/392
f 528/263/393 529/259/394 530/262/393
f 528/263/393 530/262/393 531/264/395
f 532/265/396 533/263/396 534/264/396
f 535/266/397 536/267/398 537/257/397
f 535/266/397 537/257/397 538/256/399
f 539/268/400 540/269/401 541/270/402
f 539/268/400 541/270/402 542/271/403
f 543/258/404 544/257/405 545/241/406
f 543/258/404 545/241/406 546/242/407
f 547/272/408 548/270/408 549/273/408
f 550/259/409 551/262/410 552/261/409
f 550/259/409 552/261/409 553/260/411
f 554/263/412 555/264/413 556/262/412
f 554/263/412 556/262/412 557/259/414
f 558/272/415 559/274/416 560/275/417
f 558/272/415 560/275/417 561/276/418
f 562/277/419 563/274/420 564/272/421
f 562/277/419 564/272/421 565/273/422
f 566/265/423 567/264/423 568/263/423
f 569/207/424 570/185/425 571/186/424
f 569/207/424 571/186/424 572/278/426
f 573/279/427 574/280/428 575/207/429
f 573/279/427 575/207/429 576/278/430
f 577/281/431 578/282/431 579/283/431
f 580/281/432 581/283/432 582/282/432
f 583/281/433 584/284/433 585/283/433
f 586/281/434 587/283/434 588/284/434
f 589/285/435 590/286/435 591/287/435
f 589/285/435 591/287/435 592/288/435
f 593/281/436 594/282/436 595/283/436
f 596/281/437 597/283/437 598/282/437
f 599/281/438 600/284/438 601/283/438
f 602/281/439 603/283/439 604/284/439
f 605/285/435 606/286/435 607/287/435
f 605/285/435 607/287/435 608/288/435
f 609/281/440 610/283/440 611/282/440
f 612/281/441 613/282/441 614/283/441
f 615/281/442 616/283/442 617/284/442
f 618/281/443 619/284/443 620/283/443
f 621/285/444 622/288/444 623/287/444
f 621/285/444 623/287/444 624/286/444
f 625/281/445 626/283/445 627/282/445
f 628/281/446 629/282/446 630/283/446
f 631/281/447 632/283/447 633/284/447
f 634/281/448 635/284/448 636/283/448
f 637/285/444 638/288/444 639/287/444
f 637/285/444 639/287/444 640/286/444
f 641/289/449 642/290/450 643/291/449
f 641/289/449 643/291/449 644/292/451
f 645/293/452 646/290/452 647/294/452
f 648/290/453 649/289/454 650/295/455
f 648/290/453 650/295/455 651/296/456
f 652/188/457 653/297/457 654/189/457
f 655/298/458 656/299/459 657/297/460
f 655/298/458 657/297/460 658/300/461
f 659/298/330 660/298/330 661/298/330
f 659/298/330 661/298/330 662/298/330
f 663/301/462 664/302/463 665/303/462
f 663/301/462 665/303/462 666/304/464
f 667/305/465 668/304/465 669/290/465
f 667/305/465 669/290/465 670/296/465
f 671/304/466 672/305/467 673/306/466
f 671/304/466 673/306/466 674/301/468
f 675/300/469 676/206/470 677/188/469
f 675/300/469 677/188/469 678/297/471
f 679/298/472 680/300/473 681/297/474
f 679/298/472 681/297/474 682/299/475
f 683/307/476 684/294/476 685/304/476
f 686/298/330 687/298/330 688/298/330
f 686/298/330 688/298/330 689/298/330
f 690/215/477 691/308/477 692/308/477
f 690/215/477 692/308/477 693/215/477
f 694/308/478 695/216/478 696/216/478
f 694/308/478 696/216/478 697/308/478
f 698/309/479 699/273/480 700/270/479
f 698/309/479 700/270/479 701/269/481
f 702/215/482 703/215/482 704/214/482
f 702/215/482 704/214/482 705/214/482
f 706/214/483 707/214/483 708/214/483
f 706/214/483 708/214/483 709/214/483
f 710/214/484 711/214/484 712/214/484
f 713/271/485 714/270/486 715/272/487
f 713/271/485 715/272/487 716/276/488
f 717/296/489 718/295/489 719/306/489
f 717/296/489 719/306/489 720/305/489
f 721/310/490 722/311/490 723/312/490
f 724/310/491 725/313/491 726/311/491
f 727/311/492 728/313/492 729/314/492
f 730/312/493 731/312/493 732/311/493
f 730/312/493 732/311/493 733/311/493
f 734/312/494 735/312/494 736/310/494
f 734/312/494 736/310/494 737/310/494
f 738/310/495 739/312/495 740/311/495
f 741/310/496 742/311/496 743/313/496
f 744/311/497 745/314/497 746/313/497
f 747/314/498 748/311/498 749/311/498
f 747/314/498 749/311/498 750/314/498
f 751/310/499 752/310/499 753/313/499
f 751/310/499 753/313/499 754/313/499
f 755/315/500 756/316/500 757/317/501
f 755/315/500 757/317/501 758/318/501
f 759/316/502 760/315/503 761/319/504
f 759/316/502 761/319/504 762/320/505
f 763/318/506 764/317/507 765/321/506
f 763/318/506 765/321/506 766/322/508
f 767/323/509 768/324/510 769/318/509
f 767/323/509 769/318/509 770/322/511
f 771/325/512 772/326/513 773/324/512
f 771/325/512 773/324/512 774/323/514
f 775/317/515 776/326/516 777/325/515
f 775/317/515 777/325/515 778/321/517
f 779/324/518 780/327/518 781/315/518
f 779/324/518 781/315/518 782/318/518
f 783/326/519 784/328/519 785/327/519
f 783/326/519 785/327/519 786/324/519
f 787/316/520 788/328/520 789/326/520
f 787/316/520 789/326/520 790/317/520
f 791/329/521 792/328/522 793/316/521
f 791/329/521 793/316/521 794/320/523
f 795/330/524 796/327/525 797/328/526
f 795/330/524 797/328/526 798/329/527
f 799/319/528 800/315/529 801/327/530
f 799/319/528 801/327/530 802/330/531
f 803/214/532 804/214/533 805/214/532
f 803/214/532 805/214/532 806/214/534
f 807/214/535 808/214/536 809/214/535
f 807/214/535 809/214/535 810/214/537
f 811/214/532 812/214/533 813/214/532
f 811/214/532 813/214/532 814/214/534
f 815/214/330 816/214/330 817/214/330
f 815/214/330 817/214/330 818/214/330
f 819/215/538 820/215/538 821/216/538
f 819/215/538 821/216/538 822/216/538
f 823/214/539 824/215/539 825/215/539
f 823/214/539 825/215/539 826/214/539
f 827/294/540 828/290/540 829/304/540
f 830/190/541 831/331/541 832/191/541
f 833/190/542 834/192/542 835/220/542
f 833/190/542 835/220/542 836/217/542
f 837/217/543 838/221/543 839/332/543
f 840/251/544 841/250/544 842/333/544
f 843/249/545 844/251/545 845/334/545
f 846/185/546 847/207/547 848/278/546
f 846/185/546 848/278/546 849/186/548
f 850/186/549 851/278/549 852/265/549
f 853/278/550 854/186/550 855/265/550
f 856/278/551 857/207/552 858/280/551
f 856/278/551 858/280/551 859/279/553
f 860/265/554 861/186/554 862/264/554
f 863/265/555 864/264/555 865/186/555
f 866/188/556 867/184/556 868/185/556
f 869/297/557 870/188/557 871/189/557
f 872/300/558 873/297/559 874/188/558
f 872/300/558 874/188/558 875/206/560
f 876/335/561 877/336/561 878/337/561
f 876/335/561 878/337/561 879/338/561
f 880/336/562 881/339/562 882/340/562
f 880/336/562 882/340/562 883/337/562
f 884/341/563 885/336/563 886/337/563
f 884/341/563 886/337/563 887/342/563
f 888/336/564 889/335/564 890/338/564
f 888/336/564 890/338/564 891/337/564
f 892/335/565 893/343/565 894/344/565
f 892/335/565 894/344/565 895/338/565
f 896/343/566 897/335/566 898/338/566
f 896/343/566 898/338/566 899/344/566
f 900/345/567 901/346/567 902/347/567
f 900/345/567 902/347/567 903/348/567
f 904/345/567 905/348/567 906/349/567
f 904/345/567 906/349/567 907/350/567
f 908/335/561 909/336/561 910/337/561
f 908/335/561 910/337/561 911/338/561
f 912/336/562 913/339/562 914/340/562
f 912/336/562 914/340/562 915/337/562
f 916/341/563 917/336/563 918/337/563
f 916/341/563 918/337/563 919/342/563
f 920/336/564 921/335/564 922/338/564
f 920/336/564 922/338/564 923/337/564
f 924/335/565 925/343/565 926/344/565
f 924/335/565 926/344/565 927/338/565
f 928/343/566 929/335/566 930/338/566
f 928/343/566 930/338/566 931/344/566
f 932/345/567 933/346/567 934/347/567
f 932/345/567 934/347/567 935/348/567
f 936/345/567 937/348/567 938/349/567
f 936/345/567 938/349/567 939/350/567
f 940/351/561 941/352/561 942/353/561
f 940/351/561 942/353/561 943/354/561
f 944/352/566 945/355/566 946/356/566
f 944/352/566 946/356/566 947/353/566
f 948/355/565 949/352/565 950/353/565
f 948/355/565 950/353/565 951/356/565
f 952/352/564 953/351/564 954/354/564
f 952/352/564 954/354/564 955/353/564
f 956/351/563 957/357/563 958/358/563
f 956/351/563 958/358/563 959/354/563
f 960/359/562 961/351/562 962/354/562
f 960/359/562 962/354/562 963/360/562
f 964/361/568 965/362/568 966/363/568
f 964/361/568 966/363/568 967/364/568
f 968/361/568 969/364/568 970/365/568
f 968/361/568 970/365/568 971/366/568
f 972/351/561 973/352/561 974/353/561
f 972/351/561 974/353/561 975/354/561
f 976/352/566 977/355/566 978/356/566
f 976/352/566 978/356/566 979/353/566
f 980/355/565 981/352/565 982/353/565
f 980/355/565 982/353/565 983/356/565
f 984/352/564 985/351/564 986/354/564
f 984/352/564 986/354/564 987/353/564
f 988/351/563 989/357/563 990/358/563
f 988/351/563 990/358/563 991/354/563
f 992/359/562 993/351/562 994/354/562
f 992/359/562 994/354/562 995/360/562
f 996/361/568 997/362/568 998/363/568
f 996/361/568 998/363/568 999/364/568
f 1000/361/568 1001/364/568 1002/365/568
f 1000/361/568 1002/365/568 1003/366/568
f 1004/226/569 1005/229/569 1006/231/569
f 1004/226/569 1006/231/569 1007/230/569
f 1008/307/570 1009/304/570 1010/303/570
f 1011/293/571 1012/291/571 1013/290/571
f 1014/367/572 1015/368/572 1016/369/572
f 1014/367/572 1016/369/572 1017/370/572
f 1018/368/573 1019/371/573 1020/372/573
f 1018/368/573 1020/372/573 1021/369/573
f 1022/371/574 1023/373/574 1024/374/574
f 1022/371/574 1024/374/574 1025/372/574
f 1026/373/330 1027/375/330 1028/376/330
f 1026/373/330 1028/376/330 1029/374/330
f 1030/375/575 1031/377/575 1032/378/575
f 1030/375/575 1032/378/575 1033/376/575
f 1034/377/576 1035/379/576 1036/380/576
f 1034/377/576 1036/380/576 1037/378/576
f 1038/379/577 1039/381/577 1040/382/577
f 1038/379/577 1040/382/577 1041/380/577
f 1042/381/578 1043/383/578 1044/384/578
f 1042/381/578 1044/384/578 1045/382/578
f 1046/383/579 1047/385/579 1048/386/579
f 1046/383/579 1048/386/579 1049/384/579
f 1050/387/561 1051/388/561 1052/389/561
f 1053/390/561 1054/387/561 1055/389/561
f 1056/391/561 1057/390/561 1058/389/561
f 1059/392/561 1060/391/561 1061/389/561
f 1062/393/561 1063/392/561 1064/389/561
f 1065/394/561 1066/393/561 1067/389/561
f 1068/395/561 1069/394/561 1070/389/561
f 1071/396/561 1072/395/561 1073/389/561
f 1074/388/561 1075/396/561 1076/389/561
f 1077/397/564 1078/398/564 1079/399/564
f 1080/398/564 1081/400/564 1082/399/564
f 1083/400/564 1084/401/564 1085/399/564
f 1086/401/564 1087/402/564 1088/399/564
f 1089/402/564 1090/403/564 1091/399/564
f 1092/403/564 1093/404/564 1094/399/564
f 1095/404/564 1096/405/564 1097/399/564
f 1098/405/564 1099/406/564 1100/399/564
f 1101/406/564 1102/397/564 1103/399/564
f 1104/370/572 1105/369/572 1106/368/572
f 1104/370/572 1106/368/572 1107/367/572
f 1108/369/573 1109/372/573 1110/371/573
f 1108/369/573 1110/371/573 1111/368/573
f 1112/372/574 1113/374/574 1114/373/574
f 1112/372/574 1114/373/574 1115/371/574
f 1116/374/330 1117/376/330 1118/375/330
f 1116/374/330 1118/375/330 1119/373/330
f 1120/376/575 1121/378/575 1122/377/575
f 1120/376/575 1122/377/575 1123/375/575
f 1124/378/576 1125/380/576 1126/379/576
f 1124/378/576 1126/379/576 1127/377/576
f 1128/380/577 1129/382/577 1130/381/577
f 1128/380/577 1130/381/577 1131/379/577
f 1132/382/578 1133/384/578 1134/383/578
f 1132/382/578 1134/383/578 1135/381/578
f 1136/384/579 1137/386/579 1138/385/579
f 1136/384/579 1138/385/579 1139/383/579
f 1140/404/561 1141/405/561 1142/399/561
f 1143/403/561 1144/404/561 1145/399/561
f 1146/402/561 1147/403/561 1148/399/561
f 1149/401/561 1150/402/561 1151/399/561
f 1152/400/561 1153/401/561 1154/399/561
f 1155/398/561 1156/400/561 1157/399/561
f 1158/397/561 1159/398/561 1160/399/561
f 1161/406/561 1162/397/561 1163/399/561
f 1164/405/561 1165/406/561 1166/399/561
f 1167/395/564 1168/394/564 1169/389/564
f 1170/394/564 1171/393/564 1172/389/564
f 1173/393/564 1174/392/564 1175/389/564
f 1176/392/564 1177/391/564 1178/389/564
f 1179/391/564 1180/390/564 1181/389/564
f 1182/390/564 1183/387/564 1184/389/564
f 1185/387/564 1186/388/564 1187/389/564
f 1188/388/564 1189/396/564 1190/389/564
f 1191/396/564 1192/395/564 1193/389/564
f 1194/407/572 1195/408/572 1196/409/572
f 1194/407/572 1196/409/572 1197/410/572
f 1198/408/573 1199/411/573 1200/412/573
f 1198/408/573 1200/412/573 1201/409/573
f 1202/411/574 1203/413/574 1204/414/574
f 1202/411/574 1204/414/574 1205/412/574
f 1206/413/330 1207/415/330 1208/416/330
f 1206/413/330 1208/416/330 1209/414/330
f 1210/415/575 1211/417/575 1212/418/575
f 1210/415/575 1212/418/575 1213/416/575
f 1214/417/580 1215/419/580 1216/420/580
f 1214/417/580 1216/420/580 1217/418/580
f 1218/419/577 1219/421/577 1220/422/577
f 1218/419/577 1220/422/577 1221/420/577
f 1222/421/578 1223/423/578 1224/424/578
f 1222/421/578 1224/424/578 1225/422/578
f 1226/423/579 1227/425/579 1228/426/579
f 1226/423/579 1228/426/579 1229/424/579
f 1230/387/561 1231/388/561 1232/389/561
f 1233/390/561 1234/387/561 1235/389/561
f 1236/391/561 1237/390/561 1238/389/561
f 1239/392/561 1240/391/561 1241/389/561
f 1242/393/561 1243/392/561 1244/389/561
f 1245/394/561 1246/393/561 1247/389/561
f 1248/395/561 1249/394/561 1250/389/561
f 1251/396/561 1252/395/561 1253/389/561
f 1254/388/561 1255/396/561 1256/389/561
f 1257/397/564 1258/398/564 1259/399/564
f 1260/398/564 1261/400/564 1262/399/564
f 1263/400/564 1264/401/564 1265/399/564
f 1266/401/564 1267/402/564 1268/399/564
f 1269/402/564 1270/403/564 1271/399/564
f 1272/403/564 1273/404/564 1274/399/564
f 1275/404/564 1276/405/564 1277/399/564
f 1278/405/564 1279/406/564 1280/399/564
f 1281/406/564 1282/397/564 1283/399/564
f 1284/410/572 1285/409/572 1286/408/572
f 1284/410/572 1286/408/572 1287/407/572
f 1288/409/573 1289/412/573 1290/411/573
f 1288/409/573 1290/411/573 1291/408/573
f 1292/412/574 1293/414/574 1294/413/574
f 1292/412/574 1294/413/574 1295/411/574
f 1296/414/330 1297/416/330 1298/415/330
f 1296/414/330 1298/415/330 1299/413/330
f 1300/416/575 1301/418/575 1302/417/575
f 1300/416/575 1302/417/575 1303/415/575
f 1304/418/580 1305/420/580 1306/419/580
f 1304/418/580 1306/419/580 1307/417/580
f 1308/420/577 1309/422/577 1310/421/577
f 1308/420/577 1310/421/577 1311/419/577
f 1312/422/578 1313/424/578 1314/423/578
f 1312/422/578 1314/423/578 1315/421/578
f 1316/424/579 1317/426/579 1318/425/579
f 1316/424/579 1318/425/579 1319/423/579
f 1320/404/561 1321/405/561 1322/399/561
f 1323/403/561 1324/404/561 1325/399/561
f 1326/402/561 1327/403/561 1328/399/561
f 1329/401/561 1330/402/561 1331/399/561
f 1332/400/561 1333/401/561 1334/399/561
f 1335/398/561 1336/400/561 1337/399/561
f 1338/397/561 1339/398/561 1340/399/561
f 1341/406/561 1342/397/561 1343/399/561
f 1344/405/561 1345/406/561 1346/399/561
f 1347/395/564 1348/394/564 1349/389/564
f 1350/394/564 1351/393/564 1352/389/564
f 1353/393/564 1354/392/564 1355/389/564
f 1356/392/564 1357/391/564 1358/389/564
f 1359/391/564 1360/390/564 1361/389/564
f 1362/390/564 1363/387/564 1364/389/564
f 1365/387/564 1366/388/564 1367/389/564
f 1368/388/564 1369/396/564 1370/389/564
f 1371/396/564 1372/395/564 1373/389/564
