# Blender 5.0.1
# www.blender.org
mtllib cortexOnGoKart.mtl
g mesh_1_Mesh
v 0.000000 2.679750 0.275590
v -0.705290 2.599310 0.209770
v -0.550240 2.607010 0.733640
v -0.510520 2.148480 0.192480
v -0.468000 2.215850 0.676770
v -0.705290 2.599310 0.209770
v -0.108050 1.331410 -0.340660
v 0.000000 1.225630 -0.411500
v 0.000000 1.399760 -0.189450
v -0.306890 1.428970 -0.089870
v 0.000000 1.634380 -0.285470
v -0.206720 1.649400 -0.187180
v -0.064490 1.687330 -0.297620
v 0.000000 1.681600 -0.309150
v -0.196330 1.548250 -0.322330
v -0.210400 1.541800 -0.183680
v 0.000000 1.536030 -0.307820
v 0.000000 1.553200 -0.416870
v -0.108050 1.331410 -0.340660
v -0.376310 1.656730 -0.150950
v -0.322220 1.716040 -0.109510
v -0.306890 1.428970 -0.089870
v -0.392780 1.702270 0.107150
v -0.319360 1.497590 0.114670
v -0.311990 1.561810 -0.069960
v 0.000000 1.543140 0.131600
v -0.319360 1.497590 0.114670
v 0.000000 1.679330 -0.294190
v 0.000000 1.673790 -0.391820
v -0.135670 1.626440 0.161960
v -0.392780 1.702270 0.107150
v -0.445140 2.091320 -0.199580
v -0.382890 1.880740 -0.067810
v -0.429590 1.840220 0.141510
v 0.000000 2.034580 -0.329390
v -0.364390 1.859340 -0.262090
v -0.445140 2.091320 -0.199580
v 0.000000 1.783690 -0.315650
v 0.000000 1.679330 -0.294190
v 0.000000 1.634380 -0.285470
v 0.000000 1.536030 -0.307820
v -0.210400 1.541800 -0.183680
v -0.206720 1.649400 -0.187180
v -0.227560 1.253930 -0.343790
v 0.000000 2.256660 0.875530
v -0.468000 2.215850 0.676770
v -0.567700 1.986110 0.982190
v 0.000000 2.012140 1.085310
v -0.135670 1.626440 0.161960
v 0.000000 1.628370 0.305110
v 0.000000 2.012140 1.085310
v -0.567700 1.986110 0.982190
v -0.770460 2.094810 0.190330
v -1.262500 2.008930 0.354220
v -1.262500 2.008930 0.354220
v -0.797960 1.824000 0.340450
v -1.262500 2.008930 0.354220
v -0.770460 2.094810 0.190330
v -0.797960 1.824000 0.340450
v -0.510520 2.148480 0.192480
v -0.438560 1.739980 0.184800
v -0.392780 1.702270 0.107150
v -0.572320 1.049430 0.108040
v -0.235770 1.309720 0.253690
v -0.230280 1.238390 0.364140
v -0.527830 0.992280 0.097600
v -0.631080 1.019560 0.067010
v -0.339640 1.343540 0.314720
v -0.527830 0.992280 0.097600
v -0.422130 0.929040 0.141310
v -0.493990 1.092250 0.157750
v -0.572320 1.049430 0.108040
v -0.616040 1.150350 0.132110
v -0.775310 1.058450 0.048560
v -0.631080 1.019560 0.067010
v -0.734560 0.867880 -0.004580
v -0.583090 0.931890 0.036600
v -0.583540 0.774100 0.033800
v -0.775310 1.058450 0.048560
v -0.481850 1.152910 -0.219980
v -0.454390 1.075610 -0.208640
v -0.734560 0.867880 -0.004580
v -0.583540 0.774100 0.033800
v -0.417130 1.135780 -0.179810
v -0.422130 0.929040 0.141310
v -0.775310 1.058450 0.048560
v -0.616040 1.150350 0.132110
v -0.428270 1.200650 -0.180050
v -0.481850 1.152910 -0.219980
v -0.493990 1.092250 0.157750
v -0.583090 0.931890 0.036600
v -0.318220 1.230950 0.421970
v -0.481850 1.152910 -0.219980
v -0.428270 1.200650 -0.180050
v -0.258500 1.307830 -0.391680
v -0.384090 1.039590 -0.389430
v -0.256600 0.991120 -0.345270
v -0.454390 1.075610 -0.208640
v -0.248610 1.011700 -0.201360
v -0.248610 1.011700 -0.201360
v -0.103760 1.235200 -0.348810
v -0.309030 1.277650 -0.208680
v -0.428270 1.200650 -0.180050
v -0.417130 1.135780 -0.179810
v -0.454390 1.075610 -0.208640
v -0.248610 1.011700 -0.201360
v -0.103760 1.235200 -0.348810
v -0.173830 1.190690 -0.164470
v -0.318220 1.230950 0.421970
v 0.000000 1.253050 0.556680
v 0.000000 1.367060 0.466460
v -0.339640 1.343540 0.314720
v -0.220940 1.085280 0.528410
v 0.000000 1.081920 0.566640
v 0.000000 1.253050 0.556680
v -0.318220 1.230950 0.421970
v -0.201110 0.727740 0.300660
v -0.193620 0.758940 0.493400
v -0.220940 1.085280 0.528410
v -0.220300 1.060500 0.305460
v -0.339640 1.343540 0.314720
v 0.000000 1.367060 0.466460
v -0.126810 1.323140 0.323240
v 0.000000 1.036580 0.231420
v 0.000000 0.703690 0.233490
v -0.235770 1.309720 0.253690
v 0.000000 1.218650 0.214720
v 0.000000 0.485740 0.195190
v -0.240350 0.500980 0.250460
v 0.000000 0.737070 0.554570
v 0.000000 1.081920 0.566640
v -0.255090 0.492140 0.582180
v 0.000000 0.489650 0.601910
v -0.230280 1.238390 0.364140
v -0.318220 1.230950 0.421970
v 0.000000 1.256790 0.233760
v -0.454390 1.075610 -0.208640
v -0.126810 1.323140 0.323240
v 0.000000 1.367060 0.466460
v 0.000000 1.628370 0.305110
v -0.135670 1.626440 0.161960
v 0.000000 1.256790 0.233760
v 0.000000 1.543140 0.131600
v -0.429590 1.840220 0.141510
v -0.508730 1.787600 0.191310
v -0.438560 1.739980 0.184800
v -0.508730 1.787600 0.191310
v -0.484620 1.669140 0.173640
v -0.392780 1.702270 0.107150
v -0.484620 1.669140 0.173640
v -0.508730 1.787600 0.191310
v -0.227560 1.253930 -0.343790
v -0.364390 1.859340 -0.262090
v 0.000000 1.783690 -0.315650
v 0.000000 1.225630 -0.411500
v 0.000000 2.467590 -0.493330
v -0.100250 2.567470 -0.453810
v 0.000000 2.851110 -0.557720
v 0.000000 2.607790 -0.254800
v 0.000000 2.467590 -0.493330
v -0.558110 2.581150 -0.274990
v -0.100250 2.567470 -0.453810
v -0.550240 2.607010 0.733640
v -0.510520 2.148480 0.192480
v -0.558110 2.581150 -0.274990
v 0.000000 2.599790 0.990650
v 0.000000 2.256660 0.875530
v 0.000000 2.599790 0.990650
v 0.000000 2.607790 -0.254800
v -0.100250 2.567470 -0.453810
v -0.438560 1.739980 0.184800
v -0.797960 1.824000 0.340450
v 0.000000 2.679750 0.275590
v 0.550330 2.607010 0.733640
v 0.705370 2.599310 0.209770
v 0.510600 2.148480 0.192480
v 0.705370 2.599310 0.209770
v 0.468080 2.215850 0.676770
v 0.108130 1.331410 -0.340660
v 0.306970 1.428970 -0.089870
v 0.000000 1.399760 -0.189450
v 0.000000 1.225630 -0.411500
v 0.000000 1.634380 -0.285470
v 0.000000 1.681600 -0.309150
v 0.064560 1.687330 -0.297620
v 0.206800 1.649400 -0.187180
v 0.196410 1.548250 -0.322330
v 0.000000 1.553200 -0.416870
v 0.000000 1.536030 -0.307820
v 0.210470 1.541800 -0.183680
v 0.108130 1.331410 -0.340660
v 0.376390 1.656730 -0.150950
v 0.322300 1.716040 -0.109510
v 0.312070 1.561810 -0.069960
v 0.306970 1.428970 -0.089870
v 0.392860 1.702270 0.107150
v 0.319440 1.497590 0.114670
v 0.000000 1.543140 0.131600
v 0.319440 1.497590 0.114670
v 0.000000 1.679330 -0.294190
v 0.000000 1.673790 -0.391820
v 0.135750 1.626440 0.161960
v 0.392860 1.702270 0.107150
v 0.382970 1.880740 -0.067810
v 0.445220 2.091320 -0.199580
v 0.429670 1.840220 0.141510
v 0.364470 1.859340 -0.262090
v 0.000000 1.679330 -0.294190
v 0.000000 1.634380 -0.285470
v 0.206800 1.649400 -0.187180
v 0.210470 1.541800 -0.183680
v 0.000000 1.536030 -0.307820
v 0.227640 1.253930 -0.343790
v 0.000000 2.256660 0.875530
v 0.000000 2.012140 1.085310
v 0.567780 1.986110 0.982190
v 0.468080 2.215850 0.676770
v 0.135750 1.626440 0.161960
v 0.567780 1.986110 0.982190
v 0.000000 2.012140 1.085310
v 0.000000 1.628370 0.305110
v 0.770540 2.094810 0.190330
v 1.262580 2.008930 0.354220
v 1.262580 2.008930 0.354220
v 0.798040 1.824000 0.340450
v 1.262580 2.008930 0.354220
v 0.798040 1.824000 0.340450
v 0.770540 2.094810 0.190330
v 0.510600 2.148480 0.192480
v 0.438640 1.739980 0.184800
v 0.392860 1.702270 0.107150
v 0.572300 1.049460 0.107990
v 0.527800 0.992310 0.097540
v 0.230320 1.238340 0.364100
v 0.235820 1.309670 0.253650
v 0.631050 1.019600 0.066950
v 0.339680 1.343490 0.314680
v 0.527800 0.992310 0.097540
v 0.572300 1.049460 0.107990
v 0.493960 1.092280 0.157690
v 0.422090 0.929080 0.141250
v 0.616010 1.150380 0.132050
v 0.631050 1.019600 0.066950
v 0.775280 1.058490 0.048500
v 0.583060 0.931930 0.036540
v 0.734530 0.867910 -0.004630
v 0.583510 0.774130 0.033750
v 0.775280 1.058490 0.048500
v 0.734530 0.867910 -0.004630
v 0.454350 1.075610 -0.208710
v 0.481810 1.152910 -0.220050
v 0.583510 0.774130 0.033750
v 0.422090 0.929080 0.141250
v 0.417090 1.135780 -0.179860
v 0.775280 1.058490 0.048500
v 0.481810 1.152910 -0.220050
v 0.428230 1.200650 -0.180120
v 0.616010 1.150380 0.132050
v 0.493960 1.092280 0.157690
v 0.583060 0.931930 0.036540
v 0.318270 1.230900 0.421930
v 0.428230 1.200650 -0.180120
v 0.481810 1.152910 -0.220050
v 0.258460 1.307830 -0.391740
v 0.384050 1.039590 -0.389500
v 0.454350 1.075610 -0.208710
v 0.256560 0.991120 -0.345330
v 0.248570 1.011700 -0.201430
v 0.103720 1.235200 -0.348870
v 0.248570 1.011700 -0.201430
v 0.173800 1.190690 -0.164520
v 0.308990 1.277650 -0.208740
v 0.417090 1.135780 -0.179860
v 0.428230 1.200650 -0.180120
v 0.248570 1.011700 -0.201430
v 0.454350 1.075610 -0.208710
v 0.173800 1.190690 -0.164520
v 0.318270 1.230900 0.421930
v 0.339680 1.343490 0.314680
v 0.000000 1.367060 0.466460
v 0.000000 1.253050 0.556680
v 0.221010 1.085280 0.528410
v 0.318270 1.230900 0.421930
v 0.000000 1.253050 0.556680
v 0.000000 1.081920 0.566640
v 0.201190 0.727740 0.300660
v 0.220380 1.060500 0.305460
v 0.221010 1.085280 0.528410
v 0.193690 0.758940 0.493400
v 0.339680 1.343490 0.314680
v 0.126890 1.323140 0.323240
v 0.000000 1.367060 0.466460
v 0.000000 1.036580 0.231420
v 0.000000 0.703690 0.233490
v 0.235820 1.309670 0.253650
v 0.000000 1.218650 0.214720
v 0.240420 0.500980 0.250460
v 0.000000 0.485740 0.195190
v 0.000000 1.081920 0.566640
v 0.000000 0.737070 0.554570
v 0.000000 0.489650 0.601910
v 0.255160 0.492140 0.582180
v 0.230320 1.238340 0.364100
v 0.318270 1.230900 0.421930
v 0.000000 1.256790 0.233760
v 0.454350 1.075610 -0.208710
v 0.126890 1.323140 0.323240
v 0.135750 1.626440 0.161960
v 0.000000 1.628370 0.305110
v 0.000000 1.367060 0.466460
v 0.000000 1.256790 0.233760
v 0.000000 1.543140 0.131600
v 0.508810 1.787600 0.191310
v 0.429670 1.840220 0.141510
v 0.438640 1.739980 0.184800
v 0.484710 1.669140 0.173640
v 0.508810 1.787600 0.191310
v 0.392860 1.702270 0.107150
v 0.508810 1.787600 0.191310
v 0.484710 1.669140 0.173640
v 0.227640 1.253930 -0.343790
v 0.000000 1.225630 -0.411500
v 0.000000 2.851110 -0.557720
v 0.100330 2.567470 -0.453810
v 0.000000 2.607790 -0.254800
v 0.550330 2.607010 0.733640
v 0.510600 2.148480 0.192480
v 0.558190 2.581150 -0.274990
v 0.558190 2.581150 -0.274990
v 0.000000 2.599790 0.990650
v 0.000000 2.599790 0.990650
v 0.000000 2.256660 0.875530
v 0.000000 2.607790 -0.254800
v 0.100330 2.567470 -0.453810
v 0.438640 1.739980 0.184800
v 0.508810 1.787600 0.191310
v 0.798040 1.824000 0.340450
v -0.558110 2.581150 -0.274990
v -0.173830 1.190690 -0.164470
vn -0.0761 0.9969 -0.0184
vn -0.1110 0.9935 -0.0251
vn -0.0771 0.9949 0.0654
vn -0.9406 -0.3167 -0.1224
vn -0.7259 -0.3197 0.6089
vn -0.9366 -0.3461 0.0541
vn 0.0422 -0.8297 0.5566
vn -0.3435 -0.7390 0.5795
vn -0.0886 -0.8783 0.4698
vn 0.1600 -0.8836 0.4400
vn -0.2887 -0.5339 -0.7947
vn -0.3953 -0.6011 -0.6945
vn -0.5257 -0.1179 -0.8424
vn -0.0898 0.5954 -0.7984
vn -0.5113 0.6780 -0.5281
vn -0.7141 0.5502 -0.4328
vn 0.0541 0.9931 0.1040
vn -0.4621 0.4309 -0.7751
vn -0.3475 -0.0129 -0.9376
vn -0.7372 -0.2216 -0.6383
vn -0.7498 0.3528 -0.5598
vn -0.9268 0.2135 -0.3091
vn -0.9422 -0.1071 -0.3175
vn -0.9768 -0.1873 -0.1042
vn -0.8561 -0.2967 -0.4231
vn 0.0584 -0.7947 0.6042
vn -0.0401 -0.5098 0.8593
vn -0.1259 -0.9905 0.0562
vn -0.7385 -0.5184 -0.4311
vn -0.1126 -0.1969 0.9739
vn -0.2205 -0.0433 0.9744
vn -0.9492 -0.2999 -0.0957
vn -0.8746 -0.3112 -0.3717
vn -0.8130 -0.0916 -0.5750
vn -0.0000 -0.0790 -0.9969
vn -0.2078 0.0571 -0.9765
vn -0.3264 -0.1363 -0.9354
vn -0.7192 -0.2081 -0.6629
vn 0.1139 0.9822 0.1490
vn -0.4654 0.0896 -0.8806
vn -0.4947 0.1926 -0.8474
vn -0.4654 0.0895 -0.8806
vn -0.4302 -0.0146 -0.9026
vn 0.4240 -0.6783 0.6001
vn -0.2298 0.7341 0.6389
vn -0.4247 0.8735 0.2381
vn -0.3387 0.8249 0.4525
vn -0.1654 0.6422 0.7485
vn -0.2766 -0.9050 0.3231
vn -0.4126 -0.8174 0.4021
vn -0.2250 -0.8869 0.4035
vn -0.2014 -0.9280 0.3136
vn -0.3597 0.9263 0.1121
vn -0.1163 0.9795 0.1642
vn -0.3387 -0.8762 0.3429
vn -0.2227 -0.9232 0.3131
vn -0.2079 -0.4580 -0.8643
vn -0.2304 -0.2501 -0.9404
vn -0.3716 -0.3362 -0.8654
vn -0.1999 0.9727 -0.1178
vn -0.2522 -0.9335 0.2551
vn -0.3229 -0.9121 0.2526
vn 0.6581 -0.2797 -0.6991
vn 0.5475 -0.2220 -0.8068
vn 0.7185 -0.5373 -0.4417
vn 0.7680 -0.6131 -0.1852
vn 0.4255 -0.5470 -0.7209
vn -0.8621 0.3249 0.3889
vn -0.4545 -0.3474 0.8202
vn -0.5324 -0.2167 0.8183
vn -0.3980 -0.3591 0.8442
vn -0.3033 -0.4206 0.8551
vn -0.3158 -0.3474 0.8830
vn -0.2469 -0.4074 0.8793
vn -0.1850 -0.4202 0.8884
vn -0.1862 -0.2337 0.9543
vn -0.3665 -0.1876 0.9113
vn -0.4057 -0.0151 0.9139
vn -0.6170 -0.1196 -0.7778
vn -0.5828 -0.3168 -0.7483
vn -0.1755 -0.4577 -0.8716
vn -0.4272 -0.2712 -0.8625
vn 0.5835 -0.6363 -0.5047
vn 0.9900 -0.1408 0.0050
vn 0.9924 -0.1102 -0.0555
vn -0.4825 0.8522 -0.2024
vn -0.0579 0.9905 0.1248
vn 0.1226 0.9902 0.0662
vn -0.5153 0.8107 -0.2779
vn 0.8015 0.5139 0.3058
vn -0.2530 -0.5404 0.8025
vn 0.0992 -0.8236 0.5584
vn -0.8709 0.2936 -0.3941
vn -0.5827 0.8107 -0.0569
vn -0.2822 0.6990 -0.6571
vn -0.6239 -0.4051 -0.6683
vn 0.2039 -0.8270 -0.5239
vn -0.3334 -0.9378 0.0972
vn -0.2981 -0.9425 0.1513
vn 0.8693 -0.4762 0.1322
vn 0.2040 -0.8270 -0.5239
vn 0.8474 -0.5302 0.0288
vn 0.0811 0.7524 0.6537
vn 0.2091 0.0395 0.9771
vn -0.0199 -0.0576 0.9981
vn -0.1428 -0.3544 0.9241
vn -0.0808 -0.2760 0.9577
vn 0.8424 0.5356 -0.0583
vn 0.1108 0.3731 0.9212
vn -0.3550 0.5942 0.7218
vn -0.3512 0.5810 0.7342
vn -0.3550 0.5942 0.7217
vn -0.3588 0.6071 0.7090
vn -0.2826 0.2146 0.9349
vn -0.1694 0.0573 0.9839
vn -0.3845 0.3633 0.8486
vn -0.8631 0.0887 -0.4972
vn -0.6680 0.1319 0.7323
vn -0.9118 -0.2524 0.3238
vn -0.8878 -0.0952 -0.4502
vn 0.1033 0.9280 -0.3581
vn 0.1033 0.9216 -0.3741
vn 0.0184 0.8311 -0.5558
vn -0.2927 -0.0784 -0.9530
vn -0.2709 0.1398 -0.9524
vn -0.3606 0.4223 -0.8316
vn -0.1277 0.4383 -0.8897
vn -0.2107 0.1692 -0.9628
vn -0.5893 0.2406 -0.7713
vn -0.2561 0.0064 0.9666
vn -0.1709 -0.0345 0.9847
vn -0.8672 0.3136 0.3869
vn -0.1751 0.2571 0.9504
vn -0.9179 -0.3168 -0.2392
vn -0.3536 -0.6942 -0.6269
vn -0.3695 0.4150 -0.8314
vn -0.8923 -0.3574 -0.2758
vn -0.9580 0.1377 0.2516
vn -0.7526 0.3460 0.5603
vn -0.7217 0.3358 0.6052
vn -0.8772 -0.1796 -0.4453
vn -0.5291 -0.3448 -0.7753
vn -0.3849 -0.3101 -0.8693
vn -0.3199 -0.1319 -0.9382
vn -0.4641 -0.3450 -0.8158
vn 0.3336 -0.3545 0.8735
vn -0.0097 -0.1495 0.9887
vn 0.6192 -0.4982 0.6070
vn -0.5681 0.0283 -0.8224
vn -0.5400 0.0156 -0.8415
vn -0.5624 0.1193 -0.8182
vn -0.6604 -0.7506 0.0198
vn 0.3937 -0.1437 -0.9079
vn -0.5575 -0.0136 -0.8301
vn -0.4844 -0.1449 -0.8628
vn -0.9129 0.1904 -0.3610
vn -0.9129 0.1904 -0.3609
vn -0.8414 0.4214 0.3385
vn 0.0752 -0.1973 -0.9775
vn -0.8370 -0.2314 -0.4958
vn -0.3637 0.0035 -0.9315
vn -0.7336 -0.2463 0.6334
vn -0.0242 0.1569 -0.9873
vn -0.0633 0.9898 -0.1277
vn -0.0388 0.9931 0.1110
vn -0.3510 -0.2978 0.8877
vn -0.3838 -0.2572 0.8869
vn -0.0414 0.9868 -0.1566
vn -0.0405 0.9831 -0.1788
vn -0.4371 -0.5465 -0.7144
vn -0.4641 -0.3451 -0.8158
vn 0.0761 0.9969 -0.0184
vn 0.0770 0.9949 0.0654
vn 0.1110 0.9935 -0.0251
vn 0.9406 -0.3167 -0.1224
vn 0.9366 -0.3461 0.0541
vn 0.7259 -0.3197 0.6090
vn -0.0423 -0.8297 0.5566
vn -0.1600 -0.8836 0.4400
vn 0.0886 -0.8783 0.4698
vn 0.3433 -0.7391 0.5796
vn 0.2885 -0.5341 -0.7947
vn 0.0897 0.5954 -0.7984
vn 0.5256 -0.1179 -0.8425
vn 0.3952 -0.6012 -0.6945
vn 0.5112 0.6781 -0.5281
vn 0.4619 0.4309 -0.7752
vn -0.0541 0.9931 0.1040
vn 0.7141 0.5502 -0.4328
vn 0.3473 -0.0129 -0.9377
vn 0.7372 -0.2216 -0.6383
vn 0.7498 0.3529 -0.5598
vn 0.8561 -0.2967 -0.4231
vn 0.9268 0.2135 -0.3091
vn 0.9422 -0.1071 -0.3175
vn 0.9768 -0.1873 -0.1041
vn -0.0584 -0.7947 0.6042
vn 0.0401 -0.5098 0.8593
vn 0.1257 -0.9905 0.0562
vn 0.7383 -0.5183 -0.4315
vn 0.1126 -0.1969 0.9739
vn 0.2205 -0.0433 0.9744
vn 0.8746 -0.3112 -0.3717
vn 0.7561 -0.2582 -0.6014
vn 0.8130 -0.0916 -0.5750
vn 0.5690 -0.4330 -0.6991
vn -0.1138 0.9823 0.1490
vn 0.4653 0.0895 -0.8806
vn 0.4301 -0.0147 -0.9027
vn 0.4946 0.1926 -0.8475
vn -0.4240 -0.6783 0.6001
vn 0.2298 0.7342 0.6389
vn 0.1654 0.6422 0.7485
vn 0.3387 0.8249 0.4526
vn 0.4246 0.8735 0.2381
vn 0.2766 -0.9050 0.3231
vn 0.2014 -0.9280 0.3136
vn 0.2249 -0.8869 0.4035
vn 0.4124 -0.8175 0.4021
vn 0.3597 0.9263 0.1121
vn 0.1163 0.9795 0.1642
vn 0.3387 -0.8762 0.3429
vn 0.2226 -0.9233 0.3131
vn 0.2079 -0.4580 -0.8643
vn 0.3716 -0.3362 -0.8654
vn 0.2304 -0.2501 -0.9404
vn 0.1999 0.9727 -0.1178
vn 0.2522 -0.9335 0.2551
vn 0.3229 -0.9121 0.2526
vn -0.6581 -0.2797 -0.6990
vn -0.7680 -0.6132 -0.1851
vn -0.7185 -0.5373 -0.4417
vn -0.5476 -0.2221 -0.8067
vn -0.4255 -0.5473 -0.7207
vn 0.8621 0.3249 0.3888
vn 0.4545 -0.3474 0.8202
vn 0.3033 -0.4206 0.8551
vn 0.3979 -0.3591 0.8442
vn 0.5323 -0.2167 0.8183
vn 0.3158 -0.3473 0.8830
vn 0.1850 -0.4202 0.8884
vn 0.2469 -0.4074 0.8792
vn 0.3665 -0.1876 0.9113
vn 0.1862 -0.2336 0.9543
vn 0.4057 -0.0150 0.9139
vn 0.6170 -0.1196 -0.7778
vn 0.4272 -0.2712 -0.8625
vn 0.1756 -0.4577 -0.8716
vn 0.5828 -0.3168 -0.7483
vn -0.5835 -0.6363 -0.5047
vn -0.9924 -0.1102 -0.0555
vn -0.9900 -0.1408 0.0050
vn 0.4825 0.8522 -0.2025
vn 0.5152 0.8107 -0.2780
vn -0.1227 0.9902 0.0661
vn 0.0579 0.9905 0.1246
vn -0.8015 0.5140 0.3058
vn 0.2532 -0.5404 0.8024
vn -0.0990 -0.8236 0.5584
vn 0.5827 0.8107 -0.0569
vn 0.8709 0.2936 -0.3941
vn 0.2822 0.6990 -0.6571
vn 0.6239 -0.4051 -0.6683
vn 0.3336 -0.9377 0.0970
vn -0.2040 -0.8270 -0.5239
vn 0.2981 -0.9425 0.1513
vn -0.9717 0.2335 -0.0358
vn -0.8693 -0.4762 0.1323
vn -0.8790 -0.4154 0.2339
vn -0.0810 0.7525 0.6536
vn 0.0200 -0.0576 0.9981
vn -0.2088 0.0398 0.9771
vn 0.0808 -0.2762 0.9577
vn 0.1428 -0.3546 0.9240
vn -0.1109 0.3731 0.9212
vn 0.3552 0.5942 0.7217
vn 0.3589 0.6071 0.7090
vn 0.3552 0.5941 0.7217
vn 0.3513 0.5810 0.7342
vn 0.2826 0.2148 0.9349
vn 0.3845 0.3636 0.8485
vn 0.2826 0.2147 0.9349
vn 0.1693 0.0573 0.9839
vn 0.8631 0.0887 -0.4972
vn 0.8878 -0.0951 -0.4502
vn 0.9118 -0.2524 0.3239
vn 0.6680 0.1319 0.7324
vn -0.1032 0.9279 -0.3582
vn -0.0184 0.8311 -0.5559
vn -0.1032 0.9216 -0.3741
vn 0.2925 -0.0784 -0.9530
vn 0.2709 0.1398 -0.9524
vn 0.3606 0.4222 -0.8317
vn 0.1276 0.4383 -0.8898
vn 0.5892 0.2405 -0.7713
vn 0.2106 0.1692 -0.9628
vn 0.1709 -0.0345 0.9847
vn 0.2561 0.0064 0.9666
vn 0.1750 0.2571 0.9504
vn 0.8672 0.3136 0.3869
vn 0.9179 -0.3167 -0.2391
vn 0.3534 -0.6944 -0.6268
vn 0.3693 0.4151 -0.8315
vn 0.8923 -0.3574 -0.2758
vn 0.9579 0.1378 0.2517
vn 0.8771 -0.1796 -0.4454
vn 0.7215 0.3359 0.6054
vn 0.7524 0.3461 0.5605
vn 0.5289 -0.3449 -0.7755
vn 0.3847 -0.3102 -0.8694
vn 0.4671 -0.1258 -0.8752
vn 0.3199 -0.1319 -0.9382
vn -0.3336 -0.3546 0.8735
vn 0.0097 -0.1495 0.9887
vn -0.6191 -0.4983 0.6070
vn 0.5400 0.0157 -0.8415
vn 0.5681 0.0283 -0.8225
vn 0.5624 0.1193 -0.8182
vn 0.5572 -0.0136 -0.8302
vn 0.9129 0.1906 -0.3611
vn 0.7515 0.1245 -0.6478
vn 0.8412 0.4216 0.3387
vn 0.7336 -0.2463 0.6334
vn 0.0242 0.1569 -0.9873
vn 0.7421 -0.2390 -0.6262
vn 0.0633 0.9898 -0.1277
vn 0.0388 0.9931 0.1110
vn 0.3838 -0.2572 0.8869
vn 0.3510 -0.2978 0.8877
vn 0.0414 0.9868 -0.1566
vn 0.0405 0.9831 -0.1788
vn 0.4371 -0.5465 -0.7144
vn -0.3946 -0.2280 -0.8901
vn 0.8694 -0.4762 0.1323
vn 0.8425 0.5356 -0.0583
vn 0.8790 -0.4154 0.2338
vt 0.985488 1.806279
vt 0.808544 1.790520
vt 0.847436 1.915950
vt 0.420918 1.794605
vt 0.282270 1.815138
vt 0.416267 1.933912
vt 0.591054 1.325171
vt 0.621440 1.310881
vt 0.621440 1.378813
vt 0.535179 1.405848
vt 0.664632 1.641453
vt 0.610791 1.646012
vt 0.647817 1.657533
vt 0.664632 1.655789
vt 0.638148 1.581553
vt 0.609827 1.619099
vt 0.664632 1.617340
vt 0.696410 1.586648
vt 0.668258 1.532409
vt 0.551060 1.645461
vt 0.552284 1.663607
vt 0.547174 1.572648
vt 0.483449 1.656722
vt 0.481430 1.593472
vt 0.548306 1.616345
vt 0.621440 1.480879
vt 0.531675 1.465946
vt 0.664632 1.655100
vt 0.664632 1.653417
vt 0.583297 1.508189
vt 0.511035 1.533037
vt 0.548444 1.778586
vt 0.536097 1.710547
vt 0.474208 1.699348
vt 0.664969 1.762980
vt 0.757916 1.714082
vt 0.781279 1.778586
vt 0.664632 1.698491
vt 0.557471 1.314706
vt 0.056059 1.395551
vt 0.190852 1.387931
vt 0.199604 1.513131
vt 0.025826 1.479915
vt 0.069462 1.775848
vt 0.027800 1.733360
vt 0.027800 1.501809
vt 0.202067 1.532409
vt 0.325829 1.292903
vt 0.465105 1.414523
vt 0.415318 1.718779
vt 0.272738 1.722864
vt 0.234840 1.538254
vt 0.383464 1.565136
vt 0.375156 1.480389
vt 0.258203 1.273319
vt 0.165362 1.772298
vt 0.148379 1.792112
vt 0.414492 1.087378
vt 0.675679 1.087378
vt 0.675679 1.039902
vt 0.414492 1.039902
vt 0.414492 1.134869
vt 0.675679 1.134869
vt 0.855239 1.518012
vt 0.857045 1.467522
vt 0.906709 1.518838
vt 0.871901 1.542247
vt 0.906341 1.572648
vt 0.838639 1.618074
vt 0.845539 1.560485
vt 0.767356 1.575601
vt 0.814128 1.531384
vt 0.762506 1.504747
vt 0.316588 1.164781
vt 0.369816 1.294571
vt 0.381827 1.287533
vt 0.382148 1.149099
vt 0.448963 1.171804
vt 0.396836 1.293408
vt 0.504319 1.223365
vt 0.496393 1.401319
vt 0.513514 1.344831
vt 0.402574 1.310590
vt 0.394969 1.322983
vt 0.518991 1.288742
vt 0.072874 1.056947
vt 0.061980 1.111598
vt 0.164858 1.143851
vt 0.233264 1.077311
vt 0.281153 1.133018
vt 0.296499 1.008094
vt 0.342950 1.105861
vt 0.312457 1.187211
vt 0.229117 1.202450
vt 0.109273 1.214200
vt 0.029483 1.221177
vt 0.030478 1.252389
vt 0.007543 1.284182
vt 0.103780 1.354929
vt 0.173716 1.279638
vt 0.807182 1.369571
vt 0.703601 1.371316
vt 0.703601 1.418700
vt 0.818780 1.419633
vt 0.803954 1.301594
vt 0.703601 1.300201
vt 0.885610 1.126730
vt 0.807060 1.139811
vt 0.888991 1.291297
vt 0.860610 1.419633
vt 0.975788 1.418700
vt 0.925818 1.400447
vt 0.975788 1.281352
vt 0.975788 1.116724
vt 0.876430 1.387411
vt 0.975788 1.357026
vt 0.975788 1.026148
vt 0.892357 1.032482
vt 0.703326 1.132452
vt 0.792555 1.028993
vt 0.703050 1.028137
vt 0.843382 1.354226
vt 0.975788 1.372876
vt 0.103627 1.020548
vt 0.621149 1.161048
vt 0.554227 1.157100
vt 0.554227 1.268806
vt 0.617569 1.290700
vt 0.672557 1.154454
vt 0.672557 1.270244
vt 0.486418 1.485454
vt 0.464202 1.466359
vt 0.417461 1.638637
vt 0.399131 1.657089
vt 0.406414 1.615335
vt 0.434168 1.627009
vt 0.441650 1.652101
vt 0.436891 1.688714
vt 0.628065 1.505007
vt 0.571271 1.714082
vt 0.664601 1.698491
vt 0.696410 1.500279
vt 0.664632 1.894484
vt 0.638515 1.924809
vt 0.705667 1.991578
vt 0.592844 1.968964
vt 0.665137 1.894484
vt 0.514447 1.928633
vt 0.287104 1.937110
vt 0.461984 1.581936
vt 0.845463 1.674470
vt 0.985488 1.977471
vt 0.131810 1.827699
vt 0.131810 1.935656
vt 0.985488 1.679305
vt 0.960320 1.631660
vt 0.482577 1.450325
vt 0.259564 1.255418
vt 0.815490 1.928633
s 1
g off
g mesh_1_Material.002
usemtl Material.002
f 1/1/1 2/2/2 3/3/3
f 4/4/4 5/5/5 6/6/6
f 7/7/7 8/8/8 9/9/9
f 7/7/7 9/9/9 10/10/10
f 11/11/11 12/12/12 13/13/13
f 11/11/11 13/13/13 14/14/14
f 15/15/15 16/16/16 17/17/17
f 15/15/15 17/17/17 18/18/18
f 19/19/19 15/15/15 18/18/18
f 20/20/20 21/21/21 13/13/13
f 15/15/15 22/22/22 16/16/16
f 23/23/23 21/21/21 20/20/20
f 24/24/24 23/23/23 25/25/25
f 13/13/13 12/12/12 20/20/20
f 26/26/26 27/27/27 10/10/10
f 26/26/26 10/10/10 9/9/9
f 28/28/28 13/13/13 29/29/29
f 30/30/30 31/31/31 27/27/27
f 4/4/4 32/32/32 33/33/33
f 4/4/4 33/33/33 34/34/34
f 33/33/33 21/21/21 23/23/23
f 13/13/13 21/21/21 33/33/33
f 35/35/35 36/36/36 37/37/37
f 33/33/33 38/38/38 13/13/13
f 23/23/23 34/34/34 33/33/33
f 13/13/13 39/28/39 14/14/14
f 30/30/30 27/27/27 26/26/26
f 40/11/40 41/17/41 42/16/42
f 40/11/40 42/16/42 43/12/43
f 10/10/10 44/39/44 7/7/7
f 45/40/45 46/41/46 47/42/47
f 45/40/45 47/42/47 48/43/48
f 49/44/49 50/45/50 51/46/51
f 49/44/49 51/46/51 52/47/52
f 47/42/47 46/41/46 53/48/53
f 53/48/53 54/49/54 47/42/47
f 55/50/55 56/51/56 52/47/52
f 57/52/57 58/53/58 59/54/59
f 46/41/46 60/55/60 53/48/53
f 52/47/52 56/51/56 61/56/61
f 61/56/61 62/57/62 49/44/49
f 63/58/63 64/59/64 65/60/65
f 63/58/63 65/60/65 66/61/66
f 67/62/67 68/63/68 64/59/64
f 67/62/67 64/59/64 63/58/63
f 69/64/69 70/65/70 71/66/71
f 69/64/69 71/66/71 72/67/72
f 72/67/72 71/66/71 73/68/73
f 72/67/72 73/68/73 74/69/74
f 72/67/72 74/69/74 75/70/75
f 75/70/75 74/69/74 76/71/76
f 75/70/75 76/71/76 77/72/77
f 77/72/77 76/71/76 78/73/78
f 77/72/77 78/73/78 70/65/70
f 77/72/77 70/65/70 69/64/69
f 79/74/79 80/75/80 81/76/81
f 79/74/79 81/76/81 82/77/82
f 82/77/82 81/76/81 83/78/83
f 83/78/83 81/76/81 84/79/84
f 83/78/83 84/79/84 85/80/85
f 86/81/86 87/82/87 88/83/88
f 86/81/86 88/83/88 89/84/89
f 87/82/87 90/85/90 88/83/88
f 90/85/90 85/80/85 84/79/84
f 90/85/90 84/79/84 88/83/88
f 91/58/91 92/59/92 68/63/68
f 91/58/91 68/63/68 67/62/67
f 66/61/66 65/60/65 92/59/92
f 66/61/66 92/59/92 91/58/91
f 93/86/93 94/87/94 95/88/95
f 96/89/96 97/90/97 98/91/98
f 98/91/98 97/90/97 99/92/99
s 2
f 100/93/100 97/90/101 101/94/102
s 1
f 102/95/103 103/96/104 104/97/105
f 104/97/105 105/98/106 106/99/107
f 102/95/103 107/94/108 95/88/95
f 107/94/108 102/95/103 108/100/109
f 109/101/110 110/102/111 111/103/112
f 109/101/110 111/103/112 112/104/113
f 113/105/114 114/106/115 115/102/114
f 113/105/114 115/102/114 116/101/116
f 117/107/117 118/108/118 119/105/119
f 117/107/117 119/105/119 120/109/120
f 121/110/121 122/111/122 123/112/123
f 124/113/124 125/114/125 117/107/117
f 124/113/124 117/107/117 120/109/120
f 126/115/126 127/116/127 124/113/124
f 126/115/126 124/113/124 120/109/120
f 125/114/125 128/117/128 129/118/129
f 125/114/125 129/118/129 117/107/117
f 119/105/119 118/108/118 130/119/130
f 119/105/119 130/119/130 131/106/131
f 118/108/118 132/120/132 133/121/133
f 118/108/118 133/121/133 130/119/130
f 126/115/126 120/109/120 134/122/134
f 134/122/134 120/109/120 119/105/119
f 119/105/119 135/101/135 134/122/134
f 126/115/126 121/110/121 123/112/123
f 123/112/123 136/123/136 127/116/127
f 123/112/123 127/116/127 126/115/126
f 94/87/94 102/95/103 95/88/95
f 93/86/93 96/89/96 137/124/137
f 138/125/138 139/126/139 140/127/140
f 138/125/138 140/127/140 141/128/141
f 142/129/142 138/125/138 141/128/141
f 142/129/142 141/128/141 143/130/143
f 59/54/59 144/131/144 145/132/145
f 146/133/146 147/134/147 148/135/146
f 146/133/146 148/135/146 149/136/148
f 34/34/34 150/137/149 151/138/150
f 23/23/23 150/137/149 34/34/34
f 97/90/97 96/89/96 95/88/95
f 97/90/97 95/88/95 107/94/108
f 22/22/22 15/15/15 152/139/151
f 144/131/144 59/54/59 58/53/58
f 12/12/12 16/16/16 25/25/25
f 12/12/12 25/25/25 20/20/20
f 22/22/22 24/24/24 25/25/25
f 23/23/23 20/20/20 25/25/25
f 22/22/22 25/25/25 16/16/16
f 153/140/152 38/38/38 33/33/33
f 117/107/117 129/118/129 132/120/132
f 117/107/117 132/120/132 118/108/118
f 29/29/29 13/13/13 38/38/38
f 32/32/32 153/140/152 33/33/33
f 35/35/35 154/141/153 36/36/36
f 19/19/19 152/139/151 15/15/15
f 155/142/154 19/19/19 18/18/18
f 93/86/93 95/88/95 96/89/96
f 108/100/109 104/97/105 106/99/107
f 108/100/109 102/95/103 104/97/105
f 49/44/49 52/47/52 61/56/61
f 156/143/155 157/144/156 158/145/157
f 159/146/158 158/145/157 157/144/156
s 2
f 160/147/159 161/148/160 162/144/161
s 1
f 5/5/5 163/149/162 6/6/6
f 164/150/163 144/131/144 58/53/58
f 161/148/160 32/32/32 4/4/4
f 161/148/160 4/4/4 6/6/6
f 1/1/1 165/151/164 2/2/2
f 3/3/3 166/152/165 1/1/1
f 5/5/5 167/153/166 168/154/167
f 5/5/5 168/154/167 163/149/162
f 169/155/168 170/156/169 165/151/164
f 169/155/168 165/151/164 1/1/1
s 2
f 171/157/170 172/54/170 145/132/171
s 1
f 173/1/172 174/3/173 175/2/174
f 176/4/175 177/6/176 178/5/177
f 179/7/178 180/10/179 181/9/180
f 179/7/178 181/9/180 182/8/181
f 183/11/182 184/14/183 185/13/184
f 183/11/182 185/13/184 186/12/185
f 187/15/186 188/18/187 189/17/188
f 187/15/186 189/17/188 190/16/189
f 191/19/190 188/18/187 187/15/186
f 192/20/191 185/13/184 193/21/192
f 194/25/193 195/22/194 190/16/189
f 196/23/195 192/20/191 193/21/192
f 197/24/196 194/25/193 196/23/195
f 185/13/184 192/20/191 186/12/185
f 198/26/197 181/9/180 180/10/179
f 198/26/197 180/10/179 199/27/198
f 200/28/199 201/29/200 185/13/184
f 202/30/201 199/27/198 203/31/202
f 176/4/175 204/33/203 205/32/204
f 176/4/175 206/34/205 204/33/203
f 204/33/203 196/23/195 193/21/192
f 185/13/184 204/33/203 193/21/192
f 35/35/35 205/32/204 207/140/206
f 204/33/203 185/13/184 154/141/153
f 196/23/195 204/33/203 206/34/205
f 185/13/184 184/14/183 208/28/207
f 202/30/201 198/26/197 199/27/198
f 209/11/208 210/12/209 211/16/208
f 209/11/208 211/16/208 212/17/210
f 180/10/179 179/7/178 213/39/211
f 214/40/212 215/43/213 216/42/214
f 214/40/212 216/42/214 217/41/215
f 218/44/216 219/47/217 220/46/218
f 218/44/216 220/46/218 221/45/219
f 216/42/214 222/48/220 217/41/215
f 222/48/220 216/42/214 223/49/221
f 224/50/222 219/47/217 225/51/223
f 226/52/224 227/54/225 228/53/226
f 217/41/215 222/48/220 229/55/227
f 219/47/217 230/56/228 225/51/223
f 230/56/228 218/44/216 231/57/229
f 232/58/230 233/61/231 234/60/232
f 232/58/230 234/60/232 235/59/233
f 236/62/234 232/58/230 235/59/233
f 236/62/234 235/59/233 237/63/235
f 238/64/236 239/67/237 240/66/238
f 238/64/236 240/66/238 241/65/239
f 239/67/237 242/68/240 240/66/238
f 239/67/237 243/70/241 244/69/242
f 239/67/237 244/69/242 242/68/240
f 243/70/241 245/72/243 246/71/244
f 243/70/241 246/71/244 244/69/242
f 245/72/243 247/73/245 246/71/244
f 245/72/243 238/64/236 241/65/239
f 245/72/243 241/65/239 247/73/245
f 248/74/246 249/77/247 250/76/248
f 248/74/246 250/76/248 251/75/249
f 249/77/247 252/78/250 250/76/248
f 252/78/250 253/80/251 254/79/252
f 252/78/250 254/79/252 250/76/248
f 255/81/253 256/84/254 257/83/255
f 255/81/253 257/83/255 258/82/256
f 258/82/256 257/83/255 259/85/257
f 259/85/257 257/83/255 254/79/252
f 259/85/257 254/79/252 253/80/251
f 260/58/258 236/62/234 237/63/235
f 260/58/258 237/63/235 261/59/259
f 233/61/231 260/58/258 261/59/259
f 233/61/231 261/59/259 234/60/232
f 262/87/260 263/86/261 264/88/262
f 265/89/263 266/91/264 267/90/265
f 266/91/264 268/92/266 267/90/265
f 269/94/267 267/90/265 270/93/268
f 269/94/267 270/93/268 271/158/269
f 272/95/270 273/97/271 274/96/272
f 273/97/271 275/99/273 276/98/274
f 272/95/270 264/88/262 269/94/267
f 272/95/270 269/94/267 277/100/275
f 278/101/276 279/104/277 280/103/278
f 278/101/276 280/103/278 281/102/279
f 282/105/280 283/101/281 284/102/282
f 282/105/280 284/102/282 285/106/283
f 286/107/284 287/109/285 288/105/286
f 286/107/284 288/105/286 289/108/287
f 290/110/288 291/112/289 292/111/290
f 293/113/291 287/109/285 286/107/284
f 293/113/291 286/107/284 294/114/292
f 295/115/293 287/109/285 293/113/291
f 295/115/293 293/113/291 296/116/294
f 294/114/292 286/107/284 297/118/295
f 294/114/292 297/118/295 298/117/296
f 288/105/286 299/106/297 300/119/298
f 288/105/286 300/119/298 289/108/287
f 289/108/287 300/119/298 301/121/299
f 289/108/287 301/121/299 302/120/300
f 295/115/293 303/122/301 287/109/285
f 303/122/301 288/105/286 287/109/285
f 288/105/286 303/122/301 304/101/302
f 295/115/293 291/112/289 290/110/288
f 291/112/289 295/115/293 296/116/294
f 291/112/289 296/116/294 305/123/303
f 264/88/262 272/95/270 262/87/260
f 263/86/261 306/124/304 265/89/263
f 307/125/305 308/128/306 309/127/307
f 307/125/305 309/127/307 310/126/308
f 311/129/309 312/130/310 308/128/306
f 311/129/309 308/128/306 307/125/305
f 227/54/225 313/132/311 314/131/312
f 315/133/313 316/135/313 317/134/314
f 315/133/313 318/136/315 316/135/313
f 206/34/205 319/138/316 320/137/317
f 196/23/195 206/34/205 320/137/317
f 267/90/265 269/94/267 264/88/262
f 267/90/265 264/88/262 265/89/263
f 195/22/194 321/139/318 187/15/186
f 314/131/312 228/53/226 227/54/225
f 186/12/185 194/25/193 190/16/189
f 186/12/185 192/20/191 194/25/193
f 195/22/194 194/25/193 197/24/196
f 196/23/195 194/25/193 192/20/191
f 190/16/189 195/22/194 187/15/186
f 207/140/206 204/33/203 154/141/153
f 286/107/284 289/108/287 302/120/300
f 286/107/284 302/120/300 297/118/295
f 201/29/200 154/141/153 185/13/184
f 205/32/204 204/33/203 207/140/206
f 35/35/35 207/140/206 154/141/153
f 191/19/190 187/15/186 321/139/318
f 322/142/319 188/18/187 191/19/190
f 263/86/261 265/89/263 264/88/262
f 277/100/275 275/99/273 273/97/271
f 277/100/275 273/97/271 272/95/270
f 218/44/216 230/56/228 219/47/217
f 160/147/159 323/145/320 324/144/321
f 325/146/322 324/144/321 323/145/320
f 178/5/177 177/6/176 326/149/323
f 327/150/324 228/53/226 314/131/312
f 328/148/325 177/6/176 176/4/175
f 328/148/325 176/4/175 205/32/204
f 173/1/172 175/2/174 329/151/326
f 174/3/173 173/1/172 330/152/327
f 178/5/177 326/149/323 331/154/328
f 178/5/177 331/154/328 332/153/329
f 328/148/325 205/32/204 160/147/159
f 333/155/330 173/1/172 329/151/326
f 333/155/330 329/151/326 334/156/331
f 335/157/332 336/132/332 337/54/332
f 328/148/325 160/147/159 324/144/321
f 35/35/35 160/147/159 205/32/204
f 37/37/37 160/147/159 35/35/35
f 37/37/37 338/159/333 160/147/159
s 4
f 100/93/334 107/94/335 339/158/336
g mesh_1.001_Mesh
v -0.779700 0.881000 0.592640
v -0.632750 0.981260 0.572780
v -0.683340 1.099800 -0.610760
v -0.881590 1.071480 -0.680500
v -0.553280 1.182160 0.827800
v -0.568040 1.061160 0.809360
v 0.568040 1.061160 0.809360
v 0.553280 1.182160 0.827800
v -0.598740 0.603390 0.448460
v 0.598740 0.603390 0.448460
v 0.695240 0.603390 -0.549060
v -0.695240 0.603390 -0.549060
v -0.783240 0.977920 0.820060
v -0.568040 1.061160 0.809360
v -0.632750 0.981260 0.572780
v -0.779700 0.881000 0.592640
v -0.632750 0.981260 0.572780
v -0.598740 0.603390 0.448460
v -0.695240 0.603390 -0.549060
v -0.683340 1.099800 -0.610760
v -0.535150 1.159010 0.665840
v -0.568040 1.061160 0.809360
v -0.553280 1.182160 0.827800
v -0.598740 0.603390 0.448460
v -0.568040 1.061160 0.809360
v -0.535150 1.159010 0.665840
v -0.598740 0.603390 0.448460
v -0.632750 0.981260 0.572780
v -0.568040 1.061160 0.809360
v -0.553280 1.182160 0.827800
v 0.553280 1.182160 0.827800
v 0.535150 1.159010 0.665840
v -0.535150 1.159010 0.665840
v -0.535150 1.159010 0.665840
v 0.535150 1.159010 0.665840
v 0.598740 0.603390 0.448460
v -0.598740 0.603390 0.448460
v 0.779700 0.881000 0.592640
v 0.881590 1.071480 -0.680500
v 0.683340 1.099800 -0.610760
v 0.632750 0.981260 0.572780
v 0.783240 0.977920 0.820060
v 0.779700 0.881000 0.592640
v 0.632750 0.981260 0.572780
v 0.568040 1.061160 0.809360
v 0.535150 1.159010 0.665840
v 0.553280 1.182160 0.827800
v 0.568040 1.061160 0.809360
v 0.598740 0.603390 0.448460
v 0.535150 1.159010 0.665840
v 0.568040 1.061160 0.809360
v 0.598740 0.603390 0.448460
v 0.568040 1.061160 0.809360
v 0.632750 0.981260 0.572780
v 0.632750 0.981260 0.572780
v 0.683340 1.099800 -0.610760
v 0.695240 0.603390 -0.549060
v 0.598740 0.603390 0.448460
v -0.695240 0.603390 -0.549060
v 0.695240 0.603390 -0.549060
v 0.683340 1.099800 -0.610760
v -0.683340 1.099800 -0.610760
v 0.282340 1.132320 -0.243740
v 0.148930 1.357840 -0.316520
v 0.122290 1.316830 -0.303290
v 0.231500 1.132320 -0.243740
v -0.120860 1.316830 -0.303290
v 0.122290 1.316830 -0.303290
v 0.148930 1.357840 -0.316520
v -0.148860 1.357840 -0.316520
v -0.148860 1.357840 -0.316520
v -0.276880 1.132320 -0.243740
v -0.226040 1.132320 -0.243740
v -0.120860 1.316830 -0.303290
v -0.276880 1.132320 -0.243740
v -0.142840 0.906800 -0.170960
v -0.116100 0.947800 -0.184190
v -0.226040 1.132320 -0.243740
v 0.124560 0.947800 -0.184190
v -0.116100 0.947800 -0.184190
v -0.142840 0.906800 -0.170960
v 0.151300 0.906800 -0.170960
v 0.151300 0.906800 -0.170960
v 0.282340 1.132320 -0.243740
v 0.231500 1.132320 -0.243740
v 0.124560 0.947800 -0.184190
v 0.067180 1.102160 -0.336100
v -0.032590 1.156170 -0.353530
v -0.031500 1.048150 -0.318670
v -0.031500 1.048150 -0.318670
v 0.067180 1.102160 -0.336100
v 0.135790 0.925420 -0.181670
v 0.067180 1.102160 -0.336100
v -0.032590 1.156170 -0.353530
v 0.135260 1.335920 -0.314150
v -0.032590 1.156170 -0.353530
v -0.031500 1.048150 -0.318670
v -0.250380 1.130670 -0.247910
v 0.014070 0.762570 -1.189380
v -0.031500 1.048150 -0.318670
v -0.032590 1.156170 -0.353530
v 0.014070 0.762570 -1.189380
v -0.032590 1.156170 -0.353530
v 0.067180 1.102160 -0.336100
v 0.014070 0.762570 -1.189380
v 0.067180 1.102160 -0.336100
v -0.031500 1.048150 -0.318670
v 0.000000 0.853550 1.795600
v 0.565840 0.554360 1.875860
v 0.534640 0.806090 1.710280
v -0.678420 1.032760 1.302950
v -0.568040 1.061160 0.809360
v -0.783240 0.977920 0.820060
v -0.790140 0.987830 1.291710
v -0.841740 0.283500 1.526080
v -0.845370 0.283500 1.700820
v -0.836820 0.542690 1.653080
v -0.834620 0.685930 1.428520
v -0.803420 0.685930 0.709940
v -0.794560 0.839700 1.070520
v -0.783240 0.977920 0.820060
v 0.000000 0.853550 1.795600
v 0.568040 1.061160 0.809360
v -0.568040 1.061160 0.809360
v 0.678420 1.032760 1.302950
v 0.790140 0.987830 1.291710
v 0.783240 0.977920 0.820060
v 0.568040 1.061160 0.809360
v 0.591010 0.283500 0.652430
v 0.576800 0.706370 0.989170
v 0.608660 0.283500 1.526080
v -0.877780 0.346380 -0.496640
v -0.947450 0.384000 -0.515180
v -0.766560 0.385330 -0.670600
v -0.947450 0.384000 -0.515180
v -0.947450 0.459230 -0.515180
v -0.766570 0.457870 -0.670660
v -0.766560 0.385330 -0.670600
v -0.947450 0.459230 -0.515180
v -0.877780 0.496840 -0.496640
v -0.766570 0.457870 -0.670660
v 0.877780 0.346380 -0.496640
v 0.766560 0.385330 -0.670600
v 0.947450 0.384000 -0.515180
v 0.947450 0.384000 -0.515180
v 0.766560 0.385330 -0.670600
v 0.766570 0.457870 -0.670660
v 0.947450 0.459230 -0.515180
v 0.947450 0.459230 -0.515180
v 0.766570 0.457870 -0.670660
v 0.877780 0.496840 -0.496640
v -0.407360 1.160000 -0.862590
v 0.407360 1.160000 -0.862590
v 0.339100 1.324500 -0.985230
v -0.339100 1.324500 -0.985230
v 0.289350 1.166870 -0.913220
v -0.289350 1.166870 -0.913220
v -0.289350 1.045560 -0.913220
v 0.289350 1.045560 -0.913220
v -0.533660 0.856630 -1.786240
v -0.366020 0.856620 -1.834920
v -0.386440 0.835450 -2.151740
v -0.512140 0.835450 -2.103080
v -0.386440 0.835450 -2.151740
v -0.426170 0.342320 -2.035000
v -0.483400 0.342320 -2.009560
v -0.512140 0.835450 -2.103080
v -0.366020 0.856620 -1.834920
v -0.426170 0.342320 -2.035000
v -0.386440 0.835450 -2.151740
v -0.483400 0.342320 -2.009560
v -0.533660 0.856630 -1.786240
v -0.512140 0.835450 -2.103080
v -0.856120 1.099780 -2.038100
v -0.707120 1.192960 -2.077980
v -0.533760 1.109750 -2.084560
v -0.545430 0.799370 -1.930860
v -0.872770 0.796720 -1.884380
v -0.885920 0.644470 -1.991080
v -0.883880 0.781100 -2.009360
v 0.000000 0.781100 -2.146060
v 0.000000 0.644470 -2.127780
v -0.903310 1.127430 -1.682730
v -0.856120 1.099780 -2.038100
v -0.872770 0.796720 -1.884380
v -0.923620 0.775820 -1.583000
v -0.929120 0.643080 -1.590830
v -0.923620 0.775820 -1.583000
v -0.883880 0.781100 -2.009360
v -0.885920 0.644470 -1.991080
v -0.872770 0.796720 -1.884380
v -0.545430 0.799370 -1.930860
v -0.883880 0.781100 -2.009360
v -0.545430 0.799370 -1.930860
v 0.000000 0.796720 -2.044300
v 0.000000 0.781100 -2.146060
v -0.883880 0.781100 -2.009360
v 0.000000 0.628850 -1.996960
v -0.838430 0.628850 -1.860260
v -0.885920 0.644470 -1.991080
v 0.000000 0.644470 -2.127780
v -0.923620 0.775820 -1.583000
v -0.872770 0.796720 -1.884380
v -0.883880 0.781100 -2.009360
v -0.838430 0.628850 -1.860260
v -0.929120 0.643080 -1.590830
v -0.885920 0.644470 -1.991080
v -0.533760 1.109750 -2.084560
v -0.551480 1.114680 -1.746280
v -0.545430 0.799370 -1.930860
v 0.533660 0.856630 -1.786240
v 0.512140 0.835450 -2.103080
v 0.386440 0.835450 -2.151740
v 0.366020 0.856620 -1.834920
v 0.386440 0.835450 -2.151740
v 0.512140 0.835450 -2.103080
v 0.483400 0.342320 -2.009560
v 0.426170 0.342320 -2.035000
v 0.426170 0.342320 -2.035000
v 0.366020 0.856620 -1.834920
v 0.386440 0.835450 -2.151740
v 0.533660 0.856630 -1.786240
v 0.483400 0.342320 -2.009560
v 0.512140 0.835450 -2.103080
v 0.856120 1.099780 -2.038100
v 0.872770 0.796720 -1.884380
v 0.545430 0.799370 -1.930860
v 0.533760 1.109750 -2.084560
v 0.707120 1.192960 -2.077980
v 0.885920 0.644470 -1.991080
v 0.000000 0.644470 -2.127780
v 0.000000 0.781100 -2.146060
v 0.883880 0.781100 -2.009360
v 0.929120 0.643080 -1.590830
v 0.885920 0.644470 -1.991080
v 0.883880 0.781100 -2.009360
v 0.923620 0.775820 -1.583000
v 0.872770 0.796720 -1.884380
v 0.883880 0.781100 -2.009360
v 0.545430 0.799370 -1.930860
v 0.545430 0.799370 -1.930860
v 0.883880 0.781100 -2.009360
v 0.000000 0.781100 -2.146060
v 0.000000 0.796720 -2.044300
v 0.000000 0.628850 -1.996960
v 0.000000 0.644470 -2.127780
v 0.885920 0.644470 -1.991080
v 0.838430 0.628850 -1.860260
v 0.923620 0.775820 -1.583000
v 0.883880 0.781100 -2.009360
v 0.872770 0.796720 -1.884380
v 0.838430 0.628850 -1.860260
v 0.885920 0.644470 -1.991080
v 0.929120 0.643080 -1.590830
v 0.903310 1.127430 -1.682730
v 0.707120 1.192960 -2.077980
v 0.683340 1.099800 -0.610760
v 0.881590 1.071480 -0.680500
v 0.903310 1.127430 -1.682730
v 0.923620 0.775820 -1.583000
v 0.872770 0.796720 -1.884380
v 0.856120 1.099780 -2.038100
v 0.533760 1.109750 -2.084560
v 0.545430 0.799370 -1.930860
v 0.551480 1.114680 -1.746280
v -0.785990 0.516570 1.960440
v -0.836820 0.542690 1.653080
v -0.845370 0.283500 1.700820
v -0.785990 0.283500 1.960440
v -0.565840 0.554360 1.875860
v -0.534640 0.806090 1.710280
v -0.606820 0.814140 2.047900
v -0.673640 0.829710 2.067440
v -0.565840 0.554360 1.875860
v -0.606820 0.814140 2.047900
v -0.606820 0.814140 2.047900
v -0.678420 1.032760 1.302950
v -0.673640 0.829710 2.067440
v -0.534640 0.806090 1.710280
v -0.568040 1.061160 0.809360
v -0.678420 1.032760 1.302950
v -0.606820 0.814140 2.047900
v -0.836820 0.542690 1.653080
v -0.751450 0.554360 1.877640
v -0.790140 0.987830 1.291710
v -0.834620 0.685930 1.428520
v -0.751450 0.554360 1.877640
v -0.740460 0.775490 2.009880
v -0.790140 0.987830 1.291710
v -0.673640 0.829710 2.067440
v -0.678420 1.032760 1.302950
v -0.790140 0.987830 1.291710
v -0.740460 0.775490 2.009880
v -0.751450 0.554360 1.877640
v -0.565840 0.554360 1.875860
v -0.673640 0.829710 2.067440
v -0.740460 0.775490 2.009880
v 0.785990 0.516570 1.960440
v 0.785990 0.283500 1.960440
v 0.845370 0.283500 1.700820
v 0.836820 0.542690 1.653080
v 0.565840 0.554360 1.875860
v 0.606820 0.814140 2.047900
v 0.534640 0.806090 1.710280
v 0.751450 0.554360 1.877640
v 0.785990 0.516570 1.960440
v 0.836820 0.542690 1.653080
v 0.673640 0.829710 2.067440
v 0.606820 0.814140 2.047900
v 0.565840 0.554360 1.875860
v 0.000000 0.452500 2.000760
v 0.565840 0.554360 1.875860
v 0.000000 0.490290 1.917940
v 0.000000 0.283500 2.000760
v 0.785990 0.283500 1.960440
v 0.785990 0.516570 1.960440
v 0.000000 0.452500 2.000760
v 0.606820 0.814140 2.047900
v 0.673640 0.829710 2.067440
v 0.678420 1.032760 1.302950
v 0.534640 0.806090 1.710280
v 0.606820 0.814140 2.047900
v 0.678420 1.032760 1.302950
v 0.568040 1.061160 0.809360
v 0.751450 0.554360 1.877640
v 0.790140 0.987830 1.291710
v 0.740460 0.775490 2.009880
v 0.673640 0.829710 2.067440
v 0.740460 0.775490 2.009880
v 0.790140 0.987830 1.291710
v 0.678420 1.032760 1.302950
v 0.751450 0.554360 1.877640
v 0.740460 0.775490 2.009880
v 0.673640 0.829710 2.067440
v 0.565840 0.554360 1.875860
v -0.823590 0.283500 0.652430
v -0.926510 0.725720 -0.826300
v -0.889660 0.283500 -0.654450
v -0.779700 0.881000 0.592640
v -0.881590 1.071480 -0.680500
v -0.926510 0.725720 -0.826300
v -0.823590 0.283500 0.652430
v -0.803420 0.685930 0.709940
v -0.888690 0.384000 0.320750
v -0.888690 0.459230 0.320750
v -0.947450 0.459230 -0.515180
v -0.947450 0.384000 -0.515180
v -0.877780 0.346380 -0.496640
v -0.823170 0.346380 0.339290
v -0.888690 0.384000 0.320750
v -0.947450 0.384000 -0.515180
v -0.888690 0.459230 0.320750
v -0.823170 0.496840 0.339290
v -0.877780 0.496840 -0.496640
v -0.947450 0.459230 -0.515180
v -0.888690 0.459230 0.320750
v -0.888690 0.384000 0.320750
v -0.950190 0.372240 0.439530
v -0.950170 0.471020 0.439600
v -0.888690 0.384000 0.320750
v -0.823170 0.346380 0.339290
v -0.921160 0.322840 0.517860
v -0.950190 0.372240 0.439530
v -0.823170 0.346380 0.339290
v -0.757650 0.384000 0.357840
v -0.892100 0.372200 0.596280
v -0.921160 0.322840 0.517860
v -0.757650 0.384000 0.357840
v -0.757650 0.459230 0.357840
v -0.892070 0.470980 0.596360
v -0.892100 0.372200 0.596280
v -0.757650 0.459230 0.357840
v -0.823170 0.496840 0.339290
v -0.921100 0.520390 0.518020
v -0.892070 0.470980 0.596360
v -0.823170 0.496840 0.339290
v -0.888690 0.459230 0.320750
v -0.950170 0.471020 0.439600
v -0.921100 0.520390 0.518020
v 0.823590 0.283500 0.652430
v 0.889660 0.283500 -0.654450
v 0.926510 0.725720 -0.826300
v 0.779700 0.881000 0.592640
v 0.803420 0.685930 0.709940
v 0.823590 0.283500 0.652430
v 0.926510 0.725720 -0.826300
v 0.881590 1.071480 -0.680500
v 0.888690 0.384000 0.320750
v 0.947450 0.384000 -0.515180
v 0.947450 0.459230 -0.515180
v 0.888690 0.459230 0.320750
v 0.823170 0.346380 0.339290
v 0.877780 0.346380 -0.496640
v 0.947450 0.384000 -0.515180
v 0.888690 0.384000 0.320750
v 0.888690 0.459230 0.320750
v 0.947450 0.459230 -0.515180
v 0.877780 0.496840 -0.496640
v 0.823170 0.496840 0.339290
v 0.888690 0.459230 0.320750
v 0.950170 0.471020 0.439600
v 0.950190 0.372240 0.439530
v 0.888690 0.384000 0.320750
v 0.888690 0.384000 0.320750
v 0.950190 0.372240 0.439530
v 0.921160 0.322840 0.517860
v 0.823170 0.346380 0.339290
v 0.823170 0.346380 0.339290
v 0.921160 0.322840 0.517860
v 0.892100 0.372200 0.596280
v 0.757650 0.384000 0.357840
v 0.757650 0.384000 0.357840
v 0.892100 0.372200 0.596280
v 0.892070 0.470980 0.596360
v 0.757650 0.459230 0.357840
v 0.757650 0.459230 0.357840
v 0.892070 0.470980 0.596360
v 0.921100 0.520390 0.518020
v 0.823170 0.496840 0.339290
v 0.823170 0.496840 0.339290
v 0.921100 0.520390 0.518020
v 0.950170 0.471020 0.439600
v 0.888690 0.459230 0.320750
v 0.000000 0.628850 -1.996960
v 0.000000 0.283500 -2.136380
v -0.846030 0.283500 -1.986360
v -0.838430 0.628850 -1.860260
v -0.964770 0.283500 -1.610400
v -0.929120 0.643080 -1.590830
v -0.838430 0.628850 -1.860260
v -0.846030 0.283500 -1.986360
v 0.000000 0.628850 -1.996960
v 0.838430 0.628850 -1.860260
v 0.846030 0.283500 -1.986360
v 0.000000 0.283500 -2.136380
v 0.929120 0.643080 -1.590830
v 0.964770 0.283500 -1.610400
v 0.846030 0.283500 -1.986360
v 0.838430 0.628850 -1.860260
v 0.000000 0.796720 -2.044300
v -0.545430 0.799370 -1.930860
v -0.551480 1.114680 -1.746280
v 0.000000 1.139670 -1.869040
v 0.000000 0.796720 -2.044300
v 0.000000 1.139670 -1.869040
v 0.551480 1.114680 -1.746280
v 0.545430 0.799370 -1.930860
v 0.000000 1.139670 -1.869040
v -0.683340 1.099800 -0.610760
v 0.683340 1.099800 -0.610760
v -0.339100 1.324500 -0.985230
v 0.339100 1.324500 -0.985230
v 0.339520 1.403670 -1.656520
v -0.339520 1.403670 -1.656520
v 0.407360 1.160000 -0.862590
v 0.412000 1.184810 -1.553340
v 0.339520 1.403670 -1.656520
v 0.339100 1.324500 -0.985230
v -0.412000 1.184810 -1.553340
v -0.407360 1.160000 -0.862590
v -0.339100 1.324500 -0.985230
v -0.339520 1.403670 -1.656520
v 0.412000 1.184810 -1.553340
v -0.412000 1.184810 -1.553340
v -0.339520 1.403670 -1.656520
v 0.339520 1.403670 -1.656520
v 0.412000 1.184810 -1.553340
v 0.407360 1.160000 -0.862590
v -0.407360 1.160000 -0.862590
v -0.412000 1.184810 -1.553340
v -0.292300 1.187690 -1.484980
v 0.292300 1.187690 -1.484980
v 0.292300 1.045560 -1.484980
v -0.292300 1.045560 -1.484980
v 0.292300 1.187690 -1.484980
v 0.289350 1.166870 -0.913220
v 0.289350 1.045560 -0.913220
v 0.292300 1.045560 -1.484980
v -0.289350 1.166870 -0.913220
v -0.292300 1.187690 -1.484980
v -0.292300 1.045560 -1.484980
v -0.289350 1.045560 -0.913220
v -0.707120 1.192960 -2.077980
v -0.683340 1.099800 -0.610760
v -0.551480 1.114680 -1.746280
v -0.925060 0.840560 -0.942430
v -0.903310 1.127430 -1.682730
v -0.923620 0.775820 -1.583000
v 0.926510 0.725720 -0.826300
v 0.925060 0.840560 -0.942430
v 0.903310 1.127430 -1.682730
v 0.881590 1.071480 -0.680500
v 0.707120 1.192960 -2.077980
v 0.903310 1.127430 -1.682730
v 0.856120 1.099780 -2.038100
v 0.707120 1.192960 -2.077980
v 0.533760 1.109750 -2.084560
v 0.551480 1.114680 -1.746280
v -0.707120 1.192960 -2.077980
v -0.551480 1.114680 -1.746280
v -0.533760 1.109750 -2.084560
v -0.707120 1.192960 -2.077980
v -0.856120 1.099780 -2.038100
v -0.903310 1.127430 -1.682730
v 0.000000 0.853550 1.795600
v -0.534640 0.806090 1.710280
v -0.565840 0.554360 1.875860
v 0.000000 0.452500 2.000760
v 0.000000 0.490290 1.917940
v -0.565840 0.554360 1.875860
v 0.000000 0.283500 2.000760
v 0.000000 0.452500 2.000760
v -0.785990 0.516570 1.960440
v -0.785990 0.283500 1.960440
v 0.000000 0.452500 2.000760
v -0.565840 0.554360 1.875860
v -0.751450 0.554360 1.877640
v -0.785990 0.516570 1.960440
v 0.000000 0.452500 2.000760
v 0.785990 0.516570 1.960440
v 0.751450 0.554360 1.877640
v 0.565840 0.554360 1.875860
v 0.000000 0.283500 2.000760
v -0.845370 0.283500 1.700820
v -0.841740 0.283500 1.526080
v 0.841740 0.283500 1.526080
v 0.845370 0.283500 1.700820
v -0.751450 0.554360 1.877640
v -0.836820 0.542690 1.653080
v -0.785990 0.516570 1.960440
v 0.785990 0.283500 1.960440
v 0.000000 0.283500 2.000760
v 0.845370 0.283500 1.700820
v -0.785990 0.283500 1.960440
v -0.845370 0.283500 1.700820
v 0.000000 0.283500 2.000760
v 0.823590 0.283500 0.652430
v -0.823590 0.283500 0.652430
v -0.889660 0.283500 -0.654450
v 0.889660 0.283500 -0.654450
v -0.834620 0.685930 1.428520
v -0.790140 0.987830 1.291710
v -0.794560 0.839700 1.070520
v -0.591010 0.283500 0.652430
v -0.608660 0.283500 1.526080
v -0.576800 0.706370 0.989170
v 0.783240 0.977920 0.820060
v 0.803420 0.685930 0.709940
v 0.779700 0.881000 0.592640
v 0.790140 0.987830 1.291710
v 0.794560 0.839700 1.070520
v 0.803420 0.685930 0.709940
v 0.783240 0.977920 0.820060
v 0.836820 0.542690 1.653080
v 0.834620 0.685930 1.428520
v 0.790140 0.987830 1.291710
v 0.751450 0.554360 1.877640
v 0.841740 0.283500 1.526080
v 0.834620 0.685930 1.428520
v 0.836820 0.542690 1.653080
v 0.845370 0.283500 1.700820
v 0.790140 0.987830 1.291710
v 0.834620 0.685930 1.428520
v 0.794560 0.839700 1.070520
v -0.783240 0.977920 0.820060
v -0.779700 0.881000 0.592640
v -0.803420 0.685930 0.709940
v -0.783240 0.977920 0.820060
v -0.794560 0.839700 1.070520
v -0.790140 0.987830 1.291710
v 0.834620 0.685930 1.428520
v 0.841740 0.283500 1.526080
v 0.608660 0.283500 1.526080
v 0.576800 0.706370 0.989170
v 0.823590 0.283500 0.652430
v 0.803420 0.685930 0.709940
v 0.576800 0.706370 0.989170
v 0.591010 0.283500 0.652430
v 0.803420 0.685930 0.709940
v 0.794560 0.839700 1.070520
v 0.576800 0.706370 0.989170
v 0.794560 0.839700 1.070520
v 0.834620 0.685930 1.428520
v 0.576800 0.706370 0.989170
v -0.834620 0.685930 1.428520
v -0.794560 0.839700 1.070520
v -0.576800 0.706370 0.989170
v -0.794560 0.839700 1.070520
v -0.803420 0.685930 0.709940
v -0.576800 0.706370 0.989170
v -0.803420 0.685930 0.709940
v -0.823590 0.283500 0.652430
v -0.591010 0.283500 0.652430
v -0.576800 0.706370 0.989170
v -0.841740 0.283500 1.526080
v -0.834620 0.685930 1.428520
v -0.576800 0.706370 0.989170
v -0.608660 0.283500 1.526080
v -0.608660 0.283500 1.526080
v -0.591010 0.283500 0.652430
v 0.591010 0.283500 0.652430
v 0.608660 0.283500 1.526080
v -0.643180 0.283500 -1.610400
v 0.643180 0.283500 -1.610400
v 0.593110 0.283500 -0.654450
v -0.593100 0.283500 -0.654450
v 0.964770 0.283500 -1.610400
v -0.964770 0.283500 -1.610400
v -0.846030 0.283500 -1.986360
v 0.000000 0.283500 -2.136380
v 0.846030 0.283500 -1.986360
v -0.926510 0.725720 -0.826300
v -0.881590 1.071480 -0.680500
v -0.903310 1.127430 -1.682730
v -0.925060 0.840560 -0.942430
v 0.925060 0.840560 -0.942430
v 0.923620 0.775820 -1.583000
v 0.903310 1.127430 -1.682730
v 0.593110 0.283500 -0.654450
v 0.643180 0.283500 -1.610400
v 0.618140 0.826640 -1.132430
v -0.643180 0.283500 -1.610400
v -0.593100 0.283500 -0.654450
v -0.618140 0.826640 -1.132430
v 0.618140 0.826640 -1.132430
v 0.923620 0.775820 -1.583000
v 0.925060 0.840560 -0.942430
v 0.926510 0.725720 -0.826300
v 0.618140 0.826640 -1.132430
v 0.925060 0.840560 -0.942430
v -0.923620 0.775820 -1.583000
v -0.618140 0.826640 -1.132430
v -0.925060 0.840560 -0.942430
v -0.618140 0.826640 -1.132430
v -0.926510 0.725720 -0.826300
v -0.925060 0.840560 -0.942430
v 0.593110 0.283500 -0.654450
v 0.926510 0.725720 -0.826300
v 0.889660 0.283500 -0.654450
v 0.618140 0.826640 -1.132430
v 0.643180 0.283500 -1.610400
v 0.923620 0.775820 -1.583000
v -0.643180 0.283500 -1.610400
v -0.923620 0.775820 -1.583000
v -0.964770 0.283500 -1.610400
v -0.618140 0.826640 -1.132430
v -0.593100 0.283500 -0.654450
v -0.926510 0.725720 -0.826300
v 0.593110 0.283500 -0.654450
v 0.618140 0.826640 -1.132430
v 0.926510 0.725720 -0.826300
v 0.923620 0.775820 -1.583000
v 0.643180 0.283500 -1.610400
v 0.964770 0.283500 -1.610400
v -0.643180 0.283500 -1.610400
v -0.618140 0.826640 -1.132430
v -0.923620 0.775820 -1.583000
v -0.926510 0.725720 -0.826300
v -0.593100 0.283500 -0.654450
v -0.889660 0.283500 -0.654450
v 0.683340 1.099800 -0.610760
v 0.707120 1.192960 -2.077980
v 0.551480 1.114680 -1.746280
v -0.903310 1.127430 -1.682730
v -0.881590 1.071480 -0.680500
v -0.683340 1.099800 -0.610760
v -0.707120 1.192960 -2.077980
v 0.000000 0.853550 1.795600
v -0.568040 1.061160 0.809360
v -0.534640 0.806090 1.710280
v 0.000000 0.853550 1.795600
v 0.534640 0.806090 1.710280
v 0.568040 1.061160 0.809360
v 0.000000 1.139670 -1.869040
v 0.683340 1.099800 -0.610760
v 0.551480 1.114680 -1.746280
v 0.000000 1.139670 -1.869040
v -0.551480 1.114680 -1.746280
v -0.683340 1.099800 -0.610760
v 0.000000 0.853550 1.795600
v -0.565840 0.554360 1.875860
v 0.000000 0.490290 1.917940
v 0.000000 0.853550 1.795600
v 0.000000 0.490290 1.917940
v 0.565840 0.554360 1.875860
v -1.245180 0.671860 1.334100
v -1.245180 0.438920 1.468580
v -0.720900 0.438920 1.468580
v -0.720900 0.671860 1.334100
v -1.245180 0.438920 1.468580
v -1.245180 0.174030 1.421880
v -0.720900 0.174030 1.421880
v -0.720900 0.438920 1.468580
v -1.245180 0.174030 1.421880
v -1.245180 0.001140 1.215830
v -0.720900 0.001140 1.215830
v -0.720900 0.174030 1.421880
v -1.245180 0.001140 1.215830
v -1.245180 0.001140 0.946860
v -0.720900 0.001140 0.946860
v -0.720900 0.001140 1.215830
v -1.245180 0.001140 0.946860
v -1.245180 0.174030 0.740810
v -0.720900 0.174030 0.740810
v -0.720900 0.001140 0.946860
v -1.245180 0.174030 0.740810
v -1.245180 0.438920 0.694100
v -0.720900 0.438920 0.694100
v -0.720900 0.174030 0.740810
v -1.245180 0.438920 0.694100
v -1.245180 0.671860 0.828590
v -0.720900 0.671860 0.828590
v -0.720900 0.438920 0.694100
v -1.245180 0.671860 0.828590
v -1.245180 0.763850 1.081340
v -0.720900 0.763850 1.081340
v -0.720900 0.671860 0.828590
v -1.245180 0.763850 1.081340
v -1.245180 0.671860 1.334100
v -0.720900 0.671860 1.334100
v -0.720900 0.763850 1.081340
v -1.245180 0.438920 1.468580
v -1.245180 0.671860 1.334100
v -1.245180 0.370640 1.081340
v -1.245180 0.174030 1.421880
v -1.245180 0.438920 1.468580
v -1.245180 0.370640 1.081340
v -1.245180 0.001140 1.215830
v -1.245180 0.174030 1.421880
v -1.245180 0.370640 1.081340
v -1.245180 0.001140 0.946860
v -1.245180 0.001140 1.215830
v -1.245180 0.370640 1.081340
v -1.245180 0.174030 0.740810
v -1.245180 0.001140 0.946860
v -1.245180 0.370640 1.081340
v -1.245180 0.438920 0.694100
v -1.245180 0.174030 0.740810
v -1.245180 0.370640 1.081340
v -1.245180 0.671860 0.828590
v -1.245180 0.438920 0.694100
v -1.245180 0.370640 1.081340
v -1.245180 0.763850 1.081340
v -1.245180 0.671860 0.828590
v -1.245180 0.370640 1.081340
v -1.245180 0.671860 1.334100
v -1.245180 0.763850 1.081340
v -1.245180 0.370640 1.081340
v -0.720900 0.671860 1.334100
v -0.720900 0.438920 1.468580
v -0.720900 0.370640 1.081340
v -0.720900 0.438920 1.468580
v -0.720900 0.174030 1.421880
v -0.720900 0.370640 1.081340
v -0.720900 0.174030 1.421880
v -0.720900 0.001140 1.215830
v -0.720900 0.370640 1.081340
v -0.720900 0.001140 1.215830
v -0.720900 0.001140 0.946860
v -0.720900 0.370640 1.081340
v -0.720900 0.001140 0.946860
v -0.720900 0.174030 0.740810
v -0.720900 0.370640 1.081340
v -0.720900 0.174030 0.740810
v -0.720900 0.438920 0.694100
v -0.720900 0.370640 1.081340
v -0.720900 0.438920 0.694100
v -0.720900 0.671860 0.828590
v -0.720900 0.370640 1.081340
v -0.720900 0.671860 0.828590
v -0.720900 0.763850 1.081340
v -0.720900 0.370640 1.081340
v -0.720900 0.763850 1.081340
v -0.720900 0.671860 1.334100
v -0.720900 0.370640 1.081340
v 0.720900 0.671860 1.334100
v 0.720900 0.438920 1.468580
v 1.245180 0.438920 1.468580
v 1.245180 0.671860 1.334100
v 0.720900 0.438920 1.468580
v 0.720900 0.174030 1.421880
v 1.245180 0.174030 1.421880
v 1.245180 0.438920 1.468580
v 0.720900 0.174030 1.421880
v 0.720900 0.001140 1.215830
v 1.245180 0.001140 1.215830
v 1.245180 0.174030 1.421880
v 0.720900 0.001140 1.215830
v 0.720900 0.001140 0.946860
v 1.245180 0.001140 0.946860
v 1.245180 0.001140 1.215830
v 0.720900 0.001140 0.946860
v 0.720900 0.174030 0.740810
v 1.245180 0.174030 0.740810
v 1.245180 0.001140 0.946860
v 0.720900 0.174030 0.740810
v 0.720900 0.438920 0.694100
v 1.245180 0.438920 0.694100
v 1.245180 0.174030 0.740810
v 0.720900 0.438920 0.694100
v 0.720900 0.671860 0.828590
v 1.245180 0.671860 0.828590
v 1.245180 0.438920 0.694100
v 0.720900 0.671860 0.828590
v 0.720900 0.763850 1.081340
v 1.245180 0.763850 1.081340
v 1.245180 0.671860 0.828590
v 0.720900 0.763850 1.081340
v 0.720900 0.671860 1.334100
v 1.245180 0.671860 1.334100
v 1.245180 0.763850 1.081340
v 0.720900 0.438920 1.468580
v 0.720900 0.671860 1.334100
v 0.720900 0.370640 1.081340
v 0.720900 0.174030 1.421880
v 0.720900 0.438920 1.468580
v 0.720900 0.370640 1.081340
v 0.720900 0.001140 1.215830
v 0.720900 0.174030 1.421880
v 0.720900 0.370640 1.081340
v 0.720900 0.001140 0.946860
v 0.720900 0.001140 1.215830
v 0.720900 0.370640 1.081340
v 0.720900 0.174030 0.740810
v 0.720900 0.001140 0.946860
v 0.720900 0.370640 1.081340
v 0.720900 0.438920 0.694100
v 0.720900 0.174030 0.740810
v 0.720900 0.370640 1.081340
v 0.720900 0.671860 0.828590
v 0.720900 0.438920 0.694100
v 0.720900 0.370640 1.081340
v 0.720900 0.763850 1.081340
v 0.720900 0.671860 0.828590
v 0.720900 0.370640 1.081340
v 0.720900 0.671860 1.334100
v 0.720900 0.763850 1.081340
v 0.720900 0.370640 1.081340
v 1.245180 0.671860 1.334100
v 1.245180 0.438920 1.468580
v 1.245180 0.370640 1.081340
v 1.245180 0.438920 1.468580
v 1.245180 0.174030 1.421880
v 1.245180 0.370640 1.081340
v 1.245180 0.174030 1.421880
v 1.245180 0.001140 1.215830
v 1.245180 0.370640 1.081340
v 1.245180 0.001140 1.215830
v 1.245180 0.001140 0.946860
v 1.245180 0.370640 1.081340
v 1.245180 0.001140 0.946860
v 1.245180 0.174030 0.740810
v 1.245180 0.370640 1.081340
v 1.245180 0.174030 0.740810
v 1.245180 0.438920 0.694100
v 1.245180 0.370640 1.081340
v 1.245180 0.438920 0.694100
v 1.245180 0.671860 0.828590
v 1.245180 0.370640 1.081340
v 1.245180 0.671860 0.828590
v 1.245180 0.763850 1.081340
v 1.245180 0.370640 1.081340
v 1.245180 0.763850 1.081340
v 1.245180 0.671860 1.334100
v 1.245180 0.370640 1.081340
v 0.655360 0.671860 -0.926890
v 0.655360 0.438920 -0.792400
v 1.179650 0.438920 -0.792400
v 1.179650 0.671860 -0.926890
v 0.655360 0.438920 -0.792400
v 0.655360 0.174030 -0.839110
v 1.179650 0.174030 -0.839110
v 1.179650 0.438920 -0.792400
v 0.655360 0.174030 -0.839110
v 0.655360 0.001140 -1.045160
v 1.179650 0.001140 -1.045160
v 1.179650 0.174030 -0.839110
v 0.655360 0.001140 -1.045160
v 0.655360 0.001140 -1.314140
v 1.179650 0.001140 -1.314140
v 1.179650 0.001140 -1.045160
v 0.655360 0.001140 -1.314140
v 0.655360 0.174030 -1.520180
v 1.179650 0.174030 -1.520180
v 1.179650 0.001140 -1.314140
v 0.655360 0.174030 -1.520180
v 0.655360 0.438920 -1.566890
v 1.179650 0.438920 -1.566890
v 1.179650 0.174030 -1.520180
v 0.655360 0.438920 -1.566890
v 0.655360 0.671860 -1.432400
v 1.179650 0.671860 -1.432400
v 1.179650 0.438920 -1.566890
v 0.655360 0.671860 -1.432400
v 0.655360 0.763850 -1.179650
v 1.179650 0.763850 -1.179650
v 1.179650 0.671860 -1.432400
v 0.655360 0.763850 -1.179650
v 0.655360 0.671860 -0.926890
v 1.179650 0.671860 -0.926890
v 1.179650 0.763850 -1.179650
v 0.655360 0.438920 -0.792400
v 0.655360 0.671860 -0.926890
v 0.655360 0.370640 -1.179650
v 0.655360 0.174030 -0.839110
v 0.655360 0.438920 -0.792400
v 0.655360 0.370640 -1.179650
v 0.655360 0.001140 -1.045160
v 0.655360 0.174030 -0.839110
v 0.655360 0.370640 -1.179650
v 0.655360 0.001140 -1.314140
v 0.655360 0.001140 -1.045160
v 0.655360 0.370640 -1.179650
v 0.655360 0.174030 -1.520180
v 0.655360 0.001140 -1.314140
v 0.655360 0.370640 -1.179650
v 0.655360 0.438920 -1.566890
v 0.655360 0.174030 -1.520180
v 0.655360 0.370640 -1.179650
v 0.655360 0.671860 -1.432400
v 0.655360 0.438920 -1.566890
v 0.655360 0.370640 -1.179650
v 0.655360 0.763850 -1.179650
v 0.655360 0.671860 -1.432400
v 0.655360 0.370640 -1.179650
v 0.655360 0.671860 -0.926890
v 0.655360 0.763850 -1.179650
v 0.655360 0.370640 -1.179650
v 1.179650 0.671860 -0.926890
v 1.179650 0.438920 -0.792400
v 1.179650 0.370640 -1.179650
v 1.179650 0.438920 -0.792400
v 1.179650 0.174030 -0.839110
v 1.179650 0.370640 -1.179650
v 1.179650 0.174030 -0.839110
v 1.179650 0.001140 -1.045160
v 1.179650 0.370640 -1.179650
v 1.179650 0.001140 -1.045160
v 1.179650 0.001140 -1.314140
v 1.179650 0.370640 -1.179650
v 1.179650 0.001140 -1.314140
v 1.179650 0.174030 -1.520180
v 1.179650 0.370640 -1.179650
v 1.179650 0.174030 -1.520180
v 1.179650 0.438920 -1.566890
v 1.179650 0.370640 -1.179650
v 1.179650 0.438920 -1.566890
v 1.179650 0.671860 -1.432400
v 1.179650 0.370640 -1.179650
v 1.179650 0.671860 -1.432400
v 1.179650 0.763850 -1.179650
v 1.179650 0.370640 -1.179650
v 1.179650 0.763850 -1.179650
v 1.179650 0.671860 -0.926890
v 1.179650 0.370640 -1.179650
v -1.179650 0.671860 -0.926890
v -1.179650 0.438920 -0.792400
v -0.655360 0.438920 -0.792400
v -0.655360 0.671860 -0.926890
v -1.179650 0.438920 -0.792400
v -1.179650 0.174030 -0.839110
v -0.655360 0.174030 -0.839110
v -0.655360 0.438920 -0.792400
v -1.179650 0.174030 -0.839110
v -1.179650 0.001140 -1.045160
v -0.655360 0.001140 -1.045160
v -0.655360 0.174030 -0.839110
v -1.179650 0.001140 -1.045160
v -1.179650 0.001140 -1.314140
v -0.655360 0.001140 -1.314140
v -0.655360 0.001140 -1.045160
v -1.179650 0.001140 -1.314140
v -1.179650 0.174030 -1.520180
v -0.655360 0.174030 -1.520180
v -0.655360 0.001140 -1.314140
v -1.179650 0.174030 -1.520180
v -1.179650 0.438920 -1.566890
v -0.655360 0.438920 -1.566890
v -0.655360 0.174030 -1.520180
v -1.179650 0.438920 -1.566890
v -1.179650 0.671860 -1.432400
v -0.655360 0.671860 -1.432400
v -0.655360 0.438920 -1.566890
v -1.179650 0.671860 -1.432400
v -1.179650 0.763850 -1.179650
v -0.655360 0.763850 -1.179650
v -0.655360 0.671860 -1.432400
v -1.179650 0.763850 -1.179650
v -1.179650 0.671860 -0.926890
v -0.655360 0.671860 -0.926890
v -0.655360 0.763850 -1.179650
v -1.179650 0.438920 -0.792400
v -1.179650 0.671860 -0.926890
v -1.179650 0.370640 -1.179650
v -1.179650 0.174030 -0.839110
v -1.179650 0.438920 -0.792400
v -1.179650 0.370640 -1.179650
v -1.179650 0.001140 -1.045160
v -1.179650 0.174030 -0.839110
v -1.179650 0.370640 -1.179650
v -1.179650 0.001140 -1.314140
v -1.179650 0.001140 -1.045160
v -1.179650 0.370640 -1.179650
v -1.179650 0.174030 -1.520180
v -1.179650 0.001140 -1.314140
v -1.179650 0.370640 -1.179650
v -1.179650 0.438920 -1.566890
v -1.179650 0.174030 -1.520180
v -1.179650 0.370640 -1.179650
v -1.179650 0.671860 -1.432400
v -1.179650 0.438920 -1.566890
v -1.179650 0.370640 -1.179650
v -1.179650 0.763850 -1.179650
v -1.179650 0.671860 -1.432400
v -1.179650 0.370640 -1.179650
v -1.179650 0.671860 -0.926890
v -1.179650 0.763850 -1.179650
v -1.179650 0.370640 -1.179650
v -0.655360 0.671860 -0.926890
v -0.655360 0.438920 -0.792400
v -0.655360 0.370640 -1.179650
v -0.655360 0.438920 -0.792400
v -0.655360 0.174030 -0.839110
v -0.655360 0.370640 -1.179650
v -0.655360 0.174030 -0.839110
v -0.655360 0.001140 -1.045160
v -0.655360 0.370640 -1.179650
v -0.655360 0.001140 -1.045160
v -0.655360 0.001140 -1.314140
v -0.655360 0.370640 -1.179650
v -0.655360 0.001140 -1.314140
v -0.655360 0.174030 -1.520180
v -0.655360 0.370640 -1.179650
v -0.655360 0.174030 -1.520180
v -0.655360 0.438920 -1.566890
v -0.655360 0.370640 -1.179650
v -0.655360 0.438920 -1.566890
v -0.655360 0.671860 -1.432400
v -0.655360 0.370640 -1.179650
v -0.655360 0.671860 -1.432400
v -0.655360 0.763850 -1.179650
v -0.655360 0.370640 -1.179650
v -0.655360 0.763850 -1.179650
v -0.655360 0.671860 -0.926890
v -0.655360 0.370640 -1.179650
vn -0.3798 0.9150 0.1360
vn -0.5505 0.8280 0.1065
vn -0.3797 0.9151 0.1360
vn -0.1946 0.9677 0.1604
vn -0.0000 -0.1507 0.9886
vn -0.0000 1.0000 -0.0000
vn -0.4664 0.8415 -0.2725
vn -0.3618 0.9088 -0.2079
vn -0.5619 0.7578 -0.3317
vn 0.9964 0.0455 -0.0708
vn 0.9881 0.1204 -0.0956
vn 0.9985 -0.0296 -0.0456
vn -0.9817 0.1395 -0.1298
vn -0.9805 0.1580 -0.1170
vn 0.9293 0.1882 -0.3177
vn -0.0000 0.9899 -0.1415
vn -0.0000 0.3643 -0.9313
vn 0.3798 0.9150 0.1360
vn 0.1946 0.9677 0.1604
vn 0.3797 0.9151 0.1360
vn 0.5505 0.8280 0.1065
vn 0.4664 0.8415 -0.2725
vn 0.5619 0.7578 -0.3317
vn 0.3618 0.9088 -0.2079
vn 0.9817 0.1395 -0.1298
vn 0.9805 0.1580 -0.1170
vn -0.9293 0.1882 -0.3177
vn -0.9964 0.0455 -0.0708
vn -0.9985 -0.0296 -0.0456
vn -0.9881 0.1204 -0.0956
vn -0.0000 0.1233 0.9924
vn -0.0000 0.3071 0.9517
vn -0.0001 0.3071 0.9517
vn -0.0000 0.3070 0.9517
vn 0.0001 0.3071 0.9517
vn 0.1927 -0.6022 -0.7748
vn 0.1911 0.0365 -0.9809
vn -0.3908 -0.2863 -0.8748
vn -0.9987 -0.0244 -0.0443
vn 0.4926 0.7976 -0.3481
vn 0.4983 -0.8157 0.2936
vn 0.1789 0.5561 0.8117
vn -0.3664 0.9301 -0.0261
vn -0.3618 0.9319 -0.0273
vn -0.3663 0.9301 -0.0261
vn -0.3708 0.9284 -0.0249
vn -0.9997 0.0237 -0.0096
vn -0.9994 0.0291 -0.0208
vn -0.9997 0.0236 -0.0095
vn -0.9998 0.0181 0.0018
vn -0.9974 0.0711 -0.0058
vn -0.0000 0.9786 0.2060
vn 0.3663 0.9301 -0.0261
vn 0.3708 0.9284 -0.0249
vn 0.3618 0.9319 -0.0273
vn 0.9986 0.0496 -0.0202
vn -0.3463 -0.8436 -0.4103
vn -0.6518 -0.0001 -0.7584
vn -0.6519 -0.0000 -0.7583
vn -0.6518 -0.0003 -0.7584
vn -0.6517 -0.0007 -0.7585
vn -0.3463 0.8437 -0.4102
vn 0.3463 -0.8436 -0.4103
vn 0.6518 -0.0001 -0.7584
vn 0.6517 -0.0007 -0.7585
vn 0.6517 -0.0006 -0.7585
vn 0.6519 -0.0000 -0.7583
vn 0.3463 0.8437 -0.4102
vn -0.0000 0.5977 0.8017
vn -0.0000 -0.0000 1.0000
vn -0.0227 0.9975 -0.0670
vn -0.0189 0.9977 -0.0654
vn -0.0265 0.9973 -0.0685
vn -0.3769 -0.1874 -0.9071
vn -0.3995 -0.1806 -0.8988
vn -0.3770 -0.1874 -0.9071
vn -0.3541 -0.1941 -0.9148
vn 0.9939 -0.0938 -0.0578
vn -0.9956 -0.0700 -0.0629
vn -0.1246 -0.3635 -0.9232
vn -0.1336 -0.2016 -0.9703
vn -0.1253 -0.3220 -0.9384
vn -0.1189 -0.4406 -0.8898
vn -0.1225 -0.4436 -0.8878
vn -0.1514 -0.1300 -0.9799
vn -0.1516 -0.1289 -0.9800
vn -0.1514 -0.1299 -0.9799
vn -0.1512 -0.1311 -0.9798
vn -0.9890 -0.0010 -0.1482
vn -0.9913 -0.0118 -0.1307
vn -0.9889 -0.0009 -0.1484
vn -0.9861 0.0100 -0.1657
vn -0.9947 0.0236 -0.0998
vn -0.9947 0.0466 -0.0921
vn -0.9947 0.0236 -0.0997
vn -0.9942 0.0005 -0.1073
vn -0.0253 0.9922 -0.1218
vn -0.0240 0.9891 -0.1449
vn -0.0267 0.9881 -0.1517
vn -0.0241 0.9891 -0.1450
vn -0.0214 0.9902 -0.1383
vn -0.0183 -0.9932 -0.1152
vn -0.0183 -0.9935 -0.1120
vn -0.0183 -0.9932 -0.1153
vn -0.0183 -0.9928 -0.1185
vn -0.6016 0.7975 -0.0462
vn -0.2389 -0.9706 -0.0292
vn 0.9986 -0.0116 0.0525
vn 0.0228 0.9975 -0.0670
vn 0.0265 0.9973 -0.0685
vn 0.0227 0.9975 -0.0670
vn 0.0189 0.9977 -0.0654
vn 0.3769 -0.1874 -0.9071
vn 0.3541 -0.1941 -0.9148
vn 0.3770 -0.1874 -0.9071
vn 0.3995 -0.1806 -0.8988
vn -0.9939 -0.0938 -0.0578
vn 0.9956 -0.0700 -0.0629
vn 0.1246 -0.3635 -0.9232
vn 0.1225 -0.4436 -0.8878
vn 0.1189 -0.4406 -0.8898
vn 0.1253 -0.3220 -0.9384
vn 0.1336 -0.2016 -0.9703
vn 0.1514 -0.1298 -0.9799
vn 0.1512 -0.1311 -0.9798
vn 0.1514 -0.1299 -0.9799
vn 0.1516 -0.1289 -0.9800
vn 0.9947 0.0236 -0.0998
vn 0.9942 0.0005 -0.1073
vn 0.9947 0.0236 -0.0997
vn 0.9947 0.0466 -0.0921
vn 0.0253 0.9922 -0.1218
vn 0.0240 0.9891 -0.1449
vn 0.0214 0.9902 -0.1383
vn 0.0241 0.9891 -0.1450
vn 0.0267 0.9881 -0.1517
vn 0.0183 -0.9932 -0.1152
vn 0.0183 -0.9928 -0.1185
vn 0.0183 -0.9932 -0.1153
vn 0.0183 -0.9935 -0.1120
vn 0.6016 0.7975 -0.0462
vn 0.2389 -0.9706 -0.0292
vn 0.1783 0.9820 0.0619
vn 0.1953 0.9786 0.0653
vn 0.1613 0.9852 0.0585
vn 0.9890 -0.0010 -0.1482
vn 0.9861 0.0100 -0.1657
vn 0.9889 -0.0009 -0.1484
vn 0.9913 -0.0118 -0.1307
vn -0.9986 -0.0116 0.0525
vn -0.9801 0.0316 0.1958
vn -0.9837 0.0634 0.1681
vn -0.9802 0.0317 0.1957
vn -0.9748 -0.0000 0.2230
vn 0.9779 0.0161 0.2087
vn 0.1199 -0.5349 0.8363
vn 0.2872 0.9262 0.2442
vn 0.6767 0.7185 0.1610
vn 0.6429 0.7429 0.1865
vn 0.7089 0.6923 0.1350
vn -0.9363 0.2753 0.2181
vn -0.8816 0.3498 0.3170
vn -0.9363 0.2753 0.2182
vn -0.9739 0.1957 0.1153
vn -0.9974 0.0071 0.0711
vn -0.5685 0.7852 0.2454
vn -0.3829 0.8922 0.2394
vn -0.7280 0.6421 0.2402
vn -0.1590 -0.5295 0.8333
vn 0.0079 -0.5690 0.8223
vn -0.3213 -0.4742 0.8197
vn 0.9801 0.0316 0.1958
vn 0.9748 -0.0000 0.2230
vn 0.9802 0.0317 0.1957
vn 0.9837 0.0634 0.1681
vn -0.9779 0.0161 0.2087
vn 0.5308 0.8325 0.1585
vn -0.1199 -0.5349 0.8363
vn -0.0720 0.9074 0.4140
vn 0.0512 -0.0000 0.9987
vn -0.2872 0.9262 0.2442
vn -0.6767 0.7185 0.1610
vn -0.7089 0.6923 0.1350
vn -0.6429 0.7429 0.1865
vn 0.9974 0.0071 0.0711
vn 0.5685 0.7852 0.2454
vn 0.7280 0.6421 0.2402
vn 0.3829 0.8922 0.2394
vn 0.1590 -0.5295 0.8333
vn 0.3213 -0.4742 0.8197
vn -0.0079 -0.5690 0.8223
vn -0.9967 -0.0635 0.0504
vn -0.9964 0.0788 0.0305
vn -0.9916 0.0897 0.0928
vn -0.9919 0.0859 0.0932
vn -0.9973 0.0732 -0.0009
vn -0.9934 0.0634 -0.0954
vn -0.9975 -0.0000 0.0701
vn -0.4933 -0.8692 0.0334
vn -0.5047 -0.8627 0.0330
vn -0.4818 -0.8756 0.0339
vn -0.4932 0.8693 0.0334
vn -0.5046 0.8627 0.0330
vn -0.4817 0.8757 0.0339
vn -0.8881 0.0002 -0.4597
vn -0.8880 -0.0000 -0.4598
vn -0.8881 0.0003 -0.4596
vn -0.8882 0.0005 -0.4595
vn -0.4416 -0.8337 -0.3314
vn -0.3977 -0.8557 -0.3310
vn -0.4417 -0.8337 -0.3314
vn -0.4846 -0.8097 -0.3311
vn 0.5340 -0.8150 0.2251
vn 0.4426 -0.8726 0.2064
vn 0.6190 -0.7475 0.2411
vn 0.8711 -0.0007 0.4912
vn 0.8712 -0.0000 0.4910
vn 0.8712 -0.0001 0.4910
vn 0.8711 -0.0007 0.4911
vn 0.5167 0.8299 0.2104
vn 0.4633 0.8753 0.1385
vn 0.5650 0.7761 0.2802
vn -0.4285 0.8429 -0.3255
vn -0.4105 0.8619 -0.2978
vn -0.4284 0.8429 -0.3255
vn -0.4458 0.8227 -0.3527
vn 0.9967 -0.0635 0.0504
vn 0.9964 0.0788 0.0305
vn 0.9934 0.0634 -0.0954
vn 0.9973 0.0732 -0.0009
vn 0.9919 0.0859 0.0932
vn 0.9916 0.0897 0.0928
vn 0.9975 -0.0000 0.0701
vn 0.4933 -0.8692 0.0335
vn 0.4814 -0.8760 0.0314
vn 0.5052 -0.8623 0.0355
vn 0.4932 0.8693 0.0334
vn 0.4817 0.8757 0.0339
vn 0.5046 0.8627 0.0330
vn 0.8881 0.0002 -0.4597
vn 0.8882 0.0005 -0.4595
vn 0.8881 0.0003 -0.4596
vn 0.8880 -0.0000 -0.4598
vn 0.4416 -0.8337 -0.3314
vn 0.4846 -0.8097 -0.3311
vn 0.4417 -0.8337 -0.3314
vn 0.3977 -0.8557 -0.3310
vn -0.5340 -0.8150 0.2251
vn -0.6190 -0.7475 0.2411
vn -0.4426 -0.8726 0.2064
vn -0.8711 -0.0006 0.4911
vn -0.8711 -0.0007 0.4911
vn -0.8712 -0.0001 0.4910
vn -0.8712 -0.0000 0.4910
vn -0.5167 0.8299 0.2104
vn -0.5650 0.7761 0.2802
vn -0.4633 0.8753 0.1385
vn 0.4285 0.8429 -0.3255
vn 0.4458 0.8227 -0.3527
vn 0.4284 0.8429 -0.3255
vn 0.4105 0.8619 -0.2978
vn -0.1568 0.3557 -0.9213
vn -0.1622 0.3694 -0.9150
vn -0.1568 0.3557 -0.9214
vn -0.1512 0.3420 -0.9275
vn -0.9430 0.1204 -0.3104
vn -0.9401 0.1107 -0.3223
vn -0.9429 0.1203 -0.3104
vn -0.9455 0.1298 -0.2986
vn 0.1568 0.3557 -0.9213
vn 0.1512 0.3420 -0.9275
vn 0.1568 0.3557 -0.9214
vn 0.1622 0.3694 -0.9150
vn 0.9423 0.1243 -0.3110
vn 0.9478 0.1103 -0.2993
vn 0.9422 0.1244 -0.3110
vn 0.9364 0.1384 -0.3225
vn -0.1943 0.4700 -0.8610
vn -0.1746 0.4949 -0.8512
vn -0.2138 0.4445 -0.8699
vn 0.1943 0.4700 -0.8610
vn 0.2138 0.4445 -0.8699
vn 0.1746 0.4949 -0.8512
vn -0.0000 0.9995 0.0317
vn -0.0000 0.9931 0.1171
vn 0.9290 0.3685 0.0337
vn 0.9466 0.3219 0.0179
vn 0.9089 0.4140 0.0494
vn -0.9310 0.3638 0.0300
vn -0.9180 0.3961 0.0204
vn -0.9310 0.3637 0.0300
vn -0.9428 0.3309 0.0396
vn -0.0000 -0.4264 -0.9045
vn -0.0000 -0.9994 -0.0359
vn -0.0000 -0.0000 -1.0000
vn 1.0000 -0.0000 0.0052
vn -1.0000 -0.0000 0.0052
vn 0.3554 0.9332 0.0535
vn -0.9984 0.0554 -0.0078
vn -0.0379 0.9043 0.4252
vn -0.9988 0.0281 0.0402
vn -0.0379 0.9043 0.4253
vn 0.9927 0.1171 0.0281
vn 0.5514 0.8229 -0.1372
vn -0.4330 0.9013 0.0095
vn 0.4330 0.9013 0.0095
vn -0.5514 0.8229 -0.1372
vn -0.1789 0.5561 0.8117
vn 0.0720 0.9074 0.4140
vn -0.0512 -0.0000 0.9987
vn 0.0287 0.8492 0.5272
vn 0.0059 0.7879 0.6158
vn 0.0512 0.9003 0.4323
vn -0.0287 0.8492 0.5272
vn -0.0512 0.9003 0.4323
vn -0.0059 0.7879 0.6158
vn -0.0000 -1.0000 -0.0000
vn -0.5308 0.8325 0.1585
vn -0.9911 0.1189 -0.0598
vn -0.9986 0.0496 -0.0202
vn 0.9946 0.0889 -0.0534
vn 0.9996 0.0281 0.0082
vn 0.9993 -0.0188 0.0326
vn 0.9971 0.0750 -0.0162
vn 0.9363 0.2753 0.2181
vn 0.9739 0.1957 0.1153
vn 0.9363 0.2753 0.2182
vn 0.8816 0.3498 0.3170
vn 0.9997 0.0237 -0.0096
vn 0.9998 0.0181 0.0018
vn 0.9997 0.0236 -0.0095
vn 0.9994 0.0291 -0.0208
vn 0.9911 0.1189 -0.0598
vn -0.9946 0.0889 -0.0534
vn -0.9985 0.0533 -0.0157
vn 0.4117 -0.4264 -0.8054
vn -0.0000 -0.2356 -0.9718
vn 0.7272 -0.5176 -0.4508
vn 0.4428 -0.3860 0.8093
vn 0.7736 -0.0515 0.6316
vn -0.0000 -0.6229 0.7823
vn 0.3803 -0.8473 0.3707
vn 0.5819 -0.7216 -0.3751
vn -0.5819 -0.7216 -0.3751
vn -0.3803 -0.8473 0.3707
vn -0.3755 -0.3224 0.8690
vn -0.0000 -0.1415 0.9899
vn -0.3754 -0.3223 0.8690
vn -0.6802 -0.4425 0.5844
vn -0.5114 -0.5342 -0.6731
vn -0.8552 -0.1078 -0.5069
vn -0.5115 -0.5342 -0.6731
vn -0.0000 -0.7856 -0.6187
vn 0.0379 0.9043 0.4252
vn -0.9927 0.1171 0.0281
vn 0.0379 0.9043 0.4253
vn 0.9988 0.0281 0.0402
vn 0.9984 0.0554 -0.0078
vn 0.9986 -0.0000 0.0523
vn -0.9986 -0.0000 0.0523
vn -0.0171 -0.9948 0.1006
vn 0.4248 -0.6410 -0.6392
vn 0.0171 -0.9948 0.1006
vn -0.4248 -0.6410 -0.6392
vn -0.0000 -0.3622 -0.9321
vn 0.7195 -0.4398 0.5374
vn -0.0000 -0.0556 0.9985
vn -0.4564 -0.5996 -0.6574
vn 0.4564 -0.5996 -0.6574
vn -0.7195 -0.4398 0.5374
vn -0.3554 0.9332 0.0535
vn -0.1783 0.9820 0.0619
vn -0.1613 0.9852 0.0585
vn -0.1953 0.9786 0.0653
vn -0.1284 0.9530 0.2746
vn 0.1284 0.9530 0.2746
vn 0.0435 0.9990 0.0080
vn -0.0435 0.9990 0.0080
vn -0.0343 0.3190 0.9471
vn 0.0343 0.3190 0.9471
vn -0.0000 0.5000 0.8660
vn -0.0000 -0.1736 0.9848
vn -0.0000 -0.7661 0.6428
vn -0.0000 -0.7661 -0.6428
vn -0.0000 -0.1737 -0.9848
vn -0.0000 0.5000 -0.8660
vn -0.0000 0.9397 -0.3420
vn -0.0000 0.9397 0.3420
vn -1.0000 -0.0000 -0.0000
vn 1.0000 -0.0000 -0.0000
vn -0.0000 -0.1737 0.9848
vn -0.0000 -0.7660 -0.6428
vt 0.365746 1.952196
vt 0.370291 1.918184
vt 0.641299 1.929888
vt 0.657273 1.975773
vt 0.369648 1.791132
vt 0.366664 1.818122
vt 0.596379 1.818122
vt 0.593395 1.791132
vt 0.649975 1.914267
vt 0.313665 1.953006
vt 0.316113 1.903205
vt 0.047507 1.781157
vt 0.046833 1.855515
vt 0.373320 1.818428
vt 0.342337 1.796610
vt 0.345964 1.823599
vt 0.360453 1.694543
vt 0.589723 1.818428
vt 0.602591 1.694543
vt 0.365746 1.591314
vt 0.657273 1.567737
vt 0.641299 1.613622
vt 0.370291 1.625326
vt 0.313665 1.590503
vt 0.316113 1.640305
vt 0.617080 1.823599
vt 0.620706 1.796610
vt 0.363436 1.362381
vt 0.112654 1.179209
vt 0.051607 1.851935
vt 0.051607 1.861757
vt 0.638744 1.190944
vt 0.794192 1.108615
vt 0.785609 1.177893
vt 0.203092 1.928756
vt 0.205663 1.954598
vt 0.142979 1.336921
vt 0.102326 1.336921
vt 0.113434 1.397632
vt 0.165684 1.431185
vt 0.332913 1.431185
vt 0.248992 1.467201
vt 0.307285 1.499576
vt 0.090285 1.771747
vt 0.203092 1.614754
vt 0.205663 1.588897
vt 0.262349 1.058630
vt 0.259335 1.055570
vt 0.708084 1.416267
vt 0.745691 1.416267
vt 0.796166 1.416267
vt 0.833758 1.416267
vt 0.175323 1.299865
vt 0.321973 1.299865
vt 0.309733 1.316312
vt 0.187578 1.316312
vt 0.319938 1.334733
vt 0.193331 1.334733
vt 0.313298 1.334733
vt 0.965170 1.837262
vt 0.977303 1.837262
vt 0.985427 1.832595
vt 0.957290 1.832595
vt 0.976538 1.723690
vt 0.963716 1.723690
vt 0.401686 1.200552
vt 0.368332 1.221131
vt 0.329531 1.202756
vt 0.332148 1.134212
vt 0.405404 1.133630
vt 0.408357 1.100001
vt 0.407898 1.130172
vt 0.210084 1.130172
vt 0.210084 1.100001
vt 0.889741 1.534597
vt 0.972437 1.528125
vt 0.936666 1.457133
vt 0.866531 1.452237
vt 0.868352 1.421148
vt 0.965751 1.453477
vt 0.961498 1.421469
vt 0.210084 1.133630
vt 0.210084 1.096543
vt 0.397723 1.096543
vt 0.931051 1.417812
vt 0.907137 1.530145
vt 0.018482 1.200552
vt 0.014749 1.133630
vt 0.088006 1.134212
vt 0.090622 1.202756
vt 0.051821 1.221131
vt 0.011812 1.100001
vt 0.012271 1.130172
vt 0.022445 1.096543
vt 0.886757 1.562719
vt 0.977257 1.608114
vt 0.041907 1.391512
vt 0.041907 1.336921
vt 0.483312 1.108615
vt 0.491880 1.177893
vt 0.472051 1.180112
vt 0.453691 1.184396
vt 0.032513 1.912186
vt 0.028045 1.927639
vt 0.109823 1.895478
vt 0.061169 1.400370
vt 0.197523 1.501901
vt 0.030386 1.452161
vt 0.041218 1.943107
vt 0.432317 1.108615
vt 0.435346 1.169463
vt 0.805438 1.180112
vt 0.823798 1.184396
vt 0.638744 1.080570
vt 0.638744 1.090974
vt 0.638744 1.034058
vt 0.854658 1.034058
vt 0.854658 1.098211
vt 0.032513 1.631324
vt 0.028045 1.615856
vt 0.109823 1.648031
vt 0.041218 1.600403
vt 0.845172 1.108615
vt 0.842158 1.169463
vt 0.346300 1.336921
vt 0.690428 1.440502
vt 0.650434 1.336921
vt 0.360208 1.476886
vt 0.656492 1.521501
vt 0.745691 1.203016
vt 0.796166 1.203016
vt 0.708084 1.202480
vt 0.833758 1.202480
vt 0.765015 1.199175
vt 0.776842 1.199175
vt 0.756187 1.198181
vt 0.745691 1.201945
vt 0.765000 1.197202
vt 0.796166 1.201945
vt 0.776842 1.197202
vt 0.785655 1.198181
vt 0.210084 1.020288
vt 0.399422 1.020288
vt 0.872896 1.336921
vt 0.960396 1.336921
vt 0.020731 1.020288
vt 0.333509 1.203842
vt 0.210084 1.209365
vt 0.086659 1.203842
vt 0.929414 1.771747
vt 0.309733 1.406337
vt 0.187578 1.406337
vt 0.321973 1.392506
vt 0.175323 1.392506
vt 0.238053 1.524178
vt 0.403094 1.524178
vt 0.389171 1.568227
vt 0.251991 1.568227
vt 0.193331 1.380526
vt 0.319938 1.380526
vt 0.313298 1.380526
vt 0.977257 1.935396
vt 0.901308 1.899380
vt 0.712705 1.467400
vt 0.968138 1.573628
vt 0.978772 1.648230
vt 0.901308 1.644130
vt 0.978772 1.895280
vt 0.968138 1.969867
vt 0.886757 1.980791
vt 0.422831 1.098211
vt 0.422831 1.034058
vt 0.474132 1.222936
vt 0.494924 1.222936
vt 0.494924 1.309244
vt 0.474132 1.309244
vt 0.515717 1.222936
vt 0.515717 1.309244
vt 0.536510 1.222936
vt 0.536510 1.309244
vt 0.557302 1.222936
vt 0.557302 1.309244
vt 0.578080 1.222936
vt 0.578080 1.309244
vt 0.598873 1.222936
vt 0.598873 1.309244
vt 0.619665 1.222936
vt 0.619665 1.309244
vt 0.640458 1.222936
vt 0.640458 1.309244
vt 0.661251 1.222936
vt 0.661251 1.309244
vt 0.990292 1.120901
vt 0.970923 1.154438
vt 0.936788 1.111063
vt 0.983561 1.082758
vt 0.953894 1.057849
vt 0.915154 1.057849
vt 0.885487 1.082758
vt 0.878756 1.120901
vt 0.898125 1.154438
vt 0.934524 1.167688
vt 0.898125 1.272447
vt 0.878756 1.238894
vt 0.936788 1.229072
vt 0.885487 1.200751
vt 0.915154 1.175858
vt 0.953894 1.175858
vt 0.983561 1.200751
vt 0.990292 1.238894
vt 0.970923 1.272447
vt 0.934524 1.285697
vt 0.474132 1.308326
vt 0.494924 1.308326
vt 0.494924 1.223028
vt 0.474132 1.223028
vt 0.515717 1.308326
vt 0.515717 1.223028
vt 0.536510 1.308326
vt 0.536510 1.223028
vt 0.557302 1.308326
vt 0.557302 1.223028
vt 0.578080 1.308326
vt 0.578080 1.223028
vt 0.598873 1.308326
vt 0.598873 1.223028
vt 0.619665 1.308326
vt 0.619665 1.223028
vt 0.640458 1.308326
vt 0.640458 1.223028
vt 0.661251 1.308326
vt 0.661251 1.223028
s 1
g off
g mesh_1.001_Material.001
usemtl Material.001
f 340/160/337 341/161/338 342/162/339
f 340/160/337 342/162/339 343/163/340
f 344/164/341 345/165/341 346/166/341
f 344/164/341 346/166/341 347/167/341
f 348/168/342 349/168/342 350/168/342
f 348/168/342 350/168/342 351/168/342
f 352/169/343 353/170/344 354/161/343
f 352/169/343 354/161/343 355/160/345
f 356/171/346 357/172/347 358/172/346
f 356/171/346 358/172/346 359/171/348
f 360/173/349 361/174/349 362/175/349
f 363/176/350 364/174/350 365/173/350
f 366/172/351 367/171/351 368/171/351
f 369/164/352 370/167/352 371/177/352
f 369/164/352 371/177/352 372/173/352
f 373/173/353 374/177/353 375/178/353
f 373/173/353 375/178/353 376/176/353
f 377/179/354 378/180/355 379/181/356
f 377/179/354 379/181/356 380/182/357
f 381/183/358 382/179/359 383/182/358
f 381/183/358 383/182/358 384/184/360
f 385/177/361 386/185/361 387/186/361
f 388/178/362 389/177/362 390/186/362
f 391/172/363 392/171/363 393/171/363
f 394/171/364 395/171/365 396/172/364
f 394/171/364 396/172/364 397/172/366
f 398/172/367 399/172/367 400/171/367
f 398/172/367 400/171/367 401/171/367
f 402/187/368 403/187/369 404/187/369
f 402/187/368 404/187/369 405/187/368
f 406/187/370 407/187/370 408/187/370
f 406/187/370 408/187/370 409/187/370
f 410/187/371 411/187/368 412/187/368
f 410/187/371 412/187/368 413/187/371
f 414/187/368 415/187/368 416/187/368
f 414/187/368 416/187/368 417/187/368
f 418/187/368 419/187/368 420/187/368
f 418/187/368 420/187/368 421/187/368
f 422/187/368 423/187/368 424/187/368
f 422/187/368 424/187/368 425/187/368
f 426/188/368 427/188/368 428/188/368
f 429/187/372 430/187/372 431/187/372
f 432/189/373 433/189/373 434/189/373
f 435/189/374 436/189/374 437/189/374
f 438/190/375 439/189/375 440/189/375
f 441/190/376 442/189/376 443/189/376
f 444/190/377 445/189/377 446/189/377
f 447/191/378 448/192/378 449/193/378
f 450/194/379 451/170/380 452/169/381
f 450/194/379 452/169/381 453/195/382
f 454/196/383 455/197/384 456/198/385
f 454/196/383 456/198/385 457/199/386
f 458/200/387 459/201/387 460/202/387
f 461/203/388 462/184/388 463/170/388
f 464/204/389 465/205/390 466/183/389
f 464/204/389 466/183/389 467/184/391
f 468/206/392 469/207/392 470/206/392
f 471/208/393 472/209/393 473/209/393
f 474/209/394 475/210/395 476/210/396
f 474/209/394 476/210/396 477/209/397
f 478/210/398 479/211/398 480/210/398
f 481/208/399 482/209/399 483/209/399
f 484/209/400 485/209/401 486/210/402
f 484/209/400 486/210/402 487/210/403
f 488/210/404 489/210/404 490/211/404
f 491/212/405 492/213/405 493/214/405
f 491/212/405 493/214/405 494/215/405
f 495/216/406 496/217/406 497/217/406
f 495/216/406 497/217/406 498/218/406
f 499/219/407 500/220/408 501/221/407
f 499/219/407 501/221/407 502/222/409
f 503/221/410 504/223/411 505/224/412
f 503/221/410 505/224/412 506/222/413
f 507/220/414 508/223/414 509/221/414
f 510/224/415 511/219/415 512/222/415
f 513/225/416 514/226/417 515/227/418
f 513/225/416 515/227/418 516/228/419
f 513/225/416 516/228/419 517/229/420
f 518/230/421 519/231/422 520/232/423
f 518/230/421 520/232/423 521/233/424
f 522/234/425 523/235/426 524/236/427
f 522/234/425 524/236/427 525/237/428
f 526/238/429 527/237/430 528/239/431
f 526/238/429 528/239/431 529/240/432
f 530/229/433 531/228/433 532/231/433
f 533/228/434 534/241/435 535/232/436
f 533/228/434 535/232/436 536/231/437
f 537/242/438 538/243/439 539/230/440
f 537/242/438 539/230/440 540/233/441
f 541/237/442 542/236/442 543/239/442
f 544/244/443 545/238/443 546/240/443
f 547/235/444 548/245/444 549/236/444
f 550/219/445 551/222/446 552/221/447
f 550/219/445 552/221/447 553/220/448
f 554/221/449 555/222/450 556/224/451
f 554/221/449 556/224/451 557/223/452
f 558/223/453 559/220/453 560/221/453
f 561/219/454 562/224/454 563/222/454
f 564/246/455 565/247/456 566/248/457
f 564/246/455 566/248/457 567/249/458
f 564/246/455 567/249/458 568/250/459
f 569/251/460 570/233/461 571/232/462
f 569/251/460 571/232/462 572/252/463
f 573/238/464 574/240/465 575/239/466
f 573/238/464 575/239/466 576/237/467
f 577/247/468 578/252/468 579/248/468
f 580/248/469 581/252/470 582/232/471
f 580/248/469 582/232/471 583/241/472
f 584/242/473 585/233/474 586/251/475
f 584/242/473 586/251/475 587/253/476
f 588/237/477 589/239/477 590/236/477
f 591/244/478 592/240/478 593/238/478
f 594/254/479 595/255/480 596/181/479
f 594/254/479 596/181/479 597/180/481
f 598/234/482 599/237/483 600/236/484
f 598/234/482 600/236/484 601/235/485
f 602/235/486 603/236/486 604/245/486
f 605/256/487 606/198/488 607/197/489
f 605/256/487 607/197/489 608/257/490
f 609/258/491 610/259/491 611/260/491
f 612/261/492 613/258/492 614/260/492
f 615/262/493 616/194/493 617/263/493
f 618/264/494 619/170/495 620/194/494
f 618/264/494 620/194/494 621/262/496
f 622/198/497 623/265/498 624/266/499
f 622/198/497 624/266/499 625/199/500
f 626/265/501 627/267/501 628/266/501
f 629/263/502 630/194/503 631/195/502
f 629/263/502 631/195/502 632/268/504
f 633/269/505 634/258/506 635/261/505
f 633/269/505 635/261/505 636/270/507
f 637/256/508 638/257/509 639/197/510
f 637/256/508 639/197/510 640/198/511
f 641/192/512 642/271/512 643/193/512
f 644/265/513 645/256/513 646/198/513
f 647/272/514 648/271/514 649/192/514
f 650/273/515 651/192/515 652/274/515
f 653/275/516 654/276/516 655/277/516
f 653/275/516 655/277/516 656/273/516
f 657/278/517 658/279/517 659/204/517
f 660/280/518 661/278/519 662/204/518
f 660/280/518 662/204/518 663/184/520
f 664/265/521 665/266/521 666/267/521
f 667/279/522 668/281/523 669/205/522
f 667/279/522 669/205/522 670/204/524
f 671/282/525 672/283/526 673/272/525
f 671/282/525 673/272/525 674/192/527
f 675/284/528 676/285/528 677/286/528
f 678/287/529 679/288/530 680/285/531
f 678/287/529 680/285/531 681/284/532
f 678/287/529 681/284/532 682/200/533
f 683/289/534 684/290/534 685/210/534
f 683/289/534 685/210/534 686/209/534
f 687/208/535 688/291/536 689/289/535
f 687/208/535 689/289/535 690/209/537
f 691/290/538 692/292/539 693/211/538
f 691/290/538 693/211/538 694/210/540
f 695/290/541 696/289/542 697/293/543
f 695/290/541 697/293/543 698/294/544
f 699/289/545 700/291/546 701/295/547
f 699/289/545 701/295/547 702/293/548
f 703/291/549 704/296/550 705/297/549
f 703/291/549 705/297/549 706/295/551
f 707/296/552 708/298/553 709/299/554
f 707/296/552 709/299/554 710/297/555
f 711/298/556 712/292/557 713/300/556
f 711/298/556 713/300/556 714/299/558
f 715/292/559 716/290/560 717/294/561
f 715/292/559 717/294/561 718/300/562
f 719/284/563 720/286/563 721/285/563
f 722/287/564 723/200/565 724/284/566
f 722/287/564 724/284/566 725/285/567
f 722/287/564 725/285/567 726/288/568
f 727/289/569 728/209/569 729/210/569
f 727/289/569 729/210/569 730/290/569
f 731/291/570 732/208/571 733/209/570
f 731/291/570 733/209/570 734/289/572
f 735/290/573 736/210/574 737/211/573
f 735/290/573 737/211/573 738/292/575
f 739/290/576 740/294/577 741/293/578
f 739/290/576 741/293/578 742/289/579
f 743/289/580 744/293/581 745/295/582
f 743/289/580 745/295/582 746/291/583
f 747/291/584 748/295/585 749/297/584
f 747/291/584 749/297/584 750/296/586
f 751/296/587 752/297/588 753/299/589
f 751/296/587 753/299/589 754/298/590
f 755/298/591 756/299/592 757/300/591
f 755/298/591 757/300/591 758/292/593
f 759/292/594 760/300/595 761/294/596
f 759/292/594 761/294/596 762/290/597
f 763/242/598 764/301/599 765/302/600
f 763/242/598 765/302/600 766/243/601
f 767/303/602 768/238/603 769/244/604
f 767/303/602 769/244/604 770/304/605
f 771/242/606 772/253/607 773/305/608
f 771/242/606 773/305/608 774/301/609
f 775/238/610 776/303/611 777/304/612
f 775/238/610 777/304/612 778/244/613
f 779/241/614 780/228/615 781/306/614
f 779/241/614 781/306/614 782/307/616
f 783/241/617 784/307/618 785/308/617
f 783/241/617 785/308/617 786/248/619
f 787/309/620 788/162/620 789/181/620
f 790/215/621 791/214/621 792/310/621
f 790/215/621 792/310/621 793/311/621
f 794/213/622 795/312/623 796/310/622
f 794/213/622 796/310/622 797/214/624
f 798/313/625 799/212/626 800/215/627
f 798/313/625 800/215/627 801/311/628
f 802/314/629 803/315/629 804/316/629
f 802/314/629 804/316/629 805/317/629
f 806/312/630 807/213/630 808/212/630
f 806/312/630 808/212/630 809/313/630
f 810/318/631 811/319/631 812/320/631
f 810/318/631 812/320/631 813/318/631
f 814/319/632 815/216/632 816/218/632
f 814/319/632 816/218/632 817/320/632
f 818/217/633 819/318/633 820/318/633
f 818/217/633 820/318/633 821/217/633
f 822/321/634 823/162/634 824/322/634
f 825/323/635 826/234/635 827/237/635
f 828/285/636 829/323/637 830/234/638
f 828/285/636 830/234/638 831/288/639
f 832/255/640 833/254/640 834/324/640
f 835/255/641 836/325/641 837/326/641
f 838/321/642 839/322/642 840/327/642
f 841/321/643 842/328/643 843/329/643
f 844/191/644 845/259/644 846/258/644
f 847/273/645 848/274/645 849/258/645
f 850/275/646 851/273/646 852/330/646
f 850/275/646 852/330/646 853/331/646
f 854/273/647 855/258/648 856/269/647
f 854/273/647 856/269/647 857/330/649
f 858/273/650 859/277/651 860/282/650
f 858/273/650 860/282/650 861/192/652
f 862/206/653 863/206/653 864/206/653
f 862/206/653 864/206/653 865/206/653
f 862/206/653 865/206/653 866/206/653
f 867/265/654 868/198/654 869/256/654
f 870/206/653 871/206/653 872/206/653
f 873/206/653 874/206/653 875/206/653
f 876/206/653 877/206/653 878/206/653
f 876/206/653 878/206/653 879/206/653
f 880/199/655 881/266/655 882/201/655
f 883/206/656 884/206/656 885/207/656
f 886/202/657 887/200/657 888/287/657
f 889/266/658 890/201/659 891/200/658
f 889/266/658 891/200/658 892/202/660
f 893/198/661 894/199/662 895/266/663
f 893/198/661 895/266/663 896/265/664
f 897/196/665 898/199/666 899/198/667
f 897/196/665 899/198/667 900/197/668
f 901/266/669 902/199/669 903/201/669
f 904/202/670 905/287/670 906/200/670
f 907/202/671 908/201/671 909/266/671
f 910/207/672 911/206/673 912/206/672
f 910/207/672 912/206/672 913/207/674
f 914/206/675 915/207/676 916/207/675
f 914/206/675 916/207/675 917/206/677
f 918/207/678 919/207/678 920/207/678
f 921/207/679 922/207/679 923/207/679
f 924/206/680 925/207/680 926/207/680
f 927/207/681 928/207/681 929/207/681
f 930/207/682 931/206/683 932/206/684
f 930/207/682 932/206/684 933/207/685
f 934/206/686 935/206/687 936/207/688
f 934/206/686 936/207/688 937/206/689
f 938/206/653 939/206/653 940/206/653
f 938/206/653 940/206/653 941/206/653
f 942/206/653 943/206/653 944/206/653
f 942/206/653 944/206/653 945/206/653
f 946/206/653 947/206/653 948/206/653
f 946/206/653 948/206/653 949/206/653
f 946/206/653 949/206/653 950/206/653
f 951/285/690 952/288/691 953/234/692
f 951/285/690 953/234/692 954/323/693
f 955/323/694 956/237/694 957/234/694
f 958/206/695 959/206/695 960/207/695
f 961/206/696 962/206/696 963/207/696
f 964/207/697 965/206/697 966/206/697
f 967/206/698 968/207/698 969/206/698
f 970/206/699 971/207/699 972/206/699
f 973/207/700 974/206/700 975/206/700
f 976/206/701 977/206/701 978/206/701
f 979/207/702 980/206/702 981/206/702
f 982/206/703 983/206/703 984/206/703
f 985/207/704 986/206/704 987/206/704
f 988/206/705 989/207/705 990/206/705
f 991/206/703 992/206/703 993/206/703
f 994/206/706 995/207/706 996/206/706
f 997/206/701 998/206/701 999/206/701
f 1000/181/707 1001/255/707 1002/326/707
f 1003/329/708 1004/163/709 1005/162/708
f 1003/329/708 1005/162/708 1006/321/710
f 1007/203/711 1008/170/711 1009/264/711
f 1010/203/712 1011/280/712 1012/184/712
f 1013/309/713 1014/181/713 1015/326/713
f 1016/309/714 1017/322/714 1018/162/714
f 1019/191/715 1020/258/715 1021/274/715
f 1022/191/716 1023/274/716 1024/192/716
f 1025/332/717 1026/333/717 1027/334/717
f 1025/332/717 1027/334/717 1028/335/717
f 1029/333/718 1030/336/718 1031/337/718
f 1029/333/718 1031/337/718 1032/334/718
f 1033/336/719 1034/338/719 1035/339/719
f 1033/336/719 1035/339/719 1036/337/719
f 1037/338/653 1038/340/653 1039/341/653
f 1037/338/653 1039/341/653 1040/339/653
f 1041/340/720 1042/342/720 1043/343/720
f 1041/340/720 1043/343/720 1044/341/720
f 1045/342/721 1046/344/721 1047/345/721
f 1045/342/721 1047/345/721 1048/343/721
f 1049/344/722 1050/346/722 1051/347/722
f 1049/344/722 1051/347/722 1052/345/722
f 1053/346/723 1054/348/723 1055/349/723
f 1053/346/723 1055/349/723 1056/347/723
f 1057/348/724 1058/350/724 1059/351/724
f 1057/348/724 1059/351/724 1060/349/724
f 1061/352/725 1062/353/725 1063/354/725
f 1064/355/725 1065/352/725 1066/354/725
f 1067/356/725 1068/355/725 1069/354/725
f 1070/357/725 1071/356/725 1072/354/725
f 1073/358/725 1074/357/725 1075/354/725
f 1076/359/725 1077/358/725 1078/354/725
f 1079/360/725 1080/359/725 1081/354/725
f 1082/361/725 1083/360/725 1084/354/725
f 1085/353/725 1086/361/725 1087/354/725
f 1088/362/726 1089/363/726 1090/364/726
f 1091/363/726 1092/365/726 1093/364/726
f 1094/365/726 1095/366/726 1096/364/726
f 1097/366/726 1098/367/726 1099/364/726
f 1100/367/726 1101/368/726 1102/364/726
f 1103/368/726 1104/369/726 1105/364/726
f 1106/369/726 1107/370/726 1108/364/726
f 1109/370/726 1110/371/726 1111/364/726
f 1112/371/726 1113/362/726 1114/364/726
f 1115/335/717 1116/334/717 1117/333/717
f 1115/335/717 1117/333/717 1118/332/717
f 1119/334/718 1120/337/718 1121/336/718
f 1119/334/718 1121/336/718 1122/333/718
f 1123/337/719 1124/339/719 1125/338/719
f 1123/337/719 1125/338/719 1126/336/719
f 1127/339/653 1128/341/653 1129/340/653
f 1127/339/653 1129/340/653 1130/338/653
f 1131/341/720 1132/343/720 1133/342/720
f 1131/341/720 1133/342/720 1134/340/720
f 1135/343/721 1136/345/721 1137/344/721
f 1135/343/721 1137/344/721 1138/342/721
f 1139/345/722 1140/347/722 1141/346/722
f 1139/345/722 1141/346/722 1142/344/722
f 1143/347/723 1144/349/723 1145/348/723
f 1143/347/723 1145/348/723 1146/346/723
f 1147/349/724 1148/351/724 1149/350/724
f 1147/349/724 1149/350/724 1150/348/724
f 1151/369/725 1152/370/725 1153/364/725
f 1154/368/725 1155/369/725 1156/364/725
f 1157/367/725 1158/368/725 1159/364/725
f 1160/366/725 1161/367/725 1162/364/725
f 1163/365/725 1164/366/725 1165/364/725
f 1166/363/725 1167/365/725 1168/364/725
f 1169/362/725 1170/363/725 1171/364/725
f 1172/371/725 1173/362/725 1174/364/725
f 1175/370/725 1176/371/725 1177/364/725
f 1178/360/726 1179/359/726 1180/354/726
f 1181/359/726 1182/358/726 1183/354/726
f 1184/358/726 1185/357/726 1186/354/726
f 1187/357/726 1188/356/726 1189/354/726
f 1190/356/726 1191/355/726 1192/354/726
f 1193/355/726 1194/352/726 1195/354/726
f 1196/352/726 1197/353/726 1198/354/726
f 1199/353/726 1200/361/726 1201/354/726
f 1202/361/726 1203/360/726 1204/354/726
f 1205/372/717 1206/373/717 1207/374/717
f 1205/372/717 1207/374/717 1208/375/717
f 1209/373/727 1210/376/727 1211/377/727
f 1209/373/727 1211/377/727 1212/374/727
f 1213/376/719 1214/378/719 1215/379/719
f 1213/376/719 1215/379/719 1216/377/719
f 1217/378/653 1218/380/653 1219/381/653
f 1217/378/653 1219/381/653 1220/379/653
f 1221/380/728 1222/382/728 1223/383/728
f 1221/380/728 1223/383/728 1224/381/728
f 1225/382/721 1226/384/721 1227/385/721
f 1225/382/721 1227/385/721 1228/383/721
f 1229/384/722 1230/386/722 1231/387/722
f 1229/384/722 1231/387/722 1232/385/722
f 1233/386/723 1234/388/723 1235/389/723
f 1233/386/723 1235/389/723 1236/387/723
f 1237/388/724 1238/390/724 1239/391/724
f 1237/388/724 1239/391/724 1240/389/724
f 1241/369/725 1242/370/725 1243/364/725
f 1244/368/725 1245/369/725 1246/364/725
f 1247/367/725 1248/368/725 1249/364/725
f 1250/366/725 1251/367/725 1252/364/725
f 1253/365/725 1254/366/725 1255/364/725
f 1256/363/725 1257/365/725 1258/364/725
f 1259/362/725 1260/363/725 1261/364/725
f 1262/371/725 1263/362/725 1264/364/725
f 1265/370/725 1266/371/725 1267/364/725
f 1268/360/726 1269/359/726 1270/354/726
f 1271/359/726 1272/358/726 1273/354/726
f 1274/358/726 1275/357/726 1276/354/726
f 1277/357/726 1278/356/726 1279/354/726
f 1280/356/726 1281/355/726 1282/354/726
f 1283/355/726 1284/352/726 1285/354/726
f 1286/352/726 1287/353/726 1288/354/726
f 1289/353/726 1290/361/726 1291/354/726
f 1292/361/726 1293/360/726 1294/354/726
f 1295/375/717 1296/374/717 1297/373/717
f 1295/375/717 1297/373/717 1298/372/717
f 1299/374/727 1300/377/727 1301/376/727
f 1299/374/727 1301/376/727 1302/373/727
f 1303/377/719 1304/379/719 1305/378/719
f 1303/377/719 1305/378/719 1306/376/719
f 1307/379/653 1308/381/653 1309/380/653
f 1307/379/653 1309/380/653 1310/378/653
f 1311/381/728 1312/383/728 1313/382/728
f 1311/381/728 1313/382/728 1314/380/728
f 1315/383/721 1316/385/721 1317/384/721
f 1315/383/721 1317/384/721 1318/382/721
f 1319/385/722 1320/387/722 1321/386/722
f 1319/385/722 1321/386/722 1322/384/722
f 1323/387/723 1324/389/723 1325/388/723
f 1323/387/723 1325/388/723 1326/386/723
f 1327/389/724 1328/391/724 1329/390/724
f 1327/389/724 1329/390/724 1330/388/724
f 1331/352/725 1332/353/725 1333/354/725
f 1334/355/725 1335/352/725 1336/354/725
f 1337/356/725 1338/355/725 1339/354/725
f 1340/357/725 1341/356/725 1342/354/725
f 1343/358/725 1344/357/725 1345/354/725
f 1346/359/725 1347/358/725 1348/354/725
f 1349/360/725 1350/359/725 1351/354/725
f 1352/361/725 1353/360/725 1354/354/725
f 1355/353/725 1356/361/725 1357/354/725
f 1358/362/726 1359/363/726 1360/364/726
f 1361/363/726 1362/365/726 1363/364/726
f 1364/365/726 1365/366/726 1366/364/726
f 1367/366/726 1368/367/726 1369/364/726
f 1370/367/726 1371/368/726 1372/364/726
f 1373/368/726 1374/369/726 1375/364/726
f 1376/369/726 1377/370/726 1378/364/726
f 1379/370/726 1380/371/726 1381/364/726
f 1382/371/726 1383/362/726 1384/364/726
