# Blender 5.0.1
# www.blender.org
mtllib crashCharacterBrazoIzquierda.mtl
g 01.001_Mesh
v 0.331890 -0.812079 -0.071760
v 0.351238 -0.814953 -0.057512
v 0.374727 -0.816405 -0.066019
v 0.376763 -0.814549 -0.089774
v 0.358433 -0.811807 -0.105105
v 0.334159 -0.810405 -0.097037
v 0.303347 -0.470634 -0.085960
v 0.315945 -0.466552 -0.076179
v 0.324118 -0.463545 -0.063433
v 0.250865 -0.484196 -0.040574
v 0.253208 -0.481682 -0.023228
v 0.257381 -0.622310 0.086044
v 0.285416 -0.618878 0.102285
v 0.267232 -0.615813 0.096708
v 0.263655 -0.477089 -0.009868
v 0.278577 -0.472052 -0.001830
v 0.295664 -0.467067 -0.000088
v 0.309972 -0.463900 -0.007998
v 0.320785 -0.462031 -0.019000
v 0.327191 -0.461273 -0.033467
v 0.327798 -0.461846 -0.048826
v 0.379277 -0.801310 0.013776
v 0.340338 -0.796742 -0.002194
v 0.357336 -0.796990 0.013404
v 0.339400 -0.801359 -0.024066
v 0.355395 -0.807147 -0.037773
v 0.375499 -0.809755 -0.035267
v 0.008246 0.104509 -0.025429
v 0.238528 -0.697957 0.132280
v 0.373448 -0.772704 0.013507
v 0.334056 -0.752026 0.015512
v 0.359625 -0.776146 -0.050525
v 0.342931 -0.767675 -0.007940
v 0.311243 -0.920271 0.008239
v 0.263321 -0.560405 -0.057757
v 0.233535 -0.694055 0.127256
v 0.262654 -0.853590 0.093068
v 0.352650 -0.558149 0.017954
v -0.019038 -0.067174 0.070242
v 0.267020 -0.883867 0.116830
v 0.274305 -0.897080 0.090490
v 0.332435 -0.917458 0.016857
v 0.357876 -0.899771 -0.076708
v 0.329594 -0.762268 -0.063345
v 0.382927 -0.751156 -0.082712
v 0.236380 -0.669505 0.134898
v 0.262533 -0.689173 0.126968
v 0.257422 -0.896503 0.096901
v 0.308044 -0.905780 0.012513
v 0.327234 -0.921764 -0.009368
v 0.348276 -0.902102 -0.073838
v 0.355033 -0.901786 -0.094983
v 0.345522 -0.901814 -0.093338
v 0.319537 -0.609876 0.060184
v 0.401294 -0.738829 0.034581
v 0.271015 -0.633812 0.040056
v 0.033877 0.103220 0.016161
v 0.086154 0.043574 0.003270
v 0.077050 0.037154 -0.025687
v 0.066566 0.018785 -0.059326
v 0.008042 0.063199 -0.075762
v 0.233803 -0.685425 0.116713
v 0.244597 -0.692857 0.116349
v 0.253772 -0.695333 0.122563
v 0.244430 -0.695712 0.138780
v 0.237469 -0.687237 0.137074
v 0.371517 -0.776578 0.018051
v 0.349921 -0.768269 0.015636
v 0.363098 -0.778472 0.010966
v 0.385220 -0.780851 0.008242
v 0.392526 -0.766986 0.004303
v 0.404103 -0.751561 -0.001151
v 0.396313 -0.753262 0.012364
v 0.389804 -0.761120 0.025898
v 0.342364 -0.777951 -0.006663
v 0.348885 -0.781862 0.028225
v 0.335639 -0.771389 0.033966
v 0.331847 -0.761324 0.045487
v 0.333067 -0.740615 0.033074
v 0.319563 -0.718820 0.021145
v 0.317337 -0.725733 -0.002243
v 0.327883 -0.752950 -0.018922
v 0.359258 -0.787903 -0.043912
v 0.341894 -0.782282 -0.029269
v 0.341241 -0.769475 -0.034655
v 0.383555 -0.772073 -0.045976
v 0.379217 -0.788062 -0.040843
v 0.382503 -0.767297 -0.061247
v 0.390320 -0.758601 -0.055051
v 0.357880 -0.785598 -0.054089
v 0.377545 -0.783790 -0.064108
v 0.328152 -0.755996 -0.044095
v 0.334425 -0.781537 -0.067215
v 0.308342 -0.912855 0.001483
v 0.315950 -0.919095 -0.006348
v 0.317277 -0.927993 0.006268
v 0.312643 -0.913111 0.019828
v 0.322021 -0.918140 0.022179
v 0.276815 -0.609976 -0.067551
v 0.273764 -0.625487 -0.038222
v 0.256645 -0.599434 -0.025996
v 0.248445 -0.580042 -0.008069
v 0.257517 -0.541249 -0.034472
v 0.276314 -0.549327 -0.074346
v 0.285078 -0.599563 -0.085038
v 0.231719 -0.677099 0.127702
v 0.261037 -0.857830 0.106230
v 0.281856 -0.836552 0.104571
v 0.278616 -0.837385 0.089923
v 0.279811 -0.842412 0.076327
v 0.259358 -0.862661 0.084533
v 0.252709 -0.872900 0.099361
v 0.328792 -0.542062 0.028897
v 0.330007 -0.577105 0.049669
v 0.341304 -0.590699 0.038307
v 0.373514 -0.611659 0.019876
v 0.385452 -0.615013 0.000093
v 0.366396 -0.562043 -0.004520
v 0.338951 -0.515184 -0.015727
v 0.328944 -0.513268 -0.003238
v 0.315890 -0.511033 0.007281
v -0.013667 -0.088171 0.011964
v 0.011780 -0.091909 0.010211
v 0.020602 -0.079225 0.053163
v 0.039975 -0.042048 0.084441
v -0.002048 -0.007254 0.103597
v 0.267479 -0.892337 0.110951
v 0.287473 -0.882897 0.110971
v 0.280070 -0.872904 0.117700
v 0.255080 -0.879778 0.113159
v 0.252913 -0.890372 0.103647
v 0.268903 -0.862952 0.116877
v 0.263049 -0.892462 0.087083
v 0.276950 -0.880875 0.076788
v 0.287787 -0.888365 0.084758
v 0.289985 -0.887552 0.098554
v 0.271427 -0.897738 0.101832
v 0.330677 -0.925024 0.004092
v 0.346925 -0.904356 -0.001714
v 0.344475 -0.901120 0.016208
v 0.333257 -0.895029 0.025883
v 0.357985 -0.903308 -0.086060
v 0.362256 -0.885358 -0.086602
v 0.358976 -0.886117 -0.072823
v 0.346215 -0.905568 -0.084108
v 0.344695 -0.887142 -0.067748
v 0.315953 -0.729283 -0.054530
v 0.316091 -0.728339 -0.075915
v 0.334405 -0.755335 -0.094241
v 0.336381 -0.776218 -0.094137
v 0.379042 -0.778617 -0.085576
v 0.394926 -0.741923 -0.067749
v 0.360958 -0.775570 -0.101302
v 0.360817 -0.750577 -0.102950
v 0.353845 -0.720017 -0.108064
v 0.375592 -0.716009 -0.093058
v 0.388391 -0.712089 -0.076288
v 0.249163 -0.649918 0.121822
v 0.240866 -0.654424 0.110983
v 0.245706 -0.676640 0.141756
v 0.261968 -0.653285 0.127792
v 0.266867 -0.676349 0.103281
v 0.274386 -0.672622 0.113212
v 0.255524 -0.685276 0.138964
v 0.272770 -0.662930 0.123941
v 0.255388 -0.883208 0.091308
v 0.319747 -0.889452 0.025261
v 0.310086 -0.886579 0.010893
v 0.307634 -0.888930 -0.007655
v 0.337461 -0.902208 -0.017074
v 0.320610 -0.896129 -0.018564
v 0.333736 -0.886453 -0.080587
v 0.353895 -0.885031 -0.098089
v 0.339242 -0.885551 -0.095992
v 0.290612 -0.633014 0.089176
v 0.289626 -0.639351 0.082520
v 0.310505 -0.626748 0.051763
v 0.316772 -0.630762 0.043921
v 0.328858 -0.613572 0.042926
v 0.411261 -0.734095 0.013087
v 0.385956 -0.768932 0.055358
v 0.381508 -0.779883 0.043008
v 0.399969 -0.695061 0.028387
v 0.386620 -0.691810 0.045451
v 0.388991 -0.727237 0.052317
v 0.379203 -0.758777 0.069418
v 0.406752 -0.697908 0.008229
v 0.259524 -0.614129 0.047894
v 0.252739 -0.602625 0.023146
v 0.258790 -0.621422 0.009181
v 0.275471 -0.641395 -0.006277
v 0.282889 -0.649565 0.023790
v 0.271663 -0.640266 0.074437
v 0.265905 -0.631353 0.077740
v 0.294403 -0.639107 0.047569
v 0.282274 -0.641505 0.075606
v 0.300361 -0.645913 0.040060
v 0.020859 0.036550 0.110535
v 0.038463 0.062059 0.101757
v 0.049289 0.079433 0.086587
v 0.062029 -0.008917 0.092130
v 0.079333 0.011402 0.086896
v 0.092047 0.027865 0.073110
v 0.097446 0.039547 0.052221
v 0.050852 0.090880 0.065522
v 0.121718 -0.048657 0.063994
v 0.133979 -0.034432 0.052227
v 0.140644 -0.023401 0.035088
v 0.137802 -0.018195 0.013538
v 0.093665 0.043884 0.028382
v 0.169430 -0.095734 0.027920
v 0.175724 -0.086602 0.012954
v 0.175166 -0.080679 -0.005226
v 0.168910 -0.078900 -0.024018
v 0.130561 -0.017508 -0.007880
v 0.208567 -0.150516 -0.007664
v 0.210204 -0.144727 -0.024893
v 0.203549 -0.143693 -0.041368
v 0.193545 -0.145723 -0.056646
v 0.158999 -0.081679 -0.042573
v 0.242685 -0.213968 -0.037881
v 0.238037 -0.214288 -0.055176
v 0.228144 -0.217091 -0.070436
v 0.213836 -0.222620 -0.081361
v 0.179072 -0.151962 -0.070114
v 0.265805 -0.286254 -0.059603
v 0.256180 -0.289450 -0.074709
v 0.242221 -0.294900 -0.085172
v 0.226001 -0.301730 -0.088627
v 0.196846 -0.230453 -0.087378
v 0.275808 -0.352251 -0.073326
v 0.263818 -0.356550 -0.082569
v 0.248855 -0.362298 -0.084055
v 0.234285 -0.368378 -0.081240
v 0.209623 -0.309078 -0.086729
v 0.282576 -0.413698 -0.079580
v 0.269602 -0.418426 -0.079775
v 0.256634 -0.423306 -0.075247
v 0.245731 -0.427660 -0.068378
v 0.221526 -0.373793 -0.072579
v 0.288960 -0.475448 -0.077063
v 0.278041 -0.479488 -0.071952
v 0.269338 -0.483939 -0.064040
v 0.263365 -0.486309 -0.054273
v 0.238482 -0.430417 -0.056328
v 0.289752 -0.541587 -0.083560
v 0.303985 -0.535507 -0.089876
v 0.319084 -0.585698 -0.101231
v 0.299932 -0.592010 -0.096350
v 0.334522 -0.636825 -0.109970
v 0.313569 -0.642027 -0.103811
v 0.300977 -0.647421 -0.087948
v 0.295275 -0.652938 -0.067686
v 0.321951 -0.688024 -0.104007
v 0.309461 -0.691962 -0.083672
v 0.307452 -0.694738 -0.061737
v 0.307129 -0.696690 -0.039530
v 0.293645 -0.659893 -0.042629
v 0.316870 -0.728168 -0.031104
v 0.307095 -0.696547 -0.013632
v 0.308317 -0.692515 0.012737
v 0.298719 -0.667272 0.012232
v 0.294933 -0.665905 -0.015129
v 0.309085 -0.658703 0.032864
v 0.316847 -0.682387 0.035731
v 0.333521 -0.669058 0.048790
v 0.323936 -0.643328 0.042843
v 0.327837 -0.708465 0.041326
v 0.344244 -0.698483 0.055227
v 0.366299 -0.692348 0.056651
v 0.354997 -0.659275 0.050277
v 0.337988 -0.731579 0.047833
v 0.350601 -0.724405 0.060024
v 0.369966 -0.722701 0.062033
v 0.346983 -0.748125 0.071082
v 0.364423 -0.750703 0.075155
v 0.338911 -0.781766 0.080092
v 0.348788 -0.784658 0.084694
v 0.358388 -0.790962 0.082551
v 0.363611 -0.797639 0.074029
v 0.322695 -0.817551 0.103147
v 0.333045 -0.826838 0.102046
v 0.340892 -0.835781 0.094517
v 0.340087 -0.839942 0.081601
v 0.362502 -0.802877 0.063467
v 0.302739 -0.854885 0.115068
v 0.309896 -0.864633 0.105742
v 0.312404 -0.870661 0.092932
v 0.307443 -0.869656 0.078199
v 0.334810 -0.839870 0.068288
v 0.324107 -0.833873 0.062163
v 0.344201 -0.800704 0.049562
v 0.354258 -0.804288 0.054212
v 0.296746 -0.861504 0.068453
v 0.286499 -0.850814 0.067582
v 0.314649 -0.824910 0.064112
v 0.265502 -0.871153 0.077663
v 0.308487 -0.817008 0.071850
v 0.331663 -0.787750 0.060832
v 0.335385 -0.794239 0.053137
v 0.332363 -0.783020 0.070742
v 0.335357 -0.752477 0.059126
v 0.308258 -0.812685 0.083339
v 0.313054 -0.812083 0.095623
v 0.291614 -0.843375 0.114506
v 0.367236 -0.786817 0.030890
v 0.374485 -0.655776 0.040093
v 0.359289 -0.617665 0.035297
v 0.340906 -0.628608 0.043660
v 0.389163 -0.655620 0.023899
v 0.397882 -0.658865 0.003835
v 0.400602 -0.663304 -0.018751
v 0.389610 -0.619882 -0.023162
v 0.409199 -0.701203 -0.013036
v 0.406093 -0.704744 -0.036419
v 0.398056 -0.668647 -0.043139
v 0.413449 -0.733083 -0.006728
v 0.410981 -0.733873 -0.029289
v 0.404317 -0.736166 -0.050161
v 0.398663 -0.708478 -0.057836
v 0.406271 -0.752221 -0.021803
v 0.399914 -0.754108 -0.041280
v 0.401656 -0.767121 -0.014816
v 0.395878 -0.769081 -0.034153
v 0.398674 -0.784143 -0.009044
v 0.393382 -0.786435 -0.028241
v 0.383551 -0.805546 -0.005200
v 0.381975 -0.807318 -0.018249
v 0.371855 -0.806877 -0.027075
v 0.358459 -0.804851 -0.028688
v 0.374761 -0.838709 -0.012265
v 0.364623 -0.836962 -0.023110
v 0.350647 -0.832416 -0.024468
v 0.340285 -0.827253 -0.014840
v 0.348512 -0.801310 -0.020100
v 0.350245 -0.872829 -0.020376
v 0.334591 -0.865597 -0.023052
v 0.324521 -0.859340 -0.010813
v 0.323917 -0.856855 0.006397
v 0.340731 -0.824676 -0.000146
v 0.350686 -0.825717 0.011176
v 0.360440 -0.799132 0.004450
v 0.349127 -0.798698 -0.006125
v 0.334085 -0.859288 0.019897
v 0.349456 -0.865873 0.021896
v 0.364949 -0.830687 0.012009
v 0.375295 -0.836226 0.002488
v 0.374871 -0.801955 0.004991
v 0.360038 -0.872834 0.010628
v 0.361175 -0.875999 -0.006618
v 0.379328 -0.676076 -0.083147
v 0.390339 -0.673407 -0.065107
v 0.368879 -0.633372 -0.087717
v 0.380912 -0.630301 -0.069676
v 0.388025 -0.625903 -0.048014
v 0.365994 -0.575881 -0.068900
v 0.372002 -0.572770 -0.048533
v 0.372150 -0.568336 -0.025888
v 0.347105 -0.519685 -0.048045
v 0.346130 -0.517077 -0.031128
v 0.319239 -0.464697 -0.047644
v 0.318728 -0.464249 -0.035366
v 0.313560 -0.464907 -0.023722
v 0.302325 -0.407090 -0.031409
v 0.296056 -0.409366 -0.018823
v 0.285452 -0.413008 -0.009477
v 0.304386 -0.466782 -0.014537
v 0.272452 -0.417465 -0.005168
v 0.293524 -0.469545 -0.009029
v 0.258964 -0.422166 -0.008069
v 0.280978 -0.473231 -0.010576
v 0.294903 -0.513419 0.007865
v 0.269233 -0.477401 -0.017192
v 0.274708 -0.518826 0.000691
v 0.271925 -0.542372 0.027041
v 0.301107 -0.536028 0.034701
v 0.274553 -0.563838 0.050953
v 0.304557 -0.561394 0.056978
v 0.275609 -0.585485 0.072592
v 0.300983 -0.587961 0.076515
v 0.271816 -0.622026 0.090635
v 0.281677 -0.623745 0.094162
v 0.261462 -0.597470 0.059431
v 0.266135 -0.625427 0.084337
v 0.243510 -0.664275 0.100576
v 0.254590 -0.673448 0.097761
v 0.255705 -0.581056 0.037096
v 0.251982 -0.559073 0.011311
v 0.261425 -0.528445 -0.014424
v 0.261497 -0.481092 -0.027384
v 0.259970 -0.483145 -0.040794
v 0.238348 -0.430182 -0.027343
v 0.236003 -0.431214 -0.041700
v 0.212418 -0.377560 -0.026736
v 0.209382 -0.378821 -0.042777
v 0.212587 -0.377508 -0.059220
v 0.180653 -0.321841 -0.044640
v 0.184746 -0.320033 -0.062750
v 0.195056 -0.315597 -0.077964
v 0.155144 -0.253490 -0.063288
v 0.164847 -0.247533 -0.078271
v 0.179737 -0.239233 -0.086348
v 0.128353 -0.182536 -0.073047
v 0.144086 -0.172286 -0.079396
v 0.161619 -0.161549 -0.078028
v 0.108203 -0.115915 -0.077564
v 0.126984 -0.102297 -0.073841
v 0.144780 -0.089933 -0.061767
v 0.091926 -0.049346 -0.071936
v 0.108167 -0.033170 -0.056487
v 0.121262 -0.021617 -0.031299
v 0.052422 -0.005773 -0.075714
v 0.038690 -0.032565 -0.083182
v -0.002353 -0.012642 -0.098455
v 0.002170 0.024285 -0.094910
v 0.074946 -0.068730 -0.077705
v 0.059126 -0.086909 -0.073088
v 0.027006 -0.057347 -0.079080
v 0.090902 -0.129531 -0.071690
v 0.078882 -0.140938 -0.056370
v 0.046258 -0.102453 -0.055844
v 0.117251 -0.189813 -0.059182
v 0.114177 -0.194976 -0.040409
v 0.073568 -0.146998 -0.033572
v 0.151656 -0.256145 -0.044909
v 0.155382 -0.255026 -0.026091
v 0.119507 -0.194789 -0.020793
v 0.183949 -0.320619 -0.026307
v 0.192786 -0.317273 -0.010586
v 0.164603 -0.251544 -0.009086
v 0.220947 -0.374188 -0.013014
v 0.234091 -0.368886 -0.003824
v 0.207216 -0.311464 -0.000357
v 0.246662 -0.426810 -0.015951
v 0.224952 -0.304049 0.003131
v 0.196910 -0.238971 0.006912
v 0.179186 -0.246350 0.003126
v 0.249794 -0.362829 -0.000638
v 0.265386 -0.357170 -0.002988
v 0.242253 -0.296800 0.001150
v 0.257788 -0.290672 -0.007990
v 0.229128 -0.223721 -0.005589
v 0.214289 -0.231230 0.003478
v 0.277959 -0.352699 -0.012615
v 0.286145 -0.349676 -0.026632
v 0.267299 -0.286871 -0.023423
v 0.270168 -0.285348 -0.041333
v 0.239168 -0.217385 -0.020255
v 0.288074 -0.348587 -0.043260
v 0.283933 -0.349601 -0.059637
v 0.303422 -0.406448 -0.045805
v 0.299879 -0.407508 -0.059651
v 0.292980 -0.409958 -0.071724
v 0.316264 -0.466136 -0.059611
v 0.309707 -0.468667 -0.069835
v 0.300450 -0.471874 -0.077126
v 0.343030 -0.522408 -0.064060
v 0.334646 -0.525560 -0.077643
v 0.320732 -0.530003 -0.087826
v 0.353757 -0.578562 -0.084803
v 0.337911 -0.581430 -0.095712
v 0.354446 -0.633930 -0.101975
v 0.366006 -0.679894 -0.099188
v 0.345468 -0.683272 -0.110437
v 0.326780 -0.726070 -0.100271
v 0.199328 -0.158589 0.005925
v 0.156733 -0.106916 0.037897
v 0.186005 -0.166935 0.015333
v 0.138422 -0.118066 0.037414
v 0.168380 -0.175447 0.017299
v 0.117176 -0.130431 0.031008
v 0.149402 -0.182889 0.010265
v 0.094537 -0.141954 0.015283
v 0.131564 -0.190406 -0.002461
v 0.079077 -0.147391 -0.008232
v 0.058455 -0.105779 0.038137
v 0.043812 -0.113595 0.003960
v 0.040459 -0.111720 -0.029503
v 0.011602 -0.088804 -0.029373
v 0.017541 -0.076950 -0.059322
v -0.013419 -0.083642 -0.033734
v -0.009738 -0.070072 -0.069238
v -0.005788 -0.045934 -0.091577
v 0.045157 0.097663 0.042156
v 0.082523 -0.084194 0.059511
v 0.103942 -0.064384 0.065460
v 0.332183 -0.854381 -0.077863
v 0.336623 -0.853841 -0.095427
v 0.353092 -0.854726 -0.098368
v 0.342696 -0.811593 -0.090335
v 0.356359 -0.812649 -0.095084
v 0.367459 -0.814255 -0.085852
v 0.364765 -0.856038 -0.086660
v 0.366237 -0.814863 -0.072197
v 0.361678 -0.856055 -0.070306
v 0.352307 -0.813805 -0.067539
v 0.345109 -0.855171 -0.064932
v 0.341209 -0.812256 -0.076414
v 0.389957 -0.809921 -0.022667
v 0.393044 -0.807074 -0.002577
v 0.324283 -0.778648 0.072784
v 0.328182 -0.795305 0.047120
v 0.322882 -0.785797 0.058592
v 0.357936 -0.810183 0.047586
v 0.341704 -0.804981 0.041384
v 0.370407 -0.807640 0.061351
v 0.372352 -0.799713 0.076676
v 0.364997 -0.789699 0.089283
v 0.350250 -0.780352 0.093056
v 0.334560 -0.776266 0.086544
v 0.254943 -0.487387 -0.058045
v 0.263115 -0.484815 -0.070604
v 0.273572 -0.480112 -0.079794
v 0.287226 -0.475403 -0.086153
v 0.284905 -0.650137 0.072803
v 0.256740 -0.632653 0.076110
v 0.266240 -0.648193 0.070306
v 0.296397 -0.645770 0.082231
v 0.299492 -0.634763 0.093552
vn -0.8159 -0.5748 -0.0625
vn -0.9366 -0.3469 0.0488
vn -0.8765 -0.4524 0.1647
vn 0.3033 -0.5058 0.8076
vn 0.3330 -0.7623 0.5550
vn 0.3986 -0.7450 0.5349
vn -0.0958 -0.2591 0.9611
vn 0.0264 -0.5435 0.8390
vn -0.5395 -0.1632 0.8260
vn -0.3341 -0.3548 0.8732
vn -0.5615 0.6112 -0.5578
vn -0.3554 0.6428 -0.6786
vn -0.3524 0.6802 -0.6428
vn -0.7155 0.5668 -0.4085
vn -0.7379 0.5176 -0.4332
vn -0.6980 0.5952 -0.3982
vn -0.6229 0.5628 -0.5435
vn -0.1628 -0.9403 0.2990
vn -0.4465 -0.8803 0.1606
vn -0.4447 -0.7928 0.4168
vn -0.7302 -0.5097 0.4549
vn 0.3708 -0.6401 0.6729
vn 0.2634 -0.8302 0.4913
vn 0.1861 -0.8362 0.5159
vn -0.0665 -0.6228 -0.7796
vn -0.5553 -0.6705 -0.4920
vn -0.5612 -0.6983 -0.4443
vn 0.5404 -0.7031 -0.4621
vn 0.1250 -0.8313 -0.5416
vn 0.3922 -0.8349 0.3861
vn 0.4354 -0.8467 0.3057
vn -0.0072 -0.7623 0.6472
vn -0.6410 -0.7411 0.1998
vn -0.2823 -0.8513 0.4423
vn 0.3822 0.8614 -0.3345
vn 0.4316 0.8948 -0.1146
vn 0.3734 0.8736 -0.3122
vn -0.0095 0.7574 -0.6529
vn -0.0206 0.7750 -0.6316
vn 0.2447 0.8372 -0.4891
vn -0.8584 0.4955 -0.1330
vn -0.7828 0.6080 -0.1328
vn -0.8074 0.5454 0.2250
vn -0.7504 0.6410 0.1612
vn -0.6388 0.5992 0.4826
vn -0.6030 0.6967 0.3887
vn -0.8240 -0.1819 0.5366
vn -0.7381 -0.3015 0.6036
vn -0.5318 -0.0213 0.8466
vn -0.5101 -0.1367 0.8492
vn 0.1211 -0.2308 0.9654
vn 0.1033 -0.4874 0.8671
vn -0.2222 -0.2566 0.9406
vn -0.4015 0.6695 0.6250
vn -0.3865 0.7644 0.5161
vn 0.6881 0.6648 -0.2908
vn 0.6652 0.6033 -0.4400
vn 0.6294 0.6390 -0.4422
vn 0.5828 0.4983 -0.6419
vn -0.9073 -0.4201 -0.0198
vn -0.1711 -0.7951 -0.5819
vn -0.3792 -0.9236 0.0567
vn 0.3869 -0.9027 -0.1880
vn 0.0416 -0.6591 0.7509
vn -0.6545 -0.1413 0.7427
vn 0.2164 -0.8100 0.5450
vn -0.4749 -0.8165 -0.3283
vn -0.8158 -0.5223 0.2484
vn 0.5435 -0.0257 0.8390
vn 0.6920 -0.3170 0.6486
vn 0.7638 -0.6081 0.2163
vn 0.7924 -0.6025 -0.0951
vn 0.2583 -0.7812 -0.5684
vn -0.2018 0.2399 0.9496
vn -0.8283 -0.2153 -0.5173
vn -0.8812 -0.4728 -0.0028
vn -0.9678 -0.1496 0.2024
vn -0.8875 -0.3122 0.3390
vn -0.9209 -0.3691 0.1257
vn -0.3008 -0.3334 -0.8935
vn -0.8348 -0.5305 -0.1472
vn -0.1954 -0.9775 -0.0792
vn 0.4252 -0.3499 -0.8347
vn 0.7861 -0.6175 -0.0252
vn 0.5619 -0.5751 -0.5945
vn 0.8333 -0.2207 0.5069
vn -0.8742 -0.4714 0.1165
vn -0.8878 -0.1301 0.4414
vn -0.0370 -0.2129 0.9764
vn -0.8356 -0.5416 0.0914
vn -0.9261 -0.0772 -0.3693
vn -0.9019 0.1617 0.4006
vn -0.8367 -0.5292 0.1408
vn -0.5538 -0.5734 -0.6038
vn -0.3357 -0.9414 0.0337
vn -0.9534 -0.0480 0.2977
vn -0.9359 -0.2460 -0.2522
vn -0.0215 -0.5658 0.8243
vn -0.6637 -0.3418 0.6653
vn -0.8723 -0.2641 -0.4116
vn -0.9210 -0.2904 -0.2598
vn -0.9002 -0.0864 -0.4269
vn -0.9968 -0.0271 -0.0753
vn -0.9982 0.0223 -0.0550
vn -0.7446 -0.0968 -0.6604
vn -0.9812 0.1421 0.1308
vn -0.8259 -0.2770 -0.4911
vn -0.7876 0.6101 -0.0864
vn -0.5408 0.7113 0.4489
vn -0.6869 0.7196 -0.1014
vn -0.6437 0.5208 -0.5607
vn -0.8089 0.3341 -0.4838
vn -0.9756 0.2171 -0.0338
vn -0.7682 0.5298 0.3594
vn 0.7182 0.4072 0.5642
vn 0.6437 0.2411 0.7263
vn 0.6189 0.1034 0.7786
vn 0.7431 0.3308 0.5817
vn 0.8591 0.4291 0.2790
vn 0.7927 0.4343 0.4277
vn 0.6667 0.4565 0.5891
vn 0.4997 0.5458 0.6726
vn -0.1376 -0.9796 0.1464
vn -0.1616 -0.8011 0.5763
vn -0.0107 -0.7303 0.6831
vn 0.0573 -0.4634 0.8843
vn 0.1304 -0.3335 0.9337
vn -0.0910 -0.3762 0.9221
vn 0.4609 -0.5855 0.6669
vn 0.1494 -0.1604 0.9757
vn -0.7447 -0.0504 0.6655
vn -0.0593 -0.7003 0.7114
vn -0.3462 0.2834 0.8943
vn 0.1086 -0.9241 -0.3664
vn -0.0823 -0.4607 -0.8837
vn 0.4064 -0.7813 -0.4738
vn 0.5725 -0.7970 0.1922
vn 0.1406 -0.9670 0.2124
vn -0.4003 -0.6246 -0.6706
vn 0.5732 -0.6249 0.5301
vn 0.4960 -0.8681 -0.0225
vn 0.8291 -0.5356 -0.1602
vn 0.7372 -0.4181 0.5307
vn 0.2422 -0.1434 0.9596
vn 0.6668 -0.5741 0.4752
vn 0.9734 -0.1243 -0.1923
vn 0.7403 -0.1787 0.6480
vn -0.4016 -0.9136 0.0634
vn 0.6743 -0.7384 -0.0097
vn -0.1573 -0.6463 0.7467
vn -0.9463 -0.3230 0.0123
vn -0.9282 -0.3106 -0.2050
vn -0.7680 0.0044 -0.6404
vn 0.9081 -0.0646 -0.4138
vn 0.8305 -0.1569 -0.5345
vn 0.7661 -0.5070 -0.3949
vn 0.2130 0.0229 -0.9768
vn 0.2171 -0.1117 -0.9697
vn 0.6950 0.0113 -0.7189
vn 0.8272 0.0558 -0.5591
vn 0.8490 -0.2257 -0.4777
vn -0.6546 0.4320 0.6203
vn -0.8734 0.4764 -0.1005
vn 0.2217 0.5440 0.8093
vn -0.4377 0.7383 0.5132
vn -0.0857 0.1132 0.9899
vn 0.7049 -0.6716 0.2283
vn 0.4499 -0.7144 -0.5359
vn 0.8698 -0.4922 0.0336
vn 0.4833 -0.2647 0.8345
vn 0.7817 0.0298 0.6230
vn -0.4947 -0.8428 -0.2119
vn -0.8619 -0.1574 -0.4821
vn -0.8476 -0.4895 0.2049
vn -0.4547 0.1515 0.8777
vn -0.8919 0.3035 0.3351
vn -0.9077 0.1509 -0.3916
vn 0.0857 -0.7772 -0.6234
vn -0.3882 -0.1478 -0.9097
vn 0.3889 -0.4039 -0.8280
vn -0.9406 -0.3006 0.1576
vn 0.3683 -0.5373 -0.7587
vn -0.4527 -0.6655 -0.5934
vn 0.3617 -0.1136 -0.9253
vn -0.6235 -0.2113 -0.7527
vn 0.6734 -0.6640 0.3251
vn 0.8022 -0.2321 0.5501
vn 0.4863 -0.1967 0.8514
vn 0.9094 -0.1739 0.3778
vn 0.9424 -0.2279 0.2450
vn 0.9357 -0.2360 0.2621
vn 0.8718 0.1973 0.4483
vn 0.6840 0.1518 0.7135
vn -0.9775 -0.2108 0.0031
vn -0.8794 -0.4730 -0.0539
vn -0.6639 -0.7475 -0.0204
vn -0.6032 -0.7412 0.2946
vn 0.1805 -0.9629 0.2007
vn 0.2973 -0.0997 0.9496
vn 0.4897 0.0659 0.8694
vn 0.5057 0.1761 0.8445
vn 0.6979 0.3341 0.6335
vn 0.6889 0.4467 0.5708
vn 0.7957 0.5619 0.2262
vn 0.7260 0.2116 0.6543
vn 0.8537 0.4416 0.2761
vn 0.8184 0.5627 -0.1163
vn 0.8795 0.3511 0.3214
vn 0.8650 0.4987 -0.0549
vn 0.7553 0.5747 -0.3149
vn 0.8462 0.3101 0.4333
vn 0.8891 0.4559 -0.0410
vn 0.7710 0.5380 -0.3407
vn 0.7730 0.4824 -0.4121
vn 0.6664 0.4963 -0.5564
vn 0.9187 0.3949 -0.0011
vn 0.8197 0.4075 -0.4025
vn 0.6271 0.4447 -0.6395
vn 0.6311 0.3557 -0.6893
vn 0.4106 0.3342 -0.8484
vn 0.8637 0.3020 -0.4036
vn 0.6714 0.2450 -0.6994
vn 0.3781 0.2597 -0.8886
vn 0.3719 0.1346 -0.9185
vn 0.0874 0.1144 -0.9896
vn 0.7045 0.1984 -0.6814
vn 0.3532 0.0697 -0.9329
vn 0.0491 -0.0051 -0.9988
vn -0.0129 -0.0812 -0.9966
vn -0.2608 -0.1507 -0.9536
vn 0.3156 0.0496 -0.9476
vn -0.1145 -0.1092 -0.9874
vn -0.3012 -0.2126 -0.9296
vn -0.3615 -0.2119 -0.9079
vn -0.5968 -0.3342 -0.7295
vn -0.6170 -0.3187 -0.7195
vn -0.8356 -0.4119 -0.3635
vn -0.4884 0.0161 -0.8724
vn -0.6854 -0.0183 -0.7280
vn -0.1784 0.0898 -0.9799
vn -0.0476 0.1766 -0.9831
vn -0.4541 0.0672 -0.8884
vn -0.5258 -0.0734 -0.8474
vn -0.8330 -0.2378 -0.4996
vn -0.5698 -0.1376 -0.8101
vn -0.9148 -0.2232 -0.3367
vn -0.9091 -0.3317 -0.2521
vn -0.9593 -0.2702 -0.0821
vn -0.8999 -0.4190 -0.1211
vn -0.9490 -0.3151 -0.0132
vn -0.9369 -0.3468 0.0446
vn -0.9413 -0.3333 0.0545
vn -0.8525 -0.5163 0.0814
vn -0.7890 -0.5319 0.3076
vn -0.8681 -0.4961 0.0175
vn -0.9164 -0.2972 0.2682
vn -0.8052 -0.5849 -0.0979
vn -0.5323 -0.3756 0.7587
vn -0.7386 -0.1735 0.6514
vn -0.3725 0.0597 0.9261
vn -0.7601 -0.1613 0.6295
vn -0.3850 0.0591 0.9210
vn 0.1315 0.2564 0.9576
vn -0.4457 0.2487 0.8600
vn 0.2014 0.1972 0.9594
vn 0.1993 0.3063 0.9308
vn 0.6408 0.2565 0.7236
vn 0.1834 0.4193 0.8891
vn 0.7242 0.1164 0.6797
vn -0.4365 0.5275 0.7288
vn 0.4588 0.0310 0.8880
vn 0.7724 -0.3830 0.5067
vn 0.7855 -0.6133 -0.0834
vn 0.6156 -0.4949 0.6132
vn 0.6876 -0.7207 0.0884
vn 0.4884 -0.6671 -0.5625
vn -0.0152 -0.2902 -0.9568
vn 0.0098 -0.9850 -0.1725
vn 0.5313 -0.6121 -0.5857
vn 0.2586 -0.9063 0.3343
vn 0.0928 -0.3733 -0.9231
vn -0.4325 0.1126 -0.8946
vn -0.3478 0.0963 -0.9326
vn -0.5455 -0.0878 -0.8335
vn -0.6893 0.4963 -0.5278
vn -0.8153 -0.5667 -0.1191
vn -0.2969 -0.9321 -0.2076
vn -0.3438 -0.5272 -0.7770
vn -0.4540 -0.8660 -0.2095
vn -0.8279 -0.2417 0.5060
vn -0.9823 0.1406 -0.1241
vn -0.7085 0.7053 -0.0239
vn -0.8992 -0.1890 0.3945
vn -0.4708 0.7127 0.5200
vn 0.0288 0.4041 0.9143
vn -0.5442 -0.2138 0.8113
vn -0.1225 0.3926 0.9115
vn 0.3403 -0.0965 0.9354
vn -0.8492 0.0730 0.5230
vn -0.8571 0.3955 0.3301
vn 0.3331 -0.7030 -0.6283
vn -0.0324 -0.9935 -0.1090
vn 0.3149 -0.9296 0.1913
vn 0.8284 -0.5298 -0.1818
vn 0.5486 0.3170 0.7737
vn 0.1103 0.1742 0.9785
vn -0.1921 -0.0774 0.9783
vn 0.4607 0.2843 0.8408
vn 0.2146 -0.3019 0.9289
vn 0.8112 0.3063 0.4981
vn 0.9069 0.3206 0.2733
vn 0.9432 0.2601 0.2066
vn 0.9593 0.2822 -0.0081
vn 0.9631 0.1954 0.1851
vn 0.9744 0.2219 -0.0373
vn 0.9594 0.1385 -0.2458
vn 0.9838 0.1762 -0.0341
vn 0.9890 -0.1452 0.0286
vn 0.9736 -0.1132 -0.1981
vn 0.9125 -0.1657 -0.3740
vn 0.9353 -0.3426 -0.0888
vn 0.8564 -0.3864 -0.3425
vn 0.8324 -0.3717 -0.4110
vn 0.9635 -0.2633 0.0478
vn 0.8324 -0.2762 -0.4805
vn 0.9670 -0.1623 0.1965
vn 0.4275 -0.8845 -0.1866
vn 0.1307 -0.8967 -0.4230
vn 0.4483 -0.8888 -0.0952
vn 0.3900 -0.2342 -0.8905
vn 0.1174 -0.8747 -0.4703
vn -0.3339 -0.8119 -0.4789
vn -0.3070 0.0062 -0.9517
vn -0.7502 -0.6495 -0.1239
vn 0.4304 -0.2709 -0.8611
vn -0.3246 0.0594 -0.9440
vn -0.8576 0.2880 -0.4261
vn -0.8360 0.3619 -0.4124
vn -0.8520 0.4234 0.3078
vn -0.8457 0.4608 0.2693
vn -0.3413 0.3599 0.8683
vn -0.7596 -0.5154 0.3967
vn -0.3829 0.3573 0.8519
vn 0.3447 0.0284 0.9383
vn 0.8839 -0.2047 0.4205
vn 0.1306 -0.6553 0.7440
vn 0.3870 0.0834 0.9183
vn -0.4455 -0.5557 0.7020
vn 0.8359 -0.2933 0.4640
vn 0.8634 -0.4208 -0.2782
vn 0.8732 -0.3383 -0.3508
vn 0.7229 -0.6128 0.3193
vn 0.1623 -0.6671 0.7271
vn -0.3614 -0.5662 0.7408
vn 0.3894 -0.8253 0.4089
vn -0.7023 -0.5916 0.3960
vn -0.6920 -0.7161 -0.0913
vn -0.2075 -0.7502 -0.6278
vn 0.8405 -0.4774 0.2562
vn 0.8859 0.1365 -0.4434
vn 0.9008 0.0964 -0.4234
vn 0.9517 0.1761 -0.2517
vn 0.7980 0.1122 -0.5921
vn 0.8642 0.2024 -0.4606
vn 0.9419 0.2337 -0.2411
vn 0.8257 0.3121 -0.4700
vn 0.9135 0.3547 -0.1992
vn 0.9244 0.3805 0.0273
vn 0.9161 0.3716 -0.1507
vn 0.8986 0.4089 0.1594
vn 0.4170 0.9034 0.0997
vn 0.3708 0.8857 0.2793
vn 0.9284 0.2433 0.2809
vn 0.7578 0.1781 0.6277
vn 0.1862 0.8327 0.5215
vn 0.3439 0.8954 0.2829
vn 0.4786 0.0819 0.8742
vn -0.1099 0.7698 0.6288
vn 0.1895 0.8867 0.4218
vn 0.3691 0.4818 0.7948
vn 0.0713 -0.0558 0.9959
vn -0.0307 0.8478 0.5294
vn -0.2155 0.4592 0.8618
vn -0.6341 0.3472 0.6909
vn -0.5654 0.6102 0.5550
vn -0.0284 0.6946 0.7189
vn -0.5202 0.5817 0.6253
vn 0.1551 0.6008 0.7842
vn -0.4772 0.6049 0.6374
vn 0.3430 0.4675 0.8147
vn -0.9231 0.2675 0.2763
vn -0.7310 -0.4466 0.5159
vn -0.7648 -0.0726 -0.6401
vn -0.1674 -0.5593 -0.8119
vn -0.9046 0.2237 0.3629
vn -0.9095 0.3250 0.2592
vn -0.9780 -0.1819 0.1023
vn -0.9220 0.1904 0.3370
vn -0.9008 -0.4341 0.0017
vn -0.6257 0.6868 -0.3700
vn -0.8245 -0.4178 0.3816
vn -0.8926 -0.4508 -0.0020
vn -0.8138 -0.4188 -0.4029
vn -0.9049 -0.4249 -0.0248
vn -0.8164 -0.3924 -0.4238
vn -0.5855 -0.2956 -0.7549
vn -0.8086 -0.4012 -0.4304
vn -0.5788 -0.2581 -0.7735
vn -0.2299 -0.0588 -0.9714
vn -0.4804 -0.2582 -0.8382
vn -0.1450 -0.0141 -0.9893
vn 0.1575 0.1850 -0.9700
vn -0.0498 -0.0181 -0.9986
vn 0.2505 0.2103 -0.9450
vn 0.5047 0.3951 -0.7676
vn 0.3242 0.2349 -0.9163
vn 0.5527 0.4263 -0.7161
vn 0.6921 0.5465 -0.4715
vn 0.5581 0.4755 -0.6800
vn 0.3916 0.1970 -0.8988
vn 0.3493 -0.0609 -0.9350
vn 0.4563 0.2171 -0.8629
vn 0.2236 -0.0236 -0.9744
vn 0.0593 -0.0297 -0.9978
vn -0.0211 -0.4534 -0.8911
vn -0.2794 -0.3269 -0.9028
vn -0.3914 -0.2899 -0.8734
vn -0.5643 -0.5839 -0.5837
vn -0.7270 -0.4670 -0.5034
vn -0.6541 -0.5201 -0.5492
vn -0.7511 -0.6540 -0.0901
vn -0.8123 -0.5819 -0.0386
vn -0.8859 -0.4637 -0.0146
vn -0.7165 -0.5808 0.3865
vn -0.8278 -0.4344 0.3551
vn -0.8456 -0.3976 0.3562
vn -0.6659 -0.3563 0.6554
vn -0.6493 -0.3226 0.6887
vn -0.6178 -0.3345 0.7116
vn -0.3203 -0.1972 0.9266
vn -0.8215 -0.3993 0.4070
vn -0.5884 -0.3075 0.7479
vn -0.3136 -0.2093 0.9262
vn -0.3095 -0.1941 0.9309
vn 0.0316 -0.0997 0.9945
vn -0.3561 -0.2392 0.9033
vn -0.0109 -0.0619 0.9980
vn 0.0024 -0.0758 0.9971
vn 0.2945 0.0714 0.9530
vn 0.3766 0.0559 0.9247
vn 0.6482 0.2093 0.7321
vn 0.3431 0.0451 0.9382
vn 0.7141 0.1694 0.6792
vn 0.8785 0.2972 0.3741
vn 0.9095 0.2447 0.3359
vn 0.9460 0.3228 -0.0292
vn 0.8425 0.3089 0.4414
vn 0.6298 0.1869 0.7540
vn 0.9615 0.2671 -0.0639
vn 0.9606 0.2634 -0.0893
vn 0.8831 0.2508 -0.3966
vn 0.8860 0.2467 -0.3925
vn 0.4117 0.8971 -0.1602
vn 0.7083 0.1880 -0.6804
vn 0.1797 0.8632 -0.4718
vn 0.8396 0.3386 -0.4249
vn 0.6578 0.2823 -0.6983
vn 0.3121 0.2028 -0.9281
vn 0.6417 0.2808 -0.7137
vn 0.3793 0.2533 -0.8899
vn 0.5287 0.1696 -0.8317
vn 0.0301 0.0932 -0.9952
vn 0.7518 0.1819 -0.6338
vn 0.6265 0.0790 -0.7754
vn 0.1125 -0.0107 -0.9936
vn 0.1714 -0.0818 -0.9818
vn -0.6067 -0.2429 -0.7569
vn -0.6857 -0.2503 -0.6834
vn 0.3712 0.9166 0.1483
vn 0.6665 0.1238 0.7351
vn 0.7392 0.1407 0.6586
vn 0.3841 -0.0639 0.9211
vn 0.0840 -0.3717 0.9246
vn 0.0001 -0.2469 0.9690
vn -0.1339 -0.5125 0.8482
vn -0.3043 -0.3892 0.8695
vn -0.4043 -0.6469 0.6466
vn -0.5257 -0.5015 0.6871
vn -0.6457 -0.6892 0.3288
vn -0.5794 -0.7877 0.2094
vn -0.6683 -0.7247 -0.1675
vn -0.3839 -0.8934 -0.2334
vn -0.2600 -0.7631 -0.5917
vn -0.1365 -0.9596 -0.2460
vn 0.0097 -0.8073 -0.5900
vn 0.1969 -0.4123 -0.8895
vn 0.7516 0.6382 0.1667
vn 0.7598 0.6396 -0.1165
vn 0.7355 0.6705 -0.0968
vn 0.7140 0.6365 -0.2916
vn -0.3307 -0.7227 0.6069
vn -0.3385 -0.9285 0.1526
vn -0.0093 -0.5212 0.8534
vn 0.2055 -0.3229 0.9239
vn 0.4811 -0.0652 0.8742
vn 0.2602 -0.1910 0.9465
vn 0.4258 -0.1476 0.8927
vn -0.1494 -0.6379 0.7555
vn -0.8668 -0.4355 -0.2429
vn -0.2176 -0.8786 0.4250
vn -0.6728 0.0807 -0.7354
vn 0.2935 0.0337 -0.9554
vn 0.4655 -0.7973 -0.3842
vn 0.9550 -0.0613 -0.2901
vn 0.7452 -0.0840 0.6615
vn -0.2250 -0.0046 0.9744
vn -0.5170 -0.8424 0.1522
vn -0.9635 0.0566 0.2618
vn -0.2896 -0.2405 0.9264
vt 0.444316 0.243245
vt 0.443753 0.248371
vt 0.963997 0.570763
vt 0.969444 0.571105
vt 0.958618 0.570680
vt 0.442504 0.259112
vt 0.441612 0.264160
vt 0.309198 0.673288
vt 0.303629 0.676076
vt 0.319782 0.667992
vt 0.314848 0.670889
vt 0.957320 0.384911
vt 0.962981 0.384477
vt 0.968785 0.385409
vt 0.270632 0.098148
vt 0.270210 0.102569
vt 0.115507 0.578756
vt 0.116440 0.586178
vt 0.658863 0.536973
vt 0.658974 0.530267
vt 0.658956 0.543316
vt 0.118426 0.600897
vt 0.119360 0.608362
vt 0.117363 0.593453
vt 0.952569 0.383575
vt 0.528420 0.691023
vt 0.524089 0.686222
vt 0.541739 0.704455
vt 0.537210 0.700253
vt 0.532800 0.695739
vt 0.323794 0.662411
vt 0.328019 0.657547
vt 0.331743 0.652288
vt 0.973166 0.385112
vt 0.273720 0.082000
vt 0.272694 0.086290
vt 0.271760 0.091451
vt 0.505658 0.659092
vt 0.502823 0.652423
vt 0.569599 0.456239
vt 0.535777 0.455257
vt 0.566741 0.474527
vt 0.541115 0.249886
vt 0.572694 0.263071
vt 0.576221 0.238326
vt 0.968119 0.348858
vt 0.964385 0.352265
vt 0.966503 0.346894
vt 0.960276 0.349795
vt 0.965426 0.343450
vt 0.970670 0.344733
vt 0.417395 0.762923
vt 0.414879 0.758983
vt 0.410756 0.764617
vt 0.417879 0.766386
vt 0.420559 0.764948
vt 0.422742 0.761304
vt 0.420365 0.758894
vt 0.417537 0.759723
vt 0.416020 0.765795
vt 0.416504 0.756301
vt 0.412007 0.756755
vt 0.413517 0.753366
vt 0.407821 0.748382
vt 0.402453 0.753030
vt 0.414206 0.773192
vt 0.407295 0.772022
vt 0.411695 0.781966
vt 0.416706 0.772378
vt 0.422606 0.786593
vt 0.420248 0.776426
vt 0.416359 0.797006
vt 0.394282 0.781168
vt 0.397878 0.793078
vt 0.408234 0.796152
vt 0.403734 0.763414
vt 0.412460 0.770632
vt 0.413525 0.767560
vt 0.171900 0.161900
vt 0.173051 0.168330
vt 0.167911 0.163373
vt 0.176885 0.159141
vt 0.175499 0.163668
vt 0.169514 0.154893
vt 0.173475 0.157022
vt 0.352989 0.718483
vt 0.365431 0.701026
vt 0.342743 0.696111
vt 0.366764 0.689817
vt 0.345094 0.682502
vt 0.344216 0.720584
vt 0.974397 0.350896
vt 0.968937 0.353069
vt 0.488215 0.253140
vt 0.479835 0.260026
vt 0.479550 0.253965
vt 0.479494 0.248195
vt 0.490573 0.249106
vt 0.496616 0.252751
vt 0.491267 0.257432
vt 0.463226 0.703582
vt 0.445500 0.692757
vt 0.444544 0.703939
vt 0.446550 0.725471
vt 0.469163 0.713715
vt 0.491573 0.695437
vt 0.488210 0.688350
vt 0.464560 0.689443
vt 0.552942 0.343975
vt 0.547572 0.364204
vt 0.564842 0.362894
vt 0.552721 0.384349
vt 0.574533 0.386872
vt 0.969646 0.513160
vt 0.972113 0.520727
vt 0.966781 0.519148
vt 0.967932 0.507635
vt 0.973529 0.512658
vt 0.960956 0.515671
vt 0.981375 0.515766
vt 0.989506 0.520216
vt 0.982607 0.522048
vt 0.977134 0.521784
vt 0.977481 0.513950
vt 0.984487 0.511082
vt 0.201097 0.292712
vt 0.195193 0.298886
vt 0.200642 0.298091
vt 0.210022 0.297128
vt 0.208415 0.290337
vt 0.205866 0.284056
vt 0.196805 0.290662
vt 0.619487 0.543295
vt 0.626197 0.538484
vt 0.625899 0.544958
vt 0.158338 0.593983
vt 0.155303 0.588787
vt 0.160067 0.588918
vt 0.153947 0.600601
vt 0.154379 0.591996
vt 0.387130 0.765566
vt 0.380075 0.770388
vt 0.389843 0.795678
vt 0.423294 0.800804
vt 0.433381 0.790419
vt 0.426712 0.779568
vt 0.428304 0.806424
vt 0.439529 0.799752
vt 0.449319 0.786380
vt 0.445799 0.778751
vt 0.434114 0.780941
vt 0.304825 0.090137
vt 0.296042 0.081831
vt 0.308809 0.086993
vt 0.293648 0.094323
vt 0.294549 0.088348
vt 0.311779 0.094220
vt 0.305416 0.095140
vt 0.955307 0.351122
vt 0.958100 0.362561
vt 0.952471 0.361657
vt 0.305841 0.100440
vt 0.309100 0.108595
vt 0.303706 0.106460
vt 0.292787 0.100446
vt 0.505263 0.246505
vt 0.498812 0.247810
vt 0.500990 0.242526
vt 0.979353 0.507912
vt 0.974823 0.505883
vt 0.180716 0.151734
vt 0.183350 0.157389
vt 0.184473 0.163738
vt 0.202456 0.302495
vt 0.198429 0.305212
vt 0.208331 0.311613
vt 0.210190 0.304037
vt 0.148361 0.589079
vt 0.618015 0.534520
vt 0.617748 0.538962
vt 0.154666 0.585680
vt 0.152242 0.577613
vt 0.158630 0.584002
vt 0.149121 0.583685
vt 0.250838 0.106202
vt 0.247846 0.099465
vt 0.418583 0.694801
vt 0.431284 0.705495
vt 0.427840 0.691603
vt 0.422996 0.756804
vt 0.426543 0.759467
vt 0.418390 0.756437
vt 0.429557 0.751271
vt 0.421867 0.753619
vt 0.396828 0.686350
vt 0.383319 0.699314
vt 0.399235 0.695222
vt 0.397896 0.710342
vt 0.961885 0.403020
vt 0.969631 0.402534
vt 0.955138 0.401405
vt 0.408402 0.697472
vt 0.577349 0.405348
vt 0.552416 0.409755
vt 0.576156 0.417510
vt 0.550278 0.418707
vt 0.574295 0.427028
vt 0.547811 0.427361
vt 0.522712 0.409636
vt 0.520600 0.417505
vt 0.518103 0.425589
vt 0.492236 0.409191
vt 0.490361 0.416625
vt 0.515154 0.433652
vt 0.462061 0.402238
vt 0.460686 0.409744
vt 0.488182 0.424183
vt 0.459282 0.416800
vt 0.485196 0.431896
vt 0.429774 0.403499
vt 0.428122 0.410477
vt 0.457507 0.423860
vt 0.433512 0.290126
vt 0.465725 0.291028
vt 0.463879 0.283047
vt 0.426450 0.417536
vt 0.398720 0.403865
vt 0.396863 0.410693
vt 0.403941 0.295498
vt 0.434750 0.297356
vt 0.405061 0.302503
vt 0.435795 0.305071
vt 0.378872 0.301000
vt 0.380064 0.307051
vt 0.405956 0.309395
vt 0.380997 0.313294
vt 0.406620 0.316369
vt 0.356790 0.311432
vt 0.357559 0.316835
vt 0.381654 0.319566
vt 0.358205 0.322595
vt 0.382112 0.325997
vt 0.334060 0.320328
vt 0.334561 0.325282
vt 0.358629 0.328004
vt 0.334505 0.330212
vt 0.358939 0.333733
vt 0.325280 0.700602
vt 0.332695 0.698378
vt 0.319107 0.702900
vt 0.329704 0.726968
vt 0.336884 0.723621
vt 0.348051 0.745514
vt 0.354994 0.741702
vt 0.360681 0.763309
vt 0.368110 0.758696
vt 0.363396 0.738003
vt 0.376077 0.754404
vt 0.374623 0.734152
vt 0.384456 0.749806
vt 0.394419 0.759422
vt 0.393711 0.744491
vt 0.398053 0.771706
vt 0.398955 0.726113
vt 0.386971 0.730112
vt 0.402386 0.739506
vt 0.383700 0.713632
vt 0.408949 0.722252
vt 0.410618 0.735741
vt 0.418310 0.733785
vt 0.412996 0.745374
vt 0.418039 0.744561
vt 0.425366 0.734580
vt 0.417748 0.751199
vt 0.422386 0.745450
vt 0.419846 0.751778
vt 0.426342 0.747850
vt 0.417904 0.754706
vt 0.418166 0.755454
vt 0.426681 0.256328
vt 0.425067 0.261347
vt 0.958889 0.588479
vt 0.964557 0.588960
vt 0.963610 0.549536
vt 0.969586 0.550125
vt 0.975273 0.550717
vt 0.970637 0.532187
vt 0.976530 0.533015
vt 0.983127 0.533587
vt 0.987552 0.552226
vt 0.980386 0.570867
vt 0.981360 0.551599
vt 0.974736 0.571117
vt 0.479837 0.236513
vt 0.462739 0.242895
vt 0.462790 0.236893
vt 0.990563 0.534021
vt 0.492345 0.238211
vt 0.479348 0.242660
vt 0.491221 0.244465
vt 0.462694 0.248839
vt 0.444557 0.238021
vt 0.430800 0.242169
vt 0.432090 0.237359
vt 0.443225 0.253702
vt 0.429813 0.246480
vt 0.462608 0.254563
vt 0.462390 0.260636
vt 0.461965 0.266569
vt 0.480144 0.266531
vt 0.964312 0.531006
vt 0.957281 0.549331
vt 0.957167 0.529607
vt 0.492852 0.263193
vt 0.417473 0.754349
vt 0.415494 0.751659
vt 0.416973 0.754538
vt 0.416535 0.755321
vt 0.428290 0.251522
vt 0.985807 0.571160
vt 0.982135 0.585382
vt 0.416907 0.757064
vt 0.417516 0.757363
vt 0.418092 0.757046
vt 0.975951 0.587426
vt 0.431197 0.737452
vt 0.429735 0.718977
vt 0.419359 0.719208
vt 0.439047 0.721504
vt 0.420034 0.706841
vt 0.436407 0.741341
vt 0.452087 0.732570
vt 0.441006 0.746224
vt 0.457746 0.739770
vt 0.432768 0.755032
vt 0.445553 0.751916
vt 0.439175 0.765261
vt 0.435765 0.759507
vt 0.428845 0.762858
vt 0.431152 0.767740
vt 0.433194 0.773696
vt 0.426314 0.768166
vt 0.427191 0.773464
vt 0.422104 0.772113
vt 0.422091 0.768108
vt 0.418225 0.770290
vt 0.265834 0.288594
vt 0.254673 0.294476
vt 0.266125 0.294933
vt 0.254760 0.300754
vt 0.265750 0.301527
vt 0.264937 0.307670
vt 0.240349 0.301492
vt 0.254591 0.307172
vt 0.215118 0.162685
vt 0.226254 0.152849
vt 0.227862 0.159117
vt 0.241045 0.308259
vt 0.223266 0.303668
vt 0.224129 0.311568
vt 0.199494 0.168078
vt 0.213159 0.156005
vt 0.197549 0.160864
vt 0.211399 0.149126
vt 0.184644 0.171475
vt 0.195362 0.153748
vt 0.209719 0.142202
vt 0.224679 0.146086
vt 0.193212 0.146828
vt 0.190977 0.139809
vt 0.177364 0.146310
vt 0.239423 0.288133
vt 0.253864 0.281800
vt 0.239184 0.281233
vt 0.208205 0.135476
vt 0.223099 0.138744
vt 0.221742 0.288707
vt 0.222576 0.296106
vt 0.220820 0.281210
vt 0.239799 0.294773
vt 0.254329 0.288307
vt 0.264653 0.281696
vt 0.221914 0.132007
vt 0.232497 0.136085
vt 0.234359 0.144420
vt 0.236277 0.151012
vt 0.418561 0.768208
vt 0.424779 0.764004
vt 0.455045 0.765872
vt 0.442481 0.771787
vt 0.450354 0.758829
vt 0.459990 0.772343
vt 0.469273 0.754649
vt 0.463605 0.747716
vt 0.486096 0.736439
vt 0.479964 0.730032
vt 0.473964 0.722302
vt 0.500308 0.708715
vt 0.495651 0.702345
vt 0.519915 0.681357
vt 0.332748 0.370887
vt 0.354233 0.380085
vt 0.355475 0.374593
vt 0.334237 0.365965
vt 0.515842 0.676076
vt 0.356635 0.368921
vt 0.335446 0.361221
vt 0.511895 0.670465
vt 0.485606 0.681175
vt 0.357617 0.363270
vt 0.336375 0.356144
vt 0.508531 0.665108
vt 0.483049 0.672001
vt 0.480648 0.662748
vt 0.461737 0.664812
vt 0.463320 0.677379
vt 0.446628 0.667884
vt 0.447287 0.679895
vt 0.431315 0.669910
vt 0.430837 0.678961
vt 0.254248 0.080379
vt 0.251013 0.088043
vt 0.257918 0.073481
vt 0.976182 0.402078
vt 0.976054 0.363680
vt 0.969885 0.363684
vt 0.963827 0.363270
vt 0.396649 0.678929
vt 0.383975 0.668557
vt 0.382856 0.679448
vt 0.369174 0.667370
vt 0.367927 0.678902
vt 0.383333 0.689350
vt 0.348286 0.672728
vt 0.351307 0.664473
vt 0.336886 0.345433
vt 0.359108 0.339694
vt 0.336404 0.340106
vt 0.334684 0.334794
vt 0.382529 0.345653
vt 0.382584 0.339164
vt 0.382439 0.332511
vt 0.407874 0.338233
vt 0.407633 0.330856
vt 0.407169 0.323451
vt 0.437741 0.328746
vt 0.437235 0.320641
vt 0.436617 0.312818
vt 0.470073 0.317374
vt 0.468752 0.308540
vt 0.467350 0.299741
vt 0.497596 0.302279
vt 0.495449 0.292406
vt 0.493173 0.282457
vt 0.520750 0.284001
vt 0.518559 0.272953
vt 0.490559 0.272887
vt 0.515448 0.261405
vt 0.543603 0.265019
vt 0.510760 0.442344
vt 0.544222 0.277931
vt 0.562806 0.292215
vt 0.568375 0.279263
vt 0.543744 0.290631
vt 0.522003 0.295212
vt 0.542556 0.302387
vt 0.523016 0.306105
vt 0.499429 0.312290
vt 0.523948 0.318321
vt 0.471456 0.326154
vt 0.500680 0.322614
vt 0.502180 0.333905
vt 0.471664 0.335612
vt 0.438115 0.337060
vt 0.471567 0.345537
vt 0.438285 0.345692
vt 0.407836 0.345674
vt 0.437988 0.354576
vt 0.407496 0.353009
vt 0.382249 0.352183
vt 0.406909 0.360450
vt 0.359084 0.345552
vt 0.358868 0.351372
vt 0.381768 0.358830
vt 0.336910 0.350647
vt 0.358379 0.357499
vt 0.435756 0.372063
vt 0.436958 0.363423
vt 0.406069 0.368213
vt 0.380978 0.365511
vt 0.405026 0.375620
vt 0.379938 0.371982
vt 0.403636 0.382934
vt 0.434292 0.380409
vt 0.378662 0.378273
vt 0.402069 0.389940
vt 0.377244 0.384541
vt 0.400448 0.396784
vt 0.431356 0.396220
vt 0.432785 0.388459
vt 0.375716 0.390888
vt 0.352874 0.385615
vt 0.374033 0.397269
vt 0.351375 0.391045
vt 0.372253 0.403310
vt 0.329764 0.380245
vt 0.328292 0.384885
vt 0.349737 0.396334
vt 0.332414 0.310978
vt 0.355845 0.306186
vt 0.505284 0.714422
vt 0.510225 0.719464
vt 0.515566 0.724568
vt 0.492395 0.741868
vt 0.498646 0.746775
vt 0.504742 0.751667
vt 0.520572 0.729293
vt 0.481531 0.766104
vt 0.487620 0.771431
vt 0.475245 0.761026
vt 0.464637 0.779297
vt 0.470077 0.786147
vt 0.353951 0.768369
vt 0.341257 0.749882
vt 0.454237 0.794999
vt 0.365123 0.781857
vt 0.372543 0.775798
vt 0.375812 0.792592
vt 0.382794 0.786749
vt 0.333246 0.315688
vt 0.331209 0.375645
vt 0.463677 0.394484
vt 0.494006 0.401809
vt 0.465521 0.386529
vt 0.497770 0.384755
vt 0.467535 0.377733
vt 0.499698 0.373534
vt 0.469597 0.367713
vt 0.501605 0.359772
vt 0.470988 0.356547
vt 0.502517 0.346224
vt 0.526119 0.346901
vt 0.525048 0.331559
vt 0.541305 0.329284
vt 0.541228 0.315203
vt 0.551238 0.327824
vt 0.553063 0.314526
vt 0.557344 0.303558
vt 0.572553 0.436020
vt 0.545084 0.435950
vt 0.570937 0.445367
vt 0.541558 0.445033
vt 0.526884 0.363709
vt 0.543427 0.345778
vt 0.527060 0.380074
vt 0.526123 0.392089
vt 0.524565 0.401304
vt 0.553912 0.399705
vt 0.495881 0.393836
vt 0.408272 0.708933
vt 0.367537 0.715883
vt 0.292134 0.106804
vt 0.136699 0.583188
vt 0.136806 0.574903
vt 0.639405 0.530093
vt 0.639595 0.537734
vt 0.625555 0.531994
vt 0.639878 0.545434
vt 0.139728 0.605931
vt 0.138096 0.598118
vt 0.137153 0.590708
vt 0.149689 0.594488
vt 0.100627 0.596864
vt 0.102103 0.604991
vt 0.674782 0.543814
vt 0.676185 0.530710
vt 0.675841 0.537712
vt 0.098268 0.588955
vt 0.096736 0.581560
vt 0.504320 0.251370
vt 0.312860 0.099915
vt 0.384865 0.800548
vt 0.501273 0.257642
vt 0.970688 0.589400
vt 0.988096 0.584657
vt 0.231899 0.129457
vt 0.237977 0.157675
vt 0.398454 0.671283
vt 0.326786 0.389510
vt 0.948206 0.402504
vt 0.102325 0.611073
s 1
g off
g 01.001_Material.001
usemtl Material.001
f 502/1/1 299/2/2 503/2/3
f 508/3/4 280/4/5 507/4/6
f 509/5/7 279/3/8 508/3/4
f 510/6/9 278/7/10 509/7/7
f 513/8/11 241/9/12 514/9/13
f 511/10/14 243/11/15 512/11/16
f 512/11/16 242/8/17 513/8/11
f 515/12/18 193/13/19 517/13/20
f 193/13/19 516/14/21 517/13/20
f 519/15/22 176/16/23 518/16/24
f 5/17/25 490/18/26 6/18/27
f 4/19/28 491/20/29 5/20/25
f 494/21/30 4/19/28 3/21/31
f 2/22/32 494/23/30 3/23/31
f 490/18/26 1/24/33 6/18/27
f 1/24/33 496/22/34 2/22/32
f 176/25/23 515/12/18 518/25/24
f 454/26/35 21/27/36 9/26/37
f 514/28/13 456/29/38 7/29/39
f 456/29/38 8/30/40 7/29/39
f 8/30/40 454/26/35 9/26/37
f 391/31/41 511/10/14 10/31/42
f 390/32/43 10/31/42 11/32/44
f 373/33/45 11/32/44 15/33/46
f 516/14/21 384/34/47 12/34/48
f 12/35/48 381/36/49 14/36/50
f 13/37/51 175/15/52 519/15/22
f 14/36/50 382/37/53 13/37/51
f 371/38/54 15/39/46 16/38/55
f 57/40/56 59/41/57 28/42/58
f 59/43/57 61/44/59 28/45/58
f 36/46/60 63/47/61 29/48/62
f 29/48/62 64/49/63 65/50/64
f 29/48/62 66/51/65 36/46/60
f 30/52/66 68/53/67 33/54/68
f 30/52/66 70/55/69 71/56/70
f 71/56/70 73/57/71 30/52/66
f 30/52/66 74/58/72 67/59/73
f 33/54/68 69/60/74 30/52/66
f 68/53/67 77/61/75 31/62/76
f 77/61/75 79/63/77 31/62/76
f 31/62/76 80/64/78 81/65/79
f 31/62/76 33/54/68 68/53/67
f 83/66/80 85/67/81 32/68/82
f 32/68/82 87/69/83 83/66/80
f 88/70/84 86/71/85 32/68/82
f 32/68/82 91/72/86 88/70/84
f 85/67/81 44/73/87 32/68/82
f 32/68/82 93/74/88 90/75/89
f 82/76/90 85/67/81 33/54/68
f 33/54/68 84/77/91 75/78/92
f 34/79/93 95/80/94 96/81/95
f 34/79/93 49/82/96 94/83/97
f 34/79/93 98/84/98 97/85/99
f 99/86/100 101/87/101 35/88/102
f 35/88/102 102/89/103 103/90/104
f 35/88/102 105/91/105 99/86/100
f 36/46/60 106/92/106 62/93/107
f 37/94/108 108/95/109 109/96/110
f 37/94/108 110/97/111 111/98/112
f 37/94/108 112/99/113 107/100/114
f 38/101/115 114/102/116 115/103/117
f 116/104/118 118/105/119 38/101/115
f 38/101/115 119/106/120 120/107/121
f 120/107/121 113/108/122 38/101/115
f 122/109/123 124/110/124 39/111/125
f 39/111/125 125/112/126 126/113/127
f 40/114/128 128/115/129 129/116/130
f 130/117/131 127/118/132 40/114/128
f 40/114/128 132/119/133 130/117/131
f 41/120/134 134/121/135 135/122/136
f 41/120/134 136/123/137 137/124/138
f 137/124/138 133/125/139 41/120/134
f 42/126/140 96/127/95 138/128/141
f 42/126/140 139/129/142 140/130/143
f 42/126/140 141/131/144 98/132/98
f 43/133/145 143/134/146 144/135/147
f 43/136/145 145/137/148 142/138/149
f 144/139/147 51/140/150 43/136/145
f 44/73/87 147/141/151 148/142/152
f 44/73/87 150/143/153 93/74/88
f 88/70/84 151/144/154 45/145/155
f 45/145/155 89/146/156 88/70/84
f 45/145/155 153/147/157 154/148/158
f 154/148/158 156/149/159 45/145/155
f 45/145/155 157/150/160 152/151/161
f 46/152/162 159/153/163 106/154/106
f 46/152/162 161/155/164 158/156/165
f 46/152/162 66/157/65 160/158/166
f 47/159/167 162/160/168 163/161/169
f 164/162/170 64/163/63 47/164/167
f 47/164/167 165/165/171 164/162/170
f 48/166/172 166/167/173 133/168/139
f 48/169/172 127/118/132 131/170/174
f 49/82/96 167/171/175 168/172/176
f 49/82/96 169/173/177 94/83/97
f 50/174/178 139/129/142 138/128/141
f 138/128/141 95/175/94 50/174/178
f 50/174/178 171/176/179 170/177/180
f 51/140/150 172/178/181 145/137/148
f 52/179/182 143/134/146 142/180/149
f 53/181/183 173/182/184 52/183/182
f 52/183/182 145/137/148 53/181/183
f 53/181/183 172/178/181 174/184/185
f 519/15/22 177/185/186 54/186/187
f 177/187/186 179/188/188 54/189/187
f 54/189/187 115/103/117 114/102/116
f 55/190/189 73/57/71 180/191/190
f 181/192/191 74/58/72 55/190/189
f 183/193/192 185/194/193 55/190/189
f 185/194/193 181/192/191 55/190/189
f 180/191/190 183/193/192 55/190/189
f 188/195/194 190/196/195 56/197/196
f 190/196/195 192/198/197 56/197/196
f 56/199/196 516/14/21 188/200/194
f 195/201/198 517/13/20 56/199/196
f 192/198/197 195/202/198 56/197/196
f 198/203/199 202/204/200 199/205/201
f 199/205/201 203/206/202 200/207/203
f 204/208/204 200/207/203 203/206/202
f 202/204/200 207/209/205 203/206/202
f 203/206/202 208/210/206 204/208/204
f 209/211/207 204/208/204 208/210/206
f 207/209/205 212/212/208 208/210/206
f 208/210/206 213/213/209 209/211/207
f 213/213/209 215/214/210 209/211/207
f 213/213/209 216/215/211 217/216/212
f 217/216/212 214/217/213 213/213/209
f 218/218/214 220/219/215 214/217/213
f 218/218/214 221/220/216 222/221/217
f 222/221/217 219/222/218 218/218/214
f 223/223/219 225/224/220 219/225/218
f 223/226/219 226/227/221 227/228/222
f 227/229/222 224/230/223 223/223/219
f 228/231/224 230/232/225 224/230/223
f 228/231/224 231/233/226 232/234/227
f 232/234/227 229/235/228 228/231/224
f 233/236/229 235/237/230 229/235/228
f 233/236/229 236/238/231 237/239/232
f 237/239/232 234/240/233 233/236/229
f 238/241/234 240/242/235 234/240/233
f 238/241/234 241/243/12 242/244/17
f 242/244/17 239/245/236 238/241/234
f 243/246/15 245/247/237 239/245/236
f 512/11/16 246/248/238 104/249/239
f 104/249/239 511/10/14 512/11/16
f 513/8/11 247/250/240 246/248/238
f 246/248/238 248/251/241 249/252/242
f 249/252/242 104/249/239 246/248/238
f 248/251/241 251/253/243 249/252/242
f 251/253/243 105/91/105 249/252/242
f 252/254/244 99/86/100 105/91/105
f 252/254/244 254/255/245 255/256/246
f 255/256/246 253/257/247 252/254/244
f 256/258/248 258/259/249 253/257/247
f 256/258/248 148/142/152 147/141/151
f 147/141/151 257/260/250 256/258/248
f 259/261/251 260/262/252 257/260/250
f 259/261/251 92/263/253 82/76/90
f 82/76/90 81/65/79 259/261/251
f 260/262/252 262/264/254 263/265/255
f 263/265/255 257/260/250 260/262/252
f 81/65/79 261/266/256 260/262/252
f 262/264/254 191/267/257 263/265/255
f 191/267/257 258/259/249 263/265/255
f 264/268/258 192/198/197 262/264/254
f 262/264/254 265/269/259 264/268/258
f 266/270/260 264/268/258 265/269/259
f 261/266/256 268/271/261 265/269/259
f 265/269/259 269/272/262 266/270/260
f 269/272/262 271/273/263 266/270/260
f 268/271/261 273/274/264 269/272/262
f 273/274/264 270/275/265 269/272/262
f 274/276/266 184/277/267 270/275/265
f 273/274/264 276/278/268 274/276/266
f 274/276/266 186/279/269 185/194/193
f 275/280/270 509/7/7 276/281/268
f 276/282/268 508/3/4 186/283/269
f 507/4/6 186/283/269 508/3/4
f 278/5/10 282/284/271 279/3/8
f 279/3/8 283/285/272 280/4/5
f 284/286/273 280/4/5 283/285/272
f 282/284/271 287/287/274 283/285/272
f 283/285/272 288/288/275 284/286/273
f 289/289/276 284/286/273 288/288/275
f 287/287/274 136/123/137 288/288/275
f 288/288/275 135/122/136 289/289/276
f 291/290/277 293/291/278 290/292/279
f 290/292/279 285/293/280 284/286/273
f 289/289/276 291/290/277 290/292/279
f 294/294/281 296/295/282 291/296/277
f 289/289/276 134/121/135 294/297/281
f 134/298/135 295/299/283 294/294/281
f 297/300/284 110/97/111 295/299/283
f 297/300/284 133/168/139 166/167/173
f 166/167/173 111/98/112 297/300/284
f 298/301/285 300/1/286 296/295/282
f 296/295/282 292/302/287 291/296/277
f 295/299/283 298/301/285 296/295/282
f 503/2/3 77/303/75 502/1/1
f 502/1/1 76/304/288 505/302/289
f 501/305/290 78/306/291 503/2/3
f 299/2/2 303/307/292 301/305/293
f 304/308/294 301/305/293 303/307/292
f 298/301/285 109/96/110 303/307/292
f 303/307/292 108/95/109 304/308/294
f 281/309/295 277/6/296 304/308/294
f 304/308/294 305/310/297 281/309/295
f 286/311/298 281/312/295 305/313/297
f 108/95/109 132/314/133 305/310/297
f 305/313/297 129/116/130 286/311/298
f 275/315/270 272/316/299 302/317/300
f 302/317/300 79/63/77 78/318/291
f 302/319/300 510/6/9 275/280/270
f 505/320/289 306/321/301 504/291/302
f 306/321/301 506/293/303 504/291/302
f 76/322/288 67/59/73 306/323/301
f 67/59/73 182/324/304 306/323/301
f 286/311/298 128/115/129 287/287/274
f 182/325/304 507/4/6 506/293/303
f 268/271/261 79/63/77 272/316/299
f 307/326/305 309/327/306 271/273/263
f 271/273/263 267/328/307 266/270/260
f 270/275/265 307/326/305 271/273/263
f 308/329/308 179/188/188 309/327/306
f 309/327/306 178/330/309 267/328/307
f 116/104/118 115/103/117 308/329/308
f 307/326/305 116/104/118 308/329/308
f 310/331/310 117/332/311 116/104/118
f 310/331/310 184/277/267 183/193/192
f 183/193/192 311/333/312 310/331/310
f 311/333/312 313/334/313 117/332/311
f 187/335/314 312/336/315 311/333/312
f 315/337/316 312/336/315 314/338/317
f 187/335/314 317/339/318 314/338/317
f 314/338/317 318/340/319 315/337/316
f 319/341/320 315/337/316 318/340/319
f 317/339/318 321/342/321 318/340/319
f 318/340/319 322/343/322 319/341/320
f 89/146/156 319/341/320 322/343/322
f 321/342/321 324/344/323 322/343/322
f 324/344/323 89/146/156 322/343/322
f 323/345/324 326/346/325 324/344/323
f 326/346/325 86/71/85 324/344/323
f 325/347/326 499/348/327 326/349/325
f 326/349/325 27/350/328 87/351/83
f 27/350/328 83/352/80 87/351/83
f 328/348/329 332/353/330 329/350/331
f 332/353/330 330/354/332 329/350/331
f 333/355/333 335/356/334 330/357/332
f 333/358/333 336/359/335 337/360/336
f 337/361/336 334/362/337 333/355/333
f 338/363/338 340/364/339 334/362/337
f 338/363/338 171/365/179 169/173/177
f 338/363/338 168/172/176 339/366/340
f 341/367/341 343/368/342 340/364/339
f 343/368/342 334/362/337 340/364/339
f 340/364/339 344/369/343 341/367/341
f 345/370/344 341/367/341 344/369/343
f 344/369/343 168/172/176 167/171/175
f 344/369/343 141/371/144 345/370/344
f 347/372/345 348/373/346 346/374/347
f 346/375/347 342/376/348 341/367/341
f 346/374/347 349/377/349 347/372/345
f 350/378/350 347/372/345 349/377/349
f 345/379/344 140/130/143 349/377/349
f 349/377/349 139/129/142 350/378/350
f 350/378/350 332/353/330 331/380/351
f 139/129/142 336/359/335 350/378/350
f 500/381/352 70/382/69 22/373/353
f 22/383/353 69/384/74 24/376/354
f 331/380/351 327/381/355 347/372/345
f 24/376/354 75/385/92 23/368/356
f 75/385/92 25/356/357 23/368/356
f 337/360/336 170/177/180 171/176/179
f 84/386/91 26/357/358 25/356/357
f 325/387/326 71/56/70 70/55/69
f 323/345/324 72/388/359 71/56/70
f 157/150/160 352/389/360 320/390/361
f 320/390/361 316/391/362 315/337/316
f 320/390/361 152/151/161 157/150/160
f 351/392/363 354/393/364 352/389/360
f 354/393/364 316/391/362 352/389/360
f 355/394/365 356/395/366 357/396/367
f 357/396/367 313/334/313 355/394/365
f 355/394/365 312/336/315 316/391/362
f 358/397/368 359/398/369 360/399/370
f 360/399/370 118/105/119 358/397/368
f 358/397/368 117/332/311 313/334/313
f 360/399/370 21/27/36 20/400/371
f 20/400/371 119/106/120 360/399/370
f 363/401/372 364/402/373 365/403/374
f 365/403/374 367/404/375 363/401/372
f 19/405/376 120/107/121 119/106/120
f 366/406/377 369/407/378 367/404/375
f 18/408/379 121/409/380 120/107/121
f 368/410/381 371/411/54 369/407/378
f 17/412/382 372/413/383 121/409/380
f 16/38/55 374/414/384 372/413/383
f 372/413/383 375/415/385 376/416/386
f 376/416/386 121/409/380 372/413/383
f 376/416/386 377/417/387 378/418/388
f 378/418/388 113/108/122 376/416/386
f 378/418/388 379/419/389 380/420/390
f 380/420/390 114/102/116 378/418/388
f 379/421/389 13/37/51 380/422/390
f 380/422/390 519/15/22 54/186/187
f 381/36/49 161/155/164 382/37/53
f 382/37/53 165/165/171 175/15/52
f 14/36/50 383/423/391 12/35/48
f 384/35/47 158/156/165 381/36/49
f 383/424/391 516/14/21 12/34/48
f 194/14/392 159/425/163 384/34/47
f 385/426/393 193/13/19 386/427/394
f 386/427/394 62/93/107 385/426/393
f 385/426/393 106/92/106 159/425/163
f 193/13/19 162/160/168 386/427/394
f 162/160/168 63/47/61 386/427/394
f 383/428/391 377/429/387 387/430/395
f 387/430/395 188/195/194 383/428/391
f 387/430/395 375/431/385 388/432/396
f 388/432/396 189/433/397 387/430/395
f 375/431/385 389/434/398 388/432/396
f 388/432/396 103/90/104 102/89/103
f 374/435/384 11/32/44 389/434/398
f 389/434/398 10/31/42 103/90/104
f 390/436/43 393/437/399 391/438/41
f 391/438/41 245/247/237 244/439/400
f 511/10/14 103/90/104 10/31/42
f 393/437/399 394/440/401 395/441/402
f 395/441/402 245/247/237 393/437/399
f 396/442/403 397/443/404 398/444/405
f 398/444/405 240/242/235 396/442/403
f 396/442/403 239/245/236 245/247/237
f 399/445/406 400/446/407 401/447/408
f 401/447/408 235/237/230 399/445/406
f 399/445/406 234/240/233 240/242/235
f 402/448/409 403/449/410 404/450/411
f 404/450/411 230/232/225 402/448/409
f 402/448/409 229/235/228 235/237/230
f 405/451/412 406/452/413 407/453/414
f 407/453/414 225/224/220 405/451/412
f 405/451/412 224/230/223 230/232/225
f 408/454/415 409/455/416 410/456/417
f 410/456/417 220/457/215 408/454/415
f 408/454/415 219/225/218 225/224/220
f 411/458/418 60/459/419 59/43/57
f 59/41/57 215/214/210 411/460/418
f 411/460/418 214/217/213 220/219/215
f 410/456/417 412/461/420 60/459/419
f 412/461/420 414/462/421 415/463/422
f 415/463/422 60/459/419 412/461/420
f 409/455/416 413/464/423 412/461/420
f 416/465/424 418/466/425 413/464/423
f 416/465/424 407/453/414 406/452/413
f 406/452/413 417/467/426 416/465/424
f 419/468/427 421/469/428 417/467/426
f 419/468/427 404/450/411 403/449/410
f 419/468/427 422/470/429 420/471/430
f 422/470/429 424/472/431 420/471/430
f 403/449/410 400/446/407 422/470/429
f 400/446/407 423/473/432 422/470/429
f 425/474/433 427/475/434 423/473/432
f 425/474/433 398/444/405 397/443/404
f 397/443/404 426/476/435 425/474/433
f 428/477/436 430/478/437 426/476/435
f 428/477/436 395/441/402 394/440/401
f 394/440/401 429/479/438 428/477/436
f 431/480/439 433/481/440 429/479/438
f 431/480/439 392/482/441 434/483/442
f 434/483/442 432/484/443 431/480/439
f 392/482/441 373/485/45 434/483/442
f 373/485/45 370/486/444 434/483/442
f 433/481/440 436/487/445 437/488/446
f 437/488/446 429/479/438 433/481/440
f 432/484/443 435/489/447 433/481/440
f 438/490/448 440/491/449 435/489/447
f 438/490/448 370/486/444 368/410/381
f 368/410/381 439/492/450 438/490/448
f 441/493/451 443/494/452 440/491/449
f 443/494/452 435/489/447 440/491/449
f 439/492/450 441/493/451 440/491/449
f 444/495/453 446/496/454 441/493/451
f 444/495/453 366/406/377 365/403/374
f 365/403/374 445/497/455 444/495/453
f 447/498/456 448/499/457 446/496/454
f 446/496/454 442/500/458 441/493/451
f 445/497/455 447/498/456 446/496/454
f 449/501/459 226/227/221 447/498/456
f 449/501/459 364/402/373 451/502/460
f 451/502/460 450/503/461 449/501/459
f 452/504/462 231/505/226 450/503/461
f 452/504/462 361/506/463 454/507/35
f 454/507/35 453/508/464 452/504/462
f 455/509/465 236/238/231 453/510/464
f 8/30/40 457/511/466 458/512/467
f 458/512/467 7/29/39 8/30/40
f 459/513/468 514/28/13 7/29/39
f 459/513/468 460/514/469 461/515/470
f 459/513/468 248/516/241 247/517/240
f 460/514/469 462/518/471 461/515/470
f 461/515/470 250/519/472 248/516/241
f 353/520/473 463/521/474 462/518/471
f 462/518/471 464/522/475 250/519/472
f 464/523/475 251/253/243 250/524/472
f 463/521/474 155/525/476 464/522/475
f 155/526/476 254/255/245 464/523/475
f 465/527/477 255/256/246 254/255/245
f 465/527/477 154/528/158 149/529/478
f 149/529/478 148/142/152 465/527/477
f 351/392/363 156/149/159 463/521/474
f 458/512/467 356/395/366 460/514/469
f 460/514/469 354/393/364 353/520/473
f 9/26/37 359/398/369 457/511/466
f 457/511/466 357/396/367 356/395/366
f 456/530/38 237/239/232 236/238/231
f 453/510/464 232/234/227 231/233/226
f 451/502/460 362/531/479 361/506/463
f 450/503/461 227/228/222 226/227/221
f 221/220/216 216/215/211 448/499/457
f 448/499/457 466/532/480 442/500/458
f 466/532/480 212/212/208 211/533/481
f 211/533/481 468/534/482 466/532/480
f 466/532/480 443/494/452 442/500/458
f 468/534/482 469/535/483 470/536/484
f 468/534/482 436/487/445 443/494/452
f 470/536/484 471/537/485 472/538/486
f 470/536/484 437/488/446 436/487/445
f 472/538/486 473/539/487 474/540/488
f 472/538/486 430/478/437 437/488/446
f 474/540/488 475/541/489 427/475/434
f 474/540/488 426/476/435 430/478/437
f 473/539/487 477/542/490 475/541/489
f 475/541/489 478/543/491 424/472/431
f 475/541/489 423/473/432 427/475/434
f 477/542/490 479/544/492 478/543/491
f 479/544/492 421/469/428 478/543/491
f 478/543/491 420/471/430 424/472/431
f 480/545/493 481/546/494 482/547/495
f 482/547/495 418/466/425 480/545/493
f 480/545/493 417/467/426 421/469/428
f 483/548/496 413/464/423 418/466/425
f 205/549/497 210/550/498 484/551/499
f 484/551/499 58/552/500 57/40/56
f 479/544/492 122/109/123 481/546/494
f 476/553/501 123/554/502 477/542/490
f 485/555/503 124/110/124 476/553/501
f 476/553/501 471/537/485 485/555/503
f 486/556/504 125/112/126 485/555/503
f 485/555/503 469/535/483 486/556/504
f 206/557/505 201/558/506 486/556/504
f 486/556/504 467/559/507 206/557/505
f 211/533/481 206/557/505 467/559/507
f 226/227/221 221/220/216 447/498/456
f 180/191/190 72/388/359 317/339/318
f 267/328/307 197/560/508 264/268/258
f 100/561/509 253/257/247 258/259/249
f 215/214/210 210/550/498 209/211/207
f 201/558/506 126/113/127 125/112/126
f 178/330/309 195/202/198 197/560/508
f 195/201/198 518/25/24 515/12/18
f 176/25/23 162/160/168 196/12/510
f 191/267/257 101/87/101 100/561/509
f 190/196/195 102/89/103 101/87/101
f 175/15/52 163/562/169 176/16/23
f 172/178/181 488/563/511 174/184/185
f 174/184/185 489/564/512 173/182/184
f 489/564/512 490/18/26 491/17/29
f 489/565/512 492/19/513 493/566/514
f 493/566/514 173/567/184 489/565/512
f 493/566/514 494/21/30 495/568/515
f 495/568/515 143/134/146 493/566/514
f 495/569/515 496/22/34 497/570/516
f 497/570/516 144/139/147 495/569/515
f 497/570/516 498/24/517 487/571/518
f 487/571/518 146/572/519 497/570/516
f 2/22/32 93/573/88 1/24/33
f 93/573/88 6/18/27 1/24/33
f 490/18/26 487/571/518 498/24/517
f 3/23/31 90/574/89 2/22/32
f 4/19/28 91/575/86 3/21/31
f 4/19/28 153/576/157 151/577/154
f 5/17/25 150/578/153 153/579/157
f 171/365/179 94/83/97 169/173/177
f 97/85/99 141/371/144 167/171/175
f 131/580/174 112/99/113 166/167/173
f 161/155/164 164/162/170 165/165/171
f 164/162/170 66/157/65 65/581/64
f 153/582/157 149/529/478 154/528/158
f 137/124/138 128/115/129 127/118/132
f 107/100/114 130/583/131 132/314/133
f 369/412/378 16/38/55 17/412/382
f 367/408/375 17/412/382 18/408/379
f 363/405/372 18/408/379 19/405/376
f 362/400/479 19/405/376 20/400/371
f 21/27/36 362/400/479 20/400/371
f 26/357/358 335/356/334 25/356/357
f 335/356/334 23/368/356 25/356/357
f 343/368/342 24/376/354 23/368/356
f 24/376/354 348/383/346 22/383/353
f 22/373/353 327/381/355 500/381/352
f 27/350/328 330/354/332 26/354/358
f 328/348/329 27/350/328 499/348/327
f 500/381/352 328/348/329 499/348/327
f 507/4/6 285/293/280 506/293/303
f 506/293/303 293/291/278 504/291/302
f 504/291/302 292/320/287 505/320/289
f 501/305/290 277/6/296 510/6/9
f 503/2/3 301/305/293 501/305/290
f 292/302/287 502/1/1 505/302/289
f 502/1/1 300/1/286 299/2/2
f 508/3/4 279/3/8 280/4/5
f 509/5/7 278/5/10 279/3/8
f 510/6/9 277/6/296 278/7/10
f 513/8/11 242/8/17 241/9/12
f 511/10/14 244/10/400 243/11/15
f 512/11/16 243/11/15 242/8/17
f 515/12/18 196/12/510 193/13/19
f 193/13/19 194/14/392 516/14/21
f 519/15/22 175/15/52 176/16/23
f 5/17/25 491/17/29 490/18/26
f 4/19/28 492/19/513 491/20/29
f 494/21/30 492/19/513 4/19/28
f 2/22/32 496/22/34 494/23/30
f 490/18/26 498/24/517 1/24/33
f 1/24/33 498/24/517 496/22/34
f 176/25/23 196/12/510 515/12/18
f 454/26/35 361/27/463 21/27/36
f 514/28/13 241/28/12 456/29/38
f 456/29/38 455/30/465 8/30/40
f 8/30/40 455/30/465 454/26/35
f 391/31/41 244/10/400 511/10/14
f 390/32/43 391/31/41 10/31/42
f 373/33/45 390/32/43 11/32/44
f 516/14/21 194/14/392 384/34/47
f 12/35/48 384/35/47 381/36/49
f 13/37/51 382/37/53 175/15/52
f 14/36/50 381/36/49 382/37/53
f 371/38/54 373/39/45 15/39/46
f 57/40/56 58/552/500 59/41/57
f 59/43/57 60/459/419 61/44/59
f 36/46/60 62/93/107 63/47/61
f 29/48/62 63/47/61 64/49/63
f 29/48/62 65/50/64 66/51/65
f 30/52/66 67/59/73 68/53/67
f 30/52/66 69/60/74 70/55/69
f 71/56/70 72/388/359 73/57/71
f 30/52/66 73/57/71 74/58/72
f 33/54/68 75/78/92 69/60/74
f 68/53/67 76/322/288 77/61/75
f 77/61/75 78/318/291 79/63/77
f 31/62/76 79/63/77 80/64/78
f 31/62/76 82/76/90 33/54/68
f 83/66/80 84/77/91 85/67/81
f 32/68/82 86/71/85 87/69/83
f 88/70/84 89/146/156 86/71/85
f 32/68/82 90/75/89 91/72/86
f 85/67/81 92/263/253 44/73/87
f 32/68/82 44/73/87 93/74/88
f 82/76/90 92/263/253 85/67/81
f 33/54/68 85/67/81 84/77/91
f 34/79/93 94/83/97 95/80/94
f 34/79/93 97/85/99 49/82/96
f 34/79/93 96/81/95 98/84/98
f 99/86/100 100/561/509 101/87/101
f 35/88/102 101/87/101 102/89/103
f 35/88/102 104/249/239 105/91/105
f 36/46/60 66/51/65 106/92/106
f 37/94/108 107/100/114 108/95/109
f 37/94/108 109/96/110 110/97/111
f 37/94/108 111/98/112 112/99/113
f 38/101/115 113/108/122 114/102/116
f 116/104/118 117/332/311 118/105/119
f 38/101/115 118/105/119 119/106/120
f 120/107/121 121/409/380 113/108/122
f 122/109/123 123/554/502 124/110/124
f 39/111/125 124/110/124 125/112/126
f 40/114/128 127/118/132 128/115/129
f 130/117/131 131/170/174 127/118/132
f 40/114/128 129/116/130 132/119/133
f 41/120/134 133/125/139 134/121/135
f 41/120/134 135/122/136 136/123/137
f 137/124/138 48/169/172 133/125/139
f 42/126/140 98/132/98 96/127/95
f 42/126/140 138/128/141 139/129/142
f 42/126/140 140/130/143 141/131/144
f 43/133/145 142/180/149 143/134/146
f 43/136/145 51/140/150 145/137/148
f 144/139/147 146/572/519 51/140/150
f 44/73/87 92/263/253 147/141/151
f 44/73/87 149/529/478 150/143/153
f 88/70/84 91/72/86 151/144/154
f 45/145/155 152/151/161 89/146/156
f 45/145/155 151/144/154 153/147/157
f 154/148/158 155/525/476 156/149/159
f 45/145/155 156/149/159 157/150/160
f 46/152/162 158/156/165 159/153/163
f 46/152/162 160/158/166 161/155/164
f 46/152/162 106/154/106 66/157/65
f 47/159/167 64/49/63 162/160/168
f 164/162/170 65/581/64 64/163/63
f 47/164/167 163/562/169 165/165/171
f 48/166/172 131/580/174 166/167/173
f 48/169/172 137/124/138 127/118/132
f 49/82/96 97/85/99 167/171/175
f 49/82/96 168/172/176 169/173/177
f 50/174/178 170/177/180 139/129/142
f 138/128/141 96/127/95 95/175/94
f 50/174/178 95/175/94 171/176/179
f 51/140/150 146/572/519 172/178/181
f 52/179/182 173/567/184 143/134/146
f 53/181/183 174/184/185 173/182/184
f 52/183/182 142/138/149 145/137/148
f 53/181/183 145/137/148 172/178/181
f 519/15/22 518/16/24 177/185/186
f 177/187/186 178/330/309 179/188/188
f 54/189/187 179/188/188 115/103/117
f 55/190/189 74/58/72 73/57/71
f 181/192/191 182/324/304 74/58/72
f 183/193/192 184/277/267 185/194/193
f 185/194/193 186/279/269 181/192/191
f 180/191/190 187/335/314 183/193/192
f 188/195/194 189/433/397 190/196/195
f 190/196/195 191/267/257 192/198/197
f 56/199/196 517/13/20 516/14/21
f 195/201/198 515/12/18 517/13/20
f 192/198/197 197/560/508 195/202/198
f 198/203/199 201/558/506 202/204/200
f 199/205/201 202/204/200 203/206/202
f 204/208/204 205/549/497 200/207/203
f 202/204/200 206/557/505 207/209/205
f 203/206/202 207/209/205 208/210/206
f 209/211/207 210/550/498 204/208/204
f 207/209/205 211/533/481 212/212/208
f 208/210/206 212/212/208 213/213/209
f 213/213/209 214/217/213 215/214/210
f 213/213/209 212/212/208 216/215/211
f 217/216/212 218/218/214 214/217/213
f 218/218/214 219/222/218 220/219/215
f 218/218/214 217/216/212 221/220/216
f 222/221/217 223/226/219 219/222/218
f 223/223/219 224/230/223 225/224/220
f 223/226/219 222/221/217 226/227/221
f 227/229/222 228/231/224 224/230/223
f 228/231/224 229/235/228 230/232/225
f 228/231/224 227/229/222 231/233/226
f 232/234/227 233/236/229 229/235/228
f 233/236/229 234/240/233 235/237/230
f 233/236/229 232/234/227 236/238/231
f 237/239/232 238/241/234 234/240/233
f 238/241/234 239/245/236 240/242/235
f 238/241/234 237/239/232 241/243/12
f 242/244/17 243/246/15 239/245/236
f 243/246/15 244/439/400 245/247/237
f 512/11/16 513/8/11 246/248/238
f 104/249/239 35/88/102 511/10/14
f 513/8/11 514/9/13 247/250/240
f 246/248/238 247/250/240 248/251/241
f 249/252/242 105/91/105 104/249/239
f 248/251/241 250/524/472 251/253/243
f 251/253/243 252/254/244 105/91/105
f 252/254/244 253/257/247 99/86/100
f 252/254/244 251/253/243 254/255/245
f 255/256/246 256/258/248 253/257/247
f 256/258/248 257/260/250 258/259/249
f 256/258/248 255/256/246 148/142/152
f 147/141/151 259/261/251 257/260/250
f 259/261/251 81/65/79 260/262/252
f 259/261/251 147/141/151 92/263/253
f 82/76/90 31/62/76 81/65/79
f 260/262/252 261/266/256 262/264/254
f 263/265/255 258/259/249 257/260/250
f 81/65/79 80/64/78 261/266/256
f 262/264/254 192/198/197 191/267/257
f 191/267/257 100/561/509 258/259/249
f 264/268/258 197/560/508 192/198/197
f 262/264/254 261/266/256 265/269/259
f 266/270/260 267/328/307 264/268/258
f 261/266/256 80/64/78 268/271/261
f 265/269/259 268/271/261 269/272/262
f 269/272/262 270/275/265 271/273/263
f 268/271/261 272/316/299 273/274/264
f 273/274/264 274/276/266 270/275/265
f 274/276/266 185/194/193 184/277/267
f 273/274/264 275/315/270 276/278/268
f 274/276/266 276/278/268 186/279/269
f 275/280/270 510/6/9 509/7/7
f 276/282/268 509/5/7 508/3/4
f 507/4/6 181/584/191 186/283/269
f 278/5/10 281/312/295 282/284/271
f 279/3/8 282/284/271 283/285/272
f 284/286/273 285/293/280 280/4/5
f 282/284/271 286/311/298 287/287/274
f 283/285/272 287/287/274 288/288/275
f 289/289/276 290/292/279 284/286/273
f 287/287/274 128/115/129 136/123/137
f 288/288/275 136/123/137 135/122/136
f 291/290/277 292/320/287 293/291/278
f 290/292/279 293/291/278 285/293/280
f 289/289/276 294/297/281 291/290/277
f 294/294/281 295/299/283 296/295/282
f 289/289/276 135/122/136 134/121/135
f 134/298/135 297/300/284 295/299/283
f 297/300/284 111/98/112 110/97/111
f 297/300/284 134/298/135 133/168/139
f 166/167/173 112/99/113 111/98/112
f 298/301/285 299/2/2 300/1/286
f 296/295/282 300/1/286 292/302/287
f 295/299/283 110/97/111 298/301/285
f 503/2/3 78/306/291 77/303/75
f 502/1/1 77/303/75 76/304/288
f 501/305/290 302/319/300 78/306/291
f 299/2/2 298/301/285 303/307/292
f 304/308/294 277/6/296 301/305/293
f 298/301/285 110/97/111 109/96/110
f 303/307/292 109/96/110 108/95/109
f 281/309/295 278/7/10 277/6/296
f 304/308/294 108/95/109 305/310/297
f 286/311/298 282/284/271 281/312/295
f 108/95/109 107/100/114 132/314/133
f 305/313/297 132/119/133 129/116/130
f 275/315/270 273/274/264 272/316/299
f 302/317/300 272/316/299 79/63/77
f 302/319/300 501/305/290 510/6/9
f 505/320/289 76/585/288 306/321/301
f 306/321/301 182/325/304 506/293/303
f 76/322/288 68/53/67 67/59/73
f 67/59/73 74/58/72 182/324/304
f 286/311/298 129/116/130 128/115/129
f 182/325/304 181/584/191 507/4/6
f 268/271/261 80/64/78 79/63/77
f 307/326/305 308/329/308 309/327/306
f 271/273/263 309/327/306 267/328/307
f 270/275/265 184/277/267 307/326/305
f 308/329/308 115/103/117 179/188/188
f 309/327/306 179/188/188 178/330/309
f 116/104/118 38/101/115 115/103/117
f 307/326/305 310/331/310 116/104/118
f 310/331/310 311/333/312 117/332/311
f 310/331/310 307/326/305 184/277/267
f 183/193/192 187/335/314 311/333/312
f 311/333/312 312/336/315 313/334/313
f 187/335/314 314/338/317 312/336/315
f 315/337/316 316/391/362 312/336/315
f 187/335/314 180/191/190 317/339/318
f 314/338/317 317/339/318 318/340/319
f 319/341/320 320/390/361 315/337/316
f 317/339/318 72/388/359 321/342/321
f 318/340/319 321/342/321 322/343/322
f 89/146/156 152/151/161 319/341/320
f 321/342/321 323/345/324 324/344/323
f 324/344/323 86/71/85 89/146/156
f 323/345/324 325/387/326 326/346/325
f 326/346/325 87/69/83 86/71/85
f 325/347/326 500/381/352 499/348/327
f 326/349/325 499/348/327 27/350/328
f 27/350/328 26/354/358 83/352/80
f 328/348/329 331/380/351 332/353/330
f 332/353/330 333/358/333 330/354/332
f 333/355/333 334/362/337 335/356/334
f 333/358/333 332/353/330 336/359/335
f 337/361/336 338/363/338 334/362/337
f 338/363/338 339/366/340 340/364/339
f 338/363/338 337/361/336 171/365/179
f 338/363/338 169/173/177 168/172/176
f 341/367/341 342/376/348 343/368/342
f 343/368/342 335/356/334 334/362/337
f 340/364/339 339/366/340 344/369/343
f 345/370/344 346/375/347 341/367/341
f 344/369/343 339/366/340 168/172/176
f 344/369/343 167/171/175 141/371/144
f 347/372/345 327/381/355 348/373/346
f 346/375/347 348/383/346 342/376/348
f 346/374/347 345/379/344 349/377/349
f 350/378/350 331/380/351 347/372/345
f 345/379/344 141/131/144 140/130/143
f 349/377/349 140/130/143 139/129/142
f 350/378/350 336/359/335 332/353/330
f 139/129/142 170/177/180 336/359/335
f 500/381/352 325/347/326 70/382/69
f 22/383/353 70/586/69 69/384/74
f 331/380/351 328/348/329 327/381/355
f 24/376/354 69/384/74 75/385/92
f 75/385/92 84/386/91 25/356/357
f 337/360/336 336/359/335 170/177/180
f 84/386/91 83/587/80 26/357/358
f 325/387/326 323/345/324 71/56/70
f 323/345/324 321/342/321 72/388/359
f 157/150/160 351/392/363 352/389/360
f 320/390/361 352/389/360 316/391/362
f 320/390/361 319/341/320 152/151/161
f 351/392/363 353/520/473 354/393/364
f 354/393/364 355/394/365 316/391/362
f 355/394/365 354/393/364 356/395/366
f 357/396/367 358/397/368 313/334/313
f 355/394/365 313/334/313 312/336/315
f 358/397/368 357/396/367 359/398/369
f 360/399/370 119/106/120 118/105/119
f 358/397/368 118/105/119 117/332/311
f 360/399/370 359/398/369 21/27/36
f 20/400/371 19/405/376 119/106/120
f 363/401/372 362/531/479 364/402/373
f 365/403/374 366/406/377 367/404/375
f 19/405/376 18/408/379 120/107/121
f 366/406/377 368/410/381 369/407/378
f 18/408/379 17/412/382 121/409/380
f 368/410/381 370/486/444 371/411/54
f 17/412/382 16/38/55 372/413/383
f 16/38/55 15/39/46 374/414/384
f 372/413/383 374/414/384 375/415/385
f 376/416/386 113/108/122 121/409/380
f 376/416/386 375/415/385 377/417/387
f 378/418/388 114/102/116 113/108/122
f 378/418/388 377/417/387 379/419/389
f 380/420/390 54/189/187 114/102/116
f 379/421/389 14/36/50 13/37/51
f 380/422/390 13/37/51 519/15/22
f 381/36/49 158/156/165 161/155/164
f 382/37/53 161/155/164 165/165/171
f 14/36/50 379/421/389 383/423/391
f 384/35/47 159/153/163 158/156/165
f 383/424/391 188/200/194 516/14/21
f 194/14/392 385/426/393 159/425/163
f 385/426/393 194/14/392 193/13/19
f 386/427/394 63/47/61 62/93/107
f 385/426/393 62/93/107 106/92/106
f 193/13/19 196/12/510 162/160/168
f 162/160/168 64/49/63 63/47/61
f 383/428/391 379/588/389 377/429/387
f 387/430/395 189/433/397 188/195/194
f 387/430/395 377/429/387 375/431/385
f 388/432/396 102/89/103 189/433/397
f 375/431/385 374/435/384 389/434/398
f 388/432/396 389/434/398 103/90/104
f 374/435/384 15/33/46 11/32/44
f 389/434/398 11/32/44 10/31/42
f 390/436/43 392/482/441 393/437/399
f 391/438/41 393/437/399 245/247/237
f 511/10/14 35/88/102 103/90/104
f 393/437/399 392/482/441 394/440/401
f 395/441/402 396/442/403 245/247/237
f 396/442/403 395/441/402 397/443/404
f 398/444/405 399/445/406 240/242/235
f 396/442/403 240/242/235 239/245/236
f 399/445/406 398/444/405 400/446/407
f 401/447/408 402/448/409 235/237/230
f 399/445/406 235/237/230 234/240/233
f 402/448/409 401/447/408 403/449/410
f 404/450/411 405/451/412 230/232/225
f 402/448/409 230/232/225 229/235/228
f 405/451/412 404/450/411 406/452/413
f 407/453/414 408/454/415 225/224/220
f 405/451/412 225/224/220 224/230/223
f 408/454/415 407/453/414 409/455/416
f 410/456/417 411/458/418 220/457/215
f 408/454/415 220/457/215 219/225/218
f 411/458/418 410/456/417 60/459/419
f 59/41/57 58/552/500 215/214/210
f 411/460/418 215/214/210 214/217/213
f 410/456/417 409/455/416 412/461/420
f 412/461/420 413/464/423 414/462/421
f 415/463/422 61/44/59 60/459/419
f 409/455/416 416/465/424 413/464/423
f 416/465/424 417/467/426 418/466/425
f 416/465/424 409/455/416 407/453/414
f 406/452/413 419/468/427 417/467/426
f 419/468/427 420/471/430 421/469/428
f 419/468/427 406/452/413 404/450/411
f 419/468/427 403/449/410 422/470/429
f 422/470/429 423/473/432 424/472/431
f 403/449/410 401/447/408 400/446/407
f 400/446/407 425/474/433 423/473/432
f 425/474/433 426/476/435 427/475/434
f 425/474/433 400/446/407 398/444/405
f 397/443/404 428/477/436 426/476/435
f 428/477/436 429/479/438 430/478/437
f 428/477/436 397/443/404 395/441/402
f 394/440/401 431/480/439 429/479/438
f 431/480/439 432/484/443 433/481/440
f 431/480/439 394/440/401 392/482/441
f 434/483/442 370/486/444 432/484/443
f 392/482/441 390/436/43 373/485/45
f 373/485/45 371/411/54 370/486/444
f 433/481/440 435/489/447 436/487/445
f 437/488/446 430/478/437 429/479/438
f 432/484/443 438/490/448 435/489/447
f 438/490/448 439/492/450 440/491/449
f 438/490/448 432/484/443 370/486/444
f 368/410/381 366/406/377 439/492/450
f 441/493/451 442/500/458 443/494/452
f 443/494/452 436/487/445 435/489/447
f 439/492/450 444/495/453 441/493/451
f 444/495/453 445/497/455 446/496/454
f 444/495/453 439/492/450 366/406/377
f 365/403/374 364/402/373 445/497/455
f 447/498/456 221/220/216 448/499/457
f 446/496/454 448/499/457 442/500/458
f 445/497/455 449/501/459 447/498/456
f 449/501/459 450/503/461 226/227/221
f 449/501/459 445/497/455 364/402/373
f 451/502/460 452/504/462 450/503/461
f 452/504/462 453/508/464 231/505/226
f 452/504/462 451/502/460 361/506/463
f 454/507/35 455/589/465 453/508/464
f 455/509/465 456/530/38 236/238/231
f 8/30/40 9/26/37 457/511/466
f 458/512/467 459/513/468 7/29/39
f 459/513/468 247/517/240 514/28/13
f 459/513/468 458/512/467 460/514/469
f 459/513/468 461/515/470 248/516/241
f 460/514/469 353/520/473 462/518/471
f 461/515/470 462/518/471 250/519/472
f 353/520/473 351/392/363 463/521/474
f 462/518/471 463/521/474 464/522/475
f 464/523/475 254/255/245 251/253/243
f 463/521/474 156/149/159 155/525/476
f 155/526/476 465/527/477 254/255/245
f 465/527/477 148/142/152 255/256/246
f 465/527/477 155/526/476 154/528/158
f 149/529/478 44/73/87 148/142/152
f 351/392/363 157/150/160 156/149/159
f 458/512/467 457/511/466 356/395/366
f 460/514/469 356/395/366 354/393/364
f 9/26/37 21/27/36 359/398/369
f 457/511/466 359/398/369 357/396/367
f 456/530/38 241/243/12 237/239/232
f 453/510/464 236/238/231 232/234/227
f 451/502/460 364/402/373 362/531/479
f 450/503/461 231/505/226 227/228/222
f 221/220/216 217/216/212 216/215/211
f 448/499/457 216/215/211 466/532/480
f 466/532/480 216/215/211 212/212/208
f 211/533/481 467/559/507 468/534/482
f 466/532/480 468/534/482 443/494/452
f 468/534/482 467/559/507 469/535/483
f 468/534/482 470/536/484 436/487/445
f 470/536/484 469/535/483 471/537/485
f 470/536/484 472/538/486 437/488/446
f 472/538/486 471/537/485 473/539/487
f 472/538/486 474/540/488 430/478/437
f 474/540/488 473/539/487 475/541/489
f 474/540/488 427/475/434 426/476/435
f 473/539/487 476/553/501 477/542/490
f 475/541/489 477/542/490 478/543/491
f 475/541/489 424/472/431 423/473/432
f 477/542/490 123/554/502 479/544/492
f 479/544/492 480/545/493 421/469/428
f 478/543/491 421/469/428 420/471/430
f 480/545/493 479/544/492 481/546/494
f 482/547/495 483/548/496 418/466/425
f 480/545/493 418/466/425 417/467/426
f 483/548/496 414/462/421 413/464/423
f 205/549/497 204/208/204 210/550/498
f 484/551/499 210/550/498 58/552/500
f 479/544/492 123/554/502 122/109/123
f 476/553/501 124/110/124 123/554/502
f 485/555/503 125/112/126 124/110/124
f 476/553/501 473/539/487 471/537/485
f 486/556/504 201/558/506 125/112/126
f 485/555/503 471/537/485 469/535/483
f 206/557/505 202/204/200 201/558/506
f 486/556/504 469/535/483 467/559/507
f 211/533/481 207/209/205 206/557/505
f 226/227/221 222/221/217 221/220/216
f 180/191/190 73/57/71 72/388/359
f 267/328/307 178/330/309 197/560/508
f 100/561/509 99/86/100 253/257/247
f 215/214/210 58/552/500 210/550/498
f 201/558/506 198/203/199 126/113/127
f 178/330/309 177/187/186 195/202/198
f 195/201/198 177/590/186 518/25/24
f 176/25/23 163/161/169 162/160/168
f 191/267/257 190/196/195 101/87/101
f 190/196/195 189/433/397 102/89/103
f 175/15/52 165/165/171 163/562/169
f 172/178/181 487/571/518 488/563/511
f 174/184/185 488/563/511 489/564/512
f 489/564/512 488/563/511 490/18/26
f 489/565/512 491/20/29 492/19/513
f 493/566/514 143/134/146 173/567/184
f 493/566/514 492/19/513 494/21/30
f 495/568/515 144/135/147 143/134/146
f 495/569/515 494/23/30 496/22/34
f 497/570/516 146/572/519 144/139/147
f 497/570/516 496/22/34 498/24/517
f 487/571/518 172/178/181 146/572/519
f 2/22/32 90/574/89 93/573/88
f 93/573/88 150/578/153 6/18/27
f 490/18/26 488/563/511 487/571/518
f 3/23/31 91/591/86 90/574/89
f 4/19/28 151/577/154 91/575/86
f 4/19/28 5/20/25 153/576/157
f 5/17/25 6/18/27 150/578/153
f 171/365/179 95/80/94 94/83/97
f 97/85/99 98/84/98 141/371/144
f 131/580/174 130/583/131 112/99/113
f 161/155/164 160/158/166 164/162/170
f 164/162/170 160/158/166 66/157/65
f 153/582/157 150/143/153 149/529/478
f 137/124/138 136/123/137 128/115/129
f 107/100/114 112/99/113 130/583/131
f 369/412/378 371/38/54 16/38/55
f 367/408/375 369/412/378 17/412/382
f 363/405/372 367/408/375 18/408/379
f 362/400/479 363/405/372 19/405/376
f 21/27/36 361/27/463 362/400/479
f 26/357/358 330/357/332 335/356/334
f 335/356/334 343/368/342 23/368/356
f 343/368/342 342/376/348 24/376/354
f 24/376/354 342/376/348 348/383/346
f 22/373/353 348/373/346 327/381/355
f 27/350/328 329/350/331 330/354/332
f 328/348/329 329/350/331 27/350/328
f 500/381/352 327/381/355 328/348/329
f 507/4/6 280/4/5 285/293/280
f 506/293/303 285/293/280 293/291/278
f 504/291/302 293/291/278 292/320/287
f 501/305/290 301/305/293 277/6/296
f 503/2/3 299/2/2 301/305/293
f 292/302/287 300/1/286 502/1/1
