# Blender 5.0.1
# www.blender.org
mtllib crashOnGoKart.mtl
g crash_hi_Mesh
v -0.783000 0.651605 -0.408000
v -0.592000 0.418605 0.000000
v 0.352000 0.454605 0.129000
v 0.423000 0.657605 0.129000
v 0.423000 0.657605 -0.129000
v 0.352000 0.454605 -0.129000
v 0.148000 0.086605 -0.116000
v 0.014000 0.029605 -0.000000
v 0.853000 0.159605 0.447000
v 0.938000 0.050605 -0.000000
v 0.853000 0.159605 -0.451000
v 0.592000 0.102605 0.146000
v 0.543000 0.102605 0.305000
v 0.691000 0.351605 0.421000
v 0.726000 0.382605 0.137000
v 0.543000 0.102605 -0.305000
v 0.592000 0.102605 -0.146000
v 0.691000 0.351605 -0.421000
v 0.726000 0.387605 -0.137000
v 0.740000 0.159605 0.447000
v 0.698000 0.086605 0.236000
v 0.797000 0.262605 0.447000
v 0.846000 0.319605 -0.000000
v -0.705000 0.112605 0.193000
v -0.380000 0.262605 0.447000
v -0.310000 0.127605 0.447000
v -0.126000 0.107605 0.094000
v -0.444000 0.127605 0.447000
v 0.698000 0.086605 -0.236000
v 0.740000 0.159605 -0.451000
v -0.860000 0.532605 -0.301000
v -0.783000 0.651605 0.408000
v -0.783000 0.651605 0.159000
v -0.860000 0.532605 0.301000
v -0.705000 0.766605 0.296000
v -0.578000 0.522605 0.103000
v -0.705000 0.766605 -0.296000
v -0.783000 0.651605 -0.159000
v -0.380000 0.283605 0.193000
v -0.444000 0.127605 -0.451000
v -0.606000 0.314605 -0.159000
v -0.317000 0.522605 0.159000
v -0.768000 0.314605 -0.159000
v -0.768000 0.314605 0.159000
v -0.606000 0.314605 0.159000
v -0.317000 0.522605 -0.159000
v -0.578000 0.522605 -0.103000
v -0.126000 0.107605 -0.094000
v -0.310000 0.127605 -0.451000
v -0.380000 0.262605 -0.451000
v -0.380000 0.283605 -0.193000
v -0.705000 0.112605 -0.193000
v 0.148000 0.086605 0.116000
v 0.486000 0.563605 -0.000000
v 0.437000 0.511605 0.043000
v 0.437000 0.511605 -0.043000
v 0.797000 0.262605 -0.451000
v 0.666311 0.193938 0.638502
v 0.571141 0.193938 0.390438
v 0.731489 0.081047 0.638502
v 0.683904 -0.001373 0.390438
v 0.861844 0.081047 0.638502
v 0.909429 -0.001373 0.390438
v 0.927022 0.193938 0.638502
v 1.022192 0.193938 0.390438
v 0.861844 0.306829 0.638502
v 0.909429 0.389249 0.390438
v 0.731489 0.306829 0.638502
v 0.683904 0.389249 0.390438
v 0.571141 0.193938 0.638502
v 0.683904 -0.001373 0.638502
v 0.909429 -0.001373 0.638502
v 1.022192 0.193938 0.638502
v 0.909429 0.389249 0.638502
v 0.683904 0.389249 0.638502
v 0.666311 0.193938 0.609736
v 0.731489 0.081047 0.609736
v 0.861844 0.081047 0.609736
v 0.927022 0.193938 0.609736
v 0.861844 0.306829 0.609736
v 0.731489 0.306829 0.609736
v -0.493644 0.193938 0.638502
v -0.588814 0.193938 0.390438
v -0.428466 0.081047 0.638502
v -0.476051 -0.001373 0.390438
v -0.298111 0.081047 0.638502
v -0.250526 -0.001373 0.390438
v -0.232933 0.193938 0.638502
v -0.137763 0.193938 0.390438
v -0.298111 0.306829 0.638502
v -0.250526 0.389249 0.390438
v -0.428466 0.306829 0.638502
v -0.476051 0.389249 0.390438
v -0.588814 0.193938 0.638502
v -0.476051 -0.001373 0.638502
v -0.250526 -0.001373 0.638502
v -0.137763 0.193938 0.638502
v -0.250526 0.389249 0.638502
v -0.476051 0.389249 0.638502
v -0.493644 0.193938 0.609736
v -0.428466 0.081047 0.609736
v -0.298111 0.081047 0.609736
v -0.232933 0.193938 0.609736
v -0.298111 0.306829 0.609736
v -0.428466 0.306829 0.609736
v -0.232933 0.193938 -0.637124
v -0.137763 0.193938 -0.389061
v -0.298111 0.081047 -0.637124
v -0.250526 -0.001373 -0.389061
v -0.428466 0.081047 -0.637124
v -0.476051 -0.001373 -0.389061
v -0.493644 0.193938 -0.637124
v -0.588814 0.193938 -0.389061
v -0.428466 0.306829 -0.637124
v -0.476051 0.389249 -0.389061
v -0.298111 0.306829 -0.637124
v -0.250526 0.389249 -0.389061
v -0.137763 0.193938 -0.637124
v -0.250526 -0.001373 -0.637124
v -0.476051 -0.001373 -0.637124
v -0.588814 0.193938 -0.637124
v -0.476051 0.389249 -0.637124
v -0.250526 0.389249 -0.637124
v -0.232933 0.193938 -0.608358
v -0.298111 0.081047 -0.608358
v -0.428466 0.081047 -0.608358
v -0.493644 0.193938 -0.608359
v -0.428466 0.306829 -0.608358
v -0.298111 0.306829 -0.608358
v 0.927022 0.193938 -0.637124
v 1.022192 0.193938 -0.389061
v 0.861844 0.081047 -0.637124
v 0.909429 -0.001373 -0.389061
v 0.731489 0.081047 -0.637124
v 0.683904 -0.001373 -0.389061
v 0.666311 0.193938 -0.637124
v 0.571141 0.193938 -0.389061
v 0.731489 0.306829 -0.637124
v 0.683904 0.389249 -0.389061
v 0.861844 0.306829 -0.637124
v 0.909429 0.389249 -0.389061
v 1.022192 0.193938 -0.637124
v 0.909429 -0.001373 -0.637124
v 0.683904 -0.001373 -0.637124
v 0.571141 0.193938 -0.637124
v 0.683904 0.389249 -0.637124
v 0.909429 0.389249 -0.637124
v 0.927022 0.193938 -0.608358
v 0.861844 0.081047 -0.608358
v 0.731489 0.081047 -0.608358
v 0.666311 0.193938 -0.608358
v 0.731489 0.306829 -0.608358
v 0.861844 0.306829 -0.608358
v -0.168856 1.161517 -0.025729
v -0.211248 1.075558 0.000000
v -0.084073 1.213093 0.000000
v 0.000710 1.178709 0.025729
v -0.041682 1.299052 0.038594
v 0.043102 1.264668 0.012865
v 0.170277 1.144326 -0.025729
v 0.085494 1.385011 -0.025729
v 0.127885 1.299052 0.012865
v 0.255060 1.419395 0.090054
v 0.255060 1.247477 -0.012865
v 0.424627 1.281860 -0.064324
v 0.255060 1.161517 -0.012865
v 0.212668 1.109942 -0.000000
v 0.127885 1.144326 -0.115783
v 0.000710 1.178709 -0.141513
v -0.084073 1.058366 -0.205836
v -0.251520 0.692155 0.244819
v -0.290666 0.591412 0.116281
v -0.162600 0.544232 0.152165
v -0.117382 0.782177 0.213208
v 0.000710 0.800489 0.192972
v -0.090876 0.847727 0.256607
v 0.058601 0.694002 0.376179
v 0.041472 0.676465 0.328104
v 0.290002 0.639692 0.260580
v 0.034588 0.604755 0.297766
v 0.254928 0.601253 0.260250
v 0.086576 0.588947 0.329289
v 0.265539 0.589411 0.267905
v 0.089583 0.578794 0.407120
v 0.007523 0.586625 0.426369
v -0.009474 0.570022 0.377560
v -0.057998 0.600496 0.375204
v -0.059184 0.626159 0.420142
v -0.264861 0.830030 0.270507
v -0.084073 1.058366 0.205836
v -0.084073 0.938024 0.257296
v -0.230914 0.864080 0.336741
v 0.015065 0.684149 0.408477
v -0.148507 0.903869 0.317413
v -0.041681 0.886448 0.244431
v 0.000710 0.989599 0.231566
v 0.043102 1.006791 0.295890
v 0.085494 1.041174 0.205836
v 0.000710 1.195901 0.488862
v 0.000710 1.178709 0.141513
v 0.127885 1.144326 0.115783
v 0.297452 1.127134 0.025729
v 0.297452 1.075558 -0.000000
v 0.127885 1.075558 -0.205836
v 0.043102 1.195901 -0.283025
v 0.000710 1.195901 -0.488862
v 0.043102 1.006791 -0.295890
v 0.000710 0.989599 -0.231566
v -0.084073 0.938024 -0.257296
v -0.230911 0.864249 -0.336616
v -0.264887 0.829929 -0.270562
v -0.300209 0.865284 -0.195789
v -0.252737 0.692765 -0.244721
v -0.291025 0.591596 -0.116243
v -0.168856 0.370694 0.102918
v -0.126464 0.525420 0.102918
v -0.041681 0.662955 0.064324
v -0.084073 0.525420 0.000000
v -0.041681 0.662955 -0.115783
v 0.085494 0.628571 -0.025729
v 0.000710 0.680146 0.064324
v 0.085494 0.731722 0.025729
v 0.085494 0.766105 0.038594
v 0.085494 0.766105 0.012865
v 0.085494 0.783297 0.012865
v 0.127885 0.783297 -0.025729
v 0.127885 0.800489 -0.000000
v 0.127885 0.852064 0.180107
v 0.043102 0.817681 0.192972
v 0.043102 0.869256 0.205836
v 0.212668 0.903640 0.141513
v 0.212668 0.955215 0.192972
v 0.212668 0.920832 0.090054
v 0.424627 0.852064 -0.000000
v 0.127885 1.075558 0.205836
v 0.043102 1.195901 0.283025
v 0.085494 1.144326 0.295890
v 0.075301 0.643599 0.404755
v 0.312281 0.623932 0.277035
v 0.345624 0.542945 0.270666
v 0.295312 0.572647 0.227006
v 0.289377 0.698786 0.157566
v 0.352944 0.605591 0.245279
v 0.453632 0.477212 0.220627
v 0.491613 0.554748 0.170036
v 0.512823 0.470676 0.074869
v 0.444992 0.581286 0.057695
v 0.382165 0.620573 0.154824
v 0.362652 0.647723 0.151759
v 0.343461 0.689780 0.059597
v 0.331787 0.658183 0.125448
v 0.423050 0.504736 0.128380
v 0.362426 0.412803 0.214221
v 0.440551 0.312441 0.107369
v 0.436940 0.358018 0.058599
v 0.448651 0.355347 -0.000034
v 0.463990 0.418485 -0.015373
v 0.301829 1.180771 0.093687
v 0.297452 1.140285 -0.075303
v 0.085494 1.041174 -0.205836
v 0.085494 1.144326 -0.295890
v 0.043102 0.869256 -0.205836
v 0.212668 0.903640 -0.141513
v 0.127885 0.852064 -0.180107
v 0.424627 0.800489 -0.038594
v 0.339844 0.748913 -0.000000
v 0.170277 0.748913 -0.000000
v 0.424627 0.800489 0.038594
v 0.509410 0.852064 0.064324
v 0.467018 0.886448 -0.000000
v 0.509410 0.852064 -0.064324
v 0.509410 0.800489 -0.000000
v 0.594194 0.869256 -0.000000
v 0.426804 0.432597 -0.052275
v 0.445055 0.512312 -0.054279
v 0.396994 0.592239 0.057914
v 0.085494 0.783297 -0.064324
v 0.085494 0.766105 -0.064324
v 0.085494 0.766105 -0.025729
v 0.085494 0.714530 0.012865
v 0.085494 0.714530 -0.025729
v 0.085494 0.714530 -0.064324
v 0.085494 0.731722 -0.077189
v 0.085494 0.766105 -0.090054
v 0.043102 0.817681 -0.192972
v 0.000710 0.800489 -0.192972
v 0.000710 0.680146 -0.115783
v 0.085494 0.697338 -0.064324
v 0.085494 0.680146 -0.025729
v 0.085494 0.697338 0.012865
v -0.126464 0.525420 -0.102918
v -0.084073 0.387886 -0.064324
v -0.168856 0.370694 -0.102918
v -0.162885 0.544153 -0.152269
v -0.117424 0.780499 -0.214051
v -0.253640 0.422269 -0.064324
v -0.115285 0.129079 -0.105557
v -0.113072 0.129275 0.105895
v -0.040674 0.197893 -0.000075
v 0.001979 0.158880 -0.126626
v 0.039108 0.223277 -0.065591
v 0.204984 0.199368 -0.059501
v 0.234026 0.099868 -0.196751
v 0.017128 0.216675 -0.191532
v 0.208968 0.257471 -0.264347
v 0.039908 0.258752 -0.220021
v 0.104927 0.356880 -0.159763
v 0.181623 0.321862 -0.195246
v 0.091440 0.351143 -0.094398
v 0.191382 0.346988 -0.110089
v 0.042614 0.366238 -0.084217
v 0.040156 0.381344 -0.150575
v -0.097933 0.252922 -0.139911
v -0.067336 0.303272 -0.041113
v -0.168856 0.336310 -0.115783
v -0.105730 0.214418 -0.165641
v -0.084073 0.301926 0.038594
v -0.069169 0.303898 0.040552
v -0.168856 0.336310 0.115783
v -0.098309 0.253250 0.139722
v 0.040108 0.381302 0.150888
v 0.042616 0.366235 0.084206
v 0.039108 0.223279 0.065591
v 0.091437 0.351148 0.094407
v 0.107678 0.357684 0.172809
v 0.039907 0.258756 0.220020
v -0.105571 0.214784 0.165552
v 0.001964 0.158885 0.126710
v 0.205694 0.199809 0.059753
v 0.237018 0.101983 0.197493
v 0.017129 0.216669 0.191532
v 0.208943 0.257475 0.264361
v 0.181986 0.321688 0.195264
v 0.193274 0.346175 0.110180
v -0.000672 0.641142 -0.315427
v 0.041494 0.676397 -0.328082
v 0.058606 0.693993 -0.376172
v -0.091023 0.848088 -0.256457
v -0.041681 0.886448 -0.244431
v -0.148409 0.903818 -0.317419
v 0.015070 0.684147 -0.408471
v -0.059195 0.626175 -0.420132
v -0.058002 0.600501 -0.375202
v 0.034572 0.604817 -0.297737
v 0.289903 0.639853 -0.260614
v 0.312224 0.623629 -0.277041
v 0.352944 0.605591 -0.245279
v 0.345624 0.542945 -0.270666
v 0.265633 0.589384 -0.267877
v 0.089579 0.578786 -0.407112
v 0.075300 0.643600 -0.404755
v 0.007481 0.586599 -0.426364
v -0.009472 0.570004 -0.377636
v 0.086576 0.588947 -0.329290
v 0.254681 0.601418 -0.260333
v 0.320267 0.693202 -0.132344
v 0.362864 0.646988 -0.151672
v 0.382181 0.619692 -0.154784
v 0.491613 0.554748 -0.170036
v 0.453632 0.477212 -0.220627
v 0.362426 0.412803 -0.214221
v 0.295312 0.572647 -0.227006
v 0.332329 0.656862 -0.125254
v 0.344427 0.688914 -0.059287
v 0.397189 0.591439 -0.057828
v 0.444992 0.581286 -0.057695
v 0.512822 0.470676 -0.074869
v 0.440551 0.312441 -0.107369
v 0.423050 0.504736 -0.128380
v 0.445055 0.512312 0.054279
v 0.426804 0.432598 0.052275
v 0.463989 0.418486 0.015373
v 0.456670 0.355839 -0.010013
v 0.436940 0.358018 -0.058599
v -0.000727 0.641360 0.315429
v 0.165005 0.208870 0.140986
v 0.353031 0.128978 0.139637
v 0.178400 0.175661 0.175214
v 0.369498 0.125322 0.254184
v 0.397994 0.271815 0.241988
v 0.429673 0.226903 0.092735
v 0.468362 0.193447 0.086105
v 0.489916 0.290154 0.125105
v 0.518022 0.437783 0.202346
v 0.558932 0.311980 0.427139
v 0.522807 0.384753 0.417113
v 0.601451 0.282845 0.423294
v 0.408186 0.091866 0.247555
v 0.391720 0.095523 0.133007
v 0.529381 0.256506 0.118405
v 0.620801 0.354606 0.136772
v 0.697921 0.476624 0.258583
v 0.697231 0.477619 0.387784
v 0.651912 0.500245 0.387605
v 0.560644 0.501485 0.336901
v 0.483352 0.460297 0.318490
v 0.652479 0.499626 0.258621
v 0.579473 0.385829 0.141925
v 0.369499 0.125320 -0.254183
v 0.178939 0.175961 -0.175333
v 0.353031 0.128976 -0.139635
v 0.164739 0.208742 -0.140928
v 0.429673 0.226900 -0.092733
v 0.489917 0.290152 -0.125102
v 0.518026 0.437799 -0.202354
v 0.558942 0.311981 -0.427138
v 0.601443 0.282811 -0.423270
v 0.408187 0.091864 -0.247553
v 0.391720 0.095520 -0.133006
v 0.468362 0.193444 -0.086103
v 0.529351 0.256511 -0.118405
v 0.620654 0.354552 -0.136729
v 0.579380 0.385829 -0.141918
v 0.652492 0.499615 -0.258611
v 0.697929 0.476610 -0.258571
v 0.697234 0.477617 -0.387778
v 0.651893 0.500253 -0.387604
v 0.560519 0.501474 -0.336884
v -0.211248 0.989599 -0.180107
v -0.338423 0.886448 0.000000
v -0.300253 0.865239 0.195820
v -0.211248 0.989599 0.180107
v -0.253640 0.422269 0.064324
v -0.211248 0.319118 0.051459
v 0.255060 0.955215 -0.000000
v 0.212668 0.920832 -0.090054
v 0.212668 0.920832 0.012865
v 0.255060 0.955215 -0.090054
v 0.255060 1.041174 -0.000000
v 0.255060 1.023983 0.038594
v 0.212668 0.938023 0.038594
v 0.212668 0.938023 0.115783
v 0.255060 1.023983 0.115783
v 0.297452 1.144326 0.090053
v 0.255060 1.075558 0.192972
v 0.297452 1.109942 0.244431
v 0.339843 1.247477 0.218701
v 0.255060 1.092750 -0.244431
v 0.297452 1.213093 -0.218701
v 0.297452 1.109942 -0.064324
v 0.255060 1.041174 -0.090054
v 0.255060 1.075558 -0.167242
v 0.212668 0.955215 -0.167242
v -0.211248 0.319118 -0.051459
v -0.084073 0.301926 -0.038594
v -0.084073 0.387886 0.064324
v 0.165002 0.218233 0.178709
v 0.179531 0.182480 0.200551
v 0.407462 0.311513 0.149632
v 0.407607 0.311298 -0.149632
v 0.165661 0.219014 -0.178954
v 0.397988 0.271891 -0.241993
v 0.180084 0.182891 -0.200682
v 0.483405 0.460339 -0.318516
v 0.522555 0.384622 -0.417019
vn -0.3450 0.2831 -0.8949
vn 0.1100 0.9803 -0.1643
vn 0.2279 0.5756 -0.7854
vn 0.1100 0.9803 0.1643
vn -0.3450 0.2831 0.8949
vn 0.2278 0.5750 0.7858
vn -0.5153 -0.0382 -0.8561
vn -0.5153 -0.0382 0.8561
vn -1.0000 0.0076 -0.0000
vn -0.6319 -0.5781 0.5162
vn 0.6044 0.7966 0.0003
vn -0.5376 -0.0358 0.8424
vn -0.9439 0.3301 -0.0000
vn -0.6338 -0.5781 -0.5138
vn -0.0750 -0.9972 -0.0000
vn -0.1857 -0.4627 -0.8669
vn 0.2502 -0.6408 -0.7258
vn -0.6278 -0.5595 -0.5412
vn -0.6268 -0.5594 0.5424
vn 0.2497 -0.6405 0.7263
vn -0.1857 -0.4627 0.8669
vn 0.8073 -0.5901 0.0007
vn 0.8315 -0.4172 0.3668
vn -0.8790 -0.3686 0.3025
vn 0.8319 -0.4192 -0.3636
vn -0.8792 -0.3718 -0.2980
vn 0.8451 -0.5107 0.1582
vn 0.8687 -0.4800 0.1219
vn 0.7810 -0.5763 0.2407
vn 0.9010 -0.4291 0.0642
vn 0.7810 -0.5763 -0.2407
vn 0.8718 -0.4757 -0.1169
vn 0.8471 -0.5082 -0.1552
vn 0.9042 -0.4233 -0.0578
vn -0.0521 0.9887 0.1403
vn 0.0735 0.8874 0.4551
vn -0.4949 -0.6746 0.5476
vn 0.6972 -0.5968 0.3972
vn -0.0515 0.9889 -0.1393
vn -0.9078 -0.3268 -0.2630
vn -0.5622 0.5021 0.6571
vn -0.5622 0.5021 -0.6571
vn -0.9078 -0.3268 0.2630
vn 0.2546 0.9273 -0.2744
vn 0.2546 0.9273 0.2744
vn -0.5001 -0.6735 -0.5444
vn 0.6995 -0.5962 -0.3939
vn -0.6795 0.5212 -0.5163
vn 0.0018 0.6377 0.7703
vn -0.6796 0.5212 0.5163
vn 0.0018 0.6377 -0.7703
vn 0.0729 0.8882 -0.4537
vn -0.5376 -0.0358 -0.8424
vn 0.5611 0.8278 -0.0000
vn -0.7924 -0.0000 -0.6100
vn -0.3962 -0.6862 0.6100
vn -0.7924 -0.0000 0.6100
vn -0.3962 -0.6863 -0.6100
vn 0.3962 -0.6863 0.6100
vn 0.7924 -0.0000 -0.6100
vn 0.7924 -0.0000 0.6100
vn 0.3962 0.6862 0.6100
vn 0.3962 0.6863 -0.6100
vn 0.3962 -0.6862 -0.6100
vn -0.3962 0.6863 0.6100
vn -0.3962 0.6862 -0.6100
vn -0.2723 -0.4717 0.8386
vn -0.5447 -0.0000 0.8386
vn 0.5447 -0.0000 0.8386
vn 0.2723 0.4717 0.8386
vn -0.2723 0.4717 0.8386
vn 0.2724 -0.4717 0.8386
vn 0.3962 -0.6862 0.6100
vn -0.3962 0.6862 0.6100
vn 0.2723 -0.4717 -0.8386
vn 0.5447 -0.0000 -0.8386
vn -0.2724 0.4717 -0.8386
vn 0.2723 0.4717 -0.8386
vn -0.2724 -0.4717 -0.8386
vn -0.5447 -0.0000 -0.8386
vn -0.3962 -0.6862 -0.6100
vn 0.3962 0.6862 -0.6100
vn -0.5988 0.7320 0.3249
vn -0.4208 0.3207 0.8486
vn -0.5042 0.4662 0.7269
vn 0.3509 0.5378 0.7666
vn -0.1627 0.2499 0.9545
vn 0.3035 0.1408 0.9424
vn 0.1716 -0.3677 0.9140
vn -0.0815 -0.0287 0.9963
vn -0.6667 0.1698 0.7257
vn 0.1449 -0.0195 0.9893
vn 0.3426 -0.4817 0.8066
vn 0.6517 0.2060 0.7299
vn -0.2313 0.5302 0.8157
vn 0.1287 0.9672 0.2190
vn 0.3911 0.8414 0.3728
vn 0.3126 0.9260 0.2115
vn 0.3590 0.9222 -0.1434
vn 0.0012 0.9047 0.4260
vn -0.1454 0.8857 0.4409
vn -0.7338 0.6289 -0.2567
vn -0.9116 0.4105 0.0236
vn -0.4278 0.7440 -0.5133
vn -0.9041 0.3208 0.2822
vn -0.9330 0.0213 0.3591
vn -0.8170 -0.0091 0.5766
vn -0.0708 0.0354 0.9969
vn 0.4923 -0.7973 0.3491
vn 0.4574 -0.5084 0.7296
vn 0.8776 -0.0100 0.4792
vn 0.3238 0.8831 0.3395
vn -0.2329 0.6038 -0.7624
vn -0.4396 0.8443 0.3064
vn -0.2918 0.1986 -0.9356
vn -0.7600 -0.2695 -0.5914
vn -0.1038 -0.9546 -0.2791
vn -0.6201 -0.7196 0.3125
vn 0.3193 -0.8807 0.3498
vn 0.5381 -0.7227 0.4337
vn 0.1516 -0.9617 -0.2284
vn -0.5502 -0.8260 -0.1225
vn -0.3386 -0.3561 0.8709
vn -0.8898 -0.0945 0.4465
vn -0.6424 0.6849 0.3439
vn -0.9116 0.4105 -0.0236
vn 0.0775 0.3988 0.9137
vn -0.5409 0.3397 0.7694
vn 0.1893 0.3995 0.8970
vn 0.1382 0.7747 0.6170
vn 0.4273 -0.1489 0.8918
vn -0.3691 -0.4959 0.7861
vn -0.3189 -0.9145 0.2491
vn 0.0802 -0.3667 0.9269
vn 0.0435 -0.2525 0.9666
vn -0.5536 0.7365 0.3886
vn -0.3110 0.8539 -0.4173
vn -0.0625 0.9931 0.0993
vn 0.2541 0.8654 -0.4318
vn 0.7211 0.4483 -0.5282
vn 0.7537 0.6555 0.0471
vn 0.4386 0.2696 0.8573
vn 0.9697 -0.2190 0.1079
vn 0.2595 0.7542 -0.6032
vn 0.5974 0.6697 -0.4410
vn 0.1943 0.8155 0.5452
vn -0.2180 0.8094 -0.5453
vn -0.3189 -0.9145 -0.2491
vn 0.2306 0.1460 -0.9620
vn 0.0776 0.3990 -0.9136
vn -0.5404 0.3400 -0.7696
vn -0.8179 0.1264 -0.5614
vn -0.8573 0.1998 -0.4745
vn -0.8192 -0.0017 -0.5735
vn -0.8935 0.0192 -0.4487
vn -0.5793 -0.3405 0.7406
vn -0.8915 -0.1210 0.4366
vn -0.6442 0.2800 0.7118
vn 0.7818 -0.2605 0.5665
vn 0.6633 -0.7005 0.2632
vn 0.9869 -0.1610 0.0036
vn 0.5338 -0.6920 -0.4860
vn 0.0342 -0.8282 0.5593
vn 0.4468 -0.6818 0.5792
vn 0.9198 -0.1969 0.3394
vn 0.9014 -0.4141 0.1263
vn 0.9850 -0.0874 0.1489
vn 0.8595 -0.3956 0.3237
vn 0.9033 -0.3049 0.3017
vn -0.5652 -0.8191 0.0981
vn 0.2733 -0.8714 0.4075
vn 0.2993 -0.6001 0.7418
vn 0.2995 -0.2790 0.9124
vn 0.2752 -0.0888 0.9573
vn 0.7727 -0.5550 0.3082
vn 0.9712 0.1124 0.2103
vn -0.5422 0.8104 0.2222
vn 0.7093 0.2910 0.6420
vn 0.8026 -0.5809 0.1357
vn 0.9844 0.0074 0.1757
vn 0.7777 0.2142 0.5910
vn 0.6914 0.6453 -0.3249
vn 0.6613 0.7272 0.1838
vn 0.3551 0.3551 0.8648
vn 0.0878 0.4615 0.8828
vn -0.2084 0.2619 0.9423
vn -0.4991 -0.8608 -0.0994
vn -0.6040 0.7850 -0.1378
vn 0.6939 0.4078 0.5934
vn 0.6416 -0.1797 0.7457
vn 0.7927 0.5286 0.3037
vn 0.9765 -0.0955 -0.1932
vn 0.0253 0.8628 -0.5050
vn 0.3171 0.7193 -0.6181
vn 0.7355 0.6413 0.2186
vn -0.1350 0.6182 -0.7743
vn -0.6990 -0.5948 -0.3971
vn -0.9471 -0.1155 -0.2993
vn -0.8733 -0.2547 0.4152
vn -0.0259 -0.9996 0.0087
vn -0.4342 -0.8053 -0.4036
vn -0.0758 -0.7890 -0.6097
vn 0.3154 -0.3546 -0.8802
vn 0.9990 -0.0085 -0.0442
vn 0.9975 -0.0064 -0.0698
vn 0.9088 0.0505 0.4143
vn 0.9154 0.3956 -0.0742
vn 0.7819 0.3144 -0.5382
vn 1.0000 -0.0000 -0.0000
vn 0.8348 -0.2943 -0.4654
vn 0.7754 -0.4236 -0.4683
vn 0.9580 -0.1843 0.2198
vn 0.2810 -0.1891 -0.9409
vn 0.7760 0.2149 -0.5930
vn -0.2797 -0.1891 -0.9413
vn -0.2929 -0.3319 -0.8967
vn 0.1151 -0.9892 -0.0905
vn -0.4764 -0.7456 -0.4660
vn -0.2929 -0.3319 0.8967
vn 0.0522 0.1641 0.9851
vn -0.2341 0.9722 -0.0000
vn 0.0522 0.1641 -0.9851
vn 0.2471 -0.9651 0.0865
vn 0.9682 0.2503 -0.0000
vn -0.2669 -0.6527 -0.7090
vn -0.0041 0.4596 -0.8881
vn 0.4975 -0.7013 -0.5105
vn 0.8731 -0.4684 -0.1351
vn 0.9838 -0.1414 -0.1104
vn 0.9316 -0.3635 -0.0000
vn 0.8987 -0.1832 -0.3985
vn 0.9175 -0.2149 -0.3348
vn 0.2787 -0.5392 -0.7947
vn 0.3315 -0.5063 -0.7961
vn 0.2865 -0.5584 -0.7785
vn 0.9240 -0.1611 -0.3469
vn 0.9240 -0.1611 0.3469
vn 0.7926 -0.2637 -0.5498
vn 0.9571 -0.1755 -0.2306
vn 0.0308 0.5649 -0.8246
vn 0.5548 -0.6491 -0.5204
vn 0.8983 -0.4128 -0.1503
vn -0.9567 -0.2903 0.0231
vn -0.9101 -0.4136 -0.0235
vn -0.6985 -0.7121 -0.0711
vn 0.0213 -0.7650 0.6436
vn 0.5672 -0.7535 0.3324
vn -0.1880 -0.8593 0.4757
vn 0.1688 -0.4888 0.8559
vn 0.4376 -0.4429 0.7826
vn 0.2590 -0.9483 -0.1836
vn -0.1673 -0.6938 -0.7005
vn -0.2205 -0.0082 -0.9753
vn -0.2878 0.1259 -0.9494
vn 0.1991 0.9042 -0.3779
vn 0.3218 0.8892 -0.3251
vn 0.6615 0.6740 0.3289
vn 0.1076 0.8861 0.4508
vn 0.0969 0.2317 0.9680
vn -0.2553 0.8744 -0.4125
vn 0.0421 0.6957 -0.7171
vn -0.1318 0.9472 0.2924
vn 0.5844 0.8091 0.0615
vn 0.1771 0.6002 -0.7800
vn -0.5014 -0.3172 -0.8050
vn 0.6228 0.5155 -0.5885
vn 0.0551 0.5484 -0.8344
vn 0.3153 0.0881 0.9449
vn -0.0462 0.5765 0.8158
vn -0.3024 0.8717 0.3856
vn -0.4278 0.4388 -0.7902
vn 0.5367 -0.2216 -0.8142
vn 0.0993 0.3148 -0.9440
vn 0.1738 0.8996 0.4006
vn -0.3026 0.1078 0.9470
vn -0.5397 0.0179 0.8417
vn -0.5432 -0.7737 0.3261
vn 0.4430 -0.4426 -0.7796
vn 0.2662 -0.9456 0.1872
vn -0.1547 -0.4443 0.8824
vn -0.1974 -0.0310 0.9798
vn 0.4060 0.8772 0.2564
vn 0.1139 0.8820 -0.4572
vn 0.7639 0.2132 0.6091
vn -0.3498 0.1733 0.9207
vn -0.2364 0.6029 0.7620
vn 0.3234 0.8834 -0.3391
vn 0.8750 -0.0128 -0.4839
vn 0.4260 -0.1504 -0.8921
vn 0.0876 0.7425 -0.6641
vn 0.1893 0.3996 -0.8970
vn -0.5265 -0.3646 -0.7680
vn -0.6346 -0.7728 0.0098
vn -0.6674 0.0070 0.7447
vn -0.5532 0.7973 -0.2412
vn 0.0800 0.5372 -0.8397
vn 0.5201 0.6792 -0.5179
vn -0.2093 0.2616 -0.9422
vn 0.2328 -0.8963 -0.3775
vn 0.5765 -0.6501 -0.4950
vn 0.3918 0.2913 -0.8727
vn -0.6446 -0.1544 -0.7487
vn -0.6281 -0.7769 0.0432
vn -0.1039 -0.9544 0.2800
vn -0.7393 -0.2899 0.6077
vn -0.5174 0.8349 -0.1878
vn 0.7474 0.6203 -0.2378
vn 0.5644 0.7698 0.2981
vn 0.7918 0.5301 -0.3034
vn 0.6416 -0.1797 -0.7457
vn -0.7439 -0.2699 -0.6113
vn -0.4862 -0.8697 0.0850
vn -0.7976 -0.4898 0.3519
vn -0.1904 0.6752 0.7126
vn 0.4976 -0.7007 0.5113
vn -0.1056 0.8558 0.5064
vn 0.9797 -0.0889 0.1797
vn -0.0259 -0.9996 -0.0087
vn -0.9422 -0.1212 0.3123
vn -0.0564 0.4909 0.8694
vn -0.2670 -0.6528 0.7089
vn 0.2066 -0.4439 0.8719
vn 0.0111 -0.8533 0.5212
vn -0.4746 -0.7396 0.4771
vn -0.4314 -0.5585 -0.7085
vn -0.2119 -0.3853 -0.8981
vn -0.3388 -0.7226 -0.6026
vn -0.3411 -0.9390 -0.0446
vn -0.8973 -0.2954 0.3280
vn -0.9625 -0.1955 0.1880
vn -0.7483 0.0703 0.6596
vn -0.1708 0.3278 -0.9292
vn -0.3617 0.3262 -0.8733
vn 0.3969 -0.3495 -0.8487
vn -0.0451 0.3738 -0.9264
vn -0.1576 0.7247 -0.6708
vn -0.3363 -0.0761 0.9387
vn -0.4728 0.4676 0.7469
vn 0.4997 -0.5303 0.6849
vn 0.2423 -0.8331 0.4973
vn -0.0393 -0.8616 -0.5060
vn 0.5912 -0.2985 -0.7493
vn 0.6665 -0.1195 -0.7358
vn 0.8401 0.4247 -0.3375
vn 0.7967 0.2962 0.5268
vn 0.1343 0.7207 0.6801
vn -0.3550 0.9220 0.1548
vn -0.8404 0.5378 -0.0673
vn 0.1372 0.8684 -0.4766
vn -0.0102 0.5114 -0.8593
vn -0.8973 -0.2527 -0.3618
vn -0.9624 -0.1945 -0.1896
vn -0.8611 0.4496 -0.2373
vn -0.3427 -0.9387 0.0371
vn -0.3393 -0.7228 0.6020
vn -0.1957 -0.3907 0.8995
vn -0.1710 0.3282 0.9290
vn -0.8318 0.3613 0.4214
vn -0.0475 0.3733 0.9265
vn -0.1620 0.7185 0.6764
vn -0.3261 -0.0644 -0.9431
vn -0.5073 0.4596 -0.7290
vn 0.4997 -0.5305 -0.6847
vn -0.1949 -0.8875 -0.4175
vn -0.0393 -0.8616 0.5060
vn 0.3970 -0.3495 0.8486
vn 0.5912 -0.2984 0.7493
vn 0.6662 -0.1196 0.7361
vn -0.0063 0.5104 0.8599
vn 0.1373 0.8683 0.4767
vn 0.8313 0.4163 0.3683
vn 0.7967 0.2963 -0.5268
vn 0.1341 0.7207 -0.6802
vn -0.3509 0.9236 -0.1545
vn -0.4603 0.8467 -0.2668
vn -0.9851 0.1720 0.0001
vn 0.3515 -0.6864 0.6367
vn 0.9227 -0.3398 -0.1819
vn 0.3930 -0.5253 -0.7548
vn 0.9167 -0.3922 0.0769
vn 0.9610 -0.2703 0.0585
vn 0.9736 -0.2267 0.0252
vn 0.9207 -0.3809 0.0852
vn 0.9498 -0.3055 -0.0680
vn 0.9578 -0.2605 -0.1218
vn 0.9376 -0.2890 -0.1931
vn 0.9682 -0.2186 -0.1219
vn 0.9459 -0.2739 -0.1738
vn -0.8350 0.4228 0.3521
vn -0.8343 0.4239 -0.3524
vt 0.553275 0.596389
vt 0.515470 0.608933
vt 0.498637 0.458353
vt 0.679539 0.831516
vt 0.639831 0.831765
vt 0.639831 0.685948
vt 0.498637 0.285955
vt 0.498637 0.366941
vt 0.471941 0.326082
vt 0.688932 0.458353
vt 0.768186 0.458353
vt 0.741300 0.571188
vt 0.969622 0.640503
vt 0.917378 0.572825
vt 0.969622 0.574797
vt 0.917378 0.638531
vt 0.055100 0.061738
vt 0.115583 0.236583
vt 0.085855 0.202648
vt 0.091495 0.272992
vt 0.123582 0.503467
vt 0.123582 0.695424
vt 0.108108 0.546543
vt 0.224854 0.272992
vt 0.224854 0.464282
vt 0.129290 0.438699
vt 0.961556 0.325854
vt 0.976381 0.367789
vt 0.961556 0.517502
vt 0.145315 0.202648
vt 0.139678 0.272992
vt 0.176071 0.061737
vt 0.115584 0.000000
vt 0.230152 0.022532
vt 0.230152 0.051483
vt 0.000000 0.022533
vt 0.000000 0.051484
vt 0.555749 0.226806
vt 0.616528 0.150528
vt 0.596722 0.224006
vt 0.542981 0.150528
vt 0.580160 0.452199
vt 0.560695 0.378246
vt 0.620595 0.455640
vt 0.634141 0.378246
vt 0.813084 0.688996
vt 0.864601 0.644228
vt 0.839238 0.693963
vt 0.813084 0.572825
vt 0.639202 0.378246
vt 0.560695 0.308525
vt 0.624817 0.297767
vt 0.490068 0.914432
vt 0.519451 0.963711
vt 0.490068 0.982434
vt 0.824201 0.902465
vt 0.854355 0.992921
vt 0.824201 0.993976
vt 0.639202 0.227750
vt 0.542981 0.000000
vt 0.618403 0.095692
vt 0.542981 0.150528
vt 0.624190 0.061853
vt 0.818099 0.554783
vt 0.818099 0.440358
vt 0.870553 0.491561
vt 0.844657 0.438521
vt 0.541671 0.490780
vt 0.578219 0.574885
vt 0.443556 0.257173
vt 0.412820 0.291163
vt 0.412820 0.372150
vt 0.412820 0.435564
vt 0.383107 0.404837
vt 0.443556 0.410487
vt 0.382852 0.795449
vt 0.348713 0.753478
vt 0.382852 0.687604
vt 0.933287 0.746476
vt 0.969044 0.790816
vt 0.933287 0.810860
vt 0.950825 0.724081
vt 0.906258 0.567275
vt 0.942764 0.529596
vt 0.943429 0.567275
vt 0.229010 0.749434
vt 0.193855 0.797114
vt 0.211743 0.726011
vt 0.229010 0.817758
vt 0.369892 0.639078
vt 0.334980 0.681766
vt 0.334980 0.574966
vt 0.412820 0.227750
vt 0.383107 0.254069
vt 0.484105 0.821303
vt 0.449526 0.749522
vt 0.484105 0.702007
vt 0.996792 0.825949
vt 0.969044 0.809594
vt 0.996792 0.724081
vt 0.211507 0.614811
vt 0.135077 0.560148
vt 0.211507 0.464282
vt 0.129290 0.526308
vt 0.590089 0.458353
vt 0.576726 0.509918
vt 0.785722 0.247667
vt 0.835820 0.287316
vt 0.785722 0.324699
vt 0.815741 0.171259
vt 0.960807 0.520015
vt 0.919312 0.438540
vt 0.960807 0.438521
vt 0.919312 0.520034
vt 0.852204 0.336395
vt 0.903776 0.325854
vt 0.852204 0.417382
vt 0.903776 0.424158
vt 0.542786 0.902417
vt 0.490068 0.914432
vt 0.523488 0.866663
vt 0.490068 0.822248
vt 0.756964 0.800944
vt 0.756964 0.882438
vt 0.690110 0.815327
vt 0.690110 0.868118
vt 0.590089 0.802732
vt 0.639831 0.762825
vt 0.639831 0.837038
vt 0.608698 0.685948
vt 0.579444 0.902790
vt 0.609617 0.902790
vt 0.585599 0.993243
vt 0.334980 0.687604
vt 0.295802 0.634252
vt 0.334980 0.574967
vt 0.230152 0.682974
vt 0.609617 0.902790
vt 0.639577 0.920575
vt 0.609617 0.987534
vt 0.230152 0.434087
vt 0.320425 0.574966
vt 0.260970 0.574966
vt 0.351111 0.434087
vt 0.741435 0.435887
vt 0.708614 0.325854
vt 0.788054 0.325854
vt 0.721500 0.433486
vt 0.761067 0.568376
vt 0.000000 0.582177
vt 0.108108 0.503467
vt 0.108108 0.623674
vt 0.000000 0.560275
vt 0.538001 0.458353
vt 0.560695 0.339445
vt 0.560695 0.455405
vt 0.498637 0.347828
vt 0.504506 0.230698
vt 0.527199 0.227749
vt 0.446282 0.752491
vt 0.386351 0.802114
vt 0.383107 0.752405
vt 0.057780 0.964479
vt 0.000000 0.900902
vt 0.057780 0.900902
vt 0.064151 0.832848
vt -0.000000 0.778183
vt 0.063564 0.777918
vt 0.064151 0.734874
vt 0.179343 0.726011
vt 0.129290 0.642446
vt 0.229397 0.642776
vt 0.747877 0.946009
vt 0.690110 0.882465
vt 0.747877 0.882438
vt 0.449526 0.702093
vt 0.386351 0.702007
vt 0.480756 0.821303
vt 0.489958 0.850045
vt 0.482632 0.850035
vt 0.640100 0.662080
vt 0.590089 0.657224
vt 0.611193 0.645477
vt 0.590089 0.600662
vt 0.611193 0.612784
vt 0.640100 0.572825
vt 0.640100 0.596694
vt 0.690110 0.601550
vt 0.669006 0.613297
vt 0.690110 0.658111
vt 0.669006 0.645990
vt 0.640100 0.685948
vt 0.282294 0.889762
vt 0.338993 0.890531
vt 0.310643 0.940149
vt 0.480756 0.912572
vt 0.488128 0.945966
vt 0.480756 0.945962
vt 0.488129 0.912573
vt 0.480756 0.879175
vt 0.488129 0.879175
vt 0.480756 0.879165
vt 0.488082 0.879175
vt 0.550157 0.878878
vt 0.543125 0.854029
vt 0.550496 0.853998
vt 0.542786 0.822279
vt 0.550157 0.822248
vt 0.490068 0.772454
vt 0.556488 0.822248
vt 0.493312 0.822163
vt 0.961556 0.389431
vt 0.903776 0.325854
vt 0.961556 0.325854
vt 0.824201 0.822054
vt 0.760050 0.767390
vt 0.823614 0.767124
vt 0.824201 0.724081
vt 0.721539 0.195250
vt 0.624190 0.198678
vt 0.672864 0.111201
vt 0.949763 0.308578
vt 0.891995 0.245034
vt 0.949763 0.245007
vt 0.556488 0.722142
vt 0.493312 0.722056
vt 0.679539 0.743821
vt 0.688740 0.772563
vt 0.681414 0.772553
vt 0.433117 0.678139
vt 0.383107 0.673283
vt 0.404211 0.661536
vt 0.383107 0.616721
vt 0.404211 0.628842
vt 0.433118 0.588884
vt 0.433117 0.612752
vt 0.483128 0.617608
vt 0.462024 0.629355
vt 0.483128 0.674170
vt 0.462024 0.662049
vt 0.433117 0.702007
vt 0.887030 0.885407
vt 0.915937 0.836623
vt 0.944843 0.885920
vt 0.440874 0.919034
vt 0.448246 0.952427
vt 0.440874 0.952424
vt 0.282294 0.931501
vt 0.274921 0.898104
vt 0.282294 0.898104
vt 0.679539 0.801683
vt 0.686865 0.801693
vt 0.107769 0.680303
vt 0.100737 0.655454
vt 0.108108 0.655424
vt 0.100398 0.623704
vt 0.107769 0.623674
vt 0.788053 0.369162
vt 0.852204 0.423827
vt 0.788640 0.424092
vt 0.887030 0.902010
vt 0.944810 0.965587
vt 0.887030 0.965587
vt 0.285538 0.787711
vt 0.345469 0.738088
vt 0.348713 0.787797
vt 0.282294 0.738003
vt 0.348713 0.687690
vt 0.590089 0.488080
vt 0.688932 0.485862
vt 0.639511 0.572825
vt 0.383107 0.885664
vt 0.440874 0.949208
vt 0.383107 0.949235
vt 0.852204 0.325854
vt 0.788640 0.326119
vt 0.340307 0.873510
vt 0.348017 0.905229
vt 0.340646 0.905259
vt 0.703174 0.039627
vt 0.674243 0.000000
vt 0.724296 0.027965
vt 0.724296 0.083566
vt 0.703174 0.071764
vt 0.674243 0.111201
vt 0.674243 0.087738
vt 0.624190 0.083236
vt 0.645312 0.071574
vt 0.624190 0.027635
vt 0.645312 0.039436
vt 0.674243 0.023463
vt 0.922463 0.675570
vt 0.893532 0.723681
vt 0.864601 0.675380
vt 0.949444 0.245007
vt 0.942072 0.211614
vt 0.949444 0.211617
vt 0.121642 0.901447
vt 0.129015 0.934844
vt 0.121642 0.934844
vt 0.340307 0.930139
vt 0.347678 0.930108
vt 0.728864 0.225552
vt 0.723414 0.196411
vt 0.730740 0.196421
vt 0.721539 0.167680
vt 0.728864 0.167689
vt 0.127715 0.777918
vt 0.064737 0.833113
vt 0.064151 0.778183
vt 0.217079 0.898104
vt 0.274859 0.961681
vt 0.217079 0.961681
vt 0.693354 0.800859
vt 0.753286 0.751236
vt 0.756530 0.800944
vt 0.690110 0.751150
vt 0.756530 0.700838
vt 0.540079 0.608933
vt 0.590089 0.694219
vt 0.490068 0.693332
vt 0.760050 0.897955
vt 0.817817 0.961499
vt 0.760050 0.961526
vt 0.128301 0.734874
vt 0.064737 0.735140
vt 0.884115 0.265164
vt 0.891825 0.296883
vt 0.884454 0.296914
vt 0.078984 0.663301
vt 0.050053 0.623674
vt 0.100107 0.651639
vt 0.100107 0.707239
vt 0.078984 0.695438
vt 0.050053 0.711411
vt 0.050053 0.734874
vt 0.021122 0.695247
vt 0.000000 0.706909
vt 0.021122 0.663110
vt 0.000000 0.651309
vt 0.050053 0.647137
vt 0.918471 0.096178
vt 0.946605 0.144760
vt 0.890336 0.146741
vt 0.949517 0.422825
vt 0.942145 0.389431
vt 0.949517 0.389435
vt 0.440874 0.885637
vt 0.448247 0.919034
vt 0.440874 0.919034
vt 0.884115 0.321793
vt 0.891486 0.321762
vt 0.686865 0.743821
vt 0.681414 0.714680
vt 0.688740 0.714690
vt 0.679539 0.685949
vt 0.686865 0.685958
vt 0.129290 0.824537
vt 0.158185 0.787083
vt 0.149072 0.808891
vt 0.145619 0.769081
vt 0.177886 0.774902
vt 0.165385 0.754128
vt 0.129290 0.726011
vt 0.193855 0.736267
vt 0.382872 0.566048
vt 0.382872 0.627519
vt 0.373401 0.587575
vt 0.884064 0.155395
vt 0.845296 0.169630
vt 0.890336 0.115177
vt 0.853166 0.137344
vt 0.832360 0.096178
vt 0.835827 0.150904
vt 0.832360 0.167975
vt 0.042425 0.364800
vt 0.029620 0.366381
vt 0.061469 0.347828
vt 0.077441 0.394180
vt 0.094255 0.354757
vt 0.129290 0.408703
vt 0.376075 0.566048
vt 0.351111 0.522651
vt 0.382872 0.510231
vt 0.185857 0.997327
vt 0.185857 0.935212
vt 0.209695 0.957444
vt 0.347966 0.203585
vt 0.366518 0.132862
vt 0.380225 0.171415
vt 0.412485 0.949235
vt 0.412485 0.983479
vt 0.383107 0.965602
vt 0.476521 0.197894
vt 0.431219 0.189926
vt 0.481596 0.156012
vt 0.472176 0.126442
vt 0.494257 0.144908
vt 0.786932 0.548337
vt 0.768186 0.543975
vt 0.793106 0.489258
vt 0.799477 0.495268
vt 0.376745 0.993426
vt 0.364144 0.996963
vt 0.354787 0.930861
vt 0.791847 0.438521
vt 0.818099 0.493662
vt 0.803804 0.443980
vt 0.185857 0.903686
vt 0.191328 0.846660
vt 0.197163 0.892833
vt 0.193953 0.844469
vt 0.216637 0.897232
vt 0.215894 0.918867
vt 0.202710 0.919692
vt 0.198826 0.931738
vt 0.209819 0.935212
vt 0.415687 0.166066
vt 0.422131 0.177626
vt 0.367976 0.205240
vt 0.229136 0.464282
vt 0.229136 0.540370
vt 0.211507 0.509697
vt 0.325786 0.227750
vt 0.110610 0.450586
vt 0.078512 0.444344
vt 0.541149 0.116870
vt 0.539370 0.151799
vt 0.514232 0.133187
vt 0.318437 0.940149
vt 0.318437 0.978561
vt 0.282294 0.961678
vt 0.377036 0.221015
vt 0.793035 0.724081
vt 0.760276 0.658592
vt 0.782961 0.649948
vt 0.813084 0.710943
vt 0.297025 0.946281
vt 0.514506 0.154614
vt 0.497420 0.128871
vt 0.516137 0.107019
vt 0.922463 0.660699
vt 0.945616 0.660333
vt 0.960806 0.672842
vt 0.964022 0.647640
vt 0.091409 0.979946
vt 0.067748 0.989879
vt 0.091409 0.912652
vt 0.964022 0.723681
vt 0.981762 0.237237
vt 0.949763 0.308606
vt 0.949763 0.220029
vt 0.065801 0.421473
vt 0.038188 0.402414
vt 0.000815 0.379328
vt 0.007168 0.364051
vt 0.129015 0.901447
vt 0.116193 0.882199
vt 0.129015 0.878790
vt 0.009411 0.357642
vt 0.016106 0.342708
vt 0.036214 0.322474
vt 0.070064 0.326141
vt 0.098606 0.317258
vt 0.129290 0.272992
vt 0.351111 0.434087
vt 0.944843 0.995858
vt 0.944843 0.920411
vt 0.970156 0.964600
vt 0.850665 0.723502
vt 0.850665 0.693963
vt 0.862390 0.707843
vt 0.238826 0.291378
vt 0.264704 0.290516
vt 0.257715 0.315839
vt 0.230152 0.324768
vt 0.876724 0.791330
vt 0.911525 0.807990
vt 0.876724 0.832073
vt 0.247222 0.180384
vt 0.230152 0.132511
vt 0.249981 0.134072
vt 0.262548 0.152101
vt 0.273407 0.107194
vt 0.315789 0.102332
vt 0.970156 0.948859
vt 0.973917 0.920411
vt 0.984933 0.930373
vt 0.970156 0.993361
vt 0.995807 0.972921
vt 0.127714 0.833113
vt 0.127714 0.878790
vt 0.116193 0.839397
vt 0.422131 0.181403
vt 0.482002 0.435564
vt 0.459272 0.511260
vt 0.449104 0.472294
vt 0.432689 0.509025
vt 0.402953 0.472294
vt 0.162110 0.941449
vt 0.162110 0.987610
vt 0.129290 0.964531
vt 0.151369 0.941448
vt 0.152203 0.908471
vt 0.871009 0.096178
vt 0.840825 0.063087
vt 0.858231 0.052829
vt 0.866855 0.056162
vt 0.866855 0.049569
vt 0.871167 0.049587
vt 0.230093 0.318537
vt 0.225967 0.320072
vt 0.225967 0.306553
vt 0.372101 0.637508
vt 0.382812 0.634115
vt 0.382872 0.680279
vt 0.890650 0.092302
vt 0.318437 0.940149
vt 0.345014 0.966884
vt 0.327829 0.980190
vt 0.318437 0.985402
vt 0.471334 0.115002
vt 0.483356 0.109827
vt 0.469471 0.091452
vt 0.471197 0.064615
vt 0.483756 0.061448
vt 0.881465 0.251490
vt 0.868955 0.265133
vt 0.855570 0.261550
vt 0.590456 0.895644
vt 0.579444 0.902790
vt 0.579444 0.837038
vt 0.606925 0.884686
vt 0.628884 0.870077
vt 0.622515 0.206921
vt 0.616528 0.162075
vt 0.622515 0.150528
vt -0.000000 0.407386
vt 0.028677 0.423183
vt 0.041698 0.450691
vt 0.030994 0.503467
vt 0.030071 0.449125
vt 0.521148 0.067463
vt 0.542981 0.073849
vt 0.518043 0.080852
vt 0.064151 0.955326
vt 0.506600 0.038318
vt 0.995527 0.142139
vt 0.976409 0.152907
vt 0.976409 0.096178
vt 0.791927 0.640639
vt 0.782042 0.631424
vt 0.760050 0.639207
vt 0.769662 0.619765
vt 0.813084 0.572825
vt 0.199279 0.833752
vt 0.653920 0.920014
vt 0.639831 0.918437
vt 0.650628 0.897761
vt 0.200078 0.824537
vt 0.185857 0.834255
vt 0.181202 0.974862
vt 0.169808 0.978734
vt 0.164134 0.941969
vt 0.162110 0.972348
vt 0.376745 0.916576
vt 0.348795 0.915050
vt 0.348042 0.928410
vt 0.661778 0.910059
vt 0.667509 0.868220
vt 0.688453 0.879282
vt 0.039621 0.833113
vt 0.062584 0.843293
vt 0.030797 0.863527
vt 0.013785 0.845916
vt 0.943429 0.526391
vt 0.974467 0.523449
vt 0.960291 0.549962
vt 0.943429 0.567275
vt 0.498520 0.499696
vt 0.489784 0.476131
vt 0.494640 0.470809
vt 0.367254 0.899999
vt 0.507197 0.224853
vt 0.486914 0.224853
vt 0.498246 0.197894
vt 0.162110 0.908471
vt 0.172385 0.936225
vt 0.832205 0.717406
vt 0.813084 0.695080
vt 0.832205 0.693963
vt 0.320602 0.871041
vt 0.294263 0.866230
vt 0.287576 0.836905
vt 0.314636 0.838117
vt 0.348017 0.840432
vt 0.332560 0.873479
vt 0.639831 0.865999
vt 0.648623 0.831765
vt 0.062584 0.894419
vt 0.045963 0.892264
vt 0.033596 0.900902
vt 0.020874 0.889468
vt 0.306546 0.795132
vt 0.321654 0.787797
vt 0.331146 0.799776
vt 0.348017 0.801457
vt 0.835820 0.206338
vt 0.852491 0.191717
vt 0.852060 0.201127
vt 0.445132 0.841157
vt 0.429447 0.831215
vt 0.427298 0.823403
vt 0.297324 0.227750
vt 0.311447 0.257128
vt 0.272976 0.251562
vt 0.271692 0.265194
vt 0.248516 0.250525
vt 0.089566 0.309627
vt 0.091409 0.912652
vt 0.118372 0.954400
vt 0.114914 0.988822
vt 0.091409 0.979341
vt 0.708614 0.457388
vt 0.722154 0.435887
vt 0.728290 0.457388
vt 0.295058 0.304020
vt 0.322030 0.265368
vt 0.314371 0.291294
vt 0.383107 0.242765
vt 0.639202 0.325854
vt 0.675469 0.249471
vt 0.685359 0.270835
vt 0.685358 0.314278
vt 0.969622 0.572825
vt 0.995925 0.617439
vt 0.982839 0.618676
vt 0.969622 0.664562
vt 0.731523 0.325854
vt 0.695252 0.249471
vt 0.422131 0.023489
vt 0.433437 0.015635
vt 0.424752 0.000000
vt 0.438763 0.983628
vt 0.412485 0.976337
vt 0.432268 0.975303
vt 0.438720 0.956370
vt 0.762573 0.452369
vt 0.747324 0.441336
vt 0.762573 0.435887
vt 0.375873 0.231505
vt 0.639831 0.862613
vt 0.418848 0.882421
vt 0.405335 0.885637
vt 0.399878 0.872209
vt 0.685361 0.227750
vt 0.701849 0.228107
vt 0.747324 0.435887
vt 0.738621 0.454993
vt 0.728290 0.435887
vt 0.412485 0.949235
vt 0.527147 0.223344
vt 0.531177 0.197894
vt 0.541285 0.223344
vt 0.668877 0.228107
vt 0.874197 0.265133
vt 0.884115 0.274282
vt 0.874197 0.311460
vt 0.281967 0.952962
vt 0.274921 0.963066
vt 0.274921 0.931501
vt 0.012368 0.893444
vt 0.000000 0.876519
vt 0.282294 0.803751
vt 0.298455 0.791122
vt 0.911525 0.814644
vt 0.917517 0.791330
vt 0.926759 0.814644
vt 0.183720 0.920867
vt 0.482002 0.449569
vt 0.498520 0.435564
vt 0.877714 0.046097
vt 0.871167 0.029808
vt 0.890650 -0.000000
vt 0.226411 0.292704
vt 0.226411 0.272992
vt 0.230152 0.278497
vt 0.225967 0.305175
vt 0.230152 0.292704
vt 0.230152 0.306553
vt 0.731523 0.171259
vt 0.731523 0.156656
vt 0.738799 0.164558
vt 0.746075 0.157857
vt 0.866855 0.039679
vt 0.853919 0.049515
vt 0.853919 0.039625
vt 0.853919 0.029736
vt 0.866855 0.029790
vt 0.858231 0.026457
vt 0.866855 0.023197
vt 0.787371 0.961526
vt 0.812628 0.961526
vt 0.793089 0.982496
vt 0.304972 0.312864
vt 0.300606 0.323346
vt 0.797454 0.992310
vt 0.870553 0.571625
vt 0.872834 0.542185
vt 0.881233 0.539259
vt 0.899518 0.559171
vt 0.906258 0.568310
vt 0.906258 0.529596
vt 0.889633 0.536333
vt 0.849607 0.029718
vt 0.845295 0.039589
vt 0.832360 0.039535
vt 0.849607 0.049497
vt 0.422131 0.197894
vt 0.436769 0.207155
vt 0.422131 0.226737
vt 0.444296 0.211508
vt 0.406528 0.511260
vt 0.383107 0.435564
vt 0.416062 0.543520
vt 0.332256 0.391507
vt 0.366361 0.407556
vt 0.352540 0.427184
vt 0.319932 0.396693
vt 0.282341 0.348434
vt 0.272700 0.389354
vt 0.721323 0.946036
vt 0.750819 0.962455
vt 0.721323 0.980197
vt 0.290796 0.408479
vt 0.344654 0.054072
vt 0.348486 0.071510
vt 0.363798 0.050027
vt 0.386245 0.063560
vt 0.374571 0.000000
vt 0.420605 0.027820
vt 0.976381 0.508316
vt 0.976381 0.454144
vt 0.997493 0.480938
vt 0.126548 0.734874
vt 0.100107 0.715400
vt 0.126548 0.700560
vt 0.498114 0.564112
vt 0.498114 0.597651
vt 0.483955 0.578457
vt 0.906307 0.217123
vt 0.891995 0.226106
vt 0.891995 0.177854
vt 0.980951 0.836623
vt 0.975834 0.890899
vt 0.944843 0.836623
vt 0.958845 0.891252
vt 0.917378 0.572825
vt 0.907134 0.632827
vt 0.882811 0.596690
vt 0.895667 0.633060
vt 0.865302 0.622359
vt 0.884565 0.902465
vt 0.877263 0.940419
vt 0.873848 0.918712
vt 0.865236 0.952536
vt 0.854355 0.928977
vt 0.929797 0.171259
vt 0.935837 0.196463
vt 0.942072 0.208273
vt 0.870040 0.964523
vt 0.884565 0.955748
vt 0.864601 0.638872
vt 0.906896 0.659178
vt 0.550543 0.953677
vt 0.574752 0.977542
vt 0.550543 0.990706
vt 0.876371 0.993493
vt 0.931734 0.240693
vt 0.903900 0.241500
vt 0.383107 0.422095
vt 0.358033 0.434087
vt 0.346387 0.044828
vt 0.349949 0.010728
vt 0.466014 0.226413
vt 0.444296 0.222171
vt 0.466014 0.197894
vt 0.972394 0.920411
vt 0.917378 0.659406
vt 0.483415 0.608933
vt 0.490068 0.647766
vt 0.483415 0.649712
vt 0.949517 0.397216
vt 0.956540 0.389431
vt 0.956540 0.422739
vt 0.527147 0.224445
vt 0.507197 0.223497
vt 0.527147 0.197894
vt 0.522863 0.198472
vt 0.932232 0.245007
vt 0.432111 0.588884
vt 0.422565 0.565080
vt 0.442344 0.565080
vt 0.926325 0.072395
vt 0.898679 0.074026
vt 0.899064 0.070199
vt 0.375455 0.882947
vt 0.374555 0.886675
vt 0.348043 0.899999
vt 0.349392 0.880359
vt 0.358717 0.847147
vt 0.374977 0.852630
vt 0.890650 0.036722
vt 0.925738 0.047308
vt 0.897355 0.025212
vt 0.377158 0.839921
vt 0.359890 0.828815
vt 0.875961 0.775553
vt 0.876724 0.792583
vt 0.845232 0.785303
vt 0.834790 0.813877
vt 0.824201 0.813489
vt 0.849705 0.836623
vt 0.422131 0.054356
vt 0.396893 0.075277
vt 0.486914 0.222499
vt 0.466014 0.226539
vt 0.466014 0.197894
vt 0.787371 0.982374
vt 0.760050 0.994147
vt 0.760050 0.961526
vt 0.786245 0.964311
vt 0.940861 0.055922
vt 0.940861 0.009112
vt 0.945094 0.054510
vt 0.940861 0.000000
vt 0.977216 0.000000
vt 0.962061 0.055105
vt 0.833999 0.785770
vt 0.824201 0.724081
vt 0.857559 0.747179
vt 0.948073 0.084019
vt 0.348042 0.795449
vt 0.361639 0.808738
vt 0.382852 0.814103
vt 0.904631 0.000000
vt 0.389547 0.081138
vt 0.965258 0.684896
vt 0.964022 0.676015
vt 0.988803 0.688054
vt 0.978335 0.723681
vt 0.449028 0.543520
vt 0.988803 0.666272
vt 0.243318 0.753006
vt 0.262562 0.798233
vt 0.230152 0.819931
vt 0.255954 0.746010
vt 0.263138 0.741558
vt 0.282294 0.796696
vt 0.272657 0.333476
vt 0.275075 0.317349
vt 0.249414 0.336057
vt 0.896923 0.825018
vt 0.799611 0.149779
vt 0.779606 0.136623
vt 0.809465 0.078446
vt 0.832160 0.086945
vt 0.238863 0.067141
vt 0.252020 0.067395
vt 0.230138 0.607788
vt 0.211507 0.550127
vt 0.230138 0.540370
vt 0.230152 0.759761
vt 0.237436 0.742079
vt 0.268255 0.687604
vt 0.946605 0.189542
vt 0.969542 0.127423
vt 0.959054 0.193178
vt 0.976409 0.125106
vt 0.975935 0.111795
vt 0.905451 0.529596
vt 0.897414 0.519218
vt 0.908793 0.507429
vt 0.919312 0.527690
vt 0.573859 0.731282
vt 0.579179 0.741963
vt 0.556488 0.794749
vt 0.779606 -0.000000
vt 0.822750 0.048605
vt 0.810372 0.060152
vt 0.800558 0.068666
vt 0.832360 0.068039
vt 0.563305 0.832731
vt 0.557230 0.816393
vt 0.574294 0.829258
vt 0.570389 0.817215
vt 0.587275 0.801209
vt 0.575961 0.790353
vt 0.581801 0.744247
vt 0.255873 0.692119
vt 0.670665 0.924969
vt 0.679370 0.920013
vt 0.673274 0.962318
vt 0.946605 0.102463
vt 0.957325 0.096178
vt 0.482002 0.564112
vt 0.485831 0.535267
vt 0.490601 0.540808
vt 0.721323 0.989574
vt 0.704138 0.972258
vt 0.721323 0.948843
vt 0.870553 0.487471
vt 0.891856 0.477316
vt 0.919312 0.474609
vt 0.268901 0.819931
vt 0.282294 0.853416
vt 0.254697 0.823398
vt 0.573053 0.722056
vt 0.587275 0.731776
vt 0.689523 0.921703
vt 0.680669 0.958770
vt 0.670665 0.986307
vt 0.679539 0.818299
vt 0.689494 0.801693
vt 0.689494 0.829694
vt 0.482002 0.499696
vt 0.498114 0.514182
vt 0.690105 0.970835
vt 0.942658 0.810860
vt 0.948425 0.834145
vt 0.933287 0.834145
vt 0.832206 0.717561
vt 0.832206 0.693963
vt 0.850665 0.696718
vt 0.231758 0.822712
vt 0.225081 0.848631
vt 0.690110 0.946036
vt 0.846951 0.836623
vt 0.873259 0.849632
vt 0.855560 0.866787
vt 0.824201 0.847005
vt 0.824201 0.898009
vt 0.909983 0.438521
vt 0.282294 0.889063
vt 0.251283 0.850535
vt 0.217079 0.881191
vt 0.887030 0.880105
vt 0.874734 0.897081
vt 0.231415 0.895824
vt 0.757796 0.882438
vt 0.757796 0.928759
vt 0.747877 0.891588
vt 0.128782 0.965162
vt 0.121642 0.955830
vt 0.128782 0.934844
vt 0.865884 0.892908
vt 0.851375 0.902465
vt 0.257080 0.898104
vt 0.241349 0.891002
vt 0.265170 0.889492
vt 0.840922 0.895871
vt 0.995409 0.508316
vt 0.995409 0.565398
vt 0.976381 0.555067
vt 0.976381 0.387052
vt 0.995013 0.396777
vt 0.976381 0.454144
vt 0.780123 0.169711
vt 0.779606 0.149779
vt 0.790400 0.149779
vt 0.811342 0.503493
vt 0.818099 0.571188
vt 0.639831 0.982139
vt 0.641177 0.933430
vt 0.648724 0.978784
vt 0.670665 0.930210
vt 0.655223 0.978768
vt 0.874197 0.265133
vt 0.842024 0.312180
vt 0.835820 0.265133
vt 0.760823 0.271134
vt 0.731523 0.325854
vt 0.741934 0.260751
vt 0.773644 0.297948
vt 0.772901 0.268117
vt 0.756494 0.247990
vt 0.731523 0.217246
vt 0.823872 0.884284
vt 0.811141 0.897841
vt 0.797364 0.849309
vt 0.823872 0.822319
vt 0.449526 0.877661
vt 0.462631 0.875982
vt 0.475772 0.934071
vt 0.462899 0.937073
vt 0.669318 0.920013
vt 0.639831 0.923233
vt 0.785722 0.294931
vt 0.760050 0.683052
vt 0.736743 0.700752
vt 0.709626 0.685457
vt 0.704483 0.665446
vt 0.760050 0.610016
vt 0.690110 0.639404
vt 0.693718 0.593064
vt 0.719924 0.572825
vt 0.462322 0.821303
vt 0.449526 0.821320
vt 0.478857 0.863188
vt 0.480756 0.829654
vt 0.876724 0.750503
vt 0.883316 0.724081
vt 0.895122 0.742560
vt 0.890495 0.778488
vt 0.921587 0.758557
vt 0.916107 0.725957
vt 0.933287 0.756731
vt 0.927763 0.724081
vt 0.749299 0.171259
vt 0.760447 0.211190
vt 0.738312 0.177507
vt 0.748441 0.215150
vt 0.909003 0.791330
vt 0.768713 0.244842
vt 0.942145 0.389431
vt 0.936824 0.434432
vt 0.903776 0.389431
vt 0.541339 0.973077
vt 0.534838 0.973055
vt 0.519451 0.924628
vt 0.548938 0.927862
vt 0.550286 0.976637
vt 0.748268 0.099106
vt 0.779606 0.154903
vt 0.736678 0.126343
vt 0.768401 0.089277
vt 0.753066 0.076108
vt 0.779606 0.046000
vt 0.116193 0.843455
vt 0.087662 0.887974
vt 0.100422 0.833113
vt 0.116193 0.912652
vt 0.579444 0.893353
vt 0.558289 0.950727
vt 0.566465 0.891732
vt 0.571120 0.953677
vt 0.520800 0.914432
vt 0.550286 0.917665
vt 0.735886 0.095906
vt 0.724296 0.123142
vt 0.740543 0.072779
vt 0.639202 0.436689
vt 0.694374 0.419463
vt 0.689277 0.439682
vt 0.662351 0.454876
vt 0.639202 0.362729
vt 0.708614 0.393247
vt 0.748884 0.039167
vt 0.761177 0.043283
vt 0.140173 0.859631
vt 0.165893 0.885879
vt 0.145042 0.893700
vt 0.773488 0.006389
vt 0.762312 0.000000
vt 0.705369 0.346518
vt 0.679506 0.325854
vt 0.566878 0.837106
vt 0.579444 0.837038
vt 0.550543 0.879118
vt 0.169693 0.850311
vt 0.153171 0.829238
vt 0.185857 0.834392
vt 0.185790 0.862046
vt 0.129290 0.854967
vt 0.142335 0.824537
vt 0.275156 0.222948
vt 0.303459 0.182961
vt 0.376545 0.088426
vt 0.445132 0.884581
vt 0.442561 0.873474
vt 0.419563 0.871584
vt 0.444417 0.851994
vt 0.542786 0.899575
vt 0.550361 0.878908
vt 0.550361 0.911773
vt 0.128943 0.547973
vt 0.123582 0.516067
vt 0.128943 0.503467
vt 0.835820 0.262636
vt 0.840758 0.234215
vt 0.842185 0.257968
vt 0.861934 0.256882
vt 0.860507 0.233130
vt 0.879600 0.219125
vt 0.891995 0.207568
vt 0.883329 0.171259
vt 0.383107 0.833976
vt 0.392248 0.802199
vt 0.421419 0.850104
vt 0.402448 0.839892
vt 0.850741 0.316530
vt 1.000000 0.325854
vt 0.987541 0.386281
vt 0.976381 0.325854
vt 0.997211 0.387052
vt 0.780417 0.897928
vt 0.760050 0.874420
vt 0.772415 0.842445
vt 0.453129 0.998307
vt 0.449526 0.937073
vt 0.462786 0.997300
vt 0.473430 0.937073
vt 0.928253 0.438308
vt 0.185857 0.908472
vt 0.064151 0.897501
vt 0.068285 0.838363
vt 0.449526 0.802200
vt 0.000000 0.964479
vt 0.000586 0.833113
vt 0.000586 0.735140
vt 0.229397 0.698376
vt 0.129290 0.698046
vt 0.179343 0.614811
vt 0.690110 0.946036
vt 0.488082 0.821313
vt 0.282294 0.923097
vt 0.310643 0.873479
vt 0.338993 0.923866
vt 0.488128 0.912576
vt 0.480756 0.912573
vt 0.542786 0.878908
vt 0.553244 0.772540
vt 0.903776 0.389431
vt 0.760637 0.822319
vt 0.760637 0.724346
vt 0.721539 0.138075
vt 0.672864 0.225552
vt 0.624190 0.141502
vt 0.891995 0.308606
vt 0.686865 0.743831
vt 0.915937 0.902010
vt 0.887030 0.852714
vt 0.944843 0.853226
vt 0.448246 0.919037
vt 0.274921 0.931501
vt 0.100398 0.680334
vt 0.851618 0.368897
vt 0.944810 0.902010
vt 0.285538 0.687604
vt 0.590089 0.545316
vt 0.639511 0.458353
vt 0.688932 0.543098
vt 0.440874 0.885636
vt 0.347678 0.873479
vt 0.893532 0.659406
vt 0.922463 0.707708
vt 0.864601 0.707517
vt 0.942072 0.245004
vt 0.129015 0.901447
vt 0.721539 0.225542
vt 0.128301 0.832848
vt 0.274859 0.898104
vt 0.693354 0.700752
vt 0.490068 0.636770
vt 0.590089 0.637657
vt 0.540079 0.722056
vt 0.817817 0.897928
vt 0.891486 0.265133
vt 0.890336 0.113693
vt 0.946605 0.111712
vt 0.918471 0.162274
vt 0.942145 0.422821
vt 0.448247 0.885637
vt 0.679539 0.743811
s 1
g off
g crash_hi_Material.002
usemtl Material.002
f 1/1/1 37/2/2 51/3/3
f 35/4/4 32/5/5 39/6/6
f 41/7/7 45/8/8 2/9/9
f 21/10/10 23/11/11 55/12/12
f 3/13/13 5/14/13 6/15/13
f 3/13/13 4/16/13 5/14/13
f 29/17/14 8/18/15 7/19/16
f 8/18/15 48/20/17 7/19/16
f 8/21/15 52/22/18 48/23/17
f 8/24/15 24/25/19 52/26/18
f 8/27/15 27/28/20 24/29/19
f 8/18/15 53/30/21 27/31/20
f 8/18/15 21/32/10 53/30/21
f 8/18/15 10/33/22 21/32/10
f 10/33/22 9/34/23 21/32/10
f 9/34/23 20/35/24 21/32/10
f 8/18/15 29/17/14 10/33/22
f 29/17/14 11/36/25 10/33/22
f 29/17/14 30/37/26 11/36/25
f 12/38/27 14/39/28 13/40/29
f 12/38/27 15/41/30 14/39/28
f 16/42/31 18/43/32 17/44/33
f 18/43/32 19/45/34 17/44/33
f 22/46/35 21/47/10 20/48/24
f 22/46/35 23/49/11 21/47/10
f 24/50/19 25/51/36 39/52/6
f 24/53/19 28/54/37 25/55/36
f 27/56/20 25/57/36 26/58/38
f 27/59/20 39/52/6 25/51/36
f 27/60/20 28/61/37 24/62/19
f 27/60/20 26/63/38 28/61/37
f 23/64/11 57/65/39 29/66/14
f 57/65/39 30/67/26 29/66/14
f 51/3/3 41/68/7 1/1/1
f 41/68/7 31/69/40 1/1/1
f 41/7/7 2/9/9 31/70/40
f 2/9/9 38/71/41 31/70/40
f 33/72/42 32/73/5 35/74/4
f 33/72/42 34/75/43 32/73/5
f 39/76/6 36/77/44 35/78/4
f 36/79/44 33/80/42 35/81/4
f 36/79/44 2/82/9 33/80/42
f 36/83/44 47/84/45 2/85/9
f 47/86/45 38/87/41 2/88/9
f 47/86/45 37/89/2 38/87/41
f 47/90/45 51/91/3 37/92/2
f 1/93/1 38/71/41 37/94/2
f 1/93/1 31/70/40 38/71/41
f 32/95/5 45/96/8 39/97/6
f 32/98/5 34/99/43 45/100/8
f 34/75/43 2/9/9 45/8/8
f 34/75/43 33/72/42 2/9/9
f 52/101/18 40/102/46 48/103/17
f 40/102/46 49/104/47 48/103/17
f 52/105/18 41/68/7 51/3/3
f 52/105/18 43/106/48 41/68/7
f 39/107/6 42/108/49 36/109/44
f 39/107/6 27/110/20 42/108/49
f 41/111/7 44/112/50 45/113/8
f 41/111/7 43/114/48 44/112/50
f 43/115/48 52/116/18 44/117/50
f 52/116/18 24/118/19 44/117/50
f 44/119/50 24/120/19 45/121/8
f 24/120/19 39/122/6 45/121/8
f 42/123/49 46/124/51 36/125/44
f 46/124/51 47/126/45 36/125/44
f 46/127/51 51/128/3 47/129/45
f 46/127/51 48/130/17 51/128/3
f 49/131/47 50/132/52 48/133/17
f 50/134/52 51/135/3 48/136/17
f 50/134/52 52/137/18 51/135/3
f 50/138/52 40/139/46 52/140/18
f 21/141/10 7/142/16 53/143/21
f 21/141/10 29/144/14 7/142/16
f 56/145/53 23/146/11 29/147/14
f 56/145/53 54/148/54 23/146/11
f 54/149/54 55/12/12 23/11/11
f 55/150/12 29/151/14 21/152/10
f 55/150/12 56/153/53 29/151/14
f 9/154/23 23/155/11 22/156/35
f 9/154/23 10/157/22 23/155/11
f 10/157/22 11/158/25 23/155/11
f 11/158/25 57/159/39 23/155/11
f 59/160/55 71/161/56 70/162/57
f 61/163/58 72/164/59 71/165/56
f 72/166/59 65/167/60 73/168/61
f 65/167/60 74/169/62 73/168/61
f 59/170/55 67/171/63 63/172/64
f 67/173/63 75/174/65 74/175/62
f 69/176/66 70/162/57 75/177/65
f 66/178/67 79/179/57 64/180/68
f 58/181/69 71/182/56 60/183/70
f 60/183/70 72/184/59 62/185/71
f 62/185/71 73/186/61 64/187/68
f 64/187/68 74/188/62 66/189/67
f 66/189/67 75/190/65 68/191/72
f 68/191/72 70/192/57 58/181/69
f 77/193/62 79/194/57 81/195/73
f 62/196/71 77/197/62 60/198/70
f 68/199/72 80/200/56 66/201/67
f 62/202/71 79/179/57 78/203/74
f 60/204/70 76/205/61 58/206/69
f 58/206/69 81/207/73 68/208/72
f 94/209/57 85/210/58 95/211/56
f 85/212/58 96/213/59 95/214/56
f 96/215/59 89/216/60 97/217/61
f 89/216/60 98/218/62 97/217/61
f 83/219/55 91/220/63 87/221/64
f 91/222/63 99/223/65 98/224/62
f 93/225/66 94/209/57 99/226/65
f 90/227/67 103/228/57 88/229/68
f 82/230/69 95/231/56 84/232/70
f 84/232/70 96/233/59 86/234/71
f 86/234/71 97/235/61 88/236/68
f 88/236/68 98/237/62 90/238/67
f 90/238/67 99/239/65 92/240/72
f 92/240/72 94/241/57 82/230/69
f 101/242/62 103/243/57 105/244/73
f 86/245/71 101/246/62 84/247/70
f 92/248/72 104/249/56 90/250/67
f 86/251/71 103/228/57 102/252/74
f 84/253/70 100/254/61 82/255/69
f 82/255/69 105/256/73 92/257/72
f 118/258/60 109/259/59 119/260/64
f 109/261/59 120/262/58 119/263/64
f 111/264/56 121/265/55 120/266/58
f 113/267/57 122/268/66 121/265/55
f 107/269/61 115/270/65 111/271/56
f 115/272/65 123/273/63 122/274/66
f 117/275/62 118/258/60 123/276/63
f 114/277/75 127/278/60 112/279/76
f 108/280/77 118/281/60 119/282/64
f 108/280/77 120/283/58 110/284/78
f 110/284/78 121/285/55 112/286/76
f 112/286/76 122/287/66 114/288/75
f 114/288/75 123/289/63 116/290/79
f 116/290/79 118/281/60 106/291/80
f 125/292/66 127/293/60 129/294/81
f 110/295/78 125/296/66 108/297/77
f 116/298/79 128/299/64 114/300/75
f 110/301/78 127/278/60 126/302/82
f 108/303/77 124/304/55 106/305/80
f 106/305/80 129/306/81 116/307/79
f 131/308/61 143/309/64 142/310/60
f 133/311/59 144/312/58 143/313/64
f 135/314/56 145/315/55 144/316/58
f 137/317/57 146/318/66 145/315/55
f 131/319/61 139/320/65 135/321/56
f 139/322/65 147/323/63 146/324/66
f 141/325/62 142/310/60 147/326/63
f 138/327/75 151/328/60 136/329/76
f 132/330/77 142/331/60 143/332/64
f 132/330/77 144/333/58 134/334/78
f 136/335/76 144/333/58 145/336/55
f 138/337/75 145/336/55 146/338/66
f 140/339/79 146/338/66 147/340/63
f 140/339/79 142/331/60 130/341/80
f 149/342/66 151/343/60 153/344/81
f 134/345/78 149/346/66 132/347/77
f 140/348/79 152/349/64 138/350/75
f 134/351/78 151/328/60 150/352/82
f 132/353/77 148/354/55 130/355/80
f 130/355/80 153/356/81 140/357/79
f 155/358/83 156/359/84 154/360/85
f 156/359/84 155/358/83 157/361/86
f 156/359/84 157/361/86 158/362/87
f 158/362/87 157/361/86 159/363/88
f 159/363/88 157/361/86 160/364/89
f 159/363/88 160/364/89 161/365/90
f 161/366/90 160/367/89 162/368/91
f 162/369/91 160/370/89 163/371/92
f 163/371/92 160/370/89 164/372/93
f 164/372/93 160/370/89 165/373/94
f 165/373/94 160/370/89 166/374/95
f 166/374/95 160/370/89 167/375/96
s 2
f 160/376/97 167/377/98 168/378/99
f 160/376/97 168/378/99 157/379/100
f 157/379/100 168/378/99 169/380/101
f 157/379/100 169/380/101 155/381/102
f 155/382/102 169/383/101 170/384/103
f 155/385/102 170/386/103 419/387/104
f 421/388/105 172/389/106 171/390/107
f 171/391/107 172/392/106 173/393/108
f 171/394/107 173/395/108 174/396/109
f 174/396/109 173/395/108 175/397/110
f 174/396/109 175/397/110 176/398/111
f 174/399/109 176/400/111 177/401/112
f 174/399/109 177/401/112 178/402/113
f 178/403/113 177/404/112 179/405/114
f 178/402/113 179/406/114 180/407/115
f 180/407/115 179/406/114 181/408/116
f 180/409/115 181/410/116 182/411/117
f 182/411/117 181/410/116 183/412/118
f 182/411/117 183/412/118 184/413/119
f 182/411/117 184/413/119 185/414/120
f 182/411/117 185/414/120 186/415/121
f 182/411/117 186/415/121 180/409/115
f 180/409/115 186/415/121 187/416/122
f 187/416/122 186/415/121 185/414/120
f 187/416/122 185/414/120 188/417/123
f 187/418/122 188/419/123 189/420/124
f 187/421/122 189/422/124 171/423/107
f 171/390/107 189/420/124 421/388/105
f 421/388/105 189/420/124 422/424/125
f 155/381/102 422/425/125 190/426/126
f 190/427/126 422/428/125 191/429/127
f 191/430/127 422/431/125 192/432/128
f 192/433/128 422/424/125 189/420/124
f 192/433/128 189/420/124 188/419/123
f 192/434/128 188/435/123 193/436/129
f 192/434/128 193/436/129 194/437/130
f 192/432/128 194/438/130 191/430/127
f 191/429/127 194/439/130 195/440/131
f 191/429/127 195/440/131 196/441/132
f 191/429/127 196/441/132 190/427/126
f 190/442/126 196/443/132 197/444/133
f 197/444/133 196/443/132 198/445/134
f 197/446/133 198/447/134 199/448/135
f 197/444/133 199/449/135 190/442/126
f 190/450/126 199/451/135 200/452/136
f 190/426/126 200/453/136 155/381/102
f 155/381/102 200/453/136 157/379/137
f 157/379/137 200/453/136 201/454/138
f 157/379/137 201/454/138 160/376/139
f 160/376/139 201/454/138 167/377/98
f 167/377/98 201/454/138 434/455/140
f 167/377/98 434/455/140 202/456/141
f 167/457/98 202/458/141 203/459/142
f 167/377/98 203/460/142 440/461/143
f 167/377/98 440/461/143 168/378/99
f 168/378/99 440/461/143 442/462/144
f 168/378/99 442/462/144 204/463/145
f 168/378/99 204/463/145 169/380/101
f 169/380/101 204/463/145 205/464/146
f 169/380/101 205/464/146 206/465/147
f 169/383/101 206/466/147 170/384/103
f 170/467/103 206/468/147 207/469/148
f 170/470/103 207/471/148 208/472/149
f 170/473/103 208/474/149 209/475/150
f 170/473/103 209/475/150 419/476/104
f 419/477/104 209/478/150 210/479/151
f 419/480/104 210/481/151 211/482/152
f 419/480/104 211/482/152 212/483/153
f 212/483/153 211/482/152 213/484/154
f 212/483/153 213/484/154 214/485/155
f 423/486/156 424/487/157 215/488/158
f 423/486/156 215/488/158 172/489/106
f 172/489/106 215/488/158 173/490/108
f 173/491/108 215/492/158 216/493/159
f 173/395/108 216/494/159 175/397/110
f 175/495/110 216/496/159 217/497/160
f 217/497/160 216/496/159 218/498/161
f 217/497/160 218/498/161 219/499/162
f 217/500/160 219/501/162 220/502/163
f 217/500/160 220/502/163 221/503/164
f 217/500/160 221/503/164 175/504/110
f 175/505/110 221/506/164 222/507/165
f 175/505/110 222/507/165 223/508/166
f 223/508/166 222/507/165 224/509/167
f 223/508/166 224/509/167 225/510/168
f 225/511/168 224/512/167 226/513/169
f 225/514/168 226/367/169 227/515/170
f 225/514/168 227/515/170 228/516/171
f 225/510/168 228/517/171 223/508/166
f 223/518/166 228/519/171 229/520/172
f 223/518/166 229/520/172 175/521/110
f 175/397/110 229/522/172 230/523/173
f 230/523/173 229/522/172 228/524/171
f 230/523/173 228/524/171 231/525/174
f 230/523/173 231/525/174 232/526/175
f 232/527/175 231/528/174 233/529/176
f 233/530/176 231/531/174 234/532/177
f 233/530/176 234/532/177 427/533/178
f 427/533/178 234/532/177 426/534/179
f 427/535/178 203/536/142 202/537/141
f 435/538/180 434/455/140 201/454/138
f 435/538/180 201/454/138 235/539/181
f 235/539/181 201/454/138 200/453/136
f 235/539/181 200/453/136 236/540/182
f 236/540/182 200/453/136 199/541/135
f 236/540/182 199/541/135 237/542/183
f 236/540/182 237/542/183 235/539/181
f 235/543/181 237/544/183 198/545/134
f 198/447/134 237/546/183 199/448/135
f 232/526/175 435/547/180 235/543/181
f 232/526/175 235/543/181 198/545/134
f 232/526/175 198/545/134 230/523/173
f 230/523/173 198/545/134 196/441/132
f 230/523/173 196/441/132 195/440/131
f 230/523/173 195/440/131 175/397/110
f 175/397/110 195/440/131 176/398/111
f 176/398/111 195/440/131 194/439/130
f 176/548/111 194/549/130 177/550/112
f 177/551/112 194/437/130 193/436/129
f 177/551/112 193/436/129 238/552/184
f 238/552/184 193/436/129 188/435/123
f 238/552/184 188/435/123 185/553/120
f 238/552/184 185/553/120 184/554/119
f 238/552/184 184/554/119 239/555/185
f 239/556/185 184/413/119 183/412/118
f 239/557/185 183/558/118 240/559/186
f 240/560/186 183/412/118 241/561/187
f 241/561/187 183/412/118 181/410/116
f 241/562/187 181/563/116 242/564/188
f 242/564/188 181/563/116 179/565/114
f 242/566/188 179/405/114 243/567/189
f 243/567/189 179/405/114 239/568/185
f 243/569/189 239/557/185 240/559/186
f 243/569/189 240/559/186 244/570/190
f 243/569/189 244/570/190 245/571/191
f 245/572/191 244/573/190 246/574/192
f 245/572/191 246/574/192 247/575/193
f 245/576/191 247/577/193 248/578/194
f 245/576/191 248/578/194 243/579/189
f 243/580/189 248/581/194 249/582/195
f 243/567/189 249/583/195 242/566/188
f 242/584/188 249/585/195 250/586/196
f 242/564/188 250/587/196 251/588/197
f 242/564/188 251/588/197 241/562/187
f 241/589/187 251/590/197 248/591/194
f 241/592/187 248/593/194 247/594/193
f 241/592/187 247/594/193 252/595/198
f 241/592/187 252/595/198 253/596/199
f 241/592/187 253/596/199 240/597/186
f 240/559/186 253/598/199 244/570/190
f 244/570/190 253/598/199 254/599/200
f 244/573/190 254/600/200 246/574/192
f 246/574/192 254/600/200 255/601/201
f 246/574/192 255/601/201 256/602/202
f 246/574/192 256/602/202 257/603/203
f 257/604/203 256/605/202 252/595/198
f 252/595/198 256/605/202 255/606/201
f 252/595/198 255/606/201 254/607/200
f 252/595/198 254/607/200 253/596/199
f 177/404/112 239/568/185 179/405/114
f 239/555/185 177/551/112 238/552/184
s 1
f 202/608/204 258/609/205 434/610/206
f 203/611/207 440/612/208 259/613/209
s 2
f 442/614/144 443/615/210 204/616/145
f 204/616/145 443/615/210 260/617/211
f 204/616/145 260/617/211 261/618/212
f 204/463/145 261/619/212 205/464/146
f 205/464/146 261/619/212 206/465/147
f 206/620/147 261/621/212 260/622/211
f 206/620/147 260/622/211 207/623/148
f 207/624/148 260/625/211 208/626/149
f 208/474/149 260/617/211 262/627/213
f 262/627/213 260/617/211 443/615/210
f 262/627/213 443/615/210 263/628/214
f 262/627/213 263/628/214 264/629/215
f 264/629/215 263/628/214 265/630/216
f 264/631/215 265/632/216 266/633/217
f 264/631/215 266/633/217 267/634/218
f 264/635/215 267/636/218 227/637/170
f 227/637/170 267/636/218 228/638/171
f 228/639/171 267/634/218 266/633/217
f 228/639/171 266/633/217 268/640/219
f 228/524/171 268/641/219 231/525/174
f 231/525/174 268/641/219 234/642/177
f 234/642/177 268/641/219 269/643/220
f 234/644/177 269/645/220 270/646/221
f 234/644/177 270/646/221 271/647/222
f 234/648/177 271/649/222 265/650/216
f 234/651/177 265/630/216 263/628/214
f 234/532/177 263/652/214 426/534/179
f 426/653/179 263/654/214 443/655/210
f 265/632/216 268/640/219 266/633/217
f 268/640/219 265/632/216 272/656/223
f 268/640/219 272/656/223 269/657/220
f 269/658/220 272/659/223 273/660/224
f 269/645/220 273/661/224 270/646/221
f 270/646/221 273/661/224 271/647/222
f 271/662/222 273/663/224 272/664/223
f 271/665/222 272/656/223 265/632/216
f 274/666/225 257/667/203 252/668/198
f 257/669/203 274/670/225 246/671/192
f 246/574/192 274/672/225 275/673/226
f 275/674/226 274/675/225 252/595/198
f 275/674/226 252/595/198 247/594/193
f 275/673/226 247/575/193 246/574/192
f 251/676/197 276/677/227 248/678/194
f 276/679/227 251/588/197 250/587/196
f 276/680/227 250/681/196 249/582/195
f 276/680/227 249/582/195 248/581/194
f 227/682/170 277/683/228 264/684/215
f 277/685/228 227/686/170 226/687/169
f 277/688/228 226/689/169 278/690/229
f 278/691/229 226/692/169 279/693/230
f 279/693/230 226/692/169 224/694/167
f 279/695/230 224/509/167 280/696/209
f 280/696/209 224/509/167 222/507/165
f 280/696/209 281/697/209 279/695/230
f 279/695/230 281/697/209 282/698/209
f 279/695/230 282/698/209 278/699/229
f 278/699/229 282/698/209 283/700/231
f 278/699/229 283/700/231 284/701/232
f 278/699/229 284/701/232 277/683/228
f 277/683/228 284/701/232 264/684/215
f 264/702/215 284/703/232 285/704/233
f 264/629/215 285/705/233 262/627/213
f 262/627/213 285/705/233 286/706/234
f 286/707/234 285/704/233 284/703/232
f 286/708/234 284/709/232 283/710/231
f 286/708/234 283/710/231 287/711/235
f 286/708/234 287/711/235 219/712/162
f 219/712/162 287/711/235 220/713/163
f 220/713/163 287/711/235 288/714/236
f 288/714/236 287/711/235 283/710/231
f 288/715/236 283/700/231 282/698/209
f 289/716/209 282/698/209 281/697/209
f 282/698/209 289/716/209 288/715/236
f 288/715/236 289/716/209 220/717/163
f 220/717/163 289/716/209 290/718/237
f 220/719/163 290/720/237 221/721/164
f 221/721/164 290/720/237 222/722/165
f 222/507/165 290/718/237 280/696/209
f 280/696/209 290/718/237 289/716/209
f 280/696/209 289/716/209 281/697/209
f 219/499/162 291/723/238 286/724/234
f 291/723/238 219/499/162 218/498/161
f 291/723/238 218/498/161 292/725/239
f 291/726/238 292/727/239 293/728/240
f 291/726/238 293/728/240 294/729/241
f 291/726/238 294/729/241 286/706/234
f 286/706/234 294/729/241 295/730/242
f 295/730/242 294/729/241 213/731/154
f 213/732/154 294/733/241 214/734/155
f 214/735/155 294/729/241 293/728/240
f 214/485/155 293/736/240 296/737/243
f 296/737/243 293/736/240 444/738/244
f 424/739/157 444/738/244 297/740/245
f 424/739/157 297/740/245 298/741/246
f 298/742/246 297/743/245 299/744/247
f 299/745/247 297/746/245 300/747/248
f 299/748/247 300/749/248 301/750/249
f 301/751/249 300/752/248 302/753/250
f 302/754/250 300/755/248 303/756/251
f 303/756/251 300/755/248 304/757/252
f 303/758/251 304/759/252 305/760/253
f 305/760/253 304/759/252 306/761/254
f 305/760/253 306/761/254 307/762/255
f 305/763/253 307/764/255 308/765/256
f 308/765/256 307/764/255 309/766/257
f 308/765/256 309/766/257 310/767/258
f 310/768/258 309/769/257 302/753/250
f 302/753/250 309/769/257 301/751/249
f 301/751/249 309/769/257 311/770/259
f 311/771/259 309/766/257 307/764/255
f 311/771/259 307/764/255 312/772/260
f 312/773/260 307/762/255 306/761/254
f 312/773/260 306/761/254 313/774/261
f 312/775/260 313/776/261 314/777/262
f 312/772/260 314/778/262 311/771/259
f 311/770/259 314/779/262 299/780/247
f 311/770/259 299/780/247 301/751/249
f 292/727/239 445/781/263 315/782/264
f 292/727/239 315/782/264 293/728/240
f 293/736/240 315/783/264 444/738/244
f 444/738/244 315/783/264 316/784/265
f 444/738/244 316/784/265 297/740/245
f 297/785/245 316/786/265 300/787/248
f 300/755/248 316/788/265 304/757/252
f 304/759/252 316/789/265 306/761/254
f 306/790/254 316/791/265 313/792/261
f 313/793/261 316/794/265 315/795/264
f 313/796/261 315/797/264 314/798/262
f 314/798/262 315/797/264 445/799/263
f 445/800/263 299/780/247 314/779/262
f 299/801/247 445/802/263 317/803/266
f 299/804/247 317/805/266 318/806/267
f 318/807/267 317/808/266 319/809/268
f 318/807/267 319/809/268 320/810/269
f 318/807/267 320/810/269 321/811/270
f 318/807/267 321/811/270 322/812/271
f 318/806/267 322/813/271 299/804/247
f 299/804/247 322/813/271 323/814/272
f 323/814/272 322/813/271 324/815/273
f 324/816/273 322/812/271 325/817/274
f 325/817/274 322/812/271 321/811/270
f 325/818/274 321/819/270 326/820/275
f 326/820/275 321/819/270 320/821/269
f 326/820/275 320/821/269 327/822/276
f 327/822/276 320/821/269 319/823/268
f 327/824/276 319/825/268 424/739/157
f 327/824/276 424/739/157 298/741/246
f 327/826/276 298/827/246 328/828/277
f 328/829/277 298/830/246 299/831/247
f 328/829/277 299/831/247 323/832/272
f 328/833/277 323/814/272 329/834/278
f 328/835/277 329/836/278 330/837/279
f 328/835/277 330/837/279 331/838/280
f 331/839/280 330/840/279 332/841/281
f 331/839/280 332/841/281 326/820/275
f 331/839/280 326/820/275 327/822/276
f 331/838/280 327/842/276 328/835/277
f 332/841/281 325/818/274 326/820/275
f 325/817/274 332/843/281 333/844/282
f 325/817/274 333/844/282 324/816/273
f 324/816/273 333/844/282 334/845/283
f 324/815/273 334/846/283 329/834/278
f 324/815/273 329/834/278 323/814/272
f 319/825/268 215/847/158 424/739/157
f 215/848/158 319/849/268 446/850/284
f 215/848/158 446/850/284 216/851/159
f 216/496/159 446/852/284 218/498/161
f 218/498/161 446/852/284 292/725/239
f 317/853/266 446/850/284 319/849/268
f 335/854/285 295/855/242 213/856/154
f 295/855/242 335/854/285 336/857/286
f 295/855/242 336/857/286 337/858/287
f 295/855/242 337/858/287 338/859/288
f 295/730/242 338/860/288 286/706/234
f 286/706/234 338/860/288 339/861/289
f 286/706/234 339/861/289 262/627/213
f 262/627/213 339/861/289 208/474/149
f 208/474/149 339/861/289 209/475/150
f 209/475/150 339/861/289 340/862/290
f 209/478/150 340/863/290 210/479/151
f 210/864/151 340/865/290 341/866/291
f 210/864/151 341/866/291 342/867/292
f 210/481/151 342/868/292 211/482/152
f 211/482/152 342/868/292 343/869/293
f 211/482/152 343/869/293 213/484/154
f 213/870/154 343/871/293 335/872/285
f 335/854/285 343/873/293 344/874/294
f 335/854/285 344/874/294 336/857/286
f 336/857/286 344/874/294 345/875/295
f 336/876/286 345/877/295 337/878/287
f 337/878/287 345/877/295 346/879/296
f 346/879/296 345/877/295 347/880/297
f 346/881/296 347/882/297 348/883/298
f 346/881/296 348/883/298 349/884/299
f 346/885/296 349/886/299 350/887/300
f 346/888/296 350/889/300 351/890/301
f 346/888/296 351/890/301 337/891/287
f 337/891/287 351/890/301 341/866/291
f 341/866/291 351/890/301 342/867/292
f 342/867/292 351/890/301 352/892/302
f 342/893/292 352/894/302 343/895/293
f 343/895/293 352/894/302 353/896/303
f 343/895/293 353/896/303 344/897/294
f 344/897/294 353/896/303 354/898/304
f 354/898/304 353/896/303 352/894/302
f 354/898/304 352/894/302 350/887/300
f 350/889/300 352/892/302 351/890/301
f 349/886/299 354/898/304 350/887/300
f 354/898/304 349/886/299 355/899/305
f 354/898/304 355/899/305 344/897/294
f 344/874/294 355/900/305 345/875/295
f 345/901/295 355/902/305 356/903/306
f 345/877/295 356/904/306 347/880/297
f 347/880/297 356/904/306 357/905/307
f 347/906/297 357/907/307 358/908/308
f 347/909/297 358/910/308 359/911/309
f 347/882/297 359/912/309 360/913/310
f 347/882/297 360/913/310 348/883/298
f 348/883/298 360/913/310 361/914/311
f 348/915/298 361/916/311 362/917/312
f 348/918/298 362/919/312 349/886/299
f 349/886/299 362/919/312 355/899/305
f 355/902/305 362/920/312 356/903/306
f 356/903/306 362/920/312 363/921/313
f 356/903/306 363/921/313 364/922/314
f 356/923/306 364/924/314 357/925/307
f 357/907/307 364/926/314 365/927/315
f 365/928/315 364/922/314 363/921/313
f 365/929/315 363/930/313 358/931/308
f 365/927/315 358/908/308 357/907/307
f 362/932/312 358/933/308 363/934/313
f 358/935/308 362/917/312 366/936/316
f 358/910/308 366/937/316 359/911/309
f 359/938/309 366/939/316 367/940/317
f 359/938/309 367/940/317 360/941/310
f 360/941/310 367/940/317 368/942/318
f 360/913/310 368/943/318 361/914/311
f 361/916/311 368/944/318 369/945/319
f 361/916/311 369/945/319 362/917/312
f 362/917/312 369/945/319 366/936/316
f 366/936/316 369/945/319 370/946/320
f 366/939/316 370/947/320 367/940/317
f 367/940/317 370/947/320 371/948/321
f 371/949/321 370/946/320 369/945/319
f 371/950/321 369/951/319 372/952/322
f 371/953/321 372/954/322 367/955/317
f 367/940/317 372/956/322 373/957/323
f 373/958/323 372/959/322 369/945/319
f 373/958/323 369/945/319 374/960/324
f 373/957/323 374/961/324 367/940/317
f 367/940/317 374/961/324 368/942/318
f 368/944/318 374/960/324 369/945/319
f 340/865/290 337/891/287 341/866/291
f 337/962/287 340/963/290 338/964/288
f 338/860/288 340/862/290 339/861/289
f 375/965/325 187/966/122 171/967/107
f 187/968/122 375/969/325 180/970/115
f 180/407/115 375/971/325 178/402/113
f 178/402/113 375/971/325 174/399/109
f 174/399/109 375/971/325 171/972/107
s 1
f 376/973/326 377/974/327 378/975/328
f 379/976/329 378/975/328 377/974/327
f 448/977/330 378/975/328 379/976/329
f 380/978/331 448/979/330 379/980/329
f 381/981/332 376/982/326 449/983/333
f 377/984/327 376/982/326 381/981/332
f 382/985/334 377/984/327 381/981/332
f 383/986/335 382/985/334 381/981/332
f 449/983/333 383/986/335 381/981/332
f 384/987/336 383/986/335 449/983/333
f 385/988/337 386/989/338 380/990/331
f 379/991/329 385/988/337 380/990/331
f 387/992/339 385/993/337 379/994/329
f 388/995/340 387/992/339 379/994/329
f 377/974/327 388/996/340 379/976/329
f 389/997/341 388/996/340 377/974/327
f 382/985/334 389/998/341 377/984/327
f 388/999/340 389/1000/341 382/1001/334
f 390/1002/342 388/999/340 382/1001/334
f 387/1003/339 388/999/340 390/1002/342
f 391/1004/343 387/1003/339 390/1002/342
f 392/1005/344 387/1003/339 391/1004/343
f 393/1006/345 387/1003/339 392/1005/344
f 394/1007/346 387/992/339 393/1008/345
f 385/993/337 387/992/339 394/1007/346
f 386/1009/338 385/993/337 394/1007/346
f 395/1010/347 386/1009/338 394/1007/346
f 396/1011/348 386/1012/338 395/1013/347
f 384/1014/336 396/1011/348 395/1013/347
f 397/1015/349 384/1014/336 395/1013/347
f 394/1016/346 397/1015/349 395/1013/347
f 392/1017/344 397/1015/349 394/1016/346
f 393/1018/345 392/1017/344 394/1016/346
f 392/1019/344 391/1020/343 397/1021/349
f 398/1022/350 397/1021/349 391/1020/343
f 384/1014/336 397/1015/349 398/1023/350
f 383/986/335 384/987/336 398/1022/350
f 391/1020/343 383/986/335 398/1022/350
f 390/1024/342 383/986/335 391/1020/343
f 382/985/334 383/986/335 390/1024/342
f 399/1025/351 453/1026/352 452/1027/353
f 400/1028/354 453/1029/352 399/1030/351
f 401/1031/355 400/1028/354 399/1030/351
f 402/1032/356 400/1028/354 401/1031/355
f 403/1033/357 402/1034/356 401/1035/355
f 450/1036/358 402/1034/356 403/1033/357
f 404/1037/359 450/1036/358 403/1033/357
f 405/1038/360 450/1036/358 404/1037/359
f 406/1039/361 452/1040/353 455/1041/362
f 399/1042/351 452/1040/353 406/1039/361
f 407/1043/363 399/1044/351 406/1045/361
f 408/1046/364 399/1044/351 407/1043/363
f 401/1031/355 399/1030/351 408/1047/364
f 409/1048/365 401/1031/355 408/1047/364
f 410/1049/366 401/1035/355 409/1050/365
f 403/1033/357 401/1035/355 410/1049/366
f 404/1037/359 403/1033/357 410/1049/366
f 411/1051/367 404/1037/359 410/1049/366
f 408/1052/364 411/1053/367 410/1054/366
f 409/1055/365 408/1052/364 410/1054/366
f 408/1052/364 407/1056/363 411/1053/367
f 412/1057/368 411/1053/367 407/1056/363
f 404/1037/359 411/1051/367 412/1058/368
f 413/1059/369 404/1037/359 412/1058/368
f 405/1038/360 404/1037/359 413/1059/369
f 414/1060/370 405/1061/360 413/1062/369
f 412/1058/368 414/1063/370 413/1059/369
f 415/1064/371 414/1063/370 412/1058/368
f 407/1056/363 415/1065/371 412/1057/368
f 416/1066/372 415/1065/371 407/1056/363
f 417/1067/373 416/1068/372 407/1043/363
f 406/1045/361 417/1067/373 407/1043/363
f 455/1069/362 417/1067/373 406/1045/361
f 418/1070/374 417/1071/373 455/1072/362
f 454/1073/375 418/1070/374 455/1072/362
f 405/1061/360 418/1070/374 454/1073/375
f 414/1060/370 418/1070/374 405/1061/360
f 417/1071/373 418/1070/374 414/1060/370
f 415/1074/371 417/1071/373 414/1060/370
f 416/1075/372 417/1071/373 415/1074/371
s 2
f 212/483/153 155/1076/102 419/480/104
f 420/1077/376 155/1076/102 212/483/153
f 421/388/105 155/1076/102 420/1077/376
f 172/389/106 421/388/105 420/1077/376
f 155/1076/102 421/388/105 422/424/125
f 420/1077/376 212/483/153 214/485/155
f 172/389/106 420/1077/376 214/485/155
f 296/737/243 172/389/106 214/485/155
f 423/1078/156 172/389/106 296/737/243
f 424/739/157 423/1078/156 296/737/243
f 427/1079/178 426/653/179 425/1080/377
f 425/1080/377 426/653/179 428/1081/378
f 425/1080/377 428/1081/378 429/1082/379
f 425/1083/377 429/1084/379 427/1085/178
f 427/1086/178 429/1087/379 203/1088/142
f 427/1089/178 202/608/141 430/1090/380
f 427/1089/178 430/1090/380 431/1091/381
f 427/1089/178 431/1091/381 233/529/176
f 233/529/176 431/1091/381 432/1092/382
f 233/529/176 432/1092/382 232/527/175
f 232/527/175 432/1092/382 433/1093/383
f 433/1093/383 432/1092/382 431/1091/381
f 433/1093/383 431/1091/381 430/1090/380
f 433/1093/383 430/1090/380 434/610/140
f 433/1093/383 434/610/140 435/1094/180
f 435/1094/180 232/527/175 433/1093/383
s 1
f 436/1095/384 434/610/206 437/1096/385
f 258/609/205 437/1096/385 434/610/206
s 2
f 202/608/141 434/610/140 430/1090/380
s 1
f 438/1097/386 439/1098/387 440/612/208
f 259/613/209 440/612/208 439/1098/387
s 2
f 440/612/143 203/611/142 429/1082/379
f 441/1099/388 429/1082/379 428/1081/378
f 429/1082/379 441/1099/388 440/612/143
f 440/612/143 441/1099/388 442/1100/144
f 442/1100/144 441/1099/388 443/655/210
f 426/653/179 443/655/210 428/1081/378
f 428/1081/378 443/655/210 441/1099/388
f 424/739/157 296/737/243 444/738/244
f 317/803/266 445/802/263 292/725/239
f 317/803/266 292/725/239 446/852/284
s 1
f 447/1101/389 448/979/330 380/978/331
f 449/1102/333 447/1103/389 380/1104/331
f 376/1105/326 447/1103/389 449/1102/333
f 396/1106/348 384/1107/336 449/1108/333
f 380/990/331 396/1106/348 449/1108/333
f 386/989/338 396/1106/348 380/990/331
f 402/1109/356 450/1110/358 451/1111/390
f 452/1112/353 451/1111/390 450/1110/358
f 453/1026/352 451/1113/390 452/1027/353
f 454/1073/375 450/1114/358 405/1061/360
f 452/1040/353 450/1115/358 454/1116/375
f 455/1041/362 452/1040/353 454/1116/375
f 59/160/55 61/1117/58 71/161/56
f 61/163/58 63/1118/64 72/164/59
f 72/166/59 63/1119/64 65/167/60
f 65/167/60 67/1120/63 74/169/62
f 63/172/64 61/1121/58 59/170/55
f 59/170/55 69/1122/66 67/171/63
f 67/171/63 65/1123/60 63/172/64
f 67/173/63 69/1124/66 75/174/65
f 69/176/66 59/160/55 70/162/57
f 66/178/67 80/1125/56 79/179/57
f 58/181/69 70/192/57 71/182/56
f 60/183/70 71/182/56 72/184/59
f 62/185/71 72/184/59 73/186/61
f 64/187/68 73/186/61 74/188/62
f 66/189/67 74/188/62 75/190/65
f 68/191/72 75/190/65 70/192/57
f 81/195/73 76/1126/61 77/193/62
f 77/193/62 78/1127/74 79/194/57
f 79/194/57 80/1128/56 81/195/73
f 62/196/71 78/1129/74 77/197/62
f 68/199/72 81/1130/73 80/200/56
f 62/202/71 64/180/68 79/179/57
f 60/204/70 77/1131/62 76/205/61
f 58/206/69 76/205/61 81/207/73
f 94/209/57 83/1132/55 85/210/58
f 85/212/58 87/1133/64 96/213/59
f 96/215/59 87/1134/64 89/216/60
f 89/216/60 91/1135/63 98/218/62
f 87/221/64 85/1136/58 83/219/55
f 83/219/55 93/1137/66 91/220/63
f 91/220/63 89/1138/60 87/221/64
f 91/222/63 93/1139/66 99/223/65
f 93/225/66 83/1132/55 94/209/57
f 90/227/67 104/1140/56 103/228/57
f 82/230/69 94/241/57 95/231/56
f 84/232/70 95/231/56 96/233/59
f 86/234/71 96/233/59 97/235/61
f 88/236/68 97/235/61 98/237/62
f 90/238/67 98/237/62 99/239/65
f 92/240/72 99/239/65 94/241/57
f 105/244/73 100/1141/61 101/242/62
f 101/242/62 102/1142/74 103/243/57
f 103/243/57 104/1143/56 105/244/73
f 86/245/71 102/1144/74 101/246/62
f 92/248/72 105/1145/73 104/249/56
f 86/251/71 88/229/68 103/228/57
f 84/253/70 101/1146/62 100/254/61
f 82/255/69 100/254/61 105/256/73
f 118/258/60 107/1147/61 109/259/59
f 109/261/59 111/1148/56 120/262/58
f 111/264/56 113/267/57 121/265/55
f 113/267/57 115/1149/65 122/268/66
f 111/271/56 109/1150/59 107/269/61
f 107/269/61 117/1151/62 115/270/65
f 115/270/65 113/1152/57 111/271/56
f 115/272/65 117/1153/62 123/273/63
f 117/275/62 107/1147/61 118/258/60
f 114/277/75 128/1154/64 127/278/60
f 108/280/77 106/291/80 118/281/60
f 108/280/77 119/282/64 120/283/58
f 110/284/78 120/283/58 121/285/55
f 112/286/76 121/285/55 122/287/66
f 114/288/75 122/287/66 123/289/63
f 116/290/79 123/289/63 118/281/60
f 129/294/81 124/1155/55 125/292/66
f 125/292/66 126/1156/82 127/293/60
f 127/293/60 128/1157/64 129/294/81
f 110/295/78 126/1158/82 125/296/66
f 116/298/79 129/1159/81 128/299/64
f 110/301/78 112/279/76 127/278/60
f 108/303/77 125/1160/66 124/304/55
f 106/305/80 124/304/55 129/306/81
f 131/308/61 133/1161/59 143/309/64
f 133/311/59 135/1162/56 144/312/58
f 135/314/56 137/317/57 145/315/55
f 137/317/57 139/1163/65 146/318/66
f 135/321/56 133/1164/59 131/319/61
f 131/319/61 141/1165/62 139/320/65
f 139/320/65 137/1166/57 135/321/56
f 139/322/65 141/1167/62 147/323/63
f 141/325/62 131/308/61 142/310/60
f 138/327/75 152/1168/64 151/328/60
f 132/330/77 130/341/80 142/331/60
f 132/330/77 143/332/64 144/333/58
f 136/335/76 134/334/78 144/333/58
f 138/337/75 136/335/76 145/336/55
f 140/339/79 138/337/75 146/338/66
f 140/339/79 147/340/63 142/331/60
f 153/344/81 148/1169/55 149/342/66
f 149/342/66 150/1170/82 151/343/60
f 151/343/60 152/1171/64 153/344/81
f 134/345/78 150/1172/82 149/346/66
f 140/348/79 153/1173/81 152/349/64
f 134/351/78 136/329/76 151/328/60
f 132/353/77 149/1174/66 148/354/55
f 130/355/80 148/354/55 153/356/81
