# Blender 5.0.1
# www.blender.org
mtllib crashCharacterBrazoDerecho.mtl
g 01.002_Mesh
v -0.000430 0.093539 -0.033511
v -0.230711 -0.708927 0.124198
v -0.365631 -0.783674 0.005424
v -0.326239 -0.762997 0.007429
v -0.351808 -0.787117 -0.058607
v -0.335114 -0.778646 -0.016022
v -0.303427 -0.931241 0.000157
v -0.255504 -0.571375 -0.065840
v -0.225719 -0.705026 0.119173
v -0.254838 -0.864560 0.084985
v -0.344833 -0.569119 0.009872
v 0.026855 -0.078144 0.062159
v -0.259203 -0.894837 0.108748
v -0.266489 -0.908051 0.082408
v -0.324618 -0.928428 0.008774
v -0.350059 -0.910741 -0.084790
v -0.321777 -0.773238 -0.071427
v -0.375110 -0.762126 -0.090794
v -0.228564 -0.680476 0.126816
v -0.254716 -0.700143 0.118886
v -0.249605 -0.907473 0.088819
v -0.300227 -0.916750 0.004431
v -0.319417 -0.932735 -0.017450
v -0.340459 -0.913072 -0.081920
v -0.347216 -0.912757 -0.103065
v -0.337706 -0.912784 -0.101420
v -0.311721 -0.620847 0.052102
v -0.393477 -0.749799 0.026499
v -0.263198 -0.644782 0.031974
v -0.026060 0.092250 0.008079
v -0.078338 0.032604 -0.004812
v -0.069234 0.026183 -0.033769
v -0.058750 0.007815 -0.067408
v -0.000225 0.052229 -0.083844
v -0.225987 -0.696395 0.108631
v -0.236781 -0.703828 0.108267
v -0.245955 -0.706303 0.114481
v -0.236613 -0.706683 0.130698
v -0.229652 -0.698207 0.128992
v -0.363700 -0.787549 0.009969
v -0.342104 -0.779239 0.007553
v -0.355281 -0.789443 0.002884
v -0.377403 -0.791822 0.000160
v -0.384709 -0.777956 -0.003779
v -0.396286 -0.762532 -0.009233
v -0.388496 -0.764232 0.004281
v -0.381987 -0.772091 0.017816
v -0.334547 -0.788921 -0.014745
v -0.344102 -0.787604 0.027139
v -0.335681 -0.780128 0.030700
v -0.333089 -0.773562 0.038274
v -0.325251 -0.751585 0.024992
v -0.311747 -0.729790 0.013062
v -0.309520 -0.736704 -0.010325
v -0.320066 -0.763920 -0.027005
v -0.351441 -0.798874 -0.051994
v -0.334077 -0.793252 -0.037351
v -0.333424 -0.780445 -0.042738
v -0.375739 -0.783044 -0.054058
v -0.371400 -0.799032 -0.048925
v -0.374686 -0.778267 -0.069329
v -0.382503 -0.769571 -0.063133
v -0.350063 -0.796568 -0.062172
v -0.369729 -0.794760 -0.072190
v -0.320335 -0.766966 -0.052178
v -0.326609 -0.792507 -0.075297
v -0.300525 -0.923826 -0.006599
v -0.308133 -0.930066 -0.014430
v -0.309460 -0.938964 -0.001814
v -0.304826 -0.924082 0.011745
v -0.314204 -0.929111 0.014097
v -0.268999 -0.620946 -0.075634
v -0.265948 -0.636457 -0.046305
v -0.248829 -0.610405 -0.034079
v -0.240628 -0.591012 -0.016151
v -0.249701 -0.552220 -0.042555
v -0.268497 -0.560297 -0.082428
v -0.277261 -0.610533 -0.093120
v -0.223902 -0.688070 0.119619
v -0.253220 -0.868800 0.098148
v -0.274039 -0.847523 0.096488
v -0.270799 -0.848355 0.081841
v -0.271994 -0.853382 0.068245
v -0.251541 -0.873632 0.076450
v -0.244892 -0.883871 0.091279
v -0.320975 -0.553033 0.020815
v -0.322190 -0.588076 0.041587
v -0.333487 -0.601669 0.030225
v -0.365697 -0.622629 0.011794
v -0.377636 -0.625983 -0.007989
v -0.358579 -0.573013 -0.012603
v -0.331134 -0.526154 -0.023809
v -0.321127 -0.524238 -0.011321
v -0.308073 -0.522003 -0.000802
v 0.021484 -0.099142 0.003882
v -0.003963 -0.102879 0.002129
v -0.012785 -0.090196 0.045081
v -0.032158 -0.053019 0.076359
v 0.009864 -0.018224 0.095515
v -0.259662 -0.903308 0.102868
v -0.279656 -0.893868 0.102888
v -0.272253 -0.883874 0.109618
v -0.247263 -0.890749 0.105077
v -0.245096 -0.901343 0.095565
v -0.261086 -0.873923 0.108794
v -0.255232 -0.903433 0.079001
v -0.269133 -0.891845 0.068706
v -0.279970 -0.899335 0.076676
v -0.282168 -0.898523 0.090472
v -0.263610 -0.908708 0.093749
v -0.322860 -0.935995 -0.003990
v -0.339108 -0.915327 -0.009796
v -0.336658 -0.912090 0.008125
v -0.325440 -0.905999 0.017801
v -0.350168 -0.914278 -0.094142
v -0.354439 -0.896329 -0.094684
v -0.351159 -0.897088 -0.080905
v -0.338398 -0.916538 -0.092191
v -0.336879 -0.898112 -0.075830
v -0.308136 -0.740253 -0.062613
v -0.308274 -0.739309 -0.083997
v -0.326588 -0.766306 -0.102323
v -0.328564 -0.787188 -0.102219
v -0.371225 -0.789588 -0.093658
v -0.387109 -0.752893 -0.075831
v -0.353142 -0.786540 -0.109384
v -0.353000 -0.761548 -0.111033
v -0.346028 -0.730988 -0.116146
v -0.367775 -0.726980 -0.101141
v -0.380574 -0.723059 -0.084371
v -0.241346 -0.660888 0.113740
v -0.233049 -0.665395 0.102901
v -0.237890 -0.687611 0.133674
v -0.254151 -0.664255 0.119709
v -0.259050 -0.687320 0.095199
v -0.266570 -0.683592 0.105130
v -0.247707 -0.696247 0.130882
v -0.264953 -0.673901 0.115859
v -0.247571 -0.894179 0.083225
v -0.311930 -0.900422 0.017178
v -0.302269 -0.897550 0.002811
v -0.299818 -0.899900 -0.015737
v -0.329644 -0.913179 -0.025157
v -0.312793 -0.907099 -0.026646
v -0.325919 -0.897423 -0.088669
v -0.346078 -0.896001 -0.106171
v -0.331425 -0.896522 -0.104074
v -0.282795 -0.643984 0.081094
v -0.281809 -0.650321 0.074438
v -0.302688 -0.637719 0.043681
v -0.308956 -0.641732 0.035839
v -0.321041 -0.624542 0.034844
v -0.403444 -0.745066 0.005005
v -0.369449 -0.777694 0.044672
v -0.366126 -0.785899 0.036821
v -0.392152 -0.706031 0.020304
v -0.378803 -0.702780 0.037368
v -0.381174 -0.738207 0.044234
v -0.364856 -0.771026 0.054718
v -0.398935 -0.708878 0.000147
v -0.251707 -0.625099 0.039812
v -0.244923 -0.613595 0.015063
v -0.250974 -0.632392 0.001099
v -0.267654 -0.652366 -0.014359
v -0.275072 -0.660535 0.015708
v -0.263846 -0.651237 0.066354
v -0.258089 -0.642323 0.069658
v -0.286586 -0.650077 0.039487
v -0.274457 -0.652476 0.067524
v -0.292544 -0.656883 0.031978
v -0.013042 0.025580 0.102453
v -0.030646 0.051089 0.093674
v -0.041473 0.068462 0.078504
v -0.054212 -0.019888 0.084048
v -0.071516 0.000431 0.078814
v -0.084231 0.016894 0.065027
v -0.089630 0.028577 0.044139
v -0.043035 0.079910 0.057439
v -0.113901 -0.059627 0.055912
v -0.126162 -0.045402 0.044145
v -0.132828 -0.034371 0.027006
v -0.129986 -0.029165 0.005456
v -0.085848 0.032914 0.020300
v -0.161613 -0.106705 0.019838
v -0.167907 -0.097572 0.004871
v -0.167349 -0.091650 -0.013308
v -0.161094 -0.089870 -0.032100
v -0.122745 -0.028478 -0.015962
v -0.200750 -0.161486 -0.015746
v -0.202387 -0.155697 -0.032975
v -0.195733 -0.154663 -0.049450
v -0.185729 -0.156694 -0.064728
v -0.151183 -0.092649 -0.050656
v -0.234868 -0.224938 -0.045963
v -0.230220 -0.225258 -0.063258
v -0.220327 -0.228061 -0.078519
v -0.206019 -0.233590 -0.089443
v -0.171255 -0.162932 -0.078196
v -0.257989 -0.297225 -0.067685
v -0.248364 -0.300420 -0.082791
v -0.234405 -0.305870 -0.093254
v -0.218184 -0.312700 -0.096709
v -0.189029 -0.241424 -0.095461
v -0.267991 -0.363222 -0.081409
v -0.256002 -0.367520 -0.090651
v -0.241038 -0.373268 -0.092138
v -0.226468 -0.379348 -0.089322
v -0.201806 -0.320048 -0.094812
v -0.274759 -0.424668 -0.087663
v -0.261785 -0.429396 -0.087857
v -0.248817 -0.434276 -0.083329
v -0.237914 -0.438630 -0.076460
v -0.213710 -0.384763 -0.080661
v -0.281143 -0.486418 -0.085145
v -0.270224 -0.490458 -0.080034
v -0.261521 -0.494909 -0.072122
v -0.255549 -0.497280 -0.062355
v -0.230666 -0.441387 -0.064411
v -0.281935 -0.552557 -0.091642
v -0.296168 -0.546477 -0.097959
v -0.311267 -0.596668 -0.109313
v -0.292115 -0.602980 -0.104432
v -0.326705 -0.647795 -0.118052
v -0.305752 -0.652997 -0.111894
v -0.293161 -0.658391 -0.096031
v -0.287459 -0.663908 -0.075768
v -0.314135 -0.698994 -0.112089
v -0.301644 -0.702932 -0.091755
v -0.299636 -0.705709 -0.069819
v -0.299312 -0.707660 -0.047613
v -0.285828 -0.670864 -0.050711
v -0.309053 -0.739138 -0.039186
v -0.299278 -0.707517 -0.021714
v -0.300501 -0.703486 0.004655
v -0.290902 -0.678242 0.004150
v -0.287116 -0.676876 -0.023211
v -0.301268 -0.669673 0.024781
v -0.309031 -0.693357 0.027649
v -0.325704 -0.680029 0.040708
v -0.316120 -0.654298 0.034761
v -0.320020 -0.719435 0.033243
v -0.336427 -0.709454 0.047145
v -0.358482 -0.703319 0.048569
v -0.347180 -0.670245 0.042195
v -0.330171 -0.742549 0.039751
v -0.342785 -0.735375 0.051942
v -0.362149 -0.733671 0.053951
v -0.343577 -0.763925 0.056113
v -0.355007 -0.765635 0.058657
v -0.331094 -0.792737 0.072009
v -0.340972 -0.795629 0.076611
v -0.350571 -0.801933 0.074468
v -0.355794 -0.808609 0.065946
v -0.314878 -0.828522 0.095065
v -0.325228 -0.837808 0.093964
v -0.333075 -0.846752 0.086435
v -0.332270 -0.850912 0.073518
v -0.354685 -0.813848 0.055385
v -0.294923 -0.865855 0.106986
v -0.302079 -0.875603 0.097660
v -0.304588 -0.881632 0.084850
v -0.299626 -0.880626 0.070117
v -0.326993 -0.850841 0.060206
v -0.316290 -0.844844 0.054081
v -0.336384 -0.811674 0.041480
v -0.346441 -0.815258 0.046129
v -0.288929 -0.872475 0.060370
v -0.278683 -0.861784 0.059499
v -0.306832 -0.835881 0.056029
v -0.257685 -0.882124 0.069581
v -0.300670 -0.827978 0.063768
v -0.323846 -0.798721 0.052750
v -0.327569 -0.805209 0.045055
v -0.324546 -0.793990 0.062660
v -0.335672 -0.766969 0.048273
v -0.300441 -0.823656 0.075256
v -0.305237 -0.823053 0.087541
v -0.283797 -0.854346 0.106423
v -0.356214 -0.791133 0.028951
v -0.366669 -0.666747 0.032011
v -0.351473 -0.628635 0.027214
v -0.333089 -0.639578 0.035577
v -0.381346 -0.666590 0.015817
v -0.390065 -0.669835 -0.004247
v -0.392785 -0.674275 -0.026833
v -0.381793 -0.630852 -0.031244
v -0.401383 -0.712174 -0.021118
v -0.398276 -0.715714 -0.044501
v -0.390239 -0.679617 -0.051221
v -0.405632 -0.744053 -0.014810
v -0.403165 -0.744843 -0.037371
v -0.396500 -0.747136 -0.058243
v -0.390846 -0.719448 -0.065918
v -0.398454 -0.763191 -0.029885
v -0.392097 -0.765079 -0.049362
v -0.393839 -0.778091 -0.022898
v -0.388061 -0.780052 -0.042236
v -0.390857 -0.795113 -0.017126
v -0.385565 -0.797406 -0.036324
v -0.375735 -0.816517 -0.013282
v -0.374158 -0.818288 -0.026331
v -0.364039 -0.817848 -0.035157
v -0.350643 -0.815821 -0.036771
v -0.366944 -0.849679 -0.020347
v -0.356806 -0.847933 -0.031192
v -0.342830 -0.843386 -0.032550
v -0.332468 -0.838223 -0.022922
v -0.340695 -0.812281 -0.028183
v -0.342428 -0.883799 -0.028459
v -0.326774 -0.876568 -0.031134
v -0.316704 -0.870311 -0.018896
v -0.316100 -0.867826 -0.001685
v -0.332914 -0.835646 -0.008229
v -0.342869 -0.836687 0.003094
v -0.352623 -0.810102 -0.003632
v -0.341311 -0.809668 -0.014207
v -0.326268 -0.870258 0.011814
v -0.341639 -0.876843 0.013814
v -0.357133 -0.841657 0.003927
v -0.367478 -0.847197 -0.005594
v -0.367054 -0.812926 -0.003092
v -0.352222 -0.883804 0.002545
v -0.353358 -0.886969 -0.014701
v -0.371511 -0.687047 -0.091229
v -0.382523 -0.684377 -0.073190
v -0.361062 -0.644342 -0.095799
v -0.373095 -0.641271 -0.077758
v -0.380208 -0.636873 -0.056096
v -0.358177 -0.586852 -0.076982
v -0.364186 -0.583740 -0.056615
v -0.364333 -0.579306 -0.033970
v -0.339288 -0.530655 -0.056128
v -0.338313 -0.528047 -0.039211
v -0.311422 -0.475667 -0.055726
v -0.310911 -0.475219 -0.043448
v -0.305743 -0.475877 -0.031805
v -0.294508 -0.418060 -0.039491
v -0.288239 -0.420337 -0.026906
v -0.277635 -0.423979 -0.017559
v -0.296569 -0.477752 -0.022619
v -0.264636 -0.428435 -0.013250
v -0.285707 -0.480515 -0.017111
v -0.251147 -0.433136 -0.016151
v -0.273162 -0.484202 -0.018658
v -0.287086 -0.524389 -0.000217
v -0.261417 -0.488371 -0.025274
v -0.266891 -0.529796 -0.007392
v -0.264109 -0.553342 0.018959
v -0.293290 -0.546998 0.026619
v -0.266736 -0.574808 0.042871
v -0.296740 -0.572365 0.048895
v -0.267792 -0.596455 0.064510
v -0.293167 -0.598931 0.068433
v -0.263999 -0.632996 0.082552
v -0.273860 -0.634715 0.086080
v -0.253645 -0.608440 0.051348
v -0.258318 -0.636397 0.076255
v -0.235693 -0.675245 0.092494
v -0.246774 -0.684419 0.089679
v -0.247889 -0.592026 0.029014
v -0.244165 -0.570043 0.003229
v -0.253608 -0.539415 -0.022506
v -0.253680 -0.492062 -0.035466
v -0.252153 -0.494115 -0.048877
v -0.230531 -0.441152 -0.035426
v -0.228186 -0.442184 -0.049782
v -0.204602 -0.388530 -0.034818
v -0.201565 -0.389791 -0.050859
v -0.204770 -0.388478 -0.067302
v -0.172836 -0.332812 -0.052723
v -0.176929 -0.331004 -0.070833
v -0.187239 -0.326568 -0.086046
v -0.147327 -0.264460 -0.071370
v -0.157030 -0.258503 -0.086354
v -0.171920 -0.250203 -0.094430
v -0.120536 -0.193506 -0.081130
v -0.136269 -0.183256 -0.087478
v -0.153802 -0.172520 -0.086110
v -0.100386 -0.126885 -0.085647
v -0.119167 -0.113267 -0.081923
v -0.136963 -0.100903 -0.069849
v -0.084109 -0.060316 -0.080018
v -0.100350 -0.044140 -0.064569
v -0.113445 -0.032587 -0.039381
v -0.044606 -0.016743 -0.083796
v -0.030873 -0.043536 -0.091264
v 0.010170 -0.023613 -0.106537
v 0.005646 0.013315 -0.102993
v -0.067129 -0.079700 -0.085787
v -0.051309 -0.097879 -0.081170
v -0.019189 -0.068317 -0.087163
v -0.083086 -0.140501 -0.079773
v -0.071065 -0.151908 -0.064452
v -0.038441 -0.113423 -0.063926
v -0.109434 -0.200784 -0.067264
v -0.106360 -0.205946 -0.048491
v -0.065751 -0.157968 -0.041654
v -0.143840 -0.267116 -0.052992
v -0.147565 -0.265996 -0.034173
v -0.111691 -0.205760 -0.028875
v -0.176132 -0.331589 -0.034389
v -0.184969 -0.328243 -0.018668
v -0.156786 -0.262514 -0.017168
v -0.213131 -0.385158 -0.021097
v -0.226275 -0.379857 -0.011906
v -0.199399 -0.322434 -0.008440
v -0.238846 -0.437780 -0.024034
v -0.217135 -0.315020 -0.004951
v -0.189093 -0.249941 -0.001170
v -0.171369 -0.257320 -0.004956
v -0.241978 -0.373799 -0.008721
v -0.257569 -0.368140 -0.011070
v -0.234437 -0.307770 -0.006932
v -0.249971 -0.301643 -0.016072
v -0.221311 -0.234691 -0.013672
v -0.206472 -0.242201 -0.004604
v -0.270142 -0.363669 -0.020698
v -0.278328 -0.360646 -0.034715
v -0.259482 -0.297842 -0.031505
v -0.262351 -0.296319 -0.049415
v -0.231352 -0.228355 -0.028337
v -0.280257 -0.359557 -0.051342
v -0.276117 -0.360571 -0.067719
v -0.295606 -0.417418 -0.053887
v -0.292062 -0.418478 -0.067733
v -0.285163 -0.420928 -0.079806
v -0.308447 -0.477106 -0.067693
v -0.301890 -0.479637 -0.077918
v -0.292634 -0.482844 -0.085208
v -0.335213 -0.533379 -0.072142
v -0.326829 -0.536530 -0.085725
v -0.312915 -0.540974 -0.095908
v -0.345940 -0.589533 -0.092886
v -0.330094 -0.592400 -0.103794
v -0.346630 -0.644900 -0.110057
v -0.358190 -0.690864 -0.107271
v -0.337651 -0.694243 -0.118519
v -0.318963 -0.737041 -0.108354
v -0.191512 -0.169559 -0.002158
v -0.148917 -0.117886 0.029814
v -0.178189 -0.177905 0.007251
v -0.130605 -0.129037 0.029331
v -0.160564 -0.186418 0.009217
v -0.109359 -0.141401 0.022926
v -0.141586 -0.193859 0.002183
v -0.086720 -0.152924 0.007201
v -0.123748 -0.201376 -0.010543
v -0.071260 -0.158361 -0.016314
v -0.050638 -0.116750 0.030055
v -0.035996 -0.124565 -0.004122
v -0.032642 -0.122691 -0.037585
v -0.003785 -0.099774 -0.037455
v -0.009724 -0.087921 -0.067405
v 0.021235 -0.094612 -0.041816
v 0.017554 -0.081042 -0.077320
v 0.013605 -0.056904 -0.099659
v -0.037340 0.086693 0.034073
v -0.074706 -0.095164 0.051429
v -0.096125 -0.075354 0.057378
v -0.324366 -0.865352 -0.085945
v -0.328806 -0.864811 -0.103510
v -0.345276 -0.865697 -0.106450
v -0.334879 -0.822564 -0.098417
v -0.348542 -0.823620 -0.103167
v -0.359642 -0.825225 -0.093934
v -0.356948 -0.867008 -0.094742
v -0.358420 -0.825834 -0.080279
v -0.353861 -0.867025 -0.078388
v -0.344490 -0.824775 -0.075621
v -0.337292 -0.866142 -0.073015
v -0.333392 -0.823227 -0.084496
v -0.295531 -0.481605 -0.094042
v -0.308128 -0.477523 -0.084261
v -0.316301 -0.474515 -0.071515
v -0.243048 -0.495166 -0.048656
v -0.245392 -0.492653 -0.031310
v -0.249564 -0.633280 0.077962
v -0.277599 -0.629848 0.094202
v -0.259416 -0.626784 0.088625
v -0.255839 -0.488059 -0.017950
v -0.270761 -0.483022 -0.009912
v -0.287848 -0.478038 -0.008170
v -0.302155 -0.474871 -0.016081
v -0.312969 -0.473001 -0.027082
v -0.319374 -0.472243 -0.041549
v -0.319981 -0.472816 -0.056908
v -0.371460 -0.812280 0.005694
v -0.332521 -0.807713 -0.010276
v -0.349520 -0.807960 0.005321
v -0.331583 -0.812330 -0.032149
v -0.347579 -0.818117 -0.045855
v -0.367683 -0.820726 -0.043349
v -0.382140 -0.820892 -0.030750
v -0.385227 -0.818044 -0.010659
v -0.359012 -0.798858 0.023122
v -0.327507 -0.764280 0.051744
v -0.356767 -0.761961 0.067247
v -0.339074 -0.759742 0.063487
v -0.247127 -0.498358 -0.066127
v -0.255298 -0.495785 -0.078686
v -0.265755 -0.491082 -0.087877
v -0.279409 -0.486374 -0.094235
v -0.277088 -0.661107 0.064720
v -0.248923 -0.643623 0.068027
v -0.258423 -0.659163 0.062223
v -0.371402 -0.769717 0.061315
v -0.373543 -0.791151 0.035092
v -0.378334 -0.780107 0.047303
v -0.288580 -0.656740 0.074149
v -0.291675 -0.645733 0.085470
v -0.323979 -0.772992 0.038759
v -0.327108 -0.783636 0.027205
v -0.340558 -0.793736 0.021222
v -0.324073 -0.823050 -0.079842
v -0.343422 -0.825924 -0.065594
v -0.366910 -0.827375 -0.074101
v -0.368946 -0.825519 -0.097856
v -0.350616 -0.822777 -0.113187
v -0.326342 -0.821375 -0.105119
vn -0.6684 0.6035 -0.4349
vn -0.6887 0.6659 -0.2868
vn -0.6294 0.6402 -0.4405
vn -0.5776 0.5146 -0.6337
vn 0.1456 -0.7982 -0.5846
vn 0.8494 -0.5123 0.1270
vn 0.3691 -0.9275 0.0598
vn -0.3440 -0.9193 -0.1910
vn -0.0482 -0.6577 0.7518
vn 0.6459 -0.1072 0.7558
vn 0.4716 -0.8172 -0.3314
vn -0.2483 -0.7909 0.5593
vn 0.8156 -0.5224 0.2489
vn -0.5468 -0.0338 0.8366
vn -0.6918 -0.3174 0.6487
vn -0.7150 -0.6384 0.2850
vn -0.7967 -0.6000 -0.0722
vn -0.2645 -0.7784 -0.5693
vn 0.3168 0.3767 0.8705
vn 0.5932 -0.7840 0.1831
vn 0.8838 -0.4677 -0.0095
vn 0.9678 -0.1412 0.2084
vn 0.8852 -0.3168 0.3406
vn 0.9209 -0.3691 0.1257
vn 0.8353 -0.5429 -0.0869
vn 0.3047 -0.3384 -0.8903
vn 0.1964 -0.9773 -0.0795
vn -0.4216 -0.3490 -0.8369
vn -0.5654 -0.5764 -0.5900
vn -0.8482 -0.5284 0.0366
vn -0.8341 -0.2211 0.5054
vn 0.8651 -0.4908 0.1035
vn 0.8794 -0.1184 0.4612
vn 0.0354 -0.2132 0.9764
vn 0.8353 -0.5421 0.0923
vn 0.9278 -0.0825 -0.3639
vn 0.9020 0.1617 0.4004
vn 0.5517 -0.5794 -0.5999
vn 0.8332 -0.5289 0.1616
vn 0.3357 -0.9414 0.0338
vn 0.9565 -0.0241 0.2907
vn 0.9362 -0.2460 -0.2512
vn 0.0277 -0.5775 0.8159
vn 0.6519 -0.3480 0.6737
vn 0.9179 -0.2965 -0.2637
vn 0.8710 -0.2678 -0.4118
vn 0.9002 -0.0864 -0.4268
vn 0.9964 -0.0487 -0.0692
vn 0.9982 0.0222 -0.0550
vn 0.7422 -0.0977 -0.6631
vn 0.9812 0.1284 0.1440
vn 0.8258 -0.2727 -0.4936
vn 0.5374 0.7135 0.4495
vn 0.7946 0.6016 -0.0820
vn 0.6869 0.7196 -0.1014
vn 0.6498 0.5124 -0.5614
vn 0.8088 0.3341 -0.4839
vn 0.9755 0.2191 -0.0219
vn 0.7706 0.5229 0.3643
vn -0.6437 0.2451 0.7250
vn -0.7064 0.4231 0.5674
vn -0.6189 0.1035 0.7786
vn -0.8604 0.4265 0.2790
vn -0.7429 0.3298 0.5825
vn -0.7905 0.4376 0.4285
vn -0.6668 0.4565 0.5891
vn -0.5064 0.5466 0.6669
vn 0.1616 -0.7967 0.5823
vn 0.1306 -0.9825 0.1331
vn 0.0009 -0.7337 0.6795
vn -0.0573 -0.4538 0.8892
vn -0.1356 -0.3467 0.9281
vn -0.4616 -0.5845 0.6673
vn 0.1310 -0.3673 0.9208
vn -0.1495 -0.1604 0.9757
vn 0.0429 -0.7032 0.7097
vn 0.7299 -0.0354 0.6826
vn 0.3489 0.2900 0.8912
vn 0.0788 -0.4647 -0.8819
vn -0.0831 -0.9372 -0.3387
vn -0.4063 -0.7813 -0.4739
vn -0.5738 -0.7952 0.1959
vn -0.1408 -0.9670 0.2124
vn 0.4060 -0.6226 -0.6690
vn -0.5528 -0.6372 0.5371
vn -0.4958 -0.8681 -0.0230
vn -0.8309 -0.5330 -0.1594
vn -0.7372 -0.4181 0.5307
vn -0.2268 -0.1477 0.9627
vn -0.9738 -0.1235 -0.1912
vn -0.6279 -0.5602 0.5403
vn -0.7404 -0.1785 0.6480
vn 0.3871 -0.9181 0.0853
vn -0.6697 -0.7425 -0.0117
vn 0.0807 -0.6718 0.7363
vn 0.9464 -0.3226 0.0140
vn 0.9282 -0.3107 -0.2049
vn 0.7693 -0.0051 -0.6389
vn -0.9070 -0.0619 -0.4165
vn -0.8304 -0.1570 -0.5346
vn -0.7674 -0.5038 -0.3966
vn -0.2171 0.0082 -0.9761
vn -0.2171 -0.1119 -0.9697
vn -0.6951 0.0104 -0.7188
vn -0.8261 0.0565 -0.5607
vn -0.8491 -0.2234 -0.4787
vn 0.8720 0.4795 -0.0987
vn 0.6580 0.4280 0.6196
vn -0.2239 0.5452 0.8079
vn 0.4353 0.7384 0.5151
vn 0.0827 0.1116 0.9903
vn -0.4495 -0.7158 -0.5344
vn -0.6927 -0.6709 0.2646
vn -0.8699 -0.4920 0.0335
vn -0.5047 -0.2810 0.8163
vn -0.7723 0.0277 0.6347
vn 0.8606 -0.1622 -0.4827
vn 0.5262 -0.8197 -0.2264
vn 0.8442 -0.4943 0.2075
vn 0.4549 0.1553 0.8769
vn 0.8919 0.3036 0.3352
vn 0.9036 0.1471 -0.4023
vn -0.0892 -0.7904 -0.6060
vn 0.3854 -0.1428 -0.9116
vn -0.3885 -0.4033 -0.8285
vn 0.9467 -0.2900 0.1400
vn -0.3413 -0.5761 -0.7427
vn -0.3771 -0.1037 -0.9203
vn 0.4244 -0.6538 -0.6264
vn 0.6280 -0.2100 -0.7493
vn -0.6586 -0.6727 0.3372
vn -0.2628 -0.5736 0.7758
vn -0.8023 -0.2320 0.5500
vn -0.4799 -0.1897 0.8566
vn -0.9127 -0.1791 0.3673
vn -0.9423 -0.2280 0.2451
vn -0.4001 -0.6888 0.6046
vn -0.6897 0.1678 0.7044
vn -0.8697 0.2057 0.4487
vn 0.8788 -0.4740 -0.0555
vn 0.9796 -0.2007 -0.0013
vn 0.6640 -0.7475 -0.0203
vn 0.5993 -0.7517 0.2754
vn 0.7390 -0.5911 0.3232
vn 0.6067 -0.7166 0.3441
vn -0.1762 -0.9647 0.1958
vn -0.4879 0.0704 0.8701
vn -0.3080 -0.0812 0.9479
vn -0.5061 0.1770 0.8441
vn -0.6972 0.3347 0.6340
vn -0.6893 0.4489 0.5687
vn -0.7955 0.5620 0.2265
vn -0.7252 0.2123 0.6550
vn -0.8547 0.4382 0.2785
vn -0.8189 0.5621 -0.1164
vn -0.8786 0.3537 0.3207
vn -0.8650 0.4987 -0.0549
vn -0.7559 0.5741 -0.3147
vn -0.8454 0.3119 0.4336
vn -0.8891 0.4559 -0.0410
vn -0.7709 0.5378 -0.3413
vn -0.6671 0.4955 -0.5564
vn -0.7718 0.4837 -0.4128
vn -0.9179 0.3967 -0.0010
vn -0.8197 0.4075 -0.4025
vn -0.6269 0.4446 -0.6398
vn -0.4110 0.3335 -0.8484
vn -0.6300 0.3565 -0.6899
vn -0.8636 0.3022 -0.4036
vn -0.6714 0.2450 -0.6994
vn -0.3778 0.2594 -0.8888
vn -0.0880 0.1137 -0.9896
vn -0.3727 0.1348 -0.9181
vn -0.7044 0.1981 -0.6816
vn -0.3532 0.0697 -0.9329
vn -0.0489 -0.0053 -0.9988
vn 0.2605 -0.1511 -0.9536
vn 0.0116 -0.0815 -0.9966
vn -0.3158 0.0490 -0.9476
vn 0.1145 -0.1092 -0.9874
vn 0.3013 -0.2126 -0.9295
vn 0.5968 -0.3342 -0.7295
vn 0.3611 -0.2122 -0.9081
vn 0.3401 0.6503 -0.6793
vn 0.5990 0.5555 -0.5767
vn 0.6172 -0.3187 -0.7194
vn 0.8356 -0.4119 -0.3634
vn 0.6895 0.5712 -0.4452
vn 0.4887 0.0160 -0.8723
vn 0.6963 0.5960 -0.4000
vn 0.6855 -0.0183 -0.7279
vn 0.7473 0.6031 -0.2789
vn 0.1787 0.0904 -0.9797
vn 0.6214 0.5681 -0.5396
vn 0.0474 0.1769 -0.9831
vn 0.4541 0.0672 -0.8884
vn 0.5129 -0.0842 -0.8543
vn 0.8237 -0.2448 -0.5114
vn 0.5676 -0.1435 -0.8107
vn 0.9148 -0.2232 -0.3367
vn 0.9092 -0.3317 -0.2519
vn 0.8993 -0.4200 -0.1215
vn 0.9594 -0.2699 -0.0813
vn 0.9489 -0.3153 -0.0136
vn 0.9404 -0.3362 0.0518
vn 0.9365 -0.3480 0.0430
vn 0.8527 -0.5155 0.0845
vn 0.7865 -0.5474 0.2859
vn 0.8681 -0.4960 0.0175
vn 0.9134 -0.2975 0.2777
vn 0.8079 -0.5803 -0.1025
vn 0.5170 -0.3905 0.7617
vn 0.7375 -0.1822 0.6503
vn 0.3736 0.0613 0.9255
vn 0.7597 -0.1644 0.6291
vn 0.3835 0.0686 0.9210
vn -0.1313 0.2599 0.9567
vn 0.4322 0.2663 0.8616
vn -0.1903 0.1989 0.9614
vn -0.6472 0.2554 0.7183
vn -0.2247 0.3134 0.9227
vn 0.1292 -0.2837 0.9502
vn -0.3679 -0.5436 0.7544
vn -0.1205 0.4578 0.8808
vn 0.4438 -0.2763 0.8525
vn 0.0546 -0.3370 0.9399
vn -0.6364 0.1008 0.7648
vn -0.2764 -0.5342 0.7989
vn -0.9008 -0.2633 0.3452
vn -0.4739 0.0297 0.8801
vn -0.7713 -0.3841 0.5075
vn -0.7835 -0.6159 -0.0830
vn -0.6132 -0.4949 0.6157
vn -0.6852 -0.7224 0.0930
vn -0.4875 -0.6680 -0.5623
vn -0.4389 -0.6044 -0.6649
vn 0.0200 -0.2950 -0.9553
vn -0.5332 -0.6088 -0.5874
vn -0.8350 -0.5155 -0.1922
vn 0.4344 0.1093 -0.8940
vn -0.0915 -0.3704 -0.9244
vn 0.3500 0.0967 -0.9317
vn 0.5387 -0.0892 -0.8377
vn 0.6709 -0.0113 -0.7415
vn 0.6885 0.4966 -0.5286
vn 0.1553 -0.3815 -0.9112
vn 0.7499 -0.6162 0.2406
vn 0.8758 0.3308 -0.3514
vn 0.5128 -0.8584 -0.0121
vn 0.7849 -0.5259 0.3277
vn 0.8194 0.5583 0.1299
vn 0.7003 0.7135 -0.0216
vn 0.4672 0.7169 0.5175
vn 0.4251 0.6216 0.6579
vn -0.0219 0.4093 0.9122
vn 0.1137 0.3943 0.9119
vn -0.3402 -0.0964 0.9354
vn 0.8477 0.0637 0.5266
vn 0.3328 -0.1746 0.9267
vn 0.6595 -0.4125 0.6284
vn 0.7962 -0.5281 0.2952
vn 0.6833 -0.4665 0.5616
vn -0.0187 -0.9972 0.0724
vn 0.5320 -0.8415 -0.0939
vn 0.0020 -0.9861 0.1659
vn -0.5198 -0.8131 0.2620
vn -0.3126 -0.8646 0.3933
vn -0.1206 0.1942 0.9735
vn -0.5478 0.3184 0.7737
vn 0.1985 -0.0706 0.9776
vn -0.4678 0.2919 0.8343
vn -0.2201 -0.2933 0.9303
vn -0.9069 0.3206 0.2734
vn -0.8116 0.3078 0.4965
vn -0.9430 0.2605 0.2072
vn -0.9591 0.2830 -0.0087
vn -0.9743 0.2223 -0.0369
vn -0.9634 0.1937 0.1853
vn -0.9593 0.1392 -0.2457
vn -0.9838 0.1762 -0.0341
vn -0.9907 -0.1285 0.0448
vn -0.9755 -0.1035 -0.1941
vn -0.9159 -0.1682 -0.3646
vn -0.9398 -0.3282 -0.0957
vn -0.8572 -0.3861 -0.3408
vn -0.8299 -0.3751 -0.4129
vn -0.8328 -0.2801 -0.4774
vn -0.9631 -0.2659 0.0412
vn -0.5165 -0.8492 -0.1098
vn -0.9667 -0.1634 0.1971
vn -0.2302 -0.8805 -0.4145
vn -0.3945 -0.2521 -0.8836
vn -0.4369 -0.8867 -0.1513
vn -0.1146 -0.8746 -0.4712
vn 0.3937 -0.8126 -0.4298
vn 0.7583 -0.6509 -0.0368
vn 0.2953 -0.0083 -0.9554
vn -0.4301 -0.2712 -0.8611
vn 0.3246 0.0594 -0.9440
vn 0.8576 0.2875 -0.4264
vn 0.8505 0.4270 0.3072
vn 0.8361 0.3609 -0.4132
vn 0.8456 0.4608 0.2696
vn 0.7220 -0.5233 0.4525
vn 0.3404 0.3649 0.8666
vn 0.3801 0.3586 0.8526
vn -0.3453 0.0303 0.9380
vn -0.2031 -0.6909 0.6938
vn -0.8842 -0.2038 0.4202
vn -0.3872 0.0838 0.9182
vn 0.4334 -0.5327 0.7269
vn -0.8372 -0.2923 0.4622
vn -0.8630 -0.4217 -0.2783
vn -0.8729 -0.3383 -0.3515
vn -0.6932 -0.6885 0.2130
vn -0.1633 -0.6673 0.7267
vn 0.3586 -0.5661 0.7422
vn -0.4398 -0.8107 0.3865
vn 0.7015 -0.5915 0.3974
vn 0.6878 -0.6696 -0.2803
vn 0.3414 -0.6633 -0.6660
vn -0.8410 -0.4790 0.2517
vn -0.8847 0.1379 -0.4454
vn -0.9007 0.0964 -0.4235
vn -0.9518 0.1778 -0.2501
vn -0.8621 0.2040 -0.4638
vn -0.7978 0.1121 -0.5924
vn -0.8252 0.3118 -0.4710
vn -0.9432 0.2329 -0.2368
vn -0.9135 0.3547 -0.1992
vn -0.9160 0.3722 -0.1499
vn -0.9227 0.3842 0.0318
vn -0.8986 0.4089 0.1594
vn -0.4335 0.8910 -0.1350
vn -0.4169 0.9034 0.1002
vn -0.9284 0.2434 0.2808
vn -0.3574 0.8677 0.3456
vn -0.7578 0.1781 0.6277
vn -0.1683 0.8338 0.5257
vn -0.4172 0.8643 0.2810
vn 0.1461 0.7691 0.6221
vn -0.4792 0.0829 0.8738
vn -0.3699 0.4821 0.7942
vn -0.2378 0.8682 0.4355
vn 0.4386 0.6625 0.6072
vn -0.0707 -0.0570 0.9959
vn 0.2183 0.4595 0.8609
vn -0.0323 0.7982 0.6015
vn 0.6344 0.3443 0.6921
vn 0.3284 0.7347 0.5936
vn 0.5674 0.6049 0.5587
vn 0.0285 0.6946 0.7188
vn 0.5197 0.5844 0.6232
vn -0.1550 0.6010 0.7841
vn 0.4647 0.6247 0.6275
vn -0.3429 0.4673 0.8149
vn 0.1564 -0.0223 0.9874
vn 0.5328 -0.0216 0.8460
vn 0.0450 -0.1452 0.9884
vn -0.3034 -0.5075 0.8064
vn 0.9162 0.2908 0.2756
vn 0.3876 0.0823 0.9182
vn 0.7381 -0.3015 0.6036
vn 0.8233 -0.1798 0.5383
vn 0.8345 -0.4895 0.2527
vn 0.4888 -0.8561 0.1680
vn 0.7640 -0.0740 -0.6410
vn 0.1674 -0.5593 -0.8119
vn 0.9046 0.2237 0.3629
vn 0.9095 0.3250 0.2592
vn 0.9800 -0.1747 0.0950
vn 0.9262 0.1720 0.3354
vn 0.7413 0.6128 0.2736
vn 0.7968 0.5989 -0.0795
vn 0.9009 -0.4341 0.0021
vn 0.8221 0.5331 0.2000
vn 0.8606 0.4899 -0.1387
vn 0.6693 0.5975 -0.4417
vn 0.8245 -0.4178 0.3816
vn 0.8926 -0.4508 -0.0020
vn 0.9047 -0.4253 -0.0248
vn 0.8137 -0.4187 -0.4032
vn 0.8164 -0.3924 -0.4238
vn 0.8077 -0.4027 -0.4306
vn 0.5883 -0.2946 -0.7531
vn 0.5788 -0.2581 -0.7735
vn 0.4796 -0.2590 -0.8384
vn 0.2372 -0.0579 -0.9697
vn 0.1450 -0.0141 -0.9893
vn 0.0492 -0.0188 -0.9986
vn -0.1534 0.1856 -0.9706
vn -0.2505 0.2103 -0.9450
vn -0.3271 0.2319 -0.9161
vn -0.5007 0.3957 -0.7699
vn -0.5528 0.4263 -0.7161
vn -0.5551 0.4709 -0.6856
vn -0.6894 0.5469 -0.4749
vn -0.3978 0.1922 -0.8971
vn -0.3455 -0.0428 -0.9374
vn -0.4482 0.2237 -0.8655
vn -0.2189 -0.0285 -0.9753
vn 0.0105 -0.4613 -0.8872
vn -0.0704 -0.0292 -0.9971
vn 0.2802 -0.3275 -0.9023
vn 0.5640 -0.5841 -0.5837
vn 0.3911 -0.2904 -0.8733
vn 0.7224 -0.4721 -0.5052
vn 0.6542 -0.5201 -0.5492
vn 0.7512 -0.6540 -0.0897
vn 0.8124 -0.5819 -0.0379
vn 0.7160 -0.5813 0.3866
vn 0.8842 -0.4667 -0.0193
vn 0.8277 -0.4343 0.3553
vn 0.6659 -0.3562 0.6555
vn 0.8457 -0.3984 0.3552
vn 0.6490 -0.3226 0.6890
vn 0.3201 -0.1976 0.9266
vn 0.6176 -0.3339 0.7121
vn 0.8216 -0.3993 0.4069
vn 0.5884 -0.3075 0.7479
vn 0.3137 -0.2094 0.9261
vn 0.6771 0.5987 0.4279
vn 0.3094 -0.1939 0.9310
vn -0.0316 -0.0995 0.9945
vn 0.3563 -0.2394 0.9032
vn 0.0111 -0.0616 0.9980
vn -0.2943 0.0717 0.9530
vn -0.0018 -0.0762 0.9971
vn -0.3767 0.0559 0.9247
vn -0.3437 0.0490 0.9378
vn -0.6479 0.2098 0.7323
vn -0.8784 0.2976 0.3740
vn -0.7136 0.1683 0.6801
vn -0.9097 0.2447 0.3356
vn -0.8419 0.3186 0.4355
vn -0.9460 0.3230 -0.0291
vn -0.6240 0.1892 0.7582
vn -0.9618 0.2665 -0.0630
vn -0.9606 0.2633 -0.0893
vn -0.8832 0.2505 -0.3964
vn -0.8860 0.2467 -0.3925
vn -0.4521 0.8864 -0.0997
vn -0.3932 0.8635 -0.3159
vn -0.7083 0.1880 -0.6804
vn -0.2591 0.8535 -0.4521
vn -0.8398 0.3385 -0.4245
vn -0.2447 0.8372 -0.4891
vn -0.6578 0.2823 -0.6983
vn 0.0543 0.7574 -0.6507
vn 0.3975 0.5828 -0.7087
vn -0.3120 0.2034 -0.9281
vn -0.6415 0.2805 -0.7140
vn -0.3793 0.2533 -0.8899
vn -0.5256 0.1732 -0.8329
vn -0.0284 0.0889 -0.9956
vn -0.6243 0.0804 -0.7770
vn -0.7518 0.1824 -0.6337
vn -0.1118 -0.0092 -0.9937
vn -0.1678 -0.0826 -0.9824
vn 0.6071 -0.2399 -0.7576
vn 0.6882 -0.2509 -0.6808
vn -0.4054 0.8314 -0.3801
vn -0.0446 0.8207 -0.5697
vn -0.3716 0.9164 0.1485
vn -0.6665 0.1313 0.7339
vn -0.7392 0.1406 0.6587
vn -0.3837 -0.0623 0.9214
vn -0.0867 -0.3664 0.9264
vn -0.0001 -0.2469 0.9690
vn 0.1316 -0.5111 0.8494
vn 0.3043 -0.3892 0.8695
vn 0.4017 -0.6486 0.6465
vn 0.5257 -0.5015 0.6871
vn 0.6437 -0.6912 0.3286
vn 0.5805 -0.7848 0.2170
vn 0.6697 -0.7241 -0.1652
vn 0.3843 -0.8939 -0.2306
vn 0.1333 -0.9575 -0.2558
vn 0.2616 -0.7630 -0.5911
vn -0.0027 -0.8015 -0.5980
vn -0.1845 -0.4035 -0.8962
vn -0.7589 0.6407 -0.1165
vn -0.7550 0.6341 0.1670
vn -0.7354 0.6711 -0.0937
vn -0.7160 0.6347 -0.2907
vn 0.3303 -0.9309 0.1561
vn 0.3279 -0.7193 0.6125
vn 0.0152 -0.5184 0.8550
vn -0.2034 -0.3220 0.9246
vn -0.2661 -0.1882 0.9454
vn -0.4805 -0.0663 0.8745
vn -0.4249 -0.1567 0.8916
vn 0.1450 -0.6344 0.7593
vn 0.8680 -0.4366 -0.2364
vn -0.4488 -0.7830 0.4307
vn 0.1339 -0.9793 0.1520
vn -0.2619 -0.8326 0.4880
vn 0.1641 -0.9606 0.2242
vn 0.6801 0.0960 -0.7268
vn -0.2814 0.0527 -0.9581
vn 0.5914 -0.6772 -0.4377
vn -0.0610 -0.6937 -0.7177
vn -0.5152 -0.7765 -0.3627
vn -0.9551 -0.0613 -0.2900
vn -0.4912 -0.8333 0.2536
vn -0.7452 -0.0840 0.6615
vn 0.1119 -0.7812 0.6142
vn 0.2250 -0.0047 0.9744
vn 0.6617 -0.7005 0.2673
vn 0.9635 0.0569 0.2617
vn 0.2729 -0.2248 0.9354
vn 0.1469 -0.8166 0.5582
vn 0.6394 -0.7413 0.2040
vn 0.4789 -0.6142 -0.6272
vn -0.4379 -0.8467 0.3024
vn -0.5563 -0.7679 -0.3175
vn -0.2978 -0.5040 -0.8107
vn 0.6620 0.5880 0.4648
vn -0.3946 -0.6930 0.6034
vt 0.131454 0.710364
vt 0.111711 0.679236
vt 0.129963 0.670661
vt 0.195841 0.959749
vt 0.221014 0.985510
vt 0.182249 0.982273
vt 0.012501 0.678780
vt 0.009124 0.682540
vt 0.007144 0.680939
vt 0.010012 0.674677
vt 0.003680 0.679885
vt 0.005013 0.685140
vt 0.104223 0.214785
vt 0.113913 0.213465
vt 0.112030 0.223635
vt 0.118112 0.217396
vt 0.120489 0.214222
vt 0.123124 0.208052
vt 0.117500 0.202683
vt 0.109464 0.208085
vt 0.115855 0.218058
vt 0.094215 0.209147
vt 0.099891 0.222550
vt 0.091081 0.223235
vt 0.093544 0.237200
vt 0.102751 0.237269
vt 0.117485 0.227366
vt 0.119704 0.223789
vt 0.121947 0.227076
vt 0.120535 0.222326
vt 0.123633 0.223406
vt 0.125610 0.226958
vt 0.124696 0.229294
vt 0.121632 0.232564
vt 0.123921 0.230980
vt 0.123934 0.229494
vt 0.111505 0.230538
vt 0.117707 0.223667
vt 0.115947 0.221914
vt 0.347465 0.142312
vt 0.347967 0.148824
vt 0.343736 0.148401
vt 0.353485 0.150242
vt 0.351005 0.146208
vt 0.347418 0.156205
vt 0.350717 0.153149
vt 0.124961 0.294168
vt 0.136853 0.277809
vt 0.147738 0.299271
vt 0.123114 0.305174
vt 0.144588 0.312987
vt 0.144591 0.275500
vt 0.011243 0.688816
vt 0.013338 0.683313
vt 0.579362 0.074680
vt 0.574740 0.084411
vt 0.573559 0.075952
vt 0.568254 0.077245
vt 0.571278 0.087391
vt 0.575764 0.093042
vt 0.579611 0.086574
vt 0.220112 0.206712
vt 0.207576 0.229033
vt 0.205900 0.206656
vt 0.196039 0.235974
vt 0.180957 0.211429
vt 0.215440 0.261689
vt 0.223860 0.258275
vt 0.224533 0.230834
vt 0.269693 0.877405
vt 0.252553 0.890073
vt 0.256335 0.865976
vt 0.058870 0.739131
vt 0.032271 0.744786
vt 0.046174 0.718762
vt 0.786942 0.588458
vt 0.794037 0.593945
vt 0.786771 0.594065
vt 0.451041 0.652722
vt 0.456605 0.646801
vt 0.455756 0.652746
vt 0.787505 0.599980
vt 0.796804 0.599193
vt 0.561829 0.090231
vt 0.560540 0.098596
vt 0.556422 0.092781
vt 0.787077 0.582972
vt 0.795072 0.579502
vt 0.796244 0.584683
vt 0.443347 0.644922
vt 0.445749 0.652184
vt 0.441232 0.649934
vt 0.307018 0.895332
vt 0.312946 0.889181
vt 0.312470 0.894558
vt 0.321853 0.893631
vt 0.320272 0.886834
vt 0.317747 0.880543
vt 0.308662 0.887114
vt 0.330620 0.574554
vt 0.338147 0.577945
vt 0.332191 0.580841
vt 0.354480 0.417987
vt 0.350775 0.422728
vt 0.349742 0.417477
vt 0.354965 0.421290
vt 0.354239 0.429875
vt 0.118689 0.238925
vt 0.123040 0.238943
vt 0.124793 0.231406
vt 0.125144 0.229918
vt 0.128055 0.229159
vt 0.127101 0.224543
vt 0.125262 0.230906
vt 0.127195 0.232252
vt 0.132890 0.232686
vt 0.135047 0.229275
vt 0.130104 0.226341
vt 0.023716 0.689919
vt 0.012262 0.693836
vt 0.179871 0.941507
vt 0.173923 0.954104
vt 0.173444 0.941537
vt 0.179688 0.960811
vt 0.179978 0.954437
vt 0.022747 0.672513
vt 0.011346 0.669707
vt 0.021898 0.666900
vt 0.193547 0.958086
vt 0.185487 0.954780
vt 0.191567 0.952805
vt 0.186325 0.941380
vt 0.448058 0.641222
vt 0.447558 0.646866
vt 0.450891 0.646223
vt 0.359054 0.156447
vt 0.360182 0.150313
vt 0.359674 0.143885
vt 0.314268 0.898969
vt 0.310230 0.901671
vt 0.320107 0.908109
vt 0.321995 0.900540
vt 0.361320 0.419207
vt 0.337858 0.569053
vt 0.338996 0.573355
vt 0.359012 0.407324
vt 0.355528 0.414992
vt 0.351825 0.412798
vt 0.361290 0.413759
vt 0.197660 0.901066
vt 0.187522 0.919306
vt 0.191444 0.897368
vt 0.202329 0.190587
vt 0.211255 0.173532
vt 0.218558 0.182805
vt 0.126381 0.199278
vt 0.130189 0.206958
vt 0.110821 0.191195
vt 0.128945 0.191044
vt 0.142733 0.200249
vt 0.107116 0.294359
vt 0.091763 0.306116
vt 0.090342 0.296422
vt 0.093974 0.281765
vt 0.045813 0.683922
vt 0.063502 0.675914
vt 0.063454 0.683553
vt 0.044760 0.677928
vt 0.061616 0.669334
vt 0.082053 0.292435
vt 0.080811 0.723160
vt 0.061002 0.703926
vt 0.072732 0.697238
vt 0.089985 0.719513
vt 0.082472 0.692953
vt 0.099145 0.716414
vt 0.098641 0.748876
vt 0.106698 0.746200
vt 0.115269 0.743779
vt 0.114945 0.775564
vt 0.122546 0.773418
vt 0.124206 0.741790
vt 0.123074 0.805793
vt 0.130514 0.803775
vt 0.130535 0.771496
vt 0.139237 0.770240
vt 0.137723 0.801952
vt 0.137125 0.835401
vt 0.144459 0.834342
vt 0.145236 0.800457
vt 0.309380 0.973917
vt 0.340899 0.983412
vt 0.308767 0.982272
vt 0.148441 0.865600
vt 0.151999 0.833255
vt 0.155872 0.865082
vt 0.341371 0.975924
vt 0.371878 0.984070
vt 0.342123 0.968123
vt 0.372070 0.976791
vt 0.398285 0.982851
vt 0.398097 0.976514
vt 0.372452 0.969724
vt 0.373052 0.962671
vt 0.398195 0.970044
vt 0.422473 0.975850
vt 0.422601 0.970208
vt 0.398559 0.963610
vt 0.399123 0.957066
vt 0.422879 0.964214
vt 0.447891 0.970727
vt 0.448422 0.965318
vt 0.423280 0.958604
vt 0.423786 0.952698
vt 0.449441 0.959968
vt 0.475140 0.967484
vt 0.477135 0.961627
vt 0.449961 0.954917
vt 0.473901 0.972709
vt 0.156433 0.267927
vt 0.166273 0.292525
vt 0.150761 0.272027
vt 0.158353 0.296040
vt 0.139685 0.255994
vt 0.134757 0.258882
vt 0.131738 0.244820
vt 0.127077 0.246833
vt 0.128303 0.261352
vt 0.118978 0.263212
vt 0.121480 0.248093
vt 0.114644 0.248901
vt 0.105433 0.249575
vt 0.112449 0.238569
vt 0.117787 0.232423
vt 0.095216 0.265694
vt 0.107565 0.264384
vt 0.095008 0.250553
vt 0.108294 0.280406
vt 0.083998 0.268101
vt 0.083966 0.252302
vt 0.073301 0.253936
vt 0.084042 0.237851
vt 0.074644 0.237633
vt 0.165081 0.185923
vt 0.146769 0.174809
vt 0.165637 0.175067
vt 0.077176 0.223883
vt 0.146472 0.184123
vt 0.130772 0.176061
vt 0.144864 0.192691
vt 0.130364 0.183035
vt 0.114538 0.179312
vt 0.112612 0.184948
vt 0.740386 0.596721
vt 0.725396 0.602333
vt 0.724466 0.597306
vt 0.740195 0.591955
vt 0.723790 0.592175
vt 0.739782 0.587071
vt 0.759102 0.592313
vt 0.758833 0.586905
vt 0.758502 0.581600
vt 0.775505 0.587547
vt 0.775491 0.581805
vt 0.775585 0.575288
vt 0.787778 0.576945
vt 0.545590 0.048397
vt 0.553570 0.064908
vt 0.547917 0.066121
vt 0.739659 0.582274
vt 0.757841 0.575759
vt 0.551893 0.082454
vt 0.559076 0.063366
vt 0.558063 0.080119
vt 0.563271 0.078340
vt 0.567077 0.088614
vt 0.565746 0.097529
vt 0.570772 0.095695
vt 0.555403 0.046095
vt 0.564483 0.061925
vt 0.550356 0.047199
vt 0.552738 0.033397
vt 0.560123 0.044712
vt 0.548427 0.035146
vt 0.556622 0.031943
vt 0.564898 0.043372
vt 0.569612 0.060518
vt 0.574858 0.058897
vt 0.740522 0.601448
vt 0.759011 0.597834
vt 0.758598 0.603380
vt 0.775609 0.599678
vt 0.775591 0.593454
vt 0.775771 0.606155
vt 0.083814 0.223866
vt 0.078445 0.210663
vt 0.083707 0.210876
vt 0.089376 0.210114
vt 0.569590 0.041889
vt 0.561133 0.029907
vt 0.565471 0.027873
vt 0.543504 0.036084
vt 0.726389 0.576054
vt 0.739749 0.577122
vt 0.098385 0.205379
vt 0.102277 0.200650
vt 0.106921 0.195889
vt 0.724756 0.581756
vt 0.185792 0.190314
vt 0.162627 0.194986
vt 0.184590 0.177774
vt 0.184256 0.201954
vt 0.198651 0.177963
vt 0.173926 0.218864
vt 0.159562 0.203246
vt 0.155903 0.210694
vt 0.167499 0.226089
vt 0.152236 0.217792
vt 0.141386 0.207346
vt 0.138519 0.219919
vt 0.140008 0.213677
vt 0.131298 0.212401
vt 0.131631 0.217870
vt 0.131329 0.222563
vt 0.127297 0.217131
vt 0.127617 0.221282
vt 0.123993 0.220560
vt 0.120652 0.220458
vt 0.123203 0.217318
vt 0.366513 0.891149
vt 0.377696 0.885310
vt 0.377962 0.891650
vt 0.366576 0.897427
vt 0.377562 0.898242
vt 0.376726 0.904381
vt 0.352163 0.898110
vt 0.366382 0.903845
vt 0.402847 0.143925
vt 0.389597 0.137203
vt 0.402828 0.137454
vt 0.335071 0.900221
vt 0.352833 0.904880
vt 0.335904 0.908123
vt 0.389380 0.144161
vt 0.373121 0.135910
vt 0.389405 0.151261
vt 0.373051 0.143381
vt 0.357894 0.136354
vt 0.372723 0.150818
vt 0.403022 0.150865
vt 0.389520 0.158385
vt 0.372381 0.158056
vt 0.371981 0.165410
vt 0.357173 0.162539
vt 0.365751 0.878471
vt 0.351287 0.884748
vt 0.351074 0.877847
vt 0.403337 0.158369
vt 0.389744 0.165274
vt 0.333605 0.885254
vt 0.334411 0.892657
vt 0.332712 0.877755
vt 0.351638 0.891389
vt 0.376540 0.878408
vt 0.366192 0.884979
vt 0.413101 0.158580
vt 0.403884 0.165186
vt 0.412809 0.150046
vt 0.413009 0.143183
vt 0.119907 0.218753
vt 0.126004 0.212439
vt 0.144863 0.230250
vt 0.136833 0.225117
vt 0.148354 0.224610
vt 0.155910 0.238680
vt 0.141965 0.234916
vt 0.172343 0.253153
vt 0.161039 0.232960
vt 0.178808 0.247400
vt 0.199570 0.270502
vt 0.186779 0.241272
vt 0.207200 0.265833
vt 0.147816 0.943046
vt 0.144654 0.968648
vt 0.142524 0.943332
vt 0.138717 0.967945
vt 0.139263 0.917979
vt 0.136958 0.943512
vt 0.133297 0.918498
vt 0.131164 0.943690
vt 0.133059 0.966906
vt 0.125620 0.943917
vt 0.127186 0.919103
vt 0.127762 0.965568
vt 0.119821 0.944145
vt 0.121196 0.919820
vt 0.121264 0.964521
vt 0.114142 0.964181
vt 0.257458 0.229845
vt 0.243342 0.255060
vt 0.240116 0.230115
vt 0.232347 0.255803
vt 0.254637 0.207850
vt 0.237550 0.208469
vt 0.251628 0.185252
vt 0.238308 0.184646
vt 0.180951 0.919508
vt 0.172089 0.901513
vt 0.179924 0.899164
vt 0.175927 0.919722
vt 0.063535 0.689962
vt 0.045498 0.693080
vt 0.045558 0.688581
vt 0.023902 0.696028
vt 0.023749 0.684078
vt 0.023394 0.678186
vt 0.103851 0.326323
vt 0.091200 0.314058
vt 0.105867 0.314790
vt 0.119797 0.328604
vt 0.121464 0.316285
vt 0.106164 0.304446
vt 0.141181 0.322678
vt 0.448466 0.942885
vt 0.466804 0.933345
vt 0.469123 0.939731
vt 0.448673 0.948804
vt 0.473151 0.946492
vt 0.424384 0.946612
vt 0.401630 0.937295
vt 0.400642 0.943785
vt 0.375434 0.940948
vt 0.399798 0.950474
vt 0.374518 0.948219
vt 0.345335 0.945258
vt 0.373744 0.955579
vt 0.344155 0.952904
vt 0.313021 0.948011
vt 0.343062 0.960465
vt 0.311687 0.956454
vt 0.283061 0.952714
vt 0.310422 0.965096
vt 0.281516 0.962682
vt 0.254401 0.960930
vt 0.280107 0.972957
vt 0.252125 0.972361
vt 0.279179 0.983158
vt 0.224790 0.969852
vt 0.250569 0.984744
vt 0.134639 0.740788
vt 0.229494 0.957148
vt 0.217523 0.935579
vt 0.206714 0.945831
vt 0.235227 0.945154
vt 0.241356 0.934446
vt 0.257695 0.949844
vt 0.261179 0.939305
vt 0.265449 0.927809
vt 0.285006 0.942941
vt 0.314268 0.939778
vt 0.287665 0.933346
vt 0.290572 0.923152
vt 0.316679 0.931575
vt 0.319363 0.923366
vt 0.346568 0.937560
vt 0.347893 0.929763
vt 0.349477 0.921942
vt 0.376540 0.933656
vt 0.377821 0.926456
vt 0.103205 0.871618
vt 0.102450 0.898554
vt 0.095717 0.873189
vt 0.425100 0.940710
vt 0.402825 0.930803
vt 0.425960 0.934865
vt 0.109244 0.896986
vt 0.108888 0.921993
vt 0.448249 0.937325
vt 0.115171 0.920741
vt 0.113822 0.944557
vt 0.105801 0.841005
vt 0.097698 0.842661
vt 0.111047 0.870098
vt 0.118594 0.868797
vt 0.116150 0.895704
vt 0.122923 0.894713
vt 0.113885 0.839536
vt 0.126186 0.867807
vt 0.133566 0.867030
vt 0.129599 0.893984
vt 0.136309 0.893378
vt 0.129616 0.836614
vt 0.140846 0.866317
vt 0.121821 0.838097
vt 0.143146 0.892830
vt 0.145304 0.917522
vt 0.150081 0.892409
vt 0.156720 0.892188
vt 0.151279 0.917210
vt 0.153091 0.942739
vt 0.157143 0.917067
vt 0.447271 0.980757
vt 0.422531 0.981360
vt 0.156539 0.968715
vt 0.158294 0.942447
vt 0.162064 0.968217
vt 0.447634 0.975765
vt 0.472211 0.983521
vt 0.473015 0.977959
vt 0.166814 0.258591
vt 0.179310 0.284532
vt 0.161672 0.263564
vt 0.172861 0.288688
vt 0.147909 0.248491
vt 0.144076 0.252483
vt 0.138716 0.238667
vt 0.151436 0.243822
vt 0.135500 0.242151
vt 0.130435 0.235984
vt 0.127088 0.237978
vt 0.125168 0.233535
vt 0.186045 0.279874
vt 0.150667 0.968921
vt 0.192530 0.275310
vt 0.115470 0.807661
vt 0.107586 0.777782
vt 0.107745 0.809367
vt 0.091364 0.783225
vt 0.099417 0.811255
vt 0.081493 0.787289
vt 0.090368 0.813528
vt 0.070282 0.792693
vt 0.081028 0.816675
vt 0.089653 0.844327
vt 0.294832 0.913053
vt 0.322467 0.914896
vt 0.276521 0.902377
vt 0.300583 0.902995
vt 0.270296 0.915711
vt 0.254900 0.909909
vt 0.244986 0.906155
vt 0.248279 0.922939
vt 0.236735 0.918113
vt 0.227674 0.926879
vt 0.108450 0.713640
vt 0.091655 0.688957
vt 0.101080 0.684674
vt 0.118725 0.711318
vt 0.261914 0.894278
vt 0.284203 0.889070
vt 0.046519 0.756855
vt 0.071601 0.762461
vt 0.059282 0.772444
vt 0.081844 0.756142
vt 0.071146 0.728174
vt 0.090452 0.752093
vt 0.099822 0.780226
vt 0.083515 0.281502
vt 0.072632 0.271031
vt 0.123629 0.279873
vt 0.072440 0.282398
vt 0.043732 0.667373
vt 0.045135 0.672126
vt 0.192734 0.941417
vt 0.191847 0.919476
vt 0.373666 0.414933
vt 0.374671 0.406709
vt 0.393339 0.420612
vt 0.395260 0.413383
vt 0.298303 0.579522
vt 0.316018 0.568936
vt 0.317340 0.576464
vt 0.329968 0.568066
vt 0.299464 0.585757
vt 0.318582 0.584067
vt 0.389399 0.434931
vt 0.367615 0.437063
vt 0.370280 0.429539
vt 0.391450 0.427698
vt 0.372208 0.422323
vt 0.359279 0.424388
vt 0.407577 0.433322
vt 0.405024 0.441177
vt 0.387472 0.442204
vt 0.284050 0.589370
vt 0.280088 0.576803
vt 0.281807 0.583598
vt 0.410975 0.425801
vt 0.413485 0.418678
vt 0.454250 0.639820
vt 0.185146 0.961670
vt 0.796178 0.589807
vt 0.788686 0.605801
vt 0.296871 0.572971
vt 0.116182 0.173532
vt 0.172404 0.959557
vt 0.480503 0.954316
vt 0.723156 0.586616
vt 0.414189 0.165145
vt 0.412980 0.136307
vt 0.255286 0.255703
vt 0.063142 0.696982
vt 0.088574 0.322091
vt 0.138950 0.331258
vt 0.073406 0.292500
vt 0.062478 0.662377
vt 0.403989 0.447174
vt 0.796844 0.606061
s 1
g off
g 01.002_Material.001
usemtl Material.001
f 32/1/1 30/2/2 1/3/3
f 34/4/4 32/5/1 1/6/3
f 36/7/5 9/8/6 2/9/7
f 37/10/8 2/9/7 38/11/9
f 39/12/10 2/9/7 9/8/6
f 41/13/11 3/14/12 6/15/13
f 43/16/14 3/14/12 44/17/15
f 46/18/16 44/17/15 3/14/12
f 47/19/17 3/14/12 40/20/18
f 42/21/19 6/15/13 3/14/12
f 512/22/20 41/13/11 4/23/21
f 52/24/22 512/22/20 4/23/21
f 53/25/23 4/23/21 54/26/24
f 6/15/13 4/23/21 41/13/11
f 58/27/25 56/28/26 5/29/27
f 60/30/28 5/29/27 56/28/26
f 59/31/29 61/32/30 5/29/27
f 64/33/31 5/29/27 61/32/30
f 17/34/32 58/27/25 5/29/27
f 66/35/33 5/29/27 63/36/34
f 58/27/25 55/37/35 6/15/13
f 57/38/36 6/15/13 48/39/37
f 68/40/38 7/41/39 69/42/40
f 22/43/41 7/41/39 67/44/42
f 71/45/43 7/41/39 70/46/44
f 74/47/45 72/48/46 8/49/47
f 75/50/48 8/49/47 76/51/49
f 78/52/50 8/49/47 72/48/46
f 79/53/51 9/8/6 35/54/52
f 81/55/53 10/56/54 82/57/55
f 83/58/56 10/56/54 84/59/57
f 85/60/58 10/56/54 80/61/59
f 87/62/60 11/63/61 88/64/62
f 91/65/63 89/66/64 11/63/61
f 92/67/65 11/63/61 93/68/66
f 86/69/67 93/68/66 11/63/61
f 97/70/68 95/71/69 12/72/70
f 98/73/71 12/74/70 99/75/72
f 101/76/73 13/77/74 102/78/75
f 100/79/76 103/80/77 13/81/74
f 105/82/78 13/77/74 103/83/77
f 107/84/79 14/85/80 108/86/81
f 109/87/82 14/88/80 110/89/83
f 106/90/84 110/91/83 14/92/80
f 69/93/40 15/94/85 111/95/86
f 112/96/87 15/94/85 113/97/88
f 114/98/89 15/94/85 71/99/43
f 116/100/90 16/101/91 117/102/92
f 118/103/93 16/104/91 115/105/94
f 24/106/95 117/107/92 16/104/91
f 120/108/96 17/34/32 121/109/97
f 123/110/98 17/34/32 66/35/33
f 124/111/99 61/32/30 18/112/100
f 62/113/101 18/112/100 61/32/30
f 126/114/102 18/112/100 127/115/103
f 129/116/104 127/115/103 18/112/100
f 130/117/105 18/112/100 125/118/106
f 132/119/107 19/120/108 79/53/51
f 134/121/109 19/122/108 131/123/110
f 39/124/10 19/122/108 133/125/111
f 135/126/112 20/127/113 136/128/114
f 37/129/8 137/130/115 20/131/113
f 138/132/116 20/131/113 137/130/115
f 139/133/117 21/134/118 106/90/84
f 100/79/76 21/134/118 104/135/119
f 140/136/120 22/43/41 141/137/121
f 142/138/122 22/43/41 67/44/42
f 112/96/87 23/139/123 111/95/86
f 68/140/38 111/95/86 23/139/123
f 144/141/124 23/139/123 143/142/125
f 145/143/126 24/106/95 118/103/93
f 116/100/90 25/144/127 115/145/94
f 146/146/128 26/147/129 25/148/127
f 118/103/93 25/148/127 26/147/129
f 145/143/126 26/147/129 147/149/130
f 150/150/131 510/151/132 27/152/133
f 152/153/134 150/154/131 27/155/133
f 88/64/62 27/155/133 87/62/60
f 46/18/16 28/156/135 153/157/136
f 47/19/17 508/158/137 28/156/135
f 158/159/138 156/160/139 28/156/135
f 508/158/137 158/159/138 28/156/135
f 156/160/139 153/157/136 28/156/135
f 163/161/140 161/162/141 29/163/142
f 165/164/143 163/161/140 29/163/142
f 504/165/144 29/166/142 161/167/141
f 505/168/145 168/169/146 29/166/142
f 168/170/146 165/164/143 29/163/142
f 175/171/147 171/172/148 172/173/149
f 176/174/150 172/173/149 173/175/151
f 173/175/151 177/176/152 176/174/150
f 180/177/153 175/171/147 176/174/150
f 181/178/154 176/174/150 177/176/152
f 177/176/152 182/179/155 181/178/154
f 185/180/156 180/177/153 181/178/154
f 186/181/157 181/178/154 182/179/155
f 188/182/158 186/181/157 182/179/155
f 189/183/159 186/181/157 190/184/160
f 187/185/161 190/184/160 186/181/157
f 193/186/162 191/187/163 187/185/161
f 194/188/164 191/187/163 195/189/165
f 192/190/166 195/189/165 191/187/163
f 198/191/167 196/192/168 192/193/166
f 199/194/169 196/195/168 200/196/170
f 197/197/171 200/198/170 196/192/168
f 203/199/172 201/200/173 197/197/171
f 204/201/174 201/200/173 205/202/175
f 202/203/176 205/202/175 201/200/173
f 208/204/177 206/205/178 202/203/176
f 209/206/179 206/205/178 210/207/180
f 207/208/181 210/207/180 206/205/178
f 213/209/182 211/210/183 207/208/181
f 214/211/184 211/210/183 215/212/185
f 212/213/186 215/212/185 211/210/183
f 218/214/187 216/215/188 212/213/186
f 219/216/189 500/215/190 77/217/191
f 499/218/192 77/217/191 500/215/190
f 220/219/193 501/212/194 219/216/189
f 221/220/195 219/221/189 222/222/196
f 77/223/191 222/222/196 219/221/189
f 224/224/197 221/220/195 222/222/196
f 78/52/50 224/224/197 222/222/196
f 72/48/46 225/225/198 78/52/50
f 227/226/199 225/225/198 228/227/200
f 226/228/201 228/227/200 225/225/198
f 231/229/202 229/230/203 226/228/201
f 121/109/97 229/230/203 120/108/96
f 230/231/204 120/108/96 229/230/203
f 233/232/205 232/233/206 230/231/204
f 65/234/207 232/233/206 55/37/35
f 54/26/24 55/37/35 232/233/206
f 235/235/208 233/232/205 236/236/209
f 230/231/204 236/236/209 233/232/205
f 234/237/210 54/26/24 233/232/205
f 164/238/211 235/235/208 236/236/209
f 231/229/202 164/238/211 236/236/209
f 165/164/143 237/239/212 235/235/208
f 238/240/213 235/235/208 237/239/212
f 237/239/212 239/241/214 238/240/213
f 241/242/215 234/237/210 238/240/213
f 242/243/216 238/240/213 239/241/214
f 244/244/217 242/245/216 239/246/214
f 246/247/218 241/242/215 242/243/216
f 243/248/219 246/249/218 242/245/216
f 157/250/220 247/251/221 243/248/219
f 497/252/222 246/249/218 247/251/221
f 506/253/223 247/251/221 158/159/138
f 251/254/224 248/255/225 249/256/226
f 252/257/227 249/256/226 159/258/228
f 159/258/228 253/259/229 252/257/227
f 255/260/230 251/254/224 252/257/227
f 256/261/231 252/257/227 253/259/229
f 253/259/229 257/262/232 256/261/231
f 260/263/233 255/260/230 256/261/231
f 261/264/234 256/261/231 257/262/232
f 257/262/232 262/265/235 261/264/234
f 109/87/82 260/263/233 261/264/234
f 108/266/81 261/264/234 262/265/235
f 266/267/236 264/268/237 263/269/238
f 258/270/239 263/271/238 257/262/232
f 264/268/237 262/272/235 263/269/238
f 269/273/240 267/274/241 264/268/237
f 107/84/79 262/272/235 267/274/241
f 268/275/242 107/84/79 267/274/241
f 83/58/56 270/276/243 268/275/242
f 106/277/84 270/276/243 139/278/117
f 84/59/57 139/278/117 270/276/243
f 273/279/244 271/280/245 269/273/240
f 265/281/246 269/273/240 264/268/237
f 271/280/245 268/275/242 269/273/240
f 50/282/247 272/283/248 273/279/244
f 49/284/249 273/279/244 265/281/246
f 51/285/250 274/286/251 272/283/248
f 276/287/252 272/283/248 274/286/251
f 274/286/251 277/288/253 276/287/252
f 82/57/55 271/280/245 276/287/252
f 81/55/53 276/287/252 277/288/253
f 250/289/254 254/290/255 277/291/253
f 278/292/256 277/291/253 254/290/255
f 254/290/255 259/293/257 278/292/256
f 105/82/78 81/294/53 278/292/256
f 102/78/75 278/292/256 259/293/257
f 245/295/258 498/296/259 496/297/260
f 52/24/22 496/297/260 511/298/261
f 250/299/254 275/300/262 248/301/225
f 279/302/263 265/281/246 266/267/236
f 258/270/239 279/303/263 266/304/236
f 40/20/18 513/305/264 495/306/265
f 507/307/266 40/20/18 495/306/265
f 101/76/73 259/293/257 260/263/233
f 253/259/229 155/308/267 258/270/239
f 52/24/22 241/242/215 245/295/258
f 282/309/268 280/310/269 244/244/217
f 240/311/270 244/244/217 239/246/214
f 280/310/269 243/248/219 244/244/217
f 152/153/134 281/312/271 282/309/268
f 151/313/272 282/309/268 240/311/270
f 88/64/62 89/66/64 281/312/271
f 89/66/64 280/310/269 281/312/271
f 90/314/273 283/315/274 89/66/64
f 157/250/220 283/315/274 156/160/139
f 284/316/275 156/160/139 283/315/274
f 286/317/276 284/316/275 90/314/273
f 285/318/277 160/319/278 284/316/275
f 285/318/277 288/320/279 287/321/280
f 290/322/281 160/319/278 287/321/280
f 291/323/282 287/321/280 288/320/279
f 288/320/279 292/324/283 291/323/282
f 294/325/284 290/322/281 291/323/282
f 295/326/285 291/323/282 292/324/283
f 292/324/283 62/113/101 295/326/285
f 297/327/286 294/325/284 295/326/285
f 62/113/101 297/327/286 295/326/285
f 299/328/287 296/329/288 297/327/286
f 59/31/29 299/328/287 297/327/286
f 493/330/289 298/331/290 299/332/287
f 492/333/291 299/332/287 60/334/28
f 56/335/26 492/333/291 60/334/28
f 305/336/292 301/330/293 302/333/294
f 303/337/295 305/336/292 302/333/294
f 308/338/296 306/339/297 303/340/295
f 309/341/298 306/342/297 310/343/299
f 307/344/300 310/345/299 306/339/297
f 313/346/301 311/347/302 307/344/300
f 144/348/124 311/347/302 142/138/122
f 141/137/121 311/347/302 312/349/303
f 316/350/304 314/351/305 313/346/301
f 307/344/300 316/350/304 313/346/301
f 317/352/306 313/346/301 314/351/305
f 314/351/305 318/353/307 317/352/306
f 141/137/121 317/352/306 140/136/120
f 114/354/89 317/352/306 318/353/307
f 321/355/308 320/356/309 319/357/310
f 315/358/311 319/359/310 314/351/305
f 322/360/312 319/357/310 320/356/309
f 320/356/309 323/361/313 322/360/312
f 113/97/88 318/362/307 322/360/312
f 112/96/87 322/360/312 323/361/313
f 305/336/292 323/361/313 304/363/314
f 309/341/298 112/96/87 323/361/313
f 43/364/14 494/365/315 487/355/316
f 42/366/19 487/367/316 489/358/317
f 300/365/318 304/363/314 320/356/309
f 48/368/37 489/358/317 488/350/319
f 490/338/320 48/368/37 488/350/319
f 143/142/125 310/343/299 144/141/124
f 491/340/321 57/369/36 490/338/320
f 44/17/15 298/370/290 43/16/14
f 45/371/322 296/329/288 44/17/15
f 325/372/323 130/117/105 293/373/324
f 289/374/325 293/373/324 288/320/279
f 125/118/106 293/373/324 130/117/105
f 327/375/326 324/376/327 325/372/323
f 289/374/325 327/375/326 325/372/323
f 329/377/328 328/378/329 330/379/330
f 286/317/276 330/379/330 328/378/329
f 285/318/277 328/378/329 289/374/325
f 332/380/331 331/381/332 333/382/333
f 91/65/63 333/382/333 331/381/332
f 90/314/273 331/381/332 286/317/276
f 486/383/334 333/384/333 485/385/335
f 92/386/65 485/385/335 333/384/333
f 337/387/336 336/388/337 338/389/338
f 340/390/339 338/389/338 336/388/337
f 93/391/66 484/388/340 92/386/65
f 342/392/341 339/393/342 340/390/339
f 94/394/343 483/390/344 93/391/66
f 344/395/345 341/396/346 342/392/341
f 345/397/347 482/392/348 94/394/343
f 347/398/349 481/395/350 345/397/347
f 348/399/351 345/400/347 349/401/352
f 94/402/343 349/401/352 345/400/347
f 350/403/353 349/401/352 351/404/354
f 86/69/67 351/404/354 349/401/352
f 352/405/355 351/404/354 353/406/356
f 87/62/60 353/406/356 351/404/354
f 478/407/357 352/408/355 353/409/356
f 510/151/132 353/409/356 27/152/133
f 134/121/109 354/410/358 355/407/359
f 138/132/116 355/407/359 148/151/360
f 356/411/361 479/412/362 477/413/363
f 131/414/110 357/413/364 354/412/358
f 504/165/144 356/411/361 477/413/363
f 132/119/107 167/165/365 357/413/364
f 166/168/366 358/415/367 359/416/368
f 35/54/52 359/416/368 358/415/367
f 79/53/51 358/415/367 132/119/107
f 135/126/112 166/168/366 359/416/368
f 36/7/5 135/126/112 359/416/368
f 350/417/353 356/418/361 360/419/369
f 161/162/141 360/419/369 356/418/361
f 348/420/351 360/419/369 361/421/370
f 162/422/371 361/421/370 360/419/369
f 362/423/372 348/420/351 361/421/370
f 76/51/49 361/421/370 75/50/48
f 476/424/373 347/425/349 362/426/372
f 475/427/374 362/426/372 76/428/49
f 366/429/375 363/424/376 364/427/377
f 218/214/187 364/427/377 217/218/378
f 76/428/49 499/218/192 475/427/374
f 367/430/379 366/429/375 368/431/380
f 218/214/187 368/431/380 366/429/375
f 370/432/381 369/433/382 371/434/383
f 213/209/182 371/434/383 369/433/382
f 212/213/186 369/433/382 218/214/187
f 373/435/384 372/436/385 374/437/386
f 208/204/177 374/437/386 372/436/385
f 207/208/181 372/436/385 213/209/182
f 376/438/387 375/439/388 377/440/389
f 203/199/172 377/440/389 375/439/388
f 202/203/176 375/439/388 208/204/177
f 379/441/390 378/442/391 380/443/392
f 198/191/167 380/443/392 378/442/391
f 197/197/171 378/442/391 203/199/172
f 382/444/393 381/445/394 383/446/395
f 193/447/162 383/446/395 381/445/394
f 192/193/166 381/445/394 198/191/167
f 33/448/396 384/449/397 32/5/1
f 188/182/158 32/1/1 384/450/397
f 187/185/161 384/450/397 193/186/162
f 385/451/398 383/446/395 33/448/396
f 387/452/399 385/451/398 388/453/400
f 33/448/396 388/453/400 385/451/398
f 386/454/401 382/444/393 385/451/398
f 391/455/402 389/456/403 386/454/401
f 380/443/392 389/456/403 379/441/390
f 390/457/404 379/441/390 389/456/403
f 394/458/405 392/459/406 390/457/404
f 377/440/389 392/459/406 376/438/387
f 395/460/407 392/459/406 393/461/408
f 397/462/409 395/460/407 393/461/408
f 373/435/384 376/438/387 395/460/407
f 396/463/410 373/435/384 395/460/407
f 400/464/411 398/465/412 396/463/410
f 371/434/383 398/465/412 370/432/381
f 399/466/413 370/432/381 398/465/412
f 403/467/414 401/468/415 399/466/413
f 368/431/380 401/468/415 367/430/379
f 402/469/416 367/430/379 401/468/415
f 406/470/417 404/471/418 402/472/416
f 365/473/419 404/474/418 407/475/420
f 405/476/421 407/477/420 404/471/418
f 346/478/422 365/473/419 407/475/420
f 343/479/423 346/480/422 407/477/420
f 409/481/424 406/470/417 410/482/425
f 402/472/416 410/482/425 406/470/417
f 408/483/426 405/476/421 406/470/417
f 413/484/427 411/485/428 408/483/426
f 343/479/423 411/485/428 341/396/346
f 412/486/429 341/396/346 411/485/428
f 416/487/430 414/488/431 413/484/427
f 408/483/426 416/487/430 413/484/427
f 414/488/431 412/486/429 413/484/427
f 419/489/432 417/490/433 414/488/431
f 339/393/342 417/490/433 338/389/338
f 418/491/434 338/389/338 417/490/433
f 421/492/435 420/493/436 419/489/432
f 415/494/437 419/489/432 414/488/431
f 420/493/436 418/491/434 419/489/432
f 199/194/169 422/495/438 420/493/436
f 337/387/336 422/495/438 424/496/439
f 423/497/440 424/496/439 422/495/438
f 204/498/174 425/499/441 423/497/440
f 334/383/442 425/499/441 427/500/443
f 426/501/444 427/500/443 425/499/441
f 209/206/179 428/502/445 426/503/444
f 430/504/446 473/505/447 431/506/448
f 472/507/449 431/508/448 473/502/447
f 502/211/450 432/509/451 472/507/449
f 433/510/452 432/511/451 434/512/453
f 221/220/195 432/511/451 220/513/193
f 435/514/454 433/510/452 434/512/453
f 223/515/455 434/512/453 221/220/195
f 436/516/456 326/517/457 435/514/454
f 437/518/458 435/514/454 223/515/455
f 224/224/197 437/518/458 223/515/455
f 128/519/459 436/516/456 437/518/458
f 227/226/199 128/519/459 437/518/458
f 228/227/200 438/520/460 227/226/199
f 127/115/103 438/520/460 122/521/461
f 121/109/97 122/521/461 438/520/460
f 129/116/104 324/376/327 436/516/456
f 329/377/328 431/522/448 433/510/452
f 327/375/326 433/510/452 326/517/457
f 332/523/331 474/500/462 430/504/446
f 330/379/330 430/524/446 329/377/328
f 210/207/180 429/507/463 209/206/179
f 205/202/175 426/503/444 204/201/174
f 335/385/464 424/496/439 334/383/442
f 200/196/170 423/497/440 199/194/169
f 189/183/159 194/188/164 421/492/435
f 439/525/465 421/492/435 415/494/437
f 185/180/156 439/525/465 184/526/466
f 441/527/467 184/526/466 439/525/465
f 416/487/430 439/525/465 415/494/437
f 442/528/468 441/527/467 443/529/469
f 409/481/424 441/527/467 416/487/430
f 444/530/470 443/529/469 445/531/471
f 410/482/425 443/529/469 409/481/424
f 446/532/472 445/531/471 447/533/473
f 403/534/414 445/531/471 410/482/425
f 448/535/474 447/536/473 400/464/411
f 399/466/413 447/536/473 403/467/414
f 450/537/475 446/538/472 448/535/474
f 451/539/476 448/535/474 397/462/409
f 396/463/410 448/535/474 400/464/411
f 452/540/477 450/537/475 451/539/476
f 394/458/405 452/540/477 451/539/476
f 393/461/408 451/539/476 397/462/409
f 454/541/478 453/542/479 455/543/480
f 391/455/402 455/543/480 453/542/479
f 390/457/404 453/542/479 394/458/405
f 386/454/401 456/544/481 391/455/402
f 183/545/482 178/546/483 457/547/484
f 31/548/485 457/547/484 30/2/2
f 95/71/69 452/540/477 454/541/478
f 96/549/486 449/550/487 450/537/475
f 97/551/68 458/552/488 449/553/487
f 444/530/470 449/553/487 458/552/488
f 98/73/71 459/554/489 458/552/488
f 442/528/468 458/552/488 459/554/489
f 174/555/490 179/556/491 459/554/489
f 440/557/492 459/554/489 179/556/491
f 179/556/491 184/526/466 440/557/492
f 194/188/164 199/194/169 420/493/436
f 45/371/322 153/157/136 290/322/281
f 170/558/493 240/559/270 237/239/212
f 226/228/201 73/560/494 231/229/202
f 183/545/482 188/182/158 182/179/155
f 99/75/72 174/555/490 98/73/71
f 168/170/146 151/561/272 170/558/493
f 509/562/495 168/169/146 503/563/496
f 135/126/112 149/562/497 169/563/498
f 74/47/45 164/238/211 73/560/494
f 75/50/48 163/161/140 74/47/45
f 136/564/114 148/151/360 149/565/497
f 461/566/499 145/143/126 147/149/130
f 462/567/500 147/149/130 146/146/128
f 463/568/501 462/567/500 464/569/502
f 465/570/503 462/571/500 466/572/504
f 146/573/128 466/572/504 462/571/500
f 467/574/505 466/572/504 468/575/506
f 116/100/90 468/575/506 466/572/504
f 469/576/507 468/577/506 470/578/508
f 117/107/92 470/578/508 468/577/506
f 471/579/509 470/578/508 460/580/510
f 119/581/511 460/580/510 470/578/508
f 66/582/33 515/576/512 514/579/513
f 519/568/514 66/582/33 514/579/513
f 460/580/510 463/568/501 471/579/509
f 63/583/34 516/584/515 515/576/512
f 64/585/31 517/570/516 516/574/515
f 126/586/102 517/570/516 124/587/99
f 123/588/98 518/569/517 126/589/102
f 67/44/42 144/348/124 142/138/122
f 114/354/89 70/46/44 140/136/120
f 85/590/58 104/135/119 139/133/117
f 137/130/115 134/121/109 138/132/116
f 39/124/10 137/130/115 38/591/9
f 122/521/461 126/114/102 127/115/103
f 101/76/73 110/89/83 100/592/76
f 103/83/77 80/593/59 105/82/78
f 463/568/501 518/569/517 519/568/514
f 464/594/502 517/570/516 518/594/517
f 517/570/516 467/574/505 516/574/515
f 467/584/505 515/576/512 516/584/515
f 514/579/513 463/568/501 519/568/514
f 469/576/507 514/579/513 515/576/512
f 503/563/496 149/562/497 509/562/495
f 486/383/334 427/500/443 474/500/462
f 429/507/463 502/211/450 472/507/449
f 473/502/447 429/507/463 472/507/449
f 427/500/443 473/505/447 474/500/462
f 499/218/192 364/427/377 475/427/374
f 475/427/374 363/424/376 476/424/373
f 476/424/373 346/478/422 480/478/518
f 357/413/364 504/165/144 477/413/363
f 354/412/358 477/413/363 479/412/362
f 148/151/360 478/407/357 510/151/132
f 355/407/359 479/410/362 478/407/357
f 480/480/518 344/395/345 481/395/350
f 481/395/350 342/392/341 482/392/348
f 482/392/348 340/390/339 483/390/344
f 483/390/344 336/388/337 484/388/340
f 484/388/340 335/385/464 485/385/335
f 335/385/464 486/383/334 485/385/335
f 308/338/296 491/340/321 490/338/320
f 488/350/319 308/338/296 490/338/320
f 489/358/317 316/350/304 488/350/319
f 321/367/308 489/358/317 487/367/316
f 300/365/318 487/355/316 494/365/315
f 303/337/295 492/333/291 491/337/321
f 492/333/291 301/330/293 493/330/289
f 301/330/293 494/365/315 493/330/289
f 279/306/263 507/307/266 495/306/265
f 513/305/264 279/306/263 495/306/265
f 275/297/262 511/298/261 496/297/260
f 248/296/225 496/297/260 498/296/259
f 506/253/223 249/252/226 497/252/222
f 497/252/222 248/595/225 498/595/259
f 214/211/184 501/212/194 502/211/450
f 216/215/188 499/218/192 500/215/190
f 215/212/185 500/215/190 501/212/194
f 166/168/366 503/563/496 505/168/145
f 504/165/144 166/168/366 505/168/145
f 508/158/137 159/253/228 506/253/223
f 155/307/267 508/158/137 507/307/266
f 149/565/497 510/151/132 509/565/495
f 51/298/250 512/22/20 511/298/261
f 512/22/20 49/305/249 513/305/264
f 32/1/1 31/548/485 30/2/2
f 34/4/4 33/448/396 32/5/1
f 36/7/5 35/54/52 9/8/6
f 37/10/8 36/7/5 2/9/7
f 39/12/10 38/11/9 2/9/7
f 41/13/11 40/20/18 3/14/12
f 43/16/14 42/21/19 3/14/12
f 46/18/16 45/371/322 44/17/15
f 47/19/17 46/18/16 3/14/12
f 42/21/19 48/39/37 6/15/13
f 512/22/20 513/305/264 41/13/11
f 52/24/22 511/298/261 512/22/20
f 53/25/23 52/24/22 4/23/21
f 6/15/13 55/37/35 4/23/21
f 58/27/25 57/38/36 56/28/26
f 60/30/28 59/31/29 5/29/27
f 59/31/29 62/113/101 61/32/30
f 64/33/31 63/36/34 5/29/27
f 17/34/32 65/234/207 58/27/25
f 66/35/33 17/34/32 5/29/27
f 58/27/25 65/234/207 55/37/35
f 57/38/36 58/27/25 6/15/13
f 68/40/38 67/44/42 7/41/39
f 22/43/41 70/46/44 7/41/39
f 71/45/43 69/42/40 7/41/39
f 74/47/45 73/560/494 72/48/46
f 75/50/48 74/47/45 8/49/47
f 78/52/50 77/223/191 8/49/47
f 79/53/51 39/12/10 9/8/6
f 81/55/53 80/61/59 10/56/54
f 83/58/56 82/57/55 10/56/54
f 85/60/58 84/59/57 10/56/54
f 87/62/60 86/69/67 11/63/61
f 91/65/63 90/314/273 89/66/64
f 92/67/65 91/65/63 11/63/61
f 86/69/67 94/402/343 93/68/66
f 97/70/68 96/549/486 95/71/69
f 98/73/71 97/551/68 12/74/70
f 101/76/73 100/592/76 13/77/74
f 100/79/76 104/135/119 103/80/77
f 105/82/78 102/78/75 13/77/74
f 107/84/79 106/277/84 14/85/80
f 109/87/82 108/266/81 14/88/80
f 106/90/84 21/134/118 110/91/83
f 69/93/40 71/99/43 15/94/85
f 112/96/87 111/95/86 15/94/85
f 114/98/89 113/97/88 15/94/85
f 116/100/90 115/145/94 16/101/91
f 118/103/93 24/106/95 16/104/91
f 24/106/95 119/581/511 117/107/92
f 120/108/96 65/234/207 17/34/32
f 123/110/98 122/521/461 17/34/32
f 124/111/99 64/33/31 61/32/30
f 62/113/101 125/118/106 18/112/100
f 126/114/102 124/111/99 18/112/100
f 129/116/104 128/519/459 127/115/103
f 130/117/105 129/116/104 18/112/100
f 132/119/107 131/414/110 19/120/108
f 134/121/109 133/125/111 19/122/108
f 39/124/10 79/596/51 19/122/108
f 135/126/112 37/10/8 20/127/113
f 37/129/8 38/591/9 137/130/115
f 138/132/116 136/564/114 20/131/113
f 139/133/117 104/135/119 21/134/118
f 100/79/76 110/91/83 21/134/118
f 140/136/120 70/46/44 22/43/41
f 142/138/122 141/137/121 22/43/41
f 112/96/87 143/142/125 23/139/123
f 68/140/38 69/93/40 111/95/86
f 144/141/124 68/140/38 23/139/123
f 145/143/126 119/581/511 24/106/95
f 116/100/90 146/573/128 25/144/127
f 146/146/128 147/149/130 26/147/129
f 118/103/93 115/105/94 25/148/127
f 145/143/126 118/103/93 26/147/129
f 150/150/131 509/565/495 510/151/132
f 152/153/134 151/313/272 150/154/131
f 88/64/62 152/153/134 27/155/133
f 46/18/16 47/19/17 28/156/135
f 47/19/17 507/307/266 508/158/137
f 158/159/138 157/250/220 156/160/139
f 508/158/137 506/253/223 158/159/138
f 156/160/139 160/319/278 153/157/136
f 163/161/140 162/422/371 161/162/141
f 165/164/143 164/238/211 163/161/140
f 504/165/144 505/168/145 29/166/142
f 505/168/145 503/563/496 168/169/146
f 168/170/146 170/558/493 165/164/143
f 175/171/147 174/555/490 171/172/148
f 176/174/150 175/171/147 172/173/149
f 173/175/151 178/546/483 177/176/152
f 180/177/153 179/556/491 175/171/147
f 181/178/154 180/177/153 176/174/150
f 177/176/152 183/545/482 182/179/155
f 185/180/156 184/526/466 180/177/153
f 186/181/157 185/180/156 181/178/154
f 188/182/158 187/185/161 186/181/157
f 189/183/159 185/180/156 186/181/157
f 187/185/161 191/187/163 190/184/160
f 193/186/162 192/190/166 191/187/163
f 194/188/164 190/184/160 191/187/163
f 192/190/166 196/195/168 195/189/165
f 198/191/167 197/197/171 196/192/168
f 199/194/169 195/189/165 196/195/168
f 197/197/171 201/200/173 200/198/170
f 203/199/172 202/203/176 201/200/173
f 204/201/174 200/198/170 201/200/173
f 202/203/176 206/205/178 205/202/175
f 208/204/177 207/208/181 206/205/178
f 209/206/179 205/202/175 206/205/178
f 207/208/181 211/210/183 210/207/180
f 213/209/182 212/213/186 211/210/183
f 214/211/184 210/207/180 211/210/183
f 212/213/186 216/215/188 215/212/185
f 218/214/187 217/218/378 216/215/188
f 219/216/189 501/212/194 500/215/190
f 499/218/192 8/597/47 77/217/191
f 220/219/193 502/211/450 501/212/194
f 221/220/195 220/513/193 219/221/189
f 77/223/191 78/52/50 222/222/196
f 224/224/197 223/515/455 221/220/195
f 78/52/50 225/225/198 224/224/197
f 72/48/46 226/228/201 225/225/198
f 227/226/199 224/224/197 225/225/198
f 226/228/201 229/230/203 228/227/200
f 231/229/202 230/231/204 229/230/203
f 121/109/97 228/227/200 229/230/203
f 230/231/204 232/233/206 120/108/96
f 233/232/205 54/26/24 232/233/206
f 65/234/207 120/108/96 232/233/206
f 54/26/24 4/23/21 55/37/35
f 235/235/208 234/237/210 233/232/205
f 230/231/204 231/229/202 236/236/209
f 234/237/210 53/25/23 54/26/24
f 164/238/211 165/164/143 235/235/208
f 231/229/202 73/560/494 164/238/211
f 165/164/143 170/558/493 237/239/212
f 238/240/213 234/237/210 235/235/208
f 237/239/212 240/559/270 239/241/214
f 241/242/215 53/25/23 234/237/210
f 242/243/216 241/242/215 238/240/213
f 244/244/217 243/248/219 242/245/216
f 246/247/218 245/295/258 241/242/215
f 243/248/219 247/251/221 246/249/218
f 157/250/220 158/159/138 247/251/221
f 497/252/222 498/595/259 246/249/218
f 506/253/223 497/252/222 247/251/221
f 251/254/224 250/289/254 248/255/225
f 252/257/227 251/254/224 249/256/226
f 159/258/228 154/598/519 253/259/229
f 255/260/230 254/290/255 251/254/224
f 256/261/231 255/260/230 252/257/227
f 253/259/229 258/270/239 257/262/232
f 260/263/233 259/293/257 255/260/230
f 261/264/234 260/263/233 256/261/231
f 257/262/232 263/271/238 262/265/235
f 109/87/82 101/76/73 260/263/233
f 108/266/81 109/87/82 261/264/234
f 266/267/236 265/281/246 264/268/237
f 258/270/239 266/304/236 263/271/238
f 264/268/237 267/274/241 262/272/235
f 269/273/240 268/275/242 267/274/241
f 107/84/79 108/86/81 262/272/235
f 268/275/242 270/276/243 107/84/79
f 83/58/56 84/59/57 270/276/243
f 106/277/84 107/84/79 270/276/243
f 84/59/57 85/60/58 139/278/117
f 273/279/244 272/283/248 271/280/245
f 265/281/246 273/279/244 269/273/240
f 271/280/245 83/58/56 268/275/242
f 50/282/247 51/285/250 272/283/248
f 49/284/249 50/282/247 273/279/244
f 51/285/250 275/300/262 274/286/251
f 276/287/252 271/280/245 272/283/248
f 274/286/251 250/299/254 277/288/253
f 82/57/55 83/58/56 271/280/245
f 81/55/53 82/57/55 276/287/252
f 250/289/254 251/254/224 254/290/255
f 278/292/256 81/294/53 277/291/253
f 254/290/255 255/260/230 259/293/257
f 105/82/78 80/593/59 81/294/53
f 102/78/75 105/82/78 278/292/256
f 245/295/258 246/247/218 498/296/259
f 52/24/22 245/295/258 496/297/260
f 250/299/254 274/286/251 275/300/262
f 279/302/263 49/284/249 265/281/246
f 258/270/239 155/308/267 279/303/263
f 40/20/18 41/13/11 513/305/264
f 507/307/266 47/19/17 40/20/18
f 101/76/73 102/78/75 259/293/257
f 253/259/229 154/598/519 155/308/267
f 52/24/22 53/25/23 241/242/215
f 282/309/268 281/312/271 280/310/269
f 240/311/270 282/309/268 244/244/217
f 280/310/269 157/250/220 243/248/219
f 152/153/134 88/64/62 281/312/271
f 151/313/272 152/153/134 282/309/268
f 88/64/62 11/63/61 89/66/64
f 89/66/64 283/315/274 280/310/269
f 90/314/273 284/316/275 283/315/274
f 157/250/220 280/310/269 283/315/274
f 284/316/275 160/319/278 156/160/139
f 286/317/276 285/318/277 284/316/275
f 285/318/277 287/321/280 160/319/278
f 285/318/277 289/374/325 288/320/279
f 290/322/281 153/157/136 160/319/278
f 291/323/282 290/322/281 287/321/280
f 288/320/279 293/373/324 292/324/283
f 294/325/284 45/371/322 290/322/281
f 295/326/285 294/325/284 291/323/282
f 292/324/283 125/118/106 62/113/101
f 297/327/286 296/329/288 294/325/284
f 62/113/101 59/31/29 297/327/286
f 299/328/287 298/370/290 296/329/288
f 59/31/29 60/30/28 299/328/287
f 493/330/289 494/365/315 298/331/290
f 492/333/291 493/330/289 299/332/287
f 56/335/26 491/337/321 492/333/291
f 305/336/292 304/363/314 301/330/293
f 303/337/295 306/342/297 305/336/292
f 308/338/296 307/344/300 306/339/297
f 309/341/298 305/336/292 306/342/297
f 307/344/300 311/347/302 310/345/299
f 313/346/301 312/349/303 311/347/302
f 144/348/124 310/345/299 311/347/302
f 141/137/121 142/138/122 311/347/302
f 316/350/304 315/358/311 314/351/305
f 307/344/300 308/338/296 316/350/304
f 317/352/306 312/349/303 313/346/301
f 314/351/305 319/359/310 318/353/307
f 141/137/121 312/349/303 317/352/306
f 114/354/89 140/136/120 317/352/306
f 321/355/308 300/365/318 320/356/309
f 315/358/311 321/367/308 319/359/310
f 322/360/312 318/362/307 319/357/310
f 320/356/309 304/363/314 323/361/313
f 113/97/88 114/98/89 318/362/307
f 112/96/87 113/97/88 322/360/312
f 305/336/292 309/341/298 323/361/313
f 309/341/298 143/142/125 112/96/87
f 43/364/14 298/331/290 494/365/315
f 42/366/19 43/599/14 487/367/316
f 300/365/318 301/330/293 304/363/314
f 48/368/37 42/366/19 489/358/317
f 490/338/320 57/369/36 48/368/37
f 143/142/125 309/341/298 310/343/299
f 491/340/321 56/600/26 57/369/36
f 44/17/15 296/329/288 298/370/290
f 45/371/322 294/325/284 296/329/288
f 325/372/323 324/376/327 130/117/105
f 289/374/325 325/372/323 293/373/324
f 125/118/106 292/324/283 293/373/324
f 327/375/326 326/517/457 324/376/327
f 289/374/325 328/378/329 327/375/326
f 329/377/328 327/375/326 328/378/329
f 286/317/276 331/381/332 330/379/330
f 285/318/277 286/317/276 328/378/329
f 332/380/331 330/379/330 331/381/332
f 91/65/63 92/67/65 333/382/333
f 90/314/273 91/65/63 331/381/332
f 486/383/334 332/523/331 333/384/333
f 92/386/65 484/388/340 485/385/335
f 337/387/336 335/385/464 336/388/337
f 340/390/339 339/393/342 338/389/338
f 93/391/66 483/390/344 484/388/340
f 342/392/341 341/396/346 339/393/342
f 94/394/343 482/392/348 483/390/344
f 344/395/345 343/479/423 341/396/346
f 345/397/347 481/395/350 482/392/348
f 347/398/349 480/480/518 481/395/350
f 348/399/351 347/601/349 345/400/347
f 94/402/343 86/69/67 349/401/352
f 350/403/353 348/399/351 349/401/352
f 86/69/67 87/62/60 351/404/354
f 352/405/355 350/403/353 351/404/354
f 87/62/60 27/155/133 353/406/356
f 478/407/357 479/410/362 352/408/355
f 510/151/132 478/407/357 353/409/356
f 134/121/109 131/123/110 354/410/358
f 138/132/116 134/121/109 355/407/359
f 356/411/361 352/602/355 479/412/362
f 131/414/110 132/119/107 357/413/364
f 504/165/144 161/167/141 356/411/361
f 132/119/107 358/415/367 167/165/365
f 166/168/366 167/165/365 358/415/367
f 35/54/52 36/7/5 359/416/368
f 79/53/51 35/54/52 358/415/367
f 135/126/112 169/563/498 166/168/366
f 36/7/5 37/10/8 135/126/112
f 350/417/353 352/603/355 356/418/361
f 161/162/141 162/422/371 360/419/369
f 348/420/351 350/417/353 360/419/369
f 162/422/371 75/50/48 361/421/370
f 362/423/372 347/604/349 348/420/351
f 76/51/49 362/423/372 361/421/370
f 476/424/373 480/478/518 347/425/349
f 475/427/374 476/424/373 362/426/372
f 366/429/375 365/473/419 363/424/376
f 218/214/187 366/429/375 364/427/377
f 76/428/49 8/597/47 499/218/192
f 367/430/379 365/473/419 366/429/375
f 218/214/187 369/433/382 368/431/380
f 370/432/381 368/431/380 369/433/382
f 213/209/182 372/436/385 371/434/383
f 212/213/186 213/209/182 369/433/382
f 373/435/384 371/434/383 372/436/385
f 208/204/177 375/439/388 374/437/386
f 207/208/181 208/204/177 372/436/385
f 376/438/387 374/437/386 375/439/388
f 203/199/172 378/442/391 377/440/389
f 202/203/176 203/199/172 375/439/388
f 379/441/390 377/440/389 378/442/391
f 198/191/167 381/445/394 380/443/392
f 197/197/171 198/191/167 378/442/391
f 382/444/393 380/443/392 381/445/394
f 193/447/162 384/449/397 383/446/395
f 192/193/166 193/447/162 381/445/394
f 33/448/396 383/446/395 384/449/397
f 188/182/158 31/548/485 32/1/1
f 187/185/161 188/182/158 384/450/397
f 385/451/398 382/444/393 383/446/395
f 387/452/399 386/454/401 385/451/398
f 33/448/396 34/4/4 388/453/400
f 386/454/401 389/456/403 382/444/393
f 391/455/402 390/457/404 389/456/403
f 380/443/392 382/444/393 389/456/403
f 390/457/404 392/459/406 379/441/390
f 394/458/405 393/461/408 392/459/406
f 377/440/389 379/441/390 392/459/406
f 395/460/407 376/438/387 392/459/406
f 397/462/409 396/463/410 395/460/407
f 373/435/384 374/437/386 376/438/387
f 396/463/410 398/465/412 373/435/384
f 400/464/411 399/466/413 398/465/412
f 371/434/383 373/435/384 398/465/412
f 399/466/413 401/468/415 370/432/381
f 403/467/414 402/469/416 401/468/415
f 368/431/380 370/432/381 401/468/415
f 402/469/416 404/474/418 367/430/379
f 406/470/417 405/476/421 404/471/418
f 365/473/419 367/430/379 404/474/418
f 405/476/421 343/479/423 407/477/420
f 346/478/422 363/424/376 365/473/419
f 343/479/423 344/395/345 346/480/422
f 409/481/424 408/483/426 406/470/417
f 402/472/416 403/534/414 410/482/425
f 408/483/426 411/485/428 405/476/421
f 413/484/427 412/486/429 411/485/428
f 343/479/423 405/476/421 411/485/428
f 412/486/429 339/393/342 341/396/346
f 416/487/430 415/494/437 414/488/431
f 408/483/426 409/481/424 416/487/430
f 414/488/431 417/490/433 412/486/429
f 419/489/432 418/491/434 417/490/433
f 339/393/342 412/486/429 417/490/433
f 418/491/434 337/387/336 338/389/338
f 421/492/435 194/188/164 420/493/436
f 415/494/437 421/492/435 419/489/432
f 420/493/436 422/495/438 418/491/434
f 199/194/169 423/497/440 422/495/438
f 337/387/336 418/491/434 422/495/438
f 423/497/440 425/499/441 424/496/439
f 204/498/174 426/501/444 425/499/441
f 334/383/442 424/496/439 425/499/441
f 426/501/444 428/505/445 427/500/443
f 209/206/179 429/507/463 428/502/445
f 430/504/446 474/500/462 473/505/447
f 472/507/449 432/509/451 431/508/448
f 502/211/450 220/219/193 432/509/451
f 433/510/452 431/522/448 432/511/451
f 221/220/195 434/512/453 432/511/451
f 435/514/454 326/517/457 433/510/452
f 223/515/455 435/514/454 434/512/453
f 436/516/456 324/376/327 326/517/457
f 437/518/458 436/516/456 435/514/454
f 224/224/197 227/226/199 437/518/458
f 128/519/459 129/116/104 436/516/456
f 227/226/199 438/520/460 128/519/459
f 228/227/200 121/109/97 438/520/460
f 127/115/103 128/519/459 438/520/460
f 121/109/97 17/34/32 122/521/461
f 129/116/104 130/117/105 324/376/327
f 329/377/328 430/524/446 431/522/448
f 327/375/326 329/377/328 433/510/452
f 332/523/331 486/383/334 474/500/462
f 330/379/330 332/380/331 430/524/446
f 210/207/180 214/211/184 429/507/463
f 205/202/175 209/206/179 426/503/444
f 335/385/464 337/387/336 424/496/439
f 200/196/170 204/498/174 423/497/440
f 189/183/159 190/184/160 194/188/164
f 439/525/465 189/183/159 421/492/435
f 185/180/156 189/183/159 439/525/465
f 441/527/467 440/557/492 184/526/466
f 416/487/430 441/527/467 439/525/465
f 442/528/468 440/557/492 441/527/467
f 409/481/424 443/529/469 441/527/467
f 444/530/470 442/528/468 443/529/469
f 410/482/425 445/531/471 443/529/469
f 446/532/472 444/530/470 445/531/471
f 403/534/414 447/533/473 445/531/471
f 448/535/474 446/538/472 447/536/473
f 399/466/413 400/464/411 447/536/473
f 450/537/475 449/550/487 446/538/472
f 451/539/476 450/537/475 448/535/474
f 396/463/410 397/462/409 448/535/474
f 452/540/477 96/549/486 450/537/475
f 394/458/405 453/542/479 452/540/477
f 393/461/408 394/458/405 451/539/476
f 454/541/478 452/540/477 453/542/479
f 391/455/402 456/544/481 455/543/480
f 390/457/404 391/455/402 453/542/479
f 386/454/401 387/452/399 456/544/481
f 183/545/482 177/176/152 178/546/483
f 31/548/485 183/545/482 457/547/484
f 95/71/69 96/549/486 452/540/477
f 96/549/486 97/70/68 449/550/487
f 97/551/68 98/73/71 458/552/488
f 444/530/470 446/532/472 449/553/487
f 98/73/71 174/555/490 459/554/489
f 442/528/468 444/530/470 458/552/488
f 174/555/490 175/171/147 179/556/491
f 440/557/492 442/528/468 459/554/489
f 179/556/491 180/177/153 184/526/466
f 194/188/164 195/189/165 199/194/169
f 45/371/322 46/18/16 153/157/136
f 170/558/493 151/561/272 240/559/270
f 226/228/201 72/48/46 73/560/494
f 183/545/482 31/548/485 188/182/158
f 99/75/72 171/172/148 174/555/490
f 168/170/146 150/605/131 151/561/272
f 509/562/495 150/606/131 168/169/146
f 135/126/112 136/128/114 149/562/497
f 74/47/45 163/161/140 164/238/211
f 75/50/48 162/422/371 163/161/140
f 136/564/114 138/132/116 148/151/360
f 461/566/499 460/580/510 145/143/126
f 462/567/500 461/566/499 147/149/130
f 463/568/501 461/566/499 462/567/500
f 465/570/503 464/594/502 462/571/500
f 146/573/128 116/100/90 466/572/504
f 467/574/505 465/570/503 466/572/504
f 116/100/90 117/102/92 468/575/506
f 469/576/507 467/584/505 468/577/506
f 117/107/92 119/581/511 470/578/508
f 471/579/509 469/576/507 470/578/508
f 119/581/511 145/143/126 460/580/510
f 66/582/33 63/583/34 515/576/512
f 519/568/514 123/588/98 66/582/33
f 460/580/510 461/566/499 463/568/501
f 63/583/34 64/607/31 516/584/515
f 64/585/31 124/587/99 517/570/516
f 126/586/102 518/594/517 517/570/516
f 123/588/98 519/568/514 518/569/517
f 67/44/42 68/40/38 144/348/124
f 114/354/89 71/45/43 70/46/44
f 85/590/58 103/80/77 104/135/119
f 137/130/115 133/125/111 134/121/109
f 39/124/10 133/125/111 137/130/115
f 122/521/461 123/110/98 126/114/102
f 101/76/73 109/87/82 110/89/83
f 103/83/77 85/608/58 80/593/59
f 463/568/501 464/569/502 518/569/517
f 464/594/502 465/570/503 517/570/516
f 517/570/516 465/570/503 467/574/505
f 467/584/505 469/576/507 515/576/512
f 514/579/513 471/579/509 463/568/501
f 469/576/507 471/579/509 514/579/513
f 503/563/496 169/563/498 149/562/497
f 486/383/334 334/383/442 427/500/443
f 429/507/463 214/211/184 502/211/450
f 473/502/447 428/502/445 429/507/463
f 427/500/443 428/505/445 473/505/447
f 499/218/192 217/218/378 364/427/377
f 475/427/374 364/427/377 363/424/376
f 476/424/373 363/424/376 346/478/422
f 357/413/364 167/165/365 504/165/144
f 354/412/358 357/413/364 477/413/363
f 148/151/360 355/407/359 478/407/357
f 355/407/359 354/410/358 479/410/362
f 480/480/518 346/480/422 344/395/345
f 481/395/350 344/395/345 342/392/341
f 482/392/348 342/392/341 340/390/339
f 483/390/344 340/390/339 336/388/337
f 484/388/340 336/388/337 335/385/464
f 335/385/464 334/383/442 486/383/334
f 308/338/296 303/340/295 491/340/321
f 488/350/319 316/350/304 308/338/296
f 489/358/317 315/358/311 316/350/304
f 321/367/308 315/358/311 489/358/317
f 300/365/318 321/355/308 487/355/316
f 303/337/295 302/333/294 492/333/291
f 492/333/291 302/333/294 301/330/293
f 301/330/293 300/365/318 494/365/315
f 279/306/263 155/307/267 507/307/266
f 513/305/264 49/305/249 279/306/263
f 275/297/262 51/298/250 511/298/261
f 248/296/225 275/297/262 496/297/260
f 506/253/223 159/253/228 249/252/226
f 497/252/222 249/252/226 248/595/225
f 214/211/184 215/212/185 501/212/194
f 216/215/188 217/218/378 499/218/192
f 215/212/185 216/215/188 500/215/190
f 166/168/366 169/563/498 503/563/496
f 504/165/144 167/165/365 166/168/366
f 508/158/137 154/158/519 159/253/228
f 155/307/267 154/158/519 508/158/137
f 149/565/497 148/151/360 510/151/132
f 51/298/250 50/22/247 512/22/20
f 512/22/20 50/22/247 49/305/249
