# Blender 5.0.1
# www.blender.org
mtllib crystalHielo.mtl
g Low_Mesh
v 1.946965 2.074243 1.619542
v 1.861230 1.897934 1.767650
v 1.938106 1.682058 1.671703
v 2.071353 1.724949 1.464296
v 2.076828 1.967333 1.432059
v 0.873071 3.701375 -0.746859
v 0.793928 3.779406 -0.574215
v 0.945287 3.773297 -0.432257
v 1.117975 3.691490 -0.517165
v 1.073344 3.647039 -0.711600
v 0.070609 0.244879 0.326022
v 0.406115 0.567647 0.155263
v 0.597230 0.789427 0.070888
v 0.468042 0.916799 0.352698
v 0.141134 1.005491 0.295145
v 0.406115 0.567647 0.155263
v 0.130671 0.645574 0.103463
v 0.067925 0.939175 -0.028653
v 0.350164 0.799399 -0.160834
v 0.597230 0.789427 0.070888
v 1.286326 -0.760202 0.752065
v 1.014232 -0.941430 0.730217
v 0.980142 -1.021051 0.410453
v 1.231167 -0.889032 0.234676
v 1.420399 -0.727818 0.445804
v -1.697046 4.173431 -0.572137
v -1.080511 3.698474 -0.715263
v -0.735870 3.364456 -0.793022
v -1.180015 3.068634 -0.828685
v -1.398866 3.015773 -0.328769
v -1.080511 3.698474 -0.715263
v -1.259965 3.650520 -0.289829
v -1.080716 3.272305 0.024508
v -0.680225 3.494423 -0.271064
v -0.735870 3.364456 -0.793022
v 1.323019 0.499051 1.130344
v 1.166174 -0.219067 0.860073
v 1.394876 -0.259255 0.676933
v 1.631821 0.444788 0.883061
v 0.989651 0.088124 -0.286364
v 1.652601 0.740021 0.424329
v 1.631821 0.444788 0.883061
v 1.394876 -0.259255 0.676933
v 1.431336 1.705357 1.516674
v 1.861230 1.897934 1.767650
v 1.946965 2.074243 1.619542
v 1.629923 1.850552 1.091272
v 0.698165 0.791311 -0.189665
v 0.491954 1.258351 0.271921
v 1.652601 0.740021 0.424329
v 0.989651 0.088124 -0.286364
v 0.947609 -0.711084 0.349245
v 0.670334 0.076887 0.948249
v 0.490168 0.280743 0.837820
v 0.306191 -0.328238 0.463310
v 1.519172 0.946345 1.648570
v 2.099690 0.844335 1.183704
v 1.166174 -0.219067 0.860073
v 0.670334 0.076887 0.948249
v 0.306191 -0.328238 0.463310
v 0.947609 -0.711084 0.349245
v 1.431336 1.705357 1.516674
v 1.061855 1.463794 1.368265
v 1.519172 0.946345 1.648570
v 1.736214 1.360391 1.703544
v 2.001153 1.298740 0.616096
v 2.099690 0.844335 1.183704
v 1.861230 1.897934 1.767650
v 1.938106 1.682058 1.671703
v 1.323019 0.499051 1.130344
v 1.165407 0.593125 1.158372
v 1.165407 0.593125 1.158372
v 0.922140 0.868379 1.009266
v 1.061855 1.463794 1.368265
v 1.359735 1.561442 0.730161
v 1.629923 1.850552 1.091272
v 2.057534 1.595321 1.015228
v 2.001153 1.298740 0.616096
v 1.359735 1.561442 0.730161
v 2.057534 1.595321 1.015228
v 2.123226 1.292385 1.393633
v 2.099690 0.844335 1.183704
v 2.001153 1.298740 0.616096
v 2.123226 1.292385 1.393633
v 1.736214 1.360391 1.703544
v 0.698165 0.791311 -0.189665
v 0.989651 0.088124 -0.286364
v 1.042576 -0.493292 0.084712
v 0.585259 0.024157 -0.195593
v 0.416984 0.646928 0.399853
v 0.698165 0.791311 -0.189665
v 0.585259 0.024157 -0.195593
v 0.211520 0.145458 -0.103243
v 0.947609 -0.711084 0.349245
v 1.042576 -0.493292 0.084712
v 0.501073 1.165725 0.118167
v 1.946965 2.074243 1.619542
v 2.076828 1.967333 1.432059
v 0.416984 0.646928 0.399853
v 0.501073 1.165725 0.118167
v 0.491954 1.258351 0.271921
v 1.519172 0.946345 1.648570
v 2.076828 1.967333 1.432059
v 2.071353 1.724949 1.464296
v 0.416984 0.646928 0.399853
v 0.490168 0.280743 0.837820
v 0.211520 0.145458 -0.103243
v 0.306191 -0.328238 0.463310
v 0.501073 1.165725 0.118167
v 0.491954 1.258351 0.271921
v 0.093606 -0.128277 0.239308
v 0.134378 -0.083668 0.436192
v 0.069942 0.268364 -0.244073
v 0.247947 0.306627 -0.340331
v 0.721865 0.086757 0.567935
v 0.802449 0.276079 0.559077
v 0.134378 -0.083668 0.436192
v 0.093606 -0.128277 0.239308
v 0.876205 0.521661 -0.011704
v 0.738013 0.628111 -0.121187
v 0.802449 0.276079 0.559077
v 0.721865 0.086757 0.567935
v 0.247947 0.306627 -0.340331
v 0.069942 0.268364 -0.244073
v 0.738013 0.628111 -0.121187
v 0.876205 0.521661 -0.011704
v -1.479253 3.430582 1.951427
v -1.518006 3.459395 1.833471
v -1.624039 3.391029 1.851607
v -1.585286 3.362216 1.969563
v 0.721865 0.086757 0.567935
v 0.093606 -0.128277 0.239308
v 0.247947 0.306627 -0.340331
v 0.876205 0.521661 -0.011704
v -1.427369 2.986674 1.331771
v -0.950993 2.923596 0.693716
v -1.738502 2.129708 1.188053
v -1.586243 2.699931 1.785745
v -0.957537 3.141632 1.594071
v -0.230226 2.820179 1.675856
v -0.950993 2.923596 0.693716
v -1.427369 2.986674 1.331771
v -1.116411 2.854889 2.048045
v -1.017735 2.026291 2.170193
v -0.230226 2.820179 1.675856
v -0.957537 3.141632 1.594071
v -1.586243 2.699931 1.785745
v -1.738502 2.129708 1.188053
v -1.017735 2.026291 2.170193
v -1.116411 2.854889 2.048045
v -1.624039 3.391029 1.851607
v -1.427369 2.986674 1.331771
v -1.586243 2.699931 1.785745
v -1.585286 3.362216 1.969563
v -1.518006 3.459395 1.833471
v -0.957537 3.141632 1.594071
v -1.427369 2.986674 1.331771
v -1.624039 3.391029 1.851607
v -1.479253 3.430582 1.951427
v -1.518006 3.459395 1.833471
v -1.585286 3.362216 1.969563
v -1.479253 3.430582 1.951427
v -0.387991 2.158434 0.422081
v 0.113999 1.972146 1.303596
v 0.175011 1.393273 0.150447
v 0.458224 1.124112 0.931337
v 0.113999 1.972146 1.303596
v -0.633697 1.322971 1.592193
v 0.458224 1.124112 0.931337
v -0.249660 0.619652 1.014192
v -0.633697 1.322971 1.592193
v -1.135687 1.509260 0.710678
v -0.249660 0.619652 1.014192
v -0.532873 0.888812 0.233303
v -1.135687 1.509260 0.710678
v -0.387991 2.158434 0.422081
v -0.532873 0.888812 0.233303
v 0.175011 1.393273 0.150447
v 0.070609 0.244879 0.326022
v 0.715987 2.013064 0.315090
v 0.693674 1.410968 0.441417
v 0.890878 1.930214 0.229099
v 0.317997 2.121041 0.245023
v 0.164708 2.127228 0.101254
v 0.092858 1.573973 0.335641
v 0.759768 3.194503 0.067212
v 0.738884 2.630950 0.185451
v 1.093253 2.463076 0.011212
v 1.277833 2.949082 -0.187514
v 0.715987 2.013064 0.315090
v 0.317997 2.121041 0.245023
v 0.092858 1.573973 0.335641
v 0.693674 1.410968 0.441417
v 0.931105 1.176874 -0.076515
v 0.796171 1.020290 -0.016943
v 0.425757 1.035240 -0.364352
v 0.477029 1.195201 -0.502390
v 0.693674 1.410968 0.441417
v 0.602486 1.211252 0.405561
v 0.796171 1.020290 -0.016943
v 0.931105 1.176874 -0.076515
v 0.112369 1.344224 0.319274
v 0.602486 1.211252 0.405561
v 0.738884 2.630950 0.185451
v 0.549041 2.682456 0.152029
v 0.549041 2.682456 0.152029
v 0.238442 2.694992 -0.139280
v 0.305692 3.212830 -0.358663
v 0.549810 3.496118 -0.466439
v 0.708097 3.340055 -0.811727
v 0.543122 2.978736 -0.876595
v 0.708097 3.340055 -0.811727
v 1.108641 3.231385 -0.741210
v 1.143938 2.815731 -0.770819
v 0.543122 2.978736 -0.876595
v 1.108641 3.231385 -0.741210
v 1.197904 3.320286 -0.352340
v 1.277833 2.949082 -0.187514
v 1.143938 2.815731 -0.770819
v 1.197904 3.320286 -0.352340
v 0.852527 3.483900 -0.182522
v 0.499341 1.797297 -0.628716
v 1.002954 1.730129 -0.310902
v 0.075581 2.046492 -0.292948
v 0.499341 1.797297 -0.628716
v 0.477029 1.195201 -0.502390
v -0.041690 1.452093 -0.259458
v 1.002954 1.730129 -0.310902
v 0.890878 1.930214 0.229099
v 0.195928 2.656480 -0.327317
v 0.238442 2.694992 -0.139280
v 0.305692 3.212830 -0.358663
v 0.468042 0.916799 0.352698
v 0.597230 0.789427 0.070888
v 0.141134 1.005491 0.295145
v 0.468042 0.916799 0.352698
v 0.112369 1.344224 0.319274
v 0.092858 1.573973 0.335641
v -0.041690 1.452093 -0.259458
v 0.002611 1.244800 -0.166179
v 0.002611 1.244800 -0.166179
v 0.425757 1.035240 -0.364352
v 0.759768 3.194503 0.067212
v 0.305692 3.212830 -0.358663
v 0.075581 2.046492 -0.292948
v 0.164708 2.127228 0.101254
v 0.070609 0.244879 0.326022
v 0.141134 1.005491 0.295145
v 0.067925 0.939175 -0.028653
v 0.130671 0.645574 0.103463
v 0.522238 2.415183 -0.758355
v 1.076688 2.297893 -0.551436
v 0.195928 2.656480 -0.327317
v 0.522238 2.415183 -0.758355
v 0.759768 3.194503 0.067212
v 1.076688 2.297893 -0.551436
v 1.093253 2.463076 0.011212
v 0.549810 3.496118 -0.466439
v 0.852527 3.483900 -0.182522
v 0.793928 3.779406 -0.574215
v 0.945287 3.773297 -0.432257
v 1.117975 3.691490 -0.517165
v 0.945287 3.773297 -0.432257
v 1.073344 3.647039 -0.711600
v 1.117975 3.691490 -0.517165
v 0.873071 3.701375 -0.746859
v 1.073344 3.647039 -0.711600
v 0.793928 3.779406 -0.574215
v 0.873071 3.701375 -0.746859
v -1.697046 4.173431 -0.572137
v -0.618700 1.371599 -0.668984
v -0.950069 2.237247 -0.994411
v -0.364472 1.505303 -0.847003
v -0.885136 1.307244 -0.060369
v -0.850611 1.387880 0.263475
v -1.352289 2.140094 -0.075627
v 0.031518 -0.326985 -0.030428
v -0.278639 0.483249 -0.335023
v 0.236483 0.754163 -0.695729
v 0.784593 0.069074 -0.557758
v -0.618700 1.371599 -0.668984
v -0.885136 1.307244 -0.060369
v -1.352289 2.140094 -0.075627
v -0.950069 2.237247 -0.994411
v -0.133788 2.780931 -0.928866
v -0.377116 3.016759 -0.873965
v -0.293690 3.211612 -0.091419
v -0.031518 3.019793 0.030428
v -0.950069 2.237247 -0.994411
v -1.043001 2.573248 -0.927434
v -0.377116 3.016759 -0.873965
v -0.133788 2.780931 -0.928866
v -1.371113 2.493995 -0.177933
v -1.043001 2.573248 -0.927434
v -0.278639 0.483249 -0.335023
v -0.405731 0.452551 -0.044710
v -0.405731 0.452551 -0.044710
v -0.335776 0.615939 0.611471
v 0.133788 -0.088123 0.928866
v 0.574010 -0.514777 0.829541
v 1.118198 -0.152321 0.873238
v 0.950069 0.455561 0.994411
v 1.118198 -0.152321 0.873238
v 1.386344 -0.087553 0.260716
v 1.352289 0.552713 0.075627
v 0.950069 0.455561 0.994411
v 1.386344 -0.087553 0.260716
v 1.007880 -0.409979 -0.161541
v 0.784593 0.069074 -0.557758
v 1.352289 0.552713 0.075627
v 1.007880 -0.409979 -0.161541
v 0.505830 -0.674018 0.190012
v 0.299852 2.154145 0.355855
v 0.367891 2.028716 -0.589763
v -0.463285 1.700191 0.693567
v 0.299852 2.154145 0.355855
v -0.031518 3.019793 0.030428
v -0.767571 2.611569 0.573652
v 0.367891 2.028716 -0.589763
v -0.364472 1.505303 -0.847003
v -0.151019 0.764913 0.816627
v -0.335776 0.615939 0.611471
v 0.133788 -0.088123 0.928866
v -1.180015 3.068634 -0.828685
v -0.735870 3.364456 -0.793022
v -1.398866 3.015773 -0.328769
v -1.180015 3.068634 -0.828685
v -1.371113 2.493995 -0.177933
v -1.352289 2.140094 -0.075627
v -0.767571 2.611569 0.573652
v -0.894127 2.878602 0.351718
v -0.894127 2.878602 0.351718
v -0.293690 3.211612 -0.091419
v 0.031518 -0.326985 -0.030428
v 0.133788 -0.088123 0.928866
v -0.463285 1.700191 0.693567
v -0.850611 1.387880 0.263475
v -1.697046 4.173431 -0.572137
v -1.398866 3.015773 -0.328769
v -1.080716 3.272305 0.024508
v -1.259965 3.650520 -0.289829
v 0.639912 1.265795 0.689816
v 0.882726 1.256775 -0.241768
v -0.151019 0.764913 0.816627
v 0.639912 1.265795 0.689816
v 0.031518 -0.326985 -0.030428
v 0.882726 1.256775 -0.241768
v 0.236483 0.754163 -0.695729
v 0.574010 -0.514777 0.829541
v 0.505830 -0.674018 0.190012
v 1.014232 -0.941430 0.730217
v 0.980142 -1.021051 0.410453
v 1.231167 -0.889032 0.234676
v 0.980142 -1.021051 0.410453
v 1.420399 -0.727818 0.445804
v 1.231167 -0.889032 0.234676
v 1.286326 -0.760202 0.752065
v 1.420399 -0.727818 0.445804
v 1.014232 -0.941430 0.730217
v 1.286326 -0.760202 0.752065
vn 0.8350 0.0540 0.5476
vn 0.8122 -0.0532 0.5809
vn 0.7966 -0.1072 0.5950
vn 0.2967 0.9139 -0.2770
vn 0.4585 -0.0065 0.8887
vn 0.3794 -0.2681 0.8855
vn 0.2719 -0.5098 0.8162
vn 0.2719 -0.5097 0.8162
vn 0.3794 -0.2682 0.8855
vn 0.1170 -0.6454 -0.7548
vn -0.1153 -0.6094 -0.7844
vn -0.5499 -0.4376 -0.7114
vn -0.1124 -0.6593 -0.7434
vn 0.3588 -0.7213 -0.5924
vn 0.5399 -0.8285 0.1487
vn -0.4223 -0.2893 -0.8590
vn -0.5088 -0.0300 -0.8604
vn -0.5572 0.2316 -0.7974
vn 0.5599 0.8120 0.1648
vn 0.4493 0.8112 0.3743
vn 0.1582 0.6744 0.7212
vn 0.4109 0.8472 0.3367
vn 0.5657 0.8133 -0.1362
vn 0.4308 -0.6040 0.6705
vn 0.4412 -0.5862 0.6795
vn 0.8744 -0.3619 -0.3232
vn 0.8543 -0.3891 -0.3447
vn 0.8543 -0.3890 -0.3447
vn -0.6247 0.7800 0.0377
vn -0.6372 0.7528 0.1652
vn -0.6247 0.7799 0.0377
vn -0.6373 0.7527 0.1652
vn 0.7314 0.5210 -0.4401
vn 0.4714 0.4926 -0.7315
vn 0.7313 0.5210 -0.4401
vn 0.3311 -0.7464 0.5773
vn -0.5814 -0.0750 0.8101
vn -0.6806 -0.2235 0.6978
vn 0.4351 -0.5968 0.6742
vn 0.4350 -0.5968 0.6742
vn -0.1494 -0.5039 0.8508
vn -0.1494 -0.5038 0.8508
vn -0.2533 -0.6404 0.7251
vn -0.3657 -0.0032 0.9307
vn -0.7128 -0.0623 0.6986
vn -0.3656 -0.0032 0.9308
vn -0.5792 -0.0720 0.8120
vn 0.7996 -0.4647 -0.3804
vn -0.2954 -0.1125 0.9487
vn -0.1638 -0.5235 0.8361
vn -0.5901 -0.0867 0.8027
vn -0.7521 0.0538 0.6569
vn -0.8143 0.5517 0.1804
vn 0.1311 0.7540 -0.6436
vn 0.1916 0.5632 -0.8038
vn 0.1916 0.5633 -0.8038
vn 0.9992 0.0400 0.0060
vn 0.9992 0.0400 0.0061
vn 0.9877 0.0207 -0.1549
vn 0.6409 -0.3260 0.6950
vn -0.1715 -0.2631 -0.9494
vn -0.1715 -0.2632 -0.9494
vn -0.4159 0.4664 -0.7807
vn -0.4160 0.4664 -0.7806
vn -0.6007 0.3569 -0.7154
vn 0.8451 -0.4130 -0.3395
vn 0.8451 -0.4131 -0.3395
vn -0.8637 0.1910 0.4663
vn 0.0250 0.7857 -0.6181
vn -0.4159 0.4665 -0.7806
vn -0.2103 0.5524 -0.8066
vn -0.2103 0.5525 -0.8066
vn -0.2792 -0.6721 0.6858
vn 0.9843 0.0582 0.1668
vn 0.9843 0.0582 0.1669
vn -0.8814 0.2733 0.3853
vn -0.8814 0.2732 0.3853
vn -0.9560 0.1259 0.2650
vn -0.8828 0.2118 0.4192
vn -0.8828 0.2119 0.4192
vn -0.8520 -0.4071 -0.3292
vn -0.8498 -0.4903 -0.1936
vn -0.8521 -0.4070 -0.3292
vn -0.0531 -0.5604 0.8265
vn 0.0881 -0.4970 0.8633
vn -0.0532 -0.5604 0.8265
vn 0.8874 0.3522 0.2974
vn 0.8898 0.4283 0.1577
vn 0.8874 0.3522 0.2975
vn 0.0885 0.5056 -0.8582
vn -0.0481 0.4350 -0.8992
vn -0.4642 0.8131 0.3511
vn 0.4874 -0.7558 -0.4373
vn -0.9503 -0.0934 -0.2970
vn -0.7066 0.0768 -0.7034
vn 0.0704 0.7263 -0.6837
vn 0.5105 0.7365 -0.4438
vn 0.0704 0.7264 -0.6837
vn 0.7025 0.4971 0.5093
vn 0.5971 0.0798 0.7982
vn -0.3237 -0.3176 0.8913
vn -0.6182 -0.5733 0.5377
vn -0.3237 -0.3175 0.8913
vn -0.6183 -0.5733 0.5377
vn -0.9613 -0.2626 -0.0834
vn -0.9503 -0.0933 -0.2969
vn -0.1188 0.5417 -0.8322
vn -0.1188 0.5417 -0.8321
vn 0.7724 0.5934 0.2262
vn 0.7724 0.5935 0.2263
vn -0.0700 -0.2109 0.9750
vn -0.0700 -0.2108 0.9750
vn 0.7696 0.5633 -0.3006
vn 0.8439 0.5265 -0.1030
vn 0.5129 -0.2511 0.8209
vn 0.3365 -0.3630 0.8689
vn 0.3366 -0.3631 0.8689
vn -0.6909 -0.6855 0.2299
vn -0.6908 -0.6855 0.2299
vn -0.7869 -0.6149 0.0518
vn -0.4341 0.1290 -0.8916
vn -0.4341 0.1289 -0.8916
vn -0.2795 0.2747 -0.9200
vn -0.2795 0.2746 -0.9200
vn 0.0259 -0.4884 -0.8723
vn 0.4958 0.1607 0.8535
vn -0.6271 0.3715 0.6846
vn 0.5319 0.3014 0.7914
vn 0.5319 0.3013 0.7914
vn -0.1146 0.2081 0.9714
vn -0.1568 0.0616 0.9857
vn 0.5505 -0.4792 -0.6836
vn 0.5052 -0.6509 -0.5667
vn 0.8539 -0.2658 0.4475
vn 0.7318 -0.4292 0.5294
vn 0.8539 -0.2658 0.4474
vn -0.1954 -0.0862 0.9769
vn -0.8084 0.2361 -0.5393
vn -0.7318 0.4292 -0.5294
vn -0.8084 0.2360 -0.5393
vn 0.1954 0.0862 -0.9769
vn 0.1920 -0.1114 -0.9751
vn 0.1919 -0.1115 -0.9751
vn 0.9646 0.0993 -0.2441
vn 0.9846 -0.0837 -0.1535
vn 0.9846 -0.0837 -0.1534
vn 0.5547 0.4345 0.7096
vn 0.4781 -0.2969 -0.8266
vn -0.6342 -0.0274 -0.7727
vn -0.6342 -0.0275 -0.7727
vn -0.5585 -0.2470 -0.7919
vn 0.9595 -0.1381 0.2456
vn -0.9637 0.2001 0.1769
vn -0.9660 -0.0990 0.2387
vn -0.9763 0.0511 0.2103
vn -0.9763 0.0512 0.2103
vn -0.5739 0.5182 0.6342
vn -0.9978 -0.0060 0.0656
vn -0.9868 -0.0528 0.1529
vn -0.9978 -0.0060 0.0657
vn -0.9868 -0.0528 0.1530
vn 0.2818 -0.3062 -0.9093
vn 0.2817 -0.3063 -0.9093
vn -0.7883 0.0121 -0.6151
vn -0.7884 0.0120 -0.6151
vn 0.9733 -0.2254 0.0443
vn 0.9733 -0.2254 0.0442
vn -0.5052 0.6509 0.5667
vn 0.6220 0.7045 0.3418
vn -0.3459 -0.4433 -0.8269
vn -0.8545 -0.4754 0.2095
vn -0.2533 -0.5644 -0.7857
vn -0.7973 -0.4545 -0.3971
vn -0.8571 -0.3140 -0.4084
vn 0.7906 0.5864 -0.1765
vn 0.6446 0.7230 -0.2487
vn 0.1199 0.0370 -0.9921
vn -0.0435 0.1837 -0.9820
vn -0.8967 -0.1663 -0.4101
vn -0.0253 0.0117 0.9996
vn 0.0435 -0.1837 0.9820
vn -0.0254 0.0118 0.9996
vn 0.8967 0.1663 0.4101
vn 0.8619 0.3548 0.3621
vn 0.7863 -0.1326 -0.6035
vn 0.6982 0.0149 -0.7157
vn -0.1544 -0.6714 -0.7248
vn 0.8881 0.4597 0.0063
vn 0.8880 0.4597 0.0063
vn 0.2206 0.3088 0.9252
vn 0.2205 0.3088 0.9252
vn 0.2464 0.5155 0.8207
vn 0.3617 -0.0407 -0.9314
vn -0.6856 -0.1348 0.7153
vn -0.7828 0.1340 0.6077
vn -0.7429 -0.0004 0.6693
vn -0.7597 -0.6074 0.2322
vn -0.6515 0.0964 0.7525
vn -0.7208 0.1158 0.6834
vn 0.8335 0.5128 0.2055
vn 0.8335 0.5129 0.2055
vn 0.0107 0.2444 0.9696
vn 0.5140 0.0968 -0.8523
vn 0.5140 0.0969 -0.8523
vn -0.6446 -0.7230 0.2487
vt 0.664667 0.315486
vt 0.663162 0.315486
vt 0.663162 0.316944
vt 0.642796 0.336749
vt 0.639608 0.336749
vt 0.639608 0.338208
vt 0.664726 0.315545
vt 0.663221 0.317003
vt 0.664726 0.317003
vt 0.664667 0.313850
vt 0.663162 0.313850
vt 0.663162 0.315309
vt 0.607642 0.303859
vt 0.607642 0.300765
vt 0.609148 0.300765
vt 0.664726 0.313909
vt 0.663221 0.315368
vt 0.664726 0.315368
vt 0.605960 0.303859
vt 0.605960 0.300765
vt 0.607465 0.300765
vt 0.653067 0.307130
vt 0.656255 0.300765
vt 0.653067 0.300765
vt 0.656314 0.300824
vt 0.653126 0.307189
vt 0.656314 0.307189
vt 0.612513 0.300765
vt 0.611007 0.300765
vt 0.611007 0.303859
vt 0.659797 0.336573
vt 0.662985 0.333478
vt 0.659797 0.333478
vt 0.642855 0.336808
vt 0.639667 0.338267
vt 0.642855 0.338267
vt 0.629337 0.336749
vt 0.626149 0.336749
vt 0.626149 0.339844
vt 0.629514 0.339844
vt 0.629514 0.336749
vt 0.632702 0.336749
vt 0.629396 0.336808
vt 0.626208 0.339903
vt 0.629396 0.339903
vt 0.639431 0.326935
vt 0.632878 0.326935
vt 0.632878 0.330030
vt 0.653067 0.320216
vt 0.656255 0.313850
vt 0.653067 0.313850
vt 0.656314 0.313909
vt 0.653126 0.320275
vt 0.656314 0.320275
vt 0.659620 0.284408
vt 0.656432 0.284408
vt 0.656432 0.287502
vt 0.653067 0.287502
vt 0.656255 0.284408
vt 0.653067 0.284408
vt 0.659620 0.281136
vt 0.656432 0.284231
vt 0.656432 0.281136
vt 0.639608 0.326935
vt 0.646161 0.326935
vt 0.639608 0.330030
vt 0.664667 0.294222
vt 0.663162 0.294222
vt 0.663162 0.300588
vt 0.612689 0.307130
vt 0.619242 0.300765
vt 0.612689 0.300765
vt 0.646338 0.330030
vt 0.646338 0.326935
vt 0.652891 0.326935
vt 0.653067 0.281136
vt 0.653067 0.284231
vt 0.656255 0.281136
vt 0.664667 0.281136
vt 0.663162 0.281136
vt 0.663162 0.287502
vt 0.626149 0.294222
vt 0.632702 0.294222
vt 0.626149 0.300588
vt 0.626149 0.307130
vt 0.626149 0.300765
vt 0.632702 0.300765
vt 0.605960 0.338208
vt 0.612513 0.336749
vt 0.605960 0.336749
vt 0.612572 0.338267
vt 0.612572 0.336808
vt 0.606019 0.338267
vt 0.632878 0.281136
vt 0.639431 0.281136
vt 0.632878 0.287502
vt 0.659620 0.307307
vt 0.656432 0.307307
vt 0.656432 0.313673
vt 0.652949 0.330089
vt 0.652949 0.326994
vt 0.646397 0.330089
vt 0.619242 0.307307
vt 0.612689 0.307307
vt 0.612689 0.313673
vt 0.609325 0.290951
vt 0.612513 0.290951
vt 0.609325 0.294045
vt 0.639431 0.333478
vt 0.632878 0.333478
vt 0.632878 0.336573
vt 0.659797 0.320393
vt 0.659797 0.326759
vt 0.662985 0.320393
vt 0.632878 0.307130
vt 0.632878 0.300765
vt 0.639431 0.300765
vt 0.610830 0.300765
vt 0.609325 0.303859
vt 0.609325 0.300765
vt 0.605960 0.294045
vt 0.605960 0.290951
vt 0.609148 0.290951
vt 0.639608 0.333478
vt 0.646161 0.333478
vt 0.639608 0.336573
vt 0.661303 0.326935
vt 0.659797 0.326935
vt 0.659797 0.333301
vt 0.664726 0.300647
vt 0.664726 0.294281
vt 0.663221 0.300647
vt 0.626149 0.336573
vt 0.626149 0.333478
vt 0.632702 0.333478
vt 0.659797 0.307307
vt 0.662985 0.307307
vt 0.659797 0.313673
vt 0.612513 0.287679
vt 0.609325 0.287679
vt 0.609325 0.290774
vt 0.656314 0.284290
vt 0.653126 0.284290
vt 0.656314 0.281195
vt 0.619419 0.336573
vt 0.619419 0.333478
vt 0.625972 0.333478
vt 0.612572 0.294104
vt 0.609384 0.294104
vt 0.612572 0.291009
vt 0.659856 0.313732
vt 0.663044 0.313732
vt 0.663044 0.307366
vt 0.605960 0.287679
vt 0.605960 0.290774
vt 0.609148 0.287679
vt 0.662985 0.300765
vt 0.659797 0.300765
vt 0.659797 0.307130
vt 0.626208 0.336632
vt 0.632761 0.336632
vt 0.632761 0.333537
vt 0.612689 0.333478
vt 0.619242 0.333478
vt 0.612689 0.336573
vt 0.639608 0.294222
vt 0.646161 0.294222
vt 0.639608 0.300588
vt 0.639667 0.330089
vt 0.646220 0.330089
vt 0.646220 0.326994
vt 0.632702 0.313850
vt 0.626149 0.320216
vt 0.626149 0.313850
vt 0.612748 0.336632
vt 0.619301 0.336632
vt 0.619301 0.333537
vt 0.639608 0.307130
vt 0.639608 0.300765
vt 0.646161 0.300765
vt 0.626031 0.336632
vt 0.619478 0.336632
vt 0.626031 0.333537
vt 0.606019 0.303918
vt 0.607524 0.303918
vt 0.607524 0.300824
vt 0.616054 0.287502
vt 0.616054 0.284408
vt 0.619242 0.284408
vt 0.607642 0.304036
vt 0.609148 0.304036
vt 0.607642 0.307130
vt 0.612689 0.284408
vt 0.615877 0.284408
vt 0.612689 0.287502
vt 0.607465 0.304036
vt 0.605960 0.304036
vt 0.605960 0.307130
vt 0.663826 0.307307
vt 0.663162 0.313673
vt 0.663162 0.307307
vt 0.619301 0.287561
vt 0.619301 0.284467
vt 0.616113 0.287561
vt 0.612513 0.304036
vt 0.611007 0.304036
vt 0.611007 0.307130
vt 0.659679 0.313732
vt 0.659679 0.307366
vt 0.656491 0.313732
vt 0.639490 0.281195
vt 0.639490 0.287561
vt 0.632937 0.287561
vt 0.646338 0.333301
vt 0.646338 0.330207
vt 0.652891 0.330207
vt 0.646220 0.333537
vt 0.646220 0.336632
vt 0.639667 0.336632
vt 0.663044 0.326818
vt 0.663044 0.320452
vt 0.659856 0.326818
vt 0.639608 0.320216
vt 0.639608 0.313850
vt 0.646161 0.313850
vt 0.646338 0.287502
vt 0.646338 0.281136
vt 0.652891 0.281136
vt 0.639490 0.300824
vt 0.639490 0.307189
vt 0.632937 0.307189
vt 0.662985 0.326935
vt 0.661479 0.333301
vt 0.661479 0.326935
vt 0.652891 0.287679
vt 0.646338 0.287679
vt 0.646338 0.294045
vt 0.661362 0.333360
vt 0.659856 0.333360
vt 0.661362 0.326994
vt 0.619242 0.336749
vt 0.612689 0.336749
vt 0.612689 0.338208
vt 0.619419 0.336749
vt 0.619419 0.338208
vt 0.625972 0.336749
vt 0.664726 0.287738
vt 0.664726 0.294104
vt 0.663221 0.294104
vt 0.663162 0.300765
vt 0.664667 0.300765
vt 0.663162 0.307130
vt 0.663162 0.294045
vt 0.663162 0.287679
vt 0.664667 0.287679
vt 0.626031 0.338267
vt 0.626031 0.336808
vt 0.619478 0.338267
vt 0.612748 0.338267
vt 0.619301 0.338267
vt 0.619301 0.336808
vt 0.642973 0.336749
vt 0.643637 0.336749
vt 0.642973 0.337390
vt 0.643032 0.337449
vt 0.643696 0.337449
vt 0.643696 0.336808
vt 0.619301 0.313732
vt 0.612748 0.313732
vt 0.619301 0.307366
vt 0.639667 0.320275
vt 0.646220 0.320275
vt 0.646220 0.313909
vt 0.639490 0.330089
vt 0.632937 0.330089
vt 0.639490 0.326994
vt 0.646338 0.313673
vt 0.646338 0.307307
vt 0.652891 0.307307
vt 0.626149 0.326935
vt 0.632702 0.326935
vt 0.626149 0.330030
vt 0.646338 0.320216
vt 0.646338 0.313850
vt 0.652891 0.313850
vt 0.632761 0.330089
vt 0.626208 0.330089
vt 0.632761 0.326994
vt 0.652949 0.313909
vt 0.652949 0.320275
vt 0.646397 0.320275
vt 0.653067 0.307307
vt 0.653067 0.313673
vt 0.656255 0.307307
vt 0.652949 0.307366
vt 0.652949 0.313732
vt 0.646397 0.313732
vt 0.632878 0.336749
vt 0.639431 0.336749
vt 0.632878 0.337390
vt 0.656255 0.294222
vt 0.653067 0.294222
vt 0.653067 0.300588
vt 0.639490 0.337449
vt 0.632937 0.337449
vt 0.639490 0.336808
vt 0.653126 0.300647
vt 0.656314 0.300647
vt 0.656314 0.294281
vt 0.663885 0.313732
vt 0.663885 0.307366
vt 0.663221 0.313732
vt 0.626031 0.326994
vt 0.626031 0.330089
vt 0.619478 0.330089
vt 0.664726 0.307189
vt 0.664726 0.300824
vt 0.663221 0.307189
vt 0.619419 0.330030
vt 0.619419 0.326935
vt 0.625972 0.326935
vt 0.653067 0.287679
vt 0.659620 0.287679
vt 0.653067 0.294045
vt 0.605960 0.333301
vt 0.605960 0.326935
vt 0.612513 0.326935
vt 0.605960 0.281136
vt 0.605960 0.287502
vt 0.612513 0.281136
vt 0.639608 0.326759
vt 0.639608 0.320393
vt 0.646161 0.320393
vt 0.626149 0.320393
vt 0.626149 0.326759
vt 0.632702 0.320393
vt 0.652891 0.300765
vt 0.646338 0.300765
vt 0.646338 0.307130
vt 0.612689 0.326935
vt 0.619242 0.326935
vt 0.612689 0.333301
vt 0.619419 0.326759
vt 0.619419 0.320393
vt 0.625972 0.320393
vt 0.652949 0.326818
vt 0.652949 0.320452
vt 0.646397 0.326818
vt 0.639490 0.320452
vt 0.639490 0.326818
vt 0.632937 0.326818
vt 0.646220 0.307189
vt 0.646220 0.300824
vt 0.639667 0.307189
vt 0.646397 0.300647
vt 0.652949 0.300647
vt 0.652949 0.294281
vt 0.619301 0.333360
vt 0.612748 0.333360
vt 0.619301 0.326994
vt 0.632761 0.300824
vt 0.632761 0.307189
vt 0.626208 0.307189
vt 0.612572 0.287561
vt 0.612572 0.281195
vt 0.606019 0.287561
vt 0.632878 0.326759
vt 0.632878 0.320393
vt 0.639431 0.320393
vt 0.632761 0.326818
vt 0.632761 0.320452
vt 0.626208 0.326818
vt 0.646397 0.307189
vt 0.652949 0.307189
vt 0.652949 0.300824
vt 0.659679 0.294104
vt 0.653126 0.294104
vt 0.659679 0.287738
vt 0.612572 0.326994
vt 0.612572 0.333360
vt 0.606019 0.333360
vt 0.646338 0.320393
vt 0.646338 0.326759
vt 0.652891 0.320393
vt 0.646220 0.320452
vt 0.646220 0.326818
vt 0.639667 0.326818
vt 0.612689 0.320393
vt 0.612689 0.326759
vt 0.619242 0.320393
vt 0.652891 0.294222
vt 0.646338 0.294222
vt 0.646338 0.300588
vt 0.609325 0.307130
vt 0.609325 0.304036
vt 0.610830 0.304036
vt 0.622607 0.294222
vt 0.621102 0.297316
vt 0.621102 0.294222
vt 0.622666 0.297375
vt 0.621160 0.297375
vt 0.622666 0.294281
vt 0.616054 0.281136
vt 0.619242 0.281136
vt 0.616054 0.284231
vt 0.615877 0.281136
vt 0.612689 0.281136
vt 0.612689 0.284231
vt 0.616054 0.290951
vt 0.619242 0.290951
vt 0.616054 0.294045
vt 0.615877 0.290951
vt 0.612689 0.290951
vt 0.612689 0.294045
vt 0.620925 0.294222
vt 0.619419 0.294222
vt 0.619419 0.297316
vt 0.624466 0.297316
vt 0.624466 0.294222
vt 0.625972 0.294222
vt 0.624290 0.294222
vt 0.622784 0.294222
vt 0.622784 0.297316
vt 0.610889 0.300824
vt 0.610889 0.303918
vt 0.609384 0.303918
vt 0.622843 0.297375
vt 0.624348 0.297375
vt 0.624348 0.294281
vt 0.626031 0.294281
vt 0.626031 0.297375
vt 0.624525 0.297375
vt 0.653067 0.320393
vt 0.653067 0.326759
vt 0.656255 0.320393
vt 0.622607 0.297493
vt 0.621102 0.297493
vt 0.621102 0.300588
vt 0.619419 0.297493
vt 0.619419 0.300588
vt 0.620925 0.297493
vt 0.619242 0.287679
vt 0.616054 0.287679
vt 0.616054 0.290774
vt 0.612689 0.287679
vt 0.615877 0.287679
vt 0.612689 0.290774
vt 0.609325 0.300588
vt 0.609325 0.297493
vt 0.612513 0.297493
vt 0.605960 0.297493
vt 0.605960 0.300588
vt 0.609148 0.297493
vt 0.626149 0.333301
vt 0.626149 0.330207
vt 0.632702 0.330207
vt 0.612572 0.300647
vt 0.609384 0.300647
vt 0.612572 0.297552
vt 0.612748 0.290833
vt 0.615936 0.290833
vt 0.615936 0.287738
vt 0.609325 0.294222
vt 0.609325 0.297316
vt 0.612513 0.294222
vt 0.659620 0.294222
vt 0.656432 0.294222
vt 0.656432 0.300588
vt 0.605960 0.294222
vt 0.609148 0.294222
vt 0.605960 0.297316
vt 0.606019 0.297375
vt 0.609207 0.297375
vt 0.609207 0.294281
vt 0.622784 0.284408
vt 0.625972 0.284408
vt 0.622784 0.287502
vt 0.622843 0.287561
vt 0.626031 0.287561
vt 0.626031 0.284467
vt 0.619419 0.284408
vt 0.622607 0.284408
vt 0.619419 0.287502
vt 0.612748 0.294104
vt 0.615936 0.294104
vt 0.615936 0.291009
vt 0.625972 0.297493
vt 0.624466 0.297493
vt 0.624466 0.300588
vt 0.610889 0.307189
vt 0.609384 0.307189
vt 0.610889 0.304095
vt 0.622784 0.284231
vt 0.622784 0.281136
vt 0.625972 0.281136
vt 0.609207 0.294104
vt 0.606019 0.294104
vt 0.609207 0.291009
vt 0.626031 0.281195
vt 0.626031 0.284290
vt 0.622843 0.284290
vt 0.612572 0.307189
vt 0.611066 0.307189
vt 0.612572 0.304095
vt 0.620984 0.294281
vt 0.619478 0.297375
vt 0.620984 0.297375
vt 0.609207 0.307189
vt 0.607701 0.307189
vt 0.609207 0.304095
vt 0.620984 0.297552
vt 0.620984 0.300647
vt 0.619478 0.300647
vt 0.619419 0.281136
vt 0.622607 0.281136
vt 0.619419 0.284231
vt 0.612572 0.300824
vt 0.612572 0.303918
vt 0.611066 0.303918
vt 0.615936 0.284290
vt 0.615936 0.281195
vt 0.612748 0.284290
vt 0.619301 0.281195
vt 0.619301 0.284290
vt 0.616113 0.284290
vt 0.664726 0.287561
vt 0.664726 0.281195
vt 0.663221 0.287561
vt 0.616113 0.290833
vt 0.619301 0.290833
vt 0.619301 0.287738
vt 0.612572 0.294281
vt 0.609384 0.297375
vt 0.612572 0.297375
vt 0.609207 0.300824
vt 0.609207 0.303918
vt 0.607701 0.303918
vt 0.622784 0.290951
vt 0.625972 0.290951
vt 0.622784 0.294045
vt 0.619419 0.294045
vt 0.619419 0.290951
vt 0.622607 0.290951
vt 0.622666 0.294104
vt 0.619478 0.294104
vt 0.622666 0.291009
vt 0.626031 0.291009
vt 0.626031 0.294104
vt 0.622843 0.294104
vt 0.656314 0.326818
vt 0.656314 0.320452
vt 0.653126 0.326818
vt 0.621160 0.300647
vt 0.622666 0.300647
vt 0.622666 0.297552
vt 0.624525 0.300647
vt 0.626031 0.297552
vt 0.626031 0.300647
vt 0.663044 0.336632
vt 0.663044 0.333537
vt 0.659856 0.336632
vt 0.632761 0.336808
vt 0.632761 0.339903
vt 0.629573 0.339903
vt 0.622784 0.287679
vt 0.625972 0.287679
vt 0.622784 0.290774
vt 0.622666 0.281195
vt 0.622666 0.284290
vt 0.619478 0.284290
vt 0.619419 0.287679
vt 0.622607 0.287679
vt 0.619419 0.290774
vt 0.656314 0.284467
vt 0.656314 0.287561
vt 0.653126 0.287561
vt 0.609207 0.300647
vt 0.606019 0.300647
vt 0.609207 0.297552
vt 0.626208 0.333360
vt 0.632761 0.333360
vt 0.632761 0.330266
vt 0.622784 0.297493
vt 0.622784 0.300588
vt 0.624290 0.297493
vt 0.616054 0.300588
vt 0.616054 0.297493
vt 0.619242 0.297493
vt 0.619301 0.300647
vt 0.616113 0.300647
vt 0.619301 0.297552
vt 0.622843 0.300647
vt 0.624348 0.300647
vt 0.624348 0.297552
vt 0.619301 0.294104
vt 0.619301 0.291009
vt 0.616113 0.294104
vt 0.622666 0.284467
vt 0.622666 0.287561
vt 0.619478 0.287561
vt 0.614372 0.294222
vt 0.614372 0.297316
vt 0.615877 0.294222
vt 0.614195 0.294222
vt 0.612689 0.294222
vt 0.612689 0.297316
vt 0.632878 0.330207
vt 0.639431 0.330207
vt 0.632878 0.333301
vt 0.639490 0.330266
vt 0.639490 0.333360
vt 0.632937 0.333360
vt 0.615936 0.287561
vt 0.612748 0.287561
vt 0.615936 0.284467
vt 0.606019 0.307189
vt 0.607524 0.307189
vt 0.607524 0.304095
vt 0.612689 0.297493
vt 0.612689 0.300588
vt 0.615877 0.297493
vt 0.612748 0.300647
vt 0.615936 0.300647
vt 0.615936 0.297552
vt 0.626031 0.290833
vt 0.622843 0.290833
vt 0.626031 0.287738
vt 0.614431 0.297375
vt 0.615936 0.297375
vt 0.615936 0.294281
vt 0.656432 0.300765
vt 0.656432 0.307130
vt 0.659620 0.300765
vt 0.619478 0.290833
vt 0.622666 0.290833
vt 0.622666 0.287738
vt 0.632937 0.336632
vt 0.639490 0.336632
vt 0.639490 0.333537
vt 0.639608 0.333301
vt 0.646161 0.330207
vt 0.639608 0.330207
vt 0.646220 0.333360
vt 0.646220 0.330266
vt 0.639667 0.333360
vt 0.605960 0.320393
vt 0.612513 0.320393
vt 0.605960 0.326759
vt 0.646161 0.307307
vt 0.639608 0.307307
vt 0.639608 0.313673
vt 0.619301 0.326818
vt 0.612748 0.326818
vt 0.619301 0.320452
vt 0.646397 0.287561
vt 0.652949 0.287561
vt 0.652949 0.281195
vt 0.659620 0.313850
vt 0.656432 0.313850
vt 0.656432 0.320216
vt 0.659620 0.326935
vt 0.653067 0.326935
vt 0.653067 0.330030
vt 0.659620 0.320393
vt 0.656432 0.320393
vt 0.656432 0.326759
vt 0.659620 0.330207
vt 0.653067 0.330207
vt 0.653067 0.333301
vt 0.656491 0.326818
vt 0.659679 0.326818
vt 0.659679 0.320452
vt 0.653126 0.330089
vt 0.659679 0.330089
vt 0.659679 0.326994
vt 0.632878 0.313850
vt 0.632878 0.320216
vt 0.639431 0.313850
vt 0.662985 0.287679
vt 0.659797 0.287679
vt 0.659797 0.294045
vt 0.605960 0.333478
vt 0.612513 0.333478
vt 0.605960 0.336573
vt 0.625972 0.313850
vt 0.619419 0.313850
vt 0.619419 0.320216
vt 0.659797 0.294222
vt 0.662985 0.294222
vt 0.659797 0.300588
vt 0.612689 0.320216
vt 0.612689 0.313850
vt 0.619242 0.313850
vt 0.639608 0.287679
vt 0.639608 0.294045
vt 0.646161 0.287679
vt 0.612513 0.313850
vt 0.605960 0.313850
vt 0.605960 0.320216
vt 0.619301 0.320275
vt 0.612748 0.320275
vt 0.619301 0.313909
vt 0.619478 0.320275
vt 0.626031 0.320275
vt 0.626031 0.313909
vt 0.632761 0.320275
vt 0.632761 0.313909
vt 0.626208 0.320275
vt 0.659856 0.300647
vt 0.663044 0.300647
vt 0.663044 0.294281
vt 0.639608 0.281136
vt 0.646161 0.281136
vt 0.639608 0.287502
vt 0.639667 0.287561
vt 0.646220 0.287561
vt 0.646220 0.281195
vt 0.632878 0.307307
vt 0.639431 0.307307
vt 0.632878 0.313673
vt 0.612748 0.307189
vt 0.619301 0.307189
vt 0.619301 0.300824
vt 0.626149 0.307307
vt 0.632702 0.307307
vt 0.626149 0.313673
vt 0.626208 0.313732
vt 0.632761 0.313732
vt 0.632761 0.307366
vt 0.646338 0.336573
vt 0.646338 0.333478
vt 0.652891 0.333478
vt 0.659797 0.313850
vt 0.662985 0.313850
vt 0.659797 0.320216
vt 0.612572 0.287738
vt 0.612572 0.290833
vt 0.609384 0.290833
vt 0.663044 0.320275
vt 0.659856 0.320275
vt 0.663044 0.313909
vt 0.609207 0.287738
vt 0.609207 0.290833
vt 0.606019 0.290833
vt 0.659679 0.333360
vt 0.659679 0.330266
vt 0.653126 0.333360
vt 0.659679 0.313909
vt 0.656491 0.320275
vt 0.659679 0.320275
vt 0.653067 0.333478
vt 0.653067 0.336573
vt 0.659620 0.333478
vt 0.606019 0.336632
vt 0.612572 0.336632
vt 0.612572 0.333537
vt 0.663044 0.307189
vt 0.659856 0.307189
vt 0.663044 0.300824
vt 0.659679 0.284467
vt 0.659679 0.287561
vt 0.656491 0.287561
vt 0.656314 0.313732
vt 0.656314 0.307366
vt 0.653126 0.313732
vt 0.612572 0.320452
vt 0.612572 0.326818
vt 0.606019 0.326818
vt 0.663044 0.333360
vt 0.663044 0.326994
vt 0.661538 0.333360
vt 0.639667 0.313732
vt 0.646220 0.313732
vt 0.646220 0.307366
vt 0.632761 0.294281
vt 0.626208 0.300647
vt 0.632761 0.300647
vt 0.659679 0.281195
vt 0.659679 0.284290
vt 0.656491 0.284290
vt 0.632878 0.294222
vt 0.639431 0.294222
vt 0.632878 0.300588
vt 0.619419 0.313673
vt 0.619419 0.307307
vt 0.625972 0.307307
vt 0.626031 0.313732
vt 0.619478 0.313732
vt 0.626031 0.307366
vt 0.639490 0.294281
vt 0.639490 0.300647
vt 0.632937 0.300647
vt 0.639490 0.320275
vt 0.639490 0.313909
vt 0.632937 0.320275
vt 0.659856 0.294104
vt 0.663044 0.294104
vt 0.663044 0.287738
vt 0.652949 0.333537
vt 0.646397 0.336632
vt 0.652949 0.336632
vt 0.616054 0.294222
vt 0.616054 0.297316
vt 0.619242 0.294222
vt 0.659797 0.287502
vt 0.659797 0.281136
vt 0.662985 0.281136
vt 0.619301 0.297375
vt 0.616113 0.297375
vt 0.619301 0.294281
vt 0.646397 0.333360
vt 0.652949 0.333360
vt 0.652949 0.330266
vt 0.632878 0.287679
vt 0.639431 0.287679
vt 0.632878 0.294045
vt 0.639490 0.287738
vt 0.639490 0.294104
vt 0.632937 0.294104
vt 0.646220 0.294104
vt 0.639667 0.294104
vt 0.646220 0.287738
vt 0.612572 0.313909
vt 0.612572 0.320275
vt 0.606019 0.320275
vt 0.614254 0.297375
vt 0.614254 0.294281
vt 0.612748 0.297375
vt 0.605960 0.313673
vt 0.605960 0.307307
vt 0.612513 0.307307
vt 0.612572 0.313732
vt 0.606019 0.313732
vt 0.612572 0.307366
vt 0.656491 0.300647
vt 0.659679 0.300647
vt 0.659679 0.294281
vt 0.652949 0.294104
vt 0.652949 0.287738
vt 0.646397 0.294104
vt 0.639490 0.307366
vt 0.639490 0.313732
vt 0.632937 0.313732
vt 0.646220 0.300647
vt 0.646220 0.294281
vt 0.639667 0.300647
vt 0.619419 0.333301
vt 0.619419 0.330207
vt 0.625972 0.330207
vt 0.619419 0.300765
vt 0.619419 0.307130
vt 0.625972 0.300765
vt 0.619478 0.326818
vt 0.626031 0.326818
vt 0.626031 0.320452
vt 0.659679 0.307189
vt 0.656491 0.307189
vt 0.659679 0.300824
vt 0.659679 0.333537
vt 0.659679 0.336632
vt 0.653126 0.336632
vt 0.626149 0.287679
vt 0.626149 0.294045
vt 0.632702 0.287679
vt 0.619478 0.307189
vt 0.626031 0.307189
vt 0.626031 0.300824
vt 0.663044 0.287561
vt 0.659856 0.287561
vt 0.663044 0.281195
vt 0.626031 0.330266
vt 0.626031 0.333360
vt 0.619478 0.333360
vt 0.632761 0.294104
vt 0.632761 0.287738
vt 0.626208 0.294104
vt 0.632702 0.281136
vt 0.626149 0.281136
vt 0.626149 0.287502
s 1
g off
g Low_Material.001
usemtl Material.001
f 1/1/1 2/2/1 3/3/2
f 1/4/1 3/5/2 4/6/3
f 1/7/1 4/8/3 5/9/1
s 0
f 6/10/4 7/11/4 8/12/4
f 6/13/4 8/14/4 9/15/4
f 6/16/4 9/17/4 10/18/4
s 5
f 11/19/5 12/20/6 13/21/7
f 11/22/5 13/23/7 14/24/8
f 11/25/5 14/26/8 15/27/9
s 6
f 16/28/10 17/29/11 18/30/12
f 16/31/10 18/32/12 19/33/13
f 16/34/10 19/35/13 20/36/14
s 0
f 21/37/15 22/38/15 23/39/15
f 21/40/15 23/41/15 24/42/15
f 21/43/15 24/44/15 25/45/15
s 10
f 26/46/16 27/47/17 28/48/18
f 26/49/16 28/50/18 29/51/18
f 26/52/16 29/53/18 30/54/17
s 11
f 31/55/19 32/56/20 33/57/21
f 31/58/19 33/59/21 34/60/22
f 31/61/19 34/62/22 35/63/23
s 1
f 36/64/24 37/65/25 39/66/24
f 37/67/25 38/68/25 39/69/24
s 12
f 40/70/26 41/71/27 43/72/26
f 41/73/27 42/74/28 43/75/26
s 13
f 44/76/29 45/77/30 47/78/31
f 45/79/30 46/80/32 47/81/31
s 14
f 48/82/33 49/83/34 51/84/35
f 49/85/34 50/86/34 51/87/35
s 1
f 37/88/25 52/89/36 38/90/25
s 15
f 53/91/37 54/92/37 55/93/38
s 1
f 56/94/39 36/95/24 57/96/40
f 36/97/24 39/98/24 57/99/40
s 16
f 58/100/41 59/101/42 61/102/43
f 59/103/42 60/104/43 61/105/43
s 15
f 62/106/44 63/107/45 65/108/46
f 63/109/45 64/110/47 65/111/46
s 12
f 41/112/27 66/113/48 42/114/28
f 66/115/48 67/116/48 42/117/28
s 15
f 68/118/49 62/119/44 69/120/49
f 62/121/44 65/122/46 69/123/49
s 16
f 58/124/41 70/125/50 59/126/42
f 70/127/50 71/128/50 59/129/42
s 15
f 53/130/37 72/131/51 54/132/37
f 72/133/51 73/134/52 54/135/37
s 13
f 74/136/53 44/137/29 75/138/53
f 44/139/29 47/140/31 75/141/53
s 14
f 76/142/54 77/143/54 79/144/55
f 77/145/54 78/146/56 79/147/55
s 17
f 80/148/57 81/149/58 83/150/59
f 81/151/58 82/152/59 83/153/59
s 1
f 84/154/60 85/155/60 57/156/40
f 85/157/60 56/158/39 57/159/40
s 18
f 86/160/61 87/161/62 89/162/61
f 87/163/62 88/164/62 89/165/61
s 19
f 90/166/63 91/167/64 93/168/65
f 91/169/64 92/170/65 93/171/65
s 12
f 40/172/26 43/173/26 95/174/66
f 43/175/26 94/176/67 95/177/66
s 15
f 96/178/68 73/179/52 63/180/45
s 14
f 76/181/54 97/182/69 77/183/54
f 97/184/69 98/185/69 77/186/54
s 20
f 99/187/70 100/188/71 91/189/63
f 100/190/71 101/191/72 91/192/63
s 1
f 84/193/60 4/194/3 85/195/60
f 4/196/3 3/197/2 85/198/60
s 16
f 70/199/50 102/200/73 71/201/50
s 17
f 80/202/57 103/203/74 81/204/58
f 103/205/74 104/206/75 81/207/58
s 15
f 72/208/51 64/209/47 73/210/52
f 64/211/47 63/212/45 73/213/52
f 96/214/68 105/215/76 73/216/52
f 105/217/76 106/218/77 73/219/52
f 105/220/76 107/221/78 106/222/77
f 107/223/78 108/224/78 106/225/77
s 14
f 49/226/34 79/227/55 50/228/34
f 79/229/55 78/230/56 50/231/34
s 13
f 109/232/79 74/233/53 110/234/80
f 74/235/53 75/236/53 110/237/80
s 21
f 111/238/81 112/239/82 114/240/83
f 112/241/82 113/242/82 114/243/83
s 22
f 115/244/84 116/245/85 118/246/86
f 116/247/85 117/248/85 118/249/86
s 23
f 119/250/87 120/251/88 122/252/89
f 120/253/88 121/254/88 122/255/89
s 24
f 123/256/90 124/257/91 126/258/90
f 124/259/91 125/260/91 126/261/90
s 0
f 127/262/92 128/263/92 130/264/92
f 128/265/92 129/266/92 130/267/92
f 131/268/93 132/269/93 134/270/93
f 132/271/93 133/272/93 134/273/93
s 24
f 135/274/94 136/275/95 138/276/94
f 136/277/95 137/278/95 138/279/94
s 23
f 139/280/96 140/281/97 142/282/98
f 140/283/97 141/284/97 142/285/98
s 22
f 143/286/99 144/287/100 146/288/99
f 144/289/100 145/290/100 146/291/99
s 21
f 147/292/101 148/293/102 150/294/103
f 148/295/102 149/296/104 150/297/103
s 29
f 151/298/105 152/299/106 154/300/105
f 152/301/106 153/302/106 154/303/105
s 30
f 155/304/107 156/305/98 158/306/108
f 156/307/98 157/308/98 158/309/108
s 22
f 159/310/109 143/311/99 160/312/110
f 143/313/99 146/314/99 160/315/110
s 21
f 161/316/111 147/317/101 162/318/112
f 147/319/101 150/320/103 162/321/112
s 23
f 163/322/113 141/323/97 164/324/113
f 141/325/97 140/326/97 164/327/113
f 165/328/114 163/329/113 166/330/114
f 163/331/113 164/332/113 166/333/114
f 120/334/88 165/335/114 121/336/88
f 165/337/114 166/338/114 121/339/88
s 22
f 167/340/115 145/341/100 168/342/115
f 145/343/100 144/344/100 168/345/115
f 169/346/116 167/347/115 170/348/117
f 167/349/115 168/350/115 170/351/117
f 116/352/85 169/353/116 117/354/85
f 169/355/116 170/356/117 117/357/85
s 21
f 171/358/118 149/359/104 172/360/119
f 149/361/104 148/362/102 172/363/119
f 173/364/120 171/365/118 174/366/120
f 171/367/118 172/368/119 174/369/120
f 112/370/82 173/371/120 113/372/82
f 173/373/120 174/374/120 113/375/82
s 24
f 175/376/121 137/377/95 176/378/122
f 137/379/95 136/380/95 176/381/122
f 177/382/123 175/383/121 178/384/124
f 175/385/121 176/386/122 178/387/124
f 124/388/91 177/389/123 125/390/91
f 177/391/123 178/392/124 125/393/91
s 6
f 179/394/125 17/395/11 16/396/10
s 0
f 180/397/126 181/398/126 182/399/126
f 183/400/127 184/401/127 185/402/127
s 33
f 186/403/128 187/404/126 189/405/129
f 187/406/126 188/407/126 189/408/129
s 34
f 190/409/130 191/410/130 193/411/131
f 191/412/130 192/413/131 193/414/131
s 6
f 194/415/132 195/416/133 197/417/132
f 195/418/133 196/419/133 197/420/132
s 35
f 198/421/134 199/422/135 201/423/136
f 199/424/135 200/425/135 201/426/136
s 34
f 192/427/131 202/428/137 193/429/131
f 202/430/137 203/431/137 193/432/131
s 0
f 190/433/130 204/434/130 191/435/130
f 204/436/130 205/437/130 191/438/130
f 183/439/127 206/440/127 184/441/127
f 206/442/127 207/443/127 184/444/127
s 6
f 208/445/138 209/446/139 211/447/140
f 209/448/139 210/449/139 211/450/140
f 212/451/141 213/452/141 215/453/142
f 213/454/141 214/455/143 215/456/142
s 35
f 216/457/144 217/458/144 219/459/145
f 217/460/144 218/461/146 219/462/145
s 33
f 220/463/147 221/464/147 189/465/129
f 221/466/147 186/467/128 189/468/129
s 6
f 222/469/148 223/470/148 197/471/132
f 223/472/148 194/473/132 197/474/132
f 224/475/149 225/476/150 227/477/151
f 225/478/150 226/479/151 227/480/151
s 35
f 228/481/152 229/482/152 201/483/136
f 229/484/152 198/485/134 201/486/136
s 0
f 230/487/153 231/488/153 232/489/153
f 199/490/135 233/491/135 200/492/135
f 233/493/135 234/494/135 200/495/135
f 202/496/137 235/497/137 203/498/137
f 235/499/137 236/500/137 203/501/137
s 45
f 237/502/154 238/503/155 240/504/154
f 238/505/155 239/506/156 240/507/154
s 6
f 241/508/12 227/509/151 242/510/12
f 227/511/151 226/512/151 242/513/12
f 195/514/133 20/515/14 196/516/133
f 20/517/14 19/518/13 196/519/133
s 46
f 206/520/127 243/521/157 207/522/127
f 243/523/157 244/524/157 207/525/127
s 0
f 230/526/153 245/527/153 231/528/153
f 245/529/153 246/530/153 231/531/153
s 45
f 247/532/158 248/533/159 250/534/160
f 248/535/159 249/536/161 250/537/160
s 6
f 251/538/162 215/539/142 252/540/163
f 215/541/142 214/542/143 252/543/163
f 253/544/164 208/545/138 254/546/165
f 208/547/138 211/548/140 254/549/165
s 0
f 187/550/126 180/551/126 188/552/126
f 180/553/126 182/554/126 188/555/126
f 204/556/130 255/557/130 205/558/130
s 45
f 248/559/159 237/560/154 249/561/161
f 237/562/154 240/563/154 249/564/161
s 6
f 18/565/12 241/566/12 19/567/13
f 241/568/12 242/569/12 19/570/13
s 35
f 256/571/166 219/572/145 257/573/167
f 219/574/145 218/575/146 257/576/167
s 46
f 258/577/168 244/578/157 259/579/168
f 244/580/157 243/581/157 259/582/168
s 0
f 260/583/168 258/584/168 261/585/168
f 258/586/168 259/587/168 261/588/168
f 220/589/147 262/590/147 221/591/147
f 262/592/147 263/593/147 221/594/147
s 45
f 245/595/153 239/596/156 246/597/153
f 239/598/156 238/599/155 246/600/153
s 0
f 216/601/144 264/602/144 217/603/144
f 264/604/144 265/605/144 217/606/144
s 6
f 224/607/149 253/608/164 225/609/150
f 253/610/164 254/611/165 225/612/150
s 0
f 212/613/141 266/614/141 213/615/141
f 266/616/141 267/617/141 213/618/141
s 6
f 222/619/148 251/620/162 223/621/148
f 251/622/162 252/623/163 223/624/148
s 0
f 209/625/139 268/626/139 210/627/139
f 268/628/139 269/629/139 210/630/139
s 35
f 228/631/152 256/632/166 229/633/152
f 256/634/166 257/635/167 229/636/152
s 11
f 270/637/169 32/638/20 31/639/19
s 0
f 271/640/170 272/641/170 273/642/170
f 274/643/171 275/644/171 276/645/171
s 64
f 277/646/172 278/647/170 280/648/172
f 278/649/170 279/650/170 280/651/172
s 65
f 281/652/173 282/653/173 284/654/174
f 282/655/173 283/656/174 284/657/174
s 11
f 285/658/175 286/659/176 288/660/175
f 286/661/176 287/662/176 288/663/175
s 66
f 289/664/177 290/665/178 292/666/177
f 290/667/178 291/668/178 292/669/177
s 65
f 283/670/174 293/671/179 284/672/174
f 293/673/179 294/674/179 284/675/174
s 0
f 281/676/173 295/677/173 282/678/173
f 295/679/173 296/680/173 282/681/173
f 274/682/171 297/683/171 275/684/171
f 297/685/171 298/686/171 275/687/171
s 11
f 299/688/180 300/689/181 302/690/182
f 300/691/181 301/692/181 302/693/182
f 303/694/183 304/695/183 306/696/184
f 304/697/183 305/698/184 306/699/184
s 66
f 307/700/185 308/701/185 310/702/186
f 308/703/185 309/704/186 310/705/186
s 64
f 311/706/187 312/707/187 280/708/172
f 312/709/187 277/710/172 280/711/172
s 11
f 313/712/188 314/713/189 288/714/175
f 314/715/189 285/716/175 288/717/175
f 315/718/190 316/719/191 318/720/192
f 316/721/191 317/722/192 318/723/192
s 66
f 319/724/193 320/725/193 292/726/177
f 320/727/193 289/728/177 292/729/177
s 0
f 321/730/194 322/731/194 323/732/194
f 290/733/178 324/734/178 291/735/178
f 324/736/178 325/737/178 291/738/178
f 293/739/179 326/740/179 294/741/179
f 326/742/179 327/743/179 294/744/179
s 76
f 328/745/195 329/746/196 331/747/195
f 329/748/196 330/749/196 331/750/195
s 11
f 332/751/21 318/752/192 333/753/21
f 318/754/192 317/755/192 333/756/21
f 286/757/176 35/758/23 287/759/176
f 35/760/23 34/761/22 287/762/176
s 77
f 297/763/171 334/764/197 298/765/171
f 334/766/197 335/767/197 298/768/171
s 0
f 321/769/194 336/770/194 322/771/194
f 336/772/194 337/773/194 322/774/194
s 76
f 338/775/198 339/776/199 341/777/198
f 339/778/199 340/779/199 341/780/198
s 11
f 342/781/200 306/782/184 343/783/201
f 306/784/184 305/785/184 343/786/201
f 344/787/202 299/788/180 345/789/202
f 299/790/180 302/791/182 345/792/202
s 0
f 278/793/170 271/794/170 279/795/170
f 271/796/170 273/797/170 279/798/170
f 295/799/173 346/800/173 296/801/173
s 76
f 339/802/199 328/803/195 340/804/199
f 328/805/195 331/806/195 340/807/199
s 11
f 33/808/21 332/809/21 34/810/22
f 332/811/21 333/812/21 34/813/22
s 66
f 347/814/203 310/815/186 348/816/204
f 310/817/186 309/818/186 348/819/204
s 77
f 349/820/205 335/821/197 350/822/205
f 335/823/197 334/824/197 350/825/205
s 0
f 351/826/205 349/827/205 352/828/205
f 349/829/205 350/830/205 352/831/205
f 311/832/187 353/833/187 312/834/187
f 353/835/187 354/836/187 312/837/187
s 76
f 336/838/194 330/839/196 337/840/194
f 330/841/196 329/842/196 337/843/194
s 0
f 307/844/185 355/845/185 308/846/185
f 355/847/185 356/848/185 308/849/185
s 11
f 315/850/190 344/851/202 316/852/191
f 344/853/202 345/854/202 316/855/191
s 0
f 303/856/183 357/857/183 304/858/183
f 357/859/183 358/860/183 304/861/183
s 11
f 313/862/188 342/863/200 314/864/189
f 342/865/200 343/866/201 314/867/189
s 0
f 300/868/181 359/869/181 301/870/181
f 359/871/181 360/872/181 301/873/181
s 66
f 319/874/193 347/875/203 320/876/193
f 347/877/203 348/878/204 320/879/193
