# Blender 5.0.1
# www.blender.org
mtllib joyasCrash.mtl
g prefab_ui_3d_gem_blue_prefab_ui_3d_gem_blue
v -0.164466 0.248874 -0.175620
v -0.350153 0.338682 -0.207169
v -0.389692 0.243750 -0.388732
v -0.389692 0.243750 -0.388732
v -0.350153 0.338682 -0.207169
v -0.542868 0.335573 -0.280814
v -0.389692 0.243750 -0.388732
v -0.542868 0.335573 -0.280814
v -0.699665 0.240241 -0.380145
v -0.699665 0.240241 -0.380145
v -0.542868 0.335573 -0.280814
v -0.731231 0.334367 -0.196612
v -0.699665 0.240241 -0.380145
v -0.731231 0.334367 -0.196612
v -0.912808 0.240401 -0.154890
v -0.912808 0.240401 -0.154890
v -0.731231 0.334367 -0.196612
v -0.804903 0.335770 -0.003888
v -0.912808 0.240401 -0.154890
v -0.804903 0.335770 -0.003888
v -0.904263 0.244138 0.155082
v -0.904263 0.244138 0.155082
v -0.804903 0.335770 -0.003888
v -0.720726 0.338961 0.184464
v -0.904263 0.244138 0.155082
v -0.720726 0.338961 0.184464
v -0.679037 0.249262 0.368194
v -0.679037 0.249262 0.368194
v -0.720726 0.338961 0.184464
v -0.528012 0.342070 0.258109
v -0.679037 0.249262 0.368194
v -0.528012 0.342070 0.258109
v -0.369064 0.252771 0.359607
v -0.369064 0.252771 0.359607
v -0.528012 0.342070 0.258109
v -0.339648 0.343275 0.173908
v -0.369064 0.252771 0.359607
v -0.339648 0.343275 0.173908
v -0.155921 0.252611 0.134352
v -0.155921 0.252611 0.134352
v -0.339648 0.343275 0.173908
v -0.265977 0.341872 -0.018817
v -0.155921 0.252611 0.134352
v -0.265977 0.341872 -0.018817
v -0.164466 0.248874 -0.175620
v -0.164466 0.248874 -0.175620
v -0.265977 0.341872 -0.018817
v -0.350153 0.338682 -0.207169
v -0.518168 0.048917 -0.044312
v -0.531981 0.041853 -0.007868
v -0.496531 0.049409 -0.023839
v -0.496531 0.049409 -0.023839
v -0.531981 0.041853 -0.007868
v -0.495710 0.049768 0.005940
v -0.495710 0.049768 0.005940
v -0.531981 0.041853 -0.007868
v -0.516186 0.049784 0.027579
v -0.516186 0.049784 0.027579
v -0.531981 0.041853 -0.007868
v -0.545965 0.049447 0.028404
v -0.545965 0.049447 0.028404
v -0.531981 0.041853 -0.007868
v -0.567602 0.048955 0.007931
v -0.567602 0.048955 0.007931
v -0.531981 0.041853 -0.007868
v -0.568422 0.048596 -0.021847
v -0.568422 0.048596 -0.021847
v -0.531981 0.041853 -0.007868
v -0.547946 0.048580 -0.043487
v -0.547946 0.048580 -0.043487
v -0.531981 0.041853 -0.007868
v -0.518168 0.048917 -0.044312
v -0.167731 0.224900 -0.173755
v -0.390799 0.219825 -0.384824
v -0.496531 0.049409 -0.023839
v -0.518168 0.048917 -0.044312
v -0.547946 0.048580 -0.043487
v -0.390799 0.219825 -0.384824
v -0.697802 0.216349 -0.376319
v -0.518168 0.048917 -0.044312
v -0.547946 0.048580 -0.043487
v -0.697802 0.216349 -0.376319
v -0.908902 0.216508 -0.153223
v -0.568422 0.048596 -0.021847
v -0.908902 0.216508 -0.153223
v -0.900440 0.220209 0.153779
v -0.567602 0.048955 0.007931
v -0.568422 0.048596 -0.021847
v -0.677372 0.225284 0.364848
v -0.545965 0.049447 0.028404
v -0.567602 0.048955 0.007931
v -0.900440 0.220209 0.153779
v -0.159269 0.228601 0.133247
v -0.495710 0.049768 0.005940
v -0.516186 0.049784 0.027579
v -0.370369 0.228760 0.356344
v -0.159269 0.228601 0.133247
v -0.496531 0.049409 -0.023839
v -0.495710 0.049768 0.005940
v -0.167731 0.224900 -0.173755
v -0.677372 0.225284 0.364848
v -0.370369 0.228760 0.356344
v -0.516186 0.049784 0.027579
v -0.545965 0.049447 0.028404
v -0.164466 0.248874 -0.175620
v -0.159269 0.228601 0.133247
v -0.155921 0.252611 0.134352
v -0.167731 0.224900 -0.173755
v -0.369064 0.252771 0.359607
v -0.155921 0.252611 0.134352
v -0.159269 0.228601 0.133247
v -0.370369 0.228760 0.356344
v -0.369064 0.252771 0.359607
v -0.677372 0.225284 0.364848
v -0.679037 0.249262 0.368194
v -0.370369 0.228760 0.356344
v -0.904263 0.244138 0.155082
v -0.679037 0.249262 0.368194
v -0.677372 0.225284 0.364848
v -0.900440 0.220209 0.153779
v -0.904263 0.244138 0.155082
v -0.908902 0.216508 -0.153223
v -0.912808 0.240401 -0.154890
v -0.900440 0.220209 0.153779
v -0.699665 0.240241 -0.380145
v -0.912808 0.240401 -0.154890
v -0.908902 0.216508 -0.153223
v -0.697802 0.216349 -0.376319
v -0.390799 0.219825 -0.384824
v -0.389692 0.243750 -0.388732
v -0.699665 0.240241 -0.380145
v -0.697802 0.216349 -0.376319
v -0.164466 0.248874 -0.175620
v -0.389692 0.243750 -0.388732
v -0.390799 0.219825 -0.384824
v -0.167731 0.224900 -0.173755
v -0.265977 0.341872 -0.018817
v -0.535440 0.338821 -0.011352
v -0.350153 0.338682 -0.207169
v -0.339648 0.343275 0.173908
v -0.542868 0.335573 -0.280814
v -0.528012 0.342070 0.258109
v -0.731231 0.334367 -0.196612
v -0.720726 0.338961 0.184464
v -0.804903 0.335770 -0.003888
vn 0.4457 0.7498 -0.4891
vn 0.1717 0.8572 -0.4856
vn -0.0270 0.7421 -0.6697
vn -0.2177 0.8528 -0.4748
vn -0.4890 0.7392 -0.4632
vn -0.4855 0.8530 -0.1918
vn -0.6696 0.7426 0.0095
vn -0.4747 0.8576 0.1976
vn -0.4632 0.7504 0.4715
vn -0.1918 0.8641 0.4654
vn 0.0095 0.7581 0.6521
vn 0.1976 0.8685 0.4546
vn 0.4715 0.7610 0.4456
vn 0.4654 0.8683 0.1716
vn 0.6522 0.7576 -0.0271
vn 0.4547 0.8636 -0.2178
vn 0.1487 -0.9798 -0.1336
vn 0.2110 -0.9775 0.0060
vn 0.1565 -0.9764 0.1487
vn 0.0169 -0.9773 0.2111
vn -0.1259 -0.9796 0.1566
vn -0.1882 -0.9820 0.0170
vn -0.1336 -0.9830 -0.1258
vn 0.0059 -0.9821 -0.1881
vn 0.3264 -0.8881 -0.3236
vn -0.0022 -0.8935 -0.4490
vn -0.0023 -0.8934 -0.4493
vn -0.3236 -0.8956 -0.3054
vn -0.3237 -0.8954 -0.3056
vn -0.4494 -0.8931 0.0232
vn -0.3058 -0.8876 0.3445
vn -0.3055 -0.8878 0.3444
vn 0.3444 -0.8802 0.3265
vn 0.4698 -0.8828 -0.0022
vn 0.4700 -0.8826 -0.0023
vn 0.0230 -0.8823 0.4701
vn 0.0229 -0.8825 0.4698
vn 0.9903 -0.1369 -0.0256
vn 0.7200 -0.1317 0.6814
vn 0.0290 -0.1362 0.9903
vn -0.6780 -0.1476 0.7201
vn -0.9868 -0.1593 0.0291
vn -0.7165 -0.1644 -0.6779
vn -0.0255 -0.1600 -0.9868
vn 0.6815 -0.1486 -0.7166
vn -0.0116 0.9999 -0.0117
vt 0.536133 0.762695
vt 0.653320 0.823730
vt 0.600586 0.968262
vt 0.558105 0.606445
vt 0.424805 0.552246
vt 0.397949 0.414062
vt 0.237183 0.407715
vt 0.218750 0.301758
vt 0.047699 0.331787
vt 0.336426 0.166748
vt 0.265137 0.038849
vt 0.389404 0.022385
vt 0.453613 0.227783
vt 0.431641 0.383789
vt 0.564941 0.438232
vt 0.591797 0.576172
vt 0.752441 0.583008
vt 0.770996 0.688965
vt 0.941895 0.659180
vt 0.724609 0.951660
vt 0.212402 0.851074
vt 0.142212 0.791992
vt 0.204712 0.806152
vt 0.851562 0.262939
vt 0.847656 0.198730
vt 0.895020 0.277588
vt 0.809082 0.231689
vt 0.785156 0.184570
vt 0.777344 0.139282
vt 0.138306 0.727539
vt 0.094788 0.713379
vt 0.180786 0.758789
vt 0.479248 0.781738
vt 0.482422 0.973145
vt 0.385254 0.584473
vt 0.205444 0.459717
vt 0.016724 0.428955
vt 0.510742 0.208496
vt 0.507324 0.017532
vt 0.784180 0.530762
vt 0.604492 0.406006
vt 0.973145 0.561523
vt 0.024216 0.104126
vt 0.152710 0.150391
vt 0.029190 0.208618
vt 0.106567 0.278809
vt 0.094543 0.026779
vt 0.210938 0.273926
vt 0.198975 0.021805
vt 0.281250 0.196533
vt 0.276367 0.092102
s 1
g off
g prefab_ui_3d_gem_blue_Material.005
usemtl Material.005
f 3/1/1 2/2/1 1/3/1
f 6/4/2 5/2/2 4/1/2
f 9/5/3 8/4/3 7/1/3
f 12/6/4 11/4/4 10/5/4
f 15/7/5 14/6/5 13/5/5
f 18/8/6 17/6/6 16/7/6
f 21/9/7 20/8/7 19/7/7
f 24/10/8 23/11/8 22/12/8
f 27/13/9 26/10/9 25/12/9
f 30/14/10 29/10/10 28/13/10
f 33/15/11 32/14/11 31/13/11
f 36/16/12 35/14/12 34/15/12
f 39/17/13 38/16/13 37/15/13
f 42/18/14 41/16/14 40/17/14
f 45/19/15 44/18/15 43/17/15
f 48/2/16 47/20/16 46/3/16
f 51/21/17 50/22/17 49/23/17
f 54/24/18 53/25/18 52/26/18
f 57/27/19 56/25/19 55/24/19
f 60/28/20 59/25/20 58/27/20
f 63/29/21 62/25/21 61/28/21
f 66/30/22 65/22/22 64/31/22
f 69/32/23 68/22/23 67/30/23
f 72/23/24 71/22/24 70/32/24
f 75/21/25 74/33/25 73/34/25
f 75/21/25 76/23/25 74/33/25
f 79/35/26 78/33/27 77/32/27
f 78/33/27 80/23/27 77/32/27
f 83/36/28 82/35/29 81/32/29
f 81/32/29 84/30/29 83/36/28
f 87/31/30 86/37/30 85/36/30
f 85/36/30 88/30/30 87/31/30
f 91/29/31 90/28/32 89/38/31
f 89/38/31 92/39/31 91/29/31
f 95/27/33 94/24/33 93/40/33
f 93/40/33 96/41/33 95/27/33
f 99/24/34 98/26/35 97/40/35
f 100/42/35 97/40/35 98/26/35
f 103/27/36 102/41/37 101/38/36
f 101/38/36 104/28/36 103/27/36
f 107/17/38 106/40/38 105/19/38
f 106/40/38 108/42/38 105/19/38
f 111/40/39 110/17/39 109/15/39
f 109/15/39 112/41/39 111/40/39
f 115/13/40 114/38/40 113/15/40
f 114/38/40 116/41/40 113/15/40
f 119/38/41 118/13/41 117/12/41
f 117/12/41 120/39/41 119/38/41
f 123/7/42 122/36/42 121/9/42
f 122/36/42 124/37/42 121/9/42
f 127/36/43 126/7/43 125/5/43
f 125/5/43 128/35/43 127/36/43
f 131/5/44 130/1/44 129/33/44
f 129/33/44 132/35/44 131/5/44
f 135/33/45 134/1/45 133/3/45
f 133/3/45 136/34/45 135/33/45
f 139/43/46 138/44/46 137/45/46
f 137/45/46 138/44/46 140/46/46
f 141/47/46 138/44/46 139/43/46
f 140/46/46 138/44/46 142/48/46
f 143/49/46 138/44/46 141/47/46
f 142/48/46 138/44/46 144/50/46
f 145/51/46 138/44/46 143/49/46
f 144/50/46 138/44/46 145/51/46
g prefab_ui_3d_gem_green_prefab_ui_3d_gem_green
v 0.521356 0.006013 -0.123138
v 0.734618 0.186999 -0.150549
v 0.541260 0.189440 -0.335144
v 0.409426 0.007333 -0.166488
v 0.541260 0.189440 -0.335144
v 0.274013 0.192432 -0.328937
v 0.299627 0.008495 -0.117989
v 0.274013 0.192432 -0.328937
v 0.089427 0.194223 -0.135565
v 0.304773 0.008114 0.103754
v 0.256278 0.008819 -0.006051
v 0.095629 0.193764 0.131698
v 0.304773 0.008114 0.103754
v 0.095629 0.193764 0.131698
v 0.288986 0.191324 0.316293
v 0.526502 0.005632 0.098605
v 0.556233 0.188332 0.310087
v 0.740819 0.186541 0.116715
v 0.569851 0.005308 -0.013333
v 0.740819 0.186541 0.116715
v 0.734618 0.186999 -0.150549
v 0.726081 0.229381 -0.146507
v 0.587608 0.314333 -0.188459
v 0.538177 0.231753 -0.325895
v 0.538177 0.231753 -0.325895
v 0.587608 0.314333 -0.188459
v 0.410786 0.316419 -0.256941
v 0.538177 0.231753 -0.325895
v 0.410786 0.316419 -0.256941
v 0.278468 0.234660 -0.319863
v 0.278468 0.234660 -0.319863
v 0.410786 0.316419 -0.256941
v 0.237331 0.318255 -0.180324
v 0.278468 0.234660 -0.319863
v 0.237331 0.318255 -0.180324
v 0.099088 0.236401 -0.131945
v 0.099088 0.236401 -0.131945
v 0.237331 0.318255 -0.180324
v 0.168850 0.318767 -0.003490
v 0.099088 0.236401 -0.131945
v 0.168850 0.318767 -0.003490
v 0.105115 0.235955 0.127779
v 0.105115 0.235955 0.127779
v 0.168850 0.318767 -0.003490
v 0.245459 0.317654 0.169975
v 0.105115 0.235955 0.127779
v 0.245459 0.317654 0.169975
v 0.293019 0.233584 0.307168
v 0.293019 0.233584 0.307168
v 0.245459 0.317654 0.169975
v 0.422282 0.315568 0.238457
v 0.293019 0.233584 0.307168
v 0.422282 0.315568 0.238457
v 0.552728 0.230676 0.301136
v 0.552728 0.230676 0.301136
v 0.422282 0.315568 0.238457
v 0.595737 0.313732 0.161840
v 0.552728 0.230676 0.301136
v 0.595737 0.313732 0.161840
v 0.732108 0.228935 0.113218
v 0.732108 0.228935 0.113218
v 0.595737 0.313732 0.161840
v 0.664217 0.313220 -0.014995
v 0.732108 0.228935 0.113218
v 0.664217 0.313220 -0.014995
v 0.726081 0.229381 -0.146507
v 0.726081 0.229381 -0.146507
v 0.664217 0.313220 -0.014995
v 0.587608 0.314333 -0.188459
v 0.409426 0.007333 -0.166488
v 0.412767 -0.019462 -0.009731
v 0.521356 0.006013 -0.123138
v 0.521356 0.006013 -0.123138
v 0.412767 -0.019462 -0.009731
v 0.569851 0.005308 -0.013333
v 0.569851 0.005308 -0.013333
v 0.412767 -0.019462 -0.009731
v 0.526502 0.005632 0.098605
v 0.526502 0.005632 0.098605
v 0.412767 -0.019462 -0.009731
v 0.416703 0.006794 0.147104
v 0.416703 0.006794 0.147104
v 0.412767 -0.019462 -0.009731
v 0.304773 0.008114 0.103754
v 0.304773 0.008114 0.103754
v 0.412767 -0.019462 -0.009731
v 0.256278 0.008819 -0.006051
v 0.256278 0.008819 -0.006051
v 0.412767 -0.019462 -0.009731
v 0.299627 0.008495 -0.117989
v 0.299627 0.008495 -0.117989
v 0.412767 -0.019462 -0.009731
v 0.409426 0.007333 -0.166488
v 0.288986 0.191324 0.316293
v 0.556233 0.188332 0.310087
v 0.416703 0.006794 0.147104
v 0.409426 0.007333 -0.166488
v 0.274013 0.192432 -0.328937
v 0.299627 0.008495 -0.117989
v 0.299627 0.008495 -0.117989
v 0.089427 0.194223 -0.135565
v 0.256278 0.008819 -0.006051
v 0.095629 0.193764 0.131698
v 0.256278 0.008819 -0.006051
v 0.089427 0.194223 -0.135565
v 0.304773 0.008114 0.103754
v 0.288986 0.191324 0.316293
v 0.416703 0.006794 0.147104
v 0.416703 0.006794 0.147104
v 0.556233 0.188332 0.310087
v 0.526502 0.005632 0.098605
v 0.526502 0.005632 0.098605
v 0.740819 0.186541 0.116715
v 0.569851 0.005308 -0.013333
v 0.569851 0.005308 -0.013333
v 0.734618 0.186999 -0.150549
v 0.521356 0.006013 -0.123138
v 0.521356 0.006013 -0.123138
v 0.541260 0.189440 -0.335144
v 0.409426 0.007333 -0.166488
v 0.732108 0.228935 0.113218
v 0.726081 0.229381 -0.146507
v 0.734618 0.186999 -0.150549
v 0.740819 0.186541 0.116715
v 0.732108 0.228935 0.113218
v 0.556233 0.188332 0.310087
v 0.552728 0.230676 0.301136
v 0.740819 0.186541 0.116715
v 0.293019 0.233584 0.307168
v 0.552728 0.230676 0.301136
v 0.556233 0.188332 0.310087
v 0.288986 0.191324 0.316293
v 0.293019 0.233584 0.307168
v 0.095629 0.193764 0.131698
v 0.105115 0.235955 0.127779
v 0.288986 0.191324 0.316293
v 0.099088 0.236401 -0.131945
v 0.105115 0.235955 0.127779
v 0.095629 0.193764 0.131698
v 0.089427 0.194223 -0.135565
v 0.099088 0.236401 -0.131945
v 0.274013 0.192432 -0.328937
v 0.278468 0.234660 -0.319863
v 0.089427 0.194223 -0.135565
v 0.538177 0.231753 -0.325895
v 0.278468 0.234660 -0.319863
v 0.274013 0.192432 -0.328937
v 0.541260 0.189440 -0.335144
v 0.538177 0.231753 -0.325895
v 0.734618 0.186999 -0.150549
v 0.726081 0.229381 -0.146507
v 0.541260 0.189440 -0.335144
v 0.664217 0.313220 -0.014995
v 0.416534 0.315994 -0.009242
v 0.587608 0.314333 -0.188459
v 0.595737 0.313732 0.161840
v 0.410786 0.316419 -0.256941
v 0.422282 0.315568 0.238457
v 0.237331 0.318255 -0.180324
v 0.245459 0.317654 0.169975
v 0.168850 0.318767 -0.003490
vn 0.5045 -0.6758 -0.5374
vn -0.0247 -0.6696 -0.7423
vn -0.5439 -0.6641 -0.5130
vn -0.6188 -0.7382 0.2685
vn -0.5195 -0.6659 0.5354
vn 0.5288 -0.6776 0.5111
vn 0.7338 -0.6792 -0.0182
vn 0.5487 0.6146 -0.5667
vn 0.2264 0.7968 -0.5602
vn -0.0112 0.6212 -0.7836
vn -0.2343 0.8018 -0.5498
vn -0.5606 0.6270 -0.5409
vn -0.5524 0.8051 -0.2162
vn -0.7774 0.6287 0.0191
vn -0.5419 0.8041 0.2445
vn -0.5348 0.6251 0.5685
vn -0.2084 0.8001 0.5625
vn 0.0252 0.6185 0.7854
vn 0.2523 0.7947 0.5521
vn 0.5745 0.6127 0.5427
vn 0.5703 0.7918 0.2186
vn 0.7914 0.6111 -0.0173
vn 0.5600 0.7923 -0.2422
vn 0.0540 -0.9841 -0.1694
vn 0.1537 -0.9853 -0.0742
vn 0.1569 -0.9856 0.0636
vn 0.0617 -0.9846 0.1633
vn -0.0761 -0.9831 0.1665
vn -0.1758 -0.9818 0.0713
vn -0.1790 -0.9816 -0.0665
vn -0.0838 -0.9825 -0.1662
vn 0.0097 -0.6721 0.7404
vn -0.2780 -0.7407 -0.6116
vn -0.6310 -0.7370 -0.2422
vn -0.7488 -0.6626 0.0162
vn -0.2495 -0.7426 0.6216
vn 0.2614 -0.7483 0.6097
vn 0.6142 -0.7517 0.2400
vn 0.6024 -0.7508 -0.2709
vn 0.2328 -0.7462 -0.6237
vn 0.9796 0.1995 -0.0227
vn 0.9796 0.1995 -0.0224
vn 0.7094 0.2015 0.6753
vn 0.0250 0.2087 0.9777
vn -0.6729 0.2170 0.7072
vn -0.6730 0.2170 0.7071
vn -0.6726 0.2170 0.7074
vn -0.9749 0.2214 0.0230
vn -0.9749 0.2214 0.0233
vn -0.7047 0.2193 -0.6747
vn -0.7044 0.2194 -0.6751
vn -0.7045 0.2194 -0.6750
vn -0.0203 0.2121 -0.9770
vn -0.0207 0.2121 -0.9770
vn -0.0208 0.2121 -0.9770
vn 0.6774 0.2039 -0.7068
vn 0.6776 0.2039 -0.7066
vn 0.0112 0.9999 0.0015
vt 0.501953 0.204102
vt 0.482422 0.006546
vt 0.681152 0.101562
vt 0.607910 0.396484
vt 0.712402 0.218384
vt 0.782715 0.529297
vt 0.797363 0.310791
vt 0.488770 0.977539
vt 0.254150 0.959961
vt 0.289795 0.882324
vt 0.469482 0.779785
vt 0.188354 0.454590
vt 0.363037 0.587402
vt 0.173706 0.673340
vt 0.016174 0.366455
vt 0.067932 0.617188
vt 0.426270 0.237427
vt 0.310547 0.179077
vt 0.344482 0.039124
vt 0.420166 0.388184
vt 0.550781 0.443604
vt 0.579102 0.578125
vt 0.732422 0.600098
vt 0.744141 0.706055
vt 0.903320 0.708008
vt 0.660645 0.805176
vt 0.743652 0.930664
vt 0.626465 0.944824
vt 0.544922 0.746582
vt 0.551270 0.595703
vt 0.420166 0.540527
vt 0.392334 0.405762
vt 0.238892 0.384033
vt 0.226929 0.277832
vt 0.067993 0.275879
vt 0.227661 0.053284
vt 0.833496 0.161377
vt 0.716797 0.023880
vt 0.137695 0.822754
vt 0.259033 0.765625
vt 0.903320 0.366699
vt 0.955078 0.617676
vt 0.761230 0.921875
vt 0.862793 0.850586
vt 0.841309 0.973145
vt 0.934082 0.952637
vt 0.740723 0.829102
vt 0.985352 0.872070
vt 0.791504 0.749023
vt 0.964844 0.779297
vt 0.884277 0.728516
s 1
g off
g prefab_ui_3d_gem_green_Material.007
usemtl Material.007
f 148/52/47 147/53/47 146/54/47
f 151/55/48 150/52/48 149/56/48
f 154/57/49 153/55/49 152/58/49
f 157/59/50 156/60/50 155/61/50
f 160/62/51 159/59/51 158/61/51
f 163/63/52 162/64/52 161/65/52
f 166/66/53 165/63/53 164/67/53
f 169/68/54 168/69/54 167/70/54
f 172/71/55 171/69/55 170/68/55
f 175/72/56 174/71/56 173/68/56
f 178/73/57 177/71/57 176/72/57
f 181/74/58 180/73/58 179/72/58
f 184/75/59 183/73/59 182/74/59
f 187/76/60 186/75/60 185/74/60
f 190/77/61 189/78/61 188/79/61
f 193/80/62 192/77/62 191/79/62
f 196/81/63 195/77/63 194/80/63
f 199/82/64 198/81/64 197/80/64
f 202/83/65 201/81/65 200/82/65
f 205/84/66 204/83/66 203/82/66
f 208/85/67 207/83/67 206/84/67
f 211/86/68 210/85/68 209/84/68
f 214/69/69 213/87/69 212/70/69
f 217/54/70 216/88/70 215/56/70
f 220/89/71 219/88/71 218/54/71
f 223/65/72 222/90/72 221/67/72
f 226/91/73 225/90/73 224/65/73
f 229/61/74 228/90/74 227/91/74
f 232/60/75 231/90/75 230/61/75
f 235/58/76 234/88/76 233/92/76
f 238/56/77 237/88/77 236/58/77
f 241/91/78 240/64/78 239/62/78
f 244/58/79 243/55/79 242/56/79
f 247/92/80 246/57/80 245/58/80
f 250/57/81 249/92/81 248/93/81
f 253/91/82 252/62/82 251/61/82
f 256/65/83 255/64/83 254/91/83
f 259/67/84 258/63/84 257/65/84
f 262/54/85 261/53/85 260/89/85
f 265/56/86 264/52/86 263/54/86
f 268/66/87 267/86/88 266/84/87
f 266/84/87 269/63/87 268/66/87
f 272/82/89 271/64/89 270/84/89
f 271/64/89 273/63/89 270/84/89
f 276/64/90 275/82/90 274/80/90
f 274/80/90 277/62/90 276/64/90
f 280/79/91 279/59/91 278/80/92
f 279/59/91 281/62/93 278/80/92
f 284/93/94 283/76/94 282/74/95
f 282/74/95 285/57/95 284/93/94
f 288/72/96 287/55/97 286/74/98
f 287/55/97 289/57/97 286/74/98
f 292/55/99 291/72/99 290/68/100
f 290/68/100 293/52/101 292/55/99
f 296/70/102 295/53/102 294/68/103
f 295/53/102 297/52/103 294/68/103
f 300/94/104 299/95/104 298/96/104
f 298/96/104 299/95/104 301/97/104
f 302/98/104 299/95/104 300/94/104
f 301/97/104 299/95/104 303/99/104
f 304/100/104 299/95/104 302/98/104
f 303/99/104 299/95/104 305/101/104
f 306/102/104 299/95/104 304/100/104
f 305/101/104 299/95/104 306/102/104
g prefab_ui_3d_gem_purple_prefab_ui_3d_gem_purple
v 0.827924 -0.567642 -0.051934
v 0.728841 -0.258695 -0.181376
v 0.756707 -0.567023 -0.019578
v 0.756707 -0.567023 -0.019578
v 0.635064 -0.251638 0.068491
v 0.789066 -0.564718 0.051603
v 0.789066 -0.564718 0.051603
v 0.885027 -0.247570 0.162189
v 0.860284 -0.565337 0.019247
v 0.827924 -0.567642 -0.051934
v 0.808597 -0.586659 0.000451
v 0.860284 -0.565337 0.019247
v 0.860284 -0.565337 0.019247
v 0.808597 -0.586659 0.000451
v 0.789066 -0.564718 0.051603
v 0.789066 -0.564718 0.051603
v 0.808597 -0.586659 0.000451
v 0.756707 -0.567023 -0.019578
v 0.756707 -0.567023 -0.019578
v 0.808597 -0.586659 0.000451
v 0.827924 -0.567642 -0.051934
v 0.827924 -0.567642 -0.051934
v 0.860284 -0.565337 0.019247
v 0.978804 -0.254627 -0.087677
v 0.865088 -0.089324 -0.171845
v 0.868332 -0.081651 -0.167200
v 0.859372 -0.081797 -0.170559
v 0.992388 -0.208081 -0.100331
v 0.978804 -0.254627 -0.087677
v 0.996130 -0.207814 -0.092099
v 0.653686 -0.080009 -0.077111
v 0.650324 -0.079756 -0.068154
v 0.648849 -0.087444 -0.073604
v 0.743782 -0.073099 0.137427
v 0.752742 -0.072953 0.140786
v 0.747102 -0.080445 0.142525
v 0.961790 -0.074994 0.038382
v 0.963340 -0.082325 0.044283
v 0.958429 -0.074741 0.047338
v 0.728841 -0.258695 -0.181376
v 0.725597 -0.212423 -0.200337
v 0.717361 -0.212352 -0.196595
v 0.635064 -0.251638 0.068491
v 0.617271 -0.204819 0.070093
v 0.621013 -0.204553 0.078324
v 0.885027 -0.247570 0.162189
v 0.887804 -0.200210 0.178331
v 0.896039 -0.200282 0.174589
v 0.827924 -0.567642 -0.051934
v 0.725597 -0.212423 -0.200337
v 0.728841 -0.258695 -0.181376
v 0.992388 -0.208081 -0.100331
v 0.827924 -0.567642 -0.051934
v 0.978804 -0.254627 -0.087677
v 0.756707 -0.567023 -0.019578
v 0.617271 -0.204819 0.070093
v 0.635064 -0.251638 0.068491
v 0.717361 -0.212352 -0.196595
v 0.756707 -0.567023 -0.019578
v 0.728841 -0.258695 -0.181376
v 0.789066 -0.564718 0.051603
v 0.887804 -0.200210 0.178331
v 0.885027 -0.247570 0.162189
v 0.621013 -0.204553 0.078324
v 0.789066 -0.564718 0.051603
v 0.635064 -0.251638 0.068491
v 0.860284 -0.565337 0.019247
v 0.996130 -0.207814 -0.092099
v 0.978804 -0.254627 -0.087677
v 0.896039 -0.200282 0.174589
v 0.860284 -0.565337 0.019247
v 0.885027 -0.247570 0.162189
v 0.868332 -0.081651 -0.167200
v 0.805400 0.054427 -0.018856
v 0.859372 -0.081797 -0.170559
v 0.653686 -0.080009 -0.077111
v 0.805400 0.054427 -0.018856
v 0.650324 -0.079756 -0.068154
v 0.743782 -0.073099 0.137427
v 0.805400 0.054427 -0.018856
v 0.752742 -0.072953 0.140786
v 0.958429 -0.074741 0.047338
v 0.805400 0.054427 -0.018856
v 0.961790 -0.074994 0.038382
v 0.992388 -0.208081 -0.100331
v 0.996130 -0.207814 -0.092099
v 0.993547 -0.199024 -0.096180
v 0.717361 -0.212352 -0.196595
v 0.725597 -0.212423 -0.200337
v 0.721738 -0.203448 -0.198067
v 0.621013 -0.204553 0.078324
v 0.617271 -0.204819 0.070093
v 0.619765 -0.195774 0.073637
v 0.896039 -0.200282 0.174589
v 0.887804 -0.200210 0.178331
v 0.891574 -0.191350 0.175524
v 0.827924 -0.567642 -0.051934
v 0.992388 -0.208081 -0.100331
v 0.725597 -0.212423 -0.200337
v 0.865088 -0.089324 -0.171845
v 0.756707 -0.567023 -0.019578
v 0.717361 -0.212352 -0.196595
v 0.617271 -0.204819 0.070093
v 0.648849 -0.087444 -0.073604
v 0.789066 -0.564718 0.051603
v 0.621013 -0.204553 0.078324
v 0.887804 -0.200210 0.178331
v 0.747102 -0.080445 0.142525
v 0.860284 -0.565337 0.019247
v 0.896039 -0.200282 0.174589
v 0.996130 -0.207814 -0.092099
v 0.963340 -0.082325 0.044283
v 0.650324 -0.079756 -0.068154
v 0.805400 0.054427 -0.018856
v 0.743782 -0.073099 0.137427
v 0.619765 -0.195774 0.073637
v 0.752742 -0.072953 0.140786
v 0.805400 0.054427 -0.018856
v 0.958429 -0.074741 0.047338
v 0.891574 -0.191350 0.175524
v 0.961790 -0.074994 0.038382
v 0.805400 0.054427 -0.018856
v 0.868332 -0.081651 -0.167200
v 0.993547 -0.199024 -0.096180
v 0.859372 -0.081797 -0.170559
v 0.805400 0.054427 -0.018856
v 0.653686 -0.080009 -0.077111
v 0.721738 -0.203448 -0.198067
v 0.721738 -0.203448 -0.198067
v 0.725597 -0.212423 -0.200337
v 0.865088 -0.089324 -0.171845
v 0.859372 -0.081797 -0.170559
v 0.619765 -0.195774 0.073637
v 0.617271 -0.204819 0.070093
v 0.648849 -0.087444 -0.073604
v 0.650324 -0.079756 -0.068154
v 0.891574 -0.191350 0.175524
v 0.887804 -0.200210 0.178331
v 0.747102 -0.080445 0.142525
v 0.752742 -0.072953 0.140786
v 0.958429 -0.074741 0.047338
v 0.963340 -0.082325 0.044283
v 0.891574 -0.191350 0.175524
v 0.896039 -0.200282 0.174589
v 0.993547 -0.199024 -0.096180
v 0.996130 -0.207814 -0.092099
v 0.963340 -0.082325 0.044283
v 0.961790 -0.074994 0.038382
v 0.868332 -0.081651 -0.167200
v 0.865088 -0.089324 -0.171845
v 0.993547 -0.199024 -0.096180
v 0.992388 -0.208081 -0.100331
v 0.653686 -0.080009 -0.077111
v 0.648849 -0.087444 -0.073604
v 0.721738 -0.203448 -0.198067
v 0.717361 -0.212352 -0.196595
v 0.743782 -0.073099 0.137427
v 0.747102 -0.080445 0.142525
v 0.619765 -0.195774 0.073637
v 0.621013 -0.204553 0.078324
vn -0.3711 -0.4576 -0.8080
vn -0.8193 -0.4238 0.3862
vn 0.3754 -0.4044 0.8340
vn 0.4269 -0.8891 -0.1653
vn 0.1964 -0.8717 0.4489
vn -0.4180 -0.8817 0.2186
vn -0.1875 -0.8991 -0.3956
vn 0.8236 -0.4381 -0.3602
vn 0.3178 0.3891 -0.8646
vn 0.8561 -0.3526 -0.3778
vn -0.8546 0.3993 -0.3320
vn -0.3219 0.4373 0.8397
vn 0.8505 0.4271 0.3071
vn -0.3865 -0.3728 -0.8436
vn -0.8527 -0.3377 0.3986
vn 0.3899 -0.3175 0.8644
vn 0.0340 -0.3769 -0.9256
vn 0.5935 -0.3678 -0.7159
vn -0.9348 -0.3545 -0.0216
vn -0.7249 -0.3703 -0.5808
vn -0.0305 -0.3209 0.9466
vn -0.5900 -0.3300 0.7369
vn 0.9383 -0.3432 0.0426
vn 0.7284 -0.3275 0.6019
vn 0.2158 0.7634 -0.6088
vn -0.5894 0.7704 -0.2430
vn -0.2236 0.7965 0.5618
vn 0.5816 0.7895 0.1960
vn 0.9069 0.0740 -0.4147
vn -0.4127 0.0525 -0.9094
vn -0.9078 0.0898 0.4098
vn 0.4119 0.1113 0.9044
vn 0.3440 -0.2417 -0.9073
vn 0.3412 -0.2770 -0.8983
vn 0.3478 -0.1812 -0.9199
vn -0.9131 -0.2307 -0.3362
vn -0.9050 -0.2658 -0.3321
vn -0.9242 -0.1701 -0.3420
vn -0.3419 -0.1900 0.9203
vn -0.3387 -0.2255 0.9135
vn -0.3462 -0.1289 0.9292
vn 0.9153 -0.2010 0.3492
vn 0.9074 -0.2366 0.3472
vn 0.9257 -0.1400 0.3514
vn -0.7106 0.6353 0.3025
vn -0.6774 0.6778 0.2860
vn -0.7444 0.5864 0.3194
vn 0.3183 0.6521 0.6881
vn 0.3029 0.6937 0.6534
vn 0.3340 0.6040 0.7236
vn 0.7043 0.6230 -0.3403
vn 0.6705 0.6663 -0.3264
vn 0.7388 0.5733 -0.3544
vn -0.3246 0.6063 -0.7260
vn -0.3096 0.6501 -0.6939
vn -0.3398 0.5560 -0.7586
vn 0.0075 0.2148 -0.9766
vn 0.0075 0.2149 -0.9766
vn -0.9709 0.2389 -0.0159
vn -0.9709 0.2389 -0.0160
vn -0.0100 0.2731 0.9619
vn 0.7349 0.2667 0.6235
vn 0.7350 0.2666 0.6235
vn 0.9685 0.2491 0.0012
vn 0.9685 0.2491 0.0013
vn 0.6300 0.2250 -0.7433
vn -0.7374 0.2213 -0.6382
vn -0.6325 0.2630 0.7286
vn -0.6324 0.2630 0.7286
vt 0.119934 0.113586
vt 0.261475 0.434326
vt 0.028900 0.155884
vt 0.145508 0.050842
vt 0.475586 0.269043
vt 0.875488 0.895996
vt 0.732910 0.575684
vt 0.964355 0.852539
vt 0.919434 0.929199
vt 0.849121 0.958496
vt 0.080383 0.082275
vt 0.518555 0.741211
vt 0.242188 0.639160
vt 0.232300 0.647949
vt 0.230713 0.636719
vt 0.474121 0.706543
vt 0.465576 0.718750
vt 0.871582 0.155396
vt 0.861816 0.161133
vt 0.856934 0.149170
vt 0.761719 0.373291
vt 0.750000 0.370850
vt 0.759766 0.362061
vt 0.526367 0.460449
vt 0.521973 0.477051
vt 0.514160 0.462646
vt 0.294434 0.474854
vt 0.283691 0.481689
vt 0.961914 0.382568
vt 0.971191 0.375488
vt 0.973633 0.441650
vt 0.699707 0.535156
vt 0.710449 0.528320
vt 0.520508 0.301514
vt 0.383057 0.799805
vt 0.616699 0.218628
vt 0.463135 0.702637
vt 0.294189 0.486816
vt 0.957031 0.368164
vt 0.699707 0.523438
vt 0.030731 0.625977
vt 0.470703 0.537109
vt 0.127197 0.849121
vt 0.034485 0.638184
vt 0.467773 0.549316
s 1
g off
g prefab_ui_3d_gem_purple_Material.001
usemtl Material.001
f 309/103/105 308/104/105 307/105/105
f 312/106/106 311/107/106 310/103/106
f 315/108/107 314/109/107 313/110/107
f 318/108/108 317/111/108 316/112/108
f 321/110/109 320/111/109 319/108/109
f 324/103/110 323/113/110 322/106/110
f 327/105/111 326/113/111 325/103/111
f 330/114/112 329/108/112 328/112/112
f 333/115/113 332/116/113 331/117/113
f 336/118/114 335/114/114 334/119/114
f 339/120/115 338/121/115 337/122/115
f 342/123/116 341/124/116 340/125/116
f 345/126/117 344/127/117 343/128/117
f 348/129/118 347/130/118 346/104/118
f 351/131/119 350/132/119 349/133/119
f 354/134/120 353/135/120 352/109/120
f 357/104/121 356/130/121 355/105/121
f 360/114/122 359/112/122 358/119/122
f 363/107/123 362/136/123 361/103/123
f 366/104/124 365/103/124 364/129/124
f 369/109/125 368/135/125 367/110/125
f 372/133/126 371/110/126 370/131/126
f 375/114/127 374/118/127 373/108/127
f 378/109/128 377/108/128 376/134/128
f 381/115/129 380/137/129 379/116/129
f 384/121/130 383/138/130 382/122/130
f 387/124/131 386/138/131 385/125/131
f 390/128/132 389/138/132 388/126/132
f 393/139/133 392/118/133 391/119/133
f 396/140/134 395/130/134 394/129/134
f 399/141/135 398/132/135 397/131/135
f 402/142/136 401/135/136 400/134/136
f 405/130/137 404/143/137 403/105/138
f 406/117/139 404/143/137 405/130/137
f 409/136/140 408/129/140 407/103/141
f 410/144/142 408/129/140 409/136/140
f 413/135/143 412/131/143 411/110/144
f 414/123/145 412/131/143 413/135/143
f 417/118/146 416/134/146 415/108/147
f 418/127/148 416/134/146 417/118/146
f 421/125/149 420/138/150 419/121/149
f 422/141/151 421/125/149 419/121/149
f 425/126/152 424/138/153 423/124/152
f 426/142/154 425/126/152 423/124/152
f 429/116/155 428/137/156 427/145/155
f 430/146/157 429/116/155 427/145/155
f 433/147/158 432/137/159 431/115/158
f 434/140/160 433/147/158 431/115/158
f 437/117/161 436/130/161 435/140/161
f 435/140/161 438/115/162 437/117/161
f 441/120/163 440/132/164 439/141/163
f 439/141/163 442/121/163 441/120/163
f 445/123/165 444/135/165 443/142/165
f 443/142/165 446/124/165 445/123/165
f 449/142/166 448/127/166 447/126/166
f 448/127/166 449/142/166 450/134/167
f 453/127/168 452/118/169 451/139/168
f 451/139/168 454/128/169 453/127/168
f 457/146/170 456/117/170 455/116/170
f 456/117/170 457/146/170 458/143/170
f 461/140/171 460/144/171 459/147/171
f 460/144/171 461/140/171 462/129/171
f 465/141/172 464/123/172 463/125/172
f 464/123/172 465/141/172 466/131/173
g prefab_ui_3d_gem_red_prefab_ui_3d_gem_red
v -0.979774 -0.077129 -0.126295
v -1.160302 0.034821 -0.105535
v -1.149607 -0.079768 -0.285282
v -1.149607 -0.079768 -0.285282
v -1.160302 0.034821 -0.105535
v -1.260193 0.034751 -0.143118
v -1.149607 -0.079768 -0.285282
v -1.260193 0.034751 -0.143118
v -1.382124 -0.077414 -0.277677
v -1.382124 -0.077414 -0.277677
v -1.260193 0.034751 -0.143118
v -1.357392 0.036817 -0.099089
v -1.382124 -0.077414 -0.277677
v -1.357392 0.036817 -0.099089
v -1.541119 -0.071445 -0.107935
v -1.541119 -0.071445 -0.107935
v -1.357392 0.036817 -0.099089
v -1.394963 0.039810 0.000762
v -1.541119 -0.071445 -0.107935
v -1.394963 0.039810 0.000762
v -1.533455 -0.065358 0.124511
v -1.533455 -0.065358 0.124511
v -1.394963 0.039810 0.000762
v -1.350896 0.041977 0.097942
v -1.533455 -0.065358 0.124511
v -1.350896 0.041977 0.097942
v -1.363621 -0.062719 0.283499
v -1.363621 -0.062719 0.283499
v -1.350896 0.041977 0.097942
v -1.251006 0.042047 0.135526
v -1.363621 -0.062719 0.283499
v -1.251006 0.042047 0.135526
v -1.131105 -0.065073 0.275894
v -1.131105 -0.065073 0.275894
v -1.251006 0.042047 0.135526
v -1.153806 0.039981 0.091496
v -1.131105 -0.065073 0.275894
v -1.153806 0.039981 0.091496
v -0.972110 -0.071042 0.106152
v -0.972110 -0.071042 0.106152
v -1.153806 0.039981 0.091496
v -1.116235 0.036988 -0.008354
v -0.972110 -0.071042 0.106152
v -1.116235 0.036988 -0.008354
v -0.979774 -0.077129 -0.126295
v -0.979774 -0.077129 -0.126295
v -1.116235 0.036988 -0.008354
v -1.160302 0.034821 -0.105535
v -1.248701 -0.338419 -0.021421
v -1.259172 -0.347485 0.006427
v -1.232228 -0.338163 -0.005999
v -1.232228 -0.338163 -0.005999
v -1.259172 -0.347485 0.006427
v -1.231484 -0.337572 0.016547
v -1.231484 -0.337572 0.016547
v -1.259172 -0.347485 0.006427
v -1.246906 -0.336993 0.033012
v -1.246906 -0.336993 0.033012
v -1.259172 -0.347485 0.006427
v -1.269460 -0.336765 0.033749
v -1.269460 -0.336765 0.033749
v -1.259172 -0.347485 0.006427
v -1.285933 -0.337021 0.018328
v -1.285933 -0.337021 0.018328
v -1.259172 -0.347485 0.006427
v -1.286677 -0.337611 -0.004218
v -1.286677 -0.337611 -0.004218
v -1.259172 -0.347485 0.006427
v -1.271255 -0.338190 -0.020683
v -1.271255 -0.338190 -0.020683
v -1.259172 -0.347485 0.006427
v -1.248701 -0.338419 -0.021421
v -0.985329 -0.109347 -0.123058
v -1.151938 -0.111936 -0.279027
v -1.232228 -0.338163 -0.005999
v -1.248701 -0.338419 -0.021421
v -1.271255 -0.338190 -0.020683
v -1.151938 -0.111936 -0.279027
v -1.380041 -0.109626 -0.271567
v -1.248701 -0.338419 -0.021421
v -1.271255 -0.338190 -0.020683
v -1.380041 -0.109626 -0.271567
v -1.536017 -0.103771 -0.105047
v -1.286677 -0.337611 -0.004218
v -1.536017 -0.103771 -0.105047
v -1.528499 -0.097799 0.122987
v -1.285933 -0.337021 0.018328
v -1.286677 -0.337611 -0.004218
v -1.361889 -0.095210 0.278957
v -1.269460 -0.336765 0.033749
v -1.285933 -0.337021 0.018328
v -1.528499 -0.097799 0.122987
v -0.977810 -0.103375 0.104977
v -1.231484 -0.337572 0.016547
v -1.246906 -0.336993 0.033012
v -1.133787 -0.097520 0.271497
v -0.977810 -0.103375 0.104977
v -1.232228 -0.338163 -0.005999
v -1.231484 -0.337572 0.016547
v -0.985329 -0.109347 -0.123058
v -1.361889 -0.095210 0.278957
v -1.133787 -0.097520 0.271497
v -1.246906 -0.336993 0.033012
v -1.269460 -0.336765 0.033749
v -0.979774 -0.077129 -0.126295
v -0.977810 -0.103375 0.104977
v -0.972110 -0.071042 0.106152
v -0.985329 -0.109347 -0.123058
v -1.131105 -0.065073 0.275894
v -0.972110 -0.071042 0.106152
v -0.977810 -0.103375 0.104977
v -1.133787 -0.097520 0.271497
v -1.131105 -0.065073 0.275894
v -1.361889 -0.095210 0.278957
v -1.363621 -0.062719 0.283499
v -1.133787 -0.097520 0.271497
v -1.533455 -0.065358 0.124511
v -1.363621 -0.062719 0.283499
v -1.361889 -0.095210 0.278957
v -1.528499 -0.097799 0.122987
v -1.533455 -0.065358 0.124511
v -1.536017 -0.103771 -0.105047
v -1.541119 -0.071445 -0.107935
v -1.528499 -0.097799 0.122987
v -1.382124 -0.077414 -0.277677
v -1.541119 -0.071445 -0.107935
v -1.536017 -0.103771 -0.105047
v -1.380041 -0.109626 -0.271567
v -1.151938 -0.111936 -0.279027
v -1.149607 -0.079768 -0.285282
v -1.382124 -0.077414 -0.277677
v -1.380041 -0.109626 -0.271567
v -0.979774 -0.077129 -0.126295
v -1.149607 -0.079768 -0.285282
v -1.151938 -0.111936 -0.279027
v -0.985329 -0.109347 -0.123058
v -1.116235 0.036988 -0.008354
v -1.255599 0.038399 -0.003796
v -1.160302 0.034821 -0.105535
v -1.153806 0.039981 0.091496
v -1.260193 0.034751 -0.143118
v -1.251006 0.042047 0.135526
v -1.357392 0.036817 -0.099089
v -1.350896 0.041977 0.097942
v -1.394963 0.039810 0.000762
vn 0.4262 0.7741 -0.4681
vn 0.1947 0.8323 -0.5190
vn -0.0129 0.7738 -0.6333
vn -0.2113 0.8364 -0.5057
vn -0.4401 0.7829 -0.4398
vn -0.4889 0.8468 -0.2094
vn -0.6053 0.7960 -0.0009
vn -0.4755 0.8575 0.1965
vn -0.4116 0.8055 0.4263
vn -0.1790 0.8621 0.4741
vn 0.0275 0.8058 0.5915
vn 0.2270 0.8580 0.4608
vn 0.4548 0.7968 0.3979
vn 0.5046 0.8475 0.1645
vn 0.6199 0.7836 -0.0410
vn 0.4912 0.8369 -0.2414
vn 0.2247 -0.9483 -0.2242
vn 0.3326 -0.9430 0.0137
vn 0.2406 -0.9356 0.2582
vn 0.0025 -0.9306 0.3661
vn -0.2421 -0.9308 0.2740
vn -0.3500 -0.9361 0.0361
vn -0.2580 -0.9434 -0.2085
vn -0.0199 -0.9485 -0.3163
vn 0.4621 -0.7449 -0.4813
vn -0.0293 -0.7452 -0.6662
vn -0.5075 -0.7350 -0.4496
vn -0.5076 -0.7350 -0.4496
vn -0.6924 -0.7203 0.0417
vn -0.4756 -0.7097 0.5198
vn 0.4941 -0.7195 0.4881
vn 0.6789 -0.7342 -0.0032
vn 0.0159 -0.7093 0.7047
vn 0.9846 -0.1726 -0.0279
vn 0.7188 -0.1514 0.6786
vn 0.0310 -0.1368 0.9901
vn -0.6758 -0.1373 0.7242
vn -0.9876 -0.1526 0.0366
vn -0.7218 -0.1738 -0.6700
vn -0.0340 -0.1884 -0.9815
vn 0.6728 -0.1879 -0.7156
vn 0.0093 0.9996 -0.0265
vt 0.554199 0.669922
vt 0.657715 0.583008
vt 0.708984 0.739258
vt 0.499756 0.516113
vt 0.377930 0.598145
vt 0.315674 0.468262
vt 0.189331 0.577148
vt 0.159058 0.460938
vt 0.023773 0.584473
vt 0.340576 0.413330
vt 0.250244 0.393311
vt 0.289795 0.257080
vt 0.444580 0.326416
vt 0.498779 0.479980
vt 0.620605 0.397949
vt 0.682617 0.527832
vt 0.809082 0.419189
vt 0.839355 0.535156
vt 0.974609 0.411865
vt 0.748047 0.603027
vt 0.367676 0.960449
vt 0.285400 0.966309
vt 0.335938 0.939941
vt 0.745117 0.077576
vt 0.712891 0.029953
vt 0.782715 0.074158
vt 0.702148 0.073669
vt 0.662598 0.056396
vt 0.630859 0.035889
vt 0.253418 0.918457
vt 0.215820 0.921875
vt 0.296387 0.922363
vt 0.520996 0.738281
vt 0.634277 0.843262
vt 0.360352 0.663086
vt 0.183105 0.653320
vt 0.034271 0.695801
vt 0.477539 0.257812
vt 0.364258 0.153198
vt 0.815430 0.342773
vt 0.638184 0.333008
vt 0.964355 0.300293
vt 0.040802 0.076538
vt 0.155518 0.154419
vt 0.019318 0.180420
vt 0.077576 0.269043
vt 0.129517 0.018250
vt 0.181519 0.290527
vt 0.233398 0.039764
vt 0.270020 0.232300
vt 0.291748 0.128418
s 1
g off
g prefab_ui_3d_gem_red_Material.006
usemtl Material.006
f 469/148/174 468/149/174 467/150/174
f 472/151/175 471/149/175 470/148/175
f 475/152/176 474/151/176 473/148/176
f 478/153/177 477/151/177 476/152/177
f 481/154/178 480/153/178 479/152/178
f 484/155/179 483/153/179 482/154/179
f 487/156/180 486/155/180 485/154/180
f 490/157/181 489/158/181 488/159/181
f 493/160/182 492/157/182 491/159/182
f 496/161/183 495/157/183 494/160/183
f 499/162/184 498/161/184 497/160/184
f 502/163/185 501/161/185 500/162/185
f 505/164/186 504/163/186 503/162/186
f 508/165/187 507/163/187 506/164/187
f 511/166/188 510/165/188 509/164/188
f 514/149/189 513/167/189 512/150/189
f 517/168/190 516/169/190 515/170/190
f 520/171/191 519/172/191 518/173/191
f 523/174/192 522/172/192 521/171/192
f 526/175/193 525/172/193 524/174/193
f 529/176/194 528/172/194 527/175/194
f 532/177/195 531/169/195 530/178/195
f 535/179/196 534/169/196 533/177/196
f 538/170/197 537/169/197 536/179/197
f 541/168/198 540/180/198 539/181/198
f 541/168/198 542/170/198 540/180/198
f 545/182/199 544/180/199 543/179/199
f 544/180/199 546/170/199 543/179/199
f 549/183/200 548/182/200 547/179/201
f 547/179/201 550/177/201 549/183/200
f 553/178/202 552/184/202 551/183/202
f 551/183/202 554/177/202 553/178/202
f 557/176/203 556/175/203 555/185/203
f 555/185/203 558/186/203 557/176/203
f 561/174/204 560/171/204 559/187/204
f 559/187/204 562/188/204 561/174/204
f 565/171/205 564/173/205 563/187/205
f 566/189/205 563/187/205 564/173/205
f 569/174/206 568/188/206 567/185/206
f 567/185/206 570/175/206 569/174/206
f 573/164/207 572/187/207 571/166/207
f 572/187/207 574/189/207 571/166/207
f 577/187/208 576/164/208 575/162/208
f 575/162/208 578/188/208 577/187/208
f 581/160/209 580/185/209 579/162/209
f 580/185/209 582/188/209 579/162/209
f 585/185/210 584/160/210 583/159/210
f 583/159/210 586/186/210 585/185/210
f 589/154/211 588/183/211 587/156/211
f 588/183/211 590/184/211 587/156/211
f 593/183/212 592/154/212 591/152/212
f 591/152/212 594/182/212 593/183/212
f 597/152/213 596/148/213 595/180/213
f 595/180/213 598/182/213 597/152/213
f 601/180/214 600/148/214 599/150/214
f 599/150/214 602/181/214 601/180/214
f 605/190/215 604/191/215 603/192/215
f 603/192/215 604/191/215 606/193/215
f 607/194/215 604/191/215 605/190/215
f 606/193/215 604/191/215 608/195/215
f 609/196/215 604/191/215 607/194/215
f 608/195/215 604/191/215 610/197/215
f 611/198/215 604/191/215 609/196/215
f 610/197/215 604/191/215 611/198/215
g prefab_ui_3d_gem_yellow_prefab_ui_3d_gem_yellow
v 0.119193 -0.091535 -0.112221
v -0.000151 -0.022403 -0.125306
v -0.018130 -0.095376 -0.241690
v -0.018130 -0.095376 -0.241690
v -0.000151 -0.022403 -0.125306
v -0.111186 -0.024446 -0.167507
v -0.018130 -0.095376 -0.241690
v -0.111186 -0.024446 -0.167507
v -0.206807 -0.097533 -0.236125
v -0.206807 -0.097533 -0.236125
v -0.111186 -0.024446 -0.167507
v -0.219557 -0.024911 -0.118835
v -0.206807 -0.097533 -0.236125
v -0.219557 -0.024911 -0.118835
v -0.336314 -0.096741 -0.098786
v -0.336314 -0.096741 -0.098786
v -0.219557 -0.024911 -0.118835
v -0.261784 -0.023525 -0.007801
v -0.336314 -0.096741 -0.098786
v -0.261784 -0.023525 -0.007801
v -0.330787 -0.093464 0.089876
v -0.330787 -0.093464 0.089876
v -0.261784 -0.023525 -0.007801
v -0.213130 -0.021100 0.100553
v -0.330787 -0.093464 0.089876
v -0.213130 -0.021100 0.100553
v -0.193464 -0.089623 0.219345
v -0.193464 -0.089623 0.219345
v -0.213130 -0.021100 0.100553
v -0.102096 -0.019058 0.142755
v -0.193464 -0.089623 0.219345
v -0.102096 -0.019058 0.142755
v -0.004787 -0.087466 0.213780
v -0.004787 -0.087466 0.213780
v -0.102096 -0.019058 0.142755
v 0.006276 -0.018593 0.094082
v -0.004787 -0.087466 0.213780
v 0.006276 -0.018593 0.094082
v 0.124720 -0.088259 0.076441
v 0.124720 -0.088259 0.076441
v 0.006276 -0.018593 0.094082
v 0.048503 -0.019979 -0.016952
v 0.124720 -0.088259 0.076441
v 0.048503 -0.019979 -0.016952
v 0.119193 -0.091535 -0.112221
v 0.119193 -0.091535 -0.112221
v 0.048503 -0.019979 -0.016952
v -0.000151 -0.022403 -0.125306
v -0.102989 -0.388719 -0.030743
v -0.102137 -0.399278 -0.005952
v -0.085379 -0.388395 -0.024050
v -0.085379 -0.388395 -0.024050
v -0.102137 -0.399278 -0.005952
v -0.077662 -0.388010 -0.006865
v -0.077662 -0.388010 -0.006865
v -0.102137 -0.399278 -0.005952
v -0.084360 -0.387791 0.010745
v -0.084360 -0.387791 0.010745
v -0.102137 -0.399278 -0.005952
v -0.101547 -0.387864 0.018465
v -0.101547 -0.387864 0.018465
v -0.102137 -0.399278 -0.005952
v -0.119157 -0.388188 0.011772
v -0.119157 -0.388188 0.011772
v -0.102137 -0.399278 -0.005952
v -0.126874 -0.388573 -0.005413
v -0.126874 -0.388573 -0.005413
v -0.102137 -0.399278 -0.005952
v -0.120176 -0.388793 -0.023023
v -0.120176 -0.388793 -0.023023
v -0.102137 -0.399278 -0.005952
v -0.102989 -0.388719 -0.030743
v -0.195580 -0.125443 0.226647
v -0.001426 -0.123224 0.220921
v -0.098244 -0.255043 0.181929
v -0.109393 -0.261652 -0.198630
v 0.026799 -0.259146 -0.146867
v -0.015157 -0.131363 -0.247770
v -0.242318 -0.262222 -0.138929
v -0.109393 -0.261652 -0.198630
v -0.209311 -0.133582 -0.242044
v -0.294113 -0.260522 -0.002738
v -0.242318 -0.262222 -0.138929
v -0.342576 -0.132767 -0.100718
v -0.234435 -0.257548 0.130166
v -0.294113 -0.260522 -0.002738
v -0.336889 -0.129396 0.093420
v -0.098244 -0.255043 0.181929
v -0.234435 -0.257548 0.130166
v -0.195580 -0.125443 0.226647
v 0.086476 -0.256172 -0.013963
v 0.034682 -0.254473 0.122229
v 0.131839 -0.124039 0.079595
v 0.026799 -0.259146 -0.146867
v 0.086476 -0.256172 -0.013963
v 0.126152 -0.127410 -0.114543
v -0.098244 -0.255043 0.181929
v -0.001426 -0.123224 0.220921
v 0.034682 -0.254473 0.122229
v -0.015157 -0.131363 -0.247770
v 0.026799 -0.259146 -0.146867
v 0.126152 -0.127410 -0.114543
v -0.209311 -0.133582 -0.242044
v -0.109393 -0.261652 -0.198630
v -0.015157 -0.131363 -0.247770
v -0.342576 -0.132767 -0.100718
v -0.242318 -0.262222 -0.138929
v -0.209311 -0.133582 -0.242044
v -0.336889 -0.129396 0.093420
v -0.294113 -0.260522 -0.002738
v -0.342576 -0.132767 -0.100718
v -0.195580 -0.125443 0.226647
v -0.234435 -0.257548 0.130166
v -0.336889 -0.129396 0.093420
v 0.131839 -0.124039 0.079595
v 0.034682 -0.254473 0.122229
v -0.001426 -0.123224 0.220921
v 0.126152 -0.127410 -0.114543
v 0.086476 -0.256172 -0.013963
v 0.131839 -0.124039 0.079595
v -0.109393 -0.261652 -0.198630
v -0.102989 -0.388719 -0.030743
v -0.085379 -0.388395 -0.024050
v 0.026799 -0.259146 -0.146867
v -0.109393 -0.261652 -0.198630
v -0.120176 -0.388793 -0.023023
v -0.102989 -0.388719 -0.030743
v -0.242318 -0.262222 -0.138929
v -0.242318 -0.262222 -0.138929
v -0.294113 -0.260522 -0.002738
v -0.126874 -0.388573 -0.005413
v -0.120176 -0.388793 -0.023023
v -0.294113 -0.260522 -0.002738
v -0.234435 -0.257548 0.130166
v -0.119157 -0.388188 0.011772
v -0.126874 -0.388573 -0.005413
v -0.119157 -0.388188 0.011772
v -0.234435 -0.257548 0.130166
v -0.098244 -0.255043 0.181929
v -0.101547 -0.387864 0.018465
v -0.077662 -0.388010 -0.006865
v 0.034682 -0.254473 0.122229
v 0.086476 -0.256172 -0.013963
v -0.084360 -0.387791 0.010745
v 0.086476 -0.256172 -0.013963
v -0.085379 -0.388395 -0.024050
v -0.077662 -0.388010 -0.006865
v 0.026799 -0.259146 -0.146867
v 0.124720 -0.088259 0.076441
v 0.119193 -0.091535 -0.112221
v 0.126152 -0.127410 -0.114543
v 0.131839 -0.124039 0.079595
v 0.124720 -0.088259 0.076441
v -0.001426 -0.123224 0.220921
v -0.004787 -0.087466 0.213780
v 0.131839 -0.124039 0.079595
v -0.193464 -0.089623 0.219345
v -0.004787 -0.087466 0.213780
v -0.001426 -0.123224 0.220921
v -0.195580 -0.125443 0.226647
v -0.193464 -0.089623 0.219345
v -0.336889 -0.129396 0.093420
v -0.330787 -0.093464 0.089876
v -0.195580 -0.125443 0.226647
v -0.336314 -0.096741 -0.098786
v -0.330787 -0.093464 0.089876
v -0.336889 -0.129396 0.093420
v -0.342576 -0.132767 -0.100718
v -0.336314 -0.096741 -0.098786
v -0.209311 -0.133582 -0.242044
v -0.206807 -0.097533 -0.236125
v -0.342576 -0.132767 -0.100718
v -0.018130 -0.095376 -0.241690
v -0.206807 -0.097533 -0.236125
v -0.209311 -0.133582 -0.242044
v -0.015157 -0.131363 -0.247770
v -0.018130 -0.095376 -0.241690
v 0.126152 -0.127410 -0.114543
v 0.119193 -0.091535 -0.112221
v -0.015157 -0.131363 -0.247770
v -0.098244 -0.255043 0.181929
v 0.034682 -0.254473 0.122229
v -0.084360 -0.387791 0.010745
v -0.101547 -0.387864 0.018465
v 0.048503 -0.019979 -0.016952
v -0.106641 -0.021752 -0.012376
v -0.000151 -0.022403 -0.125306
v 0.006276 -0.018593 0.094082
v -0.111186 -0.024446 -0.167507
v -0.102096 -0.019058 0.142755
v -0.219557 -0.024911 -0.118835
v -0.213130 -0.021100 0.100553
v -0.261784 -0.023525 -0.007801
vn 0.4702 0.7132 -0.5198
vn 0.1911 0.8181 -0.5425
vn -0.0290 0.7041 -0.7095
vn -0.2414 0.8131 -0.5297
vn -0.5161 0.7020 -0.4907
vn -0.5383 0.8149 -0.2149
vn -0.7060 0.7082 0.0084
vn -0.5256 0.8224 0.2176
vn -0.4872 0.7191 0.4955
vn -0.2109 0.8311 0.5146
vn 0.0119 0.7283 0.6852
vn 0.2217 0.8362 0.5016
vn 0.4990 0.7304 0.4664
vn 0.5188 0.8342 0.1869
vn 0.6889 0.7241 -0.0328
vn 0.5059 0.8269 -0.2457
vn 0.1654 -0.9053 -0.3913
vn 0.4076 -0.8985 -0.1629
vn 0.4173 -0.8927 0.1699
vn 0.1889 -0.8913 0.4121
vn -0.1439 -0.8951 0.4219
vn -0.3861 -0.9019 0.1936
vn -0.3959 -0.9077 -0.1392
vn -0.1674 -0.9091 -0.3815
vn 0.0316 -0.3048 0.9519
vn 0.3110 -0.5240 -0.7929
vn -0.3451 -0.5315 -0.7736
vn -0.7955 -0.5287 -0.2959
vn -0.7763 -0.5174 0.3602
vn -0.2987 -0.5040 0.8104
vn 0.8078 -0.4992 0.3134
vn 0.7886 -0.5106 -0.3427
vn 0.3574 -0.4965 0.7910
vn 0.6535 -0.3252 -0.6835
vn -0.0242 -0.3377 -0.9410
vn -0.6851 -0.3405 -0.6440
vn -0.9427 -0.3320 0.0334
vn -0.6459 -0.3172 0.6944
vn 0.6924 -0.3020 0.6553
vn 0.9503 -0.3104 -0.0228
vn 0.2391 -0.7698 -0.5918
vn -0.2559 -0.7755 -0.5772
vn -0.5957 -0.7734 -0.2169
vn -0.5812 -0.7648 0.2781
vn -0.2209 -0.7547 0.6177
vn 0.6138 -0.7512 0.2428
vn 0.5993 -0.7598 -0.2521
vn 0.9808 0.1923 -0.0321
vn 0.7133 0.2011 0.6714
vn 0.0266 0.1982 0.9798
vn -0.6769 0.1852 0.7124
vn -0.9851 0.1699 0.0259
vn -0.7176 0.1611 -0.6776
vn -0.0310 0.1640 -0.9860
vn 0.6725 0.1770 -0.7186
vn 0.2741 -0.7491 0.6031
vn -0.0119 0.9998 -0.0170
vt 0.808105 0.532715
vt 0.873047 0.446045
vt 0.973633 0.510742
vt 0.693359 0.475830
vt 0.611816 0.566406
vt 0.503418 0.523438
vt 0.425537 0.630371
vt 0.355225 0.578613
vt 0.281250 0.685059
vt 0.133423 0.566406
vt 0.035492 0.597656
vt 0.033234 0.501953
vt 0.198486 0.479736
vt 0.313477 0.536621
vt 0.394775 0.446289
vt 0.503418 0.488770
vt 0.581055 0.382080
vt 0.651367 0.433838
vt 0.725586 0.327148
vt 0.971191 0.414551
vt 0.792480 0.943848
vt 0.754395 0.982910
vt 0.751465 0.941895
vt 0.822754 0.954590
vt 0.295898 0.058563
vt 0.252197 0.029694
vt 0.329590 0.043213
vt 0.254883 0.070679
vt 0.213989 0.068542
vt 0.183960 0.057892
vt 0.710449 0.953613
vt 0.677246 0.969238
vt 0.270752 0.273926
vt 0.377930 0.372803
vt 0.186401 0.396729
vt 0.820312 0.615723
vt 0.881836 0.749023
vt 0.735840 0.738770
vt 0.628906 0.639648
vt 0.590332 0.781738
vt 0.451660 0.713379
vt 0.475098 0.850098
vt 0.022720 0.371582
vt 0.041290 0.201172
vt 0.124573 0.263428
vt 0.554688 0.299072
vt 0.416504 0.230591
vt 0.531738 0.162109
vt 0.983887 0.641113
vt 0.965332 0.811523
vt 0.311523 0.771484
vt 0.694824 0.240845
vt 0.155396 0.739746
vt 0.135254 0.854004
vt 0.068726 0.759277
vt 0.021088 0.833984
vt 0.230225 0.787598
vt 0.040344 0.920410
vt 0.249512 0.874023
vt 0.115173 0.968262
vt 0.201782 0.948730
s 1
g off
g prefab_ui_3d_gem_yellow_Material.004
usemtl Material.004
f 614/199/216 613/200/216 612/201/216
f 617/202/217 616/200/217 615/199/217
f 620/203/218 619/202/218 618/199/218
f 623/204/219 622/202/219 621/203/219
f 626/205/220 625/204/220 624/203/220
f 629/206/221 628/204/221 627/205/221
f 632/207/222 631/206/222 630/205/222
f 635/208/223 634/209/223 633/210/223
f 638/211/224 637/208/224 636/210/224
f 641/212/225 640/208/225 639/211/225
f 644/213/226 643/212/226 642/211/226
f 647/214/227 646/212/227 645/213/227
f 650/215/228 649/214/228 648/213/228
f 653/216/229 652/214/229 651/215/229
f 656/217/230 655/216/230 654/215/230
f 659/200/231 658/218/231 657/201/231
f 662/219/232 661/220/232 660/221/232
f 665/222/233 664/220/233 663/219/233
f 668/223/234 667/224/234 666/225/234
f 671/226/235 670/224/235 669/223/235
f 674/227/236 673/224/236 672/226/236
f 677/228/237 676/224/237 675/227/237
f 680/229/238 679/220/238 678/230/238
f 683/221/239 682/220/239 681/229/239
f 686/231/240 685/232/240 684/233/240
f 689/234/241 688/235/241 687/236/241
f 692/237/242 691/236/242 690/238/242
f 695/239/243 694/238/243 693/240/243
f 698/241/244 697/242/244 696/243/244
f 701/233/245 700/243/245 699/231/245
f 704/244/246 703/245/246 702/246/246
f 707/247/247 706/248/247 705/235/247
f 710/245/248 709/232/248 708/231/248
f 713/247/249 712/235/249 711/234/249
f 716/234/250 715/236/250 714/237/250
f 719/237/251 718/238/251 717/239/251
f 722/239/252 721/240/252 720/249/252
f 725/241/253 724/243/253 723/233/253
f 728/232/254 727/245/254 726/244/254
f 731/244/255 730/246/255 729/250/255
f 734/219/256 733/221/256 732/236/256
f 732/236/256 735/235/256 734/219/256
f 738/221/257 737/229/257 736/236/257
f 739/238/257 736/236/257 737/229/257
f 742/230/258 741/240/258 740/238/258
f 740/238/258 743/229/258 742/230/258
f 746/227/259 745/243/259 744/242/259
f 744/242/259 747/228/259 746/227/259
f 750/231/260 749/243/260 748/227/260
f 748/227/260 751/226/260 750/231/260
f 754/246/261 753/245/261 752/225/261
f 753/245/261 755/223/261 752/225/261
f 758/222/262 757/219/262 756/248/262
f 757/219/262 759/235/262 756/248/262
f 762/250/263 761/217/263 760/215/263
f 760/215/263 763/244/263 762/250/263
f 766/213/264 765/232/264 764/215/264
f 765/232/264 767/244/264 764/215/264
f 770/232/265 769/213/265 768/211/265
f 768/211/265 771/233/265 770/232/265
f 774/210/266 773/241/266 772/211/266
f 773/241/266 775/233/266 772/211/266
f 778/249/267 777/207/267 776/205/267
f 776/205/267 779/239/267 778/249/267
f 782/203/268 781/237/268 780/205/268
f 781/237/268 783/239/268 780/205/268
f 786/237/269 785/203/269 784/199/269
f 784/199/269 787/234/269 786/237/269
f 790/201/270 789/247/270 788/199/270
f 789/247/270 791/234/270 788/199/270
f 794/223/271 793/245/271 792/231/271
f 792/231/271 795/226/271 794/223/271
f 798/251/272 797/252/272 796/253/272
f 796/253/272 797/252/272 799/254/272
f 800/255/272 797/252/272 798/251/272
f 799/254/272 797/252/272 801/256/272
f 802/257/272 797/252/272 800/255/272
f 801/256/272 797/252/272 803/258/272
f 804/259/272 797/252/272 802/257/272
f 803/258/272 797/252/272 804/259/272
