# Blender 5.1.0
# www.blender.org
mtllib llAtrasDer.mtl
g GoKart.003_Mesh
v 0.231433 -0.017950 -0.064938
v 0.231433 -0.036436 -0.055518
v 0.231433 -0.051107 -0.040847
v 0.231433 -0.060526 -0.022361
v 0.231433 -0.063772 -0.001868
v 0.231433 -0.060527 0.018624
v 0.231433 -0.051107 0.037110
v 0.231433 -0.036436 0.051781
v 0.231433 -0.017950 0.061200
v 0.231433 0.002542 0.064446
v 0.231433 0.023034 0.061200
v 0.231433 0.041521 0.051781
v 0.231433 0.056192 0.037110
v 0.231433 0.065611 0.018624
v 0.231433 0.068856 -0.001869
v 0.231433 0.065611 -0.022361
v 0.231433 0.056192 -0.040848
v 0.231433 0.041521 -0.055518
v 0.231433 0.023034 -0.064938
v 0.231433 0.002542 -0.068183
v 0.229633 0.002542 -0.001869
v 0.240865 -0.034761 -0.116673
v 0.240865 -0.068411 -0.099527
v 0.240865 -0.095117 -0.072822
v 0.240865 -0.112263 -0.039171
v 0.240865 -0.118171 -0.001869
v 0.240865 -0.112263 0.035434
v 0.240865 -0.095117 0.069084
v 0.240865 -0.068411 0.095790
v 0.240865 -0.034761 0.112936
v 0.240865 0.002542 0.118844
v 0.240865 0.039844 0.112936
v 0.240865 0.073495 0.095790
v 0.240865 0.100200 0.069084
v 0.240865 0.117346 0.035434
v 0.240865 0.123254 -0.001869
v 0.240865 0.117346 -0.039171
v 0.240865 0.100200 -0.072822
v 0.240865 0.073495 -0.099527
v 0.240865 0.039844 -0.116673
v 0.240865 0.002542 -0.122581
v 0.231433 -0.017950 -0.064938
v 0.231433 -0.036436 -0.055518
v 0.231433 -0.051107 -0.040847
v 0.231433 -0.060526 -0.022361
v 0.231433 -0.063772 -0.001868
v 0.231433 -0.060527 0.018624
v 0.231433 -0.051107 0.037110
v 0.231433 -0.036436 0.051781
v 0.231433 -0.017950 0.061200
v 0.231433 0.002542 0.064446
v 0.231433 0.023034 0.061200
v 0.231433 0.041521 0.051781
v 0.231433 0.056192 0.037110
v 0.231433 0.065611 0.018624
v 0.231433 0.068856 -0.001869
v 0.231433 0.065611 -0.022361
v 0.231433 0.056192 -0.040848
v 0.231433 0.041521 -0.055518
v 0.231433 0.023034 -0.064938
v 0.231433 0.002542 -0.068183
v 0.254429 -0.026866 -0.092377
v 0.254429 -0.053395 -0.078859
v 0.254429 -0.074448 -0.057805
v 0.254429 -0.087965 -0.031276
v 0.254429 -0.092623 -0.001869
v 0.254429 -0.087966 0.027539
v 0.254429 -0.074449 0.054068
v 0.254429 -0.053395 0.075122
v 0.254429 -0.026866 0.088639
v 0.254429 0.002542 0.093297
v 0.254429 0.031950 0.088639
v 0.254429 0.058479 0.075122
v 0.254429 0.079533 0.054068
v 0.254429 0.093050 0.027539
v 0.254429 0.097707 -0.001869
v 0.254429 0.093050 -0.031276
v 0.254429 0.079533 -0.057806
v 0.254429 0.058479 -0.078859
v 0.254429 0.031950 -0.092377
v 0.254429 0.002542 -0.097034
v 0.266662 -0.031727 -0.107339
v 0.266662 -0.062642 -0.091587
v 0.266662 -0.087176 -0.067053
v 0.266662 -0.102928 -0.036138
v 0.266662 -0.108356 -0.001869
v 0.266662 -0.102928 0.032401
v 0.266662 -0.087176 0.063316
v 0.266662 -0.062642 0.087850
v 0.266662 -0.031727 0.103602
v 0.266662 0.002542 0.109030
v 0.266662 0.036811 0.103602
v 0.266662 0.067726 0.087850
v 0.266662 0.092261 0.063316
v 0.266662 0.108012 0.032401
v 0.266662 0.113440 -0.001869
v 0.266662 0.108012 -0.036138
v 0.266662 0.092261 -0.067053
v 0.266662 0.067726 -0.091588
v 0.266662 0.036811 -0.107339
v 0.266662 0.002542 -0.112767
v 0.258944 -0.035092 -0.117693
v 0.258944 -0.069041 -0.100394
v 0.258944 -0.095984 -0.073452
v 0.258944 -0.113282 -0.039502
v 0.258944 -0.119242 -0.001869
v 0.258944 -0.113282 0.035765
v 0.258944 -0.095984 0.069714
v 0.258944 -0.069041 0.096657
v 0.258944 -0.035092 0.113955
v 0.258944 0.002542 0.119916
v 0.258944 0.040175 0.113955
v 0.258944 0.074125 0.096657
v 0.258944 0.101068 0.069714
v 0.258944 0.118366 0.035765
v 0.258944 0.124326 -0.001869
v 0.258944 0.118366 -0.039502
v 0.258944 0.101068 -0.073452
v 0.258944 0.074125 -0.100395
v 0.258944 0.040175 -0.117693
v 0.258944 0.002542 -0.123653
v 0.253715 -0.036511 -0.122060
v 0.253715 -0.071740 -0.104110
v 0.253715 -0.099699 -0.076151
v 0.253715 -0.117649 -0.040921
v 0.253715 -0.123835 -0.001869
v 0.253715 -0.117649 0.037184
v 0.253715 -0.099699 0.072414
v 0.253715 -0.071740 0.100372
v 0.253715 -0.036511 0.118323
v 0.253715 0.002542 0.124508
v 0.253715 0.041594 0.118323
v 0.253715 0.076824 0.100372
v 0.253715 0.104783 0.072414
v 0.253715 0.122733 0.037184
v 0.253715 0.128918 -0.001869
v 0.253715 0.122733 -0.040921
v 0.253715 0.104783 -0.076151
v 0.253715 0.076824 -0.104110
v 0.253715 0.041594 -0.122060
v 0.253715 0.002542 -0.128246
v 0.250479 -0.036707 -0.122666
v 0.250479 -0.072114 -0.104625
v 0.250479 -0.100214 -0.076525
v 0.250479 -0.118255 -0.041118
v 0.250479 -0.124472 -0.001869
v 0.250479 -0.118255 0.037381
v 0.250479 -0.100214 0.072788
v 0.250479 -0.072114 0.100888
v 0.250479 -0.036707 0.118928
v 0.250479 0.002542 0.125145
v 0.250479 0.041791 0.118928
v 0.250479 0.077198 0.100888
v 0.250479 0.105298 0.072788
v 0.250479 0.123339 0.037381
v 0.250479 0.129555 -0.001869
v 0.250479 0.123339 -0.041118
v 0.250479 0.105298 -0.076525
v 0.250479 0.077198 -0.104625
v 0.250479 0.041791 -0.122666
v 0.250479 0.002542 -0.128882
v -0.230157 -0.026237 -0.090440
v -0.230157 -0.052198 -0.077212
v -0.230157 -0.072801 -0.056609
v -0.230157 -0.086030 -0.030647
v -0.230157 -0.090588 -0.001869
v -0.230157 -0.086030 0.026910
v -0.230157 -0.072801 0.052872
v -0.230157 -0.052198 0.073475
v -0.230157 -0.026237 0.086703
v -0.230157 0.002541 0.091261
v -0.230157 0.031320 0.086703
v -0.230157 0.057282 0.073475
v -0.230157 0.077885 0.052872
v -0.230157 0.091114 0.026910
v -0.230157 0.095672 -0.001869
v -0.230157 0.091114 -0.030647
v -0.230157 0.077885 -0.056609
v -0.230157 0.057282 -0.077212
v -0.230157 0.031320 -0.090440
v -0.230157 0.002541 -0.094998
v -0.240936 -0.029392 -0.100151
v -0.240936 -0.058200 -0.085473
v -0.240936 -0.081062 -0.062611
v -0.240936 -0.095741 -0.033803
v -0.240936 -0.100799 -0.001869
v -0.240936 -0.095741 0.030065
v -0.240936 -0.081062 0.058874
v -0.240936 -0.058200 0.081736
v -0.240936 -0.029392 0.096414
v -0.240936 0.002541 0.101472
v -0.240936 0.034476 0.096414
v -0.240936 0.063284 0.081736
v -0.240936 0.086146 0.058874
v -0.240936 0.100825 0.030065
v -0.240936 0.105883 -0.001869
v -0.240936 0.100825 -0.033803
v -0.240936 0.086146 -0.062611
v -0.240936 0.063284 -0.085473
v -0.240936 0.034476 -0.100151
v -0.240936 0.002541 -0.105209
v -0.250213 -0.031486 -0.106595
v -0.250213 -0.062183 -0.090954
v -0.250213 -0.086543 -0.066593
v -0.250213 -0.102184 -0.035896
v -0.250213 -0.107575 -0.001869
v -0.250213 -0.102184 0.032159
v -0.250213 -0.086543 0.062856
v -0.250213 -0.062183 0.087217
v -0.250213 -0.031486 0.102858
v -0.250213 0.002541 0.108248
v -0.250213 0.036570 0.102858
v -0.250213 0.067266 0.087217
v -0.250213 0.091628 0.062856
v -0.250213 0.107269 0.032159
v -0.250213 0.112658 -0.001869
v -0.250213 0.107269 -0.035896
v -0.250213 0.091628 -0.066593
v -0.250213 0.067266 -0.090954
v -0.250213 0.036570 -0.106595
v -0.250213 0.002541 -0.111985
v -0.240181 -0.107253 -0.152989
v -0.233473 -0.113562 -0.161672
v -0.240181 -0.148579 -0.111664
v -0.233473 -0.157262 -0.117973
v -0.240181 -0.175111 -0.059591
v -0.233473 -0.185318 -0.062908
v -0.240181 -0.184253 -0.001869
v -0.233473 -0.194986 -0.001869
v -0.240181 -0.175111 0.055854
v -0.233473 -0.185318 0.059171
v -0.240181 -0.148579 0.107927
v -0.233473 -0.157262 0.114236
v -0.240181 -0.107253 0.149252
v -0.233473 -0.113562 0.157935
v -0.240181 -0.055181 0.175784
v -0.233473 -0.058497 0.185992
v -0.240181 0.002542 0.184926
v -0.233473 0.002542 0.195659
v -0.240181 0.060264 0.175784
v -0.233473 0.063581 0.185992
v -0.240181 0.112337 0.149252
v -0.233473 0.118646 0.157935
v -0.240181 0.153662 0.107926
v -0.233473 0.162345 0.114235
v -0.240181 0.180195 0.055854
v -0.233473 0.190402 0.059171
v -0.240181 0.189337 -0.001869
v -0.233473 0.200070 -0.001869
v -0.240181 0.180195 -0.059591
v -0.233473 0.190402 -0.062908
v -0.240181 0.153662 -0.111664
v -0.233473 0.162345 -0.117972
v -0.240181 0.112337 -0.152989
v -0.233473 0.118646 -0.161672
v -0.240181 0.060264 -0.179521
v -0.233473 0.063581 -0.189729
v -0.240181 -0.055181 -0.179521
v -0.233473 -0.058497 -0.189729
v -0.240181 0.002542 -0.188664
v -0.233473 0.002542 -0.199397
v -0.217864 -0.062375 -0.201663
v -0.217864 -0.120938 -0.171824
v -0.217864 -0.167414 -0.125349
v -0.217864 -0.197253 -0.066786
v -0.217864 -0.207535 -0.001869
v -0.217864 -0.197253 0.063049
v -0.217864 -0.167414 0.121611
v -0.217864 -0.120938 0.168087
v -0.217864 -0.062375 0.197926
v -0.217864 0.002542 0.208208
v -0.217864 0.067459 0.197926
v -0.217864 0.126022 0.168087
v -0.217864 0.172497 0.121611
v -0.217864 0.202337 0.063049
v -0.217864 0.212618 -0.001869
v -0.217864 0.202337 -0.066786
v -0.217864 0.172497 -0.125349
v -0.217864 0.126022 -0.171824
v -0.217864 0.067459 -0.201663
v -0.217864 0.002542 -0.211945
v 0.224170 -0.103583 -0.147937
v 0.217266 -0.111090 -0.158269
v 0.224170 -0.143527 -0.107994
v 0.217266 -0.153859 -0.115500
v 0.224170 -0.169172 -0.057662
v 0.217266 -0.181318 -0.061608
v 0.224170 -0.178009 -0.001869
v 0.217266 -0.190780 -0.001869
v 0.224170 -0.169172 0.053925
v 0.217266 -0.181318 0.057871
v 0.224170 -0.143527 0.104256
v 0.217266 -0.153859 0.111763
v 0.224170 -0.103583 0.144200
v 0.217266 -0.111090 0.154532
v 0.224170 -0.053251 0.169845
v 0.217266 -0.057198 0.181992
v 0.224170 0.002542 0.178682
v 0.217266 0.002542 0.191453
v 0.224170 0.058335 0.169845
v 0.217266 0.062281 0.181992
v 0.224170 0.108667 0.144200
v 0.217266 0.116174 0.154532
v 0.224170 0.148610 0.104256
v 0.217266 0.158942 0.111763
v 0.224170 0.174256 0.053925
v 0.217266 0.186402 0.057871
v 0.224170 0.183092 -0.001869
v 0.217266 0.195864 -0.001869
v 0.224170 0.174256 -0.057662
v 0.217266 0.186402 -0.061608
v 0.224170 0.148610 -0.107994
v 0.217266 0.158942 -0.115500
v 0.224170 0.108667 -0.147937
v 0.217266 0.116173 -0.158269
v 0.224170 -0.053251 -0.173583
v 0.217266 -0.057198 -0.185729
v 0.224170 0.058335 -0.173583
v 0.217266 0.062281 -0.185729
v 0.224170 0.002542 -0.182419
v 0.217266 0.002542 -0.195191
v 0.202569 -0.062375 -0.201663
v 0.202569 -0.120938 -0.171824
v 0.202569 -0.167414 -0.125349
v 0.202569 -0.197253 -0.066786
v 0.202569 -0.207535 -0.001869
v 0.202569 -0.197253 0.063049
v 0.202569 -0.167414 0.121611
v 0.202569 -0.120938 0.168087
v 0.202569 -0.062375 0.197926
v 0.202569 0.002542 0.208208
v 0.202569 0.067459 0.197926
v 0.202569 0.126022 0.168087
v 0.202569 0.172497 0.121611
v 0.202569 0.202337 0.063049
v 0.202569 0.212618 -0.001869
v 0.202569 0.202337 -0.066786
v 0.202569 0.172497 -0.125349
v 0.202569 0.126022 -0.171824
v 0.202569 0.067459 -0.201663
v 0.202569 0.002542 -0.211945
v 0.240865 -0.034761 -0.116673
v 0.240865 -0.068411 -0.099527
v 0.240865 -0.095117 -0.072822
v 0.240865 -0.112263 -0.039171
v 0.240865 -0.118171 -0.001869
v 0.240865 -0.112263 0.035434
v 0.240865 -0.095117 0.069084
v 0.240865 -0.068411 0.095790
v 0.240865 -0.034761 0.112936
v 0.240865 0.002542 0.118844
v 0.240865 0.039844 0.112936
v 0.240865 0.073495 0.095790
v 0.240865 0.100200 0.069084
v 0.240865 0.117346 0.035434
v 0.240865 0.123254 -0.001869
v 0.240865 0.117346 -0.039171
v 0.240865 0.100200 -0.072822
v 0.240865 0.073495 -0.099527
v 0.240865 0.039844 -0.116673
v 0.240865 0.002542 -0.122581
v -0.250213 -0.041693 -0.138009
v -0.250213 -0.081597 -0.117676
v -0.250213 -0.113265 -0.086008
v -0.250213 -0.133598 -0.046103
v -0.250213 -0.140605 -0.001869
v -0.250213 -0.133598 0.042366
v -0.250213 -0.113265 0.082271
v -0.250213 -0.081597 0.113939
v -0.250213 -0.041693 0.134272
v -0.250213 0.002541 0.141278
v -0.250213 0.046776 0.134272
v -0.250213 0.086681 0.113939
v -0.250213 0.118350 0.082271
v -0.250213 0.138682 0.042366
v -0.250213 0.145688 -0.001869
v -0.250213 0.138682 -0.046103
v -0.250213 0.118350 -0.086008
v -0.250213 0.086681 -0.117676
v -0.250213 0.046776 -0.138009
v -0.250213 0.002541 -0.145015
v -0.230157 -0.026237 -0.090440
v -0.230157 -0.052198 -0.077212
v -0.230157 -0.072801 -0.056609
v -0.230157 -0.086030 -0.030647
v -0.230157 -0.090588 -0.001869
v -0.230157 -0.086030 0.026910
v -0.230157 -0.072801 0.052872
v -0.230157 -0.052198 0.073475
v -0.230157 -0.026237 0.086703
v -0.230157 0.002541 0.091261
v -0.230157 0.031320 0.086703
v -0.230157 0.057282 0.073475
v -0.230157 0.077885 0.052872
v -0.230157 0.091114 0.026910
v -0.230157 0.095672 -0.001869
v -0.230157 0.091114 -0.030647
v -0.230157 0.077885 -0.056609
v -0.230157 0.057282 -0.077212
v -0.230157 0.002541 -0.094998
v -0.230157 0.031320 -0.090440
v -0.230157 0.002542 -0.001869
vn 0.9996 0.0084 0.0258
vn 0.9996 -0.0000 0.0271
vn 1.0000 -0.0000 -0.0000
vn 0.9996 0.0159 0.0220
vn 0.9996 0.0220 0.0159
vn 0.9996 0.0258 0.0084
vn 0.9996 0.0271 -0.0000
vn 0.9996 0.0258 -0.0084
vn 0.9996 0.0220 -0.0159
vn 0.9996 0.0159 -0.0220
vn 0.9996 0.0084 -0.0258
vn 0.9996 -0.0000 -0.0271
vn 0.9996 -0.0084 -0.0258
vn 0.9996 -0.0159 -0.0220
vn 0.9996 -0.0220 -0.0159
vn 0.9996 -0.0258 -0.0084
vn 0.9996 -0.0271 -0.0000
vn 0.9996 -0.0258 0.0084
vn 0.9996 -0.0220 0.0159
vn 0.9996 -0.0159 0.0220
vn 0.9996 -0.0084 0.0258
vn 0.7855 -0.0000 0.6189
vn 0.7820 0.1926 0.5928
vn 0.7853 0.1913 0.5888
vn 0.7854 0.3638 0.5008
vn 0.7820 0.3664 0.5042
vn 0.7820 0.5043 0.3664
vn 0.7860 0.5001 0.3634
vn 0.7820 0.5928 0.1926
vn 0.7855 0.5885 0.1912
vn 0.7820 0.6233 -0.0000
vn 0.7856 0.6187 -0.0000
vn 0.7820 0.5928 -0.1926
vn 0.7853 0.5888 -0.1913
vn 0.7860 0.5001 -0.3634
vn 0.7820 0.5042 -0.3664
vn 0.7857 0.3636 -0.5005
vn 0.7820 0.3664 -0.5043
vn 0.7858 0.1911 -0.5882
vn 0.7820 0.1926 -0.5928
vn 0.7820 -0.0000 -0.6233
vn 0.7854 -0.0000 -0.6190
vn 0.7860 -0.1910 -0.5879
vn 0.7820 -0.1926 -0.5928
vn 0.7820 -0.3664 -0.5043
vn 0.7856 -0.3637 -0.5006
vn 0.7820 -0.5043 -0.3664
vn 0.7860 -0.5001 -0.3634
vn 0.7820 -0.5928 -0.1926
vn 0.7854 -0.5887 -0.1913
vn 0.7855 -0.6189 -0.0000
vn 0.7820 -0.6233 -0.0000
vn 0.7820 -0.5928 0.1926
vn 0.7855 -0.5886 0.1912
vn 0.7820 -0.5043 0.3664
vn 0.7852 -0.5010 0.3640
vn 0.7853 -0.3639 0.5008
vn 0.7820 -0.3664 0.5043
vn 0.7820 -0.1926 0.5928
vn 0.7853 -0.1913 0.5888
vn 0.7820 -0.0000 0.6233
vn 0.9978 0.0205 0.0630
vn 0.9978 0.0389 0.0535
vn 0.9978 0.0535 0.0389
vn 0.9978 0.0629 0.0205
vn 0.9978 0.0662 -0.0000
vn 0.9978 0.0629 -0.0205
vn 0.9978 0.0535 -0.0389
vn 0.9978 0.0389 -0.0535
vn 0.9978 0.0204 -0.0629
vn 0.9978 -0.0000 -0.0662
vn 0.9978 -0.0204 -0.0629
vn 0.9978 -0.0389 -0.0535
vn 0.9978 -0.0535 -0.0389
vn 0.9978 -0.0629 -0.0205
vn 0.9978 -0.0662 -0.0000
vn 0.9978 -0.0630 0.0204
vn 0.9978 -0.0535 0.0389
vn 0.9978 -0.0389 0.0536
vn 0.9978 -0.0205 0.0629
vn 0.9978 -0.0000 0.0662
vn 0.7595 -0.0000 -0.6505
vn 0.7596 -0.2010 -0.6186
vn 0.7595 -0.3823 -0.5262
vn 0.7596 -0.5262 -0.3823
vn 0.7595 -0.6186 -0.2010
vn 0.7596 -0.6504 -0.0000
vn 0.7595 -0.6186 0.2010
vn 0.7595 -0.5262 0.3823
vn 0.7596 -0.3823 0.5262
vn 0.7595 -0.2010 0.6186
vn 0.7595 -0.0000 0.6505
vn 0.7595 0.2010 0.6186
vn 0.7596 0.3823 0.5262
vn 0.7595 0.5262 0.3823
vn 0.7596 0.6186 0.2010
vn 0.7596 0.6504 -0.0000
vn 0.7596 0.6186 -0.2010
vn 0.7595 0.5262 -0.3823
vn 0.7595 0.3823 -0.5262
vn 0.7595 0.2010 -0.6186
vn 0.5145 -0.2650 -0.8155
vn 0.5146 -0.5040 -0.6937
vn 0.5146 -0.6937 -0.5040
vn 0.5146 -0.8155 -0.2650
vn 0.5146 -0.8574 -0.0000
vn 0.5146 -0.8155 0.2650
vn 0.5146 -0.6937 0.5040
vn 0.5146 -0.5040 0.6937
vn 0.5145 -0.2650 0.8155
vn 0.5145 -0.0000 0.8575
vn 0.5145 0.2650 0.8155
vn 0.5146 0.5040 0.6937
vn 0.5146 0.6937 0.5040
vn 0.5146 0.8155 0.2650
vn 0.5145 0.8575 -0.0000
vn 0.5146 0.8155 -0.2650
vn 0.5145 0.6937 -0.5040
vn 0.5145 0.5040 -0.6937
vn 0.5145 0.2650 -0.8155
vn 0.5145 -0.0000 -0.8575
vn -0.3956 -0.2838 -0.8735
vn -0.3955 -0.5398 -0.7431
vn -0.3955 -0.7430 -0.5399
vn -0.3955 -0.8735 -0.2838
vn -0.3955 -0.9185 -0.0000
vn -0.3955 -0.8735 0.2838
vn -0.3955 -0.7430 0.5399
vn -0.3955 -0.5398 0.7431
vn -0.3956 -0.2838 0.8735
vn -0.3955 -0.0000 0.9184
vn -0.3956 0.2838 0.8735
vn -0.3956 0.5398 0.7430
vn -0.3956 0.7430 0.5399
vn -0.3956 0.8735 0.2838
vn -0.3955 0.9184 -0.0000
vn -0.3956 0.8735 -0.2838
vn -0.3956 0.7430 -0.5398
vn -0.3956 0.5398 -0.7430
vn -0.3955 0.2838 -0.8735
vn -0.3956 0.0001 -0.9184
vn -0.5482 -0.0000 -0.8364
vn -0.5482 -0.2585 -0.7954
vn -0.5482 -0.4916 -0.6766
vn -0.5481 -0.6767 -0.4916
vn -0.5481 -0.7955 -0.2585
vn -0.5482 -0.8364 -0.0000
vn -0.5481 -0.7955 0.2585
vn -0.5481 -0.6767 0.4916
vn -0.5482 -0.4916 0.6766
vn -0.5481 -0.2585 0.7955
vn -0.5482 -0.0000 0.8364
vn -0.5481 0.2585 0.7955
vn -0.5482 0.4916 0.6766
vn -0.5482 0.6766 0.4916
vn -0.5482 0.7954 0.2585
vn -0.5482 0.8364 -0.0000
vn -0.5482 0.7954 -0.2585
vn -0.5482 0.6766 -0.4916
vn -0.5482 0.4916 -0.6766
vn -0.5482 0.2585 -0.7954
vn -0.6411 0.2372 0.7299
vn -0.6877 -0.0000 0.7260
vn -0.6412 -0.0000 0.7674
vn -0.6411 0.4511 0.6209
vn -0.6877 0.2243 0.6905
vn -0.6411 0.6209 0.4511
vn -0.6877 0.4267 0.5873
vn -0.6410 0.7299 0.2372
vn -0.6877 0.5873 0.4267
vn -0.6411 0.7674 -0.0000
vn -0.6877 0.6904 0.2243
vn -0.6411 0.7299 -0.2372
vn -0.6877 0.7260 -0.0000
vn -0.6411 0.6209 -0.4511
vn -0.6877 0.6905 -0.2243
vn -0.6877 0.4267 -0.5873
vn -0.6877 0.5873 -0.4267
vn -0.6411 0.4511 -0.6209
vn -0.6877 0.2243 -0.6905
vn -0.6412 0.2371 -0.7298
vn -0.6877 -0.0000 -0.7260
vn -0.6411 -0.0000 -0.7675
vn -0.6877 -0.2243 -0.6904
vn -0.6411 -0.2371 -0.7299
vn -0.6877 -0.4267 -0.5873
vn -0.6410 -0.6209 -0.4511
vn -0.6411 -0.4511 -0.6209
vn -0.6877 -0.6905 -0.2243
vn -0.6877 -0.5873 -0.4267
vn -0.6411 -0.7299 -0.2372
vn -0.6877 -0.7260 -0.0000
vn -0.6411 -0.7675 -0.0000
vn -0.6877 -0.6904 0.2243
vn -0.6411 -0.7299 0.2372
vn -0.6877 -0.5873 0.4267
vn -0.6411 -0.4511 0.6209
vn -0.6411 -0.6209 0.4511
vn -0.6411 -0.2372 0.7299
vn -0.6877 -0.4267 0.5873
vn -0.6877 -0.2243 0.6904
vn -0.9847 0.0538 0.1656
vn -0.9847 -0.0000 0.1741
vn -0.9847 0.1024 0.1408
vn -0.9847 0.1408 0.1023
vn -0.9847 0.1656 0.0537
vn -0.9847 0.1741 -0.0000
vn -0.9847 0.1656 -0.0538
vn -0.9847 0.1024 -0.1409
vn -0.9847 0.1409 -0.1023
vn -0.9847 0.0538 -0.1656
vn -0.9847 -0.0000 -0.1741
vn -0.9847 -0.1023 -0.1409
vn -0.9847 -0.0539 -0.1656
vn -0.9847 -0.1409 -0.1023
vn -0.9847 -0.1741 0.0001
vn -0.9847 -0.1656 -0.0538
vn -0.9847 -0.1656 0.0538
vn -0.9847 -0.1409 0.1023
vn -0.9847 -0.1024 0.1409
vn -0.9847 -0.0538 0.1656
vn -1.0000 -0.0000 -0.0000
vn -0.9493 -0.0971 -0.2989
vn -0.9746 -0.0000 -0.2240
vn -0.9493 -0.0000 -0.3143
vn -0.9493 -0.1847 -0.2542
vn -0.9746 -0.0692 -0.2130
vn -0.9746 -0.1812 -0.1317
vn -0.9746 -0.1317 -0.1812
vn -0.9493 -0.2542 -0.1847
vn -0.9746 -0.2130 -0.0692
vn -0.9493 -0.2989 -0.0971
vn -0.9746 -0.2240 -0.0000
vn -0.9493 -0.2989 0.0971
vn -0.9493 -0.3143 -0.0000
vn -0.9493 -0.2542 0.1847
vn -0.9746 -0.2130 0.0692
vn -0.9493 -0.1848 0.2543
vn -0.9746 -0.1812 0.1317
vn -0.9746 -0.0692 0.2130
vn -0.9746 -0.1317 0.1812
vn -0.9493 -0.0971 0.2989
vn -0.9746 -0.0000 0.2240
vn -0.9493 -0.0000 0.3143
vn -0.9746 0.0692 0.2130
vn -0.9493 0.1848 0.2543
vn -0.9493 0.0971 0.2989
vn -0.9746 0.1812 0.1317
vn -0.9746 0.1317 0.1812
vn -0.9493 0.2543 0.1848
vn -0.9746 0.2130 0.0692
vn -0.9493 0.3143 -0.0000
vn -0.9493 0.2989 0.0971
vn -0.9493 0.2989 -0.0971
vn -0.9746 0.2240 -0.0000
vn -0.9746 0.1812 -0.1317
vn -0.9746 0.2130 -0.0692
vn -0.9493 0.1847 -0.2543
vn -0.9493 0.2543 -0.1847
vn -0.9746 0.0692 -0.2130
vn -0.9746 0.1317 -0.1812
vn -0.9493 0.0971 -0.2989
vn -0.7106 -0.4136 -0.5692
vn -0.6266 -0.2408 -0.7412
vn -0.6266 -0.4581 -0.6305
vn -0.7106 -0.5692 -0.4136
vn -0.6266 -0.6305 -0.4581
vn -0.6266 -0.7412 -0.2408
vn -0.7106 -0.7036 -0.0000
vn -0.6266 -0.7794 -0.0000
vn -0.7106 -0.6692 0.2174
vn -0.6266 -0.7412 0.2408
vn -0.6266 -0.6305 0.4581
vn -0.6266 -0.4581 0.6305
vn -0.7106 -0.5692 0.4136
vn -0.6266 -0.2408 0.7412
vn -0.7106 -0.4136 0.5692
vn -0.6266 -0.0000 0.7794
vn -0.7106 -0.2174 0.6692
vn -0.7106 0.2174 0.6691
vn -0.6266 0.2408 0.7412
vn -0.7106 0.4136 0.5692
vn -0.6266 0.4581 0.6305
vn -0.6266 0.6305 0.4581
vn -0.7106 0.6692 0.2174
vn -0.6266 0.7412 0.2408
vn -0.6266 0.7794 -0.0000
vn -0.7106 0.6692 -0.2174
vn -0.6266 0.7412 -0.2408
vn -0.7106 0.5692 -0.4136
vn -0.6266 0.6305 -0.4581
vn -0.7106 0.4136 -0.5692
vn -0.6266 0.4581 -0.6305
vn -0.6266 0.2408 -0.7412
vn -0.6265 -0.0000 -0.7794
vn -0.7106 0.2174 -0.6692
vn -0.7106 -0.2174 -0.6692
vn -0.7106 -0.0000 -0.7036
vn -0.7106 -0.6692 -0.2174
vn -0.7106 -0.0000 0.7036
vn -0.7106 0.5692 0.4136
vn -0.7106 0.7036 -0.0000
vn -0.0000 -0.3090 -0.9511
vn -0.0000 -0.0000 -1.0000
vn -0.0000 -0.5878 -0.8090
vn -0.0000 -0.8090 -0.5878
vn -0.0000 -0.9511 -0.3090
vn -0.0000 -1.0000 -0.0000
vn -0.0000 -0.9511 0.3090
vn -0.0000 -0.8090 0.5878
vn -0.0000 -0.5878 0.8090
vn -0.0000 -0.3090 0.9511
vn -0.0000 -0.0000 1.0000
vn -0.0000 0.3090 0.9511
vn -0.0000 0.5878 0.8090
vn -0.0000 0.8090 0.5878
vn -0.0000 0.9511 0.3090
vn -0.0000 1.0000 -0.0000
vn -0.0000 0.9511 -0.3090
vn -0.0000 0.8090 -0.5878
vn -0.0000 0.5878 -0.8090
vn -0.0000 0.3090 -0.9511
vn 0.9632 -0.0000 -0.2687
vn 0.9461 -0.1001 -0.3080
vn 0.9461 -0.0000 -0.3239
vn 0.9632 -0.0830 -0.2556
vn 0.9461 -0.1903 -0.2620
vn 0.9632 -0.2174 -0.1580
vn 0.9632 -0.1580 -0.2174
vn 0.9461 -0.3080 -0.1001
vn 0.9461 -0.2620 -0.1903
vn 0.9632 -0.2687 -0.0000
vn 0.9632 -0.2556 -0.0830
vn 0.9632 -0.2556 0.0830
vn 0.9461 -0.3239 -0.0000
vn 0.9461 -0.2620 0.1904
vn 0.9461 -0.3080 0.1001
vn 0.9632 -0.1580 0.2174
vn 0.9632 -0.2174 0.1580
vn 0.9632 -0.0830 0.2556
vn 0.9461 -0.1903 0.2620
vn 0.9632 -0.0000 0.2687
vn 0.9461 -0.1001 0.3080
vn 0.9632 0.0830 0.2556
vn 0.9461 -0.0000 0.3238
vn 0.9632 0.1580 0.2174
vn 0.9461 0.1001 0.3080
vn 0.9461 0.2620 0.1904
vn 0.9461 0.1904 0.2620
vn 0.9632 0.2556 0.0830
vn 0.9632 0.2174 0.1580
vn 0.9461 0.3239 -0.0000
vn 0.9461 0.3080 0.1001
vn 0.9632 0.2556 -0.0830
vn 0.9632 0.2687 -0.0000
vn 0.9461 0.2620 -0.1903
vn 0.9461 0.3080 -0.1001
vn 0.9632 0.1580 -0.2174
vn 0.9632 0.2174 -0.1580
vn 0.9632 0.0830 -0.2556
vn 0.9461 0.1904 -0.2620
vn 0.9461 0.1001 -0.3080
vn 0.7518 -0.3876 -0.5335
vn 0.7996 -0.1856 -0.5711
vn 0.7996 -0.3530 -0.4858
vn 0.7518 -0.5335 -0.3876
vn 0.7996 -0.4858 -0.3530
vn 0.7518 -0.6272 -0.2038
vn 0.7996 -0.5711 -0.1856
vn 0.7518 -0.6594 -0.0000
vn 0.7996 -0.6005 -0.0000
vn 0.7996 -0.5711 0.1856
vn 0.7996 -0.4858 0.3530
vn 0.7518 -0.6272 0.2038
vn 0.7518 -0.3876 0.5335
vn 0.7996 -0.3530 0.4858
vn 0.7996 -0.1856 0.5711
vn 0.7996 -0.0000 0.6005
vn 0.7517 -0.2038 0.6272
vn 0.7996 0.1856 0.5711
vn 0.7518 -0.0000 0.6594
vn 0.7996 0.3530 0.4858
vn 0.7518 0.2038 0.6272
vn 0.7518 0.5335 0.3876
vn 0.7996 0.4858 0.3530
vn 0.7996 0.5711 0.1856
vn 0.7518 0.6594 -0.0000
vn 0.7996 0.6005 -0.0000
vn 0.7996 0.5711 -0.1856
vn 0.7996 0.4858 -0.3530
vn 0.7518 0.6272 -0.2038
vn 0.7518 0.3876 -0.5335
vn 0.7996 0.3530 -0.4859
vn 0.7518 0.2038 -0.6272
vn 0.7996 0.1856 -0.5711
vn 0.7996 -0.0000 -0.6005
vn 0.7517 -0.2038 -0.6272
vn 0.7517 -0.0000 -0.6594
vn 0.7518 0.5335 -0.3876
vn 0.7518 0.6272 0.2038
vn 0.7518 0.3876 0.5335
vn 0.7518 -0.5335 0.3876
vt 0.333407 0.111521
vt 0.316224 0.114371
vt 0.316590 0.058646
vt 0.348772 0.103392
vt 0.360742 0.090911
vt 0.368164 0.075446
vt 0.370412 0.058613
vt 0.367408 0.042085
vt 0.359569 0.027416
vt 0.347730 0.015921
vt 0.333032 0.008589
vt 0.316823 0.006039
vt 0.300559 0.008492
vt 0.285707 0.015759
vt 0.273649 0.027243
vt 0.265571 0.041958
vt 0.262349 0.058572
vt 0.264435 0.075497
vt 0.271759 0.091027
vt 0.283686 0.103519
vt 0.299041 0.111602
vt 0.220739 0.276069
vt 0.198524 0.264930
vt 0.220739 0.264930
vt 0.220739 0.252987
vt 0.198524 0.252987
vt 0.198524 0.240702
vt 0.220739 0.240702
vt 0.198524 0.228083
vt 0.220739 0.228083
vt 0.198524 0.214297
vt 0.220739 0.214297
vt 0.198524 0.200421
vt 0.220739 0.200421
vt 0.220739 0.184362
vt 0.198524 0.184362
vt 0.220739 0.166385
vt 0.198524 0.166385
vt 0.220739 0.148763
vt 0.198524 0.148763
vt 0.198524 0.131255
vt 0.220739 0.131255
vt 0.220739 0.116363
vt 0.198524 0.116363
vt 0.198524 0.101489
vt 0.220739 0.101489
vt 0.198524 0.086495
vt 0.220739 0.086495
vt 0.198524 0.073248
vt 0.220739 0.073248
vt 0.220739 0.060795
vt 0.198524 0.060795
vt 0.198524 0.051561
vt 0.220739 0.051561
vt 0.198524 0.041625
vt 0.220739 0.041625
vt 0.220739 0.031471
vt 0.198524 0.031471
vt 0.198524 0.020965
vt 0.220739 0.020965
vt 0.220739 0.006713
vt 0.198524 0.006713
vt 0.231130 0.264930
vt 0.231130 0.252987
vt 0.231130 0.240702
vt 0.231130 0.228083
vt 0.231130 0.214297
vt 0.231130 0.200421
vt 0.231130 0.184361
vt 0.231130 0.166385
vt 0.231130 0.148763
vt 0.231130 0.131255
vt 0.231130 0.116363
vt 0.231130 0.101489
vt 0.231130 0.086495
vt 0.231130 0.073248
vt 0.231130 0.060795
vt 0.231130 0.051561
vt 0.231130 0.041625
vt 0.231130 0.031471
vt 0.231130 0.020965
vt 0.231130 0.006713
vt 0.237602 0.276069
vt 0.237602 0.264930
vt 0.237602 0.252987
vt 0.237602 0.240702
vt 0.237602 0.228083
vt 0.237602 0.214297
vt 0.237602 0.200421
vt 0.237602 0.184362
vt 0.237602 0.166385
vt 0.237602 0.148763
vt 0.237602 0.131255
vt 0.237602 0.116363
vt 0.237602 0.101489
vt 0.237602 0.086495
vt 0.237602 0.073248
vt 0.237602 0.060795
vt 0.237602 0.051561
vt 0.237602 0.041625
vt 0.237602 0.031471
vt 0.237602 0.020965
vt 0.237602 0.006713
vt 0.240862 0.264930
vt 0.240862 0.252987
vt 0.240862 0.240702
vt 0.240862 0.228083
vt 0.240862 0.214297
vt 0.240862 0.200421
vt 0.240862 0.184362
vt 0.240862 0.166386
vt 0.240862 0.148763
vt 0.240862 0.131255
vt 0.240862 0.116363
vt 0.240862 0.101489
vt 0.240862 0.086495
vt 0.240862 0.073248
vt 0.240862 0.060795
vt 0.240862 0.051561
vt 0.240862 0.041625
vt 0.240862 0.031471
vt 0.240862 0.020965
vt 0.240862 0.006713
vt 0.242398 0.264930
vt 0.240862 0.276069
vt 0.242398 0.252987
vt 0.242398 0.240702
vt 0.242398 0.228083
vt 0.242398 0.214297
vt 0.242398 0.200421
vt 0.242397 0.184362
vt 0.242398 0.166385
vt 0.242397 0.148763
vt 0.242397 0.131255
vt 0.242397 0.116363
vt 0.242397 0.101489
vt 0.242398 0.086495
vt 0.242398 0.073248
vt 0.242398 0.060795
vt 0.242398 0.051561
vt 0.242398 0.041625
vt 0.242398 0.031471
vt 0.242398 0.020965
vt 0.242398 0.006713
vt 0.258970 0.276069
vt 0.258970 0.264930
vt 0.258970 0.252987
vt 0.258970 0.240702
vt 0.258970 0.228083
vt 0.258970 0.214297
vt 0.258970 0.200421
vt 0.258970 0.184362
vt 0.258970 0.166385
vt 0.258970 0.148763
vt 0.258970 0.131255
vt 0.258970 0.116363
vt 0.258970 0.101489
vt 0.258970 0.086495
vt 0.258970 0.073248
vt 0.258970 0.060795
vt 0.258970 0.051561
vt 0.258970 0.041625
vt 0.258970 0.031471
vt 0.258970 0.020965
vt 0.258970 0.006713
vt 0.185484 0.133631
vt 0.189742 0.152841
vt 0.185484 0.152841
vt 0.185484 0.123986
vt 0.189742 0.133631
vt 0.185484 0.108636
vt 0.189742 0.123986
vt 0.185484 0.094322
vt 0.189742 0.108636
vt 0.185484 0.080650
vt 0.189742 0.094322
vt 0.185484 0.067507
vt 0.189742 0.080650
vt 0.185484 0.053451
vt 0.189742 0.067507
vt 0.189742 0.038953
vt 0.189742 0.053451
vt 0.185484 0.038953
vt 0.189742 0.023875
vt 0.185484 0.023875
vt 0.189742 0.007158
vt 0.185484 0.273922
vt 0.189742 0.265337
vt 0.189742 0.273922
vt 0.185484 0.265337
vt 0.189742 0.255916
vt 0.185484 0.245394
vt 0.185484 0.255916
vt 0.189742 0.233817
vt 0.189742 0.245394
vt 0.185484 0.233817
vt 0.189742 0.221388
vt 0.185484 0.221388
vt 0.189742 0.208334
vt 0.185484 0.208334
vt 0.189742 0.194828
vt 0.185484 0.181018
vt 0.185484 0.194828
vt 0.185484 0.167000
vt 0.189742 0.181018
vt 0.189742 0.167000
vt 0.182672 0.133631
vt 0.182672 0.152841
vt 0.182672 0.123986
vt 0.182672 0.108636
vt 0.182672 0.094322
vt 0.182672 0.080650
vt 0.182672 0.067507
vt 0.182672 0.038953
vt 0.182672 0.053451
vt 0.182672 0.023875
vt 0.185484 0.007158
vt 0.182672 0.273922
vt 0.182672 0.255916
vt 0.182672 0.265337
vt 0.182672 0.245394
vt 0.182672 0.221388
vt 0.182672 0.233817
vt 0.182672 0.208334
vt 0.182672 0.194828
vt 0.182672 0.181018
vt 0.182672 0.167000
vt 0.175025 0.133631
vt 0.175025 0.152841
vt 0.175025 0.123986
vt 0.175025 0.108636
vt 0.175025 0.094322
vt 0.175025 0.067507
vt 0.175025 0.080650
vt 0.175025 0.053451
vt 0.175025 0.038953
vt 0.175025 0.023875
vt 0.182672 0.007158
vt 0.175025 0.265337
vt 0.175025 0.273922
vt 0.175025 0.255916
vt 0.175025 0.233817
vt 0.175025 0.245394
vt 0.175025 0.221388
vt 0.175025 0.208334
vt 0.175025 0.181018
vt 0.175025 0.194828
vt 0.175025 0.167000
vt 0.162973 0.133631
vt 0.162973 0.152841
vt 0.162973 0.123986
vt 0.162973 0.108636
vt 0.162973 0.094322
vt 0.162973 0.067507
vt 0.162973 0.080650
vt 0.162973 0.053451
vt 0.162973 0.038953
vt 0.162973 0.023875
vt 0.175025 0.007158
vt 0.162973 0.273922
vt 0.162973 0.255916
vt 0.162973 0.265337
vt 0.162973 0.245394
vt 0.162973 0.221388
vt 0.162973 0.233817
vt 0.162973 0.208334
vt 0.162973 0.181018
vt 0.162973 0.194828
vt 0.162973 0.167000
vt 0.157031 0.123986
vt 0.148739 0.133631
vt 0.148739 0.123986
vt 0.157031 0.108636
vt 0.148739 0.108636
vt 0.148739 0.094322
vt 0.157031 0.080650
vt 0.148739 0.080650
vt 0.157031 0.067507
vt 0.148739 0.067507
vt 0.148739 0.053451
vt 0.148739 0.038953
vt 0.157031 0.053451
vt 0.148739 0.023875
vt 0.157031 0.038953
vt 0.148739 0.007158
vt 0.157031 0.023875
vt 0.157031 0.265337
vt 0.148739 0.273922
vt 0.148739 0.265337
vt 0.157031 0.255916
vt 0.148739 0.255916
vt 0.148739 0.245394
vt 0.157031 0.233817
vt 0.148739 0.233817
vt 0.148739 0.221388
vt 0.157031 0.208334
vt 0.148739 0.208334
vt 0.157031 0.194828
vt 0.148739 0.194828
vt 0.157031 0.181018
vt 0.148739 0.181018
vt 0.148739 0.167000
vt 0.148739 0.152841
vt 0.157031 0.167000
vt 0.157031 0.133631
vt 0.157031 0.152841
vt 0.157031 0.094322
vt 0.162973 0.007158
vt 0.157031 0.007158
vt 0.157031 0.273922
vt 0.157031 0.245394
vt 0.157031 0.221388
vt 0.052020 0.133631
vt 0.052020 0.152841
vt 0.052020 0.123986
vt 0.052020 0.108636
vt 0.052020 0.094322
vt 0.052020 0.080650
vt 0.052020 0.067507
vt 0.052020 0.053451
vt 0.052020 0.038953
vt 0.052020 0.023875
vt 0.052020 0.007158
vt 0.052020 0.265337
vt 0.052020 0.273922
vt 0.052020 0.255916
vt 0.052020 0.245394
vt 0.052020 0.233817
vt 0.052020 0.221388
vt 0.052020 0.208334
vt 0.052020 0.194828
vt 0.052020 0.181018
vt 0.052020 0.167000
vt 0.009157 0.152841
vt 0.042718 0.133631
vt 0.042718 0.152841
vt 0.009157 0.133631
vt 0.042718 0.123986
vt 0.009157 0.108636
vt 0.009157 0.123986
vt 0.042718 0.094322
vt 0.042718 0.108636
vt 0.009157 0.080650
vt 0.009157 0.094322
vt 0.009157 0.067507
vt 0.042718 0.080650
vt 0.042718 0.053451
vt 0.042718 0.067507
vt 0.009157 0.038953
vt 0.009157 0.053451
vt 0.009157 0.023875
vt 0.042718 0.038953
vt 0.009157 0.007158
vt 0.042718 0.023875
vt 0.009157 0.265337
vt 0.042718 0.273922
vt 0.009157 0.273922
vt 0.009157 0.255916
vt 0.042718 0.265337
vt 0.042718 0.245394
vt 0.042718 0.255916
vt 0.009157 0.233817
vt 0.009157 0.245394
vt 0.042718 0.221388
vt 0.042718 0.233817
vt 0.009157 0.208334
vt 0.009157 0.221388
vt 0.042718 0.194828
vt 0.042718 0.208334
vt 0.009157 0.181018
vt 0.009157 0.194828
vt 0.009157 0.167000
vt 0.042718 0.181018
vt 0.042718 0.167000
vt 0.046188 0.133631
vt 0.046188 0.123986
vt 0.046188 0.108636
vt 0.046188 0.094322
vt 0.046188 0.080650
vt 0.046188 0.067507
vt 0.046188 0.053451
vt 0.046188 0.038953
vt 0.046188 0.023875
vt 0.046188 0.007158
vt 0.046188 0.265337
vt 0.046188 0.273922
vt 0.046188 0.255916
vt 0.046188 0.245394
vt 0.046188 0.233817
vt 0.046188 0.221388
vt 0.046188 0.208334
vt 0.046188 0.194828
vt 0.046188 0.181018
vt 0.046188 0.167000
vt 0.046188 0.152841
vt 0.042718 0.007158
vt 0.553654 0.837629
vt 0.544588 0.836086
vt 0.553595 0.808104
vt 0.536490 0.831782
vt 0.530169 0.825194
vt 0.526221 0.817021
vt 0.524986 0.808090
vt 0.526531 0.799274
vt 0.530662 0.791400
vt 0.536960 0.785186
vt 0.544828 0.781191
vt 0.553539 0.779776
vt 0.562295 0.781080
vt 0.570281 0.785007
vt 0.576733 0.791225
vt 0.581002 0.799177
vt 0.582628 0.808118
vt 0.581394 0.817173
vt 0.577375 0.825424
vt 0.570946 0.832007
vt 0.562757 0.836225
vt 0.242398 0.276069
vt 0.231130 0.276069
vt 0.198524 0.276069
s 1
g off
g GoKart.003_blinn1SG.001
usemtl blinn1SG.001
f 1/1/1 20/2/2 21/3/3
f 2/4/4 1/1/1 21/3/3
f 3/5/5 2/4/4 21/3/3
f 4/6/6 3/5/5 21/3/3
f 5/7/7 4/6/6 21/3/3
f 6/8/8 5/7/7 21/3/3
f 7/9/9 6/8/8 21/3/3
f 8/10/10 7/9/9 21/3/3
f 9/11/11 8/10/10 21/3/3
f 10/12/12 9/11/11 21/3/3
f 11/13/13 10/12/12 21/3/3
f 12/14/14 11/13/13 21/3/3
f 13/15/15 12/14/14 21/3/3
f 14/16/16 13/15/15 21/3/3
f 15/17/17 14/16/16 21/3/3
f 16/18/18 15/17/17 21/3/3
f 17/19/19 16/18/18 21/3/3
f 18/20/20 17/19/19 21/3/3
f 19/21/21 18/20/20 21/3/3
f 20/2/2 19/21/21 21/3/3
s 2
f 81/22/22 42/23/23 62/24/24
f 63/25/25 42/23/23 43/26/26
f 63/25/25 44/27/27 64/28/28
f 64/28/28 45/29/29 65/30/30
f 65/30/30 46/31/31 66/32/32
f 66/32/32 47/33/33 67/34/34
f 68/35/35 47/33/33 48/36/36
f 69/37/37 48/36/36 49/38/38
f 70/39/39 49/38/38 50/40/40
f 70/39/39 51/41/41 71/42/42
f 72/43/43 51/41/41 52/44/44
f 72/43/43 53/45/45 73/46/46
f 73/46/46 54/47/47 74/48/48
f 74/48/48 55/49/49 75/50/50
f 76/51/51 55/49/49 56/52/52
f 76/51/51 57/53/53 77/54/54
f 77/54/54 58/55/55 78/56/56
f 79/57/57 58/55/55 59/58/58
f 79/57/57 60/59/59 80/60/60
f 81/61/22 60/59/59 61/62/61
f 82/63/62 81/22/22 62/24/24
f 83/64/63 62/24/24 63/25/25
f 84/65/64 63/25/25 64/28/28
f 85/66/65 64/28/28 65/30/30
f 85/66/65 66/32/32 86/67/66
f 86/67/66 67/34/34 87/68/67
f 87/68/67 68/35/35 88/69/68
f 88/69/68 69/37/37 89/70/69
f 89/70/69 70/39/39 90/71/70
f 90/71/70 71/42/42 91/72/71
f 92/73/72 71/42/42 72/43/43
f 93/74/73 72/43/43 73/46/46
f 94/75/74 73/46/46 74/48/48
f 95/76/75 74/48/48 75/50/50
f 96/77/76 75/50/50 76/51/51
f 96/77/76 77/54/54 97/78/77
f 97/78/77 78/56/56 98/79/78
f 98/79/78 79/57/57 99/80/79
f 99/80/79 80/60/60 100/81/80
f 100/81/80 81/61/22 101/82/81
f 121/83/82 82/63/62 102/84/83
f 102/84/83 83/64/63 103/85/84
f 103/85/84 84/65/64 104/86/85
f 104/86/85 85/66/65 105/87/86
f 105/87/86 86/67/66 106/88/87
f 107/89/88 86/67/66 87/68/67
f 108/90/89 87/68/67 88/69/68
f 109/91/90 88/69/68 89/70/69
f 110/92/91 89/70/69 90/71/70
f 111/93/92 90/71/70 91/72/71
f 112/94/93 91/72/71 92/73/72
f 112/94/93 93/74/73 113/95/94
f 113/95/94 94/75/74 114/96/95
f 114/96/95 95/76/75 115/97/96
f 116/98/97 95/76/75 96/77/76
f 117/99/98 96/77/76 97/78/77
f 117/99/98 98/79/78 118/100/99
f 118/100/99 99/80/79 119/101/100
f 120/102/101 99/80/79 100/81/80
f 120/102/101 101/82/81 121/103/82
f 122/104/102 121/83/82 102/84/83
f 123/105/103 102/84/83 103/85/84
f 124/106/104 103/85/84 104/86/85
f 125/107/105 104/86/85 105/87/86
f 125/107/105 106/88/87 126/108/106
f 127/109/107 106/88/87 107/89/88
f 127/109/107 108/90/89 128/110/108
f 128/110/108 109/91/90 129/111/109
f 129/111/109 110/92/91 130/112/110
f 130/112/110 111/93/92 131/113/111
f 132/114/112 111/93/92 112/94/93
f 133/115/113 112/94/93 113/95/94
f 134/116/114 113/95/94 114/96/95
f 135/117/115 114/96/95 115/97/96
f 136/118/116 115/97/96 116/98/97
f 136/118/116 117/99/98 137/119/117
f 137/119/117 118/100/99 138/120/118
f 139/121/119 118/100/99 119/101/100
f 140/122/120 119/101/100 120/102/101
f 140/122/120 121/103/82 141/123/121
f 142/124/122 141/125/121 122/104/102
f 143/126/123 122/104/102 123/105/103
f 144/127/124 123/105/103 124/106/104
f 144/127/124 125/107/105 145/128/125
f 146/129/126 125/107/105 126/108/106
f 146/129/126 127/109/107 147/130/127
f 148/131/128 127/109/107 128/110/108
f 148/131/128 129/111/109 149/132/129
f 149/132/129 130/112/110 150/133/130
f 150/133/130 131/113/111 151/134/131
f 151/134/131 132/114/112 152/135/132
f 153/136/133 132/114/112 133/115/113
f 154/137/134 133/115/113 134/116/114
f 154/137/134 135/117/115 155/138/135
f 156/139/136 135/117/115 136/118/116
f 156/139/136 137/119/117 157/140/137
f 158/141/138 137/119/117 138/120/118
f 158/141/138 139/121/119 159/142/139
f 159/142/139 140/122/120 160/143/140
f 161/144/141 140/122/120 141/123/121
f 41/145/142 142/124/122 22/146/143
f 22/146/143 143/126/123 23/147/144
f 23/147/144 144/127/124 24/148/145
f 25/149/146 144/127/124 145/128/125
f 26/150/147 145/128/125 146/129/126
f 26/150/147 147/130/127 27/151/148
f 28/152/149 147/130/127 148/131/128
f 29/153/150 148/131/128 149/132/129
f 30/154/151 149/132/129 150/133/130
f 31/155/152 150/133/130 151/134/131
f 31/155/152 152/135/132 32/156/153
f 32/156/153 153/136/133 33/157/154
f 33/157/154 154/137/134 34/158/155
f 35/159/156 154/137/134 155/138/135
f 36/160/157 155/138/135 156/139/136
f 36/160/157 157/140/137 37/161/158
f 37/161/158 158/141/138 38/162/159
f 38/162/159 159/142/139 39/163/160
f 40/164/161 159/142/139 160/143/140
f 41/165/142 160/143/140 161/144/141
f 41/165/142 40/164/161 160/143/140
f 40/164/161 39/163/160 159/142/139
f 38/162/159 158/141/138 159/142/139
f 37/161/158 157/140/137 158/141/138
f 36/160/157 156/139/136 157/140/137
f 36/160/157 35/159/156 155/138/135
f 35/159/156 34/158/155 154/137/134
f 33/157/154 153/136/133 154/137/134
f 32/156/153 152/135/132 153/136/133
f 31/155/152 151/134/131 152/135/132
f 31/155/152 30/154/151 150/133/130
f 30/154/151 29/153/150 149/132/129
f 29/153/150 28/152/149 148/131/128
f 28/152/149 27/151/148 147/130/127
f 26/150/147 146/129/126 147/130/127
f 26/150/147 25/149/146 145/128/125
f 25/149/146 24/148/145 144/127/124
f 23/147/144 143/126/123 144/127/124
f 22/146/143 142/124/122 143/126/123
f 41/145/142 161/418/141 142/124/122
f 161/144/141 160/143/140 140/122/120
f 159/142/139 139/121/119 140/122/120
f 158/141/138 138/120/118 139/121/119
f 158/141/138 157/140/137 137/119/117
f 156/139/136 136/118/116 137/119/117
f 156/139/136 155/138/135 135/117/115
f 154/137/134 134/116/114 135/117/115
f 154/137/134 153/136/133 133/115/113
f 153/136/133 152/135/132 132/114/112
f 151/134/131 131/113/111 132/114/112
f 150/133/130 130/112/110 131/113/111
f 149/132/129 129/111/109 130/112/110
f 148/131/128 128/110/108 129/111/109
f 148/131/128 147/130/127 127/109/107
f 146/129/126 126/108/106 127/109/107
f 146/129/126 145/128/125 125/107/105
f 144/127/124 124/106/104 125/107/105
f 144/127/124 143/126/123 123/105/103
f 143/126/123 142/124/122 122/104/102
f 142/124/122 161/418/141 141/125/121
f 140/122/120 120/102/101 121/103/82
f 140/122/120 139/121/119 119/101/100
f 139/121/119 138/120/118 118/100/99
f 137/119/117 117/99/98 118/100/99
f 136/118/116 116/98/97 117/99/98
f 136/118/116 135/117/115 115/97/96
f 135/117/115 134/116/114 114/96/95
f 134/116/114 133/115/113 113/95/94
f 133/115/113 132/114/112 112/94/93
f 132/114/112 131/113/111 111/93/92
f 130/112/110 110/92/91 111/93/92
f 129/111/109 109/91/90 110/92/91
f 128/110/108 108/90/89 109/91/90
f 127/109/107 107/89/88 108/90/89
f 127/109/107 126/108/106 106/88/87
f 125/107/105 105/87/86 106/88/87
f 125/107/105 124/106/104 104/86/85
f 124/106/104 123/105/103 103/85/84
f 123/105/103 122/104/102 102/84/83
f 122/104/102 141/125/121 121/83/82
f 120/102/101 100/81/80 101/82/81
f 120/102/101 119/101/100 99/80/79
f 118/100/99 98/79/78 99/80/79
f 117/99/98 97/78/77 98/79/78
f 117/99/98 116/98/97 96/77/76
f 116/98/97 115/97/96 95/76/75
f 114/96/95 94/75/74 95/76/75
f 113/95/94 93/74/73 94/75/74
f 112/94/93 92/73/72 93/74/73
f 112/94/93 111/93/92 91/72/71
f 111/93/92 110/92/91 90/71/70
f 110/92/91 109/91/90 89/70/69
f 109/91/90 108/90/89 88/69/68
f 108/90/89 107/89/88 87/68/67
f 107/89/88 106/88/87 86/67/66
f 105/87/86 85/66/65 86/67/66
f 104/86/85 84/65/64 85/66/65
f 103/85/84 83/64/63 84/65/64
f 102/84/83 82/63/62 83/64/63
f 121/83/82 101/419/81 82/63/62
f 100/81/80 80/60/60 81/61/22
f 99/80/79 79/57/57 80/60/60
f 98/79/78 78/56/56 79/57/57
f 97/78/77 77/54/54 78/56/56
f 96/77/76 76/51/51 77/54/54
f 96/77/76 95/76/75 75/50/50
f 95/76/75 94/75/74 74/48/48
f 94/75/74 93/74/73 73/46/46
f 93/74/73 92/73/72 72/43/43
f 92/73/72 91/72/71 71/42/42
f 90/71/70 70/39/39 71/42/42
f 89/70/69 69/37/37 70/39/39
f 88/69/68 68/35/35 69/37/37
f 87/68/67 67/34/34 68/35/35
f 86/67/66 66/32/32 67/34/34
f 85/66/65 65/30/30 66/32/32
f 85/66/65 84/65/64 64/28/28
f 84/65/64 83/64/63 63/25/25
f 83/64/63 82/63/62 62/24/24
f 82/63/62 101/419/81 81/22/22
f 81/61/22 80/60/60 60/59/59
f 79/57/57 59/58/58 60/59/59
f 79/57/57 78/56/56 58/55/55
f 77/54/54 57/53/53 58/55/55
f 76/51/51 56/52/52 57/53/53
f 76/51/51 75/50/50 55/49/49
f 74/48/48 54/47/47 55/49/49
f 73/46/46 53/45/45 54/47/47
f 72/43/43 52/44/44 53/45/45
f 72/43/43 71/42/42 51/41/41
f 70/39/39 50/40/40 51/41/41
f 70/39/39 69/37/37 49/38/38
f 69/37/37 68/35/35 48/36/36
f 68/35/35 67/34/34 47/33/33
f 66/32/32 46/31/31 47/33/33
f 65/30/30 45/29/29 46/31/31
f 64/28/28 44/27/27 45/29/29
f 63/25/25 43/26/26 44/27/27
f 63/25/25 62/24/24 42/23/23
f 81/22/22 61/420/61 42/23/23
s 3
g GoKart.003_lambert2SG.001
usemtl lambert2SG.001
f 182/166/162 181/167/163 201/168/164
f 183/169/165 162/170/166 182/166/162
f 184/171/167 163/172/168 183/169/165
f 185/173/169 164/174/170 184/171/167
f 186/175/171 165/176/172 185/173/169
f 187/177/173 166/178/174 186/175/171
f 188/179/175 167/180/176 187/177/173
f 188/179/175 169/181/177 168/182/178
f 189/183/179 170/184/180 169/181/177
f 190/185/181 171/186/182 170/184/180
f 191/187/183 172/188/184 171/189/182
f 192/190/185 173/191/186 172/188/184
f 194/192/187 173/191/186 193/193/188
f 194/192/187 175/194/189 174/195/190
f 195/196/191 176/197/192 175/194/189
f 196/198/193 177/199/194 176/197/192
f 197/200/195 178/201/196 177/199/194
f 199/202/197 178/201/196 198/203/198
f 200/204/199 179/205/200 199/202/197
f 201/168/164 180/206/201 200/204/199
f 202/207/202 201/168/164 221/208/203
f 202/207/202 183/169/165 182/166/162
f 203/209/204 184/171/167 183/169/165
f 204/210/205 185/173/169 184/171/167
f 205/211/206 186/175/171 185/173/169
f 206/212/207 187/177/173 186/175/171
f 207/213/208 188/179/175 187/177/173
f 209/214/209 188/179/175 208/215/210
f 210/216/211 189/183/179 209/214/209
f 210/216/211 191/217/183 190/185/181
f 211/218/212 192/190/185 191/187/183
f 213/219/213 192/190/185 212/220/214
f 213/219/213 194/192/187 193/193/188
f 214/221/215 195/196/191 194/192/187
f 216/222/216 195/196/191 215/223/217
f 217/224/218 196/198/193 216/222/216
f 218/225/219 197/200/195 217/224/218
f 219/226/220 198/203/198 218/225/219
f 219/226/220 200/204/199 199/202/197
f 221/208/203 200/204/199 220/227/221
f 362/228/222 221/208/203 381/229/222
f 363/230/222 202/207/202 362/228/222
f 364/231/222 203/209/204 363/230/222
f 364/231/222 205/211/206 204/210/205
f 365/232/222 206/212/207 205/211/206
f 367/233/222 206/212/207 366/234/222
f 368/235/222 207/213/208 367/233/222
f 368/235/222 209/214/209 208/215/210
f 369/236/222 210/216/211 209/214/209
f 370/237/222 211/238/212 210/216/211
f 372/239/222 211/218/212 371/240/222
f 373/241/222 212/220/214 372/239/222
f 373/241/222 214/221/215 213/219/213
f 375/242/222 214/221/215 374/243/222
f 376/244/222 215/223/217 375/242/222
f 376/244/222 217/224/218 216/222/216
f 377/245/222 218/225/219 217/224/218
f 379/246/222 218/225/219 378/247/222
f 379/246/222 220/227/221 219/226/220
f 380/248/222 221/208/203 220/227/221
s 4
f 258/249/223 381/229/224 260/250/225
f 222/251/226 362/228/227 258/249/223
f 222/251/226 364/231/228 363/230/229
f 224/252/230 365/232/231 364/231/228
f 226/253/232 366/234/233 365/232/231
f 230/254/234 366/234/233 228/255/235
f 232/256/236 367/233/237 230/254/234
f 234/257/238 368/235/239 232/256/236
f 234/257/238 370/237/240 369/236/241
f 236/258/242 371/259/243 370/237/240
f 238/260/244 372/239/245 371/240/243
f 242/261/246 372/239/245 240/262/247
f 242/261/246 374/243/248 373/241/249
f 244/263/250 375/242/251 374/243/248
f 248/264/252 375/242/251 246/265/253
f 250/266/254 376/244/255 248/264/252
f 250/266/254 378/247/256 377/245/257
f 254/267/258 378/247/256 252/268/259
f 254/267/258 380/248/260 379/246/261
f 260/250/225 380/248/260 256/269/262
f 223/270/263 262/271/264 263/272/265
f 225/273/266 263/272/265 264/274/267
f 265/275/268 225/273/266 264/274/267
f 229/276/269 265/275/268 266/277/270
f 231/278/271 266/277/270 267/279/272
f 268/280/273 231/278/271 267/279/272
f 269/281/274 233/282/275 268/280/273
f 270/283/276 235/284/277 269/281/274
f 271/285/278 237/286/279 270/283/276
f 241/287/280 271/288/278 272/289/281
f 243/290/282 272/289/281 273/291/283
f 274/292/284 243/290/282 273/291/283
f 247/293/285 274/292/284 275/294/286
f 276/295/287 247/293/285 275/294/286
f 251/296/288 276/295/287 277/297/289
f 253/298/290 277/297/289 278/299/291
f 255/300/292 278/299/291 279/301/293
f 280/302/294 255/300/292 279/301/293
f 281/303/295 257/304/296 280/302/294
f 281/303/295 259/305/297 261/306/298
f 224/252/230 223/270/263 225/273/266
f 227/307/299 224/252/230 225/273/266
f 229/276/269 226/253/232 227/307/299
f 230/254/234 229/276/269 231/278/271
f 232/256/236 231/278/271 233/282/275
f 235/284/277 232/256/236 233/282/275
f 236/258/242 235/284/277 237/286/279
f 238/308/244 237/286/279 239/309/300
f 240/262/247 239/310/300 241/287/280
f 242/261/246 241/287/280 243/290/282
f 245/311/301 242/261/246 243/290/282
f 247/293/285 244/263/250 245/311/301
f 249/312/302 246/265/253 247/293/285
f 250/266/254 249/312/302 251/296/288
f 253/298/290 250/266/254 251/296/288
f 255/300/292 252/268/259 253/298/290
f 257/304/296 254/267/258 255/300/292
f 258/249/223 223/270/263 222/251/226
f 260/250/225 259/305/297 258/249/223
f 261/306/298 256/269/262 257/304/296
s 5
f 322/313/303 281/303/304 341/314/304
f 323/315/305 262/271/303 322/313/303
f 324/316/306 263/272/305 323/315/305
f 325/317/307 264/274/306 324/316/306
f 326/318/308 265/275/307 325/317/307
f 327/319/309 266/277/308 326/318/308
f 328/320/310 267/279/309 327/319/309
f 329/321/311 268/280/310 328/320/310
f 330/322/312 269/281/311 329/321/311
f 331/323/313 270/283/312 330/322/312
f 332/324/314 271/288/313 331/325/313
f 333/326/315 272/289/314 332/324/314
f 334/327/316 273/291/315 333/326/315
f 335/328/317 274/292/316 334/327/316
f 336/329/318 275/294/317 335/328/317
f 337/330/319 276/295/318 336/329/318
f 338/331/320 277/297/319 337/330/319
f 339/332/321 278/299/320 338/331/320
f 340/333/322 279/301/321 339/332/321
f 341/314/304 280/302/322 340/333/322
s 6
f 361/334/323 316/335/324 320/336/325
f 342/337/326 282/338/327 316/335/324
f 344/339/328 282/338/327 343/340/329
f 344/339/328 286/341/330 284/342/331
f 346/343/332 286/341/330 345/344/333
f 347/345/334 288/346/335 346/343/332
f 347/345/334 292/347/336 290/348/337
f 349/349/338 292/347/336 348/350/339
f 350/351/340 294/352/341 349/349/338
f 351/353/342 296/354/343 350/351/340
f 352/355/344 298/356/345 351/357/342
f 353/358/346 300/359/347 352/355/344
f 353/358/346 304/360/348 302/361/349
f 355/362/350 304/360/348 354/363/351
f 355/362/350 308/364/352 306/365/353
f 357/366/354 308/364/352 356/367/355
f 357/366/354 312/368/356 310/369/357
f 359/370/358 312/368/356 358/371/359
f 360/372/360 314/373/361 359/370/358
f 360/372/360 320/336/325 318/374/362
f 323/315/363 317/375/364 283/376/365
f 324/316/366 283/376/365 285/377/367
f 325/317/368 285/377/367 287/378/369
f 326/318/370 287/378/369 289/379/371
f 291/380/372 326/318/370 289/379/371
f 293/381/373 327/319/374 291/380/372
f 329/321/375 293/381/373 295/382/376
f 297/383/377 329/321/375 295/382/376
f 299/384/378 330/322/379 297/383/377
f 301/385/380 331/325/381 299/386/378
f 303/387/382 332/324/383 301/385/380
f 334/327/384 303/387/382 305/388/385
f 307/389/386 334/327/384 305/388/385
f 336/329/387 307/389/386 309/390/388
f 311/391/389 336/329/387 309/390/388
f 313/392/390 337/330/391 311/391/389
f 339/332/392 313/392/390 315/393/393
f 340/333/394 315/393/393 319/394/395
f 321/395/396 322/313/397 341/314/398
f 341/314/398 319/394/395 321/395/396
f 284/342/331 283/376/365 282/338/327
f 286/341/330 285/377/367 284/342/331
f 288/346/335 287/378/369 286/341/330
f 291/380/372 288/346/335 290/348/337
f 293/381/373 290/348/337 292/347/336
f 295/382/376 292/347/336 294/352/341
f 297/383/377 294/352/341 296/354/343
f 299/384/378 296/354/343 298/396/345
f 301/385/380 298/356/345 300/359/347
f 303/387/382 300/359/347 302/361/349
f 305/388/385 302/361/349 304/360/348
f 306/365/353 305/388/385 304/360/348
f 308/364/352 307/389/386 306/365/353
f 311/391/389 308/364/352 310/369/357
f 313/392/390 310/369/357 312/368/356
f 315/393/393 312/368/356 314/373/361
f 317/375/364 282/338/327 283/376/365
f 318/374/362 315/393/393 314/373/361
f 320/336/325 319/394/395 318/374/362
f 321/395/396 316/335/324 317/375/364
s 7
f 400/397/222 382/398/222 402/399/222
f 382/398/222 383/400/222 402/399/222
f 383/400/222 384/401/222 402/399/222
f 384/401/222 385/402/222 402/399/222
f 385/402/222 386/403/222 402/399/222
f 386/403/222 387/404/222 402/399/222
f 387/404/222 388/405/222 402/399/222
f 388/405/222 389/406/222 402/399/222
f 389/406/222 390/407/222 402/399/222
f 390/407/222 391/408/222 402/399/222
f 391/408/222 392/409/222 402/399/222
f 392/409/222 393/410/222 402/399/222
f 393/410/222 394/411/222 402/399/222
f 394/411/222 395/412/222 402/399/222
f 395/412/222 396/413/222 402/399/222
f 396/413/222 397/414/222 402/399/222
f 397/414/222 398/415/222 402/399/222
f 398/415/222 399/416/222 402/399/222
f 399/416/222 401/417/222 402/399/222
f 401/417/222 400/397/222 402/399/222
s 6
f 321/395/396 320/336/325 316/335/324
f 320/336/325 321/395/396 319/394/395
f 318/374/362 319/394/395 315/393/393
f 317/375/364 316/335/324 282/338/327
f 315/393/393 313/392/390 312/368/356
f 313/392/390 311/391/389 310/369/357
f 311/391/389 309/390/388 308/364/352
f 308/364/352 309/390/388 307/389/386
f 306/365/353 307/389/386 305/388/385
f 305/388/385 303/387/382 302/361/349
f 303/387/382 301/385/380 300/359/347
f 301/385/380 299/386/378 298/356/345
f 299/384/378 297/383/377 296/354/343
f 297/383/377 295/382/376 294/352/341
f 295/382/376 293/381/373 292/347/336
f 293/381/373 291/380/372 290/348/337
f 291/380/372 289/379/371 288/346/335
f 288/346/335 289/379/371 287/378/369
f 286/341/330 287/378/369 285/377/367
f 284/342/331 285/377/367 283/376/365
f 341/314/398 340/333/394 319/394/395
f 321/395/396 317/375/364 322/313/397
f 340/333/394 339/332/392 315/393/393
f 339/332/392 338/331/399 313/392/390
f 313/392/390 338/331/399 337/330/391
f 311/391/389 337/330/391 336/329/387
f 336/329/387 335/328/400 307/389/386
f 307/389/386 335/328/400 334/327/384
f 334/327/384 333/326/401 303/387/382
f 303/387/382 333/326/401 332/324/383
f 301/385/380 332/324/383 331/325/381
f 299/384/378 331/323/381 330/322/379
f 297/383/377 330/322/379 329/321/375
f 329/321/375 328/320/402 293/381/373
f 293/381/373 328/320/402 327/319/374
f 291/380/372 327/319/374 326/318/370
f 326/318/370 325/317/368 287/378/369
f 325/317/368 324/316/366 285/377/367
f 324/316/366 323/315/363 283/376/365
f 323/315/363 322/313/397 317/375/364
f 360/372/360 361/334/323 320/336/325
f 360/372/360 318/374/362 314/373/361
f 359/370/358 314/373/361 312/368/356
f 357/366/354 358/371/359 312/368/356
f 357/366/354 310/369/357 308/364/352
f 355/362/350 356/367/355 308/364/352
f 355/362/350 306/365/353 304/360/348
f 353/358/346 354/363/351 304/360/348
f 353/358/346 302/361/349 300/359/347
f 352/355/344 300/359/347 298/356/345
f 351/353/342 298/396/345 296/354/343
f 350/351/340 296/354/343 294/352/341
f 349/349/338 294/352/341 292/347/336
f 347/345/334 348/350/339 292/347/336
f 347/345/334 290/348/337 288/346/335
f 346/343/332 288/346/335 286/341/330
f 344/339/328 345/344/333 286/341/330
f 344/339/328 284/342/331 282/338/327
f 342/337/326 343/340/329 282/338/327
f 361/334/323 342/337/326 316/335/324
s 5
f 341/314/304 281/303/304 280/302/322
f 340/333/322 280/302/322 279/301/321
f 339/332/321 279/301/321 278/299/320
f 338/331/320 278/299/320 277/297/319
f 337/330/319 277/297/319 276/295/318
f 336/329/318 276/295/318 275/294/317
f 335/328/317 275/294/317 274/292/316
f 334/327/316 274/292/316 273/291/315
f 333/326/315 273/291/315 272/289/314
f 332/324/314 272/289/314 271/288/313
f 331/323/313 271/285/313 270/283/312
f 330/322/312 270/283/312 269/281/311
f 329/321/311 269/281/311 268/280/310
f 328/320/310 268/280/310 267/279/309
f 327/319/309 267/279/309 266/277/308
f 326/318/308 266/277/308 265/275/307
f 325/317/307 265/275/307 264/274/306
f 324/316/306 264/274/306 263/272/305
f 323/315/305 263/272/305 262/271/303
f 322/313/303 262/271/303 281/303/304
s 4
f 261/306/298 260/250/225 256/269/262
f 260/250/225 261/306/298 259/305/297
f 258/249/223 259/305/297 223/270/263
f 257/304/296 256/269/262 254/267/258
f 255/300/292 254/267/258 252/268/259
f 253/298/290 252/268/259 250/266/254
f 250/266/254 248/264/252 249/312/302
f 249/312/302 248/264/252 246/265/253
f 247/293/285 246/265/253 244/263/250
f 245/311/301 244/263/250 242/261/246
f 242/261/246 240/262/247 241/287/280
f 240/262/247 238/260/244 239/310/300
f 238/308/244 236/258/242 237/286/279
f 236/258/242 234/257/238 235/284/277
f 235/284/277 234/257/238 232/256/236
f 232/256/236 230/254/234 231/278/271
f 230/254/234 228/255/235 229/276/269
f 229/276/269 228/255/235 226/253/232
f 227/307/299 226/253/232 224/252/230
f 224/252/230 222/251/226 223/270/263
f 281/303/295 262/271/264 259/305/297
f 281/303/295 261/306/298 257/304/296
f 280/302/294 257/304/296 255/300/292
f 255/300/292 253/298/290 278/299/291
f 253/298/290 251/296/288 277/297/289
f 251/296/288 249/312/302 276/295/287
f 276/295/287 249/312/302 247/293/285
f 247/293/285 245/311/301 274/292/284
f 274/292/284 245/311/301 243/290/282
f 243/290/282 241/287/280 272/289/281
f 241/287/280 239/310/300 271/288/278
f 271/285/278 239/309/300 237/286/279
f 270/283/276 237/286/279 235/284/277
f 269/281/274 235/284/277 233/282/275
f 268/280/273 233/282/275 231/278/271
f 231/278/271 229/276/269 266/277/270
f 229/276/269 227/307/299 265/275/268
f 265/275/268 227/307/299 225/273/266
f 225/273/266 223/270/263 263/272/265
f 223/270/263 259/305/297 262/271/264
f 260/250/225 381/229/224 380/248/260
f 254/267/258 256/269/262 380/248/260
f 254/267/258 379/246/261 378/247/256
f 250/266/254 252/268/259 378/247/256
f 250/266/254 377/245/257 376/244/255
f 248/264/252 376/244/255 375/242/251
f 244/263/250 246/265/253 375/242/251
f 242/261/246 244/263/250 374/243/248
f 242/261/246 373/241/249 372/239/245
f 238/260/244 240/262/247 372/239/245
f 236/258/242 238/308/244 371/259/243
f 234/257/238 236/258/242 370/237/240
f 234/257/238 369/236/241 368/235/239
f 232/256/236 368/235/239 367/233/237
f 230/254/234 367/233/237 366/234/233
f 226/253/232 228/255/235 366/234/233
f 224/252/230 226/253/232 365/232/231
f 222/251/226 224/252/230 364/231/228
f 222/251/226 363/230/229 362/228/227
f 258/249/223 362/228/227 381/229/224
s 3
f 380/248/222 381/229/222 221/208/203
f 379/246/222 380/248/222 220/227/221
f 379/246/222 219/226/220 218/225/219
f 377/245/222 378/247/222 218/225/219
f 376/244/222 377/245/222 217/224/218
f 376/244/222 216/222/216 215/223/217
f 375/242/222 215/223/217 214/221/215
f 373/241/222 374/243/222 214/221/215
f 373/241/222 213/219/213 212/220/214
f 372/239/222 212/220/214 211/218/212
f 370/237/222 371/259/222 211/238/212
f 369/236/222 370/237/222 210/216/211
f 368/235/222 369/236/222 209/214/209
f 368/235/222 208/215/210 207/213/208
f 367/233/222 207/213/208 206/212/207
f 365/232/222 366/234/222 206/212/207
f 364/231/222 365/232/222 205/211/206
f 364/231/222 204/210/205 203/209/204
f 363/230/222 203/209/204 202/207/202
f 362/228/222 202/207/202 221/208/203
f 221/208/203 201/168/164 200/204/199
f 219/226/220 220/227/221 200/204/199
f 219/226/220 199/202/197 198/203/198
f 218/225/219 198/203/198 197/200/195
f 217/224/218 197/200/195 196/198/193
f 216/222/216 196/198/193 195/196/191
f 214/221/215 215/223/217 195/196/191
f 213/219/213 214/221/215 194/192/187
f 213/219/213 193/193/188 192/190/185
f 211/218/212 212/220/214 192/190/185
f 210/216/211 211/238/212 191/217/183
f 210/216/211 190/185/181 189/183/179
f 209/214/209 189/183/179 188/179/175
f 207/213/208 208/215/210 188/179/175
f 206/212/207 207/213/208 187/177/173
f 205/211/206 206/212/207 186/175/171
f 204/210/205 205/211/206 185/173/169
f 203/209/204 204/210/205 184/171/167
f 202/207/202 203/209/204 183/169/165
f 202/207/202 182/166/162 201/168/164
f 201/168/164 181/167/163 180/206/201
f 200/204/199 180/206/201 179/205/200
f 199/202/197 179/205/200 178/201/196
f 197/200/195 198/203/198 178/201/196
f 196/198/193 197/200/195 177/199/194
f 195/196/191 196/198/193 176/197/192
f 194/192/187 195/196/191 175/194/189
f 194/192/187 174/195/190 173/191/186
f 192/190/185 193/193/188 173/191/186
f 191/187/183 192/190/185 172/188/184
f 190/185/181 191/217/183 171/186/182
f 189/183/179 190/185/181 170/184/180
f 188/179/175 189/183/179 169/181/177
f 188/179/175 168/182/178 167/180/176
f 187/177/173 167/180/176 166/178/174
f 186/175/171 166/178/174 165/176/172
f 185/173/169 165/176/172 164/174/170
f 184/171/167 164/174/170 163/172/168
f 183/169/165 163/172/168 162/170/166
f 182/166/162 162/170/166 181/167/163
