# Blender 5.1.0
# www.blender.org
mtllib llSuperiorDer.mtl
g GoKart.001_Mesh
v 0.194146 -0.016180 -0.043295
v 0.194146 -0.031421 -0.035530
v 0.194146 -0.043516 -0.023434
v 0.194146 -0.051282 -0.008194
v 0.194146 -0.053958 0.008701
v 0.194146 -0.051282 0.025596
v 0.194146 -0.043516 0.040836
v 0.194146 -0.031421 0.052932
v 0.194146 -0.016180 0.060697
v 0.194146 0.000714 0.063373
v 0.194146 0.017609 0.060697
v 0.194146 0.032850 0.052932
v 0.194146 0.044945 0.040837
v 0.194146 0.052710 0.025596
v 0.194146 0.055386 0.008701
v 0.194146 0.052710 -0.008194
v 0.194146 0.044945 -0.023435
v 0.194146 0.032850 -0.035530
v 0.194146 0.017609 -0.043295
v 0.194146 0.000714 -0.045971
v 0.192662 0.000714 0.008701
v 0.201923 -0.030039 -0.085948
v 0.201923 -0.057782 -0.071812
v 0.201923 -0.079800 -0.049795
v 0.201923 -0.093935 -0.022052
v 0.201923 -0.098806 0.008701
v 0.201923 -0.093935 0.039454
v 0.201923 -0.079800 0.067197
v 0.201923 -0.057782 0.089214
v 0.201923 -0.030039 0.103350
v 0.201923 0.000714 0.108221
v 0.201923 0.031467 0.103350
v 0.201923 0.059210 0.089214
v 0.201923 0.081227 0.067197
v 0.201923 0.095363 0.039454
v 0.201923 0.100234 0.008701
v 0.201923 0.095363 -0.022052
v 0.201923 0.081227 -0.049795
v 0.201923 0.059210 -0.071812
v 0.201923 0.031467 -0.085948
v 0.201923 0.000714 -0.090819
v 0.194146 -0.016180 -0.043295
v 0.194146 -0.031421 -0.035530
v 0.194146 -0.043516 -0.023434
v 0.194146 -0.051282 -0.008194
v 0.194146 -0.053958 0.008701
v 0.194146 -0.051282 0.025596
v 0.194146 -0.043516 0.040836
v 0.194146 -0.031421 0.052932
v 0.194146 -0.016180 0.060697
v 0.194146 0.000714 0.063373
v 0.194146 0.017609 0.060697
v 0.194146 0.032850 0.052932
v 0.194146 0.044945 0.040837
v 0.194146 0.052710 0.025596
v 0.194146 0.055386 0.008701
v 0.194146 0.052710 -0.008194
v 0.194146 0.044945 -0.023435
v 0.194146 0.032850 -0.035530
v 0.194146 0.017609 -0.043295
v 0.194146 0.000714 -0.045971
v 0.213105 -0.023531 -0.065917
v 0.213105 -0.045402 -0.054773
v 0.213105 -0.062759 -0.037415
v 0.213105 -0.073903 -0.015544
v 0.213105 -0.077743 0.008701
v 0.213105 -0.073903 0.032946
v 0.213105 -0.062760 0.054817
v 0.213105 -0.045402 0.072175
v 0.213105 -0.023531 0.083319
v 0.213105 0.000714 0.087159
v 0.213105 0.024959 0.083319
v 0.213105 0.046830 0.072175
v 0.213105 0.064188 0.054817
v 0.213105 0.075332 0.032946
v 0.213105 0.079171 0.008701
v 0.213105 0.075332 -0.015544
v 0.213105 0.064188 -0.037415
v 0.213105 0.046830 -0.054773
v 0.213105 0.024959 -0.065917
v 0.213105 0.000714 -0.069757
v 0.223190 -0.027539 -0.078253
v 0.223190 -0.053026 -0.065266
v 0.223190 -0.073253 -0.045039
v 0.223190 -0.086239 -0.019552
v 0.223190 -0.090714 0.008701
v 0.223190 -0.086239 0.036954
v 0.223190 -0.073253 0.062441
v 0.223190 -0.053026 0.082668
v 0.223190 -0.027539 0.095655
v 0.223190 0.000714 0.100130
v 0.223190 0.028967 0.095655
v 0.223190 0.054454 0.082668
v 0.223190 0.074681 0.062441
v 0.223190 0.087667 0.036954
v 0.223190 0.092142 0.008701
v 0.223190 0.087668 -0.019552
v 0.223190 0.074682 -0.045039
v 0.223190 0.054454 -0.065266
v 0.223190 0.028967 -0.078253
v 0.223190 0.000714 -0.082728
v 0.216827 -0.030312 -0.086788
v 0.216827 -0.058301 -0.072527
v 0.216827 -0.080514 -0.050315
v 0.216827 -0.094775 -0.022325
v 0.216827 -0.099689 0.008701
v 0.216827 -0.094775 0.039727
v 0.216827 -0.080514 0.067717
v 0.216827 -0.058301 0.089929
v 0.216827 -0.030312 0.104190
v 0.216827 0.000714 0.109105
v 0.216827 0.031740 0.104190
v 0.216827 0.059730 0.089929
v 0.216827 0.081942 0.067717
v 0.216827 0.096203 0.039727
v 0.216827 0.101117 0.008701
v 0.216827 0.096203 -0.022325
v 0.216827 0.081942 -0.050315
v 0.216827 0.059730 -0.072527
v 0.216827 0.031740 -0.086788
v 0.216827 0.000714 -0.091703
v 0.212516 -0.031482 -0.090389
v 0.212516 -0.060527 -0.075590
v 0.212516 -0.083577 -0.052540
v 0.212516 -0.098376 -0.023495
v 0.212516 -0.103475 0.008701
v 0.212516 -0.098376 0.040897
v 0.212516 -0.083577 0.069942
v 0.212516 -0.060527 0.092992
v 0.212516 -0.031482 0.107791
v 0.212516 0.000714 0.112890
v 0.212516 0.032910 0.107791
v 0.212516 0.061955 0.092992
v 0.212516 0.085005 0.069942
v 0.212516 0.099804 0.040897
v 0.212516 0.104903 0.008701
v 0.212516 0.099804 -0.023495
v 0.212516 0.085005 -0.052540
v 0.212516 0.061955 -0.075590
v 0.212516 0.032910 -0.090389
v 0.212516 0.000714 -0.095489
v 0.209849 -0.031645 -0.090888
v 0.209849 -0.060835 -0.076015
v 0.209849 -0.084002 -0.052849
v 0.209849 -0.098875 -0.023658
v 0.209849 -0.104000 0.008701
v 0.209849 -0.098875 0.041060
v 0.209849 -0.084002 0.070250
v 0.209849 -0.060835 0.093417
v 0.209849 -0.031645 0.108290
v 0.209849 0.000714 0.113415
v 0.209849 0.033072 0.108290
v 0.209849 0.062263 0.093417
v 0.209849 0.085430 0.070250
v 0.209849 0.100303 0.041060
v 0.209849 0.105428 0.008701
v 0.209849 0.100303 -0.023658
v 0.209849 0.085430 -0.052849
v 0.209849 0.062263 -0.076015
v 0.209849 0.033072 -0.090888
v 0.209849 0.000714 -0.096014
v -0.186404 -0.023012 -0.064321
v -0.186404 -0.044416 -0.053415
v -0.186404 -0.061402 -0.036429
v -0.186404 -0.072307 -0.015025
v -0.186404 -0.076066 0.008701
v -0.186404 -0.072307 0.032427
v -0.186404 -0.061402 0.053831
v -0.186404 -0.044416 0.070817
v -0.186404 -0.023012 0.081723
v -0.186404 0.000714 0.085481
v -0.186404 0.024440 0.081723
v -0.186404 0.045843 0.070817
v -0.186404 0.062830 0.053831
v -0.186404 0.073736 0.032427
v -0.186404 0.077494 0.008701
v -0.186404 0.073736 -0.015025
v -0.186404 0.062830 -0.036429
v -0.186404 0.045843 -0.053415
v -0.186404 0.024440 -0.064321
v -0.186404 0.000714 -0.068079
v -0.195292 -0.025614 -0.072327
v -0.195292 -0.049364 -0.060225
v -0.195292 -0.068212 -0.041377
v -0.195292 -0.080314 -0.017627
v -0.195292 -0.084484 0.008701
v -0.195292 -0.080314 0.035029
v -0.195292 -0.068212 0.058779
v -0.195292 -0.049364 0.077627
v -0.195292 -0.025614 0.089729
v -0.195292 0.000714 0.093899
v -0.195292 0.027041 0.089729
v -0.195292 0.050792 0.077627
v -0.195292 0.069640 0.058779
v -0.195292 0.081742 0.035029
v -0.195292 0.085912 0.008701
v -0.195292 0.081742 -0.017627
v -0.195292 0.069640 -0.041377
v -0.195292 0.050792 -0.060225
v -0.195292 0.027041 -0.072327
v -0.195292 0.000714 -0.076497
v -0.202940 -0.027340 -0.077639
v -0.202940 -0.052647 -0.064745
v -0.202940 -0.072731 -0.044660
v -0.202940 -0.085626 -0.019353
v -0.202940 -0.090070 0.008701
v -0.202940 -0.085626 0.036755
v -0.202940 -0.072731 0.062062
v -0.202940 -0.052647 0.082146
v -0.202940 -0.027340 0.095041
v -0.202940 0.000714 0.099485
v -0.202940 0.028768 0.095041
v -0.202940 0.054075 0.082146
v -0.202940 0.074159 0.062062
v -0.202940 0.087055 0.036755
v -0.202940 0.091498 0.008701
v -0.202940 0.087055 -0.019353
v -0.202940 0.074159 -0.044660
v -0.202940 0.054075 -0.064745
v -0.202940 0.028768 -0.077639
v -0.202940 0.000714 -0.082083
v -0.194669 -0.089805 -0.115888
v -0.189139 -0.095006 -0.123047
v -0.194669 -0.123875 -0.081818
v -0.189139 -0.131034 -0.087019
v -0.194669 -0.145749 -0.038888
v -0.189139 -0.154165 -0.041622
v -0.194669 -0.153286 0.008701
v -0.189139 -0.162135 0.008701
v -0.194669 -0.145749 0.056290
v -0.189139 -0.154165 0.059024
v -0.194669 -0.123875 0.099220
v -0.189139 -0.131034 0.104421
v -0.194669 -0.089805 0.133290
v -0.189139 -0.095006 0.140449
v -0.194669 -0.046875 0.155164
v -0.189139 -0.049609 0.163580
v -0.194669 0.000714 0.162701
v -0.189139 0.000714 0.171550
v -0.194669 0.048302 0.155164
v -0.189139 0.051037 0.163580
v -0.194669 0.091233 0.133290
v -0.189138 0.096434 0.140448
v -0.194669 0.125303 0.099220
v -0.189138 0.132462 0.104421
v -0.194669 0.147177 0.056290
v -0.189139 0.155593 0.059024
v -0.194669 0.154714 0.008701
v -0.189139 0.163563 0.008701
v -0.194669 0.147177 -0.038888
v -0.189139 0.155593 -0.041622
v -0.194669 0.125303 -0.081818
v -0.189138 0.132462 -0.087019
v -0.194669 0.091233 -0.115888
v -0.189139 0.096434 -0.123047
v -0.194669 0.048302 -0.137762
v -0.189139 0.051037 -0.146178
v -0.194669 -0.046875 -0.137762
v -0.189139 -0.049609 -0.146178
v -0.194669 0.000714 -0.145299
v -0.189139 0.000714 -0.154148
v -0.176270 -0.052806 -0.156017
v -0.176270 -0.101087 -0.131416
v -0.176270 -0.139404 -0.093100
v -0.176270 -0.164004 -0.044819
v -0.176270 -0.172481 0.008701
v -0.176270 -0.164004 0.062221
v -0.176270 -0.139404 0.110502
v -0.176270 -0.101087 0.148818
v -0.176270 -0.052806 0.173419
v -0.176270 0.000714 0.181895
v -0.176270 0.054234 0.173419
v -0.176270 0.102515 0.148818
v -0.176270 0.140831 0.110502
v -0.176270 0.165432 0.062221
v -0.176270 0.173908 0.008701
v -0.176270 0.165432 -0.044819
v -0.176270 0.140831 -0.093100
v -0.176270 0.102515 -0.131416
v -0.176270 0.054234 -0.156017
v -0.176270 0.000714 -0.164494
v 0.188158 -0.086779 -0.111723
v 0.182466 -0.092968 -0.120241
v 0.188158 -0.119710 -0.078792
v 0.182466 -0.128228 -0.084981
v 0.188158 -0.140853 -0.037297
v 0.182466 -0.150867 -0.040551
v 0.188158 -0.148139 0.008701
v 0.182466 -0.158667 0.008701
v 0.188158 -0.140853 0.054699
v 0.182466 -0.150867 0.057953
v 0.188158 -0.119710 0.096194
v 0.182466 -0.128228 0.102383
v 0.188158 -0.086779 0.129125
v 0.182466 -0.092968 0.137643
v 0.188158 -0.045284 0.150268
v 0.182466 -0.048538 0.160282
v 0.188158 0.000714 0.157553
v 0.182466 0.000714 0.168082
v 0.188158 0.046712 0.150268
v 0.182466 0.049965 0.160282
v 0.188158 0.088207 0.129125
v 0.182466 0.094396 0.137643
v 0.188158 0.121138 0.096194
v 0.182466 0.129656 0.102383
v 0.188158 0.142281 0.054699
v 0.182466 0.152295 0.057953
v 0.188158 0.149566 0.008701
v 0.182466 0.160095 0.008701
v 0.188158 0.142281 -0.037297
v 0.182466 0.152295 -0.040551
v 0.188158 0.121138 -0.078792
v 0.182466 0.129656 -0.084981
v 0.188158 0.088207 -0.111723
v 0.182466 0.094396 -0.120241
v 0.188158 -0.045284 -0.132866
v 0.182466 -0.048538 -0.142880
v 0.188158 0.046712 -0.132866
v 0.182466 0.049965 -0.142880
v 0.188158 0.000714 -0.140151
v 0.182466 0.000714 -0.150680
v 0.170350 -0.052806 -0.156017
v 0.170350 -0.101087 -0.131416
v 0.170350 -0.139404 -0.093100
v 0.170350 -0.164004 -0.044819
v 0.170350 -0.172481 0.008701
v 0.170350 -0.164004 0.062221
v 0.170350 -0.139404 0.110502
v 0.170350 -0.101087 0.148818
v 0.170350 -0.052806 0.173419
v 0.170350 0.000714 0.181895
v 0.170350 0.054234 0.173419
v 0.170350 0.102515 0.148818
v 0.170350 0.140831 0.110502
v 0.170350 0.165432 0.062221
v 0.170350 0.173908 0.008701
v 0.170350 0.165432 -0.044819
v 0.170350 0.140831 -0.093100
v 0.170350 0.102515 -0.131416
v 0.170350 0.054234 -0.156017
v 0.170350 0.000714 -0.164494
v 0.201923 -0.030039 -0.085948
v 0.201923 -0.057782 -0.071812
v 0.201923 -0.079800 -0.049795
v 0.201923 -0.093935 -0.022052
v 0.201923 -0.098806 0.008701
v 0.201923 -0.093935 0.039454
v 0.201923 -0.079800 0.067197
v 0.201923 -0.057782 0.089214
v 0.201923 -0.030039 0.103350
v 0.201923 0.000714 0.108221
v 0.201923 0.031467 0.103350
v 0.201923 0.059210 0.089214
v 0.201923 0.081227 0.067197
v 0.201923 0.095363 0.039454
v 0.201923 0.100234 0.008701
v 0.201923 0.095363 -0.022052
v 0.201923 0.081227 -0.049795
v 0.201923 0.059210 -0.071812
v 0.201923 0.031467 -0.085948
v 0.201923 0.000714 -0.090819
v -0.202940 -0.035755 -0.103538
v -0.202940 -0.068653 -0.086775
v -0.202940 -0.094761 -0.060666
v -0.202940 -0.111524 -0.027768
v -0.202940 -0.117301 0.008701
v -0.202940 -0.111524 0.045170
v -0.202940 -0.094761 0.078068
v -0.202940 -0.068653 0.104177
v -0.202940 -0.035755 0.120940
v -0.202940 0.000714 0.126716
v -0.202940 0.037183 0.120940
v -0.202940 0.070081 0.104177
v -0.202940 0.096190 0.078068
v -0.202940 0.112953 0.045170
v -0.202940 0.118729 0.008701
v -0.202940 0.112953 -0.027768
v -0.202940 0.096190 -0.060666
v -0.202940 0.070081 -0.086775
v -0.202940 0.037183 -0.103538
v -0.202940 0.000714 -0.109314
v -0.186404 -0.023012 -0.064321
v -0.186404 -0.044416 -0.053415
v -0.186404 -0.061402 -0.036429
v -0.186404 -0.072307 -0.015025
v -0.186404 -0.076066 0.008701
v -0.186404 -0.072307 0.032427
v -0.186404 -0.061402 0.053831
v -0.186404 -0.044416 0.070817
v -0.186404 -0.023012 0.081723
v -0.186404 0.000714 0.085481
v -0.186404 0.024440 0.081723
v -0.186404 0.045843 0.070817
v -0.186404 0.062830 0.053831
v -0.186404 0.073736 0.032427
v -0.186404 0.077494 0.008701
v -0.186404 0.073736 -0.015025
v -0.186404 0.062830 -0.036429
v -0.186404 0.045843 -0.053415
v -0.186404 0.000714 -0.068079
v -0.186404 0.024440 -0.064321
v -0.186405 0.000714 0.008701
vn 0.9996 0.0084 0.0258
vn 0.9996 -0.0000 0.0271
vn 1.0000 -0.0000 -0.0000
vn 0.9996 0.0159 0.0220
vn 0.9996 0.0220 0.0159
vn 0.9996 0.0258 0.0084
vn 0.9996 0.0271 -0.0000
vn 0.9996 0.0258 -0.0084
vn 0.9996 0.0220 -0.0160
vn 0.9996 0.0159 -0.0220
vn 0.9996 0.0084 -0.0258
vn 0.9996 -0.0000 -0.0271
vn 0.9996 -0.0084 -0.0258
vn 0.9996 -0.0159 -0.0220
vn 0.9996 -0.0220 -0.0159
vn 0.9996 -0.0258 -0.0084
vn 0.9996 -0.0271 -0.0000
vn 0.9996 -0.0258 0.0084
vn 0.9996 -0.0220 0.0159
vn 0.9996 -0.0159 0.0220
vn 0.9996 -0.0084 0.0258
vn 0.7855 -0.0000 0.6188
vn 0.7820 0.1926 0.5928
vn 0.7855 0.1912 0.5885
vn 0.7820 0.3664 0.5043
vn 0.7856 0.3637 0.5005
vn 0.7854 0.5008 0.3638
vn 0.7820 0.5043 0.3664
vn 0.7820 0.5928 0.1926
vn 0.7854 0.5887 0.1913
vn 0.7820 0.6233 -0.0000
vn 0.7855 0.6189 -0.0000
vn 0.7852 0.5890 -0.1914
vn 0.7820 0.5928 -0.1926
vn 0.7855 0.5007 -0.3638
vn 0.7820 0.5042 -0.3664
vn 0.7820 0.3664 -0.5043
vn 0.7854 0.3638 -0.5007
vn 0.7855 0.1912 -0.5886
vn 0.7820 0.1926 -0.5928
vn 0.7856 -0.0000 -0.6187
vn 0.7820 -0.0000 -0.6233
vn 0.7853 -0.1913 -0.5888
vn 0.7820 -0.1926 -0.5928
vn 0.7857 -0.3636 -0.5004
vn 0.7820 -0.3664 -0.5043
vn 0.7854 -0.5008 -0.3638
vn 0.7820 -0.5043 -0.3664
vn 0.7820 -0.5928 -0.1926
vn 0.7854 -0.5887 -0.1913
vn 0.7855 -0.6189 -0.0000
vn 0.7820 -0.6233 -0.0000
vn 0.7820 -0.5928 0.1926
vn 0.7854 -0.5887 0.1913
vn 0.7854 -0.5007 0.3638
vn 0.7820 -0.5043 0.3664
vn 0.7855 -0.3637 0.5006
vn 0.7820 -0.3664 0.5043
vn 0.7820 -0.1926 0.5928
vn 0.7857 -0.1912 0.5884
vn 0.7820 -0.0000 0.6233
vn 0.9978 0.0204 0.0629
vn 0.9978 0.0389 0.0535
vn 0.9978 0.0535 0.0389
vn 0.9978 0.0629 0.0204
vn 0.9978 0.0662 -0.0000
vn 0.9978 0.0630 -0.0204
vn 0.9978 0.0535 -0.0389
vn 0.9978 0.0389 -0.0535
vn 0.9978 0.0204 -0.0629
vn 0.9978 -0.0000 -0.0661
vn 0.9978 -0.0204 -0.0629
vn 0.9978 -0.0389 -0.0535
vn 0.9978 -0.0535 -0.0389
vn 0.9978 -0.0629 -0.0204
vn 0.9978 -0.0662 -0.0000
vn 0.9978 -0.0629 0.0204
vn 0.9978 -0.0535 0.0389
vn 0.9978 -0.0389 0.0535
vn 0.9978 -0.0204 0.0629
vn 0.9978 -0.0000 0.0661
vn 0.7595 -0.2010 -0.6186
vn 0.7595 -0.3823 -0.5262
vn 0.7595 -0.5262 -0.3823
vn 0.7596 -0.6186 -0.2010
vn 0.7595 -0.6505 -0.0000
vn 0.7596 -0.6186 0.2010
vn 0.7595 -0.5262 0.3823
vn 0.7595 -0.3823 0.5262
vn 0.7596 -0.2010 0.6186
vn 0.7595 -0.0000 0.6505
vn 0.7596 0.2010 0.6186
vn 0.7595 0.3823 0.5262
vn 0.7595 0.5262 0.3823
vn 0.7596 0.6186 0.2010
vn 0.7595 0.6505 -0.0000
vn 0.7595 0.6186 -0.2010
vn 0.7595 0.5263 -0.3823
vn 0.7595 0.3823 -0.5262
vn 0.7595 0.2010 -0.6186
vn 0.7595 -0.0000 -0.6505
vn 0.5145 -0.2650 -0.8155
vn 0.5146 -0.5040 -0.6937
vn 0.5145 -0.6937 -0.5040
vn 0.5146 -0.8155 -0.2649
vn 0.5146 -0.8575 -0.0000
vn 0.5146 -0.8155 0.2650
vn 0.5146 -0.6937 0.5040
vn 0.5146 -0.5040 0.6937
vn 0.5146 -0.2650 0.8155
vn 0.5145 -0.0000 0.8575
vn 0.5146 0.2650 0.8155
vn 0.5145 0.5040 0.6937
vn 0.5146 0.6937 0.5040
vn 0.5145 0.8155 0.2650
vn 0.5145 0.8575 -0.0000
vn 0.5146 0.8155 -0.2650
vn 0.5145 0.6937 -0.5040
vn 0.5146 0.5040 -0.6937
vn 0.5145 0.2650 -0.8155
vn 0.5146 -0.0000 -0.8575
vn -0.3957 -0.0000 -0.9184
vn -0.3957 -0.2838 -0.8734
vn -0.3957 -0.5398 -0.7430
vn -0.3957 -0.7430 -0.5398
vn -0.3956 -0.8734 -0.2838
vn -0.3957 -0.9184 -0.0000
vn -0.3956 -0.8735 0.2838
vn -0.3957 -0.7430 0.5398
vn -0.3957 -0.5398 0.7430
vn -0.3957 -0.2838 0.8734
vn -0.3956 -0.0000 0.9184
vn -0.3957 0.2838 0.8735
vn -0.3957 0.5398 0.7430
vn -0.3957 0.7430 0.5398
vn -0.3957 0.8734 0.2838
vn -0.3957 0.9184 -0.0000
vn -0.3957 0.8735 -0.2838
vn -0.3957 0.7430 -0.5398
vn -0.3957 0.5398 -0.7430
vn -0.3957 0.2838 -0.8734
vn -0.5481 -0.2585 -0.7954
vn -0.5482 -0.4916 -0.6766
vn -0.5482 -0.6766 -0.4916
vn -0.5481 -0.7955 -0.2584
vn -0.5481 -0.8364 -0.0000
vn -0.5481 -0.7955 0.2584
vn -0.5481 -0.6767 0.4916
vn -0.5482 -0.4916 0.6766
vn -0.5481 -0.2585 0.7955
vn -0.5481 -0.0000 0.8364
vn -0.5481 0.2585 0.7955
vn -0.5482 0.4916 0.6766
vn -0.5482 0.6766 0.4916
vn -0.5481 0.7955 0.2585
vn -0.5481 0.8364 -0.0000
vn -0.5481 0.7954 -0.2584
vn -0.5482 0.6766 -0.4916
vn -0.5482 0.4916 -0.6766
vn -0.5481 0.2585 -0.7955
vn -0.5482 -0.0000 -0.8364
vn -0.6412 -0.0000 0.7674
vn -0.6877 0.2244 0.6905
vn -0.6876 -0.0000 0.7260
vn -0.6411 0.2372 0.7299
vn -0.6876 0.4268 0.5874
vn -0.6411 0.4511 0.6209
vn -0.6877 0.5874 0.4268
vn -0.6412 0.7298 0.2372
vn -0.6411 0.6209 0.4511
vn -0.6411 0.7675 -0.0000
vn -0.6877 0.6905 0.2243
vn -0.6877 0.6905 -0.2243
vn -0.6876 0.7260 -0.0000
vn -0.6412 0.7298 -0.2372
vn -0.6877 0.5874 -0.4268
vn -0.6411 0.4511 -0.6209
vn -0.6411 0.6209 -0.4511
vn -0.6411 0.2372 -0.7299
vn -0.6876 0.4268 -0.5874
vn -0.6411 -0.0000 -0.7674
vn -0.6877 0.2244 -0.6905
vn -0.6411 -0.2372 -0.7299
vn -0.6876 -0.0000 -0.7260
vn -0.6877 -0.4267 -0.5874
vn -0.6876 -0.2244 -0.6905
vn -0.6411 -0.4511 -0.6209
vn -0.6876 -0.5874 -0.4268
vn -0.6411 -0.7299 -0.2372
vn -0.6411 -0.6208 -0.4511
vn -0.6412 -0.7674 -0.0000
vn -0.6877 -0.6905 -0.2244
vn -0.6877 -0.6905 0.2244
vn -0.6877 -0.7260 -0.0000
vn -0.6412 -0.7298 0.2372
vn -0.6876 -0.5874 0.4268
vn -0.6411 -0.4511 0.6209
vn -0.6410 -0.6209 0.4511
vn -0.6411 -0.2372 0.7299
vn -0.6877 -0.4267 0.5874
vn -0.6876 -0.2244 0.6905
vn -0.9847 0.0537 0.1655
vn -0.9847 -0.0000 0.1740
vn -0.9847 0.1023 0.1408
vn -0.9847 0.1408 0.1023
vn -0.9847 0.1655 0.0538
vn -0.9847 0.1655 -0.0538
vn -0.9847 0.1740 0.0001
vn -0.9847 0.1408 -0.1023
vn -0.9847 0.1023 -0.1408
vn -0.9847 0.0538 -0.1655
vn -0.9847 -0.0000 -0.1740
vn -0.9847 -0.0539 -0.1655
vn -0.9847 -0.1408 -0.1023
vn -0.9847 -0.1022 -0.1408
vn -0.9847 -0.1655 -0.0538
vn -0.9847 -0.1655 0.0537
vn -0.9847 -0.1740 -0.0000
vn -0.9847 -0.1408 0.1023
vn -0.9847 -0.0538 0.1655
vn -0.9847 -0.1023 0.1407
vn -1.0000 -0.0000 -0.0000
vn -0.9493 -0.0000 -0.3143
vn -0.9746 -0.0692 -0.2130
vn -0.9746 -0.0000 -0.2240
vn -0.9493 -0.1848 -0.2543
vn -0.9493 -0.0971 -0.2989
vn -0.9493 -0.2543 -0.1848
vn -0.9746 -0.1317 -0.1812
vn -0.9746 -0.2130 -0.0692
vn -0.9746 -0.1812 -0.1317
vn -0.9493 -0.2989 -0.0971
vn -0.9746 -0.2240 -0.0000
vn -0.9493 -0.2989 0.0971
vn -0.9493 -0.3143 -0.0000
vn -0.9493 -0.2543 0.1847
vn -0.9746 -0.2130 0.0692
vn -0.9746 -0.1317 0.1812
vn -0.9746 -0.1812 0.1317
vn -0.9493 -0.1848 0.2543
vn -0.9746 -0.0692 0.2130
vn -0.9493 -0.0000 0.3143
vn -0.9493 -0.0971 0.2989
vn -0.9493 0.0971 0.2989
vn -0.9746 -0.0000 0.2240
vn -0.9493 0.1847 0.2543
vn -0.9746 0.0692 0.2130
vn -0.9493 0.2543 0.1848
vn -0.9746 0.1317 0.1812
vn -0.9746 0.2130 0.0692
vn -0.9746 0.1812 0.1317
vn -0.9493 0.3143 -0.0000
vn -0.9493 0.2989 0.0971
vn -0.9746 0.2130 -0.0692
vn -0.9746 0.2240 -0.0000
vn -0.9493 0.2543 -0.1848
vn -0.9493 0.2989 -0.0971
vn -0.9746 0.1317 -0.1812
vn -0.9746 0.1812 -0.1317
vn -0.9493 0.1847 -0.2543
vn -0.9746 0.0692 -0.2130
vn -0.9493 0.0971 -0.2989
vn -0.7106 -0.4136 -0.5692
vn -0.6265 -0.2408 -0.7412
vn -0.6265 -0.4581 -0.6305
vn -0.7106 -0.5692 -0.4136
vn -0.6266 -0.6305 -0.4581
vn -0.6265 -0.7412 -0.2408
vn -0.6266 -0.7794 -0.0000
vn -0.7106 -0.6691 -0.2174
vn -0.7106 -0.6691 0.2174
vn -0.6265 -0.7412 0.2408
vn -0.7106 -0.5692 0.4136
vn -0.6266 -0.6305 0.4581
vn -0.6265 -0.4581 0.6305
vn -0.6265 -0.2408 0.7412
vn -0.7106 -0.4136 0.5692
vn -0.6265 -0.0000 0.7794
vn -0.7106 -0.2174 0.6692
vn -0.7106 0.2174 0.6692
vn -0.6266 0.2408 0.7412
vn -0.7106 0.4136 0.5692
vn -0.6266 0.4581 0.6305
vn -0.6266 0.6305 0.4581
vn -0.6265 0.7412 0.2408
vn -0.7106 0.5692 0.4136
vn -0.6265 0.7794 -0.0000
vn -0.7106 0.6692 0.2174
vn -0.7106 0.6692 -0.2174
vn -0.6265 0.7412 -0.2408
vn -0.7106 0.5692 -0.4136
vn -0.6266 0.6305 -0.4581
vn -0.6265 0.4581 -0.6305
vn -0.6265 0.2408 -0.7412
vn -0.7106 0.4136 -0.5692
vn -0.6266 -0.0000 -0.7794
vn -0.7106 0.2174 -0.6692
vn -0.7106 -0.2174 -0.6692
vn -0.7106 -0.0000 -0.7036
vn -0.7106 -0.7036 -0.0000
vn -0.7106 -0.0000 0.7036
vn -0.7106 0.7036 -0.0000
vn -0.0000 -0.3090 -0.9511
vn -0.0000 -0.0000 -1.0000
vn -0.0000 -0.5878 -0.8090
vn -0.0000 -0.8090 -0.5878
vn -0.0000 -0.9511 -0.3090
vn -0.0000 -1.0000 -0.0000
vn -0.0000 -0.9511 0.3090
vn -0.0000 -0.8090 0.5878
vn -0.0000 -0.5878 0.8090
vn -0.0000 -0.3090 0.9511
vn -0.0000 -0.0000 1.0000
vn -0.0000 0.3090 0.9511
vn -0.0000 0.5878 0.8090
vn -0.0000 0.8090 0.5878
vn -0.0000 0.9511 0.3090
vn -0.0000 1.0000 -0.0000
vn -0.0000 0.9511 -0.3090
vn -0.0000 0.8090 -0.5878
vn -0.0000 0.5878 -0.8090
vn -0.0000 0.3090 -0.9511
vn 0.9632 -0.0831 -0.2556
vn 0.9461 -0.0000 -0.3238
vn 0.9632 -0.0000 -0.2688
vn 0.9632 -0.1580 -0.2174
vn 0.9461 -0.1001 -0.3080
vn 0.9632 -0.2174 -0.1580
vn 0.9461 -0.1904 -0.2620
vn 0.9461 -0.3080 -0.1001
vn 0.9461 -0.2620 -0.1903
vn 0.9632 -0.2688 -0.0000
vn 0.9632 -0.2556 -0.0830
vn 0.9461 -0.3080 0.1001
vn 0.9461 -0.3238 -0.0000
vn 0.9632 -0.2174 0.1580
vn 0.9632 -0.2556 0.0830
vn 0.9461 -0.1903 0.2620
vn 0.9461 -0.2620 0.1903
vn 0.9632 -0.0831 0.2556
vn 0.9632 -0.1580 0.2174
vn 0.9461 -0.0000 0.3238
vn 0.9461 -0.1001 0.3080
vn 0.9632 0.0831 0.2556
vn 0.9632 -0.0000 0.2688
vn 0.9461 0.1903 0.2620
vn 0.9461 0.1001 0.3080
vn 0.9632 0.2174 0.1580
vn 0.9632 0.1580 0.2174
vn 0.9632 0.2556 0.0831
vn 0.9461 0.2620 0.1904
vn 0.9461 0.3238 -0.0000
vn 0.9461 0.3080 0.1001
vn 0.9632 0.2556 -0.0831
vn 0.9632 0.2688 -0.0000
vn 0.9461 0.2620 -0.1903
vn 0.9461 0.3080 -0.1001
vn 0.9632 0.1580 -0.2174
vn 0.9632 0.2174 -0.1580
vn 0.9632 0.0831 -0.2556
vn 0.9461 0.1903 -0.2620
vn 0.9461 0.1001 -0.3080
vn 0.7518 -0.3876 -0.5335
vn 0.7996 -0.1856 -0.5711
vn 0.7996 -0.3530 -0.4858
vn 0.7996 -0.4858 -0.3530
vn 0.7996 -0.5711 -0.1856
vn 0.7518 -0.5335 -0.3876
vn 0.7996 -0.6005 -0.0000
vn 0.7518 -0.6271 -0.2038
vn 0.7518 -0.6271 0.2038
vn 0.7996 -0.5711 0.1856
vn 0.7518 -0.5335 0.3876
vn 0.7996 -0.4858 0.3530
vn 0.7518 -0.3876 0.5335
vn 0.7996 -0.3530 0.4858
vn 0.7996 -0.1856 0.5711
vn 0.7996 -0.0000 0.6005
vn 0.7518 -0.2038 0.6271
vn 0.7996 0.1856 0.5711
vn 0.7518 -0.0000 0.6594
vn 0.7996 0.3530 0.4858
vn 0.7518 0.2038 0.6271
vn 0.7996 0.4858 0.3530
vn 0.7518 0.3876 0.5335
vn 0.7996 0.5711 0.1856
vn 0.7518 0.5335 0.3876
vn 0.7996 0.6005 -0.0000
vn 0.7518 0.6271 0.2038
vn 0.7518 0.6271 -0.2038
vn 0.7996 0.5711 -0.1856
vn 0.7518 0.5335 -0.3876
vn 0.7996 0.4858 -0.3530
vn 0.7518 0.3876 -0.5335
vn 0.7996 0.3530 -0.4858
vn 0.7518 0.2038 -0.6271
vn 0.7996 0.1856 -0.5711
vn 0.7996 -0.0000 -0.6005
vn 0.7518 -0.2038 -0.6271
vn 0.7518 -0.0000 -0.6594
vn 0.7518 0.6594 -0.0000
vn 0.7518 -0.6594 -0.0000
vt 0.333407 0.111521
vt 0.316224 0.114371
vt 0.316590 0.058646
vt 0.348772 0.103392
vt 0.360742 0.090911
vt 0.368164 0.075446
vt 0.370412 0.058613
vt 0.367408 0.042085
vt 0.359569 0.027416
vt 0.347730 0.015921
vt 0.333032 0.008589
vt 0.316823 0.006039
vt 0.300559 0.008492
vt 0.285707 0.015759
vt 0.273649 0.027243
vt 0.265571 0.041958
vt 0.262349 0.058572
vt 0.264435 0.075497
vt 0.271759 0.091027
vt 0.283686 0.103519
vt 0.299041 0.111602
vt 0.220739 0.276069
vt 0.198524 0.264930
vt 0.220739 0.264930
vt 0.198524 0.252987
vt 0.220739 0.252987
vt 0.220739 0.240702
vt 0.198524 0.240702
vt 0.198524 0.228083
vt 0.220739 0.228083
vt 0.198524 0.214297
vt 0.220739 0.214297
vt 0.220739 0.200421
vt 0.198524 0.200421
vt 0.220739 0.184362
vt 0.198524 0.184362
vt 0.198524 0.166385
vt 0.220739 0.166385
vt 0.220739 0.148763
vt 0.198524 0.148763
vt 0.220739 0.131255
vt 0.198524 0.131255
vt 0.220739 0.116363
vt 0.198524 0.116363
vt 0.220739 0.101489
vt 0.198524 0.101489
vt 0.220739 0.086495
vt 0.198524 0.086495
vt 0.198524 0.073248
vt 0.220739 0.073248
vt 0.220739 0.060795
vt 0.198524 0.060795
vt 0.198524 0.051561
vt 0.220739 0.051561
vt 0.220739 0.041625
vt 0.198524 0.041625
vt 0.220739 0.031471
vt 0.198524 0.031471
vt 0.198524 0.020965
vt 0.220739 0.020965
vt 0.198524 0.006713
vt 0.220739 0.006713
vt 0.231130 0.264930
vt 0.231130 0.252987
vt 0.231130 0.240702
vt 0.231130 0.228083
vt 0.231130 0.214297
vt 0.231130 0.200421
vt 0.231130 0.184361
vt 0.231130 0.166385
vt 0.231130 0.148763
vt 0.231130 0.131255
vt 0.231130 0.116363
vt 0.231130 0.101489
vt 0.231130 0.086495
vt 0.231130 0.073248
vt 0.231130 0.060795
vt 0.231130 0.051561
vt 0.231130 0.041625
vt 0.231130 0.031471
vt 0.231130 0.020965
vt 0.231130 0.006713
vt 0.237602 0.264930
vt 0.231130 0.276069
vt 0.237602 0.252987
vt 0.237602 0.240702
vt 0.237602 0.228083
vt 0.237602 0.214297
vt 0.237602 0.200421
vt 0.237602 0.184362
vt 0.237602 0.166385
vt 0.237602 0.148763
vt 0.237602 0.131255
vt 0.237602 0.116363
vt 0.237602 0.101489
vt 0.237602 0.086495
vt 0.237602 0.073248
vt 0.237602 0.060795
vt 0.237602 0.051561
vt 0.237602 0.041625
vt 0.237602 0.031471
vt 0.237602 0.020965
vt 0.237602 0.006713
vt 0.240862 0.264930
vt 0.237602 0.276069
vt 0.240862 0.252987
vt 0.240862 0.240702
vt 0.240862 0.228083
vt 0.240862 0.214297
vt 0.240862 0.200421
vt 0.240862 0.184362
vt 0.240862 0.166386
vt 0.240862 0.148763
vt 0.240862 0.131255
vt 0.240862 0.116363
vt 0.240862 0.101489
vt 0.240862 0.086495
vt 0.240862 0.073248
vt 0.240862 0.060795
vt 0.240862 0.051561
vt 0.240862 0.041625
vt 0.240862 0.031471
vt 0.240862 0.020965
vt 0.240862 0.006713
vt 0.242398 0.276069
vt 0.242398 0.264930
vt 0.242398 0.252987
vt 0.242398 0.240702
vt 0.242398 0.228083
vt 0.242398 0.214297
vt 0.242398 0.200421
vt 0.242397 0.184362
vt 0.242398 0.166385
vt 0.242397 0.148763
vt 0.242397 0.131255
vt 0.242397 0.116363
vt 0.242397 0.101489
vt 0.242398 0.086495
vt 0.242398 0.073248
vt 0.242398 0.060795
vt 0.242398 0.051561
vt 0.242398 0.041625
vt 0.242398 0.031471
vt 0.242398 0.020965
vt 0.242398 0.006713
vt 0.258970 0.264930
vt 0.258970 0.252987
vt 0.258970 0.240702
vt 0.258970 0.228083
vt 0.258970 0.214297
vt 0.258970 0.200421
vt 0.258970 0.184362
vt 0.258970 0.166385
vt 0.258970 0.148763
vt 0.258970 0.131255
vt 0.258970 0.116363
vt 0.258970 0.101489
vt 0.258970 0.086495
vt 0.258970 0.073248
vt 0.258970 0.060795
vt 0.258970 0.051561
vt 0.258970 0.041625
vt 0.258970 0.031471
vt 0.258970 0.020965
vt 0.258970 0.006713
vt 0.185484 0.152841
vt 0.189742 0.133631
vt 0.189742 0.152841
vt 0.185484 0.133631
vt 0.189742 0.123986
vt 0.185484 0.123986
vt 0.189742 0.108636
vt 0.185484 0.094322
vt 0.185484 0.108636
vt 0.185484 0.080650
vt 0.189742 0.094322
vt 0.189742 0.067507
vt 0.189742 0.080650
vt 0.185484 0.067507
vt 0.189742 0.053451
vt 0.185484 0.038953
vt 0.185484 0.053451
vt 0.185484 0.023875
vt 0.189742 0.038953
vt 0.185484 0.007158
vt 0.189742 0.023875
vt 0.185484 0.265337
vt 0.189742 0.273922
vt 0.185484 0.273922
vt 0.189742 0.255916
vt 0.189742 0.265337
vt 0.185484 0.255916
vt 0.189742 0.245394
vt 0.185484 0.233817
vt 0.185484 0.245394
vt 0.185484 0.221388
vt 0.189742 0.233817
vt 0.189742 0.208334
vt 0.189742 0.221388
vt 0.185484 0.208334
vt 0.189742 0.194828
vt 0.185484 0.181018
vt 0.185484 0.194828
vt 0.185484 0.167000
vt 0.189742 0.181018
vt 0.189742 0.167000
vt 0.182672 0.133631
vt 0.182672 0.152841
vt 0.182672 0.123986
vt 0.182672 0.108636
vt 0.182672 0.094322
vt 0.182672 0.067507
vt 0.182672 0.080650
vt 0.182672 0.053451
vt 0.182672 0.038953
vt 0.182672 0.023875
vt 0.182672 0.273922
vt 0.182672 0.265337
vt 0.182672 0.245394
vt 0.182672 0.255916
vt 0.182672 0.233817
vt 0.182672 0.208334
vt 0.182672 0.221388
vt 0.182672 0.194828
vt 0.182672 0.167000
vt 0.182672 0.181018
vt 0.175025 0.133631
vt 0.175025 0.152841
vt 0.175025 0.108636
vt 0.175025 0.123986
vt 0.175025 0.094322
vt 0.175025 0.067507
vt 0.175025 0.080650
vt 0.175025 0.053451
vt 0.175025 0.038953
vt 0.175025 0.023875
vt 0.182672 0.007158
vt 0.175025 0.265337
vt 0.175025 0.273922
vt 0.175025 0.255916
vt 0.175025 0.245394
vt 0.175025 0.221388
vt 0.175025 0.233817
vt 0.175025 0.194828
vt 0.175025 0.208334
vt 0.175025 0.167000
vt 0.175025 0.181018
vt 0.162973 0.152841
vt 0.162973 0.123986
vt 0.162973 0.133631
vt 0.162973 0.108636
vt 0.162973 0.094322
vt 0.162973 0.067507
vt 0.162973 0.080650
vt 0.162973 0.053451
vt 0.162973 0.038953
vt 0.162973 0.007158
vt 0.162973 0.023875
vt 0.162973 0.265337
vt 0.162973 0.273922
vt 0.162973 0.255916
vt 0.162973 0.245394
vt 0.162973 0.221388
vt 0.162973 0.233817
vt 0.162973 0.194828
vt 0.162973 0.208334
vt 0.162973 0.181018
vt 0.162973 0.167000
vt 0.157031 0.123986
vt 0.148739 0.133631
vt 0.148739 0.123986
vt 0.157031 0.108636
vt 0.148739 0.108636
vt 0.148739 0.094322
vt 0.148739 0.080650
vt 0.157031 0.094322
vt 0.157031 0.067507
vt 0.148739 0.067507
vt 0.157031 0.053451
vt 0.148739 0.053451
vt 0.148739 0.038953
vt 0.148739 0.023875
vt 0.157031 0.038953
vt 0.148739 0.007158
vt 0.157031 0.023875
vt 0.157031 0.265337
vt 0.148739 0.273922
vt 0.148739 0.265337
vt 0.157031 0.255916
vt 0.148739 0.255916
vt 0.148739 0.245394
vt 0.148739 0.233817
vt 0.157031 0.245394
vt 0.148739 0.221388
vt 0.157031 0.233817
vt 0.157031 0.208334
vt 0.148739 0.208334
vt 0.157031 0.194828
vt 0.148739 0.194828
vt 0.148739 0.181018
vt 0.148739 0.167000
vt 0.157031 0.181018
vt 0.148739 0.152841
vt 0.157031 0.167000
vt 0.157031 0.133631
vt 0.157031 0.152841
vt 0.157031 0.080650
vt 0.157031 0.007158
vt 0.157031 0.273922
vt 0.157031 0.221388
vt 0.052020 0.133631
vt 0.052020 0.152841
vt 0.052020 0.123986
vt 0.052020 0.108636
vt 0.052020 0.094322
vt 0.052020 0.080650
vt 0.052020 0.067507
vt 0.052020 0.053451
vt 0.052020 0.038953
vt 0.052020 0.023875
vt 0.052020 0.007158
vt 0.052020 0.265337
vt 0.052020 0.273922
vt 0.052020 0.255916
vt 0.052020 0.245394
vt 0.052020 0.233817
vt 0.052020 0.221388
vt 0.052020 0.208334
vt 0.052020 0.194828
vt 0.052020 0.181018
vt 0.052020 0.167000
vt 0.009157 0.133631
vt 0.042718 0.152841
vt 0.009157 0.152841
vt 0.009157 0.123986
vt 0.042718 0.133631
vt 0.009157 0.108636
vt 0.042718 0.123986
vt 0.042718 0.094322
vt 0.042718 0.108636
vt 0.009157 0.080650
vt 0.009157 0.094322
vt 0.042718 0.067507
vt 0.042718 0.080650
vt 0.009157 0.053451
vt 0.009157 0.067507
vt 0.042718 0.038953
vt 0.042718 0.053451
vt 0.009157 0.023875
vt 0.009157 0.038953
vt 0.042718 0.007158
vt 0.042718 0.023875
vt 0.009157 0.265337
vt 0.042718 0.273922
vt 0.009157 0.273922
vt 0.042718 0.255916
vt 0.042718 0.265337
vt 0.009157 0.245394
vt 0.009157 0.255916
vt 0.009157 0.233817
vt 0.042718 0.245394
vt 0.042718 0.221388
vt 0.042718 0.233817
vt 0.009157 0.208334
vt 0.009157 0.221388
vt 0.042718 0.194828
vt 0.042718 0.208334
vt 0.009157 0.181018
vt 0.009157 0.194828
vt 0.009157 0.167000
vt 0.042718 0.181018
vt 0.042718 0.167000
vt 0.046188 0.133631
vt 0.046188 0.123986
vt 0.046188 0.108636
vt 0.046188 0.094322
vt 0.046188 0.080650
vt 0.046188 0.067507
vt 0.046188 0.053451
vt 0.046188 0.038953
vt 0.046188 0.023875
vt 0.046188 0.007158
vt 0.046188 0.265337
vt 0.046188 0.273922
vt 0.046188 0.255916
vt 0.046188 0.245394
vt 0.046188 0.233817
vt 0.046188 0.221388
vt 0.046188 0.208334
vt 0.046188 0.194828
vt 0.046188 0.181018
vt 0.046188 0.167000
vt 0.046188 0.152841
vt 0.553654 0.837629
vt 0.544588 0.836086
vt 0.553595 0.808104
vt 0.536490 0.831782
vt 0.530169 0.825194
vt 0.526221 0.817021
vt 0.524986 0.808090
vt 0.526531 0.799274
vt 0.530662 0.791400
vt 0.536960 0.785186
vt 0.544828 0.781191
vt 0.553539 0.779776
vt 0.562295 0.781080
vt 0.570281 0.785007
vt 0.576733 0.791225
vt 0.581002 0.799177
vt 0.582628 0.808118
vt 0.581394 0.817173
vt 0.577375 0.825424
vt 0.570946 0.832007
vt 0.562757 0.836225
vt 0.009157 0.007158
vt 0.175025 0.007158
vt 0.189742 0.007158
vt 0.258970 0.276069
vt 0.240862 0.276069
vt 0.198524 0.276069
s 1
g off
g GoKart.001_blinn1SG.001
usemtl blinn1SG.001
f 1/1/1 20/2/2 21/3/3
f 2/4/4 1/1/1 21/3/3
f 3/5/5 2/4/4 21/3/3
f 4/6/6 3/5/5 21/3/3
f 5/7/7 4/6/6 21/3/3
f 6/8/8 5/7/7 21/3/3
f 7/9/9 6/8/8 21/3/3
f 8/10/10 7/9/9 21/3/3
f 9/11/11 8/10/10 21/3/3
f 10/12/12 9/11/11 21/3/3
f 11/13/13 10/12/12 21/3/3
f 12/14/14 11/13/13 21/3/3
f 13/15/15 12/14/14 21/3/3
f 14/16/16 13/15/15 21/3/3
f 15/17/17 14/16/16 21/3/3
f 16/18/18 15/17/17 21/3/3
f 17/19/19 16/18/18 21/3/3
f 18/20/20 17/19/19 21/3/3
f 19/21/21 18/20/20 21/3/3
f 20/2/2 19/21/21 21/3/3
s 2
f 81/22/22 42/23/23 62/24/24
f 62/24/24 43/25/25 63/26/26
f 64/27/27 43/25/25 44/28/28
f 64/27/27 45/29/29 65/30/30
f 65/30/30 46/31/31 66/32/32
f 67/33/33 46/31/31 47/34/34
f 68/35/35 47/34/34 48/36/36
f 68/35/35 49/37/37 69/38/38
f 70/39/39 49/37/37 50/40/40
f 71/41/41 50/40/40 51/42/42
f 72/43/43 51/42/42 52/44/44
f 73/45/45 52/44/44 53/46/46
f 74/47/47 53/46/46 54/48/48
f 74/47/47 55/49/49 75/50/50
f 76/51/51 55/49/49 56/52/52
f 76/51/51 57/53/53 77/54/54
f 78/55/55 57/53/53 58/56/56
f 79/57/57 58/56/56 59/58/58
f 79/57/57 60/59/59 80/60/60
f 80/60/60 61/61/61 81/62/22
f 82/63/62 81/22/22 62/24/24
f 83/64/63 62/24/24 63/26/26
f 83/64/63 64/27/27 84/65/64
f 84/65/64 65/30/30 85/66/65
f 85/66/65 66/32/32 86/67/66
f 87/68/67 66/32/32 67/33/33
f 87/68/67 68/35/35 88/69/68
f 89/70/69 68/35/35 69/38/38
f 89/70/69 70/39/39 90/71/70
f 90/71/70 71/41/41 91/72/71
f 92/73/72 71/41/41 72/43/43
f 93/74/73 72/43/43 73/45/45
f 93/74/73 74/47/47 94/75/74
f 95/76/75 74/47/47 75/50/50
f 96/77/76 75/50/50 76/51/51
f 96/77/76 77/54/54 97/78/77
f 98/79/78 77/54/54 78/55/55
f 99/80/79 78/55/55 79/57/57
f 99/80/79 80/60/60 100/81/80
f 100/81/80 81/62/22 101/82/81
f 102/83/82 101/84/81 82/63/62
f 103/85/83 82/63/62 83/64/63
f 104/86/84 83/64/63 84/65/64
f 105/87/85 84/65/64 85/66/65
f 105/87/85 86/67/66 106/88/86
f 107/89/87 86/67/66 87/68/67
f 107/89/87 88/69/68 108/90/88
f 108/90/88 89/70/69 109/91/89
f 109/91/89 90/71/70 110/92/90
f 110/92/90 91/72/71 111/93/91
f 112/94/92 91/72/71 92/73/72
f 112/94/92 93/74/73 113/95/93
f 114/96/94 93/74/73 94/75/74
f 115/97/95 94/75/74 95/76/75
f 115/97/95 96/77/76 116/98/96
f 116/98/96 97/78/77 117/99/97
f 117/99/97 98/79/78 118/100/98
f 118/100/98 99/80/79 119/101/99
f 120/102/100 99/80/79 100/81/80
f 120/102/100 101/82/81 121/103/101
f 122/104/102 121/105/101 102/83/82
f 122/104/102 103/85/83 123/106/103
f 123/106/103 104/86/84 124/107/104
f 124/107/104 105/87/85 125/108/105
f 126/109/106 105/87/85 106/88/86
f 126/109/106 107/89/87 127/110/107
f 128/111/108 107/89/87 108/90/88
f 129/112/109 108/90/88 109/91/89
f 130/113/110 109/91/89 110/92/90
f 131/114/111 110/92/90 111/93/91
f 131/114/111 112/94/92 132/115/112
f 133/116/113 112/94/92 113/95/93
f 133/116/113 114/96/94 134/117/114
f 134/117/114 115/97/95 135/118/115
f 136/119/116 115/97/95 116/98/96
f 136/119/116 117/99/97 137/120/117
f 138/121/118 117/99/97 118/100/98
f 139/122/119 118/100/98 119/101/99
f 139/122/119 120/102/100 140/123/120
f 140/123/120 121/103/101 141/124/121
f 161/125/122 122/104/102 142/126/123
f 142/126/123 123/106/103 143/127/124
f 144/128/125 123/106/103 124/107/104
f 145/129/126 124/107/104 125/108/105
f 146/130/127 125/108/105 126/109/106
f 146/130/127 127/110/107 147/131/128
f 147/131/128 128/111/108 148/132/129
f 148/132/129 129/112/109 149/133/130
f 150/134/131 129/112/109 130/113/110
f 151/135/132 130/113/110 131/114/111
f 152/136/133 131/114/111 132/115/112
f 153/137/134 132/115/112 133/116/113
f 153/137/134 134/117/114 154/138/135
f 155/139/136 134/117/114 135/118/115
f 156/140/137 135/118/115 136/119/116
f 156/140/137 137/120/117 157/141/138
f 157/141/138 138/121/118 158/142/139
f 158/142/139 139/122/119 159/143/140
f 159/143/140 140/123/120 160/144/141
f 160/144/141 141/124/121 161/145/122
f 22/146/142 161/125/122 142/126/123
f 23/147/143 142/126/123 143/127/124
f 23/147/143 144/128/125 24/148/144
f 24/148/144 145/129/126 25/149/145
f 25/149/145 146/130/127 26/150/146
f 27/151/147 146/130/127 147/131/128
f 28/152/148 147/131/128 148/132/129
f 29/153/149 148/132/129 149/133/130
f 29/153/149 150/134/131 30/154/150
f 30/154/150 151/135/132 31/155/151
f 31/155/151 152/136/133 32/156/152
f 32/156/152 153/137/134 33/157/153
f 33/157/153 154/138/135 34/158/154
f 34/158/154 155/139/136 35/159/155
f 35/159/155 156/140/137 36/160/156
f 37/161/157 156/140/137 157/141/138
f 38/162/158 157/141/138 158/142/139
f 39/163/159 158/142/139 159/143/140
f 40/164/160 159/143/140 160/144/141
f 41/165/161 160/144/141 161/145/122
f 41/165/161 40/164/160 160/144/141
f 40/164/160 39/163/159 159/143/140
f 39/163/159 38/162/158 158/142/139
f 38/162/158 37/161/157 157/141/138
f 37/161/157 36/160/156 156/140/137
f 35/159/155 155/139/136 156/140/137
f 34/158/154 154/138/135 155/139/136
f 33/157/153 153/137/134 154/138/135
f 32/156/152 152/136/133 153/137/134
f 31/155/151 151/135/132 152/136/133
f 30/154/150 150/134/131 151/135/132
f 29/153/149 149/133/130 150/134/131
f 29/153/149 28/152/148 148/132/129
f 28/152/148 27/151/147 147/131/128
f 27/151/147 26/150/146 146/130/127
f 25/149/145 145/129/126 146/130/127
f 24/148/144 144/128/125 145/129/126
f 23/147/143 143/127/124 144/128/125
f 23/147/143 22/146/142 142/126/123
f 22/146/142 41/418/161 161/125/122
f 160/144/141 140/123/120 141/124/121
f 159/143/140 139/122/119 140/123/120
f 158/142/139 138/121/118 139/122/119
f 157/141/138 137/120/117 138/121/118
f 156/140/137 136/119/116 137/120/117
f 156/140/137 155/139/136 135/118/115
f 155/139/136 154/138/135 134/117/114
f 153/137/134 133/116/113 134/117/114
f 153/137/134 152/136/133 132/115/112
f 152/136/133 151/135/132 131/114/111
f 151/135/132 150/134/131 130/113/110
f 150/134/131 149/133/130 129/112/109
f 148/132/129 128/111/108 129/112/109
f 147/131/128 127/110/107 128/111/108
f 146/130/127 126/109/106 127/110/107
f 146/130/127 145/129/126 125/108/105
f 145/129/126 144/128/125 124/107/104
f 144/128/125 143/127/124 123/106/103
f 142/126/123 122/104/102 123/106/103
f 161/125/122 141/419/121 122/104/102
f 140/123/120 120/102/100 121/103/101
f 139/122/119 119/101/99 120/102/100
f 139/122/119 138/121/118 118/100/98
f 138/121/118 137/120/117 117/99/97
f 136/119/116 116/98/96 117/99/97
f 136/119/116 135/118/115 115/97/95
f 134/117/114 114/96/94 115/97/95
f 133/116/113 113/95/93 114/96/94
f 133/116/113 132/115/112 112/94/92
f 131/114/111 111/93/91 112/94/92
f 131/114/111 130/113/110 110/92/90
f 130/113/110 129/112/109 109/91/89
f 129/112/109 128/111/108 108/90/88
f 128/111/108 127/110/107 107/89/87
f 126/109/106 106/88/86 107/89/87
f 126/109/106 125/108/105 105/87/85
f 124/107/104 104/86/84 105/87/85
f 123/106/103 103/85/83 104/86/84
f 122/104/102 102/83/82 103/85/83
f 122/104/102 141/419/121 121/105/101
f 120/102/100 100/81/80 101/82/81
f 120/102/100 119/101/99 99/80/79
f 118/100/98 98/79/78 99/80/79
f 117/99/97 97/78/77 98/79/78
f 116/98/96 96/77/76 97/78/77
f 115/97/95 95/76/75 96/77/76
f 115/97/95 114/96/94 94/75/74
f 114/96/94 113/95/93 93/74/73
f 112/94/92 92/73/72 93/74/73
f 112/94/92 111/93/91 91/72/71
f 110/92/90 90/71/70 91/72/71
f 109/91/89 89/70/69 90/71/70
f 108/90/88 88/69/68 89/70/69
f 107/89/87 87/68/67 88/69/68
f 107/89/87 106/88/86 86/67/66
f 105/87/85 85/66/65 86/67/66
f 105/87/85 104/86/84 84/65/64
f 104/86/84 103/85/83 83/64/63
f 103/85/83 102/83/82 82/63/62
f 102/83/82 121/105/101 101/84/81
f 100/81/80 80/60/60 81/62/22
f 99/80/79 79/57/57 80/60/60
f 99/80/79 98/79/78 78/55/55
f 98/79/78 97/78/77 77/54/54
f 96/77/76 76/51/51 77/54/54
f 96/77/76 95/76/75 75/50/50
f 95/76/75 94/75/74 74/47/47
f 93/74/73 73/45/45 74/47/47
f 93/74/73 92/73/72 72/43/43
f 92/73/72 91/72/71 71/41/41
f 90/71/70 70/39/39 71/41/41
f 89/70/69 69/38/38 70/39/39
f 89/70/69 88/69/68 68/35/35
f 87/68/67 67/33/33 68/35/35
f 87/68/67 86/67/66 66/32/32
f 85/66/65 65/30/30 66/32/32
f 84/65/64 64/27/27 65/30/30
f 83/64/63 63/26/26 64/27/27
f 83/64/63 82/63/62 62/24/24
f 82/63/62 101/84/81 81/22/22
f 80/60/60 60/59/59 61/61/61
f 79/57/57 59/58/58 60/59/59
f 79/57/57 78/55/55 58/56/56
f 78/55/55 77/54/54 57/53/53
f 76/51/51 56/52/52 57/53/53
f 76/51/51 75/50/50 55/49/49
f 74/47/47 54/48/48 55/49/49
f 74/47/47 73/45/45 53/46/46
f 73/45/45 72/43/43 52/44/44
f 72/43/43 71/41/41 51/42/42
f 71/41/41 70/39/39 50/40/40
f 70/39/39 69/38/38 49/37/37
f 68/35/35 48/36/36 49/37/37
f 68/35/35 67/33/33 47/34/34
f 67/33/33 66/32/32 46/31/31
f 65/30/30 45/29/29 46/31/31
f 64/27/27 44/28/28 45/29/29
f 64/27/27 63/26/26 43/25/25
f 62/24/24 42/23/23 43/25/25
f 81/22/22 61/420/61 42/23/23
s 3
g GoKart.001_lambert2SG.001
usemtl lambert2SG.001
f 201/166/162 162/167/163 181/168/164
f 182/169/165 163/170/166 162/167/163
f 183/171/167 164/172/168 163/170/166
f 185/173/169 164/172/168 184/174/170
f 186/175/171 165/176/172 185/173/169
f 186/175/171 167/177/173 166/178/174
f 187/179/175 168/180/176 167/177/173
f 189/181/177 168/180/176 188/182/178
f 190/183/179 169/184/180 189/181/177
f 191/185/181 170/186/182 190/183/179
f 192/187/183 171/188/184 191/189/181
f 192/187/183 173/190/185 172/191/186
f 193/192/187 174/193/188 173/190/185
f 195/194/189 174/193/188 194/195/190
f 196/196/191 175/197/192 195/194/189
f 196/196/191 177/198/193 176/199/194
f 197/200/195 178/201/196 177/198/193
f 199/202/197 178/201/196 198/203/198
f 200/204/199 179/205/200 199/202/197
f 200/204/199 181/168/164 180/206/201
f 202/207/202 201/166/162 221/208/203
f 203/209/204 182/169/165 202/207/202
f 204/210/205 183/171/167 203/209/204
f 204/210/205 185/173/169 184/174/170
f 205/211/206 186/175/171 185/173/169
f 207/212/207 186/175/171 206/213/208
f 208/214/209 187/179/175 207/212/207
f 208/214/209 189/181/177 188/182/178
f 209/215/210 190/183/179 189/181/177
f 210/216/211 191/185/181 190/183/179
f 211/217/212 192/187/183 191/189/181
f 212/218/213 193/192/187 192/187/183
f 214/219/214 193/192/187 213/220/215
f 214/219/214 195/194/189 194/195/190
f 215/221/216 196/196/191 195/194/189
f 217/222/217 196/196/191 216/223/218
f 218/224/219 197/200/195 217/222/217
f 218/224/219 199/202/197 198/203/198
f 220/225/220 199/202/197 219/226/221
f 221/208/203 200/204/199 220/225/220
f 362/227/222 221/208/203 381/228/222
f 362/227/222 203/209/204 202/207/202
f 364/229/222 203/209/204 363/230/222
f 364/229/222 205/211/206 204/210/205
f 365/231/222 206/213/208 205/211/206
f 367/232/222 206/213/208 366/233/222
f 368/234/222 207/212/207 367/232/222
f 368/234/222 209/215/210 208/214/209
f 369/235/222 210/216/211 209/215/210
f 370/236/222 211/237/212 210/216/211
f 372/238/222 211/217/212 371/239/222
f 373/240/222 212/218/213 372/238/222
f 374/241/222 213/220/215 373/240/222
f 374/241/222 215/221/216 214/219/214
f 376/242/222 215/221/216 375/243/222
f 376/242/222 217/222/217 216/223/218
f 378/244/222 217/222/217 377/245/222
f 378/244/222 219/226/221 218/224/219
f 380/246/222 219/226/221 379/247/222
f 380/246/222 221/208/203 220/225/220
s 4
f 260/248/223 362/227/224 381/228/225
f 222/249/226 362/227/224 258/250/227
f 224/251/228 363/230/229 222/249/226
f 224/251/228 365/231/230 364/229/231
f 226/252/232 366/233/233 365/231/230
f 230/253/234 366/233/233 228/254/235
f 232/255/236 367/232/237 230/253/234
f 232/255/236 369/235/238 368/234/239
f 234/256/240 370/236/241 369/235/238
f 238/257/242 370/236/241 236/258/243
f 240/259/244 371/239/245 238/260/242
f 242/261/246 372/238/247 240/259/244
f 244/262/248 373/240/249 242/261/246
f 244/262/248 375/243/250 374/241/251
f 248/263/252 375/243/250 246/264/253
f 248/263/252 377/245/254 376/242/255
f 252/265/256 377/245/254 250/266/257
f 252/265/256 379/247/258 378/244/259
f 254/267/260 380/246/261 379/247/258
f 256/268/262 381/228/225 380/246/261
f 223/269/263 262/270/264 263/271/265
f 225/272/266 263/271/265 264/273/267
f 265/274/268 225/272/266 264/273/267
f 266/275/269 227/276/270 265/274/268
f 231/277/271 266/275/269 267/278/272
f 233/279/273 267/278/272 268/280/274
f 269/281/275 233/279/273 268/280/274
f 270/282/276 235/283/277 269/281/275
f 271/284/278 237/285/279 270/282/276
f 241/286/280 271/287/278 272/288/281
f 243/289/282 272/288/281 273/290/283
f 274/291/284 243/289/282 273/290/283
f 275/292/285 245/293/286 274/291/284
f 276/294/287 247/295/288 275/292/285
f 251/296/289 276/294/287 277/297/290
f 253/298/291 277/297/290 278/299/292
f 279/300/293 253/298/291 278/299/292
f 280/301/294 255/302/295 279/300/293
f 281/303/296 257/304/297 280/301/294
f 281/303/296 259/305/298 261/306/299
f 224/251/228 223/269/263 225/272/266
f 226/252/232 225/272/266 227/276/270
f 228/254/235 227/276/270 229/307/300
f 231/277/271 228/254/235 229/307/300
f 233/279/273 230/253/234 231/277/271
f 234/256/240 233/279/273 235/283/277
f 236/258/243 235/283/277 237/285/279
f 238/257/242 237/285/279 239/308/301
f 240/259/244 239/309/301 241/286/280
f 242/261/246 241/286/280 243/289/282
f 244/262/248 243/289/282 245/293/286
f 246/264/253 245/293/286 247/295/288
f 248/263/252 247/295/288 249/310/302
f 251/296/289 248/263/252 249/310/302
f 253/298/291 250/266/257 251/296/289
f 254/267/260 253/298/291 255/302/295
f 257/304/297 254/267/260 255/302/295
f 258/250/227 223/269/263 222/249/226
f 260/248/223 259/305/298 258/250/227
f 261/306/299 256/268/262 257/304/297
s 5
f 322/311/303 281/303/304 341/312/304
f 323/313/305 262/270/303 322/311/303
f 324/314/306 263/271/305 323/313/305
f 325/315/307 264/273/306 324/314/306
f 326/316/308 265/274/307 325/315/307
f 327/317/309 266/275/308 326/316/308
f 328/318/310 267/278/309 327/317/309
f 329/319/311 268/280/310 328/318/310
f 330/320/312 269/281/311 329/319/311
f 331/321/313 270/282/312 330/320/312
f 332/322/314 271/287/313 331/323/313
f 333/324/315 272/288/314 332/322/314
f 334/325/316 273/290/315 333/324/315
f 335/326/317 274/291/316 334/325/316
f 336/327/318 275/292/317 335/326/317
f 337/328/319 276/294/318 336/327/318
f 338/329/320 277/297/319 337/328/319
f 339/330/321 278/299/320 338/329/320
f 340/331/322 279/300/321 339/330/321
f 341/312/304 280/301/322 340/331/322
s 6
f 342/332/323 320/333/324 361/334/325
f 343/335/326 316/336/327 342/332/323
f 344/337/328 282/338/329 343/335/326
f 344/337/328 286/339/330 284/340/331
f 346/341/332 286/339/330 345/342/333
f 346/341/332 290/343/334 288/344/335
f 348/345/336 290/343/334 347/346/337
f 348/345/336 294/347/338 292/348/339
f 350/349/340 294/347/338 349/350/341
f 350/349/340 298/351/342 296/352/343
f 352/353/344 298/354/342 351/355/345
f 352/353/344 302/356/346 300/357/347
f 354/358/348 302/356/346 353/359/349
f 355/360/350 304/361/351 354/358/348
f 355/360/350 308/362/352 306/363/353
f 357/364/354 308/362/352 356/365/355
f 357/364/354 312/366/356 310/367/357
f 359/368/358 312/366/356 358/369/359
f 360/370/360 314/371/361 359/368/358
f 360/370/360 320/333/324 318/372/362
f 323/313/363 317/373/364 283/374/365
f 285/375/366 323/313/363 283/374/365
f 287/376/367 324/314/368 285/375/366
f 289/377/369 325/315/370 287/376/367
f 327/317/371 289/377/369 291/378/372
f 328/318/373 291/378/372 293/379/374
f 329/319/375 293/379/374 295/380/376
f 297/381/377 329/319/375 295/380/376
f 299/382/378 330/320/379 297/381/377
f 301/383/380 331/323/381 299/384/378
f 303/385/382 332/322/383 301/383/380
f 305/386/384 333/324/385 303/385/382
f 307/387/386 334/325/387 305/386/384
f 309/388/388 335/326/389 307/387/386
f 337/328/390 309/388/388 311/389/391
f 338/329/392 311/389/391 313/390/393
f 339/330/394 313/390/393 315/391/395
f 340/331/396 315/391/395 319/392/397
f 321/393/398 322/311/399 341/312/400
f 341/312/400 319/392/397 321/393/398
f 285/375/366 282/338/329 284/340/331
f 287/376/367 284/340/331 286/339/330
f 289/377/369 286/339/330 288/344/335
f 290/343/334 289/377/369 288/344/335
f 292/348/339 291/378/372 290/343/334
f 295/380/376 292/348/339 294/347/338
f 297/381/377 294/347/338 296/352/343
f 299/382/378 296/352/343 298/351/342
f 301/383/380 298/354/342 300/357/347
f 303/385/382 300/357/347 302/356/346
f 304/361/351 303/385/382 302/356/346
f 307/387/386 304/361/351 306/363/353
f 309/388/388 306/363/353 308/362/352
f 310/367/357 309/388/388 308/362/352
f 312/366/356 311/389/391 310/367/357
f 314/371/361 313/390/393 312/366/356
f 317/373/364 282/338/329 283/374/365
f 318/372/362 315/391/395 314/371/361
f 320/333/324 319/392/397 318/372/362
f 321/393/398 316/336/327 317/373/364
s 7
f 400/394/222 382/395/222 402/396/222
f 382/395/222 383/397/222 402/396/222
f 383/397/222 384/398/222 402/396/222
f 384/398/222 385/399/222 402/396/222
f 385/399/222 386/400/222 402/396/222
f 386/400/222 387/401/222 402/396/222
f 387/401/222 388/402/222 402/396/222
f 388/402/222 389/403/222 402/396/222
f 389/403/222 390/404/222 402/396/222
f 390/404/222 391/405/222 402/396/222
f 391/405/222 392/406/222 402/396/222
f 392/406/222 393/407/222 402/396/222
f 393/407/222 394/408/222 402/396/222
f 394/408/222 395/409/222 402/396/222
f 395/409/222 396/410/222 402/396/222
f 396/410/222 397/411/222 402/396/222
f 397/411/222 398/412/222 402/396/222
f 398/412/222 399/413/222 402/396/222
f 399/413/222 401/414/222 402/396/222
f 401/414/222 400/394/222 402/396/222
s 6
f 321/393/398 320/333/324 316/336/327
f 320/333/324 321/393/398 319/392/397
f 318/372/362 319/392/397 315/391/395
f 317/373/364 316/336/327 282/338/329
f 314/371/361 315/391/395 313/390/393
f 312/366/356 313/390/393 311/389/391
f 310/367/357 311/389/391 309/388/388
f 309/388/388 307/387/386 306/363/353
f 307/387/386 305/386/384 304/361/351
f 304/361/351 305/386/384 303/385/382
f 303/385/382 301/383/380 300/357/347
f 301/383/380 299/384/378 298/354/342
f 299/382/378 297/381/377 296/352/343
f 297/381/377 295/380/376 294/347/338
f 295/380/376 293/379/374 292/348/339
f 292/348/339 293/379/374 291/378/372
f 290/343/334 291/378/372 289/377/369
f 289/377/369 287/376/367 286/339/330
f 287/376/367 285/375/366 284/340/331
f 285/375/366 283/374/365 282/338/329
f 341/312/400 340/331/396 319/392/397
f 321/393/398 317/373/364 322/311/399
f 340/331/396 339/330/394 315/391/395
f 339/330/394 338/329/392 313/390/393
f 338/329/392 337/328/390 311/389/391
f 337/328/390 336/327/401 309/388/388
f 309/388/388 336/327/401 335/326/389
f 307/387/386 335/326/389 334/325/387
f 305/386/384 334/325/387 333/324/385
f 303/385/382 333/324/385 332/322/383
f 301/383/380 332/322/383 331/323/381
f 299/382/378 331/321/381 330/320/379
f 297/381/377 330/320/379 329/319/375
f 329/319/375 328/318/373 293/379/374
f 328/318/373 327/317/371 291/378/372
f 327/317/371 326/316/402 289/377/369
f 289/377/369 326/316/402 325/315/370
f 287/376/367 325/315/370 324/314/368
f 285/375/366 324/314/368 323/313/363
f 323/313/363 322/311/399 317/373/364
f 360/370/360 361/334/325 320/333/324
f 360/370/360 318/372/362 314/371/361
f 359/368/358 314/371/361 312/366/356
f 357/364/354 358/369/359 312/366/356
f 357/364/354 310/367/357 308/362/352
f 355/360/350 356/365/355 308/362/352
f 355/360/350 306/363/353 304/361/351
f 354/358/348 304/361/351 302/356/346
f 352/353/344 353/359/349 302/356/346
f 352/353/344 300/357/347 298/354/342
f 350/349/340 351/415/345 298/351/342
f 350/349/340 296/352/343 294/347/338
f 348/345/336 349/350/341 294/347/338
f 348/345/336 292/348/339 290/343/334
f 346/341/332 347/346/337 290/343/334
f 346/341/332 288/344/335 286/339/330
f 344/337/328 345/342/333 286/339/330
f 344/337/328 284/340/331 282/338/329
f 343/335/326 282/338/329 316/336/327
f 342/332/323 316/336/327 320/333/324
s 5
f 341/312/304 281/303/304 280/301/322
f 340/331/322 280/301/322 279/300/321
f 339/330/321 279/300/321 278/299/320
f 338/329/320 278/299/320 277/297/319
f 337/328/319 277/297/319 276/294/318
f 336/327/318 276/294/318 275/292/317
f 335/326/317 275/292/317 274/291/316
f 334/325/316 274/291/316 273/290/315
f 333/324/315 273/290/315 272/288/314
f 332/322/314 272/288/314 271/287/313
f 331/321/313 271/284/313 270/282/312
f 330/320/312 270/282/312 269/281/311
f 329/319/311 269/281/311 268/280/310
f 328/318/310 268/280/310 267/278/309
f 327/317/309 267/278/309 266/275/308
f 326/316/308 266/275/308 265/274/307
f 325/315/307 265/274/307 264/273/306
f 324/314/306 264/273/306 263/271/305
f 323/313/305 263/271/305 262/270/303
f 322/311/303 262/270/303 281/303/304
s 4
f 261/306/299 260/248/223 256/268/262
f 260/248/223 261/306/299 259/305/298
f 258/250/227 259/305/298 223/269/263
f 257/304/297 256/268/262 254/267/260
f 254/267/260 252/265/256 253/298/291
f 253/298/291 252/265/256 250/266/257
f 251/296/289 250/266/257 248/263/252
f 248/263/252 246/264/253 247/295/288
f 246/264/253 244/262/248 245/293/286
f 244/262/248 242/261/246 243/289/282
f 242/261/246 240/259/244 241/286/280
f 240/259/244 238/260/242 239/309/301
f 238/257/242 236/258/243 237/285/279
f 236/258/243 234/256/240 235/283/277
f 234/256/240 232/255/236 233/279/273
f 233/279/273 232/255/236 230/253/234
f 231/277/271 230/253/234 228/254/235
f 228/254/235 226/252/232 227/276/270
f 226/252/232 224/251/228 225/272/266
f 224/251/228 222/249/226 223/269/263
f 281/303/296 262/270/264 259/305/298
f 281/303/296 261/306/299 257/304/297
f 280/301/294 257/304/297 255/302/295
f 279/300/293 255/302/295 253/298/291
f 253/298/291 251/296/289 277/297/290
f 251/296/289 249/310/302 276/294/287
f 276/294/287 249/310/302 247/295/288
f 275/292/285 247/295/288 245/293/286
f 274/291/284 245/293/286 243/289/282
f 243/289/282 241/286/280 272/288/281
f 241/286/280 239/309/301 271/287/278
f 271/284/278 239/308/301 237/285/279
f 270/282/276 237/285/279 235/283/277
f 269/281/275 235/283/277 233/279/273
f 233/279/273 231/277/271 267/278/272
f 231/277/271 229/307/300 266/275/269
f 266/275/269 229/307/300 227/276/270
f 265/274/268 227/276/270 225/272/266
f 225/272/266 223/269/263 263/271/265
f 223/269/263 259/305/298 262/270/264
f 256/268/262 260/248/223 381/228/225
f 254/267/260 256/268/262 380/246/261
f 252/265/256 254/267/260 379/247/258
f 252/265/256 378/244/259 377/245/254
f 248/263/252 250/266/257 377/245/254
f 248/263/252 376/242/255 375/243/250
f 244/262/248 246/264/253 375/243/250
f 244/262/248 374/241/251 373/240/249
f 242/261/246 373/240/249 372/238/247
f 240/259/244 372/238/247 371/239/245
f 238/257/242 371/416/245 370/236/241
f 234/256/240 236/258/243 370/236/241
f 232/255/236 234/256/240 369/235/238
f 232/255/236 368/234/239 367/232/237
f 230/253/234 367/232/237 366/233/233
f 226/252/232 228/254/235 366/233/233
f 224/251/228 226/252/232 365/231/230
f 224/251/228 364/229/231 363/230/229
f 222/249/226 363/230/229 362/227/224
f 260/248/223 258/250/227 362/227/224
s 3
f 380/246/222 381/228/222 221/208/203
f 380/246/222 220/225/220 219/226/221
f 378/244/222 379/247/222 219/226/221
f 378/244/222 218/224/219 217/222/217
f 376/242/222 377/245/222 217/222/217
f 376/242/222 216/223/218 215/221/216
f 374/241/222 375/243/222 215/221/216
f 374/241/222 214/219/214 213/220/215
f 373/240/222 213/220/215 212/218/213
f 372/238/222 212/218/213 211/217/212
f 370/236/222 371/416/222 211/237/212
f 369/235/222 370/236/222 210/216/211
f 368/234/222 369/235/222 209/215/210
f 368/234/222 208/214/209 207/212/207
f 367/232/222 207/212/207 206/213/208
f 365/231/222 366/233/222 206/213/208
f 364/229/222 365/231/222 205/211/206
f 364/229/222 204/210/205 203/209/204
f 362/227/222 363/230/222 203/209/204
f 362/227/222 202/207/202 221/208/203
f 221/208/203 201/166/162 200/204/199
f 220/225/220 200/204/199 199/202/197
f 218/224/219 219/226/221 199/202/197
f 218/224/219 198/203/198 197/200/195
f 217/222/217 197/200/195 196/196/191
f 215/221/216 216/223/218 196/196/191
f 214/219/214 215/221/216 195/194/189
f 214/219/214 194/195/190 193/192/187
f 212/218/213 213/220/215 193/192/187
f 211/217/212 212/218/213 192/187/183
f 210/216/211 211/237/212 191/185/181
f 209/215/210 210/216/211 190/183/179
f 208/214/209 209/215/210 189/181/177
f 208/214/209 188/182/178 187/179/175
f 207/212/207 187/179/175 186/175/171
f 205/211/206 206/213/208 186/175/171
f 204/210/205 205/211/206 185/173/169
f 204/210/205 184/174/170 183/171/167
f 203/209/204 183/171/167 182/169/165
f 202/207/202 182/169/165 201/166/162
f 200/204/199 201/166/162 181/168/164
f 200/204/199 180/206/201 179/205/200
f 199/202/197 179/205/200 178/201/196
f 197/200/195 198/203/198 178/201/196
f 196/196/191 197/200/195 177/198/193
f 196/196/191 176/199/194 175/197/192
f 195/194/189 175/197/192 174/193/188
f 193/192/187 194/195/190 174/193/188
f 192/187/183 193/192/187 173/190/185
f 192/187/183 172/191/186 171/188/184
f 191/185/181 171/417/184 170/186/182
f 190/183/179 170/186/182 169/184/180
f 189/181/177 169/184/180 168/180/176
f 187/179/175 188/182/178 168/180/176
f 186/175/171 187/179/175 167/177/173
f 186/175/171 166/178/174 165/176/172
f 185/173/169 165/176/172 164/172/168
f 183/171/167 184/174/170 164/172/168
f 182/169/165 183/171/167 163/170/166
f 201/166/162 182/169/165 162/167/163
