# Blender 5.0.1
# www.blender.org
mtllib Bloquepasto.mtl
o Cube.001
v -39.179195 2.340000 53.974190
v -39.179195 -2.340000 53.974190
v -49.478786 2.340000 53.974190
v -49.478786 -2.340000 53.974190
v -39.179195 2.340000 49.974190
v -39.179195 -2.340000 49.974190
v -49.478786 2.340000 49.974190
v -49.478786 -2.340000 49.974190
v -39.179195 2.340000 53.974190
v -39.179195 -2.340000 53.974190
v -49.478786 2.340000 53.974190
v -49.478786 -2.340000 53.974190
v -39.179195 2.340000 49.974190
v -39.179195 -2.340000 49.974190
v -49.478786 2.340000 49.974190
v -49.478786 -2.340000 49.974190
v -49.475544 2.332735 53.974190
v -49.475544 -2.347265 53.974190
v -59.775135 2.332735 53.974190
v -59.775135 -2.347265 53.974190
v -49.475544 2.332735 49.974190
v -49.475544 -2.347265 49.974190
v -59.775135 2.332735 49.974190
v -59.775135 -2.347265 49.974190
v -59.779152 2.340000 53.974190
v -59.779152 -2.340000 53.974190
v -70.078743 2.340000 53.974190
v -70.078743 -2.340000 53.974190
v -59.779152 2.340000 49.974190
v -59.779152 -2.340000 49.974190
v -70.078743 2.340000 49.974190
v -70.078743 -2.340000 49.974190
v -59.779152 2.340000 53.974190
v -59.779152 -2.340000 53.974190
v -70.078743 2.340000 53.974190
v -70.078743 -2.340000 53.974190
v -59.779152 2.340000 49.974190
v -59.779152 -2.340000 49.974190
v -70.078743 2.340000 49.974190
v -70.078743 -2.340000 49.974190
v -70.075500 2.332735 53.974190
v -70.075500 -2.347265 53.974190
v -80.375092 2.332735 53.974190
v -80.375092 -2.347265 53.974190
v -70.075500 2.332735 49.974190
v -70.075500 -2.347265 49.974190
v -80.375092 2.332735 49.974190
v -80.375092 -2.347265 49.974190
v -59.779152 2.340000 53.974190
v -59.779152 -2.340000 53.974190
v -70.078743 2.340000 53.974190
v -70.078743 -2.340000 53.974190
v -59.779152 2.340000 49.974190
v -59.779152 -2.340000 49.974190
v -70.078743 2.340000 49.974190
v -70.078743 -2.340000 49.974190
v -59.779152 2.340000 53.974190
v -59.779152 -2.340000 53.974190
v -70.078743 2.340000 53.974190
v -70.078743 -2.340000 53.974190
v -59.779152 2.340000 49.974190
v -59.779152 -2.340000 49.974190
v -70.078743 2.340000 49.974190
v -70.078743 -2.340000 49.974190
v -70.075500 2.332735 53.974190
v -70.075500 -2.347265 53.974190
v -80.375092 2.332735 53.974190
v -80.375092 -2.347265 53.974190
v -70.075500 2.332735 49.974190
v -70.075500 -2.347265 49.974190
v -80.375092 2.332735 49.974190
v -80.375092 -2.347265 49.974190
v -39.179195 2.340000 53.974190
v -39.179195 -2.340000 53.974190
v -49.478786 2.340000 53.974190
v -49.478786 -2.340000 53.974190
v -39.179195 2.340000 49.974190
v -39.179195 -2.340000 49.974190
v -49.478786 2.340000 49.974190
v -49.478786 -2.340000 49.974190
v -39.179195 2.340000 53.974190
v -39.179195 -2.340000 53.974190
v -49.478786 2.340000 53.974190
v -49.478786 -2.340000 53.974190
v -39.179195 2.340000 49.974190
v -39.179195 -2.340000 49.974190
v -49.478786 2.340000 49.974190
v -49.478786 -2.340000 49.974190
v -49.475544 2.332735 53.974190
v -49.475544 -2.347265 53.974190
v -59.775135 2.332735 53.974190
v -59.775135 -2.347265 53.974190
v -49.475544 2.332735 49.974190
v -49.475544 -2.347265 49.974190
v -59.775135 2.332735 49.974190
v -59.775135 -2.347265 49.974190
v -59.779152 2.340000 53.974190
v -59.779152 -2.340000 53.974190
v -70.078743 2.340000 53.974190
v -70.078743 -2.340000 53.974190
v -59.779152 2.340000 49.974190
v -59.779152 -2.340000 49.974190
v -70.078743 2.340000 49.974190
v -70.078743 -2.340000 49.974190
v -59.779152 2.340000 53.974190
v -59.779152 -2.340000 53.974190
v -70.078743 2.340000 53.974190
v -70.078743 -2.340000 53.974190
v -59.779152 2.340000 49.974190
v -59.779152 -2.340000 49.974190
v -70.078743 2.340000 49.974190
v -70.078743 -2.340000 49.974190
v -70.075500 2.332735 53.974190
v -70.075500 -2.347265 53.974190
v -80.375092 2.332735 53.974190
v -80.375092 -2.347265 53.974190
v -70.075500 2.332735 49.974190
v -70.075500 -2.347265 49.974190
v -80.375092 2.332735 49.974190
v -80.375092 -2.347265 49.974190
v -59.779152 2.340000 53.974190
v -59.779152 -2.340000 53.974190
v -70.078743 2.340000 53.974190
v -70.078743 -2.340000 53.974190
v -59.779152 2.340000 49.974190
v -59.779152 -2.340000 49.974190
v -70.078743 2.340000 49.974190
v -70.078743 -2.340000 49.974190
v -59.779152 2.340000 53.974190
v -59.779152 -2.340000 53.974190
v -70.078743 2.340000 53.974190
v -70.078743 -2.340000 53.974190
v -59.779152 2.340000 49.974190
v -59.779152 -2.340000 49.974190
v -70.078743 2.340000 49.974190
v -70.078743 -2.340000 49.974190
v -70.075500 2.332735 53.974190
v -70.075500 -2.347265 53.974190
v -80.375092 2.332735 53.974190
v -80.375092 -2.347265 53.974190
v -70.075500 2.332735 49.974190
v -70.075500 -2.347265 49.974190
v -80.375092 2.332735 49.974190
v -80.375092 -2.347265 49.974190
v 1.993248 2.340000 53.974186
v 1.993248 -2.340000 53.974186
v -8.306343 2.340000 53.974190
v -8.306343 -2.340000 53.974190
v 1.993248 2.340000 49.974186
v 1.993248 -2.340000 49.974186
v -8.306343 2.340000 49.974190
v -8.306343 -2.340000 49.974190
v 1.993248 2.340000 53.974186
v 1.993248 -2.340000 53.974186
v -8.306343 2.340000 53.974190
v -8.306343 -2.340000 53.974190
v 1.993248 2.340000 49.974186
v 1.993248 -2.340000 49.974186
v -8.306343 2.340000 49.974190
v -8.306343 -2.340000 49.974190
v -8.303101 2.332735 53.974190
v -8.303101 -2.347265 53.974190
v -18.602692 2.332735 53.974190
v -18.602692 -2.347265 53.974190
v -8.303101 2.332735 49.974190
v -8.303101 -2.347265 49.974190
v -18.602692 2.332735 49.974190
v -18.602692 -2.347265 49.974190
v -18.606710 2.340000 53.974190
v -18.606710 -2.340000 53.974190
v -28.906301 2.340000 53.974190
v -28.906301 -2.340000 53.974190
v -18.606710 2.340000 49.974190
v -18.606710 -2.340000 49.974190
v -28.906301 2.340000 49.974190
v -28.906301 -2.340000 49.974190
v -18.606710 2.340000 53.974190
v -18.606710 -2.340000 53.974190
v -28.906301 2.340000 53.974190
v -28.906301 -2.340000 53.974190
v -18.606710 2.340000 49.974190
v -18.606710 -2.340000 49.974190
v -28.906301 2.340000 49.974190
v -28.906301 -2.340000 49.974190
v -28.903059 2.332735 53.974190
v -28.903059 -2.347265 53.974190
v -39.202652 2.332735 53.974190
v -39.202652 -2.347265 53.974190
v -28.903059 2.332735 49.974190
v -28.903059 -2.347265 49.974190
v -39.202652 2.332735 49.974190
v -39.202652 -2.347265 49.974190
v -18.606710 2.340000 53.974190
v -18.606710 -2.340000 53.974190
v -28.906301 2.340000 53.974190
v -28.906301 -2.340000 53.974190
v -18.606710 2.340000 49.974190
v -18.606710 -2.340000 49.974190
v -28.906301 2.340000 49.974190
v -28.906301 -2.340000 49.974190
v -18.606710 2.340000 53.974190
v -18.606710 -2.340000 53.974190
v -28.906301 2.340000 53.974190
v -28.906301 -2.340000 53.974190
v -18.606710 2.340000 49.974190
v -18.606710 -2.340000 49.974190
v -28.906301 2.340000 49.974190
v -28.906301 -2.340000 49.974190
v -28.903059 2.332735 53.974190
v -28.903059 -2.347265 53.974190
v -39.202652 2.332735 53.974190
v -39.202652 -2.347265 53.974190
v -28.903059 2.332735 49.974190
v -28.903059 -2.347265 49.974190
v -39.202652 2.332735 49.974190
v -39.202652 -2.347265 49.974190
v -1.999996 2.340000 8.799591
v -2.000000 -2.340000 8.799591
v -2.000000 2.340000 -1.500000
v -2.000000 -2.340000 -1.500000
v 2.000004 2.340000 8.799591
v 2.000000 -2.340000 8.799591
v 2.000000 2.340000 -1.500000
v 2.000000 -2.340000 -1.500000
v -1.999996 2.340000 8.799591
v -2.000000 -2.340000 8.799591
v -2.000000 2.340000 -1.500000
v -2.000000 -2.340000 -1.500000
v 2.000004 2.340000 8.799591
v 2.000000 -2.340000 8.799591
v 2.000000 2.340000 -1.500000
v 2.000000 -2.340000 -1.500000
v -2.000000 2.332735 -1.496758
v -2.000000 -2.347265 -1.496758
v -2.000000 2.332735 -11.796349
v -2.000000 -2.347265 -11.796349
v 2.000000 2.332735 -1.496758
v 2.000000 -2.347265 -1.496758
v 2.000000 2.332735 -11.796349
v 2.000000 -2.347265 -11.796349
v -2.000000 2.340000 -11.800365
v -2.000000 -2.340000 -11.800365
v -2.000000 2.339999 -22.099953
v -2.000000 -2.340001 -22.099953
v 2.000000 2.340000 -11.800365
v 2.000000 -2.340000 -11.800365
v 2.000000 2.340000 -22.099953
v 2.000000 -2.340000 -22.099953
v -2.000000 2.340000 -11.800365
v -2.000000 -2.340000 -11.800365
v -2.000000 2.339999 -22.099953
v -2.000000 -2.340001 -22.099953
v 2.000000 2.340000 -11.800365
v 2.000000 -2.340000 -11.800365
v 2.000000 2.340000 -22.099953
v 2.000000 -2.340000 -22.099953
v -2.000000 2.332734 -22.096710
v -2.000000 -2.347265 -22.096710
v -2.000000 2.332735 -32.396309
v -2.000000 -2.347265 -32.396309
v 2.000000 2.332735 -22.096710
v 2.000000 -2.347265 -22.096710
v 2.000000 2.332735 -32.396309
v 2.000000 -2.347265 -32.396309
v -2.000000 2.340000 -11.800365
v -2.000000 -2.340000 -11.800365
v -2.000000 2.339999 -22.099953
v -2.000000 -2.340001 -22.099953
v 2.000000 2.340000 -11.800365
v 2.000000 -2.340000 -11.800365
v 2.000000 2.340000 -22.099953
v 2.000000 -2.340000 -22.099953
v -2.000000 2.340000 -11.800365
v -2.000000 -2.340000 -11.800365
v -2.000000 2.339999 -22.099953
v -2.000000 -2.340001 -22.099953
v 2.000000 2.340000 -11.800365
v 2.000000 -2.340000 -11.800365
v 2.000000 2.340000 -22.099953
v 2.000000 -2.340000 -22.099953
v -2.000000 2.332734 -22.096710
v -2.000000 -2.347265 -22.096710
v -2.000000 2.332735 -32.396309
v -2.000000 -2.347265 -32.396309
v 2.000000 2.332735 -22.096710
v 2.000000 -2.347265 -22.096710
v 2.000000 2.332735 -32.396309
v 2.000000 -2.347265 -32.396309
v -1.999996 2.340000 8.799591
v -2.000000 -2.340000 8.799591
v -2.000000 2.340000 -1.500000
v -2.000000 -2.340000 -1.500000
v 2.000004 2.340000 8.799591
v 2.000000 -2.340000 8.799591
v 2.000000 2.340000 -1.500000
v 2.000000 -2.340000 -1.500000
v -1.999996 2.340000 8.799591
v -2.000000 -2.340000 8.799591
v -2.000000 2.340000 -1.500000
v -2.000000 -2.340000 -1.500000
v 2.000004 2.340000 8.799591
v 2.000000 -2.340000 8.799591
v 2.000000 2.340000 -1.500000
v 2.000000 -2.340000 -1.500000
v -2.000000 2.332735 -1.496758
v -2.000000 -2.347265 -1.496758
v -2.000000 2.332735 -11.796349
v -2.000000 -2.347265 -11.796349
v 2.000000 2.332735 -1.496758
v 2.000000 -2.347265 -1.496758
v 2.000000 2.332735 -11.796349
v 2.000000 -2.347265 -11.796349
v -2.000000 2.340000 -11.800365
v -2.000000 -2.340000 -11.800365
v -2.000000 2.339999 -22.099953
v -2.000000 -2.340001 -22.099953
v 2.000000 2.340000 -11.800365
v 2.000000 -2.340000 -11.800365
v 2.000000 2.340000 -22.099953
v 2.000000 -2.340000 -22.099953
v -2.000000 2.340000 -11.800365
v -2.000000 -2.340000 -11.800365
v -2.000000 2.339999 -22.099953
v -2.000000 -2.340001 -22.099953
v 2.000000 2.340000 -11.800365
v 2.000000 -2.340000 -11.800365
v 2.000000 2.340000 -22.099953
v 2.000000 -2.340000 -22.099953
v -2.000000 2.332734 -22.096710
v -2.000000 -2.347265 -22.096710
v -2.000000 2.332735 -32.396309
v -2.000000 -2.347265 -32.396309
v 2.000000 2.332735 -22.096710
v 2.000000 -2.347265 -22.096710
v 2.000000 2.332735 -32.396309
v 2.000000 -2.347265 -32.396309
v -2.000000 2.340000 -11.800365
v -2.000000 -2.340000 -11.800365
v -2.000000 2.339999 -22.099953
v -2.000000 -2.340001 -22.099953
v 2.000000 2.340000 -11.800365
v 2.000000 -2.340000 -11.800365
v 2.000000 2.340000 -22.099953
v 2.000000 -2.340000 -22.099953
v -2.000000 2.340000 -11.800365
v -2.000000 -2.340000 -11.800365
v -2.000000 2.339999 -22.099953
v -2.000000 -2.340001 -22.099953
v 2.000000 2.340000 -11.800365
v 2.000000 -2.340000 -11.800365
v 2.000000 2.340000 -22.099953
v 2.000000 -2.340000 -22.099953
v -2.000000 2.332734 -22.096710
v -2.000000 -2.347265 -22.096710
v -2.000000 2.332735 -32.396309
v -2.000000 -2.347265 -32.396309
v 2.000000 2.332735 -22.096710
v 2.000000 -2.347265 -22.096710
v 2.000000 2.332735 -32.396309
v 2.000000 -2.347265 -32.396309
v -2.000000 2.340000 49.972038
v -2.000000 -2.340000 49.972038
v -1.999996 2.340000 39.672447
v -1.999996 -2.340000 39.672447
v 2.000000 2.340000 49.972034
v 2.000004 -2.340000 49.972034
v 2.000004 2.340000 39.672447
v 2.000004 -2.340000 39.672447
v -2.000000 2.340000 49.972038
v -2.000000 -2.340000 49.972038
v -1.999996 2.340000 39.672447
v -1.999996 -2.340000 39.672447
v 2.000000 2.340000 49.972034
v 2.000004 -2.340000 49.972034
v 2.000004 2.340000 39.672447
v 2.000004 -2.340000 39.672447
v -1.999996 2.332735 39.675690
v -1.999996 -2.347265 39.675690
v -1.999996 2.332735 29.376097
v -1.999996 -2.347265 29.376097
v 2.000004 2.332735 39.675690
v 2.000004 -2.347265 39.675690
v 2.000004 2.332735 29.376097
v 2.000004 -2.347265 29.376097
v -1.999996 2.340000 29.372078
v -1.999996 -2.340000 29.372078
v -1.999996 2.339999 19.072483
v -1.999996 -2.340001 19.072483
v 2.000004 2.340000 29.372078
v 2.000004 -2.340000 29.372078
v 2.000004 2.340000 19.072483
v 2.000004 -2.340000 19.072483
v -1.999996 2.340000 29.372078
v -1.999996 -2.340000 29.372078
v -1.999996 2.339999 19.072483
v -1.999996 -2.340001 19.072483
v 2.000004 2.340000 29.372078
v 2.000004 -2.340000 29.372078
v 2.000004 2.340000 19.072483
v 2.000004 -2.340000 19.072483
v -1.999996 2.332734 19.075726
v -1.999996 -2.347265 19.075726
v -1.999996 2.332735 8.776134
v -2.000000 -2.347265 8.776134
v 2.000004 2.332735 19.075726
v 2.000004 -2.347265 19.075726
v 2.000004 2.332735 8.776134
v 2.000000 -2.347265 8.776134
v -1.999996 2.340000 29.372078
v -1.999996 -2.340000 29.372078
v -1.999996 2.339999 19.072483
v -1.999996 -2.340001 19.072483
v 2.000004 2.340000 29.372078
v 2.000004 -2.340000 29.372078
v 2.000004 2.340000 19.072483
v 2.000004 -2.340000 19.072483
v -1.999996 2.340000 29.372078
v -1.999996 -2.340000 29.372078
v -1.999996 2.339999 19.072483
v -1.999996 -2.340001 19.072483
v 2.000004 2.340000 29.372078
v 2.000004 -2.340000 29.372078
v 2.000004 2.340000 19.072483
v 2.000004 -2.340000 19.072483
v -1.999996 2.332734 19.075726
v -1.999996 -2.347265 19.075726
v -1.999996 2.332735 8.776134
v -2.000000 -2.347265 8.776134
v 2.000004 2.332735 19.075726
v 2.000004 -2.347265 19.075726
v 2.000004 2.332735 8.776134
v 2.000000 -2.347265 8.776134
vn -0.0000 -1.0000 -0.0000
vn 1.0000 -0.0000 -0.0000
vn -0.0000 -0.0000 1.0000
vn -0.0000 1.0000 -0.0000
vn -0.0000 -0.0000 -1.0000
vn -1.0000 -0.0000 -0.0000
vt 0.846902 0.388111
vt 0.628468 0.147956
vt 0.628468 1.192868
vt 0.399630 1.339269
vt 0.375000 0.967037
vt 0.625000 -0.447991
vt 0.375000 -0.447991
vt 0.375000 0.614202
vt 0.399630 -0.014090
vt 0.125000 0.321167
vt 0.125000 0.877162
vt 0.625000 0.614202
vt 0.846902 0.838332
vt 0.625000 0.967037
s 1
usemtl Material.002
f 5/1/1 1/2/1 3/3/1
f 3/3/2 4/4/2 8/5/2
f 7/6/3 8/7/3 6/8/3
f 2/9/4 6/10/4 8/11/4
f 1/2/5 2/9/5 4/4/5
f 5/12/6 6/8/6 2/9/6
f 13/1/1 9/2/1 11/3/1
f 11/3/2 12/4/2 16/5/2
f 15/6/3 16/7/3 14/8/3
f 10/9/4 14/10/4 16/11/4
f 9/2/5 10/9/5 12/4/5
f 13/12/6 14/8/6 10/9/6
f 21/1/1 17/2/1 19/3/1
f 19/3/2 20/4/2 24/5/2
f 23/6/3 24/7/3 22/8/3
f 18/9/4 22/10/4 24/11/4
f 17/2/5 18/9/5 20/4/5
f 21/12/6 22/8/6 18/9/6
f 29/1/1 25/2/1 27/3/1
f 27/3/2 28/4/2 32/5/2
f 31/6/3 32/7/3 30/8/3
f 26/9/4 30/10/4 32/11/4
f 25/2/5 26/9/5 28/4/5
f 29/12/6 30/8/6 26/9/6
f 37/1/1 33/2/1 35/3/1
f 35/3/2 36/4/2 40/5/2
f 39/6/3 40/7/3 38/8/3
f 34/9/4 38/10/4 40/11/4
f 33/2/5 34/9/5 36/4/5
f 37/12/6 38/8/6 34/9/6
f 45/1/1 41/2/1 43/3/1
f 43/3/2 44/4/2 48/5/2
f 47/6/3 48/7/3 46/8/3
f 42/9/4 46/10/4 48/11/4
f 41/2/5 42/9/5 44/4/5
f 45/12/6 46/8/6 42/9/6
f 53/1/1 49/2/1 51/3/1
f 51/3/2 52/4/2 56/5/2
f 55/6/3 56/7/3 54/8/3
f 50/9/4 54/10/4 56/11/4
f 49/2/5 50/9/5 52/4/5
f 53/12/6 54/8/6 50/9/6
f 61/1/1 57/2/1 59/3/1
f 59/3/2 60/4/2 64/5/2
f 63/6/3 64/7/3 62/8/3
f 58/9/4 62/10/4 64/11/4
f 57/2/5 58/9/5 60/4/5
f 61/12/6 62/8/6 58/9/6
f 69/1/1 65/2/1 67/3/1
f 67/3/2 68/4/2 72/5/2
f 71/6/3 72/7/3 70/8/3
f 66/9/4 70/10/4 72/11/4
f 65/2/5 66/9/5 68/4/5
f 69/12/6 70/8/6 66/9/6
f 5/1/1 3/3/1 7/13/1
f 3/3/2 8/5/2 7/14/2
f 7/6/3 6/8/3 5/12/3
f 2/9/4 8/11/4 4/4/4
f 1/2/5 4/4/5 3/3/5
f 5/12/6 2/9/6 1/2/6
f 13/1/1 11/3/1 15/13/1
f 11/3/2 16/5/2 15/14/2
f 15/6/3 14/8/3 13/12/3
f 10/9/4 16/11/4 12/4/4
f 9/2/5 12/4/5 11/3/5
f 13/12/6 10/9/6 9/2/6
f 21/1/1 19/3/1 23/13/1
f 19/3/2 24/5/2 23/14/2
f 23/6/3 22/8/3 21/12/3
f 18/9/4 24/11/4 20/4/4
f 17/2/5 20/4/5 19/3/5
f 21/12/6 18/9/6 17/2/6
f 29/1/1 27/3/1 31/13/1
f 27/3/2 32/5/2 31/14/2
f 31/6/3 30/8/3 29/12/3
f 26/9/4 32/11/4 28/4/4
f 25/2/5 28/4/5 27/3/5
f 29/12/6 26/9/6 25/2/6
f 37/1/1 35/3/1 39/13/1
f 35/3/2 40/5/2 39/14/2
f 39/6/3 38/8/3 37/12/3
f 34/9/4 40/11/4 36/4/4
f 33/2/5 36/4/5 35/3/5
f 37/12/6 34/9/6 33/2/6
f 45/1/1 43/3/1 47/13/1
f 43/3/2 48/5/2 47/14/2
f 47/6/3 46/8/3 45/12/3
f 42/9/4 48/11/4 44/4/4
f 41/2/5 44/4/5 43/3/5
f 45/12/6 42/9/6 41/2/6
f 53/1/1 51/3/1 55/13/1
f 51/3/2 56/5/2 55/14/2
f 55/6/3 54/8/3 53/12/3
f 50/9/4 56/11/4 52/4/4
f 49/2/5 52/4/5 51/3/5
f 53/12/6 50/9/6 49/2/6
f 61/1/1 59/3/1 63/13/1
f 59/3/2 64/5/2 63/14/2
f 63/6/3 62/8/3 61/12/3
f 58/9/4 64/11/4 60/4/4
f 57/2/5 60/4/5 59/3/5
f 61/12/6 58/9/6 57/2/6
f 69/1/1 67/3/1 71/13/1
f 67/3/2 72/5/2 71/14/2
f 71/6/3 70/8/3 69/12/3
f 66/9/4 72/11/4 68/4/4
f 65/2/5 68/4/5 67/3/5
f 69/12/6 66/9/6 65/2/6
f 77/1/1 73/2/1 75/3/1
f 75/3/2 76/4/2 80/5/2
f 79/6/3 80/7/3 78/8/3
f 74/9/4 78/10/4 80/11/4
f 73/2/5 74/9/5 76/4/5
f 77/12/6 78/8/6 74/9/6
f 85/1/1 81/2/1 83/3/1
f 83/3/2 84/4/2 88/5/2
f 87/6/3 88/7/3 86/8/3
f 82/9/4 86/10/4 88/11/4
f 81/2/5 82/9/5 84/4/5
f 85/12/6 86/8/6 82/9/6
f 93/1/1 89/2/1 91/3/1
f 91/3/2 92/4/2 96/5/2
f 95/6/3 96/7/3 94/8/3
f 90/9/4 94/10/4 96/11/4
f 89/2/5 90/9/5 92/4/5
f 93/12/6 94/8/6 90/9/6
f 101/1/1 97/2/1 99/3/1
f 99/3/2 100/4/2 104/5/2
f 103/6/3 104/7/3 102/8/3
f 98/9/4 102/10/4 104/11/4
f 97/2/5 98/9/5 100/4/5
f 101/12/6 102/8/6 98/9/6
f 109/1/1 105/2/1 107/3/1
f 107/3/2 108/4/2 112/5/2
f 111/6/3 112/7/3 110/8/3
f 106/9/4 110/10/4 112/11/4
f 105/2/5 106/9/5 108/4/5
f 109/12/6 110/8/6 106/9/6
f 117/1/1 113/2/1 115/3/1
f 115/3/2 116/4/2 120/5/2
f 119/6/3 120/7/3 118/8/3
f 114/9/4 118/10/4 120/11/4
f 113/2/5 114/9/5 116/4/5
f 117/12/6 118/8/6 114/9/6
f 125/1/1 121/2/1 123/3/1
f 123/3/2 124/4/2 128/5/2
f 127/6/3 128/7/3 126/8/3
f 122/9/4 126/10/4 128/11/4
f 121/2/5 122/9/5 124/4/5
f 125/12/6 126/8/6 122/9/6
f 133/1/1 129/2/1 131/3/1
f 131/3/2 132/4/2 136/5/2
f 135/6/3 136/7/3 134/8/3
f 130/9/4 134/10/4 136/11/4
f 129/2/5 130/9/5 132/4/5
f 133/12/6 134/8/6 130/9/6
f 141/1/1 137/2/1 139/3/1
f 139/3/2 140/4/2 144/5/2
f 143/6/3 144/7/3 142/8/3
f 138/9/4 142/10/4 144/11/4
f 137/2/5 138/9/5 140/4/5
f 141/12/6 142/8/6 138/9/6
f 77/1/1 75/3/1 79/13/1
f 75/3/2 80/5/2 79/14/2
f 79/6/3 78/8/3 77/12/3
f 74/9/4 80/11/4 76/4/4
f 73/2/5 76/4/5 75/3/5
f 77/12/6 74/9/6 73/2/6
f 85/1/1 83/3/1 87/13/1
f 83/3/2 88/5/2 87/14/2
f 87/6/3 86/8/3 85/12/3
f 82/9/4 88/11/4 84/4/4
f 81/2/5 84/4/5 83/3/5
f 85/12/6 82/9/6 81/2/6
f 93/1/1 91/3/1 95/13/1
f 91/3/2 96/5/2 95/14/2
f 95/6/3 94/8/3 93/12/3
f 90/9/4 96/11/4 92/4/4
f 89/2/5 92/4/5 91/3/5
f 93/12/6 90/9/6 89/2/6
f 101/1/1 99/3/1 103/13/1
f 99/3/2 104/5/2 103/14/2
f 103/6/3 102/8/3 101/12/3
f 98/9/4 104/11/4 100/4/4
f 97/2/5 100/4/5 99/3/5
f 101/12/6 98/9/6 97/2/6
f 109/1/1 107/3/1 111/13/1
f 107/3/2 112/5/2 111/14/2
f 111/6/3 110/8/3 109/12/3
f 106/9/4 112/11/4 108/4/4
f 105/2/5 108/4/5 107/3/5
f 109/12/6 106/9/6 105/2/6
f 117/1/1 115/3/1 119/13/1
f 115/3/2 120/5/2 119/14/2
f 119/6/3 118/8/3 117/12/3
f 114/9/4 120/11/4 116/4/4
f 113/2/5 116/4/5 115/3/5
f 117/12/6 114/9/6 113/2/6
f 125/1/1 123/3/1 127/13/1
f 123/3/2 128/5/2 127/14/2
f 127/6/3 126/8/3 125/12/3
f 122/9/4 128/11/4 124/4/4
f 121/2/5 124/4/5 123/3/5
f 125/12/6 122/9/6 121/2/6
f 133/1/1 131/3/1 135/13/1
f 131/3/2 136/5/2 135/14/2
f 135/6/3 134/8/3 133/12/3
f 130/9/4 136/11/4 132/4/4
f 129/2/5 132/4/5 131/3/5
f 133/12/6 130/9/6 129/2/6
f 141/1/1 139/3/1 143/13/1
f 139/3/2 144/5/2 143/14/2
f 143/6/3 142/8/3 141/12/3
f 138/9/4 144/11/4 140/4/4
f 137/2/5 140/4/5 139/3/5
f 141/12/6 138/9/6 137/2/6
f 149/1/1 145/2/1 147/3/1
f 147/3/2 148/4/2 152/5/2
f 151/6/3 152/7/3 150/8/3
f 146/9/4 150/10/4 152/11/4
f 145/2/5 146/9/5 148/4/5
f 149/12/6 150/8/6 146/9/6
f 157/1/1 153/2/1 155/3/1
f 155/3/2 156/4/2 160/5/2
f 159/6/3 160/7/3 158/8/3
f 154/9/4 158/10/4 160/11/4
f 153/2/5 154/9/5 156/4/5
f 157/12/6 158/8/6 154/9/6
f 165/1/1 161/2/1 163/3/1
f 163/3/2 164/4/2 168/5/2
f 167/6/3 168/7/3 166/8/3
f 162/9/4 166/10/4 168/11/4
f 161/2/5 162/9/5 164/4/5
f 165/12/6 166/8/6 162/9/6
f 173/1/1 169/2/1 171/3/1
f 171/3/2 172/4/2 176/5/2
f 175/6/3 176/7/3 174/8/3
f 170/9/4 174/10/4 176/11/4
f 169/2/5 170/9/5 172/4/5
f 173/12/6 174/8/6 170/9/6
f 181/1/1 177/2/1 179/3/1
f 179/3/2 180/4/2 184/5/2
f 183/6/3 184/7/3 182/8/3
f 178/9/4 182/10/4 184/11/4
f 177/2/5 178/9/5 180/4/5
f 181/12/6 182/8/6 178/9/6
f 189/1/1 185/2/1 187/3/1
f 187/3/2 188/4/2 192/5/2
f 191/6/3 192/7/3 190/8/3
f 186/9/4 190/10/4 192/11/4
f 185/2/5 186/9/5 188/4/5
f 189/12/6 190/8/6 186/9/6
f 197/1/1 193/2/1 195/3/1
f 195/3/2 196/4/2 200/5/2
f 199/6/3 200/7/3 198/8/3
f 194/9/4 198/10/4 200/11/4
f 193/2/5 194/9/5 196/4/5
f 197/12/6 198/8/6 194/9/6
f 205/1/1 201/2/1 203/3/1
f 203/3/2 204/4/2 208/5/2
f 207/6/3 208/7/3 206/8/3
f 202/9/4 206/10/4 208/11/4
f 201/2/5 202/9/5 204/4/5
f 205/12/6 206/8/6 202/9/6
f 213/1/1 209/2/1 211/3/1
f 211/3/2 212/4/2 216/5/2
f 215/6/3 216/7/3 214/8/3
f 210/9/4 214/10/4 216/11/4
f 209/2/5 210/9/5 212/4/5
f 213/12/6 214/8/6 210/9/6
f 149/1/1 147/3/1 151/13/1
f 147/3/2 152/5/2 151/14/2
f 151/6/3 150/8/3 149/12/3
f 146/9/4 152/11/4 148/4/4
f 145/2/5 148/4/5 147/3/5
f 149/12/6 146/9/6 145/2/6
f 157/1/1 155/3/1 159/13/1
f 155/3/2 160/5/2 159/14/2
f 159/6/3 158/8/3 157/12/3
f 154/9/4 160/11/4 156/4/4
f 153/2/5 156/4/5 155/3/5
f 157/12/6 154/9/6 153/2/6
f 165/1/1 163/3/1 167/13/1
f 163/3/2 168/5/2 167/14/2
f 167/6/3 166/8/3 165/12/3
f 162/9/4 168/11/4 164/4/4
f 161/2/5 164/4/5 163/3/5
f 165/12/6 162/9/6 161/2/6
f 173/1/1 171/3/1 175/13/1
f 171/3/2 176/5/2 175/14/2
f 175/6/3 174/8/3 173/12/3
f 170/9/4 176/11/4 172/4/4
f 169/2/5 172/4/5 171/3/5
f 173/12/6 170/9/6 169/2/6
f 181/1/1 179/3/1 183/13/1
f 179/3/2 184/5/2 183/14/2
f 183/6/3 182/8/3 181/12/3
f 178/9/4 184/11/4 180/4/4
f 177/2/5 180/4/5 179/3/5
f 181/12/6 178/9/6 177/2/6
f 189/1/1 187/3/1 191/13/1
f 187/3/2 192/5/2 191/14/2
f 191/6/3 190/8/3 189/12/3
f 186/9/4 192/11/4 188/4/4
f 185/2/5 188/4/5 187/3/5
f 189/12/6 186/9/6 185/2/6
f 197/1/1 195/3/1 199/13/1
f 195/3/2 200/5/2 199/14/2
f 199/6/3 198/8/3 197/12/3
f 194/9/4 200/11/4 196/4/4
f 193/2/5 196/4/5 195/3/5
f 197/12/6 194/9/6 193/2/6
f 205/1/1 203/3/1 207/13/1
f 203/3/2 208/5/2 207/14/2
f 207/6/3 206/8/3 205/12/3
f 202/9/4 208/11/4 204/4/4
f 201/2/5 204/4/5 203/3/5
f 205/12/6 202/9/6 201/2/6
f 213/1/1 211/3/1 215/13/1
f 211/3/2 216/5/2 215/14/2
f 215/6/3 214/8/3 213/12/3
f 210/9/4 216/11/4 212/4/4
f 209/2/5 212/4/5 211/3/5
f 213/12/6 210/9/6 209/2/6
f 221/1/1 217/2/1 219/3/1
f 219/3/3 220/4/3 224/5/3
f 223/6/6 224/7/6 222/8/6
f 218/9/4 222/10/4 224/11/4
f 217/2/2 218/9/2 220/4/2
f 221/12/5 222/8/5 218/9/5
f 229/1/1 225/2/1 227/3/1
f 227/3/3 228/4/3 232/5/3
f 231/6/6 232/7/6 230/8/6
f 226/9/4 230/10/4 232/11/4
f 225/2/2 226/9/2 228/4/2
f 229/12/5 230/8/5 226/9/5
f 237/1/1 233/2/1 235/3/1
f 235/3/3 236/4/3 240/5/3
f 239/6/6 240/7/6 238/8/6
f 234/9/4 238/10/4 240/11/4
f 233/2/2 234/9/2 236/4/2
f 237/12/5 238/8/5 234/9/5
f 245/1/1 241/2/1 243/3/1
f 243/3/3 244/4/3 248/5/3
f 247/6/6 248/7/6 246/8/6
f 242/9/4 246/10/4 248/11/4
f 241/2/2 242/9/2 244/4/2
f 245/12/5 246/8/5 242/9/5
f 253/1/1 249/2/1 251/3/1
f 251/3/3 252/4/3 256/5/3
f 255/6/6 256/7/6 254/8/6
f 250/9/4 254/10/4 256/11/4
f 249/2/2 250/9/2 252/4/2
f 253/12/5 254/8/5 250/9/5
f 261/1/1 257/2/1 259/3/1
f 259/3/3 260/4/3 264/5/3
f 263/6/6 264/7/6 262/8/6
f 258/9/4 262/10/4 264/11/4
f 257/2/2 258/9/2 260/4/2
f 261/12/5 262/8/5 258/9/5
f 269/1/1 265/2/1 267/3/1
f 267/3/3 268/4/3 272/5/3
f 271/6/6 272/7/6 270/8/6
f 266/9/4 270/10/4 272/11/4
f 265/2/2 266/9/2 268/4/2
f 269/12/5 270/8/5 266/9/5
f 277/1/1 273/2/1 275/3/1
f 275/3/3 276/4/3 280/5/3
f 279/6/6 280/7/6 278/8/6
f 274/9/4 278/10/4 280/11/4
f 273/2/2 274/9/2 276/4/2
f 277/12/5 278/8/5 274/9/5
f 285/1/1 281/2/1 283/3/1
f 283/3/3 284/4/3 288/5/3
f 287/6/6 288/7/6 286/8/6
f 282/9/4 286/10/4 288/11/4
f 281/2/2 282/9/2 284/4/2
f 285/12/5 286/8/5 282/9/5
f 221/1/1 219/3/1 223/13/1
f 219/3/3 224/5/3 223/14/3
f 223/6/6 222/8/6 221/12/6
f 218/9/4 224/11/4 220/4/4
f 217/2/2 220/4/2 219/3/2
f 221/12/5 218/9/5 217/2/5
f 229/1/1 227/3/1 231/13/1
f 227/3/3 232/5/3 231/14/3
f 231/6/6 230/8/6 229/12/6
f 226/9/4 232/11/4 228/4/4
f 225/2/2 228/4/2 227/3/2
f 229/12/5 226/9/5 225/2/5
f 237/1/1 235/3/1 239/13/1
f 235/3/3 240/5/3 239/14/3
f 239/6/6 238/8/6 237/12/6
f 234/9/4 240/11/4 236/4/4
f 233/2/2 236/4/2 235/3/2
f 237/12/5 234/9/5 233/2/5
f 245/1/1 243/3/1 247/13/1
f 243/3/3 248/5/3 247/14/3
f 247/6/6 246/8/6 245/12/6
f 242/9/4 248/11/4 244/4/4
f 241/2/2 244/4/2 243/3/2
f 245/12/5 242/9/5 241/2/5
f 253/1/1 251/3/1 255/13/1
f 251/3/3 256/5/3 255/14/3
f 255/6/6 254/8/6 253/12/6
f 250/9/4 256/11/4 252/4/4
f 249/2/2 252/4/2 251/3/2
f 253/12/5 250/9/5 249/2/5
f 261/1/1 259/3/1 263/13/1
f 259/3/3 264/5/3 263/14/3
f 263/6/6 262/8/6 261/12/6
f 258/9/4 264/11/4 260/4/4
f 257/2/2 260/4/2 259/3/2
f 261/12/5 258/9/5 257/2/5
f 269/1/1 267/3/1 271/13/1
f 267/3/3 272/5/3 271/14/3
f 271/6/6 270/8/6 269/12/6
f 266/9/4 272/11/4 268/4/4
f 265/2/2 268/4/2 267/3/2
f 269/12/5 266/9/5 265/2/5
f 277/1/1 275/3/1 279/13/1
f 275/3/3 280/5/3 279/14/3
f 279/6/6 278/8/6 277/12/6
f 274/9/4 280/11/4 276/4/4
f 273/2/2 276/4/2 275/3/2
f 277/12/5 274/9/5 273/2/5
f 285/1/1 283/3/1 287/13/1
f 283/3/3 288/5/3 287/14/3
f 287/6/6 286/8/6 285/12/6
f 282/9/4 288/11/4 284/4/4
f 281/2/2 284/4/2 283/3/2
f 285/12/5 282/9/5 281/2/5
f 293/1/1 289/2/1 291/3/1
f 291/3/3 292/4/3 296/5/3
f 295/6/6 296/7/6 294/8/6
f 290/9/4 294/10/4 296/11/4
f 289/2/2 290/9/2 292/4/2
f 293/12/5 294/8/5 290/9/5
f 301/1/1 297/2/1 299/3/1
f 299/3/3 300/4/3 304/5/3
f 303/6/6 304/7/6 302/8/6
f 298/9/4 302/10/4 304/11/4
f 297/2/2 298/9/2 300/4/2
f 301/12/5 302/8/5 298/9/5
f 309/1/1 305/2/1 307/3/1
f 307/3/3 308/4/3 312/5/3
f 311/6/6 312/7/6 310/8/6
f 306/9/4 310/10/4 312/11/4
f 305/2/2 306/9/2 308/4/2
f 309/12/5 310/8/5 306/9/5
f 317/1/1 313/2/1 315/3/1
f 315/3/3 316/4/3 320/5/3
f 319/6/6 320/7/6 318/8/6
f 314/9/4 318/10/4 320/11/4
f 313/2/2 314/9/2 316/4/2
f 317/12/5 318/8/5 314/9/5
f 325/1/1 321/2/1 323/3/1
f 323/3/3 324/4/3 328/5/3
f 327/6/6 328/7/6 326/8/6
f 322/9/4 326/10/4 328/11/4
f 321/2/2 322/9/2 324/4/2
f 325/12/5 326/8/5 322/9/5
f 333/1/1 329/2/1 331/3/1
f 331/3/3 332/4/3 336/5/3
f 335/6/6 336/7/6 334/8/6
f 330/9/4 334/10/4 336/11/4
f 329/2/2 330/9/2 332/4/2
f 333/12/5 334/8/5 330/9/5
f 341/1/1 337/2/1 339/3/1
f 339/3/3 340/4/3 344/5/3
f 343/6/6 344/7/6 342/8/6
f 338/9/4 342/10/4 344/11/4
f 337/2/2 338/9/2 340/4/2
f 341/12/5 342/8/5 338/9/5
f 349/1/1 345/2/1 347/3/1
f 347/3/3 348/4/3 352/5/3
f 351/6/6 352/7/6 350/8/6
f 346/9/4 350/10/4 352/11/4
f 345/2/2 346/9/2 348/4/2
f 349/12/5 350/8/5 346/9/5
f 357/1/1 353/2/1 355/3/1
f 355/3/3 356/4/3 360/5/3
f 359/6/6 360/7/6 358/8/6
f 354/9/4 358/10/4 360/11/4
f 353/2/2 354/9/2 356/4/2
f 357/12/5 358/8/5 354/9/5
f 293/1/1 291/3/1 295/13/1
f 291/3/3 296/5/3 295/14/3
f 295/6/6 294/8/6 293/12/6
f 290/9/4 296/11/4 292/4/4
f 289/2/2 292/4/2 291/3/2
f 293/12/5 290/9/5 289/2/5
f 301/1/1 299/3/1 303/13/1
f 299/3/3 304/5/3 303/14/3
f 303/6/6 302/8/6 301/12/6
f 298/9/4 304/11/4 300/4/4
f 297/2/2 300/4/2 299/3/2
f 301/12/5 298/9/5 297/2/5
f 309/1/1 307/3/1 311/13/1
f 307/3/3 312/5/3 311/14/3
f 311/6/6 310/8/6 309/12/6
f 306/9/4 312/11/4 308/4/4
f 305/2/2 308/4/2 307/3/2
f 309/12/5 306/9/5 305/2/5
f 317/1/1 315/3/1 319/13/1
f 315/3/3 320/5/3 319/14/3
f 319/6/6 318/8/6 317/12/6
f 314/9/4 320/11/4 316/4/4
f 313/2/2 316/4/2 315/3/2
f 317/12/5 314/9/5 313/2/5
f 325/1/1 323/3/1 327/13/1
f 323/3/3 328/5/3 327/14/3
f 327/6/6 326/8/6 325/12/6
f 322/9/4 328/11/4 324/4/4
f 321/2/2 324/4/2 323/3/2
f 325/12/5 322/9/5 321/2/5
f 333/1/1 331/3/1 335/13/1
f 331/3/3 336/5/3 335/14/3
f 335/6/6 334/8/6 333/12/6
f 330/9/4 336/11/4 332/4/4
f 329/2/2 332/4/2 331/3/2
f 333/12/5 330/9/5 329/2/5
f 341/1/1 339/3/1 343/13/1
f 339/3/3 344/5/3 343/14/3
f 343/6/6 342/8/6 341/12/6
f 338/9/4 344/11/4 340/4/4
f 337/2/2 340/4/2 339/3/2
f 341/12/5 338/9/5 337/2/5
f 349/1/1 347/3/1 351/13/1
f 347/3/3 352/5/3 351/14/3
f 351/6/6 350/8/6 349/12/6
f 346/9/4 352/11/4 348/4/4
f 345/2/2 348/4/2 347/3/2
f 349/12/5 346/9/5 345/2/5
f 357/1/1 355/3/1 359/13/1
f 355/3/3 360/5/3 359/14/3
f 359/6/6 358/8/6 357/12/6
f 354/9/4 360/11/4 356/4/4
f 353/2/2 356/4/2 355/3/2
f 357/12/5 354/9/5 353/2/5
f 365/1/1 361/2/1 363/3/1
f 363/3/3 364/4/3 368/5/3
f 367/6/6 368/7/6 366/8/6
f 362/9/4 366/10/4 368/11/4
f 361/2/2 362/9/2 364/4/2
f 365/12/5 366/8/5 362/9/5
f 373/1/1 369/2/1 371/3/1
f 371/3/3 372/4/3 376/5/3
f 375/6/6 376/7/6 374/8/6
f 370/9/4 374/10/4 376/11/4
f 369/2/2 370/9/2 372/4/2
f 373/12/5 374/8/5 370/9/5
f 381/1/1 377/2/1 379/3/1
f 379/3/3 380/4/3 384/5/3
f 383/6/6 384/7/6 382/8/6
f 378/9/4 382/10/4 384/11/4
f 377/2/2 378/9/2 380/4/2
f 381/12/5 382/8/5 378/9/5
f 389/1/1 385/2/1 387/3/1
f 387/3/3 388/4/3 392/5/3
f 391/6/6 392/7/6 390/8/6
f 386/9/4 390/10/4 392/11/4
f 385/2/2 386/9/2 388/4/2
f 389/12/5 390/8/5 386/9/5
f 397/1/1 393/2/1 395/3/1
f 395/3/3 396/4/3 400/5/3
f 399/6/6 400/7/6 398/8/6
f 394/9/4 398/10/4 400/11/4
f 393/2/2 394/9/2 396/4/2
f 397/12/5 398/8/5 394/9/5
f 405/1/1 401/2/1 403/3/1
f 403/3/3 404/4/3 408/5/3
f 407/6/6 408/7/6 406/8/6
f 402/9/4 406/10/4 408/11/4
f 401/2/2 402/9/2 404/4/2
f 405/12/5 406/8/5 402/9/5
f 413/1/1 409/2/1 411/3/1
f 411/3/3 412/4/3 416/5/3
f 415/6/6 416/7/6 414/8/6
f 410/9/4 414/10/4 416/11/4
f 409/2/2 410/9/2 412/4/2
f 413/12/5 414/8/5 410/9/5
f 421/1/1 417/2/1 419/3/1
f 419/3/3 420/4/3 424/5/3
f 423/6/6 424/7/6 422/8/6
f 418/9/4 422/10/4 424/11/4
f 417/2/2 418/9/2 420/4/2
f 421/12/5 422/8/5 418/9/5
f 429/1/1 425/2/1 427/3/1
f 427/3/3 428/4/3 432/5/3
f 431/6/6 432/7/6 430/8/6
f 426/9/4 430/10/4 432/11/4
f 425/2/2 426/9/2 428/4/2
f 429/12/5 430/8/5 426/9/5
f 365/1/1 363/3/1 367/13/1
f 363/3/3 368/5/3 367/14/3
f 367/6/6 366/8/6 365/12/6
f 362/9/4 368/11/4 364/4/4
f 361/2/2 364/4/2 363/3/2
f 365/12/5 362/9/5 361/2/5
f 373/1/1 371/3/1 375/13/1
f 371/3/3 376/5/3 375/14/3
f 375/6/6 374/8/6 373/12/6
f 370/9/4 376/11/4 372/4/4
f 369/2/2 372/4/2 371/3/2
f 373/12/5 370/9/5 369/2/5
f 381/1/1 379/3/1 383/13/1
f 379/3/3 384/5/3 383/14/3
f 383/6/6 382/8/6 381/12/6
f 378/9/4 384/11/4 380/4/4
f 377/2/2 380/4/2 379/3/2
f 381/12/5 378/9/5 377/2/5
f 389/1/1 387/3/1 391/13/1
f 387/3/3 392/5/3 391/14/3
f 391/6/6 390/8/6 389/12/6
f 386/9/4 392/11/4 388/4/4
f 385/2/2 388/4/2 387/3/2
f 389/12/5 386/9/5 385/2/5
f 397/1/1 395/3/1 399/13/1
f 395/3/3 400/5/3 399/14/3
f 399/6/6 398/8/6 397/12/6
f 394/9/4 400/11/4 396/4/4
f 393/2/2 396/4/2 395/3/2
f 397/12/5 394/9/5 393/2/5
f 405/1/1 403/3/1 407/13/1
f 403/3/3 408/5/3 407/14/3
f 407/6/6 406/8/6 405/12/6
f 402/9/4 408/11/4 404/4/4
f 401/2/2 404/4/2 403/3/2
f 405/12/5 402/9/5 401/2/5
f 413/1/1 411/3/1 415/13/1
f 411/3/3 416/5/3 415/14/3
f 415/6/6 414/8/6 413/12/6
f 410/9/4 416/11/4 412/4/4
f 409/2/2 412/4/2 411/3/2
f 413/12/5 410/9/5 409/2/5
f 421/1/1 419/3/1 423/13/1
f 419/3/3 424/5/3 423/14/3
f 423/6/6 422/8/6 421/12/6
f 418/9/4 424/11/4 420/4/4
f 417/2/2 420/4/2 419/3/2
f 421/12/5 418/9/5 417/2/5
f 429/1/1 427/3/1 431/13/1
f 427/3/3 432/5/3 431/14/3
f 431/6/6 430/8/6 429/12/6
f 426/9/4 432/11/4 428/4/4
f 425/2/2 428/4/2 427/3/2
f 429/12/5 426/9/5 425/2/5
