# Blender 5.0.1
# www.blender.org
mtllib bolsamid.mtl
o health_pack
v 2.821050 4.505900 2.914510
v 3.884730 4.449560 2.877680
v 3.842240 4.541280 2.879220
v 2.877400 4.588080 2.911940
v 2.850630 4.706890 2.253710
v 2.798330 4.619830 2.208590
v 2.762690 4.526860 1.658540
v 2.805330 4.584140 1.584620
v 3.775930 4.478710 1.498910
v 3.831340 4.421020 1.565390
v 3.866830 4.532670 2.192700
v 3.820760 4.619940 2.245850
v -3.780290 4.736670 1.658540
v -2.722220 4.809720 2.236531
v -3.665580 4.689660 2.902800
v -2.700740 4.697450 2.874340
v -3.692350 4.800690 2.236790
v -3.744650 4.710000 2.199360
v -3.737640 4.793950 1.584620
v -2.767050 4.802450 1.498910
v -2.711480 4.744760 1.565390
v -2.658250 4.605930 2.880750
v -2.675990 4.718200 2.191070
v -3.721920 4.608000 2.912540
v 4.149480 4.509120 2.673530
v 0.000000 4.656360 2.664470
v 4.679450 4.070509 3.304850
v 4.629490 3.214470 3.710750
v 4.724120 4.316330 2.683870
v 4.734390 4.275860 2.236360
v 4.159600 4.434200 2.216110
v 0.000000 4.781290 2.191931
v -4.255320 4.711870 2.759670
v -4.669180 4.035851 3.344840
v -4.296410 4.705750 2.202690
v -4.829960 4.599700 2.619700
v -4.871050 4.569710 2.233110
v -4.629490 3.129490 3.658880
v -4.375940 2.058650 4.371370
v -3.596160 1.009400 4.760010
v -4.722100 0.081970 4.322840
v 0.000000 -0.000000 4.478020
v 3.596160 1.009400 4.760010
v 4.375940 2.058650 4.371370
v 4.722100 0.081970 4.322840
v 0.000000 4.766970 1.725360
v 4.107770 4.450180 1.657420
v 0.000000 4.780350 2.191500
v 4.148860 4.422270 2.203970
v 4.682410 4.308850 1.689130
v 4.679450 4.146150 1.059770
v 4.629490 2.989920 0.429310
v 4.447850 2.050140 0.086730
v 4.723500 4.279800 2.229100
v 3.596160 1.009400 -0.281990
v 4.722100 0.081970 0.155180
v 0.000000 0.000000 0.000000
v 0.000000 -0.240530 2.239010
v -4.722100 0.081970 0.155180
v -5.017350 -0.187400 2.239010
v 5.017350 -0.187400 2.239010
v -3.596160 1.009400 -0.281990
v -4.447850 2.050140 0.086730
v -4.255320 4.737500 1.657420
v -4.668710 4.113880 1.008930
v -4.829960 4.613400 1.787060
v -4.629490 2.920300 0.501770
v -4.871050 4.567120 2.229100
v -4.296410 4.709590 2.203970
v 5.036810 2.218970 2.239010
v -5.036810 2.218970 2.239010
v 4.419680 1.771540 2.239010
v -4.419680 1.771540 2.239010
vn 0.4334 -0.9009 -0.0252
vn 0.4457 -0.8797 -0.1656
vn 0.8222 -0.5537 -0.1316
vn 0.8610 -0.5083 -0.0172
vn 0.8303 -0.5555 0.0454
vn 0.2898 -0.9447 0.1537
vn -0.3995 -0.8971 0.1889
vn -0.7937 -0.5896 0.1498
vn -0.8570 -0.5081 0.0867
vn -0.5255 -0.8503 0.0281
vn -0.9057 -0.4234 -0.0225
vn -0.5782 -0.8119 -0.0812
vn -0.5104 -0.8579 -0.0590
vn -0.5724 -0.8107 -0.1234
vn 0.4915 -0.8573 -0.1534
vn 0.4975 -0.8617 -0.1001
vn 0.8761 -0.4729 -0.0938
vn 0.7803 -0.6234 -0.0496
vn 0.2932 -0.9560 -0.0105
vn -0.8928 -0.4505 -0.0009
vn -0.9045 -0.4242 -0.0444
vn -0.7591 -0.6490 0.0507
vn -0.2818 -0.9591 0.0267
vn 0.8122 -0.5733 -0.1079
vn -0.0264 -0.9727 -0.2307
vn -0.0830 -0.9837 0.1593
vn -0.0799 -0.9883 0.1299
vn -0.0260 -0.9665 -0.2555
vn 0.0930 -0.9956 -0.0065
vn 0.1161 -0.9931 0.0135
vn 0.2142 -0.9765 0.0257
vn 0.2326 -0.9713 0.0506
vn 0.1948 0.2147 -0.9571
vn 0.1482 0.7261 -0.6714
vn 0.3947 -0.0466 -0.9176
vn 0.0029 0.9694 -0.2454
vn -0.1948 0.2147 -0.9571
vn -0.1482 0.7261 -0.6714
vn -0.3947 -0.0466 -0.9176
vn -0.0350 -0.9991 0.0224
vn -0.0350 -0.9990 0.0287
vn -0.1566 -0.9870 -0.0359
vn -0.1674 -0.9851 -0.0383
vn -0.2381 -0.9707 -0.0329
vn -0.2391 -0.9704 -0.0340
vn -0.1838 0.2276 0.9562
vn -0.1318 0.7712 0.6228
vn -0.3763 -0.0202 0.9263
vn -0.0000 0.9687 0.2484
vn -0.0000 1.0000 -0.0000
vn 0.1318 0.7712 0.6228
vn 0.0106 0.9999 -0.0000
vn -0.0106 0.9999 -0.0000
vn 0.1838 0.2276 0.9562
vn 0.3763 -0.0202 0.9263
vn 0.2215 -0.9734 -0.0589
vn 0.1240 -0.9909 -0.0518
vn 0.2366 -0.9684 -0.0794
vn 0.0983 -0.9943 -0.0404
vn 0.1239 -0.9909 -0.0518
vn -0.9867 -0.1529 0.0547
vn -0.9984 -0.0550 -0.0150
vn -0.9865 -0.1497 0.0670
vn -0.9871 -0.1140 0.1128
vn -0.9984 -0.0549 -0.0149
vn -0.9739 0.0170 0.2265
vn -0.9633 -0.0342 0.2663
vn -0.9774 -0.0551 0.2041
vn -1.0000 0.0081 -0.0000
vn -0.9728 -0.0714 -0.2202
vn -0.9502 -0.0823 -0.3004
vn -0.9502 -0.0822 -0.3007
vn -0.9651 -0.0082 -0.2616
vn -0.9985 -0.0527 -0.0149
vn -0.9816 -0.0939 -0.1660
vn -0.9888 -0.1331 -0.0673
vn -0.9893 -0.1455 -0.0095
vn 0.9841 -0.0587 -0.1678
vn 0.9991 -0.0409 -0.0148
vn 0.9925 -0.0702 -0.1000
vn 0.9675 -0.0442 -0.2491
vn 0.9626 -0.0084 -0.2708
vn 0.9494 -0.0897 -0.3010
vn 0.9728 -0.0714 -0.2202
vn 1.0000 0.0081 -0.0000
vn 0.9774 -0.0551 0.2041
vn 0.9626 -0.0445 0.2673
vn 0.9627 -0.0444 0.2669
vn 0.9722 0.0139 0.2336
vn 0.9991 -0.0409 -0.0146
vn 0.9745 -0.0468 0.2196
vn 0.9863 -0.0559 0.1551
vn 0.9939 -0.0698 0.0851
vn 0.0362 -0.0083 -0.9993
vn 0.0031 -0.0043 -1.0000
vn 0.0053 -0.0105 -0.9999
vn 0.0181 -0.0114 -0.9998
vn -0.0002 -0.0146 -0.9999
vn -0.0052 -0.0102 -0.9999
vn -0.0197 -0.0111 -0.9997
vn -0.0365 -0.0094 -0.9993
vn -0.0029 -0.0040 -1.0000
vn 0.0445 0.0093 0.9990
vn 0.0017 0.0024 1.0000
vn 0.0054 0.0098 0.9999
vn 0.0236 0.0114 0.9997
vn -0.0004 0.0137 0.9999
vn -0.0050 0.0074 1.0000
vn -0.0168 0.0070 0.9998
vn -0.0293 0.0047 0.9996
vn -0.0008 0.0012 1.0000
vt 0.915000 0.106400
vt 0.915000 0.053200
vt 0.908200 0.051800
vt 0.908200 0.106000
vt 0.908200 0.225100
vt 0.915000 0.226100
vt 0.984400 0.226100
vt 0.991700 0.225100
vt 0.991200 0.106000
vt 0.984900 0.106400
vt 0.991200 0.051800
vt 0.984400 0.053200
vt 0.450900 0.313500
vt 0.655300 0.313500
vt 0.652300 0.285600
vt 0.450900 0.289600
vt 0.249400 0.285200
vt 0.246300 0.313500
vt 0.221800 0.287100
vt 0.217700 0.313500
vt 0.281300 0.056600
vt 0.222300 0.018100
vt 0.238000 0.114700
vt 0.451200 0.008300
vt 0.621100 0.056600
vt 0.680700 0.018100
vt 0.664600 0.114700
vt 0.450900 0.319300
vt 0.450900 0.343800
vt 0.652300 0.347700
vt 0.655300 0.319300
vt 0.679700 0.349600
vt 0.683600 0.319300
vt 0.621100 0.573500
vt 0.673800 0.619100
vt 0.664100 0.518600
vt 0.450700 0.617200
vt 0.450700 0.722700
vt 0.227500 0.618900
vt 0.212600 0.721900
vt 0.225600 0.821700
vt 0.450700 0.829000
vt 0.675800 0.821700
vt 0.688500 0.721900
vt 0.280300 0.573200
vt 0.237300 0.517800
vt 0.221700 0.345200
vt 0.246300 0.319300
vt 0.217700 0.319300
vt 0.249400 0.347200
vt 0.812000 0.252400
vt 0.786100 0.111800
vt 0.783200 0.244600
vt 0.874000 0.209500
vt 0.901400 0.155800
vt 0.896000 0.119600
vt 0.887700 0.020500
vt 0.787600 0.003400
vt 0.685500 0.018100
vt 0.669400 0.114700
vt 0.672900 0.147900
vt 0.694800 0.205100
vt 0.754400 0.251500
vt 0.142900 0.250500
vt 0.116300 0.110800
vt 0.118800 0.244100
vt 0.209800 0.204100
vt 0.228500 0.144000
vt 0.233000 0.114700
vt 0.217500 0.018100
vt 0.115800 0.002900
vt 0.015000 0.019000
vt 0.006600 0.118200
vt 0.003100 0.150400
vt 0.025700 0.207000
vt 0.094700 0.251000
vt 0.007400 0.759000
vt 0.137000 0.812700
vt 0.086100 0.696300
vt 0.006000 0.735100
vt 0.009300 0.533700
vt 0.086100 0.371600
vt 0.006000 0.332500
vt 0.007400 0.308600
vt 0.137000 0.254900
vt 0.843300 0.308600
vt 0.713900 0.254900
vt 0.764600 0.371600
vt 0.844700 0.332500
vt 0.841300 0.533700
vt 0.764600 0.696300
vt 0.844700 0.735100
vt 0.843300 0.759000
vt 0.713900 0.812700
s 1
usemtl Health_pack_mat.001
f 5/1/1 4/2/2 1/3/3
f 1/3/3 6/4/4 5/1/1
f 5/1/1 6/4/4 7/5/5
f 5/1/1 7/5/5 8/6/6
f 9/7/7 10/8/8 11/9/9
f 11/9/9 12/10/10 9/7/7
f 12/10/10 11/9/9 2/11/11
f 2/11/11 3/12/12 12/10/10
f 12/10/10 3/12/12 4/2/2
f 12/10/10 4/2/2 5/1/1
f 9/7/7 12/10/10 5/1/1
f 5/1/1 8/6/6 9/7/7
f 14/10/13 16/12/14 15/2/15
f 14/10/13 15/2/15 17/1/16
f 18/4/17 17/1/16 15/2/15
f 17/1/16 18/4/17 13/5/18
f 17/1/16 13/5/18 19/6/19
f 14/10/13 23/9/20 22/11/21
f 21/8/22 23/9/20 14/10/13
f 20/7/23 21/8/22 14/10/13
f 20/7/23 14/10/13 17/1/16
f 17/1/16 19/6/19 20/7/23
f 22/11/21 16/12/14 14/10/13
f 15/2/15 24/3/24 18/4/17
f 32/13/25 31/14/26 25/15/27
f 25/15/27 26/16/28 32/13/25
f 32/13/25 26/16/28 33/17/29
f 32/13/25 33/17/29 35/18/30
f 35/18/30 33/17/29 36/19/31
f 35/18/30 36/19/31 37/20/32
f 40/21/33 41/22/34 39/23/35
f 42/24/36 41/22/34 40/21/33
f 42/24/36 43/25/37 45/26/38
f 43/25/37 44/27/39 45/26/38
f 48/28/40 46/29/41 47/30/42
f 47/30/42 49/31/43 48/28/40
f 47/30/42 50/32/44 49/31/43
f 50/32/44 54/33/45 49/31/43
f 55/34/46 56/35/47 53/36/48
f 57/37/49 56/35/47 55/34/46
f 56/35/47 57/37/49 58/38/50
f 58/38/50 57/37/49 59/39/51
f 59/39/51 60/40/52 58/38/50
f 58/38/50 60/40/52 41/41/34
f 41/41/34 42/42/36 58/38/50
f 58/38/50 42/42/36 45/43/38
f 45/43/38 61/44/53 58/38/50
f 58/38/50 61/44/53 56/35/47
f 57/37/49 62/45/54 59/39/51
f 62/45/54 63/46/55 59/39/51
f 66/47/56 69/48/57 68/49/58
f 64/50/59 69/48/60 66/47/56
f 69/48/60 64/50/59 48/28/40
f 46/29/41 48/28/40 64/50/59
f 50/51/61 70/52/62 54/53/63
f 51/54/64 70/52/65 50/51/61
f 51/54/64 52/55/66 70/52/65
f 53/56/67 70/52/65 52/55/66
f 56/57/68 70/52/65 53/56/67
f 61/58/69 70/52/65 56/57/68
f 61/58/69 45/59/70 70/52/65
f 45/59/70 44/60/71 70/52/65
f 44/60/72 28/61/73 70/52/74
f 27/62/75 70/52/74 28/61/73
f 27/62/75 29/63/76 70/52/74
f 29/63/76 30/53/77 70/52/74
f 36/64/78 71/65/79 37/66/80
f 34/67/81 71/65/79 36/64/78
f 34/67/81 38/68/82 71/65/79
f 39/69/83 71/65/79 38/68/82
f 39/69/83 41/70/84 71/65/79
f 60/71/85 71/65/79 41/70/84
f 60/71/85 59/72/86 71/65/79
f 59/72/86 63/73/87 71/65/79
f 63/73/88 67/74/89 71/65/90
f 65/75/91 71/65/90 67/74/89
f 65/75/91 66/76/92 71/65/90
f 66/76/92 68/66/93 71/65/90
f 54/77/94 70/78/95 72/79/96
f 54/77/94 72/79/96 49/80/97
f 49/80/97 72/79/96 48/81/98
f 72/79/96 73/82/99 48/81/98
f 48/81/98 73/82/99 69/83/100
f 69/83/100 73/82/99 68/84/101
f 68/84/101 73/82/99 71/85/102
f 37/86/103 71/87/104 73/88/105
f 37/86/103 73/88/105 35/89/106
f 35/89/106 73/88/105 32/90/107
f 73/88/105 72/91/108 32/90/107
f 32/90/107 72/91/108 31/92/109
f 31/92/109 72/91/108 30/93/110
f 30/93/110 72/91/108 70/94/111
