# Blender 5.0.1
# www.blender.org
mtllib bolsader.mtl
o health_pack.002
v 3.511729 3.588471 -1.608965
v 2.979119 3.695241 -1.729025
v 3.188929 3.605901 -1.589225
v 3.708778 3.649281 -1.748085
v 3.736018 3.564611 -1.788925
v 3.519199 3.490101 -1.630755
v 3.167449 3.509611 -1.607595
v 2.937249 3.615351 -1.763545
v 2.796229 3.699601 -2.030925
v 3.859909 3.643261 -2.067755
v 3.817419 3.734981 -2.066215
v 2.852579 3.781781 -2.033495
v -3.690402 3.883361 -2.042635
v -2.725562 3.891151 -2.071095
v -2.683072 3.799631 -2.064685
v -3.746742 3.801701 -2.032895
v -3.605732 3.696281 -1.759275
v -3.563712 3.778981 -1.731765
v -3.354052 3.680301 -1.584695
v -3.375381 3.582761 -1.594615
v -3.023622 3.561391 -1.615975
v -3.031252 3.661211 -1.602905
v -2.806962 3.712051 -1.780125
v -2.834202 3.800041 -1.746715
v -1.524142 3.686321 -2.389055
v -1.787032 3.915741 -2.250115
v -1.786872 3.686321 -2.389055
v -1.524142 3.915741 -2.250115
v -1.524142 4.119112 -2.280705
v -1.787032 4.119112 -2.280705
v 1.642289 4.043372 -2.557655
v 1.847889 4.087162 -2.340775
v 1.579719 4.078231 -2.161585
v 1.373958 4.034031 -2.383335
v -1.629362 4.078231 -2.161585
v -1.691932 4.043372 -2.557655
v -1.423602 4.034031 -2.383335
v -1.897532 4.087162 -2.340775
v 1.523059 4.893192 -2.631145
v 0.966479 5.037832 -2.464426
v 1.071069 5.318922 -2.673265
v 1.258619 4.769922 -2.439646
v 1.725398 5.026422 -2.415375
v 1.151379 5.572631 -2.467077
v -1.120712 5.318922 -2.673265
v -1.016122 5.037832 -2.464426
v -1.572701 4.893192 -2.631145
v -1.308262 4.769922 -2.439646
v 1.046638 5.291322 -2.260705
v -1.201022 5.572631 -2.467077
v -1.775041 5.026422 -2.415375
v -1.096281 5.291322 -2.260705
v -1.510912 4.902842 -2.222934
v 1.461268 4.902842 -2.222934
v -0.024202 3.387791 -1.340055
v 3.305038 2.631572 -0.909975
v 3.618039 3.439671 -1.420805
v 4.124659 3.702821 -2.271905
v -0.024822 3.850061 -2.280965
v -3.618031 3.351062 -1.345345
v -3.347982 2.576991 -0.903735
v -0.024822 2.556962 -0.773845
v 3.349239 1.035382 -0.339495
v 4.654628 3.264211 -1.640585
v 4.604669 2.408171 -1.234685
v 4.699298 3.510031 -2.261565
v 4.709569 3.469561 -2.709075
v 4.134778 3.627901 -2.729325
v -4.280141 3.905571 -2.185765
v -4.694002 3.229551 -1.600595
v -4.854782 3.793401 -2.325735
v -4.895872 3.763411 -2.712325
v -4.654312 2.323191 -1.286555
v -4.400762 1.252351 -0.574065
v -3.398882 1.035382 -0.339495
v -0.024822 0.636932 -0.223105
v -0.024822 -0.165978 0.059055
v -3.620982 0.203102 -0.185425
v -0.024822 -0.806298 -0.467415
v 3.571339 0.203102 -0.185425
v 4.351119 1.252351 -0.574065
v 4.124039 3.615971 -2.741465
v 4.698678 3.473501 -2.716335
v 1.737389 3.915741 -2.250115
v 1.474499 3.686321 -2.389055
v 1.737229 3.686321 -2.389055
v 1.474499 3.915741 -2.250115
v 1.474499 4.119112 -2.280705
v 1.737389 4.119112 -2.280705
v -1.787032 3.892181 -2.510745
v -1.787032 4.092241 -2.458785
v 1.737389 4.092241 -2.458785
v 1.737389 3.892181 -2.510745
v 1.474499 4.092241 -2.458785
v 1.474499 3.892181 -2.510745
v -1.524142 4.092241 -2.458785
v -1.524142 3.892181 -2.510745
vn -0.2711 -0.3509 -0.8963
vn 0.1436 -0.3898 -0.9097
vn 0.4353 -0.6108 -0.6614
vn -0.5606 -0.5198 -0.6447
vn -0.8040 0.0218 -0.5942
vn -0.3533 0.1753 -0.9190
vn 0.2816 0.1188 -0.9521
vn 0.7447 -0.1087 -0.6585
vn 0.7530 -0.4677 -0.4629
vn -0.8543 -0.3348 -0.3976
vn -0.5579 -0.7355 -0.3845
vn 0.4341 -0.8028 -0.4086
vn 0.7255 -0.4949 -0.4783
vn 0.4419 -0.6020 -0.6650
vn 0.7260 -0.1482 -0.6716
vn 0.1447 -0.4180 -0.8968
vn 0.2724 0.0382 -0.9614
vn -0.3296 0.0963 -0.9392
vn -0.2560 -0.2766 -0.9263
vn -0.7909 -0.0174 -0.6117
vn -0.4986 -0.5799 -0.6444
vn -0.8411 -0.3648 -0.3993
vn -0.5012 -0.7711 -0.3927
vn 0.4142 -0.7985 -0.4369
vn -0.0000 0.5180 -0.8554
vn -0.0000 0.1964 -0.9805
vn -0.0000 0.1962 -0.9806
vn -0.0000 0.1963 -0.9805
vn -0.0000 -0.1487 -0.9889
vn -0.1017 0.9895 -0.1031
vn -0.1019 0.9894 -0.1032
vn -0.1014 0.9895 -0.1031
vn 0.1017 0.9895 -0.1031
vn 0.1014 0.9895 -0.1031
vn 0.1019 0.9894 -0.1032
vn -0.2176 -0.0177 0.9759
vn -0.1005 -0.1357 0.9856
vn 0.3752 0.9266 0.0257
vn 0.8784 0.4717 0.0765
vn 0.9802 0.1623 0.1137
vn -0.1348 0.0668 0.9886
vn -0.9847 -0.1399 -0.1041
vn -0.8838 -0.4619 -0.0749
vn -0.3639 -0.9314 -0.0123
vn 0.1005 -0.1357 0.9856
vn -0.3752 0.9266 0.0256
vn 0.2176 -0.0177 0.9759
vn -0.8784 0.4717 0.0765
vn 0.1348 0.0668 0.9886
vn -0.9802 0.1623 0.1137
vn -0.0173 -0.1171 -0.9930
vn 0.3639 -0.9314 -0.0122
vn 0.8838 -0.4619 -0.0749
vn 0.9847 -0.1398 -0.1041
vn 0.0173 -0.1171 -0.9930
vn -0.1005 -0.0556 -0.9934
vn 0.0193 -0.0885 -0.9959
vn -0.0193 -0.0885 -0.9959
vn 0.1005 -0.0556 -0.9934
vn 0.0047 -0.7509 -0.6604
vn -0.1404 -0.7437 -0.6537
vn -0.1261 -0.4349 -0.8916
vn -0.2229 -0.9518 -0.2107
vn 0.0007 -0.8979 -0.4402
vn 0.1250 -0.6362 -0.7613
vn 0.1414 -0.4224 -0.8953
vn 0.0022 -0.4313 -0.9022
vn -0.0912 -0.2707 -0.9583
vn -0.2724 -0.6966 -0.6637
vn -0.2784 -0.4207 -0.8634
vn -0.3119 -0.9378 -0.1525
vn -0.2975 -0.9486 0.1081
vn -0.2675 -0.9518 0.1500
vn 0.1788 -0.7665 -0.6168
vn 0.2626 -0.5466 -0.7952
vn 0.2935 -0.7220 -0.6265
vn 0.3080 -0.4012 -0.8626
vn 0.2145 -0.3578 -0.9088
vn 0.0914 -0.2737 -0.9575
vn -0.0000 -0.3059 -0.9521
vn -0.0000 0.2111 -0.9775
vn 0.1011 -0.1362 -0.9855
vn -0.0022 0.6325 -0.7746
vn -0.1011 -0.1362 -0.9855
vn -0.1985 -0.3384 -0.9198
vn -0.0001 0.1965 -0.9805
vn 1.0000 0.0004 -0.0000
vn 1.0000 0.0003 -0.0000
vn 1.0000 0.0007 -0.0001
vn 1.0000 -0.0000 -0.0000
vn -1.0000 -0.0000 -0.0000
vn -1.0000 0.0003 -0.0000
vn -1.0000 0.0004 -0.0000
vn -1.0000 0.0007 -0.0001
vt 0.960900 0.019000
vt 0.938000 0.019000
vt 0.923300 0.032700
vt 0.975600 0.032700
vt 0.981000 0.028300
vt 0.962900 0.012700
vt 0.936000 0.012700
vt 0.918500 0.028300
vt 0.908200 0.051800
vt 0.991200 0.051800
vt 0.984400 0.053200
vt 0.915000 0.053200
vt 0.036600 0.898100
vt 0.036600 0.874900
vt 0.057100 0.874900
vt 0.057100 0.898100
vt 0.072300 0.898100
vt 0.072300 0.874900
vt 0.926800 0.855000
vt 0.920400 0.833900
vt 0.936500 0.841200
vt 0.911100 0.848000
vt 0.816400 0.833500
vt 0.825700 0.847700
vt 0.809600 0.854600
vt 0.800300 0.840800
vt 0.953600 0.859700
vt 0.926800 0.878200
vt 0.921400 0.859600
vt 0.939900 0.847400
vt 0.962900 0.796300
vt 0.978500 0.803200
vt 0.993200 0.809700
vt 0.966800 0.871000
vt 0.931200 0.895400
vt 0.811000 0.878200
vt 0.816400 0.859600
vt 0.784200 0.859700
vt 0.797900 0.847400
vt 0.759300 0.803200
vt 0.774900 0.796300
vt 0.925800 0.913900
vt 0.965300 0.919300
vt 0.806600 0.895400
vt 0.771000 0.871000
vt 0.744600 0.809700
vt 0.812000 0.913900
vt 0.772500 0.919300
vt 0.799300 0.942800
vt 0.776400 0.993600
vt 0.761700 0.986900
vt 0.786100 0.931500
vt 0.746100 0.980200
vt 0.816400 0.931000
vt 0.920900 0.931000
vt 0.951700 0.931500
vt 0.938500 0.942800
vt 0.991700 0.980200
vt 0.976100 0.986900
vt 0.961400 0.993600
vt 0.450900 0.221700
vt 0.624500 0.207000
vt 0.610800 0.168000
vt 0.652300 0.285600
vt 0.450900 0.289600
vt 0.279300 0.199200
vt 0.291000 0.165000
vt 0.451200 0.158700
vt 0.612800 0.091800
vt 0.672400 0.208500
vt 0.667500 0.147900
vt 0.679700 0.283200
vt 0.683600 0.313500
vt 0.655300 0.313500
vt 0.249400 0.285200
vt 0.229600 0.206100
vt 0.221800 0.287100
vt 0.233400 0.144000
vt 0.238000 0.114700
vt 0.289600 0.092300
vt 0.451200 0.073200
vt 0.451200 0.041500
vt 0.281300 0.056600
vt 0.451200 0.008300
vt 0.621100 0.056600
vt 0.664600 0.114700
vt 0.057100 0.966000
vt 0.036600 0.966000
vt 0.036600 0.942700
vt 0.057100 0.942700
vt 0.072300 0.942700
vt 0.072300 0.966000
vt 0.060600 0.855200
vt 0.041300 0.861900
vt 0.071300 0.859000
vt 0.071300 0.981800
vt 0.060600 0.985700
vt 0.041300 0.979000
vt 0.071300 0.926900
vt 0.060600 0.923000
vt 0.041300 0.929700
vt 0.071300 0.913900
vt 0.060600 0.917800
vt 0.041300 0.911100
s 1
usemtl Health_pack_mat.003
f 1/1/1 3/2/2 2/3/3
f 2/3/3 4/4/4 1/1/1
f 1/1/1 4/4/4 5/5/5
f 6/6/6 1/1/1 5/5/5
f 3/2/2 1/1/1 6/6/6
f 6/6/6 7/7/7 3/2/2
f 8/8/8 3/2/2 7/7/7
f 3/2/2 8/8/8 2/3/3
f 9/9/9 2/3/3 8/8/8
f 5/5/5 4/4/4 10/10/10
f 11/11/11 10/10/10 4/4/4
f 11/11/11 4/4/4 2/3/3
f 11/11/11 2/3/3 12/12/12
f 2/3/3 9/9/9 12/12/12
f 16/9/13 18/3/14 17/8/15
f 19/2/16 17/8/15 18/3/14
f 17/8/15 19/2/16 20/7/17
f 21/6/18 20/7/17 19/2/16
f 19/2/16 22/1/19 21/6/18
f 21/6/18 22/1/19 23/5/20
f 22/1/19 24/4/21 23/5/20
f 23/5/20 24/4/21 15/10/22
f 14/11/23 15/10/22 24/4/21
f 22/1/19 19/2/16 18/3/14
f 18/3/14 24/4/21 22/1/19
f 14/11/23 24/4/21 18/3/14
f 14/11/23 18/3/14 13/12/24
f 18/3/14 16/9/13 13/12/24
f 25/13/25 27/14/25 26/15/26
f 26/15/27 28/16/28 25/13/25
f 29/17/29 28/16/28 26/15/27
f 26/15/27 30/18/29 29/17/29
f 31/19/30 33/20/30 32/21/31
f 31/19/30 34/22/32 33/20/30
f 35/23/33 37/24/34 36/25/33
f 36/25/33 38/26/35 35/23/33
f 39/27/36 41/28/37 40/29/38
f 40/29/38 42/30/39 39/27/36
f 42/30/39 34/31/40 31/32/41
f 39/27/36 42/30/39 31/32/41
f 39/27/36 31/32/41 32/33/42
f 43/34/43 39/27/36 32/33/42
f 41/28/37 39/27/36 43/34/43
f 43/34/43 44/35/44 41/28/37
f 45/36/45 41/28/37 44/35/44
f 40/29/38 41/28/37 45/36/45
f 45/36/45 46/37/46 40/29/38
f 46/37/46 45/36/45 47/38/47
f 47/38/47 48/39/48 46/37/46
f 36/40/49 48/39/48 47/38/47
f 48/39/48 36/40/49 37/41/50
f 49/42/51 44/35/44 43/43/43
f 50/44/52 44/35/44 49/42/51
f 44/35/44 50/44/52 45/36/45
f 45/36/45 50/44/52 51/45/53
f 51/45/53 47/38/47 45/36/45
f 38/46/54 47/38/47 51/45/53
f 47/38/47 38/46/54 36/40/49
f 49/42/51 52/47/55 50/44/52
f 52/47/55 51/48/53 50/44/52
f 48/49/48 37/50/50 35/51/56
f 53/52/57 48/49/48 35/51/56
f 53/52/57 35/51/56 38/53/54
f 51/48/53 53/52/57 38/53/54
f 53/52/57 51/48/53 52/47/55
f 53/52/57 52/47/55 46/54/46
f 49/42/51 46/54/46 52/47/55
f 49/42/51 40/55/38 46/54/46
f 40/55/38 49/42/51 54/56/58
f 43/43/43 54/56/58 49/42/51
f 46/54/46 48/49/48 53/52/57
f 54/56/58 42/57/39 40/55/38
f 32/58/42 54/56/58 43/43/43
f 54/56/58 32/58/42 33/59/59
f 33/59/59 42/57/39 54/56/58
f 42/57/39 33/59/59 34/60/40
f 55/61/60 57/62/61 56/63/62
f 58/64/63 57/62/61 59/65/64
f 55/61/60 59/65/64 57/62/61
f 59/65/64 55/61/60 60/66/65
f 55/61/60 61/67/66 60/66/65
f 55/61/60 62/68/67 61/67/66
f 56/63/62 62/68/67 55/61/60
f 62/68/67 56/63/62 63/69/68
f 64/70/69 65/71/70 57/62/61
f 58/64/63 64/70/69 57/62/61
f 66/72/71 64/70/69 58/64/63
f 67/73/72 66/72/71 58/64/63
f 58/64/63 68/74/73 67/73/72
f 60/66/65 69/75/74 59/65/64
f 69/75/74 60/66/65 70/76/75
f 71/77/76 69/75/74 70/76/75
f 60/66/65 73/78/77 70/76/75
f 73/78/77 60/66/65 61/67/66
f 74/79/78 73/78/77 61/67/66
f 61/67/66 75/80/79 74/79/78
f 75/80/79 61/67/66 62/68/67
f 62/68/67 76/81/80 75/80/79
f 63/69/68 76/81/80 62/68/67
f 77/82/81 76/81/80 63/69/68
f 75/80/79 76/81/80 77/82/81
f 77/82/81 78/83/82 75/80/79
f 78/83/82 74/79/78 75/80/79
f 78/83/82 77/82/81 79/84/83
f 80/85/84 79/84/83 77/82/81
f 63/69/68 80/85/84 77/82/81
f 81/86/85 80/85/84 63/69/68
f 56/63/62 81/86/85 63/69/68
f 65/71/70 81/86/85 56/63/62
f 57/62/61 65/71/70 56/63/62
f 84/87/86 86/88/25 85/89/25
f 87/90/28 84/87/86 85/89/25
f 84/87/86 87/90/28 88/91/29
f 88/91/29 89/92/29 84/87/27
f 90/93/87 26/15/88 27/94/89
f 26/15/88 90/93/87 91/95/90
f 91/95/90 30/18/90 26/15/88
f 89/92/91 92/96/91 84/87/92
f 92/96/91 93/97/93 84/87/92
f 86/98/94 84/87/92 93/97/93
f 88/91/90 87/90/90 94/99/90
f 94/99/90 87/90/90 95/100/90
f 95/100/90 87/90/90 85/101/90
f 29/17/91 96/102/91 28/16/91
f 96/102/91 97/103/91 28/16/91
f 97/103/91 25/104/91 28/16/91
l 71 72
l 82 83
