# Blender 5.0.1
# www.blender.org
mtllib crystalCrash.mtl
g Plane002_Mesh
v -1.305510 1.822807 0.001029
v -0.360782 -3.685401 0.358466
v 0.360782 -3.685401 0.358466
v -0.360782 -3.685401 -0.363097
v 0.360782 -3.685401 -0.363098
v 0.000819 1.822807 1.307357
v 0.000819 1.822807 -1.307298
v 1.307147 1.822807 0.001029
v 0.653983 3.077075 0.654193
v -0.652345 3.077074 -0.653135
v -0.652346 3.077075 0.654193
v 0.000694 4.136991 0.000404
v 0.653983 3.077075 -0.653135
v -0.000000 -4.193788 -0.002316
vn -0.0000 0.4930 0.8700
vn -0.0000 0.4619 0.8869
vn 0.7064 -0.0453 0.7064
vn 0.7071 -0.0000 0.7071
vn -0.7069 -0.0447 -0.7059
vn -0.7076 -0.0000 -0.7066
vn -0.7064 -0.0452 0.7064
vn -0.7064 -0.0451 0.7064
vn -0.7071 -0.0000 0.7071
vn 0.7069 -0.0448 -0.7059
vn 0.7069 -0.0449 -0.7059
vn 0.7076 -0.0000 -0.7066
vn -0.0000 -0.3452 -0.9385
vn -0.0000 -0.1690 -0.9856
vn -0.0000 -0.3457 0.9383
vn -0.0000 -0.3457 0.9384
vn -0.0000 -0.1698 0.9855
vn -0.9385 -0.3453 -0.0000
vn -0.9385 -0.3452 -0.0000
vn -0.9856 -0.1690 -0.0000
vn 0.9385 -0.3454 -0.0000
vn 0.9384 -0.3455 -0.0000
vn 0.9856 -0.1693 -0.0000
vn 0.8701 0.4929 -0.0000
vn 0.8513 0.5247 -0.0000
vn -0.8701 0.4928 -0.0000
vn -0.8514 0.5246 -0.0000
vn -0.0000 0.4932 -0.8699
vn -0.0000 0.5248 -0.8512
vn -0.8155 -0.5787 -0.0000
vn -0.0000 -0.5787 -0.8155
vn 0.8155 -0.5787 -0.0000
vn -0.0000 -0.5787 0.8155
vn -0.0000 0.5250 0.8511
vn 0.7051 -0.0754 0.7051
vn -0.7057 -0.0745 -0.7046
vn -0.7051 -0.0752 0.7051
vn 0.7057 -0.0747 -0.7046
vn 0.8869 0.4619 -0.0000
vn -0.8869 0.4619 -0.0000
vn -0.0000 0.4624 -0.8867
vt 0.839588 0.562953
vt 0.786479 0.509843
vt 0.786479 0.562953
vt 0.892698 0.562953
vt 0.892698 0.456734
vt 0.786479 0.456734
vt 0.839588 0.456734
vt 0.892698 0.509843
vt 0.839588 0.509833
vt 0.839588 0.509843
s 1
g off
g Plane002_Material.002
usemtl Material.002
f 9/1/1 11/2/1 6/3/2
s 2
f 6/3/3 8/4/3 9/1/4
s 1
f 7/5/5 1/6/5 10/7/6
s 4
f 1/6/7 6/3/8 11/2/9
f 8/4/10 7/5/11 13/8/12
s 2
f 5/4/13 4/3/13 7/1/14
s 8
f 2/6/15 3/5/16 6/7/17
s 16
f 4/3/18 2/6/19 1/2/20
s 1
f 3/5/21 5/4/22 8/8/23
s 8
f 9/1/24 13/8/24 12/9/25
s 2
f 10/7/26 11/2/26 12/9/27
s 16
f 13/8/28 10/7/28 12/9/29
f 2/6/19 4/3/18 14/10/30
s 2
f 4/3/13 5/4/13 14/10/31
s 1
f 5/4/22 3/5/21 14/10/32
s 8
f 3/5/16 2/6/15 14/10/33
s 1
f 9/1/1 12/9/34 11/2/1
s 2
f 6/3/3 3/1/35 8/4/3
s 1
f 7/5/5 4/7/36 1/6/5
s 4
f 1/6/7 2/2/37 6/3/8
f 8/4/10 5/8/38 7/5/11
s 8
f 9/1/24 8/4/39 13/8/24
s 2
f 10/7/26 1/6/40 11/2/26
s 16
f 13/8/28 7/5/41 10/7/28
