# Blender 5.1.0
# www.blender.org
mtllib esfera.mtl
g Sphere_Mesh
v 0.000000 1.000000 0.000000
v 0.000000 0.831470 0.555570
v 0.000000 0.555570 0.831470
v 0.000000 0.195090 0.980785
v 0.000000 0.000000 1.000000
v 0.000000 -0.195090 0.980785
v 0.000000 -0.555570 0.831470
v 0.000000 -1.000000 0.000000
v -0.038060 0.980785 0.191342
v -0.074658 0.923880 0.375330
v -0.108386 0.831470 0.544895
v -0.137950 0.707107 0.693520
v -0.162212 0.555570 0.815493
v -0.180240 0.382683 0.906127
v -0.191342 0.195090 0.961940
v -0.195090 0.000000 0.980785
v -0.191342 -0.195090 0.961940
v -0.180240 -0.382683 0.906127
v -0.162212 -0.555570 0.815493
v -0.137950 -0.707107 0.693520
v -0.108386 -0.831470 0.544895
v -0.074658 -0.923880 0.375330
v -0.038060 -0.980785 0.191342
v -0.074658 0.980785 0.180240
v -0.146447 0.923880 0.353553
v -0.212608 0.831470 0.513280
v -0.270598 0.707107 0.653281
v -0.318190 0.555570 0.768178
v -0.353553 0.382683 0.853553
v -0.375330 0.195090 0.906127
v -0.382683 0.000000 0.923879
v -0.375330 -0.195090 0.906127
v -0.353553 -0.382683 0.853553
v -0.318190 -0.555570 0.768178
v -0.270598 -0.707107 0.653281
v -0.212608 -0.831470 0.513280
v -0.146447 -0.923880 0.353553
v -0.074658 -0.980785 0.180240
v -0.108386 0.980785 0.162212
v -0.212608 0.923880 0.318190
v -0.308658 0.831470 0.461940
v -0.392847 0.707107 0.587938
v -0.461940 0.555570 0.691342
v -0.513280 0.382683 0.768178
v -0.544895 0.195090 0.815493
v -0.555570 0.000000 0.831469
v -0.544895 -0.195090 0.815493
v -0.513280 -0.382683 0.768178
v -0.461940 -0.555570 0.691342
v -0.392847 -0.707107 0.587938
v -0.308658 -0.831470 0.461940
v -0.212608 -0.923880 0.318190
v -0.108386 -0.980785 0.162212
v -0.137950 0.980785 0.137950
v -0.270598 0.923880 0.270598
v -0.392847 0.831470 0.392847
v -0.500000 0.707107 0.500000
v -0.587938 0.555570 0.587938
v -0.653281 0.382683 0.653281
v -0.693520 0.195090 0.693520
v -0.707107 0.000000 0.707107
v -0.693520 -0.195090 0.693520
v -0.653281 -0.382683 0.653281
v -0.587938 -0.555570 0.587938
v -0.500000 -0.707107 0.500000
v -0.392847 -0.831470 0.392847
v -0.270598 -0.923880 0.270598
v -0.137950 -0.980785 0.137950
v -0.162212 0.980785 0.108386
v -0.318190 0.923880 0.212608
v -0.461940 0.831470 0.308658
v -0.587938 0.707107 0.392847
v -0.691342 0.555570 0.461940
v -0.768178 0.382683 0.513280
v -0.815493 0.195090 0.544895
v -0.831470 0.000000 0.555570
v -0.815493 -0.195090 0.544895
v -0.768178 -0.382683 0.513280
v -0.691342 -0.555570 0.461940
v -0.587938 -0.707107 0.392847
v -0.461940 -0.831470 0.308658
v -0.318190 -0.923880 0.212608
v -0.162212 -0.980785 0.108386
v -0.180240 0.980785 0.074658
v -0.353553 0.923880 0.146447
v -0.513280 0.831470 0.212607
v -0.653281 0.707107 0.270598
v -0.768178 0.555570 0.318190
v -0.853553 0.382683 0.353553
v -0.906127 0.195090 0.375330
v -0.923879 0.000000 0.382683
v -0.906127 -0.195090 0.375330
v -0.853553 -0.382683 0.353553
v -0.768178 -0.555570 0.318190
v -0.653281 -0.707107 0.270598
v -0.513280 -0.831470 0.212607
v -0.353553 -0.923880 0.146447
v -0.180240 -0.980785 0.074658
v -0.191342 0.980785 0.038060
v -0.375330 0.923880 0.074658
v -0.544895 0.831470 0.108386
v -0.693520 0.707107 0.137950
v -0.815493 0.555570 0.162212
v -0.906127 0.382683 0.180240
v -0.961940 0.195090 0.191342
v -0.980785 0.000000 0.195090
v -0.961940 -0.195090 0.191342
v -0.906127 -0.382683 0.180240
v -0.815493 -0.555570 0.162212
v -0.693520 -0.707107 0.137950
v -0.544895 -0.831470 0.108386
v -0.375330 -0.923880 0.074658
v -0.191342 -0.980785 0.038060
v -0.195090 0.980785 -0.000000
v -0.382683 0.923880 -0.000000
v -0.555570 0.831470 -0.000000
v -0.707107 0.707107 0.000000
v -0.831469 0.555570 -0.000000
v -0.923879 0.382683 0.000000
v -0.980785 0.195090 -0.000000
v -1.000000 0.000000 -0.000000
v -0.980785 -0.195090 -0.000000
v -0.923879 -0.382683 0.000000
v -0.831469 -0.555570 -0.000000
v -0.707107 -0.707107 0.000000
v -0.555570 -0.831470 -0.000000
v -0.382683 -0.923880 -0.000000
v -0.195090 -0.980785 -0.000000
v -0.191342 0.980785 -0.038060
v -0.375330 0.923880 -0.074658
v -0.544895 0.831470 -0.108386
v -0.693520 0.707107 -0.137950
v -0.815493 0.555570 -0.162212
v -0.906127 0.382683 -0.180240
v -0.961940 0.195090 -0.191342
v -0.980785 0.000000 -0.195090
v -0.961940 -0.195090 -0.191342
v -0.906127 -0.382683 -0.180240
v -0.815493 -0.555570 -0.162212
v -0.693520 -0.707107 -0.137950
v -0.544895 -0.831470 -0.108386
v -0.375330 -0.923880 -0.074658
v -0.191342 -0.980785 -0.038060
v -0.180240 0.980785 -0.074658
v -0.353553 0.923880 -0.146447
v -0.513280 0.831470 -0.212608
v -0.653281 0.707107 -0.270598
v -0.768178 0.555570 -0.318190
v -0.853553 0.382683 -0.353553
v -0.906127 0.195090 -0.375330
v -0.923879 0.000000 -0.382683
v -0.906127 -0.195090 -0.375330
v -0.853553 -0.382683 -0.353553
v -0.768178 -0.555570 -0.318190
v -0.653281 -0.707107 -0.270598
v -0.513280 -0.831470 -0.212608
v -0.353553 -0.923880 -0.146447
v -0.180240 -0.980785 -0.074658
v -0.162212 0.980785 -0.108386
v -0.318190 0.923880 -0.212608
v -0.461940 0.831470 -0.308658
v -0.587938 0.707107 -0.392847
v -0.691341 0.555570 -0.461940
v -0.768178 0.382683 -0.513280
v -0.815493 0.195090 -0.544895
v -0.831469 0.000000 -0.555570
v -0.815493 -0.195090 -0.544895
v -0.768178 -0.382683 -0.513280
v -0.691341 -0.555570 -0.461940
v -0.587938 -0.707107 -0.392847
v -0.461940 -0.831470 -0.308658
v -0.318190 -0.923880 -0.212608
v -0.162212 -0.980785 -0.108386
v -0.137950 0.980785 -0.137950
v -0.270598 0.923880 -0.270598
v -0.392847 0.831470 -0.392847
v -0.500000 0.707107 -0.500000
v -0.587938 0.555570 -0.587938
v -0.653281 0.382683 -0.653281
v -0.693520 0.195090 -0.693520
v -0.707106 0.000000 -0.707107
v -0.693520 -0.195090 -0.693520
v -0.653281 -0.382683 -0.653281
v -0.587938 -0.555570 -0.587938
v -0.500000 -0.707107 -0.500000
v -0.392847 -0.831470 -0.392847
v -0.270598 -0.923880 -0.270598
v -0.137950 -0.980785 -0.137950
v -0.108386 0.980785 -0.162212
v -0.212607 0.923880 -0.318190
v -0.308658 0.831470 -0.461940
v -0.392847 0.707107 -0.587938
v -0.461940 0.555570 -0.691342
v -0.513280 0.382683 -0.768178
v -0.544895 0.195090 -0.815493
v -0.555570 0.000000 -0.831469
v -0.544895 -0.195090 -0.815493
v -0.513280 -0.382683 -0.768178
v -0.461940 -0.555570 -0.691342
v -0.392847 -0.707107 -0.587938
v -0.308658 -0.831470 -0.461940
v -0.212607 -0.923880 -0.318190
v -0.108386 -0.980785 -0.162212
v -0.074658 0.980785 -0.180240
v -0.146447 0.923880 -0.353553
v -0.212607 0.831470 -0.513280
v -0.270598 0.707107 -0.653281
v -0.318189 0.555570 -0.768178
v -0.353553 0.382683 -0.853553
v -0.375330 0.195090 -0.906127
v -0.382683 0.000000 -0.923879
v -0.375330 -0.195090 -0.906127
v -0.353553 -0.382683 -0.853553
v -0.318189 -0.555570 -0.768178
v -0.270598 -0.707107 -0.653281
v -0.212607 -0.831470 -0.513280
v -0.146447 -0.923880 -0.353553
v -0.074658 -0.980785 -0.180240
v -0.038060 0.980785 -0.191342
v -0.074658 0.923880 -0.375330
v -0.108386 0.831470 -0.544895
v -0.137950 0.707107 -0.693520
v -0.162212 0.555570 -0.815493
v -0.180240 0.382683 -0.906127
v -0.191342 0.195090 -0.961939
v -0.195090 0.000000 -0.980785
v -0.191342 -0.195090 -0.961939
v -0.180240 -0.382683 -0.906127
v -0.162212 -0.555570 -0.815493
v -0.137950 -0.707107 -0.693520
v -0.108386 -0.831470 -0.544895
v -0.074658 -0.923880 -0.375330
v -0.038060 -0.980785 -0.191342
v 0.000000 0.980785 -0.195090
v 0.000000 0.923880 -0.382683
v 0.000000 0.831470 -0.555570
v 0.000000 0.707107 -0.707107
v 0.000000 0.555570 -0.831469
v -0.000000 0.382683 -0.923879
v 0.000000 0.195090 -0.980785
v 0.000000 0.000000 -0.999999
v 0.000000 -0.195090 -0.980785
v -0.000000 -0.382683 -0.923879
v 0.000000 -0.555570 -0.831469
v 0.000000 -0.707107 -0.707107
v 0.000000 -0.831470 -0.555570
v 0.000000 -0.923880 -0.382683
v 0.000000 -0.980785 -0.195090
v 0.038060 0.980785 -0.191342
v 0.074658 0.923880 -0.375330
v 0.108386 0.831470 -0.544895
v 0.137950 0.707107 -0.693520
v 0.162212 0.555570 -0.815493
v 0.180240 0.382683 -0.906127
v 0.191342 0.195090 -0.961939
v 0.195091 0.000000 -0.980785
v 0.191342 -0.195090 -0.961939
v 0.180240 -0.382683 -0.906127
v 0.162212 -0.555570 -0.815493
v 0.137950 -0.707107 -0.693520
v 0.108386 -0.831470 -0.544895
v 0.074658 -0.923880 -0.375330
v 0.038060 -0.980785 -0.191342
v 0.074658 0.980785 -0.180240
v 0.146447 0.923880 -0.353553
v 0.212608 0.831470 -0.513280
v 0.270598 0.707107 -0.653281
v 0.318190 0.555570 -0.768177
v 0.353553 0.382683 -0.853553
v 0.375330 0.195090 -0.906127
v 0.382683 0.000000 -0.923879
v 0.375330 -0.195090 -0.906127
v 0.353553 -0.382683 -0.853553
v 0.318190 -0.555570 -0.768177
v 0.270598 -0.707107 -0.653281
v 0.212608 -0.831470 -0.513280
v 0.146447 -0.923880 -0.353553
v 0.074658 -0.980785 -0.180240
v 0.108386 0.980785 -0.162212
v 0.212608 0.923880 -0.318190
v 0.308658 0.831470 -0.461939
v 0.392847 0.707107 -0.587938
v 0.461940 0.555570 -0.691341
v 0.513280 0.382683 -0.768178
v 0.544895 0.195090 -0.815493
v 0.555570 0.000000 -0.831469
v 0.544895 -0.195090 -0.815493
v 0.513280 -0.382683 -0.768178
v 0.461940 -0.555570 -0.691341
v 0.392847 -0.707107 -0.587938
v 0.308658 -0.831470 -0.461939
v 0.212608 -0.923880 -0.318190
v 0.108386 -0.980785 -0.162212
v 0.137950 0.980785 -0.137950
v 0.270598 0.923880 -0.270598
v 0.392847 0.831470 -0.392847
v 0.500000 0.707107 -0.500000
v 0.587938 0.555570 -0.587937
v 0.653281 0.382683 -0.653281
v 0.693520 0.195090 -0.693520
v 0.707106 0.000000 -0.707106
v 0.693520 -0.195090 -0.693520
v 0.653281 -0.382683 -0.653281
v 0.587938 -0.555570 -0.587937
v 0.500000 -0.707107 -0.500000
v 0.392847 -0.831470 -0.392847
v 0.270598 -0.923880 -0.270598
v 0.137950 -0.980785 -0.137950
v 0.162212 0.980785 -0.108386
v 0.318190 0.923880 -0.212607
v 0.461940 0.831470 -0.308658
v 0.587938 0.707107 -0.392847
v 0.691341 0.555570 -0.461939
v 0.768177 0.382683 -0.513280
v 0.815493 0.195090 -0.544895
v 0.831469 0.000000 -0.555569
v 0.815493 -0.195090 -0.544895
v 0.768177 -0.382683 -0.513280
v 0.691341 -0.555570 -0.461939
v 0.587938 -0.707107 -0.392847
v 0.461940 -0.831470 -0.308658
v 0.318190 -0.923880 -0.212607
v 0.162212 -0.980785 -0.108386
v 0.180240 0.980785 -0.074658
v 0.353553 0.923880 -0.146447
v 0.513280 0.831470 -0.212607
v 0.653281 0.707107 -0.270598
v 0.768177 0.555570 -0.318189
v 0.853553 0.382683 -0.353553
v 0.906127 0.195090 -0.375330
v 0.923879 0.000000 -0.382683
v 0.906127 -0.195090 -0.375330
v 0.853553 -0.382683 -0.353553
v 0.768177 -0.555570 -0.318189
v 0.653281 -0.707107 -0.270598
v 0.513280 -0.831470 -0.212607
v 0.353553 -0.923880 -0.146447
v 0.180240 -0.980785 -0.074658
v 0.191342 0.980785 -0.038060
v 0.375330 0.923880 -0.074658
v 0.544895 0.831470 -0.108386
v 0.693520 0.707107 -0.137950
v 0.815493 0.555570 -0.162211
v 0.906127 0.382683 -0.180240
v 0.961939 0.195090 -0.191341
v 0.980784 0.000000 -0.195090
v 0.961939 -0.195090 -0.191341
v 0.906127 -0.382683 -0.180240
v 0.815493 -0.555570 -0.162211
v 0.693520 -0.707107 -0.137950
v 0.544895 -0.831470 -0.108386
v 0.375330 -0.923880 -0.074658
v 0.191342 -0.980785 -0.038060
v 0.195090 0.980785 0.000000
v 0.382683 0.923880 0.000000
v 0.555570 0.831470 0.000000
v 0.707107 0.707107 0.000000
v 0.831469 0.555570 0.000000
v 0.923879 0.382683 0.000000
v 0.980785 0.195090 0.000000
v 0.999999 0.000000 0.000000
v 0.980785 -0.195090 0.000000
v 0.923879 -0.382683 0.000000
v 0.831469 -0.555570 0.000000
v 0.707107 -0.707107 0.000000
v 0.555570 -0.831470 0.000000
v 0.382683 -0.923880 0.000000
v 0.195090 -0.980785 0.000000
v 0.191342 0.980785 0.038060
v 0.375330 0.923880 0.074658
v 0.544895 0.831470 0.108386
v 0.693520 0.707107 0.137950
v 0.815493 0.555570 0.162212
v 0.906127 0.382683 0.180240
v 0.961939 0.195090 0.191342
v 0.980784 0.000000 0.195091
v 0.961939 -0.195090 0.191342
v 0.906127 -0.382683 0.180240
v 0.815493 -0.555570 0.162212
v 0.693520 -0.707107 0.137950
v 0.544895 -0.831470 0.108386
v 0.375330 -0.923880 0.074658
v 0.191342 -0.980785 0.038060
v 0.180240 0.980785 0.074658
v 0.353553 0.923880 0.146447
v 0.513279 0.831470 0.212607
v 0.653281 0.707107 0.270598
v 0.768177 0.555570 0.318190
v 0.853553 0.382683 0.353553
v 0.906127 0.195090 0.375330
v 0.923878 0.000000 0.382683
v 0.906127 -0.195090 0.375330
v 0.853553 -0.382683 0.353553
v 0.768177 -0.555570 0.318190
v 0.653281 -0.707107 0.270598
v 0.513279 -0.831470 0.212607
v 0.353553 -0.923880 0.146447
v 0.180240 -0.980785 0.074658
v 0.162212 0.980785 0.108386
v 0.318189 0.923880 0.212607
v 0.461939 0.831470 0.308658
v 0.587938 0.707107 0.392847
v 0.691341 0.555570 0.461940
v 0.768177 0.382683 0.513280
v 0.815493 0.195090 0.544895
v 0.831468 0.000000 0.555570
v 0.815493 -0.195090 0.544895
v 0.768177 -0.382683 0.513280
v 0.691341 -0.555570 0.461940
v 0.587938 -0.707107 0.392847
v 0.461939 -0.831470 0.308658
v 0.318189 -0.923880 0.212607
v 0.162212 -0.980785 0.108386
v 0.137950 0.980785 0.137950
v 0.270598 0.923880 0.270598
v 0.392847 0.831470 0.392847
v 0.500000 0.707107 0.500000
v 0.587937 0.555570 0.587938
v 0.653281 0.382683 0.653281
v 0.693519 0.195090 0.693520
v 0.707106 0.000000 0.707106
v 0.693519 -0.195090 0.693520
v 0.653281 -0.382683 0.653281
v 0.587937 -0.555570 0.587938
v 0.500000 -0.707107 0.500000
v 0.392847 -0.831470 0.392847
v 0.270598 -0.923880 0.270598
v 0.137950 -0.980785 0.137950
v 0.108386 0.980785 0.162212
v 0.212607 0.923880 0.318190
v 0.308658 0.831470 0.461939
v 0.392847 0.707107 0.587938
v 0.461939 0.555570 0.691341
v 0.513280 0.382683 0.768177
v 0.544895 0.195090 0.815493
v 0.555569 0.000000 0.831469
v 0.544895 -0.195090 0.815493
v 0.513280 -0.382683 0.768177
v 0.461939 -0.555570 0.691341
v 0.392847 -0.707107 0.587938
v 0.308658 -0.831470 0.461939
v 0.212607 -0.923880 0.318190
v 0.108386 -0.980785 0.162212
v 0.074658 0.980785 0.180240
v 0.146446 0.923880 0.353553
v 0.212607 0.831470 0.513279
v 0.270598 0.707107 0.653281
v 0.318189 0.555570 0.768177
v 0.353553 0.382683 0.853553
v 0.375330 0.195090 0.906127
v 0.382683 0.000000 0.923879
v 0.375330 -0.195090 0.906127
v 0.353553 -0.382683 0.853553
v 0.318189 -0.555570 0.768177
v 0.270598 -0.707107 0.653281
v 0.212607 -0.831470 0.513279
v 0.146446 -0.923880 0.353553
v 0.074658 -0.980785 0.180240
v 0.038060 0.980785 0.191342
v 0.074658 0.923880 0.375330
v 0.108386 0.831470 0.544895
v 0.137950 0.707107 0.693520
v 0.162211 0.555570 0.815493
v 0.180240 0.382683 0.906127
v 0.191341 0.195090 0.961939
v 0.195090 0.000000 0.980784
v 0.191341 -0.195090 0.961939
v 0.180240 -0.382683 0.906127
v 0.162211 -0.555570 0.815493
v 0.137950 -0.707107 0.693520
v 0.108386 -0.831470 0.544895
v 0.074658 -0.923880 0.375330
v 0.038060 -0.980785 0.191342
v -0.000000 0.980785 0.195090
v -0.000000 0.923880 0.382683
v -0.000000 0.707107 0.707107
v -0.000000 0.382683 0.923879
v -0.000000 -0.382683 0.923879
v -0.000000 -0.707107 0.707107
v -0.000000 -0.831470 0.555570
v -0.000000 -0.923880 0.382683
v -0.000000 -0.980785 0.195090
vn -0.0938 -0.2890 0.9527
vn -0.0464 0.8810 0.4709
vn -0.0865 -0.4696 0.8786
vn -0.0624 0.7715 0.6332
vn -0.0759 -0.6326 0.7708
vn -0.0759 0.6326 0.7708
vn -0.0624 -0.7715 0.6332
vn -0.0865 0.4696 0.8786
vn -0.0464 -0.8810 0.4709
vn -0.0938 0.2890 0.9527
vn -0.0286 -0.9565 0.2902
vn -0.0975 0.0975 0.9904
vn -0.0097 0.9951 0.0980
vn -0.0097 -0.9951 0.0980
vn -0.0975 -0.0976 0.9904
vn -0.0286 0.9565 0.2902
vn -0.2889 -0.0976 0.9524
vn -0.0846 0.9565 0.2790
vn -0.2779 -0.2890 0.9161
vn -0.1374 0.8810 0.4528
vn -0.2563 -0.4696 0.8448
vn -0.1847 0.7715 0.6088
vn -0.2248 -0.6326 0.7412
vn -0.2248 0.6326 0.7412
vn -0.1847 -0.7715 0.6088
vn -0.2563 0.4696 0.8448
vn -0.1374 -0.8810 0.4528
vn -0.2779 0.2890 0.9161
vn -0.0846 -0.9565 0.2790
vn -0.2889 0.0976 0.9524
vn -0.0286 0.9951 0.0942
vn -0.0286 -0.9951 0.0942
vn -0.2999 -0.7715 0.5611
vn -0.4162 0.4696 0.7786
vn -0.2230 -0.8810 0.4173
vn -0.4513 0.2890 0.8443
vn -0.1374 -0.9565 0.2571
vn -0.4691 0.0975 0.8777
vn -0.0464 0.9951 0.0869
vn -0.0464 -0.9951 0.0869
vn -0.4691 -0.0975 0.8777
vn -0.1374 0.9565 0.2571
vn -0.4513 -0.2890 0.8443
vn -0.2231 0.8810 0.4173
vn -0.4162 -0.4696 0.7786
vn -0.2999 0.7715 0.5611
vn -0.3651 -0.6326 0.6831
vn -0.3651 0.6326 0.6831
vn -0.1850 0.9565 0.2254
vn -0.6073 -0.2890 0.7400
vn -0.3002 0.8810 0.3658
vn -0.5601 -0.4696 0.6825
vn -0.4036 0.7715 0.4918
vn -0.4913 -0.6326 0.5987
vn -0.4913 0.6326 0.5987
vn -0.4036 -0.7715 0.4918
vn -0.5601 0.4696 0.6825
vn -0.3002 -0.8810 0.3658
vn -0.6073 0.2890 0.7400
vn -0.1850 -0.9565 0.2254
vn -0.6314 0.0975 0.7693
vn -0.0625 0.9951 0.0761
vn -0.0625 -0.9951 0.0761
vn -0.6314 -0.0975 0.7693
vn -0.6825 0.4696 0.5601
vn -0.3658 -0.8810 0.3002
vn -0.7400 0.2890 0.6073
vn -0.2254 -0.9566 0.1850
vn -0.7693 0.0975 0.6314
vn -0.0761 0.9951 0.0625
vn -0.0761 -0.9951 0.0625
vn -0.7693 -0.0975 0.6314
vn -0.2254 0.9565 0.1850
vn -0.7400 -0.2890 0.6073
vn -0.3658 0.8810 0.3002
vn -0.6825 -0.4696 0.5601
vn -0.4918 0.7715 0.4036
vn -0.5987 -0.6326 0.4913
vn -0.5987 0.6326 0.4913
vn -0.4918 -0.7715 0.4036
vn -0.8443 -0.2890 0.4513
vn -0.4173 0.8810 0.2230
vn -0.7786 -0.4696 0.4162
vn -0.5611 0.7715 0.2999
vn -0.6831 -0.6326 0.3651
vn -0.6831 0.6326 0.3651
vn -0.5611 -0.7715 0.2999
vn -0.7786 0.4696 0.4162
vn -0.4173 -0.8810 0.2230
vn -0.8443 0.2890 0.4513
vn -0.2571 -0.9565 0.1374
vn -0.8777 0.0975 0.4691
vn -0.0869 0.9951 0.0464
vn -0.0869 -0.9951 0.0464
vn -0.8777 -0.0975 0.4691
vn -0.2571 0.9565 0.1374
vn -0.4528 -0.8810 0.1374
vn -0.9161 0.2890 0.2779
vn -0.2790 -0.9565 0.0846
vn -0.9524 0.0975 0.2889
vn -0.0942 0.9951 0.0286
vn -0.0942 -0.9951 0.0286
vn -0.9524 -0.0975 0.2889
vn -0.2790 0.9565 0.0846
vn -0.9161 -0.2890 0.2779
vn -0.4528 0.8810 0.1374
vn -0.8448 -0.4696 0.2563
vn -0.6088 0.7715 0.1847
vn -0.7412 -0.6326 0.2248
vn -0.7412 0.6326 0.2248
vn -0.6088 -0.7715 0.1847
vn -0.8448 0.4696 0.2563
vn -0.8786 -0.4696 0.0865
vn -0.6332 0.7715 0.0624
vn -0.7708 -0.6326 0.0759
vn -0.7708 0.6326 0.0759
vn -0.6332 -0.7715 0.0624
vn -0.8786 0.4696 0.0865
vn -0.4709 -0.8810 0.0464
vn -0.9527 0.2890 0.0938
vn -0.2902 -0.9565 0.0286
vn -0.9904 0.0975 0.0975
vn -0.0980 0.9951 0.0097
vn -0.0980 -0.9951 0.0097
vn -0.9904 -0.0975 0.0975
vn -0.2902 0.9565 0.0286
vn -0.9527 -0.2890 0.0938
vn -0.4709 0.8810 0.0464
vn -0.2902 -0.9565 -0.0286
vn -0.9904 0.0975 -0.0976
vn -0.0980 0.9951 -0.0097
vn -0.0980 -0.9951 -0.0097
vn -0.9904 -0.0975 -0.0976
vn -0.2902 0.9565 -0.0286
vn -0.9527 -0.2890 -0.0938
vn -0.4709 0.8810 -0.0464
vn -0.8786 -0.4696 -0.0865
vn -0.6332 0.7715 -0.0624
vn -0.7708 -0.6326 -0.0759
vn -0.7708 0.6326 -0.0759
vn -0.6332 -0.7715 -0.0624
vn -0.8786 0.4696 -0.0865
vn -0.4709 -0.8810 -0.0464
vn -0.9527 0.2890 -0.0938
vn -0.6088 0.7715 -0.1847
vn -0.7412 -0.6326 -0.2248
vn -0.7412 0.6326 -0.2248
vn -0.6088 -0.7715 -0.1847
vn -0.8448 0.4696 -0.2563
vn -0.4528 -0.8810 -0.1374
vn -0.9161 0.2890 -0.2779
vn -0.2790 -0.9565 -0.0846
vn -0.9524 0.0975 -0.2889
vn -0.0942 0.9951 -0.0286
vn -0.0942 -0.9951 -0.0286
vn -0.9524 -0.0975 -0.2889
vn -0.2790 0.9565 -0.0846
vn -0.9161 -0.2890 -0.2779
vn -0.4528 0.8810 -0.1374
vn -0.8448 -0.4696 -0.2563
vn -0.8777 0.0975 -0.4691
vn -0.0869 0.9951 -0.0464
vn -0.0869 -0.9951 -0.0464
vn -0.8777 -0.0975 -0.4691
vn -0.2571 0.9565 -0.1374
vn -0.8443 -0.2890 -0.4513
vn -0.4173 0.8810 -0.2231
vn -0.7786 -0.4696 -0.4162
vn -0.5611 0.7715 -0.2999
vn -0.6831 -0.6326 -0.3651
vn -0.6831 0.6326 -0.3651
vn -0.5611 -0.7715 -0.2999
vn -0.7786 0.4696 -0.4162
vn -0.4173 -0.8810 -0.2230
vn -0.8443 0.2890 -0.4513
vn -0.2571 -0.9565 -0.1374
vn -0.5987 -0.6326 -0.4913
vn -0.5987 0.6326 -0.4913
vn -0.4918 -0.7715 -0.4036
vn -0.6825 0.4696 -0.5601
vn -0.3658 -0.8810 -0.3002
vn -0.7400 0.2890 -0.6073
vn -0.2254 -0.9565 -0.1850
vn -0.7693 0.0975 -0.6314
vn -0.0761 0.9951 -0.0625
vn -0.0761 -0.9951 -0.0625
vn -0.7693 -0.0975 -0.6314
vn -0.2254 0.9565 -0.1850
vn -0.7400 -0.2890 -0.6073
vn -0.3658 0.8810 -0.3002
vn -0.6825 -0.4696 -0.5601
vn -0.4918 0.7715 -0.4036
vn -0.0625 0.9951 -0.0761
vn -0.0625 -0.9951 -0.0761
vn -0.6314 -0.0975 -0.7693
vn -0.1850 0.9565 -0.2254
vn -0.6073 -0.2890 -0.7400
vn -0.3002 0.8810 -0.3658
vn -0.5601 -0.4696 -0.6825
vn -0.4036 0.7715 -0.4918
vn -0.4913 -0.6326 -0.5987
vn -0.4913 0.6326 -0.5987
vn -0.4036 -0.7715 -0.4918
vn -0.5601 0.4696 -0.6825
vn -0.3002 -0.8810 -0.3658
vn -0.6073 0.2890 -0.7400
vn -0.1850 -0.9565 -0.2254
vn -0.6314 0.0975 -0.7693
vn -0.3651 0.6326 -0.6831
vn -0.2999 -0.7715 -0.5611
vn -0.4162 0.4696 -0.7786
vn -0.2230 -0.8810 -0.4173
vn -0.4513 0.2890 -0.8443
vn -0.1374 -0.9565 -0.2571
vn -0.4691 0.0975 -0.8777
vn -0.0464 0.9951 -0.0869
vn -0.0464 -0.9951 -0.0869
vn -0.4691 -0.0975 -0.8777
vn -0.1374 0.9565 -0.2571
vn -0.4513 -0.2890 -0.8443
vn -0.2230 0.8810 -0.4173
vn -0.4162 -0.4696 -0.7786
vn -0.2999 0.7715 -0.5611
vn -0.3651 -0.6326 -0.6831
vn -0.2889 -0.0975 -0.9524
vn -0.0846 0.9565 -0.2790
vn -0.2779 -0.2890 -0.9161
vn -0.1374 0.8810 -0.4528
vn -0.2563 -0.4696 -0.8448
vn -0.1847 0.7715 -0.6088
vn -0.2248 -0.6326 -0.7412
vn -0.2248 0.6326 -0.7412
vn -0.1847 -0.7715 -0.6088
vn -0.2563 0.4696 -0.8448
vn -0.1374 -0.8810 -0.4528
vn -0.2779 0.2890 -0.9161
vn -0.0846 -0.9565 -0.2790
vn -0.2889 0.0975 -0.9524
vn -0.0286 0.9951 -0.0942
vn -0.0286 -0.9951 -0.0942
vn -0.0624 -0.7715 -0.6332
vn -0.0865 0.4696 -0.8786
vn -0.0464 -0.8810 -0.4709
vn -0.0938 0.2890 -0.9527
vn -0.0286 -0.9565 -0.2902
vn -0.0975 0.0975 -0.9904
vn -0.0097 0.9951 -0.0980
vn -0.0097 -0.9951 -0.0980
vn -0.0975 -0.0975 -0.9904
vn -0.0286 0.9565 -0.2902
vn -0.0938 -0.2890 -0.9527
vn -0.0464 0.8810 -0.4709
vn -0.0865 -0.4696 -0.8786
vn -0.0624 0.7715 -0.6332
vn -0.0759 -0.6326 -0.7708
vn -0.0759 0.6326 -0.7708
vn 0.0938 -0.2890 -0.9527
vn 0.0464 0.8810 -0.4709
vn 0.0865 -0.4696 -0.8786
vn 0.0624 0.7715 -0.6332
vn 0.0759 -0.6326 -0.7708
vn 0.0759 0.6326 -0.7708
vn 0.0624 -0.7715 -0.6332
vn 0.0865 0.4696 -0.8786
vn 0.0464 -0.8810 -0.4709
vn 0.0938 0.2890 -0.9527
vn 0.0286 -0.9565 -0.2902
vn 0.0976 0.0975 -0.9904
vn 0.0097 0.9951 -0.0980
vn 0.0097 -0.9951 -0.0980
vn 0.0975 -0.0975 -0.9904
vn 0.0286 0.9565 -0.2902
vn 0.1374 -0.8810 -0.4528
vn 0.2779 0.2890 -0.9161
vn 0.0846 -0.9565 -0.2790
vn 0.2889 0.0975 -0.9524
vn 0.0286 0.9951 -0.0942
vn 0.0286 -0.9951 -0.0942
vn 0.2889 -0.0975 -0.9524
vn 0.0846 0.9565 -0.2790
vn 0.2779 -0.2890 -0.9161
vn 0.1374 0.8810 -0.4528
vn 0.2563 -0.4696 -0.8448
vn 0.1847 0.7715 -0.6088
vn 0.2248 -0.6326 -0.7412
vn 0.2248 0.6326 -0.7412
vn 0.1847 -0.7715 -0.6088
vn 0.2563 0.4696 -0.8448
vn 0.2230 0.8810 -0.4173
vn 0.4162 -0.4696 -0.7786
vn 0.2999 0.7715 -0.5611
vn 0.3651 -0.6326 -0.6831
vn 0.3651 0.6326 -0.6831
vn 0.2999 -0.7715 -0.5611
vn 0.4162 0.4696 -0.7786
vn 0.2230 -0.8810 -0.4173
vn 0.4513 0.2890 -0.8443
vn 0.1374 -0.9565 -0.2571
vn 0.4691 0.0975 -0.8777
vn 0.0464 0.9951 -0.0869
vn 0.0464 -0.9951 -0.0869
vn 0.4691 -0.0975 -0.8777
vn 0.1374 0.9565 -0.2571
vn 0.4513 -0.2890 -0.8443
vn 0.6073 0.2890 -0.7400
vn 0.1850 -0.9565 -0.2254
vn 0.6314 0.0975 -0.7693
vn 0.0625 0.9951 -0.0761
vn 0.0625 -0.9951 -0.0761
vn 0.6314 -0.0975 -0.7693
vn 0.1850 0.9565 -0.2254
vn 0.6073 -0.2890 -0.7400
vn 0.3002 0.8810 -0.3658
vn 0.5601 -0.4696 -0.6825
vn 0.4036 0.7715 -0.4918
vn 0.4913 -0.6326 -0.5987
vn 0.4913 0.6326 -0.5987
vn 0.4036 -0.7715 -0.4918
vn 0.5601 0.4696 -0.6825
vn 0.3002 -0.8810 -0.3658
vn 0.6825 -0.4696 -0.5601
vn 0.4918 0.7715 -0.4036
vn 0.5987 -0.6326 -0.4913
vn 0.5987 0.6326 -0.4913
vn 0.4918 -0.7715 -0.4036
vn 0.6825 0.4696 -0.5601
vn 0.3658 -0.8810 -0.3002
vn 0.7400 0.2890 -0.6073
vn 0.2254 -0.9566 -0.1850
vn 0.7693 0.0975 -0.6314
vn 0.0761 0.9951 -0.0625
vn 0.0761 -0.9951 -0.0625
vn 0.7693 -0.0975 -0.6314
vn 0.2254 0.9565 -0.1850
vn 0.7400 -0.2890 -0.6073
vn 0.3658 0.8810 -0.3002
vn 0.2571 -0.9565 -0.1374
vn 0.8777 0.0975 -0.4691
vn 0.0869 0.9951 -0.0464
vn 0.0869 -0.9951 -0.0464
vn 0.8777 -0.0975 -0.4691
vn 0.2571 0.9565 -0.1374
vn 0.8443 -0.2890 -0.4513
vn 0.4173 0.8810 -0.2230
vn 0.7786 -0.4696 -0.4162
vn 0.5611 0.7715 -0.2999
vn 0.6831 -0.6326 -0.3651
vn 0.6831 0.6326 -0.3651
vn 0.5611 -0.7715 -0.2999
vn 0.7786 0.4696 -0.4162
vn 0.4173 -0.8810 -0.2231
vn 0.8443 0.2890 -0.4513
vn 0.6088 0.7715 -0.1847
vn 0.7412 -0.6326 -0.2248
vn 0.7412 0.6326 -0.2248
vn 0.6088 -0.7715 -0.1847
vn 0.8448 0.4696 -0.2563
vn 0.4528 -0.8810 -0.1374
vn 0.9161 0.2890 -0.2779
vn 0.2790 -0.9565 -0.0846
vn 0.9524 0.0975 -0.2889
vn 0.0942 0.9951 -0.0286
vn 0.0942 -0.9951 -0.0286
vn 0.9524 -0.0975 -0.2889
vn 0.2790 0.9565 -0.0846
vn 0.9161 -0.2890 -0.2779
vn 0.4528 0.8810 -0.1374
vn 0.8448 -0.4696 -0.2563
vn 0.9904 0.0975 -0.0975
vn 0.0980 0.9951 -0.0097
vn 0.0980 -0.9951 -0.0097
vn 0.9904 -0.0975 -0.0976
vn 0.2902 0.9565 -0.0286
vn 0.9527 -0.2890 -0.0938
vn 0.4709 0.8810 -0.0464
vn 0.8786 -0.4696 -0.0865
vn 0.6332 0.7715 -0.0624
vn 0.7708 -0.6326 -0.0759
vn 0.7708 0.6326 -0.0759
vn 0.6332 -0.7715 -0.0624
vn 0.8786 0.4696 -0.0865
vn 0.4709 -0.8810 -0.0464
vn 0.9527 0.2890 -0.0938
vn 0.2902 -0.9565 -0.0286
vn 0.7708 -0.6326 0.0759
vn 0.7708 0.6326 0.0759
vn 0.6332 -0.7715 0.0624
vn 0.8786 0.4696 0.0865
vn 0.4709 -0.8810 0.0464
vn 0.9527 0.2890 0.0938
vn 0.2902 -0.9565 0.0286
vn 0.9904 0.0975 0.0975
vn 0.0980 0.9951 0.0097
vn 0.0980 -0.9951 0.0097
vn 0.9904 -0.0975 0.0976
vn 0.2902 0.9565 0.0286
vn 0.9527 -0.2890 0.0938
vn 0.4709 0.8810 0.0464
vn 0.8786 -0.4696 0.0865
vn 0.6332 0.7715 0.0624
vn 0.0942 -0.9951 0.0286
vn 0.9524 -0.0975 0.2889
vn 0.2790 0.9565 0.0846
vn 0.9161 -0.2890 0.2779
vn 0.4528 0.8810 0.1374
vn 0.8448 -0.4696 0.2563
vn 0.6088 0.7715 0.1847
vn 0.7412 -0.6326 0.2248
vn 0.7412 0.6326 0.2248
vn 0.6088 -0.7715 0.1847
vn 0.8448 0.4696 0.2563
vn 0.4528 -0.8810 0.1374
vn 0.9161 0.2890 0.2779
vn 0.2790 -0.9565 0.0846
vn 0.9524 0.0975 0.2889
vn 0.0942 0.9951 0.0286
vn 0.5611 -0.7715 0.2999
vn 0.7786 0.4696 0.4162
vn 0.4173 -0.8810 0.2231
vn 0.8443 0.2890 0.4513
vn 0.2571 -0.9565 0.1374
vn 0.8777 0.0975 0.4691
vn 0.0869 0.9951 0.0464
vn 0.0869 -0.9951 0.0464
vn 0.8777 -0.0975 0.4691
vn 0.2571 0.9565 0.1374
vn 0.8443 -0.2890 0.4513
vn 0.4173 0.8810 0.2231
vn 0.7786 -0.4696 0.4162
vn 0.5611 0.7715 0.2999
vn 0.6831 -0.6326 0.3651
vn 0.6831 0.6326 0.3651
vn 0.2254 0.9565 0.1850
vn 0.7400 -0.2890 0.6073
vn 0.3658 0.8810 0.3002
vn 0.6825 -0.4696 0.5601
vn 0.4918 0.7715 0.4036
vn 0.5987 -0.6326 0.4913
vn 0.5987 0.6326 0.4913
vn 0.4918 -0.7715 0.4036
vn 0.6825 0.4696 0.5601
vn 0.3658 -0.8810 0.3002
vn 0.7400 0.2890 0.6073
vn 0.2254 -0.9565 0.1850
vn 0.7693 0.0975 0.6314
vn 0.0761 0.9951 0.0625
vn 0.0761 -0.9951 0.0625
vn 0.7693 -0.0975 0.6314
vn 0.5601 0.4696 0.6825
vn 0.3002 -0.8810 0.3658
vn 0.6073 0.2890 0.7400
vn 0.1850 -0.9565 0.2254
vn 0.6314 0.0975 0.7693
vn 0.0625 0.9951 0.0761
vn 0.0625 -0.9951 0.0761
vn 0.6314 -0.0975 0.7693
vn 0.1850 0.9565 0.2254
vn 0.6073 -0.2890 0.7400
vn 0.3002 0.8810 0.3658
vn 0.5601 -0.4696 0.6825
vn 0.4036 0.7715 0.4918
vn 0.4913 -0.6326 0.5987
vn 0.4913 0.6326 0.5987
vn 0.4036 -0.7715 0.4918
vn 0.4513 -0.2890 0.8443
vn 0.2230 0.8810 0.4173
vn 0.4162 -0.4696 0.7786
vn 0.2999 0.7715 0.5611
vn 0.3651 -0.6326 0.6831
vn 0.3651 0.6326 0.6831
vn 0.2999 -0.7715 0.5611
vn 0.4162 0.4696 0.7786
vn 0.2230 -0.8810 0.4173
vn 0.4513 0.2890 0.8443
vn 0.1374 -0.9565 0.2571
vn 0.4691 0.0975 0.8777
vn 0.0464 0.9951 0.0869
vn 0.0464 -0.9951 0.0869
vn 0.4691 -0.0975 0.8777
vn 0.1374 0.9565 0.2571
vn 0.1374 -0.8810 0.4528
vn 0.2779 0.2890 0.9161
vn 0.0846 -0.9565 0.2790
vn 0.2889 0.0975 0.9524
vn 0.0286 0.9951 0.0942
vn 0.0286 -0.9951 0.0942
vn 0.2889 -0.0975 0.9524
vn 0.0846 0.9565 0.2790
vn 0.2779 -0.2890 0.9161
vn 0.1374 0.8810 0.4528
vn 0.2563 -0.4696 0.8448
vn 0.1847 0.7715 0.6088
vn 0.2248 -0.6326 0.7412
vn 0.2248 0.6326 0.7412
vn 0.1847 -0.7715 0.6088
vn 0.2563 0.4696 0.8448
vn 0.0464 0.8810 0.4709
vn 0.0865 -0.4696 0.8786
vn 0.0624 0.7715 0.6332
vn 0.0759 -0.6326 0.7708
vn 0.0759 0.6326 0.7708
vn 0.0624 -0.7715 0.6332
vn 0.0865 0.4696 0.8786
vn 0.0464 -0.8810 0.4709
vn 0.0938 0.2890 0.9527
vn 0.0286 -0.9565 0.2902
vn 0.0976 0.0975 0.9904
vn 0.0097 0.9951 0.0980
vn 0.0097 -0.9951 0.0980
vn 0.0976 -0.0975 0.9904
vn 0.0286 0.9565 0.2902
vn 0.0938 -0.2890 0.9527
vn -0.0975 0.0976 0.9904
vn -0.0975 -0.0975 0.9904
vn -0.2231 -0.8810 0.4173
vn -0.2230 0.8810 0.4173
vn -0.2254 -0.9565 0.1850
vn -0.4173 0.8810 -0.2230
vn -0.4173 -0.8810 -0.2231
vn -0.2231 -0.8810 -0.4173
vn 0.0975 0.0975 -0.9904
vn 0.0976 -0.0975 -0.9904
vn 0.2231 0.8810 -0.4173
vn 0.2231 -0.8810 -0.4173
vn 0.2254 -0.9565 -0.1850
vn 0.4173 -0.8810 -0.2230
vn 0.9904 0.0975 -0.0976
vn 0.9904 -0.0975 -0.0975
vn 0.9904 0.0975 0.0976
vn 0.9904 -0.0975 0.0975
vt 0.750000 0.437500
vt 0.718750 0.375000
vt 0.750000 0.375000
vt 0.750000 0.812500
vt 0.718750 0.875000
vt 0.718750 0.812500
vt 0.718750 0.312500
vt 0.750000 0.312500
vt 0.750000 0.750000
vt 0.718750 0.750000
vt 0.718750 0.250000
vt 0.750000 0.250000
vt 0.750000 0.687500
vt 0.718750 0.687500
vt 0.718750 0.187500
vt 0.750000 0.187500
vt 0.750000 0.625000
vt 0.718750 0.625000
vt 0.718750 0.125000
vt 0.750000 0.125000
vt 0.750000 0.562500
vt 0.718750 0.562500
vt 0.718750 0.062500
vt 0.750000 0.062500
vt 0.718750 0.500000
vt 0.750000 0.500000
vt 0.750000 0.937500
vt 0.734375 1.000000
vt 0.718750 0.937500
vt 0.734375 0.000000
vt 0.718750 0.437500
vt 0.750000 0.875000
vt 0.687500 0.437500
vt 0.687500 0.875000
vt 0.687500 0.375000
vt 0.687500 0.812500
vt 0.687500 0.312500
vt 0.687500 0.750000
vt 0.687500 0.250000
vt 0.687500 0.687500
vt 0.687500 0.187500
vt 0.687500 0.625000
vt 0.687500 0.125000
vt 0.687500 0.562500
vt 0.687500 0.062500
vt 0.687500 0.500000
vt 0.703125 1.000000
vt 0.687500 0.937500
vt 0.703125 0.000000
vt 0.656250 0.250000
vt 0.656250 0.187500
vt 0.656250 0.625000
vt 0.656250 0.125000
vt 0.656250 0.562500
vt 0.656250 0.062500
vt 0.656250 0.500000
vt 0.671875 1.000000
vt 0.656250 0.937500
vt 0.671875 0.000000
vt 0.656250 0.437500
vt 0.656250 0.875000
vt 0.656250 0.375000
vt 0.656250 0.812500
vt 0.656250 0.312500
vt 0.656250 0.750000
vt 0.656250 0.687500
vt 0.625000 0.875000
vt 0.625000 0.375000
vt 0.625000 0.812500
vt 0.625000 0.312500
vt 0.625000 0.750000
vt 0.625000 0.250000
vt 0.625000 0.687500
vt 0.625000 0.187500
vt 0.625000 0.625000
vt 0.625000 0.125000
vt 0.625000 0.562500
vt 0.625000 0.062500
vt 0.625000 0.500000
vt 0.640625 1.000000
vt 0.625000 0.937500
vt 0.640625 0.000000
vt 0.625000 0.437500
vt 0.593750 0.625000
vt 0.593750 0.187500
vt 0.593750 0.125000
vt 0.593750 0.562500
vt 0.593750 0.062500
vt 0.593750 0.500000
vt 0.609375 1.000000
vt 0.593750 0.937500
vt 0.609375 0.000000
vt 0.593750 0.437500
vt 0.593750 0.875000
vt 0.593750 0.375000
vt 0.593750 0.812500
vt 0.593750 0.312500
vt 0.593750 0.750000
vt 0.593750 0.250000
vt 0.593750 0.687500
vt 0.562500 0.375000
vt 0.562500 0.812500
vt 0.562500 0.312500
vt 0.562500 0.750000
vt 0.562500 0.250000
vt 0.562500 0.687500
vt 0.562500 0.187500
vt 0.562500 0.625000
vt 0.562500 0.125000
vt 0.562500 0.562500
vt 0.562500 0.062500
vt 0.562500 0.500000
vt 0.578125 1.000000
vt 0.562500 0.937500
vt 0.578125 0.000000
vt 0.562500 0.437500
vt 0.562500 0.875000
vt 0.531250 0.187500
vt 0.531250 0.125000
vt 0.531250 0.625000
vt 0.531250 0.562500
vt 0.531250 0.062500
vt 0.531250 0.500000
vt 0.546875 1.000000
vt 0.531250 0.937500
vt 0.546875 0.000000
vt 0.531250 0.437500
vt 0.531250 0.875000
vt 0.531250 0.375000
vt 0.531250 0.812500
vt 0.531250 0.312500
vt 0.531250 0.750000
vt 0.531250 0.250000
vt 0.531250 0.687500
vt 0.500000 0.375000
vt 0.500000 0.312500
vt 0.500000 0.750000
vt 0.500000 0.250000
vt 0.500000 0.687500
vt 0.500000 0.187500
vt 0.500000 0.625000
vt 0.500000 0.125000
vt 0.500000 0.562500
vt 0.500000 0.062500
vt 0.500000 0.500000
vt 0.515625 1.000000
vt 0.500000 0.937500
vt 0.515625 0.000000
vt 0.500000 0.437500
vt 0.500000 0.875000
vt 0.500000 0.812500
vt 0.468750 0.062500
vt 0.468750 0.562500
vt 0.468750 0.500000
vt 0.484375 1.000000
vt 0.468750 0.937500
vt 0.484375 0.000000
vt 0.468750 0.437500
vt 0.468750 0.875000
vt 0.468750 0.375000
vt 0.468750 0.812500
vt 0.468750 0.312500
vt 0.468750 0.750000
vt 0.468750 0.250000
vt 0.468750 0.687500
vt 0.468750 0.187500
vt 0.468750 0.625000
vt 0.468750 0.125000
vt 0.437500 0.750000
vt 0.437500 0.250000
vt 0.437500 0.687500
vt 0.437500 0.187500
vt 0.437500 0.625000
vt 0.437500 0.125000
vt 0.437500 0.562500
vt 0.437500 0.062500
vt 0.437500 0.500000
vt 0.453125 1.000000
vt 0.437500 0.937500
vt 0.453125 0.000000
vt 0.437500 0.437500
vt 0.437500 0.875000
vt 0.437500 0.375000
vt 0.437500 0.812500
vt 0.437500 0.312500
vt 0.406250 0.562500
vt 0.406250 0.500000
vt 0.421875 1.000000
vt 0.406250 0.937500
vt 0.421875 0.000000
vt 0.406250 0.062500
vt 0.406250 0.437500
vt 0.406250 0.875000
vt 0.406250 0.375000
vt 0.406250 0.812500
vt 0.406250 0.312500
vt 0.406250 0.750000
vt 0.406250 0.250000
vt 0.406250 0.687500
vt 0.406250 0.187500
vt 0.406250 0.625000
vt 0.406250 0.125000
vt 0.375000 0.250000
vt 0.375000 0.750000
vt 0.375000 0.687500
vt 0.375000 0.187500
vt 0.375000 0.625000
vt 0.375000 0.125000
vt 0.375000 0.562500
vt 0.375000 0.062500
vt 0.375000 0.500000
vt 0.390625 1.000000
vt 0.375000 0.937500
vt 0.390625 0.000000
vt 0.375000 0.437500
vt 0.375000 0.875000
vt 0.375000 0.375000
vt 0.375000 0.812500
vt 0.375000 0.312500
vt 0.359375 1.000000
vt 0.343750 0.937500
vt 0.359375 0.000000
vt 0.343750 0.062500
vt 0.343750 0.437500
vt 0.343750 0.875000
vt 0.343750 0.375000
vt 0.343750 0.812500
vt 0.343750 0.312500
vt 0.343750 0.750000
vt 0.343750 0.250000
vt 0.343750 0.687500
vt 0.343750 0.187500
vt 0.343750 0.625000
vt 0.343750 0.125000
vt 0.343750 0.562500
vt 0.343750 0.500000
vt 0.312500 0.750000
vt 0.312500 0.687500
vt 0.312500 0.250000
vt 0.312500 0.187500
vt 0.312500 0.625000
vt 0.312500 0.125000
vt 0.312500 0.562500
vt 0.312500 0.062500
vt 0.312500 0.500000
vt 0.328125 1.000000
vt 0.312500 0.937500
vt 0.328125 0.000000
vt 0.312500 0.437500
vt 0.312500 0.875000
vt 0.312500 0.375000
vt 0.312500 0.812500
vt 0.312500 0.312500
vt 0.281250 0.437500
vt 0.281250 0.875000
vt 0.281250 0.375000
vt 0.281250 0.812500
vt 0.281250 0.312500
vt 0.281250 0.750000
vt 0.281250 0.250000
vt 0.281250 0.687500
vt 0.281250 0.187500
vt 0.281250 0.625000
vt 0.281250 0.125000
vt 0.281250 0.562500
vt 0.281250 0.062500
vt 0.281250 0.500000
vt 0.296875 1.000000
vt 0.281250 0.937500
vt 0.296875 0.000000
vt 0.250000 0.250000
vt 0.250000 0.187500
vt 0.250000 0.625000
vt 0.250000 0.125000
vt 0.250000 0.562500
vt 0.250000 0.062500
vt 0.250000 0.500000
vt 0.265625 1.000000
vt 0.250000 0.937500
vt 0.265625 0.000000
vt 0.250000 0.437500
vt 0.250000 0.875000
vt 0.250000 0.375000
vt 0.250000 0.812500
vt 0.250000 0.312500
vt 0.250000 0.750000
vt 0.250000 0.687500
vt 0.218750 0.375000
vt 0.218750 0.812500
vt 0.218750 0.312500
vt 0.218750 0.750000
vt 0.218750 0.250000
vt 0.218750 0.687500
vt 0.218750 0.187500
vt 0.218750 0.625000
vt 0.218750 0.125000
vt 0.218750 0.562500
vt 0.218750 0.062500
vt 0.218750 0.500000
vt 0.234375 1.000000
vt 0.218750 0.937500
vt 0.234375 0.000000
vt 0.218750 0.437500
vt 0.218750 0.875000
vt 0.187500 0.125000
vt 0.187500 0.625000
vt 0.187500 0.562500
vt 0.187500 0.062500
vt 0.187500 0.500000
vt 0.203125 1.000000
vt 0.187500 0.937500
vt 0.203125 0.000000
vt 0.187500 0.437500
vt 0.187500 0.875000
vt 0.187500 0.375000
vt 0.187500 0.812500
vt 0.187500 0.312500
vt 0.187500 0.750000
vt 0.187500 0.250000
vt 0.187500 0.687500
vt 0.187500 0.187500
vt 0.156250 0.812500
vt 0.156250 0.375000
vt 0.156250 0.312500
vt 0.156250 0.750000
vt 0.156250 0.250000
vt 0.156250 0.687500
vt 0.156250 0.187500
vt 0.156250 0.625000
vt 0.156250 0.125000
vt 0.156250 0.562500
vt 0.156250 0.062500
vt 0.156250 0.500000
vt 0.171875 1.000000
vt 0.156250 0.937500
vt 0.171875 0.000000
vt 0.156250 0.437500
vt 0.156250 0.875000
vt 0.125000 0.625000
vt 0.125000 0.562500
vt 0.125000 0.125000
vt 0.125000 0.062500
vt 0.125000 0.500000
vt 0.140625 1.000000
vt 0.125000 0.937500
vt 0.140625 0.000000
vt 0.125000 0.437500
vt 0.125000 0.875000
vt 0.125000 0.375000
vt 0.125000 0.812500
vt 0.125000 0.312500
vt 0.125000 0.750000
vt 0.125000 0.250000
vt 0.125000 0.687500
vt 0.125000 0.187500
vt 0.093750 0.375000
vt 0.093750 0.312500
vt 0.093750 0.750000
vt 0.093750 0.250000
vt 0.093750 0.687500
vt 0.093750 0.187500
vt 0.093750 0.625000
vt 0.093750 0.125000
vt 0.093750 0.562500
vt 0.093750 0.062500
vt 0.093750 0.500000
vt 0.109375 1.000000
vt 0.093750 0.937500
vt 0.109375 0.000000
vt 0.093750 0.437500
vt 0.093750 0.875000
vt 0.093750 0.812500
vt 0.062500 0.062500
vt 0.062500 0.562500
vt 0.062500 0.500000
vt 0.078125 1.000000
vt 0.062500 0.937500
vt 0.078125 0.000000
vt 0.062500 0.437500
vt 0.062500 0.875000
vt 0.062500 0.375000
vt 0.062500 0.812500
vt 0.062500 0.312500
vt 0.062500 0.750000
vt 0.062500 0.250000
vt 0.062500 0.687500
vt 0.062500 0.187500
vt 0.062500 0.625000
vt 0.062500 0.125000
vt 0.031250 0.750000
vt 0.031250 0.250000
vt 0.031250 0.687500
vt 0.031250 0.187500
vt 0.031250 0.625000
vt 0.031250 0.125000
vt 0.031250 0.562500
vt 0.031250 0.062500
vt 0.031250 0.500000
vt 0.046875 1.000000
vt 0.031250 0.937500
vt 0.046875 0.000000
vt 0.031250 0.437500
vt 0.031250 0.875000
vt 0.031250 0.375000
vt 0.031250 0.812500
vt 0.031250 0.312500
vt 0.000000 0.562500
vt 0.000000 0.500000
vt 0.015625 1.000000
vt 0.000000 0.937500
vt 0.015625 0.000000
vt 0.000000 0.062500
vt 0.000000 0.437500
vt 0.000000 0.875000
vt 0.000000 0.375000
vt 0.000000 0.812500
vt 0.000000 0.312500
vt 0.000000 0.750000
vt 0.000000 0.250000
vt 0.000000 0.687500
vt 0.000000 0.187500
vt 0.000000 0.625000
vt 0.000000 0.125000
vt 1.000000 0.312500
vt 0.968750 0.250000
vt 1.000000 0.250000
vt 1.000000 0.687500
vt 0.968750 0.750000
vt 0.968750 0.687500
vt 1.000000 0.187500
vt 0.968750 0.187500
vt 0.968750 0.625000
vt 1.000000 0.625000
vt 0.968750 0.125000
vt 1.000000 0.125000
vt 1.000000 0.562500
vt 0.968750 0.562500
vt 0.968750 0.062500
vt 1.000000 0.062500
vt 1.000000 0.500000
vt 0.968750 0.500000
vt 1.000000 0.937500
vt 0.984375 1.000000
vt 0.968750 0.937500
vt 0.984375 0.000000
vt 0.968750 0.437500
vt 1.000000 0.437500
vt 0.968750 0.875000
vt 1.000000 0.875000
vt 0.968750 0.375000
vt 1.000000 0.375000
vt 1.000000 0.812500
vt 0.968750 0.812500
vt 0.968750 0.312500
vt 1.000000 0.750000
vt 0.953125 0.000000
vt 0.937500 0.062500
vt 0.937500 0.437500
vt 0.937500 0.875000
vt 0.937500 0.375000
vt 0.937500 0.812500
vt 0.937500 0.312500
vt 0.937500 0.750000
vt 0.937500 0.250000
vt 0.937500 0.687500
vt 0.937500 0.187500
vt 0.937500 0.625000
vt 0.937500 0.125000
vt 0.937500 0.562500
vt 0.937500 0.500000
vt 0.953125 1.000000
vt 0.937500 0.937500
vt 0.906250 0.250000
vt 0.906250 0.187500
vt 0.906250 0.625000
vt 0.906250 0.125000
vt 0.906250 0.562500
vt 0.906250 0.062500
vt 0.906250 0.500000
vt 0.921875 1.000000
vt 0.906250 0.937500
vt 0.921875 0.000000
vt 0.906250 0.437500
vt 0.906250 0.875000
vt 0.906250 0.375000
vt 0.906250 0.812500
vt 0.906250 0.312500
vt 0.906250 0.750000
vt 0.906250 0.687500
vt 0.875000 0.875000
vt 0.875000 0.375000
vt 0.875000 0.812500
vt 0.875000 0.312500
vt 0.875000 0.750000
vt 0.875000 0.250000
vt 0.875000 0.687500
vt 0.875000 0.187500
vt 0.875000 0.625000
vt 0.875000 0.125000
vt 0.875000 0.562500
vt 0.875000 0.062500
vt 0.875000 0.500000
vt 0.890625 1.000000
vt 0.875000 0.937500
vt 0.890625 0.000000
vt 0.875000 0.437500
vt 0.843750 0.625000
vt 0.843750 0.125000
vt 0.843750 0.562500
vt 0.843750 0.062500
vt 0.843750 0.500000
vt 0.859375 1.000000
vt 0.843750 0.937500
vt 0.859375 0.000000
vt 0.843750 0.437500
vt 0.843750 0.875000
vt 0.843750 0.375000
vt 0.843750 0.812500
vt 0.843750 0.312500
vt 0.843750 0.750000
vt 0.843750 0.250000
vt 0.843750 0.687500
vt 0.843750 0.187500
vt 0.812500 0.375000
vt 0.812500 0.812500
vt 0.812500 0.312500
vt 0.812500 0.750000
vt 0.812500 0.250000
vt 0.812500 0.687500
vt 0.812500 0.187500
vt 0.812500 0.625000
vt 0.812500 0.125000
vt 0.812500 0.562500
vt 0.812500 0.062500
vt 0.812500 0.500000
vt 0.828125 1.000000
vt 0.812500 0.937500
vt 0.828125 0.000000
vt 0.812500 0.437500
vt 0.812500 0.875000
vt 0.781250 0.125000
vt 0.781250 0.625000
vt 0.781250 0.562500
vt 0.781250 0.062500
vt 0.781250 0.500000
vt 0.796875 1.000000
vt 0.781250 0.937500
vt 0.796875 0.000000
vt 0.781250 0.437500
vt 0.781250 0.875000
vt 0.781250 0.375000
vt 0.781250 0.812500
vt 0.781250 0.312500
vt 0.781250 0.750000
vt 0.781250 0.250000
vt 0.781250 0.687500
vt 0.781250 0.187500
vt 0.765625 1.000000
vt 0.765625 0.000000
s 0
g off
g Sphere_Material.007
usemtl Material.007
f 6/1/1 18/2/1 478/3/1
f 2/4/2 10/5/2 11/6/2
f 478/3/3 19/7/3 7/8/3
f 476/9/4 11/6/4 12/10/4
f 7/8/5 20/11/5 479/12/5
f 3/13/6 12/10/6 13/14/6
f 479/12/7 21/15/7 480/16/7
f 477/17/8 13/14/8 14/18/8
f 480/16/9 22/19/9 481/20/9
f 4/21/10 14/18/10 15/22/10
f 481/20/11 23/23/11 482/24/11
f 4/21/12 16/25/12 5/26/12
f 474/27/13 1/28/13 9/29/13
f 8/30/14 482/24/14 23/23/14
f 5/26/15 17/31/15 6/1/15
f 475/32/16 9/29/16 10/5/16
f 16/25/17 32/33/17 17/31/17
f 9/29/18 25/34/18 10/5/18
f 17/31/19 33/35/19 18/2/19
f 10/5/20 26/36/20 11/6/20
f 18/2/21 34/37/21 19/7/21
f 11/6/22 27/38/22 12/10/22
f 19/7/23 35/39/23 20/11/23
f 12/10/24 28/40/24 13/14/24
f 21/15/25 35/39/25 36/41/25
f 13/14/26 29/42/26 14/18/26
f 22/19/27 36/41/27 37/43/27
f 15/22/28 29/42/28 30/44/28
f 22/19/29 38/45/29 23/23/29
f 15/22/30 31/46/30 16/25/30
f 9/29/31 1/47/31 24/48/31
f 8/49/32 23/23/32 38/45/32
f 36/41/33 50/50/33 51/51/33
f 28/40/34 44/52/34 29/42/34
f 36/41/35 52/53/35 37/43/35
f 29/42/36 45/54/36 30/44/36
f 37/43/37 53/55/37 38/45/37
f 30/44/38 46/56/38 31/46/38
f 24/48/39 1/57/39 39/58/39
f 8/59/40 38/45/40 53/55/40
f 32/33/41 46/56/41 47/60/41
f 24/48/42 40/61/42 25/34/42
f 32/33/43 48/62/43 33/35/43
f 25/34/44 41/63/44 26/36/44
f 34/37/45 48/62/45 49/64/45
f 26/36/46 42/65/46 27/38/46
f 35/39/47 49/64/47 50/50/47
f 27/38/48 43/66/48 28/40/48
f 39/58/49 55/67/49 40/61/49
f 47/60/50 63/68/50 48/62/50
f 40/61/51 56/69/51 41/63/51
f 49/64/52 63/68/52 64/70/52
f 41/63/53 57/71/53 42/65/53
f 49/64/54 65/72/54 50/50/54
f 42/65/55 58/73/55 43/66/55
f 50/50/56 66/74/56 51/51/56
f 43/66/57 59/75/57 44/52/57
f 51/51/58 67/76/58 52/53/58
f 45/54/59 59/75/59 60/77/59
f 52/53/60 68/78/60 53/55/60
f 46/56/61 60/77/61 61/79/61
f 39/58/62 1/80/62 54/81/62
f 8/82/63 53/55/63 68/78/63
f 46/56/64 62/83/64 47/60/64
f 58/73/65 74/84/65 59/75/65
f 67/76/66 81/85/66 82/86/66
f 60/77/67 74/84/67 75/87/67
f 67/76/68 83/88/68 68/78/68
f 61/79/69 75/87/69 76/89/69
f 54/81/70 1/90/70 69/91/70
f 8/92/71 68/78/71 83/88/71
f 61/79/72 77/93/72 62/83/72
f 54/81/73 70/94/73 55/67/73
f 62/83/74 78/95/74 63/68/74
f 55/67/75 71/96/75 56/69/75
f 64/70/76 78/95/76 79/97/76
f 56/69/77 72/98/77 57/71/77
f 64/70/78 80/99/78 65/72/78
f 58/73/79 72/98/79 73/100/79
f 65/72/80 81/85/80 66/74/80
f 77/93/81 93/101/81 78/95/81
f 70/94/82 86/102/82 71/96/82
f 79/97/83 93/101/83 94/103/83
f 71/96/84 87/104/84 72/98/84
f 79/97/85 95/105/85 80/99/85
f 73/100/86 87/104/86 88/106/86
f 80/99/87 96/107/87 81/85/87
f 73/100/88 89/108/88 74/84/88
f 81/85/89 97/109/89 82/86/89
f 75/87/90 89/108/90 90/110/90
f 83/88/91 97/109/91 98/111/91
f 76/89/92 90/110/92 91/112/92
f 69/91/93 1/113/93 84/114/93
f 8/115/94 83/88/94 98/111/94
f 76/89/95 92/116/95 77/93/95
f 69/91/96 85/117/96 70/94/96
f 97/109/97 111/118/97 112/119/97
f 90/110/98 104/120/98 105/121/98
f 97/109/99 113/122/99 98/111/99
f 91/112/100 105/121/100 106/123/100
f 84/114/101 1/124/101 99/125/101
f 8/126/102 98/111/102 113/122/102
f 91/112/103 107/127/103 92/116/103
f 85/117/104 99/125/104 100/128/104
f 92/116/105 108/129/105 93/101/105
f 85/117/106 101/130/106 86/102/106
f 94/103/107 108/129/107 109/131/107
f 86/102/108 102/132/108 87/104/108
f 94/103/109 110/133/109 95/105/109
f 88/106/110 102/132/110 103/134/110
f 96/107/111 110/133/111 111/118/111
f 88/106/112 104/120/112 89/108/112
f 109/131/113 123/135/113 124/136/113
f 101/130/114 117/137/114 102/132/114
f 109/131/115 125/138/115 110/133/115
f 103/134/116 117/137/116 118/139/116
f 111/118/117 125/138/117 126/140/117
f 103/134/118 119/141/118 104/120/118
f 111/118/119 127/142/119 112/119/119
f 105/121/120 119/141/120 120/143/120
f 112/119/121 128/144/121 113/122/121
f 106/123/122 120/143/122 121/145/122
f 99/125/123 1/146/123 114/147/123
f 8/148/124 113/122/124 128/144/124
f 106/123/125 122/149/125 107/127/125
f 100/128/126 114/147/126 115/150/126
f 107/127/127 123/135/127 108/129/127
f 100/128/128 116/151/128 101/130/128
f 127/142/129 143/152/129 128/144/129
f 121/145/130 135/153/130 136/154/130
f 114/147/131 1/155/131 129/156/131
f 8/157/132 128/144/132 143/152/132
f 121/145/133 137/158/133 122/149/133
f 114/147/134 130/159/134 115/150/134
f 122/149/135 138/160/135 123/135/135
f 115/150/136 131/161/136 116/151/136
f 124/136/137 138/160/137 139/162/137
f 116/151/138 132/163/138 117/137/138
f 124/136/139 140/164/139 125/138/139
f 118/139/140 132/163/140 133/165/140
f 126/140/141 140/164/141 141/166/141
f 118/139/142 134/167/142 119/141/142
f 126/140/143 142/168/143 127/142/143
f 120/143/144 134/167/144 135/153/144
f 131/161/145 147/169/145 132/163/145
f 139/162/146 155/170/146 140/164/146
f 133/165/147 147/169/147 148/171/147
f 141/166/148 155/170/148 156/172/148
f 133/165/149 149/173/149 134/167/149
f 141/166/150 157/174/150 142/168/150
f 135/153/151 149/173/151 150/175/151
f 143/152/152 157/174/152 158/176/152
f 136/154/153 150/175/153 151/177/153
f 129/156/154 1/178/154 144/179/154
f 8/180/155 143/152/155 158/176/155
f 136/154/156 152/181/156 137/158/156
f 129/156/157 145/182/157 130/159/157
f 137/158/158 153/183/158 138/160/158
f 131/161/159 145/182/159 146/184/159
f 139/162/160 153/183/160 154/185/160
f 151/177/161 165/186/161 166/187/161
f 144/179/162 1/188/162 159/189/162
f 8/190/163 158/176/163 173/191/163
f 151/177/164 167/192/164 152/181/164
f 144/179/165 160/193/165 145/182/165
f 152/181/166 168/194/166 153/183/166
f 146/184/167 160/193/167 161/195/167
f 154/185/168 168/194/168 169/196/168
f 146/184/169 162/197/169 147/169/169
f 154/185/170 170/198/170 155/170/170
f 148/171/171 162/197/171 163/199/171
f 156/172/172 170/198/172 171/200/172
f 148/171/173 164/201/173 149/173/173
f 156/172/174 172/202/174 157/174/174
f 150/175/175 164/201/175 165/186/175
f 157/174/176 173/191/176 158/176/176
f 169/196/177 185/203/177 170/198/177
f 163/199/178 177/204/178 178/205/178
f 170/198/179 186/206/179 171/200/179
f 163/199/180 179/207/180 164/201/180
f 172/202/181 186/206/181 187/208/181
f 165/186/182 179/207/182 180/209/182
f 173/191/183 187/208/183 188/210/183
f 166/187/184 180/209/184 181/211/184
f 159/189/185 1/212/185 174/213/185
f 8/214/186 173/191/186 188/210/186
f 166/187/187 182/215/187 167/192/187
f 159/189/188 175/216/188 160/193/188
f 167/192/189 183/217/189 168/194/189
f 160/193/190 176/218/190 161/195/190
f 169/196/191 183/217/191 184/219/191
f 161/195/192 177/204/192 162/197/192
f 174/213/193 1/220/193 189/221/193
f 8/222/194 188/210/194 203/223/194
f 181/211/195 197/224/195 182/215/195
f 175/216/196 189/221/196 190/225/196
f 182/215/197 198/226/197 183/217/197
f 176/218/198 190/225/198 191/227/198
f 184/219/199 198/226/199 199/228/199
f 176/218/200 192/229/200 177/204/200
f 184/219/201 200/230/201 185/203/201
f 178/205/202 192/229/202 193/231/202
f 186/206/203 200/230/203 201/232/203
f 178/205/204 194/233/204 179/207/204
f 186/206/205 202/234/205 187/208/205
f 180/209/206 194/233/206 195/235/206
f 187/208/207 203/223/207 188/210/207
f 181/211/208 195/235/208 196/236/208
f 193/231/209 207/237/209 208/238/209
f 201/232/210 215/239/210 216/240/210
f 193/231/211 209/241/211 194/233/211
f 201/232/212 217/242/212 202/234/212
f 195/235/213 209/241/213 210/243/213
f 202/234/214 218/244/214 203/223/214
f 196/236/215 210/243/215 211/245/215
f 189/221/216 1/246/216 204/247/216
f 8/248/217 203/223/217 218/244/217
f 196/236/218 212/249/218 197/224/218
f 189/221/219 205/250/219 190/225/219
f 197/224/220 213/251/220 198/226/220
f 190/225/221 206/252/221 191/227/221
f 199/228/222 213/251/222 214/253/222
f 191/227/223 207/237/223 192/229/223
f 199/228/224 215/239/224 200/230/224
f 211/245/225 227/254/225 212/249/225
f 204/247/226 220/255/226 205/250/226
f 212/249/227 228/256/227 213/251/227
f 205/250/228 221/257/228 206/252/228
f 214/253/229 228/256/229 229/258/229
f 206/252/230 222/259/230 207/237/230
f 214/253/231 230/260/231 215/239/231
f 208/238/232 222/259/232 223/261/232
f 216/240/233 230/260/233 231/262/233
f 208/238/234 224/263/234 209/241/234
f 216/240/235 232/264/235 217/242/235
f 210/243/236 224/263/236 225/265/236
f 217/242/237 233/266/237 218/244/237
f 211/245/238 225/265/238 226/267/238
f 204/247/239 1/268/239 219/269/239
f 8/270/240 218/244/240 233/266/240
f 231/262/241 245/271/241 246/272/241
f 223/261/242 239/273/242 224/263/242
f 231/262/243 247/274/243 232/264/243
f 225/265/244 239/273/244 240/275/244
f 233/266/245 247/274/245 248/276/245
f 226/267/246 240/275/246 241/277/246
f 219/269/247 1/278/247 234/279/247
f 8/280/248 233/266/248 248/276/248
f 226/267/249 242/281/249 227/254/249
f 219/269/250 235/282/250 220/255/250
f 227/254/251 243/283/251 228/256/251
f 221/257/252 235/282/252 236/284/252
f 229/258/253 243/283/253 244/285/253
f 221/257/254 237/286/254 222/259/254
f 229/258/255 245/271/255 230/260/255
f 223/261/256 237/286/256 238/287/256
f 242/281/257 258/288/257 243/283/257
f 235/282/258 251/289/258 236/284/258
f 244/285/259 258/288/259 259/290/259
f 236/284/260 252/291/260 237/286/260
f 244/285/261 260/292/261 245/271/261
f 238/287/262 252/291/262 253/293/262
f 246/272/263 260/292/263 261/294/263
f 238/287/264 254/295/264 239/273/264
f 246/272/265 262/296/265 247/274/265
f 240/275/266 254/295/266 255/297/266
f 247/274/267 263/298/267 248/276/267
f 241/277/268 255/297/268 256/299/268
f 234/279/269 1/300/269 249/301/269
f 8/302/270 248/276/270 263/298/270
f 241/277/271 257/303/271 242/281/271
f 234/279/272 250/304/272 235/282/272
f 261/294/273 277/305/273 262/296/273
f 255/297/274 269/306/274 270/307/274
f 262/296/275 278/308/275 263/298/275
f 256/299/276 270/307/276 271/309/276
f 249/301/277 1/310/277 264/311/277
f 8/312/278 263/298/278 278/308/278
f 256/299/279 272/313/279 257/303/279
f 250/304/280 264/311/280 265/314/280
f 257/303/281 273/315/281 258/288/281
f 250/304/282 266/316/282 251/289/282
f 259/290/283 273/315/283 274/317/283
f 251/289/284 267/318/284 252/291/284
f 259/290/285 275/319/285 260/292/285
f 253/293/286 267/318/286 268/320/286
f 261/294/287 275/319/287 276/321/287
f 253/293/288 269/306/288 254/295/288
f 265/314/289 281/322/289 266/316/289
f 274/317/290 288/323/290 289/324/290
f 266/316/291 282/325/291 267/318/291
f 274/317/292 290/326/292 275/319/292
f 268/320/293 282/325/293 283/327/293
f 276/321/294 290/326/294 291/328/294
f 268/320/295 284/329/295 269/306/295
f 276/321/296 292/330/296 277/305/296
f 270/307/297 284/329/297 285/331/297
f 278/308/298 292/330/298 293/332/298
f 271/309/299 285/331/299 286/333/299
f 264/311/300 1/334/300 279/335/300
f 8/336/301 278/308/301 293/332/301
f 271/309/302 287/337/302 272/313/302
f 265/314/303 279/335/303 280/338/303
f 272/313/304 288/323/304 273/315/304
f 285/331/305 299/339/305 300/340/305
f 293/332/306 307/341/306 308/342/306
f 286/333/307 300/340/307 301/343/307
f 279/335/308 1/344/308 294/345/308
f 8/346/309 293/332/309 308/342/309
f 286/333/310 302/347/310 287/337/310
f 279/335/311 295/348/311 280/338/311
f 287/337/312 303/349/312 288/323/312
f 280/338/313 296/350/313 281/322/313
f 289/324/314 303/349/314 304/351/314
f 281/322/315 297/352/315 282/325/315
f 289/324/316 305/353/316 290/326/316
f 283/327/317 297/352/317 298/354/317
f 291/328/318 305/353/318 306/355/318
f 283/327/319 299/339/319 284/329/319
f 291/328/320 307/341/320 292/330/320
f 304/351/321 318/356/321 319/357/321
f 296/350/322 312/358/322 297/352/322
f 304/351/323 320/359/323 305/353/323
f 298/354/324 312/358/324 313/360/324
f 306/355/325 320/359/325 321/361/325
f 298/354/326 314/362/326 299/339/326
f 306/355/327 322/363/327 307/341/327
f 300/340/328 314/362/328 315/364/328
f 307/341/329 323/365/329 308/342/329
f 301/343/330 315/364/330 316/366/330
f 294/345/331 1/367/331 309/368/331
f 8/369/332 308/342/332 323/365/332
f 301/343/333 317/370/333 302/347/333
f 294/345/334 310/371/334 295/348/334
f 302/347/335 318/356/335 303/349/335
f 295/348/336 311/372/336 296/350/336
f 322/363/337 338/373/337 323/365/337
f 316/366/338 330/374/338 331/375/338
f 309/368/339 1/376/339 324/377/339
f 8/378/340 323/365/340 338/373/340
f 316/366/341 332/379/341 317/370/341
f 309/368/342 325/380/342 310/371/342
f 317/370/343 333/381/343 318/356/343
f 310/371/344 326/382/344 311/372/344
f 319/357/345 333/381/345 334/383/345
f 311/372/346 327/384/346 312/358/346
f 319/357/347 335/385/347 320/359/347
f 312/358/348 328/386/348 313/360/348
f 321/361/349 335/385/349 336/387/349
f 313/360/350 329/388/350 314/362/350
f 321/361/351 337/389/351 322/363/351
f 315/364/352 329/388/352 330/374/352
f 326/382/353 342/390/353 327/384/353
f 334/383/354 350/391/354 335/385/354
f 328/386/355 342/390/355 343/392/355
f 336/387/356 350/391/356 351/393/356
f 328/386/357 344/394/357 329/388/357
f 336/387/358 352/395/358 337/389/358
f 330/374/359 344/394/359 345/396/359
f 337/389/360 353/397/360 338/373/360
f 331/375/361 345/396/361 346/398/361
f 324/377/362 1/399/362 339/400/362
f 8/401/363 338/373/363 353/397/363
f 331/375/364 347/402/364 332/379/364
f 324/377/365 340/403/365 325/380/365
f 332/379/366 348/404/366 333/381/366
f 325/380/367 341/405/367 326/382/367
f 334/383/368 348/404/368 349/406/368
f 346/398/369 360/407/369 361/408/369
f 339/400/370 1/409/370 354/410/370
f 8/411/371 353/397/371 368/412/371
f 346/398/372 362/413/372 347/402/372
f 339/400/373 355/414/373 340/403/373
f 347/402/374 363/415/374 348/404/374
f 341/405/375 355/414/375 356/416/375
f 349/406/376 363/415/376 364/417/376
f 341/405/377 357/418/377 342/390/377
f 349/406/378 365/419/378 350/391/378
f 343/392/379 357/418/379 358/420/379
f 351/393/380 365/419/380 366/421/380
f 343/392/381 359/422/381 344/394/381
f 351/393/382 367/423/382 352/395/382
f 345/396/383 359/422/383 360/407/383
f 352/395/384 368/412/384 353/397/384
f 364/424/385 380/425/385 365/426/385
f 358/427/386 372/428/386 373/429/386
f 366/430/387 380/425/387 381/431/387
f 358/427/388 374/432/388 359/433/388
f 366/430/389 382/434/389 367/435/389
f 360/436/390 374/432/390 375/437/390
f 367/435/391 383/438/391 368/439/391
f 361/440/392 375/437/392 376/441/392
f 354/442/393 1/443/393 369/444/393
f 8/445/394 368/439/394 383/438/394
f 361/440/395 377/446/395 362/447/395
f 354/442/396 370/448/396 355/449/396
f 362/447/397 378/450/397 363/451/397
f 356/452/398 370/448/398 371/453/398
f 364/424/399 378/450/399 379/454/399
f 356/452/400 372/428/400 357/455/400
f 8/456/401 383/438/401 398/457/401
f 376/441/402 392/458/402 377/446/402
f 369/444/403 385/459/403 370/448/403
f 377/446/404 393/460/404 378/450/404
f 371/453/405 385/459/405 386/461/405
f 379/454/406 393/460/406 394/462/406
f 371/453/407 387/463/407 372/428/407
f 379/454/408 395/464/408 380/425/408
f 373/429/409 387/463/409 388/465/409
f 381/431/410 395/464/410 396/466/410
f 373/429/411 389/467/411 374/432/411
f 381/431/412 397/468/412 382/434/412
f 375/437/413 389/467/413 390/469/413
f 382/434/414 398/457/414 383/438/414
f 376/441/415 390/469/415 391/470/415
f 369/444/416 1/471/416 384/472/416
f 396/466/417 410/473/417 411/474/417
f 388/465/418 404/475/418 389/467/418
f 397/468/419 411/474/419 412/476/419
f 390/469/420 404/475/420 405/477/420
f 397/468/421 413/478/421 398/457/421
f 391/470/422 405/477/422 406/479/422
f 384/472/423 1/480/423 399/481/423
f 8/482/424 398/457/424 413/478/424
f 391/470/425 407/483/425 392/458/425
f 385/459/426 399/481/426 400/484/426
f 392/458/427 408/485/427 393/460/427
f 385/459/428 401/486/428 386/461/428
f 394/462/429 408/485/429 409/487/429
f 386/461/430 402/488/430 387/463/430
f 394/462/431 410/473/431 395/464/431
f 388/465/432 402/488/432 403/489/432
f 399/481/433 415/490/433 400/484/433
f 407/483/434 423/491/434 408/485/434
f 401/486/435 415/490/435 416/492/435
f 409/487/436 423/491/436 424/493/436
f 401/486/437 417/494/437 402/488/437
f 409/487/438 425/495/438 410/473/438
f 403/489/439 417/494/439 418/496/439
f 411/474/440 425/495/440 426/497/440
f 403/489/441 419/498/441 404/475/441
f 411/474/442 427/499/442 412/476/442
f 405/477/443 419/498/443 420/500/443
f 412/476/444 428/501/444 413/478/444
f 406/479/445 420/500/445 421/502/445
f 399/481/446 1/503/446 414/504/446
f 8/505/447 413/478/447 428/501/447
f 406/479/448 422/506/448 407/483/448
f 418/496/449 434/507/449 419/498/449
f 426/497/450 442/508/450 427/499/450
f 420/500/451 434/507/451 435/509/451
f 427/499/452 443/510/452 428/501/452
f 421/502/453 435/509/453 436/511/453
f 414/504/454 1/512/454 429/513/454
f 8/514/455 428/501/455 443/510/455
f 421/502/456 437/515/456 422/506/456
f 414/504/457 430/516/457 415/490/457
f 422/506/458 438/517/458 423/491/458
f 416/492/459 430/516/459 431/518/459
f 424/493/460 438/517/460 439/519/460
f 416/492/461 432/520/461 417/494/461
f 424/493/462 440/521/462 425/495/462
f 418/496/463 432/520/463 433/522/463
f 426/497/464 440/521/464 441/523/464
f 437/515/465 453/524/465 438/517/465
f 430/516/466 446/525/466 431/518/466
f 439/519/467 453/524/467 454/526/467
f 431/518/468 447/527/468 432/520/468
f 439/519/469 455/528/469 440/521/469
f 433/522/470 447/527/470 448/529/470
f 441/523/471 455/528/471 456/530/471
f 433/522/472 449/531/472 434/507/472
f 441/523/473 457/532/473 442/508/473
f 435/509/474 449/531/474 450/533/474
f 442/508/475 458/534/475 443/510/475
f 436/511/476 450/533/476 451/535/476
f 429/513/477 1/536/477 444/537/477
f 8/538/478 443/510/478 458/534/478
f 436/511/479 452/539/479 437/515/479
f 430/516/480 444/537/480 445/540/480
f 456/530/481 472/541/481 457/532/481
f 450/533/482 464/542/482 465/543/482
f 458/534/483 472/541/483 473/544/483
f 451/535/484 465/543/484 466/545/484
f 444/537/485 1/546/485 459/547/485
f 8/548/486 458/534/486 473/544/486
f 451/535/487 467/549/487 452/539/487
f 444/537/488 460/550/488 445/540/488
f 452/539/489 468/551/489 453/524/489
f 446/525/490 460/550/490 461/552/490
f 454/526/491 468/551/491 469/553/491
f 446/525/492 462/554/492 447/527/492
f 454/526/493 470/555/493 455/528/493
f 448/529/494 462/554/494 463/556/494
f 456/530/495 470/555/495 471/557/495
f 448/529/496 464/542/496 449/531/496
f 461/552/497 475/32/497 2/4/497
f 468/551/498 7/8/498 469/553/498
f 462/554/499 2/4/499 476/9/499
f 469/553/500 479/12/500 470/555/500
f 463/556/501 476/9/501 3/13/501
f 471/557/502 479/12/502 480/16/502
f 464/542/503 3/13/503 477/17/503
f 471/557/504 481/20/504 472/541/504
f 465/543/505 477/17/505 4/21/505
f 472/541/506 482/24/506 473/544/506
f 466/545/507 4/21/507 5/26/507
f 459/547/508 1/558/508 474/27/508
f 8/559/509 473/544/509 482/24/509
f 466/545/510 6/1/510 467/549/510
f 460/550/511 474/27/511 475/32/511
f 467/549/512 478/3/512 468/551/512
f 6/1/1 17/31/1 18/2/1
f 2/4/2 475/32/2 10/5/2
f 478/3/3 18/2/3 19/7/3
f 476/9/4 2/4/4 11/6/4
f 7/8/5 19/7/5 20/11/5
f 3/13/6 476/9/6 12/10/6
f 479/12/7 20/11/7 21/15/7
f 477/17/8 3/13/8 13/14/8
f 480/16/9 21/15/9 22/19/9
f 4/21/10 477/17/10 14/18/10
f 481/20/11 22/19/11 23/23/11
f 4/21/513 15/22/513 16/25/513
f 5/26/514 16/25/514 17/31/514
f 475/32/16 474/27/16 9/29/16
f 16/25/17 31/46/17 32/33/17
f 9/29/18 24/48/18 25/34/18
f 17/31/19 32/33/19 33/35/19
f 10/5/20 25/34/20 26/36/20
f 18/2/21 33/35/21 34/37/21
f 11/6/22 26/36/22 27/38/22
f 19/7/23 34/37/23 35/39/23
f 12/10/24 27/38/24 28/40/24
f 21/15/25 20/11/25 35/39/25
f 13/14/26 28/40/26 29/42/26
f 22/19/27 21/15/27 36/41/27
f 15/22/28 14/18/28 29/42/28
f 22/19/29 37/43/29 38/45/29
f 15/22/30 30/44/30 31/46/30
f 36/41/33 35/39/33 50/50/33
f 28/40/34 43/66/34 44/52/34
f 36/41/515 51/51/515 52/53/515
f 29/42/36 44/52/36 45/54/36
f 37/43/37 52/53/37 53/55/37
f 30/44/38 45/54/38 46/56/38
f 32/33/41 31/46/41 46/56/41
f 24/48/42 39/58/42 40/61/42
f 32/33/43 47/60/43 48/62/43
f 25/34/516 40/61/516 41/63/516
f 34/37/45 33/35/45 48/62/45
f 26/36/46 41/63/46 42/65/46
f 35/39/47 34/37/47 49/64/47
f 27/38/48 42/65/48 43/66/48
f 39/58/49 54/81/49 55/67/49
f 47/60/50 62/83/50 63/68/50
f 40/61/51 55/67/51 56/69/51
f 49/64/52 48/62/52 63/68/52
f 41/63/53 56/69/53 57/71/53
f 49/64/54 64/70/54 65/72/54
f 42/65/55 57/71/55 58/73/55
f 50/50/56 65/72/56 66/74/56
f 43/66/57 58/73/57 59/75/57
f 51/51/58 66/74/58 67/76/58
f 45/54/59 44/52/59 59/75/59
f 52/53/60 67/76/60 68/78/60
f 46/56/61 45/54/61 60/77/61
f 46/56/64 61/79/64 62/83/64
f 58/73/65 73/100/65 74/84/65
f 67/76/66 66/74/66 81/85/66
f 60/77/67 59/75/67 74/84/67
f 67/76/517 82/86/517 83/88/517
f 61/79/69 60/77/69 75/87/69
f 61/79/72 76/89/72 77/93/72
f 54/81/73 69/91/73 70/94/73
f 62/83/74 77/93/74 78/95/74
f 55/67/75 70/94/75 71/96/75
f 64/70/76 63/68/76 78/95/76
f 56/69/77 71/96/77 72/98/77
f 64/70/78 79/97/78 80/99/78
f 58/73/79 57/71/79 72/98/79
f 65/72/80 80/99/80 81/85/80
f 77/93/81 92/116/81 93/101/81
f 70/94/82 85/117/82 86/102/82
f 79/97/83 78/95/83 93/101/83
f 71/96/84 86/102/84 87/104/84
f 79/97/85 94/103/85 95/105/85
f 73/100/86 72/98/86 87/104/86
f 80/99/87 95/105/87 96/107/87
f 73/100/88 88/106/88 89/108/88
f 81/85/89 96/107/89 97/109/89
f 75/87/90 74/84/90 89/108/90
f 83/88/91 82/86/91 97/109/91
f 76/89/92 75/87/92 90/110/92
f 76/89/95 91/112/95 92/116/95
f 69/91/96 84/114/96 85/117/96
f 97/109/97 96/107/97 111/118/97
f 90/110/98 89/108/98 104/120/98
f 97/109/99 112/119/99 113/122/99
f 91/112/100 90/110/100 105/121/100
f 91/112/103 106/123/103 107/127/103
f 85/117/104 84/114/104 99/125/104
f 92/116/105 107/127/105 108/129/105
f 85/117/106 100/128/106 101/130/106
f 94/103/107 93/101/107 108/129/107
f 86/102/108 101/130/108 102/132/108
f 94/103/109 109/131/109 110/133/109
f 88/106/110 87/104/110 102/132/110
f 96/107/111 95/105/111 110/133/111
f 88/106/112 103/134/112 104/120/112
f 109/131/113 108/129/113 123/135/113
f 101/130/114 116/151/114 117/137/114
f 109/131/115 124/136/115 125/138/115
f 103/134/116 102/132/116 117/137/116
f 111/118/117 110/133/117 125/138/117
f 103/134/118 118/139/118 119/141/118
f 111/118/119 126/140/119 127/142/119
f 105/121/120 104/120/120 119/141/120
f 112/119/121 127/142/121 128/144/121
f 106/123/122 105/121/122 120/143/122
f 106/123/125 121/145/125 122/149/125
f 100/128/126 99/125/126 114/147/126
f 107/127/127 122/149/127 123/135/127
f 100/128/128 115/150/128 116/151/128
f 127/142/129 142/168/129 143/152/129
f 121/145/130 120/143/130 135/153/130
f 121/145/133 136/154/133 137/158/133
f 114/147/134 129/156/134 130/159/134
f 122/149/135 137/158/135 138/160/135
f 115/150/136 130/159/136 131/161/136
f 124/136/137 123/135/137 138/160/137
f 116/151/138 131/161/138 132/163/138
f 124/136/139 139/162/139 140/164/139
f 118/139/140 117/137/140 132/163/140
f 126/140/141 125/138/141 140/164/141
f 118/139/142 133/165/142 134/167/142
f 126/140/143 141/166/143 142/168/143
f 120/143/144 119/141/144 134/167/144
f 131/161/145 146/184/145 147/169/145
f 139/162/146 154/185/146 155/170/146
f 133/165/147 132/163/147 147/169/147
f 141/166/148 140/164/148 155/170/148
f 133/165/149 148/171/149 149/173/149
f 141/166/150 156/172/150 157/174/150
f 135/153/151 134/167/151 149/173/151
f 143/152/152 142/168/152 157/174/152
f 136/154/153 135/153/153 150/175/153
f 136/154/156 151/177/156 152/181/156
f 129/156/157 144/179/157 145/182/157
f 137/158/158 152/181/158 153/183/158
f 131/161/159 130/159/159 145/182/159
f 139/162/160 138/160/160 153/183/160
f 151/177/161 150/175/161 165/186/161
f 151/177/164 166/187/164 167/192/164
f 144/179/165 159/189/165 160/193/165
f 152/181/166 167/192/166 168/194/166
f 146/184/518 145/182/518 160/193/518
f 154/185/168 153/183/168 168/194/168
f 146/184/169 161/195/169 162/197/169
f 154/185/170 169/196/170 170/198/170
f 148/171/171 147/169/171 162/197/171
f 156/172/172 155/170/172 170/198/172
f 148/171/173 163/199/173 164/201/173
f 156/172/519 171/200/519 172/202/519
f 150/175/175 149/173/175 164/201/175
f 157/174/176 172/202/176 173/191/176
f 169/196/177 184/219/177 185/203/177
f 163/199/178 162/197/178 177/204/178
f 170/198/179 185/203/179 186/206/179
f 163/199/180 178/205/180 179/207/180
f 172/202/181 171/200/181 186/206/181
f 165/186/182 164/201/182 179/207/182
f 173/191/183 172/202/183 187/208/183
f 166/187/184 165/186/184 180/209/184
f 166/187/187 181/211/187 182/215/187
f 159/189/188 174/213/188 175/216/188
f 167/192/189 182/215/189 183/217/189
f 160/193/190 175/216/190 176/218/190
f 169/196/191 168/194/191 183/217/191
f 161/195/192 176/218/192 177/204/192
f 181/211/195 196/236/195 197/224/195
f 175/216/196 174/213/196 189/221/196
f 182/215/197 197/224/197 198/226/197
f 176/218/198 175/216/198 190/225/198
f 184/219/199 183/217/199 198/226/199
f 176/218/200 191/227/200 192/229/200
f 184/219/201 199/228/201 200/230/201
f 178/205/202 177/204/202 192/229/202
f 186/206/203 185/203/203 200/230/203
f 178/205/204 193/231/204 194/233/204
f 186/206/205 201/232/205 202/234/205
f 180/209/206 179/207/206 194/233/206
f 187/208/207 202/234/207 203/223/207
f 181/211/208 180/209/208 195/235/208
f 193/231/209 192/229/209 207/237/209
f 201/232/210 200/230/210 215/239/210
f 193/231/211 208/238/211 209/241/211
f 201/232/520 216/240/520 217/242/520
f 195/235/213 194/233/213 209/241/213
f 202/234/214 217/242/214 218/244/214
f 196/236/215 195/235/215 210/243/215
f 196/236/218 211/245/218 212/249/218
f 189/221/219 204/247/219 205/250/219
f 197/224/220 212/249/220 213/251/220
f 190/225/221 205/250/221 206/252/221
f 199/228/222 198/226/222 213/251/222
f 191/227/223 206/252/223 207/237/223
f 199/228/224 214/253/224 215/239/224
f 211/245/225 226/267/225 227/254/225
f 204/247/226 219/269/226 220/255/226
f 212/249/227 227/254/227 228/256/227
f 205/250/228 220/255/228 221/257/228
f 214/253/229 213/251/229 228/256/229
f 206/252/230 221/257/230 222/259/230
f 214/253/231 229/258/231 230/260/231
f 208/238/232 207/237/232 222/259/232
f 216/240/233 215/239/233 230/260/233
f 208/238/234 223/261/234 224/263/234
f 216/240/235 231/262/235 232/264/235
f 210/243/236 209/241/236 224/263/236
f 217/242/237 232/264/237 233/266/237
f 211/245/238 210/243/238 225/265/238
f 231/262/241 230/260/241 245/271/241
f 223/261/242 238/287/242 239/273/242
f 231/262/243 246/272/243 247/274/243
f 225/265/244 224/263/244 239/273/244
f 233/266/245 232/264/245 247/274/245
f 226/267/246 225/265/246 240/275/246
f 226/267/249 241/277/249 242/281/249
f 219/269/250 234/279/250 235/282/250
f 227/254/251 242/281/251 243/283/251
f 221/257/252 220/255/252 235/282/252
f 229/258/253 228/256/253 243/283/253
f 221/257/254 236/284/254 237/286/254
f 229/258/255 244/285/255 245/271/255
f 223/261/256 222/259/256 237/286/256
f 242/281/257 257/303/257 258/288/257
f 235/282/258 250/304/258 251/289/258
f 244/285/259 243/283/259 258/288/259
f 236/284/260 251/289/260 252/291/260
f 244/285/261 259/290/261 260/292/261
f 238/287/262 237/286/262 252/291/262
f 246/272/263 245/271/263 260/292/263
f 238/287/264 253/293/264 254/295/264
f 246/272/265 261/294/265 262/296/265
f 240/275/266 239/273/266 254/295/266
f 247/274/267 262/296/267 263/298/267
f 241/277/521 240/275/521 255/297/521
f 241/277/522 256/299/522 257/303/522
f 234/279/272 249/301/272 250/304/272
f 261/294/273 276/321/273 277/305/273
f 255/297/274 254/295/274 269/306/274
f 262/296/275 277/305/275 278/308/275
f 256/299/276 255/297/276 270/307/276
f 256/299/279 271/309/279 272/313/279
f 250/304/280 249/301/280 264/311/280
f 257/303/281 272/313/281 273/315/281
f 250/304/282 265/314/282 266/316/282
f 259/290/283 258/288/283 273/315/283
f 251/289/284 266/316/284 267/318/284
f 259/290/285 274/317/285 275/319/285
f 253/293/286 252/291/286 267/318/286
f 261/294/287 260/292/287 275/319/287
f 253/293/288 268/320/288 269/306/288
f 265/314/523 280/338/523 281/322/523
f 274/317/290 273/315/290 288/323/290
f 266/316/291 281/322/291 282/325/291
f 274/317/292 289/324/292 290/326/292
f 268/320/293 267/318/293 282/325/293
f 276/321/294 275/319/294 290/326/294
f 268/320/295 283/327/295 284/329/295
f 276/321/524 291/328/524 292/330/524
f 270/307/297 269/306/297 284/329/297
f 278/308/298 277/305/298 292/330/298
f 271/309/299 270/307/299 285/331/299
f 271/309/302 286/333/302 287/337/302
f 265/314/303 264/311/303 279/335/303
f 272/313/304 287/337/304 288/323/304
f 285/331/305 284/329/305 299/339/305
f 293/332/306 292/330/306 307/341/306
f 286/333/307 285/331/307 300/340/307
f 286/333/310 301/343/310 302/347/310
f 279/335/311 294/345/311 295/348/311
f 287/337/312 302/347/312 303/349/312
f 280/338/313 295/348/313 296/350/313
f 289/324/314 288/323/314 303/349/314
f 281/322/315 296/350/315 297/352/315
f 289/324/316 304/351/316 305/353/316
f 283/327/317 282/325/317 297/352/317
f 291/328/318 290/326/318 305/353/318
f 283/327/319 298/354/319 299/339/319
f 291/328/320 306/355/320 307/341/320
f 304/351/321 303/349/321 318/356/321
f 296/350/322 311/372/322 312/358/322
f 304/351/323 319/357/323 320/359/323
f 298/354/324 297/352/324 312/358/324
f 306/355/325 305/353/325 320/359/325
f 298/354/326 313/360/326 314/362/326
f 306/355/327 321/361/327 322/363/327
f 300/340/328 299/339/328 314/362/328
f 307/341/525 322/363/525 323/365/525
f 301/343/330 300/340/330 315/364/330
f 301/343/333 316/366/333 317/370/333
f 294/345/334 309/368/334 310/371/334
f 302/347/335 317/370/335 318/356/335
f 295/348/336 310/371/336 311/372/336
f 322/363/337 337/389/337 338/373/337
f 316/366/338 315/364/338 330/374/338
f 316/366/341 331/375/341 332/379/341
f 309/368/342 324/377/342 325/380/342
f 317/370/343 332/379/343 333/381/343
f 310/371/344 325/380/344 326/382/344
f 319/357/345 318/356/345 333/381/345
f 311/372/346 326/382/346 327/384/346
f 319/357/347 334/383/347 335/385/347
f 312/358/348 327/384/348 328/386/348
f 321/361/349 320/359/349 335/385/349
f 313/360/350 328/386/350 329/388/350
f 321/361/526 336/387/526 337/389/526
f 315/364/352 314/362/352 329/388/352
f 326/382/353 341/405/353 342/390/353
f 334/383/354 349/406/354 350/391/354
f 328/386/355 327/384/355 342/390/355
f 336/387/356 335/385/356 350/391/356
f 328/386/357 343/392/357 344/394/357
f 336/387/358 351/393/358 352/395/358
f 330/374/359 329/388/359 344/394/359
f 337/389/360 352/395/360 353/397/360
f 331/375/361 330/374/361 345/396/361
f 331/375/364 346/398/364 347/402/364
f 324/377/365 339/400/365 340/403/365
f 332/379/366 347/402/366 348/404/366
f 325/380/367 340/403/367 341/405/367
f 334/383/368 333/381/368 348/404/368
f 346/398/527 345/396/527 360/407/527
f 346/398/528 361/408/528 362/413/528
f 339/400/373 354/410/373 355/414/373
f 347/402/374 362/413/374 363/415/374
f 341/405/375 340/403/375 355/414/375
f 349/406/376 348/404/376 363/415/376
f 341/405/377 356/416/377 357/418/377
f 349/406/378 364/417/378 365/419/378
f 343/392/379 342/390/379 357/418/379
f 351/393/380 350/391/380 365/419/380
f 343/392/381 358/420/381 359/422/381
f 351/393/382 366/421/382 367/423/382
f 345/396/383 344/394/383 359/422/383
f 352/395/384 367/423/384 368/412/384
f 364/424/385 379/454/385 380/425/385
f 358/427/386 357/455/386 372/428/386
f 366/430/387 365/426/387 380/425/387
f 358/427/388 373/429/388 374/432/388
f 366/430/389 381/431/389 382/434/389
f 360/436/390 359/433/390 374/432/390
f 367/435/391 382/434/391 383/438/391
f 361/440/529 360/436/529 375/437/529
f 361/440/530 376/441/530 377/446/530
f 354/442/396 369/444/396 370/448/396
f 362/447/397 377/446/397 378/450/397
f 356/452/398 355/449/398 370/448/398
f 364/424/399 363/451/399 378/450/399
f 356/452/400 371/453/400 372/428/400
f 376/441/402 391/470/402 392/458/402
f 369/444/403 384/472/403 385/459/403
f 377/446/404 392/458/404 393/460/404
f 371/453/405 370/448/405 385/459/405
f 379/454/406 378/450/406 393/460/406
f 371/453/407 386/461/407 387/463/407
f 379/454/408 394/462/408 395/464/408
f 373/429/409 372/428/409 387/463/409
f 381/431/410 380/425/410 395/464/410
f 373/429/411 388/465/411 389/467/411
f 381/431/412 396/466/412 397/468/412
f 375/437/413 374/432/413 389/467/413
f 382/434/414 397/468/414 398/457/414
f 376/441/415 375/437/415 390/469/415
f 396/466/417 395/464/417 410/473/417
f 388/465/418 403/489/418 404/475/418
f 397/468/419 396/466/419 411/474/419
f 390/469/420 389/467/420 404/475/420
f 397/468/421 412/476/421 413/478/421
f 391/470/422 390/469/422 405/477/422
f 391/470/425 406/479/425 407/483/425
f 385/459/426 384/472/426 399/481/426
f 392/458/427 407/483/427 408/485/427
f 385/459/428 400/484/428 401/486/428
f 394/462/429 393/460/429 408/485/429
f 386/461/430 401/486/430 402/488/430
f 394/462/431 409/487/431 410/473/431
f 388/465/432 387/463/432 402/488/432
f 399/481/433 414/504/433 415/490/433
f 407/483/434 422/506/434 423/491/434
f 401/486/435 400/484/435 415/490/435
f 409/487/436 408/485/436 423/491/436
f 401/486/437 416/492/437 417/494/437
f 409/487/438 424/493/438 425/495/438
f 403/489/439 402/488/439 417/494/439
f 411/474/440 410/473/440 425/495/440
f 403/489/441 418/496/441 419/498/441
f 411/474/442 426/497/442 427/499/442
f 405/477/443 404/475/443 419/498/443
f 412/476/444 427/499/444 428/501/444
f 406/479/445 405/477/445 420/500/445
f 406/479/448 421/502/448 422/506/448
f 418/496/449 433/522/449 434/507/449
f 426/497/450 441/523/450 442/508/450
f 420/500/451 419/498/451 434/507/451
f 427/499/452 442/508/452 443/510/452
f 421/502/453 420/500/453 435/509/453
f 421/502/456 436/511/456 437/515/456
f 414/504/457 429/513/457 430/516/457
f 422/506/458 437/515/458 438/517/458
f 416/492/459 415/490/459 430/516/459
f 424/493/460 423/491/460 438/517/460
f 416/492/461 431/518/461 432/520/461
f 424/493/462 439/519/462 440/521/462
f 418/496/463 417/494/463 432/520/463
f 426/497/464 425/495/464 440/521/464
f 437/515/465 452/539/465 453/524/465
f 430/516/466 445/540/466 446/525/466
f 439/519/467 438/517/467 453/524/467
f 431/518/468 446/525/468 447/527/468
f 439/519/469 454/526/469 455/528/469
f 433/522/470 432/520/470 447/527/470
f 441/523/471 440/521/471 455/528/471
f 433/522/472 448/529/472 449/531/472
f 441/523/473 456/530/473 457/532/473
f 435/509/474 434/507/474 449/531/474
f 442/508/475 457/532/475 458/534/475
f 436/511/476 435/509/476 450/533/476
f 436/511/479 451/535/479 452/539/479
f 430/516/480 429/513/480 444/537/480
f 456/530/481 471/557/481 472/541/481
f 450/533/482 449/531/482 464/542/482
f 458/534/483 457/532/483 472/541/483
f 451/535/484 450/533/484 465/543/484
f 451/535/487 466/545/487 467/549/487
f 444/537/488 459/547/488 460/550/488
f 452/539/489 467/549/489 468/551/489
f 446/525/490 445/540/490 460/550/490
f 454/526/491 453/524/491 468/551/491
f 446/525/492 461/552/492 462/554/492
f 454/526/493 469/553/493 470/555/493
f 448/529/494 447/527/494 462/554/494
f 456/530/495 455/528/495 470/555/495
f 448/529/496 463/556/496 464/542/496
f 461/552/497 460/550/497 475/32/497
f 468/551/498 478/3/498 7/8/498
f 462/554/499 461/552/499 2/4/499
f 469/553/500 7/8/500 479/12/500
f 463/556/501 462/554/501 476/9/501
f 471/557/502 470/555/502 479/12/502
f 464/542/503 463/556/503 3/13/503
f 471/557/504 480/16/504 481/20/504
f 465/543/505 464/542/505 477/17/505
f 472/541/506 481/20/506 482/24/506
f 466/545/507 465/543/507 4/21/507
f 466/545/510 5/26/510 6/1/510
f 460/550/511 459/547/511 474/27/511
f 467/549/512 6/1/512 478/3/512
