# Blender 5.0.1
# www.blender.org
mtllib frutaWumpa.mtl
g Fruit_Mesh
v 0.000000 0.493732 0.392450
v 0.000000 0.388880 0.587344
v 0.000000 0.138339 0.692819
v 0.000000 0.002178 0.706392
v 0.000000 -0.132510 0.692819
v 0.000000 -0.375189 0.587344
v -0.026885 0.613392 0.135162
v -0.052738 0.585735 0.265130
v -0.076563 0.531062 0.384910
v -0.097446 0.473904 0.489897
v -0.114585 0.390353 0.576058
v -0.127320 0.270329 0.640081
v -0.135162 0.138339 0.679507
v -0.137810 0.002178 0.692819
v -0.135162 -0.132510 0.679507
v -0.127320 -0.260097 0.640081
v -0.114585 -0.375189 0.576058
v -0.097446 -0.472838 0.489897
v -0.076563 -0.548741 0.384910
v -0.052738 -0.599405 0.265130
v -0.026885 -0.622289 0.135162
v -0.052738 0.626292 0.127320
v -0.103449 0.607787 0.249747
v -0.150184 0.558724 0.362577
v -0.191148 0.487791 0.461473
v -0.224766 0.392382 0.542635
v -0.249747 0.270329 0.602943
v -0.265130 0.138339 0.640081
v -0.270324 0.002178 0.652621
v -0.265130 -0.132510 0.640081
v -0.249747 -0.260097 0.602943
v -0.224766 -0.375189 0.542635
v -0.191148 -0.472838 0.461473
v -0.150184 -0.548741 0.362577
v -0.103449 -0.599405 0.249747
v -0.052738 -0.622289 0.127320
v -0.076563 0.637833 0.114585
v -0.150184 0.625143 0.224767
v -0.218034 0.576852 0.326311
v -0.277504 0.497457 0.415315
v -0.326310 0.392450 0.488358
v -0.362577 0.270328 0.542635
v -0.384909 0.138339 0.576058
v -0.392450 0.002178 0.587344
v -0.384909 -0.132510 0.576058
v -0.362577 -0.260097 0.542635
v -0.326310 -0.375189 0.488358
v -0.277504 -0.472838 0.415315
v -0.218034 -0.548741 0.326311
v -0.150184 -0.599405 0.224767
v -0.076563 -0.622289 0.114585
v -0.097447 0.647985 0.097447
v -0.191148 0.636974 0.191148
v -0.277504 0.584720 0.277504
v -0.353196 0.499495 0.353196
v -0.415314 0.392450 0.415315
v -0.461473 0.270328 0.461473
v -0.489897 0.138338 0.489897
v -0.499495 0.002178 0.499495
v -0.489897 -0.132510 0.489897
v -0.461473 -0.260097 0.461473
v -0.415314 -0.375189 0.415315
v -0.353196 -0.472838 0.353196
v -0.277504 -0.548741 0.277504
v -0.191148 -0.599405 0.191148
v -0.097447 -0.622289 0.097447
v -0.114585 0.656757 0.076563
v -0.224767 0.642279 0.150184
v -0.326310 0.587318 0.218034
v -0.415315 0.499495 0.277505
v -0.488358 0.392450 0.326311
v -0.542634 0.270328 0.362577
v -0.576058 0.138338 0.384910
v -0.587344 0.002178 0.392450
v -0.576058 -0.132510 0.384910
v -0.542634 -0.260097 0.362577
v -0.488358 -0.375189 0.326311
v -0.415315 -0.472838 0.277505
v -0.326310 -0.548741 0.218034
v -0.224767 -0.599405 0.150184
v -0.114585 -0.622289 0.076563
v 0.000000 0.612780 -0.000000
v -0.127320 0.659600 0.052738
v -0.249747 0.646550 0.103449
v -0.362577 0.587344 0.150184
v -0.461473 0.499495 0.191148
v -0.542635 0.392450 0.224767
v -0.602943 0.270328 0.249748
v -0.640081 0.138338 0.265131
v -0.652621 0.002178 0.270325
v -0.640081 -0.132510 0.265131
v -0.602943 -0.260097 0.249748
v -0.542635 -0.375189 0.224767
v -0.461473 -0.472838 0.191148
v -0.362577 -0.548741 0.150184
v -0.249747 -0.599404 0.103449
v -0.127320 -0.622289 0.052738
v -0.135162 0.659600 0.026885
v -0.265130 0.649051 0.052738
v -0.384910 0.587344 0.076563
v -0.489897 0.499495 0.097447
v -0.576058 0.392450 0.114585
v -0.640081 0.270328 0.127320
v -0.679507 0.138338 0.135162
v -0.692819 0.002178 0.137810
v -0.679507 -0.132510 0.135162
v -0.640081 -0.260097 0.127320
v -0.576058 -0.375189 0.114585
v -0.489897 -0.472838 0.097447
v -0.384910 -0.548741 0.076563
v -0.265130 -0.599404 0.052738
v -0.135162 -0.622289 0.026885
v -0.137810 0.659600 -0.000000
v -0.270324 0.649051 -0.000000
v -0.392450 0.587344 -0.000000
v -0.499495 0.499495 0.000000
v -0.587344 0.392450 0.000000
v -0.652621 0.270328 0.000000
v -0.692819 0.138338 0.000000
v -0.706392 0.002178 -0.000000
v -0.692819 -0.132510 0.000000
v -0.652621 -0.260097 0.000000
v -0.587344 -0.375189 0.000000
v -0.499495 -0.472838 0.000000
v -0.392450 -0.548741 0.000000
v -0.270324 -0.599404 0.000000
v -0.137810 -0.622289 0.000000
v -0.135162 0.659600 -0.026885
v -0.265130 0.649051 -0.052738
v -0.384910 0.587344 -0.076563
v -0.489897 0.499495 -0.097446
v -0.576058 0.392450 -0.114585
v -0.640081 0.270328 -0.127320
v -0.679507 0.138338 -0.135162
v -0.692819 0.002178 -0.137810
v -0.679507 -0.132510 -0.135162
v -0.640081 -0.260097 -0.127320
v -0.576058 -0.375189 -0.114585
v -0.489897 -0.472838 -0.097446
v -0.384910 -0.548741 -0.076563
v -0.265130 -0.599405 -0.052738
v -0.135162 -0.622289 -0.026885
v -0.127320 0.659600 -0.052738
v -0.249747 0.646550 -0.103449
v -0.362577 0.587344 -0.150184
v -0.461473 0.499495 -0.191148
v -0.542635 0.392450 -0.224766
v -0.602943 0.270328 -0.249747
v -0.640081 0.138338 -0.265130
v -0.652621 0.002178 -0.270324
v -0.640081 -0.132510 -0.265130
v -0.602943 -0.260097 -0.249747
v -0.542635 -0.375189 -0.224766
v -0.461473 -0.472838 -0.191148
v -0.362577 -0.548741 -0.150184
v -0.249747 -0.599405 -0.103449
v -0.127320 -0.622289 -0.052738
v -0.114585 0.656757 -0.076563
v -0.224767 0.642279 -0.150184
v -0.326310 0.587318 -0.218034
v -0.415315 0.499495 -0.277504
v -0.488358 0.392450 -0.326310
v -0.542635 0.270328 -0.362577
v -0.576058 0.138338 -0.384909
v -0.587343 0.002178 -0.392450
v -0.576058 -0.132510 -0.384909
v -0.542635 -0.260097 -0.362577
v -0.488358 -0.375189 -0.326310
v -0.415315 -0.472839 -0.277504
v -0.326310 -0.548741 -0.218034
v -0.224767 -0.599404 -0.150184
v -0.114585 -0.622289 -0.076563
v -0.097447 0.647985 -0.097447
v -0.191148 0.636974 -0.191148
v -0.277504 0.584720 -0.277504
v -0.353196 0.499495 -0.353196
v -0.415315 0.392450 -0.415314
v -0.461473 0.270328 -0.461473
v -0.489897 0.138338 -0.489897
v -0.499494 0.002178 -0.499494
v -0.489897 -0.132510 -0.489897
v -0.461473 -0.260097 -0.461473
v -0.415315 -0.375189 -0.415314
v -0.353196 -0.472839 -0.353196
v -0.277504 -0.548741 -0.277504
v -0.191148 -0.599404 -0.191148
v -0.097447 -0.622289 -0.097447
v -0.076563 0.637833 -0.114585
v -0.150184 0.625143 -0.224767
v -0.218034 0.576852 -0.326310
v -0.277504 0.497456 -0.415315
v -0.326311 0.392450 -0.488358
v -0.362577 0.270328 -0.542634
v -0.384910 0.138338 -0.576058
v -0.392450 0.002178 -0.587343
v -0.384910 -0.132510 -0.576058
v -0.362577 -0.260097 -0.542634
v -0.326311 -0.375189 -0.488358
v -0.277504 -0.472839 -0.415315
v -0.218034 -0.548741 -0.326310
v -0.150184 -0.599404 -0.224767
v -0.076563 -0.622289 -0.114585
v -0.052738 0.626292 -0.127320
v -0.103449 0.607787 -0.249747
v -0.150184 0.558723 -0.362577
v -0.191148 0.487791 -0.461473
v -0.224767 0.392382 -0.542634
v -0.249748 0.270328 -0.602943
v -0.265130 0.138338 -0.640081
v -0.270324 0.002178 -0.652621
v -0.265130 -0.132510 -0.640081
v -0.249748 -0.260097 -0.602943
v -0.224767 -0.375189 -0.542634
v -0.191148 -0.472839 -0.461473
v -0.150184 -0.548741 -0.362577
v -0.103449 -0.599404 -0.249747
v -0.052738 -0.622289 -0.127320
v -0.026885 0.613392 -0.135162
v -0.052738 0.585735 -0.265130
v -0.076563 0.531062 -0.384909
v -0.097447 0.473904 -0.489897
v -0.114585 0.390353 -0.576058
v -0.127320 0.270328 -0.640081
v -0.135162 0.138338 -0.679506
v -0.137810 0.002178 -0.692819
v -0.135162 -0.132510 -0.679506
v -0.127320 -0.260097 -0.640081
v -0.114585 -0.375189 -0.576058
v -0.097447 -0.472839 -0.489897
v -0.076563 -0.548741 -0.384909
v -0.052738 -0.599404 -0.265130
v -0.026885 -0.622289 -0.135162
v 0.000000 0.599207 -0.137810
v 0.000000 0.559010 -0.270325
v 0.000000 0.493732 -0.392450
v -0.000000 0.466276 -0.499495
v -0.000000 0.388880 -0.587343
v -0.000000 0.270328 -0.652621
v -0.000000 0.138338 -0.692819
v 0.000000 0.002178 -0.706392
v -0.000000 -0.132510 -0.692819
v -0.000000 -0.260097 -0.652621
v -0.000000 -0.375189 -0.587343
v -0.000000 -0.472839 -0.499495
v 0.000000 -0.548741 -0.392450
v 0.000000 -0.599404 -0.270324
v 0.000000 -0.622289 -0.137810
v 0.026885 0.613392 -0.135162
v 0.052738 0.585735 -0.265130
v 0.076563 0.531062 -0.384909
v 0.097446 0.473904 -0.489897
v 0.114585 0.390353 -0.576058
v 0.127320 0.270328 -0.640081
v 0.135162 0.138338 -0.679507
v 0.137810 0.002178 -0.692819
v 0.135162 -0.132510 -0.679507
v 0.127320 -0.260097 -0.640081
v 0.114585 -0.375189 -0.576058
v 0.097446 -0.472839 -0.489897
v 0.076563 -0.548741 -0.384909
v 0.052738 -0.599404 -0.265130
v 0.026885 -0.622289 -0.135162
v 0.052738 0.626292 -0.127320
v 0.103449 0.607787 -0.249747
v 0.150184 0.558723 -0.362577
v 0.191148 0.487791 -0.461473
v 0.224766 0.392382 -0.542634
v 0.249747 0.270328 -0.602943
v 0.265130 0.138338 -0.640081
v 0.270324 0.002178 -0.652621
v 0.265130 -0.132510 -0.640081
v 0.249747 -0.260097 -0.602943
v 0.224766 -0.375189 -0.542634
v 0.191148 -0.472839 -0.461473
v 0.150184 -0.548741 -0.362577
v 0.103449 -0.599404 -0.249747
v 0.052738 -0.622289 -0.127320
v 0.076563 0.637833 -0.114585
v 0.150184 0.625143 -0.224767
v 0.218034 0.576852 -0.326310
v 0.277504 0.497456 -0.415315
v 0.326310 0.392450 -0.488358
v 0.362577 0.270328 -0.542635
v 0.384909 0.138338 -0.576058
v 0.392450 0.002178 -0.587343
v 0.384909 -0.132510 -0.576058
v 0.362577 -0.260097 -0.542635
v 0.326310 -0.375189 -0.488358
v 0.277504 -0.472839 -0.415315
v 0.218034 -0.548741 -0.326310
v 0.150184 -0.599404 -0.224767
v 0.076563 -0.622289 -0.114585
v 0.097447 0.647985 -0.097447
v 0.191148 0.636974 -0.191148
v 0.277504 0.584720 -0.277504
v 0.353196 0.499495 -0.353196
v 0.415314 0.392450 -0.415315
v 0.461472 0.270328 -0.461473
v 0.489897 0.138338 -0.489897
v 0.499494 0.002178 -0.499494
v 0.489897 -0.132510 -0.489897
v 0.461472 -0.260097 -0.461473
v 0.415314 -0.375189 -0.415315
v 0.353196 -0.472839 -0.353196
v 0.277504 -0.548741 -0.277504
v 0.191148 -0.599404 -0.191148
v 0.097447 -0.622289 -0.097447
v 0.000000 -0.615910 0.000000
v 0.114585 0.656757 -0.076563
v 0.224767 0.642279 -0.150184
v 0.326310 0.587318 -0.218034
v 0.415314 0.499495 -0.277504
v 0.488358 0.392450 -0.326310
v 0.542634 0.270328 -0.362577
v 0.576058 0.138338 -0.384910
v 0.587343 0.002178 -0.392450
v 0.576058 -0.132510 -0.384910
v 0.542634 -0.260097 -0.362577
v 0.488358 -0.375189 -0.326310
v 0.415314 -0.472839 -0.277504
v 0.326310 -0.548741 -0.218034
v 0.224767 -0.599404 -0.150184
v 0.114585 -0.622289 -0.076563
v 0.127320 0.659600 -0.052738
v 0.249747 0.646550 -0.103449
v 0.362577 0.587344 -0.150184
v 0.461473 0.499495 -0.191148
v 0.542634 0.392450 -0.224767
v 0.602943 0.270328 -0.249748
v 0.640081 0.138338 -0.265130
v 0.652621 0.002178 -0.270324
v 0.640081 -0.132510 -0.265130
v 0.602943 -0.260097 -0.249748
v 0.542634 -0.375189 -0.224767
v 0.461473 -0.472838 -0.191148
v 0.362577 -0.548741 -0.150184
v 0.249747 -0.599404 -0.103449
v 0.127320 -0.622289 -0.052738
v 0.135162 0.659600 -0.026885
v 0.265130 0.649051 -0.052738
v 0.384909 0.587344 -0.076563
v 0.489897 0.499495 -0.097447
v 0.576058 0.392450 -0.114585
v 0.640081 0.270328 -0.127320
v 0.679506 0.138338 -0.135162
v 0.692818 0.002178 -0.137810
v 0.679506 -0.132510 -0.135162
v 0.640081 -0.260097 -0.127320
v 0.576058 -0.375189 -0.114585
v 0.489897 -0.472838 -0.097447
v 0.384909 -0.548741 -0.076563
v 0.265130 -0.599404 -0.052738
v 0.135162 -0.622289 -0.026885
v 0.137810 0.659600 -0.000000
v 0.270324 0.649051 -0.000000
v 0.392450 0.587344 -0.000000
v 0.499495 0.499495 -0.000000
v 0.587343 0.392450 -0.000000
v 0.652621 0.270328 -0.000000
v 0.692819 0.138338 -0.000000
v 0.706391 0.002178 -0.000000
v 0.692819 -0.132510 0.000000
v 0.652621 -0.260097 -0.000000
v 0.587343 -0.375189 0.000000
v 0.499495 -0.472838 -0.000000
v 0.392450 -0.548741 0.000000
v 0.270324 -0.599404 0.000000
v 0.137810 -0.622289 0.000000
v 0.135162 0.659600 0.026885
v 0.265130 0.649051 0.052738
v 0.384909 0.587344 0.076563
v 0.489897 0.499495 0.097446
v 0.576058 0.392450 0.114585
v 0.640081 0.270328 0.127320
v 0.679506 0.138338 0.135162
v 0.692818 0.002178 0.137810
v 0.679506 -0.132510 0.135162
v 0.640081 -0.260097 0.127320
v 0.576058 -0.375189 0.114585
v 0.489897 -0.472838 0.097446
v 0.384909 -0.548741 0.076563
v 0.265130 -0.599404 0.052738
v 0.135162 -0.622289 0.026885
v 0.127320 0.659600 0.052738
v 0.249747 0.646550 0.103449
v 0.362577 0.587344 0.150184
v 0.461473 0.499495 0.191148
v 0.542634 0.392450 0.224766
v 0.602943 0.270328 0.249747
v 0.640081 0.138338 0.265130
v 0.652621 0.002178 0.270324
v 0.640081 -0.132510 0.265130
v 0.602943 -0.260097 0.249747
v 0.542634 -0.375189 0.224766
v 0.461473 -0.472838 0.191148
v 0.362577 -0.548741 0.150184
v 0.249747 -0.599404 0.103449
v 0.127320 -0.622289 0.052738
v 0.114585 0.656757 0.076563
v 0.224767 0.642279 0.150184
v 0.326310 0.587318 0.218034
v 0.415315 0.499495 0.277504
v 0.488358 0.392450 0.326310
v 0.542635 0.270328 0.362577
v 0.576058 0.138338 0.384909
v 0.587343 0.002178 0.392450
v 0.576058 -0.132510 0.384909
v 0.542635 -0.260097 0.362577
v 0.488358 -0.375189 0.326310
v 0.415315 -0.472838 0.277504
v 0.326310 -0.548741 0.218034
v 0.224767 -0.599404 0.150184
v 0.114585 -0.622289 0.076563
v 0.097447 0.647985 0.097447
v 0.191148 0.636974 0.191148
v 0.277504 0.584720 0.277504
v 0.353196 0.499495 0.353196
v 0.415314 0.392450 0.415314
v 0.461473 0.270328 0.461472
v 0.489897 0.138338 0.489897
v 0.499494 0.002178 0.499494
v 0.489897 -0.132510 0.489897
v 0.461473 -0.260097 0.461473
v 0.415314 -0.375189 0.415314
v 0.353196 -0.472838 0.353196
v 0.277504 -0.548741 0.277504
v 0.191148 -0.599404 0.191148
v 0.097447 -0.622289 0.097447
v 0.076563 0.637833 0.114585
v 0.150184 0.625143 0.224766
v 0.218034 0.576852 0.326310
v 0.277504 0.497457 0.415314
v 0.326310 0.392450 0.488358
v 0.362577 0.270328 0.542634
v 0.384909 0.138339 0.576058
v 0.392450 0.002178 0.587343
v 0.384909 -0.132510 0.576058
v 0.362577 -0.260097 0.542634
v 0.326310 -0.375189 0.488358
v 0.277504 -0.472838 0.415314
v 0.218034 -0.548741 0.326310
v 0.150184 -0.599404 0.224766
v 0.076563 -0.622289 0.114585
v 0.052738 0.626292 0.127320
v 0.103449 0.607787 0.249747
v 0.150184 0.558723 0.362577
v 0.191148 0.487791 0.461473
v 0.224766 0.392382 0.542634
v 0.249747 0.270329 0.602943
v 0.265130 0.138339 0.640081
v 0.270324 0.002178 0.652620
v 0.265130 -0.132510 0.640081
v 0.249747 -0.260097 0.602943
v 0.224766 -0.375189 0.542634
v 0.191148 -0.472838 0.461473
v 0.150184 -0.548741 0.362577
v 0.103449 -0.599404 0.249747
v 0.052738 -0.622289 0.127320
v 0.026885 0.613392 0.135162
v 0.052738 0.585735 0.265130
v 0.076563 0.531062 0.384909
v 0.097447 0.473904 0.489897
v 0.114585 0.390353 0.576058
v 0.127320 0.270329 0.640081
v 0.135162 0.138339 0.679506
v 0.137810 0.002178 0.692818
v 0.135162 -0.132510 0.679506
v 0.127320 -0.260097 0.640081
v 0.114585 -0.375189 0.576058
v 0.097447 -0.472838 0.489897
v 0.076563 -0.548741 0.384909
v 0.052738 -0.599404 0.265130
v 0.026885 -0.622289 0.135162
v 0.000000 0.599207 0.137810
v 0.000000 0.559010 0.270324
v 0.000000 0.466276 0.499495
v 0.000000 0.270329 0.652621
v 0.000000 -0.260097 0.652621
v 0.000000 -0.472838 0.499495
v 0.000000 -0.548741 0.392450
v 0.000000 -0.599404 0.270325
v 0.000000 -0.622289 0.137810
v 0.088441 1.128792 0.065825
v 0.767236 1.216646 0.076406
v 0.631477 1.203142 0.032975
v 0.495718 1.185166 0.034976
v 0.359959 1.167607 0.032736
v 0.224200 1.150515 0.025758
v 0.390778 0.927897 0.055553
v 0.650543 1.052640 0.069520
v 0.243898 0.995470 0.059010
v 0.527789 0.933837 0.077898
v 0.329177 1.398274 0.101851
v 0.612434 1.343634 0.098162
v 0.204526 1.296105 0.088600
v 0.463686 1.423309 0.126075
v 0.004102 0.599130 0.025584
v 0.070483 1.104362 0.092202
v -0.011682 0.601823 0.019224
v 0.048448 1.088618 0.079081
v -0.018220 0.604231 0.003467
v 0.039321 1.084352 0.050724
v -0.011682 0.604942 -0.012458
v 0.048448 1.094064 0.023743
v 0.004102 0.603540 -0.019221
v 0.070483 1.112065 0.013943
v 0.019886 0.600847 -0.012861
v 0.092518 1.127809 0.027065
v 0.026424 0.598440 0.002897
v 0.101646 1.132074 0.055421
v 0.019886 0.597729 0.018821
v 0.092518 1.122362 0.082402
v -0.089321 1.313824 0.084517
v -0.095572 1.309358 0.080795
v -0.098160 1.308148 0.072752
v -0.095572 1.310903 0.065099
v -0.089321 1.316009 0.062319
v -0.083071 1.320475 0.066041
v -0.080482 1.321684 0.074084
v -0.083071 1.318929 0.081737
vn -0.0000 -0.9586 0.2848
vn -0.0135 -0.9976 0.0677
vn -0.0000 -0.9976 0.0691
vn -0.0000 0.1950 0.9808
vn -0.1951 -0.0005 0.9808
vn -0.0000 -0.0005 1.0000
vn 0.4418 0.8772 0.1880
vn 0.3834 0.9236 -0.0000
vn 0.4148 0.8910 0.1846
vn -0.0000 -1.0000 -0.0000
vn -0.0000 -0.2002 0.9798
vn -0.1911 -0.2002 0.9609
vn 0.3290 0.8712 0.3643
vn 0.3882 0.8441 0.3699
vn -0.0000 -0.3968 0.9179
vn -0.1791 -0.3968 0.9003
vn 0.2357 0.8374 0.4931
vn -0.0000 0.8997 0.4365
vn -0.1587 -0.5813 0.7980
vn -0.0000 -0.5813 0.8137
vn -0.0061 0.8149 0.5796
vn -0.0000 0.8689 0.4950
vn -0.0000 -0.7434 0.6688
vn -0.1305 -0.7434 0.6560
vn -0.1425 0.6071 0.7818
vn -0.0000 0.6184 0.7859
vn -0.0954 -0.8722 0.4797
vn -0.0000 -0.8722 0.4891
vn -0.1794 0.3849 0.9053
vn -0.0000 0.3866 0.9222
vn -0.0556 -0.9586 0.2793
vn -0.1913 0.1950 0.9619
vn -0.3529 0.3820 0.8541
vn -0.1090 -0.9586 0.2631
vn -0.3753 0.1950 0.9061
vn -0.0264 -0.9976 0.0638
vn -0.3827 -0.0005 0.9239
vn 0.3633 0.9130 0.1858
vn -0.3749 -0.2002 0.9052
vn 0.2058 0.9090 0.3624
vn -0.3513 -0.3968 0.8481
vn 0.0434 0.8526 0.5208
vn -0.3114 -0.5813 0.7517
vn -0.1562 0.7603 0.6305
vn -0.2559 -0.7434 0.6179
vn -0.2983 0.5833 0.7555
vn -0.1872 -0.8722 0.4519
vn -0.5100 -0.3968 0.7632
vn -0.1535 0.8623 0.4826
vn -0.4521 -0.5813 0.6765
vn -0.3367 0.7303 0.5944
vn -0.3716 -0.7434 0.5561
vn -0.4545 0.5621 0.6910
vn -0.2717 -0.8722 0.4067
vn -0.5136 0.3811 0.7687
vn -0.1582 -0.9586 0.2368
vn -0.5449 0.1950 0.8155
vn -0.0384 -0.9976 0.0574
vn -0.5556 -0.0005 0.8315
vn 0.3136 0.9312 0.1858
vn -0.5443 -0.2002 0.8146
vn 0.0714 0.9382 0.3386
vn -0.2014 -0.9586 0.2014
vn -0.6935 0.1950 0.6935
vn -0.0488 -0.9976 0.0488
vn -0.7071 -0.0005 0.7071
vn 0.2606 0.9471 0.1873
vn -0.6928 -0.2002 0.6928
vn -0.0676 0.9572 0.2813
vn -0.6491 -0.3968 0.6491
vn -0.3193 0.8566 0.4052
vn -0.5754 -0.5813 0.5753
vn -0.4868 0.7134 0.5040
vn -0.4729 -0.7434 0.4729
vn -0.5879 0.5539 0.5896
vn -0.3459 -0.8722 0.3459
vn -0.6538 0.3811 0.6538
vn -0.7632 -0.3968 0.5100
vn -0.6765 -0.5813 0.4520
vn -0.5880 0.7058 0.3952
vn -0.5561 -0.7434 0.3716
vn -0.6929 0.5528 0.4630
vn -0.4067 -0.8722 0.2717
vn -0.7687 0.3811 0.5137
vn -0.2368 -0.9586 0.1582
vn -0.8155 0.1950 0.5449
vn -0.0574 -0.9976 0.0384
vn -0.8315 -0.0005 0.5556
vn 0.1822 0.9754 0.1241
vn -0.8146 -0.2002 0.5443
vn -0.1763 0.9593 0.2206
vn -0.4297 0.8488 0.3082
vn -0.2631 -0.9586 0.1090
vn -0.0638 -0.9976 0.0264
vn -0.9061 0.1950 0.3753
vn -0.9239 -0.0005 0.3827
vn 0.1177 0.9930 0.0114
vn -0.9052 -0.2002 0.3749
vn -0.2401 0.9572 0.1617
vn -0.8480 -0.3968 0.3513
vn -0.4973 0.8417 0.2103
vn -0.7517 -0.5813 0.3114
vn -0.6561 0.7041 0.2718
vn -0.6179 -0.7434 0.2559
vn -0.7699 0.5528 0.3189
vn -0.4519 -0.8722 0.1872
vn -0.8542 0.3811 0.3538
vn -0.6965 0.7041 0.1385
vn -0.6560 -0.7434 0.1305
vn -0.8173 0.5528 0.1626
vn -0.4797 -0.8722 0.0954
vn -0.9068 0.3811 0.1804
vn -0.2793 -0.9586 0.0556
vn -0.9619 0.1950 0.1913
vn -0.0677 -0.9976 0.0135
vn -0.9808 -0.0005 0.1951
vn 0.1091 0.9938 -0.0217
vn -0.9609 -0.2002 0.1911
vn -0.2728 0.9591 0.0758
vn -0.9003 -0.3968 0.1791
vn -0.5373 0.8363 0.1091
vn -0.7980 -0.5813 0.1587
vn -0.9808 0.1950 -0.0000
vn -1.0000 -0.0005 -0.0000
vn 0.1112 0.9938 -0.0000
vn -0.0691 -0.9976 -0.0000
vn -0.9798 -0.2002 -0.0000
vn -0.2814 0.9596 -0.0000
vn -0.9179 -0.3968 -0.0000
vn -0.5507 0.8347 -0.0000
vn -0.8137 -0.5813 -0.0000
vn -0.7101 0.7041 -0.0000
vn -0.6688 -0.7434 -0.0000
vn -0.8333 0.5528 -0.0000
vn -0.4891 -0.8722 -0.0000
vn -0.9245 0.3811 -0.0000
vn -0.2848 -0.9586 -0.0000
vn -0.6560 -0.7434 -0.1305
vn -0.8173 0.5528 -0.1626
vn -0.4797 -0.8722 -0.0954
vn -0.9068 0.3811 -0.1804
vn -0.2793 -0.9586 -0.0556
vn -0.9619 0.1950 -0.1913
vn -0.0677 -0.9976 -0.0135
vn -0.9808 -0.0005 -0.1951
vn 0.1091 0.9938 0.0217
vn -0.9609 -0.2002 -0.1911
vn -0.2728 0.9591 -0.0758
vn -0.9003 -0.3968 -0.1791
vn -0.5373 0.8363 -0.1091
vn -0.7980 -0.5813 -0.1587
vn -0.6965 0.7041 -0.1385
vn 0.1177 0.9930 -0.0114
vn -0.0638 -0.9976 -0.0264
vn -0.9052 -0.2002 -0.3749
vn -0.2401 0.9572 -0.1617
vn -0.8481 -0.3968 -0.3513
vn -0.4973 0.8417 -0.2103
vn -0.7517 -0.5813 -0.3114
vn -0.6561 0.7041 -0.2718
vn -0.6179 -0.7434 -0.2559
vn -0.7699 0.5528 -0.3189
vn -0.4519 -0.8722 -0.1872
vn -0.8542 0.3811 -0.3538
vn -0.2631 -0.9586 -0.1090
vn -0.9061 0.1950 -0.3753
vn -0.9239 -0.0005 -0.3827
vn -0.6929 0.5528 -0.4630
vn -0.5561 -0.7434 -0.3716
vn -0.4067 -0.8722 -0.2717
vn -0.7687 0.3811 -0.5137
vn -0.2368 -0.9586 -0.1582
vn -0.8155 0.1950 -0.5449
vn -0.0574 -0.9976 -0.0384
vn -0.8315 -0.0005 -0.5556
vn 0.1822 0.9754 -0.1241
vn -0.8146 -0.2002 -0.5443
vn -0.1763 0.9593 -0.2206
vn -0.7632 -0.3968 -0.5100
vn -0.4297 0.8488 -0.3082
vn -0.6765 -0.5813 -0.4521
vn -0.5880 0.7058 -0.3952
vn -0.6928 -0.2002 -0.6928
vn 0.2606 0.9471 -0.1873
vn -0.0676 0.9572 -0.2813
vn -0.6491 -0.3968 -0.6491
vn -0.3193 0.8566 -0.4052
vn -0.5753 -0.5813 -0.5753
vn -0.4868 0.7134 -0.5040
vn -0.4729 -0.7434 -0.4729
vn -0.5879 0.5539 -0.5896
vn -0.3459 -0.8722 -0.3459
vn -0.6538 0.3811 -0.6538
vn -0.2014 -0.9586 -0.2014
vn -0.6935 0.1950 -0.6935
vn -0.0488 -0.9976 -0.0488
vn -0.7071 -0.0005 -0.7071
vn -0.2717 -0.8722 -0.4067
vn -0.5136 0.3811 -0.7687
vn -0.1582 -0.9586 -0.2368
vn -0.5449 0.1950 -0.8155
vn -0.0384 -0.9976 -0.0574
vn -0.5556 -0.0005 -0.8315
vn 0.3136 0.9312 -0.1858
vn -0.5443 -0.2002 -0.8146
vn 0.0714 0.9382 -0.3386
vn -0.5100 -0.3968 -0.7632
vn -0.1535 0.8623 -0.4826
vn -0.4521 -0.5813 -0.6765
vn -0.3367 0.7303 -0.5944
vn -0.3716 -0.7434 -0.5561
vn -0.4545 0.5621 -0.6910
vn -0.3513 -0.3968 -0.8481
vn 0.2058 0.9090 -0.3624
vn 0.0434 0.8526 -0.5208
vn -0.3114 -0.5813 -0.7517
vn -0.1562 0.7603 -0.6305
vn -0.2559 -0.7434 -0.6179
vn -0.2983 0.5833 -0.7555
vn -0.1872 -0.8722 -0.4519
vn -0.3529 0.3820 -0.8541
vn -0.1090 -0.9586 -0.2631
vn -0.3753 0.1950 -0.9061
vn -0.0264 -0.9976 -0.0638
vn -0.3827 -0.0005 -0.9239
vn 0.3633 0.9130 -0.1858
vn -0.3749 -0.2002 -0.9052
vn -0.0954 -0.8722 -0.4797
vn -0.0556 -0.9586 -0.2793
vn -0.1794 0.3849 -0.9053
vn -0.1913 0.1950 -0.9619
vn -0.0135 -0.9976 -0.0677
vn -0.1951 -0.0005 -0.9808
vn 0.4148 0.8910 -0.1846
vn -0.1911 -0.2002 -0.9609
vn 0.3290 0.8712 -0.3643
vn -0.1791 -0.3968 -0.9003
vn 0.2357 0.8374 -0.4931
vn -0.1587 -0.5813 -0.7980
vn -0.0061 0.8149 -0.5796
vn -0.1305 -0.7434 -0.6560
vn -0.1425 0.6071 -0.7818
vn 0.3882 0.8441 -0.3699
vn -0.0000 0.8997 -0.4365
vn -0.0000 -0.3968 -0.9179
vn -0.0000 -0.5813 -0.8137
vn -0.0000 0.8689 -0.4950
vn -0.0000 -0.7434 -0.6688
vn -0.0000 0.6184 -0.7859
vn -0.0000 -0.8722 -0.4891
vn -0.0000 0.3866 -0.9222
vn -0.0000 -0.9586 -0.2848
vn -0.0000 0.1950 -0.9808
vn -0.0000 -0.9976 -0.0691
vn -0.0000 -0.0005 -1.0000
vn 0.4418 0.8772 -0.1880
vn -0.0000 -0.2002 -0.9798
vn 0.1794 0.3849 -0.9053
vn 0.1913 0.1950 -0.9619
vn 0.0135 -0.9976 -0.0677
vn 0.1951 -0.0005 -0.9808
vn -0.4418 0.8772 -0.1880
vn -0.3834 0.9236 -0.0000
vn -0.4148 0.8910 -0.1846
vn 0.1911 -0.2002 -0.9609
vn -0.3290 0.8712 -0.3643
vn -0.3882 0.8441 -0.3699
vn 0.1791 -0.3968 -0.9003
vn -0.2357 0.8374 -0.4931
vn 0.1587 -0.5813 -0.7980
vn 0.0061 0.8149 -0.5796
vn 0.1305 -0.7434 -0.6560
vn 0.1425 0.6071 -0.7818
vn 0.0954 -0.8722 -0.4797
vn 0.0556 -0.9586 -0.2793
vn 0.3513 -0.3968 -0.8481
vn 0.3114 -0.5813 -0.7517
vn 0.1562 0.7603 -0.6305
vn 0.2559 -0.7434 -0.6179
vn 0.2983 0.5833 -0.7555
vn 0.1872 -0.8722 -0.4519
vn 0.3529 0.3820 -0.8541
vn 0.1090 -0.9586 -0.2631
vn 0.3753 0.1950 -0.9061
vn 0.0264 -0.9976 -0.0638
vn 0.3827 -0.0005 -0.9239
vn -0.3633 0.9130 -0.1858
vn 0.3749 -0.2002 -0.9052
vn -0.2058 0.9090 -0.3624
vn -0.0434 0.8526 -0.5208
vn 0.1582 -0.9586 -0.2368
vn 0.0384 -0.9976 -0.0574
vn 0.5449 0.1950 -0.8155
vn 0.5556 -0.0005 -0.8315
vn -0.3136 0.9312 -0.1858
vn 0.5443 -0.2002 -0.8146
vn -0.0714 0.9382 -0.3386
vn 0.5100 -0.3968 -0.7632
vn 0.1535 0.8623 -0.4826
vn 0.4521 -0.5813 -0.6765
vn 0.3367 0.7303 -0.5944
vn 0.3716 -0.7434 -0.5561
vn 0.4545 0.5621 -0.6910
vn 0.2717 -0.8722 -0.4067
vn 0.5136 0.3811 -0.7687
vn 0.4868 0.7134 -0.5040
vn 0.4729 -0.7434 -0.4729
vn 0.5879 0.5539 -0.5896
vn 0.3459 -0.8722 -0.3459
vn 0.6538 0.3811 -0.6538
vn 0.2014 -0.9586 -0.2014
vn 0.6935 0.1950 -0.6935
vn 0.0488 -0.9976 -0.0488
vn 0.7071 -0.0005 -0.7071
vn -0.2606 0.9471 -0.1873
vn 0.6928 -0.2002 -0.6928
vn 0.0676 0.9572 -0.2813
vn 0.6491 -0.3968 -0.6491
vn 0.3193 0.8566 -0.4052
vn 0.5754 -0.5813 -0.5753
vn 0.8155 0.1950 -0.5449
vn 0.8315 -0.0005 -0.5556
vn -0.1822 0.9754 -0.1241
vn 0.0574 -0.9976 -0.0384
vn 0.8146 -0.2002 -0.5443
vn 0.1763 0.9593 -0.2206
vn 0.7632 -0.3968 -0.5100
vn 0.4297 0.8488 -0.3082
vn 0.6765 -0.5813 -0.4520
vn 0.5880 0.7058 -0.3952
vn 0.5561 -0.7434 -0.3716
vn 0.6929 0.5528 -0.4630
vn 0.4067 -0.8722 -0.2717
vn 0.7687 0.3811 -0.5137
vn 0.2368 -0.9586 -0.1582
vn 0.6179 -0.7434 -0.2559
vn 0.6561 0.7041 -0.2718
vn 0.7699 0.5528 -0.3189
vn 0.4519 -0.8722 -0.1872
vn 0.8542 0.3811 -0.3538
vn 0.2631 -0.9586 -0.1090
vn 0.9061 0.1950 -0.3753
vn 0.0638 -0.9976 -0.0264
vn 0.9239 -0.0005 -0.3827
vn -0.1177 0.9930 -0.0114
vn 0.9052 -0.2002 -0.3749
vn 0.2401 0.9572 -0.1617
vn 0.8480 -0.3968 -0.3513
vn 0.4973 0.8417 -0.2103
vn 0.7517 -0.5813 -0.3114
vn 0.0677 -0.9976 -0.0135
vn 0.9609 -0.2002 -0.1911
vn 0.2728 0.9591 -0.0758
vn 0.9003 -0.3968 -0.1791
vn 0.5373 0.8363 -0.1091
vn 0.7980 -0.5813 -0.1587
vn 0.6965 0.7041 -0.1385
vn 0.6560 -0.7434 -0.1305
vn 0.8173 0.5528 -0.1626
vn 0.4797 -0.8722 -0.0954
vn 0.9068 0.3811 -0.1804
vn 0.2793 -0.9586 -0.0556
vn 0.9619 0.1950 -0.1913
vn 0.9808 -0.0005 -0.1951
vn -0.1091 0.9938 0.0217
vn 0.6688 -0.7434 -0.0000
vn 0.4891 -0.8722 -0.0000
vn 0.9245 0.3811 -0.0000
vn 0.2848 -0.9586 -0.0000
vn 0.9808 0.1950 -0.0000
vn 0.0691 -0.9976 -0.0000
vn 1.0000 -0.0005 -0.0000
vn -0.1112 0.9938 -0.0000
vn 0.9798 -0.2002 -0.0000
vn 0.2814 0.9596 -0.0000
vn 0.9179 -0.3968 -0.0000
vn 0.5507 0.8347 -0.0000
vn 0.8137 -0.5813 -0.0000
vn 0.7101 0.7041 -0.0000
vn 0.8333 0.5528 -0.0000
vn 0.2728 0.9591 0.0758
vn 0.9003 -0.3968 0.1791
vn 0.5373 0.8363 0.1091
vn 0.7980 -0.5813 0.1587
vn 0.6965 0.7041 0.1385
vn 0.6560 -0.7434 0.1305
vn 0.8173 0.5528 0.1626
vn 0.4797 -0.8722 0.0954
vn 0.9068 0.3811 0.1804
vn 0.2793 -0.9586 0.0556
vn 0.9619 0.1950 0.1913
vn 0.0677 -0.9976 0.0135
vn 0.9808 -0.0005 0.1951
vn -0.1091 0.9938 -0.0217
vn 0.9609 -0.2002 0.1911
vn 0.8542 0.3811 0.3538
vn 0.4519 -0.8722 0.1872
vn 0.2631 -0.9586 0.1090
vn 0.9061 0.1950 0.3753
vn 0.0638 -0.9976 0.0264
vn 0.9239 -0.0005 0.3827
vn -0.1177 0.9930 0.0114
vn 0.9052 -0.2002 0.3749
vn 0.2401 0.9572 0.1617
vn 0.8481 -0.3968 0.3513
vn 0.4973 0.8417 0.2103
vn 0.7517 -0.5813 0.3114
vn 0.6561 0.7041 0.2718
vn 0.6179 -0.7434 0.2559
vn 0.7699 0.5528 0.3189
vn 0.7632 -0.3968 0.5100
vn 0.1763 0.9593 0.2206
vn 0.4297 0.8488 0.3082
vn 0.6765 -0.5813 0.4521
vn 0.5880 0.7058 0.3952
vn 0.5561 -0.7434 0.3716
vn 0.6929 0.5528 0.4630
vn 0.4067 -0.8722 0.2717
vn 0.7687 0.3811 0.5137
vn 0.2368 -0.9586 0.1582
vn 0.8155 0.1950 0.5449
vn 0.0574 -0.9976 0.0384
vn 0.8315 -0.0005 0.5556
vn -0.1822 0.9754 0.1241
vn 0.8146 -0.2002 0.5443
vn 0.3459 -0.8722 0.3459
vn 0.2014 -0.9586 0.2014
vn 0.6538 0.3811 0.6538
vn 0.6935 0.1950 0.6935
vn 0.0488 -0.9976 0.0488
vn 0.7071 -0.0005 0.7071
vn -0.2606 0.9471 0.1873
vn 0.6928 -0.2002 0.6928
vn 0.0676 0.9572 0.2813
vn 0.6491 -0.3968 0.6491
vn 0.3193 0.8566 0.4052
vn 0.5753 -0.5813 0.5754
vn 0.4868 0.7134 0.5040
vn 0.4729 -0.7434 0.4729
vn 0.5879 0.5539 0.5896
vn -0.0714 0.9382 0.3386
vn 0.1535 0.8623 0.4826
vn 0.4521 -0.5813 0.6765
vn 0.3367 0.7303 0.5944
vn 0.3716 -0.7434 0.5561
vn 0.4545 0.5621 0.6910
vn 0.2717 -0.8722 0.4067
vn 0.5136 0.3811 0.7687
vn 0.1582 -0.9586 0.2368
vn 0.5449 0.1950 0.8155
vn 0.0384 -0.9976 0.0574
vn 0.5556 -0.0005 0.8315
vn -0.3136 0.9312 0.1858
vn 0.5443 -0.2002 0.8146
vn 0.5100 -0.3968 0.7632
vn 0.3529 0.3820 0.8541
vn 0.3753 0.1950 0.9061
vn 0.0264 -0.9976 0.0638
vn 0.3827 -0.0005 0.9239
vn -0.3633 0.9130 0.1858
vn 0.3749 -0.2002 0.9052
vn -0.2058 0.9090 0.3624
vn 0.3513 -0.3968 0.8481
vn -0.0434 0.8526 0.5208
vn 0.3114 -0.5813 0.7517
vn 0.1562 0.7603 0.6305
vn 0.2559 -0.7434 0.6179
vn 0.2983 0.5833 0.7555
vn 0.1872 -0.8722 0.4519
vn 0.1090 -0.9586 0.2631
vn 0.1587 -0.5813 0.7980
vn -0.2357 0.8374 0.4931
vn 0.0061 0.8149 0.5796
vn 0.1305 -0.7434 0.6560
vn 0.1425 0.6071 0.7818
vn 0.0954 -0.8722 0.4797
vn 0.1794 0.3849 0.9053
vn 0.0556 -0.9586 0.2793
vn 0.1913 0.1950 0.9619
vn 0.0135 -0.9976 0.0677
vn 0.1951 -0.0005 0.9808
vn -0.4148 0.8910 0.1846
vn 0.1911 -0.2002 0.9609
vn -0.3290 0.8712 0.3643
vn 0.1791 -0.3968 0.9003
vn -0.4418 0.8772 0.1880
vn -0.3882 0.8441 0.3699
vn 0.2409 0.2327 0.9423
vn -0.3161 0.1859 0.9303
vn 0.0218 0.1365 0.9904
vn -0.0092 0.1570 0.9876
vn -0.0754 0.1999 0.9769
vn -0.1236 0.1291 0.9839
vn -0.0735 0.1093 0.9913
vn -0.0282 0.0911 0.9954
vn -0.0627 0.1825 0.9812
vn -0.0481 0.1990 0.9788
vn -0.0850 0.1572 0.9839
vn 0.3158 -0.3397 0.8859
vn -0.2348 -0.4351 0.8692
vn 0.0808 -0.3136 0.9461
vn 0.0559 -0.3404 0.9386
vn 0.1199 -0.2702 0.9553
vn -0.0618 -0.3425 0.9375
vn -0.0183 -0.3124 0.9498
vn -0.0983 -0.3671 0.9250
vn 0.0289 -0.3885 0.9210
vn 0.0106 -0.3771 0.9261
vn -0.0173 -0.3593 0.9331
vn -0.3856 -0.0657 0.9203
vn -0.4366 -0.1294 0.8903
vn -0.3826 -0.0661 0.9215
vn -0.9189 0.0718 0.3880
vn -0.9517 0.0813 0.2962
vn -0.9174 0.0714 0.3915
vn -0.9517 0.1374 -0.2746
vn -0.9189 0.1461 -0.3666
vn -0.9174 0.1464 -0.3701
vn -0.4366 0.0467 -0.8984
vn -0.3856 0.1150 -0.9155
vn -0.3826 0.1149 -0.9167
vn 0.4156 0.1621 -0.8950
vn 0.3795 0.0109 -0.9251
vn 0.3754 0.0114 -0.9268
vn 0.9506 -0.1053 -0.2921
vn 0.9155 -0.0965 -0.3905
vn 0.9141 -0.0961 -0.3940
vn 0.6684 0.6732 -0.3164
vn 0.9155 -0.1708 0.3642
vn 0.9506 -0.1603 0.2660
vn 0.9141 -0.1711 0.3676
vn 0.3795 -0.1696 0.9095
vn 0.4156 -0.0155 0.9094
vn 0.3754 -0.1695 0.9112
vn -0.1292 -0.9868 -0.0971
vn -0.6098 0.7887 0.0776
vn -0.6098 0.7888 0.0776
vn -0.4076 0.0018 -0.9132
vn -0.3621 -0.0631 -0.9300
vn 0.6684 0.5986 0.4416
vn 0.6684 0.5985 0.4416
vn -0.7889 -0.5173 0.3317
vn 0.3500 0.2601 -0.8999
vn 0.2416 0.3991 -0.8845
vn 0.3500 0.0797 0.9334
vn 0.2416 0.2190 0.9453
vn -0.3621 -0.2432 0.8999
vn -0.7889 -0.4427 -0.4262
vn 0.0710 0.1036 0.9921
vn -0.1654 0.1455 0.9754
vn -0.0166 0.2339 0.9721
vn 0.0027 -0.3960 0.9182
vn 0.0210 -0.2844 0.9585
vn 0.0680 -0.4123 0.9085
vn -0.4076 -0.1763 0.8960
vn -0.9523 0.0814 0.2943
vn -0.9523 0.1373 -0.2727
vn 0.9511 -0.1055 -0.2903
vn 0.9511 -0.1601 0.2641
vn -0.6098 0.7887 0.0777
vt 0.412839 0.491022
vt 0.442305 0.484590
vt 0.441819 0.490974
vt 0.302566 0.490660
vt 0.316335 0.476861
vt 0.316306 0.490701
vt 0.190830 0.490332
vt 0.142008 0.490145
vt 0.190033 0.483059
vt 0.488577 0.491541
vt 0.329826 0.490797
vt 0.329948 0.477051
vt 0.219391 0.479964
vt 0.221308 0.490430
vt 0.343551 0.490874
vt 0.343718 0.477417
vt 0.241412 0.478520
vt 0.244030 0.490504
vt 0.358200 0.477918
vt 0.357900 0.490922
vt 0.258178 0.477887
vt 0.258996 0.490553
vt 0.373542 0.490958
vt 0.373892 0.478686
vt 0.273025 0.477377
vt 0.273361 0.490600
vt 0.391687 0.479838
vt 0.391125 0.491066
vt 0.288147 0.477038
vt 0.288312 0.490651
vt 0.413376 0.481563
vt 0.302563 0.476858
vt 0.287750 0.463305
vt 0.414550 0.472071
vt 0.302353 0.462921
vt 0.443339 0.478226
vt 0.316387 0.462805
vt 0.188634 0.476056
vt 0.330284 0.463125
vt 0.217043 0.469881
vt 0.344353 0.463781
vt 0.238570 0.466801
vt 0.359065 0.464773
vt 0.256331 0.465206
vt 0.374875 0.466284
vt 0.272225 0.464097
vt 0.392844 0.468565
vt 0.345360 0.449827
vt 0.235550 0.455411
vt 0.360378 0.451395
vt 0.254119 0.452549
vt 0.376597 0.453716
vt 0.271122 0.450560
vt 0.394997 0.457208
vt 0.287033 0.449269
vt 0.416878 0.462614
vt 0.302027 0.448611
vt 0.445373 0.471990
vt 0.316515 0.448420
vt 0.186605 0.469323
vt 0.330836 0.448871
vt 0.214168 0.460194
vt 0.419922 0.453057
vt 0.301512 0.433736
vt 0.447997 0.465843
vt 0.316669 0.433492
vt 0.183901 0.462880
vt 0.331610 0.434098
vt 0.210686 0.450840
vt 0.346673 0.435453
vt 0.232355 0.444064
vt 0.362434 0.437530
vt 0.251810 0.439624
vt 0.379228 0.440752
vt 0.269430 0.436610
vt 0.397927 0.445627
vt 0.285944 0.434783
vt 0.348598 0.420333
vt 0.365092 0.423155
vt 0.248636 0.426229
vt 0.382562 0.427485
vt 0.267143 0.422170
vt 0.402058 0.433876
vt 0.284393 0.419599
vt 0.424235 0.443599
vt 0.300857 0.418173
vt 0.451663 0.459989
vt 0.316862 0.417805
vt 0.180473 0.456800
vt 0.332669 0.418567
vt 0.206538 0.441639
vt 0.228508 0.432458
vt 0.429758 0.434116
vt 0.455995 0.454349
vt 0.299914 0.401583
vt 0.317084 0.401075
vt 0.176306 0.451324
vt 0.334046 0.402025
vt 0.201306 0.432444
vt 0.351099 0.404297
vt 0.223682 0.420537
vt 0.368627 0.407973
vt 0.244590 0.412365
vt 0.387081 0.413555
vt 0.263872 0.406863
vt 0.407155 0.421836
vt 0.282275 0.403473
vt 0.239097 0.397776
vt 0.392827 0.398942
vt 0.259710 0.390688
vt 0.413673 0.409448
vt 0.279487 0.386190
vt 0.436471 0.424821
vt 0.298625 0.383670
vt 0.461416 0.449231
vt 0.317328 0.382972
vt 0.171273 0.446261
vt 0.335809 0.384154
vt 0.194920 0.423410
vt 0.354319 0.387060
vt 0.217419 0.408271
vt 0.373194 0.391791
vt 0.296889 0.364013
vt 0.317600 0.363066
vt 0.165368 0.441658
vt 0.467755 0.444660
vt 0.338060 0.364549
vt 0.187005 0.414620
vt 0.358453 0.368274
vt 0.209587 0.395830
vt 0.379048 0.374350
vt 0.232048 0.382377
vt 0.400121 0.383484
vt 0.254273 0.373298
vt 0.421864 0.396698
vt 0.275802 0.367349
vt 0.444705 0.415711
vt 0.409386 0.367016
vt 0.246963 0.354085
vt 0.432074 0.383614
vt 0.270913 0.346423
vt 0.454676 0.406954
vt 0.294568 0.342063
vt 0.475043 0.440804
vt 0.317907 0.340800
vt 0.158447 0.437840
vt 0.340952 0.342689
vt 0.177600 0.406311
vt 0.363780 0.347499
vt 0.199756 0.383128
vt 0.386556 0.355333
vt 0.223206 0.366138
vt 0.150684 0.434836
vt 0.483292 0.437871
vt 0.344707 0.317885
vt 0.166288 0.398436
vt 0.370696 0.324174
vt 0.187430 0.370296
vt 0.396224 0.334361
vt 0.211464 0.348548
vt 0.421235 0.349343
vt 0.237692 0.333141
vt 0.444748 0.370303
vt 0.264521 0.322980
vt 0.466643 0.398800
vt 0.291470 0.317155
vt 0.318263 0.315444
vt 0.225570 0.309890
vt 0.435914 0.330694
vt 0.460969 0.356906
vt 0.255992 0.296177
vt 0.480906 0.391617
vt 0.287280 0.288301
vt 0.492480 0.436114
vt 0.318690 0.285971
vt 0.142001 0.432977
vt 0.349663 0.289198
vt 0.152719 0.391348
vt 0.379789 0.297566
vt 0.171746 0.357518
vt 0.408776 0.311060
vt 0.196622 0.329885
vt 0.356333 0.255296
vt 0.132023 0.432586
vt 0.136720 0.385602
vt 0.391981 0.266614
vt 0.152528 0.344887
vt 0.425441 0.284677
vt 0.177686 0.310263
vt 0.455462 0.310419
vt 0.208946 0.283066
vt 0.480626 0.343861
vt 0.244334 0.264715
vt 0.498103 0.385902
vt 0.281553 0.254077
vt 0.502413 0.435760
vt 0.319238 0.250931
vt 0.505141 0.331894
vt 0.228285 0.227121
vt 0.517766 0.382463
vt 0.273675 0.212605
vt 0.513113 0.437342
vt 0.319985 0.208304
vt 0.121008 0.433962
vt 0.365493 0.214321
vt 0.117487 0.381291
vt 0.408614 0.229937
vt 0.128645 0.332283
vt 0.447828 0.254601
vt 0.152506 0.288747
vt 0.480859 0.288967
vt 0.187168 0.253233
vt 0.431842 0.185537
vt 0.094047 0.379403
vt 0.098054 0.319162
vt 0.478497 0.220017
vt 0.119855 0.263953
vt 0.514578 0.266649
vt 0.156608 0.217943
vt 0.536797 0.321822
vt 0.206463 0.182146
vt 0.540561 0.382476
vt 0.262686 0.161406
vt 0.524056 0.441104
vt 0.320986 0.155232
vt 0.109112 0.437570
vt 0.378323 0.163536
vt 0.574938 0.316409
vt 0.566108 0.387238
vt 0.175177 0.125726
vt 0.247017 0.096155
vt 0.534998 0.447469
vt 0.322268 0.087467
vt 0.096591 0.443961
vt 0.396584 0.098653
vt 0.065403 0.381449
vt 0.465317 0.130278
vt 0.057006 0.306058
vt 0.521383 0.180286
vt 0.075219 0.235919
vt 0.559707 0.244779
vt 0.114537 0.175751
vt 0.030357 0.389764
vt -0.000000 0.294621
vt 0.516591 0.057762
vt 0.582304 0.135916
vt 0.012198 0.208350
vt 0.622484 0.225619
vt 0.053431 0.125230
vt 0.621187 0.319224
vt 0.129504 0.053092
vt 0.593817 0.398640
vt 0.224528 0.010676
vt 0.545177 0.456694
vt 0.323542 0.000000
vt 0.083929 0.453774
vt 0.422455 0.012606
vt 0.210362 0.976215
vt 0.169269 0.854186
vt 0.240510 0.887812
vt 0.592012 0.581491
vt 0.533525 0.535452
vt 0.543202 0.526332
vt 0.319856 1.000000
vt 0.319094 0.899200
vt 0.083712 0.526170
vt 0.096308 0.536031
vt 0.396822 0.886775
vt 0.428412 0.975404
vt 0.064968 0.598209
vt 0.030182 0.589819
vt 0.465897 0.853105
vt 0.516241 0.921000
vt 0.056232 0.672955
vt 0.000000 0.683853
vt 0.521870 0.801844
vt 0.586077 0.847750
vt 0.073446 0.742399
vt 0.011434 0.768478
vt 0.559345 0.737316
vt 0.619289 0.755149
vt 0.110990 0.802501
vt 0.050212 0.849801
vt 0.624230 0.662095
vt 0.574887 0.664769
vt 0.120594 0.921729
vt 0.564775 0.594090
vt 0.431582 0.797913
vt 0.478219 0.762191
vt 0.117921 0.715408
vt 0.514232 0.715644
vt 0.153599 0.761900
vt 0.535805 0.659564
vt 0.202650 0.798871
vt 0.539262 0.599403
vt 0.258966 0.821053
vt 0.522860 0.541744
vt 0.318465 0.827949
vt 0.108771 0.542483
vt 0.377228 0.820141
vt 0.093449 0.600403
vt 0.096986 0.660347
vt 0.516521 0.599569
vt 0.511983 0.545428
vt 0.271196 0.769153
vt 0.317978 0.773724
vt 0.120622 0.546159
vt 0.364159 0.768409
vt 0.116809 0.598674
vt 0.407895 0.753056
vt 0.127520 0.647614
vt 0.447243 0.727657
vt 0.150717 0.691260
vt 0.480425 0.693392
vt 0.184523 0.727471
vt 0.504667 0.649972
vt 0.225833 0.753888
vt 0.176234 0.670043
vt 0.454870 0.671866
vt 0.206906 0.697669
vt 0.479795 0.638065
vt 0.242305 0.716736
vt 0.496780 0.596207
vt 0.279683 0.727544
vt 0.501429 0.546861
vt 0.317607 0.730710
vt 0.131605 0.547603
vt 0.355047 0.726945
vt 0.136023 0.594507
vt 0.391096 0.715989
vt 0.151452 0.635286
vt 0.424713 0.697515
vt 0.285771 0.693228
vt 0.317326 0.695504
vt 0.141564 0.547277
vt 0.491544 0.546428
vt 0.348493 0.692771
vt 0.152045 0.588884
vt 0.378881 0.684758
vt 0.170708 0.622845
vt 0.408003 0.671051
vt 0.195602 0.650516
vt 0.435355 0.651573
vt 0.223866 0.671115
vt 0.459842 0.625071
vt 0.254318 0.685321
vt 0.479916 0.590480
vt 0.420358 0.632681
vt 0.210591 0.632035
vt 0.236477 0.647739
vt 0.444358 0.611919
vt 0.263209 0.658409
vt 0.465577 0.583414
vt 0.290232 0.664276
vt 0.482389 0.544610
vt 0.317106 0.665939
vt 0.150240 0.545474
vt 0.343664 0.663914
vt 0.165683 0.581921
vt 0.369815 0.657943
vt 0.186281 0.610259
vt 0.395421 0.647613
vt 0.474168 0.541630
vt 0.340037 0.639012
vt 0.177148 0.574149
vt 0.362969 0.634491
vt 0.198733 0.597568
vt 0.385799 0.626598
vt 0.222247 0.614708
vt 0.408645 0.615011
vt 0.246039 0.626813
vt 0.431588 0.598585
vt 0.269871 0.634913
vt 0.453811 0.575252
vt 0.293548 0.639316
vt 0.316926 0.640539
vt 0.158002 0.542511
vt 0.399457 0.598499
vt 0.421372 0.585503
vt 0.274918 0.614033
vt 0.444048 0.566483
vt 0.296039 0.617363
vt 0.466898 0.537744
vt 0.316770 0.618264
vt 0.164914 0.538729
vt 0.337270 0.617096
vt 0.186503 0.565868
vt 0.357732 0.613635
vt 0.208942 0.584849
vt 0.378368 0.607546
vt 0.231363 0.598437
vt 0.253369 0.607835
vt 0.194427 0.557236
vt 0.353695 0.594796
vt 0.216856 0.572539
vt 0.372596 0.590076
vt 0.238448 0.583162
vt 0.392232 0.582995
vt 0.259004 0.590429
vt 0.413171 0.572716
vt 0.278763 0.595177
vt 0.435888 0.557241
vt 0.297919 0.597697
vt 0.460736 0.533009
vt 0.316633 0.598357
vt 0.171002 0.534298
vt 0.335138 0.597459
vt 0.281693 0.577881
vt 0.406600 0.560255
vt 0.429251 0.547824
vt 0.299339 0.579781
vt 0.455527 0.527744
vt 0.316512 0.580258
vt 0.176059 0.529262
vt 0.333491 0.579570
vt 0.200908 0.548263
vt 0.350576 0.577526
vt 0.223324 0.560342
vt 0.368114 0.573876
vt 0.243923 0.568700
vt 0.386568 0.568355
vt 0.263329 0.574267
vt 0.348183 0.561473
vt 0.206215 0.539115
vt 0.228175 0.548448
vt 0.364664 0.558687
vt 0.248210 0.554798
vt 0.382188 0.554455
vt 0.266641 0.559042
vt 0.401597 0.548270
vt 0.283910 0.561777
vt 0.423740 0.538472
vt 0.300406 0.563195
vt 0.451017 0.522182
vt 0.316408 0.563536
vt 0.180257 0.523807
vt 0.332225 0.563020
vt 0.397641 0.536475
vt 0.419614 0.528952
vt 0.285553 0.546582
vt 0.301194 0.547616
vt 0.447566 0.516214
vt 0.316324 0.547855
vt 0.183723 0.517745
vt 0.331272 0.547485
vt 0.210427 0.529946
vt 0.346380 0.546349
vt 0.232061 0.536868
vt 0.362052 0.544275
vt 0.251398 0.541445
vt 0.378849 0.541108
vt 0.269120 0.544558
vt 0.213971 0.520617
vt 0.235322 0.525540
vt 0.360144 0.530449
vt 0.253850 0.528525
vt 0.376397 0.528195
vt 0.270922 0.530614
vt 0.394723 0.524919
vt 0.286710 0.532065
vt 0.416530 0.519441
vt 0.301763 0.532786
vt 0.444948 0.510048
vt 0.316266 0.532942
vt 0.186468 0.511316
vt 0.330584 0.532702
vt 0.345072 0.531917
vt 0.287563 0.517994
vt 0.302171 0.518467
vt 0.443131 0.503750
vt 0.316242 0.518568
vt 0.188541 0.504595
vt 0.330130 0.518448
vt 0.216909 0.510950
vt 0.344200 0.517976
vt 0.238415 0.514170
vt 0.358845 0.517044
vt 0.256163 0.515883
vt 0.374729 0.515602
vt 0.272077 0.517091
vt 0.392719 0.513543
vt 0.414404 0.509951
vt 0.358082 0.503910
vt 0.241333 0.502470
vt 0.258096 0.503213
vt 0.373782 0.503223
vt 0.272951 0.503816
vt 0.391543 0.502282
vt 0.288075 0.504250
vt 0.413183 0.500480
vt 0.302434 0.504489
vt 0.442093 0.497376
vt 0.316253 0.504545
vt 0.189985 0.497600
vt 0.329888 0.504540
vt 0.219323 0.500884
vt 0.343735 0.504349
vt 0.954741 0.620376
vt 0.973874 0.759604
vt 0.891643 0.692067
vt 0.786086 0.968922
vt 0.647969 0.968922
vt 0.710941 0.897375
vt 0.831750 0.760115
vt 0.955878 0.868766
vt 0.770704 0.829474
vt 0.900749 0.945915
vt 0.814211 0.619077
vt 0.630432 0.831922
vt 0.708217 0.650788
vt 0.638693 0.715267
vt 0.914210 0.060225
vt 0.667288 0.380004
vt 0.903266 0.052327
vt 0.648607 0.365733
vt 0.891813 0.043751
vt 0.780212 0.454385
vt 0.974970 0.100628
vt 0.987221 0.108020
vt 0.759968 0.442435
vt 0.963539 0.093454
vt 0.739132 0.438698
vt 0.951510 0.085485
vt 0.720128 0.434832
vt 0.938845 0.076883
vt 0.608841 0.566778
vt 0.703594 0.426115
vt 0.689303 0.414068
vt 0.926115 0.068378
vt 0.678580 0.397909
vt 0.586444 0.110324
vt 0.696813 0.003950
vt 0.803186 0.114319
vt 0.874884 0.603459
vt 0.787515 0.486458
vt 0.904516 0.399089
vt 0.623243 0.578749
vt 0.618806 0.574512
vt 0.603504 0.563401
vt 0.592334 0.557928
vt 0.586271 0.555660
vt 0.613975 0.570454
vt 0.597928 0.560449
vt 0.770032 0.190365
vt 0.692817 0.220693
vt 0.616772 0.187539
vt 0.619597 0.034279
vt 0.772857 0.037104
vt 0.972434 0.439494
vt 0.991885 0.516089
vt 0.951481 0.584006
vt 0.806968 0.563055
vt 0.827920 0.418541
vt 0.627624 0.583516
s 1
g off
g Fruit_Material.009
usemtl Material.009
f 481/1/1 21/2/2 482/3/3
f 3/4/4 14/5/5 4/6/6
f 474/7/7 82/8/8 7/9/9
f 308/10/10 482/3/3 21/2/2
f 5/11/11 14/5/5 15/12/12
f 474/7/7 8/13/13 475/14/14
f 478/15/15 15/12/12 16/16/16
f 475/14/14 9/17/17 1/18/18
f 478/15/15 17/19/19 6/20/20
f 1/18/18 10/21/21 476/22/22
f 479/23/23 17/19/19 18/24/24
f 476/22/22 11/25/25 2/26/26
f 479/23/23 19/27/27 480/28/28
f 2/26/26 12/29/29 477/30/30
f 480/28/28 20/31/31 481/1/1
f 3/4/4 12/29/29 13/32/32
f 11/25/25 27/33/33 12/29/29
f 19/27/27 35/34/34 20/31/31
f 12/29/29 28/35/35 13/32/32
f 20/31/31 36/36/36 21/2/2
f 13/32/32 29/37/37 14/5/5
f 7/9/9 82/8/8 22/38/38
f 308/10/10 21/2/2 36/36/36
f 14/5/5 30/39/39 15/12/12
f 7/9/9 23/40/40 8/13/13
f 16/16/16 30/39/39 31/41/41
f 8/13/13 24/42/42 9/17/17
f 17/19/19 31/41/41 32/43/43
f 9/17/17 25/44/44 10/21/21
f 18/24/24 32/43/43 33/45/45
f 10/21/21 26/46/46 11/25/25
f 18/24/24 34/47/47 19/27/27
f 30/39/39 46/48/48 31/41/41
f 23/40/40 39/49/49 24/42/42
f 32/43/43 46/48/48 47/50/50
f 24/42/42 40/51/51 25/44/44
f 32/43/43 48/52/52 33/45/45
f 25/44/44 41/53/53 26/46/46
f 34/47/47 48/52/52 49/54/54
f 26/46/46 42/55/55 27/33/33
f 34/47/47 50/56/56 35/34/34
f 28/35/35 42/55/55 43/57/57
f 35/34/34 51/58/58 36/36/36
f 28/35/35 44/59/59 29/37/37
f 22/38/38 82/8/8 37/60/60
f 308/10/10 36/36/36 51/58/58
f 30/39/39 44/59/59 45/61/61
f 22/38/38 38/62/62 23/40/40
f 49/54/54 65/63/63 50/56/56
f 42/55/55 58/64/64 43/57/57
f 50/56/56 66/65/65 51/58/58
f 44/59/59 58/64/64 59/66/66
f 37/60/60 82/8/8 52/67/67
f 308/10/10 51/58/58 66/65/65
f 44/59/59 60/68/68 45/61/61
f 37/60/60 53/69/69 38/62/62
f 46/48/48 60/68/68 61/70/70
f 38/62/62 54/71/71 39/49/49
f 47/50/50 61/70/70 62/72/72
f 39/49/49 55/73/73 40/51/51
f 47/50/50 63/74/74 48/52/52
f 40/51/51 56/75/75 41/53/53
f 49/54/54 63/74/74 64/76/76
f 41/53/53 57/77/77 42/55/55
f 62/72/72 76/78/78 77/79/79
f 54/71/71 70/80/80 55/73/73
f 62/72/72 78/81/81 63/74/74
f 56/75/75 70/80/80 71/82/82
f 64/76/76 78/81/81 79/83/83
f 56/75/75 72/84/84 57/77/77
f 65/63/63 79/83/83 80/85/85
f 57/77/77 73/86/86 58/64/64
f 65/63/63 81/87/87 66/65/65
f 59/66/66 73/86/86 74/88/88
f 52/67/67 82/8/8 67/89/89
f 308/10/10 66/65/65 81/87/87
f 59/66/66 75/90/90 60/68/68
f 52/67/67 68/91/91 53/69/69
f 61/70/70 75/90/90 76/78/78
f 53/69/69 69/92/92 54/71/71
f 81/87/87 96/93/93 97/94/94
f 74/88/88 89/95/95 90/96/96
f 67/89/89 82/8/8 83/97/97
f 308/10/10 81/87/87 97/94/94
f 74/88/88 91/98/98 75/90/90
f 67/89/89 84/99/99 68/91/91
f 75/90/90 92/100/100 76/78/78
f 68/91/91 85/101/101 69/92/92
f 77/79/79 92/100/100 93/102/102
f 69/92/92 86/103/103 70/80/80
f 77/79/79 94/104/104 78/81/81
f 71/82/82 86/103/103 87/105/105
f 79/83/83 94/104/104 95/106/106
f 71/82/82 88/107/107 72/84/84
f 79/83/83 96/93/93 80/85/85
f 73/86/86 88/107/107 89/95/95
f 85/101/101 101/108/108 86/103/103
f 93/102/102 109/109/109 94/104/104
f 87/105/105 101/108/108 102/110/110
f 95/106/106 109/109/109 110/111/111
f 87/105/105 103/112/112 88/107/107
f 96/93/93 110/111/111 111/113/113
f 89/95/95 103/112/112 104/114/114
f 97/94/94 111/113/113 112/115/115
f 89/95/95 105/116/116 90/96/96
f 83/97/97 82/8/8 98/117/117
f 308/10/10 97/94/94 112/115/115
f 91/98/98 105/116/116 106/118/118
f 83/97/97 99/119/119 84/99/99
f 91/98/98 107/120/120 92/100/100
f 84/99/99 100/121/121 85/101/101
f 93/102/102 107/120/120 108/122/122
f 105/116/116 119/123/123 120/124/124
f 98/117/117 82/8/8 113/125/125
f 308/10/10 112/115/115 127/126/126
f 105/116/116 121/127/127 106/118/118
f 98/117/117 114/128/128 99/119/119
f 106/118/118 122/129/129 107/120/120
f 99/119/119 115/130/130 100/121/121
f 108/122/122 122/129/129 123/131/131
f 100/121/121 116/132/132 101/108/108
f 108/122/122 124/133/133 109/109/109
f 102/110/110 116/132/132 117/134/134
f 110/111/111 124/133/133 125/135/135
f 102/110/110 118/136/136 103/112/112
f 111/113/113 125/135/135 126/137/137
f 104/114/114 118/136/136 119/123/123
f 111/113/113 127/126/126 112/115/115
f 123/131/131 139/138/138 124/133/133
f 116/132/132 132/139/139 117/134/134
f 125/135/135 139/138/138 140/140/140
f 117/134/134 133/141/141 118/136/136
f 126/137/137 140/140/140 141/142/142
f 118/136/136 134/143/143 119/123/123
f 126/137/137 142/144/144 127/126/126
f 120/124/124 134/143/143 135/145/145
f 113/125/125 82/8/8 128/146/146
f 308/10/10 127/126/126 142/144/144
f 120/124/124 136/147/147 121/127/127
f 113/125/125 129/148/148 114/128/128
f 122/129/129 136/147/147 137/149/149
f 114/128/128 130/150/150 115/130/130
f 123/131/131 137/149/149 138/151/151
f 115/130/130 131/152/152 116/132/132
f 128/146/146 82/8/8 143/153/153
f 308/10/10 142/144/144 157/154/154
f 135/145/145 151/155/155 136/147/147
f 129/148/148 143/153/153 144/156/156
f 137/149/149 151/155/155 152/157/157
f 130/150/150 144/156/156 145/158/158
f 137/149/149 153/159/159 138/151/151
f 131/152/152 145/158/158 146/160/160
f 138/151/151 154/161/161 139/138/138
f 132/139/139 146/160/160 147/162/162
f 139/138/138 155/163/163 140/140/140
f 133/141/141 147/162/162 148/164/164
f 140/140/140 156/165/165 141/142/142
f 133/141/141 149/166/166 134/143/143
f 141/142/142 157/154/154 142/144/144
f 135/145/145 149/166/166 150/167/167
f 146/160/160 162/168/168 147/162/162
f 155/163/163 169/169/169 170/170/170
f 147/162/162 163/171/171 148/164/164
f 155/163/163 171/172/172 156/165/165
f 148/164/164 164/173/173 149/166/166
f 156/165/165 172/174/174 157/154/154
f 150/167/167 164/173/173 165/175/175
f 143/153/153 82/8/8 158/176/176
f 308/10/10 157/154/154 172/174/174
f 150/167/167 166/177/177 151/155/155
f 144/156/156 158/176/176 159/178/178
f 151/155/155 167/179/179 152/157/157
f 145/158/158 159/178/178 160/180/180
f 153/159/159 167/179/179 168/181/181
f 146/160/160 160/180/180 161/182/182
f 154/161/161 168/181/181 169/169/169
f 165/175/175 181/183/183 166/177/177
f 159/178/178 173/184/184 174/185/185
f 166/177/177 182/186/186 167/179/179
f 160/180/180 174/185/185 175/187/187
f 168/181/181 182/186/186 183/188/188
f 161/182/182 175/187/187 176/189/189
f 168/181/181 184/190/190 169/169/169
f 161/182/182 177/191/191 162/168/168
f 169/169/169 185/192/192 170/170/170
f 162/168/168 178/193/193 163/171/171
f 171/172/172 185/192/192 186/194/194
f 164/173/173 178/193/193 179/195/195
f 171/172/172 187/196/196 172/174/174
f 165/175/175 179/195/195 180/197/197
f 158/176/176 82/8/8 173/184/184
f 308/10/10 172/174/174 187/196/196
f 184/190/190 200/198/198 185/192/192
f 177/191/191 193/199/199 178/193/193
f 185/192/192 201/200/200 186/194/194
f 179/195/195 193/199/199 194/201/201
f 186/194/194 202/202/202 187/196/196
f 180/197/197 194/201/201 195/203/203
f 173/184/184 82/8/8 188/204/204
f 308/10/10 187/196/196 202/202/202
f 180/197/197 196/205/205 181/183/183
f 174/185/185 188/204/204 189/206/206
f 181/183/183 197/207/207 182/186/186
f 175/187/187 189/206/206 190/208/208
f 182/186/186 198/209/209 183/188/188
f 176/189/189 190/208/208 191/210/210
f 183/188/188 199/211/211 184/190/190
f 177/191/191 191/210/210 192/212/212
f 196/205/205 212/213/213 197/207/207
f 190/208/208 204/214/214 205/215/215
f 198/209/209 212/213/213 213/216/216
f 191/210/210 205/215/215 206/217/217
f 199/211/211 213/216/216 214/218/218
f 192/212/212 206/217/217 207/219/219
f 200/198/198 214/218/218 215/220/220
f 193/199/199 207/219/219 208/221/221
f 201/200/200 215/220/220 216/222/222
f 194/201/201 208/221/221 209/223/223
f 201/200/200 217/224/224 202/202/202
f 195/203/203 209/223/223 210/225/225
f 188/204/204 82/8/8 203/226/226
f 308/10/10 202/202/202 217/224/224
f 195/203/203 211/227/227 196/205/205
f 189/206/206 203/226/226 204/214/214
f 216/222/222 230/228/228 231/229/229
f 209/223/223 223/230/230 224/231/231
f 217/224/224 231/229/229 232/232/232
f 209/223/223 225/233/233 210/225/225
f 203/226/226 82/8/8 218/234/234
f 308/10/10 217/224/224 232/232/232
f 211/227/227 225/233/233 226/235/235
f 204/214/214 218/234/234 219/236/236
f 211/227/227 227/237/237 212/213/213
f 205/215/215 219/236/236 220/238/238
f 213/216/216 227/237/237 228/239/239
f 206/217/217 220/238/238 221/240/240
f 213/216/216 229/241/241 214/218/218
f 207/219/219 221/240/240 222/242/242
f 214/218/218 230/228/228 215/220/220
f 208/221/221 222/242/242 223/230/230
f 220/238/238 234/243/243 235/244/244
f 228/239/239 242/245/245 243/246/246
f 221/240/240 235/244/244 236/247/247
f 228/239/239 244/248/248 229/241/241
f 222/242/242 236/247/247 237/249/249
f 230/228/228 244/248/248 245/250/250
f 223/230/230 237/249/249 238/251/251
f 231/229/229 245/250/250 246/252/252
f 224/231/231 238/251/251 239/253/253
f 232/232/232 246/252/252 247/254/254
f 225/233/233 239/253/253 240/255/255
f 218/234/234 82/8/8 233/256/256
f 308/10/10 232/232/232 247/254/254
f 225/233/233 241/257/257 226/235/235
f 219/236/236 233/256/256 234/243/243
f 226/235/235 242/245/245 227/237/237
f 239/258/253 253/259/258 254/260/259
f 246/261/252 262/262/260 247/263/254
f 240/264/255 254/260/259 255/265/261
f 233/266/262 82/8/263 248/267/264
f 308/10/10 247/263/254 262/262/260
f 240/264/255 256/268/265 241/269/257
f 233/266/262 249/270/266 234/271/267
f 241/269/257 257/272/268 242/273/245
f 234/271/267 250/274/269 235/275/244
f 242/273/245 258/276/270 243/277/246
f 235/275/244 251/278/271 236/279/247
f 243/277/246 259/280/272 244/281/248
f 236/279/247 252/282/273 237/283/249
f 245/284/250 259/280/272 260/285/274
f 237/283/249 253/259/258 238/286/251
f 246/261/252 260/285/274 261/287/275
f 258/276/270 272/288/276 273/289/277
f 250/274/269 266/290/278 251/278/271
f 258/276/270 274/291/279 259/280/272
f 251/278/271 267/292/280 252/282/273
f 259/280/272 275/293/281 260/285/274
f 252/282/273 268/294/282 253/259/258
f 261/287/275 275/293/281 276/295/283
f 253/259/258 269/296/284 254/260/259
f 262/262/260 276/295/283 277/297/285
f 255/265/261 269/296/284 270/298/286
f 248/267/264 82/8/263 263/299/287
f 308/10/10 262/262/260 277/297/285
f 255/265/261 271/300/288 256/268/265
f 248/267/264 264/301/289 249/270/266
f 257/272/268 271/300/288 272/288/276
f 249/270/266 265/302/290 250/274/269
f 277/297/285 291/303/291 292/304/292
f 270/298/286 284/305/293 285/306/294
f 263/299/287 82/8/263 278/307/295
f 308/10/10 277/297/285 292/304/292
f 270/298/286 286/308/296 271/300/288
f 263/299/287 279/309/297 264/301/289
f 271/300/288 287/310/298 272/288/276
f 264/301/289 280/311/299 265/302/290
f 273/289/277 287/310/298 288/312/300
f 265/302/290 281/313/301 266/290/278
f 273/289/277 289/314/302 274/291/279
f 266/290/278 282/315/303 267/292/280
f 275/293/281 289/314/302 290/316/304
f 267/292/280 283/317/305 268/294/282
f 275/293/281 291/303/291 276/295/283
f 268/294/282 284/305/293 269/296/284
f 280/311/299 296/318/306 281/313/301
f 288/312/300 304/319/307 289/314/302
f 281/313/301 297/320/308 282/315/303
f 290/316/304 304/319/307 305/321/309
f 282/315/303 298/322/310 283/317/305
f 291/303/291 305/321/309 306/323/311
f 284/305/293 298/322/310 299/324/312
f 291/303/291 307/325/313 292/304/292
f 285/306/294 299/324/312 300/326/314
f 278/307/295 82/8/263 293/327/315
f 308/10/10 292/304/292 307/325/313
f 285/306/294 301/328/316 286/308/296
f 278/307/295 294/329/317 279/309/297
f 286/308/296 302/330/318 287/310/298
f 279/309/297 295/331/319 280/311/299
f 288/312/300 302/330/318 303/332/320
f 300/326/314 315/333/321 316/334/322
f 293/327/315 82/8/263 309/335/323
f 308/10/10 307/325/313 323/336/324
f 300/326/314 317/337/325 301/328/316
f 293/327/315 310/338/326 294/329/317
f 301/328/316 318/339/327 302/330/318
f 294/329/317 311/340/328 295/331/319
f 303/332/320 318/339/327 319/341/329
f 295/331/319 312/342/330 296/318/306
f 303/332/320 320/343/331 304/319/307
f 296/318/306 313/344/332 297/320/308
f 305/321/309 320/343/331 321/345/333
f 297/320/308 314/346/334 298/322/310
f 305/321/309 322/347/335 306/323/311
f 298/322/310 315/333/321 299/324/312
f 307/325/313 322/347/335 323/336/324
f 319/341/329 335/348/336 320/343/331
f 313/344/332 327/349/337 328/350/338
f 321/345/333 335/348/336 336/351/339
f 313/344/332 329/352/340 314/346/334
f 322/347/335 336/351/339 337/353/341
f 315/333/321 329/352/340 330/354/342
f 322/347/335 338/355/343 323/336/324
f 316/334/322 330/354/342 331/356/344
f 309/335/323 82/8/263 324/357/345
f 308/10/10 323/336/324 338/355/343
f 316/334/322 332/358/346 317/337/325
f 309/335/323 325/359/347 310/338/326
f 317/337/325 333/360/348 318/339/327
f 310/338/326 326/361/349 311/340/328
f 319/341/329 333/360/348 334/362/350
f 311/340/328 327/349/337 312/342/330
f 308/10/10 338/355/343 353/363/351
f 331/356/344 347/364/352 332/358/346
f 324/357/345 340/365/353 325/359/347
f 332/358/346 348/366/354 333/360/348
f 325/359/347 341/367/355 326/361/349
f 334/362/350 348/366/354 349/368/356
f 326/361/349 342/369/357 327/349/337
f 334/362/350 350/370/358 335/348/336
f 328/350/338 342/369/357 343/371/359
f 336/351/339 350/370/358 351/372/360
f 328/350/338 344/373/361 329/352/340
f 337/353/341 351/372/360 352/374/362
f 330/354/342 344/373/361 345/375/363
f 337/353/341 353/363/351 338/355/343
f 331/356/344 345/375/363 346/376/364
f 324/357/345 82/8/263 339/377/365
f 351/372/360 365/378/366 366/379/367
f 343/371/359 359/380/368 344/373/361
f 351/372/360 367/381/369 352/374/362
f 345/375/363 359/380/368 360/382/370
f 352/374/362 368/383/371 353/363/351
f 346/376/364 360/382/370 361/384/372
f 339/377/365 82/8/263 354/385/373
f 308/10/10 353/363/351 368/383/371
f 346/376/364 362/386/374 347/364/352
f 339/377/365 355/387/375 340/365/353
f 347/364/352 363/388/376 348/366/354
f 341/367/355 355/387/375 356/389/377
f 349/368/356 363/388/376 364/390/378
f 341/367/355 357/391/379 342/369/357
f 349/368/356 365/378/366 350/370/358
f 343/371/359 357/391/379 358/392/380
f 354/385/373 370/393/381 355/387/375
f 362/386/374 378/394/382 363/388/376
f 355/387/375 371/395/383 356/389/377
f 364/390/378 378/394/382 379/396/384
f 356/389/377 372/397/385 357/391/379
f 364/390/378 380/398/386 365/378/366
f 358/392/380 372/397/385 373/399/387
f 366/379/367 380/398/386 381/400/388
f 358/392/380 374/401/389 359/380/368
f 367/381/369 381/400/388 382/402/390
f 360/382/370 374/401/389 375/403/391
f 367/381/369 383/404/392 368/383/371
f 361/384/372 375/403/391 376/405/393
f 354/385/373 82/8/263 369/406/394
f 308/10/10 368/383/371 383/404/392
f 361/384/372 377/407/395 362/386/374
f 373/399/387 389/408/396 374/401/389
f 382/402/390 396/409/397 397/410/398
f 375/403/391 389/408/396 390/411/399
f 382/402/390 398/412/400 383/404/392
f 376/405/393 390/411/399 391/413/401
f 369/406/394 82/8/263 384/414/402
f 308/10/10 383/404/392 398/412/400
f 376/405/393 392/415/403 377/407/395
f 370/393/381 384/414/402 385/416/404
f 377/407/395 393/417/405 378/394/382
f 371/395/383 385/416/404 386/418/406
f 378/394/382 394/419/407 379/396/384
f 371/395/383 387/420/408 372/397/385
f 380/398/386 394/419/407 395/421/409
f 373/399/387 387/420/408 388/422/410
f 381/400/388 395/421/409 396/409/397
f 392/415/403 408/423/411 393/417/405
f 386/418/406 400/424/412 401/425/413
f 394/419/407 408/423/411 409/426/414
f 387/420/408 401/425/413 402/427/415
f 394/419/407 410/428/416 395/421/409
f 388/422/410 402/427/415 403/429/417
f 396/409/397 410/428/416 411/430/418
f 388/422/410 404/431/419 389/408/396
f 396/409/397 412/432/420 397/410/398
f 390/411/399 404/431/419 405/433/421
f 397/410/398 413/434/422 398/412/400
f 391/413/401 405/433/421 406/435/423
f 384/414/402 82/8/263 399/436/424
f 308/10/10 398/412/400 413/434/422
f 391/413/401 407/437/425 392/415/403
f 385/416/404 399/436/424 400/424/412
f 412/432/420 426/438/426 427/439/427
f 405/433/421 419/440/428 420/441/429
f 412/432/420 428/442/430 413/434/422
f 406/435/423 420/441/429 421/443/431
f 399/436/424 82/8/263 414/444/432
f 308/10/10 413/434/422 428/442/430
f 406/435/423 422/445/433 407/437/425
f 400/424/412 414/444/432 415/446/434
f 407/437/425 423/447/435 408/423/411
f 401/425/413 415/446/434 416/448/436
f 409/426/414 423/447/435 424/449/437
f 402/427/415 416/448/436 417/450/438
f 409/426/414 425/451/439 410/428/416
f 403/429/417 417/450/438 418/452/440
f 411/430/418 425/451/439 426/438/426
f 403/429/417 419/440/428 404/431/419
f 416/448/436 430/453/441 431/454/442
f 423/447/435 439/455/443 424/449/437
f 417/450/438 431/454/442 432/456/444
f 424/449/437 440/457/445 425/451/439
f 418/452/440 432/456/444 433/458/446
f 426/438/426 440/457/445 441/459/447
f 419/440/428 433/458/446 434/460/448
f 427/439/427 441/459/447 442/461/449
f 420/441/429 434/460/448 435/462/450
f 428/442/430 442/461/449 443/463/451
f 421/443/431 435/462/450 436/464/452
f 414/444/432 82/8/263 429/465/453
f 308/10/10 428/442/430 443/463/451
f 421/443/431 437/466/454 422/445/433
f 415/446/434 429/465/453 430/453/441
f 422/445/433 438/467/455 423/447/435
f 435/462/450 449/468/456 450/469/457
f 442/461/449 458/470/458 443/463/451
f 436/464/452 450/469/457 451/471/459
f 429/465/453 82/8/263 444/472/460
f 308/10/10 443/463/451 458/470/458
f 436/464/452 452/473/461 437/466/454
f 430/453/441 444/472/460 445/474/462
f 438/467/455 452/473/461 453/475/463
f 431/454/442 445/474/462 446/476/464
f 439/455/443 453/475/463 454/477/465
f 432/456/444 446/476/464 447/478/466
f 439/455/443 455/479/467 440/457/445
f 433/458/446 447/478/466 448/480/468
f 441/459/447 455/479/467 456/481/469
f 434/460/448 448/480/468 449/468/456
f 441/459/447 457/482/470 442/461/449
f 453/475/463 469/483/471 454/477/465
f 447/478/466 461/484/472 462/485/473
f 454/477/465 470/486/474 455/479/467
f 448/480/468 462/485/473 463/487/475
f 456/481/469 470/486/474 471/488/476
f 449/468/456 463/487/475 464/489/477
f 457/482/470 471/488/476 472/490/478
f 449/468/456 465/491/479 450/469/457
f 458/470/458 472/490/478 473/492/480
f 451/471/459 465/491/479 466/493/481
f 444/472/460 82/8/263 459/494/482
f 308/10/10 458/470/458 473/492/480
f 451/471/459 467/495/483 452/473/461
f 445/474/462 459/494/482 460/496/484
f 452/473/461 468/497/485 453/475/463
f 446/476/464 460/496/484 461/484/472
f 472/490/478 482/3/3 473/492/480
f 466/493/481 3/4/4 4/6/6
f 459/494/482 82/8/263 474/7/486
f 308/10/10 473/492/480 482/3/3
f 466/493/481 5/11/11 467/495/483
f 460/496/484 474/7/486 475/14/487
f 467/495/483 478/15/15 468/497/485
f 461/484/472 475/14/487 1/18/18
f 468/497/485 6/20/20 469/483/471
f 462/485/473 1/18/18 476/22/22
f 469/483/471 479/23/23 470/486/474
f 463/487/475 476/22/22 2/26/26
f 471/488/476 479/23/23 480/28/28
f 464/489/477 2/26/26 477/30/30
f 471/488/476 481/1/1 472/490/478
f 465/491/479 477/30/30 3/4/4
f 481/1/1 20/31/31 21/2/2
f 3/4/4 13/32/32 14/5/5
f 5/11/11 4/6/6 14/5/5
f 474/7/7 7/9/9 8/13/13
f 478/15/15 5/11/11 15/12/12
f 475/14/14 8/13/13 9/17/17
f 478/15/15 16/16/16 17/19/19
f 1/18/18 9/17/17 10/21/21
f 479/23/23 6/20/20 17/19/19
f 476/22/22 10/21/21 11/25/25
f 479/23/23 18/24/24 19/27/27
f 2/26/26 11/25/25 12/29/29
f 480/28/28 19/27/27 20/31/31
f 3/4/4 477/30/30 12/29/29
f 11/25/25 26/46/46 27/33/33
f 19/27/27 34/47/47 35/34/34
f 12/29/29 27/33/33 28/35/35
f 20/31/31 35/34/34 36/36/36
f 13/32/32 28/35/35 29/37/37
f 14/5/5 29/37/37 30/39/39
f 7/9/9 22/38/38 23/40/40
f 16/16/16 15/12/12 30/39/39
f 8/13/13 23/40/40 24/42/42
f 17/19/19 16/16/16 31/41/41
f 9/17/17 24/42/42 25/44/44
f 18/24/24 17/19/19 32/43/43
f 10/21/21 25/44/44 26/46/46
f 18/24/24 33/45/45 34/47/47
f 30/39/39 45/61/61 46/48/48
f 23/40/40 38/62/62 39/49/49
f 32/43/43 31/41/41 46/48/48
f 24/42/42 39/49/49 40/51/51
f 32/43/43 47/50/50 48/52/52
f 25/44/44 40/51/51 41/53/53
f 34/47/47 33/45/45 48/52/52
f 26/46/46 41/53/53 42/55/55
f 34/47/47 49/54/54 50/56/56
f 28/35/35 27/33/33 42/55/55
f 35/34/34 50/56/56 51/58/58
f 28/35/35 43/57/57 44/59/59
f 30/39/39 29/37/37 44/59/59
f 22/38/38 37/60/60 38/62/62
f 49/54/54 64/76/76 65/63/63
f 42/55/55 57/77/77 58/64/64
f 50/56/56 65/63/63 66/65/65
f 44/59/59 43/57/57 58/64/64
f 44/59/59 59/66/66 60/68/68
f 37/60/60 52/67/67 53/69/69
f 46/48/48 45/61/61 60/68/68
f 38/62/62 53/69/69 54/71/71
f 47/50/50 46/48/48 61/70/70
f 39/49/49 54/71/71 55/73/73
f 47/50/50 62/72/72 63/74/74
f 40/51/51 55/73/73 56/75/75
f 49/54/54 48/52/52 63/74/74
f 41/53/53 56/75/75 57/77/77
f 62/72/72 61/70/70 76/78/78
f 54/71/71 69/92/92 70/80/80
f 62/72/72 77/79/79 78/81/81
f 56/75/75 55/73/73 70/80/80
f 64/76/76 63/74/74 78/81/81
f 56/75/75 71/82/82 72/84/84
f 65/63/63 64/76/76 79/83/83
f 57/77/77 72/84/84 73/86/86
f 65/63/63 80/85/85 81/87/87
f 59/66/66 58/64/64 73/86/86
f 59/66/66 74/88/88 75/90/90
f 52/67/67 67/89/89 68/91/91
f 61/70/70 60/68/68 75/90/90
f 53/69/69 68/91/91 69/92/92
f 81/87/87 80/85/85 96/93/93
f 74/88/88 73/86/86 89/95/95
f 74/88/88 90/96/96 91/98/98
f 67/89/89 83/97/97 84/99/99
f 75/90/90 91/98/98 92/100/100
f 68/91/91 84/99/99 85/101/101
f 77/79/79 76/78/78 92/100/100
f 69/92/92 85/101/101 86/103/103
f 77/79/79 93/102/102 94/104/104
f 71/82/82 70/80/80 86/103/103
f 79/83/83 78/81/81 94/104/104
f 71/82/82 87/105/105 88/107/107
f 79/83/83 95/106/106 96/93/93
f 73/86/86 72/84/84 88/107/107
f 85/101/101 100/121/121 101/108/108
f 93/102/102 108/122/122 109/109/109
f 87/105/105 86/103/103 101/108/108
f 95/106/106 94/104/104 109/109/109
f 87/105/105 102/110/110 103/112/112
f 96/93/93 95/106/106 110/111/111
f 89/95/95 88/107/107 103/112/112
f 97/94/94 96/93/93 111/113/113
f 89/95/95 104/114/114 105/116/116
f 91/98/98 90/96/96 105/116/116
f 83/97/97 98/117/117 99/119/119
f 91/98/98 106/118/118 107/120/120
f 84/99/99 99/119/119 100/121/121
f 93/102/102 92/100/100 107/120/120
f 105/116/116 104/114/114 119/123/123
f 105/116/116 120/124/124 121/127/127
f 98/117/117 113/125/125 114/128/128
f 106/118/118 121/127/127 122/129/129
f 99/119/119 114/128/128 115/130/130
f 108/122/122 107/120/120 122/129/129
f 100/121/121 115/130/130 116/132/132
f 108/122/122 123/131/131 124/133/133
f 102/110/110 101/108/108 116/132/132
f 110/111/111 109/109/109 124/133/133
f 102/110/110 117/134/134 118/136/136
f 111/113/113 110/111/111 125/135/135
f 104/114/114 103/112/112 118/136/136
f 111/113/113 126/137/137 127/126/126
f 123/131/131 138/151/151 139/138/138
f 116/132/132 131/152/152 132/139/139
f 125/135/135 124/133/133 139/138/138
f 117/134/134 132/139/139 133/141/141
f 126/137/137 125/135/135 140/140/140
f 118/136/136 133/141/141 134/143/143
f 126/137/137 141/142/142 142/144/144
f 120/124/124 119/123/123 134/143/143
f 120/124/124 135/145/145 136/147/147
f 113/125/125 128/146/146 129/148/148
f 122/129/129 121/127/127 136/147/147
f 114/128/128 129/148/148 130/150/150
f 123/131/131 122/129/129 137/149/149
f 115/130/130 130/150/150 131/152/152
f 135/145/145 150/167/167 151/155/155
f 129/148/148 128/146/146 143/153/153
f 137/149/149 136/147/147 151/155/155
f 130/150/150 129/148/148 144/156/156
f 137/149/149 152/157/157 153/159/159
f 131/152/152 130/150/150 145/158/158
f 138/151/151 153/159/159 154/161/161
f 132/139/139 131/152/152 146/160/160
f 139/138/138 154/161/161 155/163/163
f 133/141/141 132/139/139 147/162/162
f 140/140/140 155/163/163 156/165/165
f 133/141/141 148/164/164 149/166/166
f 141/142/142 156/165/165 157/154/154
f 135/145/145 134/143/143 149/166/166
f 146/160/160 161/182/182 162/168/168
f 155/163/163 154/161/161 169/169/169
f 147/162/162 162/168/168 163/171/171
f 155/163/163 170/170/170 171/172/172
f 148/164/164 163/171/171 164/173/173
f 156/165/165 171/172/172 172/174/174
f 150/167/167 149/166/166 164/173/173
f 150/167/167 165/175/175 166/177/177
f 144/156/156 143/153/153 158/176/176
f 151/155/155 166/177/177 167/179/179
f 145/158/158 144/156/156 159/178/178
f 153/159/159 152/157/157 167/179/179
f 146/160/160 145/158/158 160/180/180
f 154/161/161 153/159/159 168/181/181
f 165/175/175 180/197/197 181/183/183
f 159/178/178 158/176/176 173/184/184
f 166/177/177 181/183/183 182/186/186
f 160/180/180 159/178/178 174/185/185
f 168/181/181 167/179/179 182/186/186
f 161/182/182 160/180/180 175/187/187
f 168/181/181 183/188/188 184/190/190
f 161/182/182 176/189/189 177/191/191
f 169/169/169 184/190/190 185/192/192
f 162/168/168 177/191/191 178/193/193
f 171/172/172 170/170/170 185/192/192
f 164/173/173 163/171/171 178/193/193
f 171/172/172 186/194/194 187/196/196
f 165/175/175 164/173/173 179/195/195
f 184/190/190 199/211/211 200/198/198
f 177/191/191 192/212/212 193/199/199
f 185/192/192 200/198/198 201/200/200
f 179/195/195 178/193/193 193/199/199
f 186/194/194 201/200/200 202/202/202
f 180/197/197 179/195/195 194/201/201
f 180/197/197 195/203/203 196/205/205
f 174/185/185 173/184/184 188/204/204
f 181/183/183 196/205/205 197/207/207
f 175/187/187 174/185/185 189/206/206
f 182/186/186 197/207/207 198/209/209
f 176/189/189 175/187/187 190/208/208
f 183/188/188 198/209/209 199/211/211
f 177/191/191 176/189/189 191/210/210
f 196/205/205 211/227/227 212/213/213
f 190/208/208 189/206/206 204/214/214
f 198/209/209 197/207/207 212/213/213
f 191/210/210 190/208/208 205/215/215
f 199/211/211 198/209/209 213/216/216
f 192/212/212 191/210/210 206/217/217
f 200/198/198 199/211/211 214/218/218
f 193/199/199 192/212/212 207/219/219
f 201/200/200 200/198/198 215/220/220
f 194/201/201 193/199/199 208/221/221
f 201/200/200 216/222/222 217/224/224
f 195/203/203 194/201/201 209/223/223
f 195/203/203 210/225/225 211/227/227
f 189/206/206 188/204/204 203/226/226
f 216/222/222 215/220/220 230/228/228
f 209/223/223 208/221/221 223/230/230
f 217/224/224 216/222/222 231/229/229
f 209/223/223 224/231/231 225/233/233
f 211/227/227 210/225/225 225/233/233
f 204/214/214 203/226/226 218/234/234
f 211/227/227 226/235/235 227/237/237
f 205/215/215 204/214/214 219/236/236
f 213/216/216 212/213/213 227/237/237
f 206/217/217 205/215/215 220/238/238
f 213/216/216 228/239/239 229/241/241
f 207/219/219 206/217/217 221/240/240
f 214/218/218 229/241/241 230/228/228
f 208/221/221 207/219/219 222/242/242
f 220/238/238 219/236/236 234/243/243
f 228/239/239 227/237/237 242/245/245
f 221/240/240 220/238/238 235/244/244
f 228/239/239 243/246/246 244/248/248
f 222/242/242 221/240/240 236/247/247
f 230/228/228 229/241/241 244/248/248
f 223/230/230 222/242/242 237/249/249
f 231/229/229 230/228/228 245/250/250
f 224/231/231 223/230/230 238/251/251
f 232/232/232 231/229/229 246/252/252
f 225/233/233 224/231/231 239/253/253
f 225/233/233 240/255/255 241/257/257
f 219/236/236 218/234/234 233/256/256
f 226/235/235 241/257/257 242/245/245
f 239/258/253 238/286/251 253/259/258
f 246/261/252 261/287/275 262/262/260
f 240/264/255 239/258/253 254/260/259
f 240/264/255 255/265/261 256/268/265
f 233/266/262 248/267/264 249/270/266
f 241/269/257 256/268/265 257/272/268
f 234/271/267 249/270/266 250/274/269
f 242/273/245 257/272/268 258/276/270
f 235/275/244 250/274/269 251/278/271
f 243/277/246 258/276/270 259/280/272
f 236/279/247 251/278/271 252/282/273
f 245/284/250 244/281/248 259/280/272
f 237/283/249 252/282/273 253/259/258
f 246/261/252 245/284/250 260/285/274
f 258/276/270 257/272/268 272/288/276
f 250/274/269 265/302/290 266/290/278
f 258/276/270 273/289/277 274/291/279
f 251/278/271 266/290/278 267/292/280
f 259/280/272 274/291/279 275/293/281
f 252/282/273 267/292/280 268/294/282
f 261/287/275 260/285/274 275/293/281
f 253/259/258 268/294/282 269/296/284
f 262/262/260 261/287/275 276/295/283
f 255/265/261 254/260/259 269/296/284
f 255/265/261 270/298/286 271/300/288
f 248/267/264 263/299/287 264/301/289
f 257/272/268 256/268/265 271/300/288
f 249/270/266 264/301/289 265/302/290
f 277/297/285 276/295/283 291/303/291
f 270/298/286 269/296/284 284/305/293
f 270/298/286 285/306/294 286/308/296
f 263/299/287 278/307/295 279/309/297
f 271/300/288 286/308/296 287/310/298
f 264/301/289 279/309/297 280/311/299
f 273/289/277 272/288/276 287/310/298
f 265/302/290 280/311/299 281/313/301
f 273/289/277 288/312/300 289/314/302
f 266/290/278 281/313/301 282/315/303
f 275/293/281 274/291/279 289/314/302
f 267/292/280 282/315/303 283/317/305
f 275/293/281 290/316/304 291/303/291
f 268/294/282 283/317/305 284/305/293
f 280/311/299 295/331/319 296/318/306
f 288/312/300 303/332/320 304/319/307
f 281/313/301 296/318/306 297/320/308
f 290/316/304 289/314/302 304/319/307
f 282/315/303 297/320/308 298/322/310
f 291/303/291 290/316/304 305/321/309
f 284/305/293 283/317/305 298/322/310
f 291/303/291 306/323/311 307/325/313
f 285/306/294 284/305/293 299/324/312
f 285/306/294 300/326/314 301/328/316
f 278/307/295 293/327/315 294/329/317
f 286/308/296 301/328/316 302/330/318
f 279/309/297 294/329/317 295/331/319
f 288/312/300 287/310/298 302/330/318
f 300/326/314 299/324/312 315/333/321
f 300/326/314 316/334/322 317/337/325
f 293/327/315 309/335/323 310/338/326
f 301/328/316 317/337/325 318/339/327
f 294/329/317 310/338/326 311/340/328
f 303/332/320 302/330/318 318/339/327
f 295/331/319 311/340/328 312/342/330
f 303/332/320 319/341/329 320/343/331
f 296/318/306 312/342/330 313/344/332
f 305/321/309 304/319/307 320/343/331
f 297/320/308 313/344/332 314/346/334
f 305/321/309 321/345/333 322/347/335
f 298/322/310 314/346/334 315/333/321
f 307/325/313 306/323/311 322/347/335
f 319/341/329 334/362/350 335/348/336
f 313/344/332 312/342/330 327/349/337
f 321/345/333 320/343/331 335/348/336
f 313/344/332 328/350/338 329/352/340
f 322/347/335 321/345/333 336/351/339
f 315/333/321 314/346/334 329/352/340
f 322/347/335 337/353/341 338/355/343
f 316/334/322 315/333/321 330/354/342
f 316/334/322 331/356/344 332/358/346
f 309/335/323 324/357/345 325/359/347
f 317/337/325 332/358/346 333/360/348
f 310/338/326 325/359/347 326/361/349
f 319/341/329 318/339/327 333/360/348
f 311/340/328 326/361/349 327/349/337
f 331/356/344 346/376/364 347/364/352
f 324/357/345 339/377/365 340/365/353
f 332/358/346 347/364/352 348/366/354
f 325/359/347 340/365/353 341/367/355
f 334/362/350 333/360/348 348/366/354
f 326/361/349 341/367/355 342/369/357
f 334/362/350 349/368/356 350/370/358
f 328/350/338 327/349/337 342/369/357
f 336/351/339 335/348/336 350/370/358
f 328/350/338 343/371/359 344/373/361
f 337/353/341 336/351/339 351/372/360
f 330/354/342 329/352/340 344/373/361
f 337/353/341 352/374/362 353/363/351
f 331/356/344 330/354/342 345/375/363
f 351/372/360 350/370/358 365/378/366
f 343/371/359 358/392/380 359/380/368
f 351/372/360 366/379/367 367/381/369
f 345/375/363 344/373/361 359/380/368
f 352/374/362 367/381/369 368/383/371
f 346/376/364 345/375/363 360/382/370
f 346/376/364 361/384/372 362/386/374
f 339/377/365 354/385/373 355/387/375
f 347/364/352 362/386/374 363/388/376
f 341/367/355 340/365/353 355/387/375
f 349/368/356 348/366/354 363/388/376
f 341/367/355 356/389/377 357/391/379
f 349/368/356 364/390/378 365/378/366
f 343/371/359 342/369/357 357/391/379
f 354/385/373 369/406/394 370/393/381
f 362/386/374 377/407/395 378/394/382
f 355/387/375 370/393/381 371/395/383
f 364/390/378 363/388/376 378/394/382
f 356/389/377 371/395/383 372/397/385
f 364/390/378 379/396/384 380/398/386
f 358/392/380 357/391/379 372/397/385
f 366/379/367 365/378/366 380/398/386
f 358/392/380 373/399/387 374/401/389
f 367/381/369 366/379/367 381/400/388
f 360/382/370 359/380/368 374/401/389
f 367/381/369 382/402/390 383/404/392
f 361/384/372 360/382/370 375/403/391
f 361/384/372 376/405/393 377/407/395
f 373/399/387 388/422/410 389/408/396
f 382/402/390 381/400/388 396/409/397
f 375/403/391 374/401/389 389/408/396
f 382/402/390 397/410/398 398/412/400
f 376/405/393 375/403/391 390/411/399
f 376/405/393 391/413/401 392/415/403
f 370/393/381 369/406/394 384/414/402
f 377/407/395 392/415/403 393/417/405
f 371/395/383 370/393/381 385/416/404
f 378/394/382 393/417/405 394/419/407
f 371/395/383 386/418/406 387/420/408
f 380/398/386 379/396/384 394/419/407
f 373/399/387 372/397/385 387/420/408
f 381/400/388 380/398/386 395/421/409
f 392/415/403 407/437/425 408/423/411
f 386/418/406 385/416/404 400/424/412
f 394/419/407 393/417/405 408/423/411
f 387/420/408 386/418/406 401/425/413
f 394/419/407 409/426/414 410/428/416
f 388/422/410 387/420/408 402/427/415
f 396/409/397 395/421/409 410/428/416
f 388/422/410 403/429/417 404/431/419
f 396/409/397 411/430/418 412/432/420
f 390/411/399 389/408/396 404/431/419
f 397/410/398 412/432/420 413/434/422
f 391/413/401 390/411/399 405/433/421
f 391/413/401 406/435/423 407/437/425
f 385/416/404 384/414/402 399/436/424
f 412/432/420 411/430/418 426/438/426
f 405/433/421 404/431/419 419/440/428
f 412/432/420 427/439/427 428/442/430
f 406/435/423 405/433/421 420/441/429
f 406/435/423 421/443/431 422/445/433
f 400/424/412 399/436/424 414/444/432
f 407/437/425 422/445/433 423/447/435
f 401/425/413 400/424/412 415/446/434
f 409/426/414 408/423/411 423/447/435
f 402/427/415 401/425/413 416/448/436
f 409/426/414 424/449/437 425/451/439
f 403/429/417 402/427/415 417/450/438
f 411/430/418 410/428/416 425/451/439
f 403/429/417 418/452/440 419/440/428
f 416/448/436 415/446/434 430/453/441
f 423/447/435 438/467/455 439/455/443
f 417/450/438 416/448/436 431/454/442
f 424/449/437 439/455/443 440/457/445
f 418/452/440 417/450/438 432/456/444
f 426/438/426 425/451/439 440/457/445
f 419/440/428 418/452/440 433/458/446
f 427/439/427 426/438/426 441/459/447
f 420/441/429 419/440/428 434/460/448
f 428/442/430 427/439/427 442/461/449
f 421/443/431 420/441/429 435/462/450
f 421/443/431 436/464/452 437/466/454
f 415/446/434 414/444/432 429/465/453
f 422/445/433 437/466/454 438/467/455
f 435/462/450 434/460/448 449/468/456
f 442/461/449 457/482/470 458/470/458
f 436/464/452 435/462/450 450/469/457
f 436/464/452 451/471/459 452/473/461
f 430/453/441 429/465/453 444/472/460
f 438/467/455 437/466/454 452/473/461
f 431/454/442 430/453/441 445/474/462
f 439/455/443 438/467/455 453/475/463
f 432/456/444 431/454/442 446/476/464
f 439/455/443 454/477/465 455/479/467
f 433/458/446 432/456/444 447/478/466
f 441/459/447 440/457/445 455/479/467
f 434/460/448 433/458/446 448/480/468
f 441/459/447 456/481/469 457/482/470
f 453/475/463 468/497/485 469/483/471
f 447/478/466 446/476/464 461/484/472
f 454/477/465 469/483/471 470/486/474
f 448/480/468 447/478/466 462/485/473
f 456/481/469 455/479/467 470/486/474
f 449/468/456 448/480/468 463/487/475
f 457/482/470 456/481/469 471/488/476
f 449/468/456 464/489/477 465/491/479
f 458/470/458 457/482/470 472/490/478
f 451/471/459 450/469/457 465/491/479
f 451/471/459 466/493/481 467/495/483
f 445/474/462 444/472/460 459/494/482
f 452/473/461 467/495/483 468/497/485
f 446/476/464 445/474/462 460/496/484
f 472/490/478 481/1/1 482/3/3
f 466/493/481 465/491/479 3/4/4
f 466/493/481 4/6/6 5/11/11
f 460/496/484 459/494/482 474/7/486
f 467/495/483 5/11/11 478/15/15
f 461/484/472 460/496/484 475/14/487
f 468/497/485 478/15/15 6/20/20
f 462/485/473 461/484/472 1/18/18
f 469/483/471 6/20/20 479/23/23
f 463/487/475 462/485/473 476/22/22
f 471/488/476 470/486/474 479/23/23
f 464/489/477 463/487/475 2/26/26
f 471/488/476 480/28/28 481/1/1
f 465/491/479 464/489/477 477/30/30
s 2
g Fruit_Material.010
usemtl Material.010
f 483/498/488 491/499/488 488/500/488
s 3
f 490/501/489 484/502/489 485/503/489
s 4
f 491/499/490 487/504/491 488/500/492
s 5
f 489/505/493 486/506/494 487/504/495
s 6
f 490/501/496 486/506/497 492/507/498
s 7
f 483/498/499 488/500/499 495/508/499
s 8
f 494/509/500 485/503/500 484/502/500
s 9
f 495/508/501 487/504/502 493/510/503
s 10
f 493/510/504 486/506/505 496/511/506
s 11
f 486/506/507 494/509/508 496/511/509
s 4
f 491/499/490 489/505/549 487/504/491
s 5
f 489/505/493 492/507/550 486/506/494
s 6
f 490/501/496 485/503/551 486/506/497
s 9
f 495/508/501 488/500/552 487/504/502
s 10
f 493/510/504 487/504/553 486/506/505
s 11
f 486/506/507 485/503/554 494/509/508
s 12
g Fruit_Material.011
usemtl Material.011
f 497/512/510 500/513/511 499/514/512
s 13
f 499/514/513 502/515/514 501/516/515
s 14
f 502/517/516 503/518/517 501/519/518
s 15
f 504/520/519 505/521/520 503/518/521
s 16
f 506/522/522 507/523/523 505/521/524
s 17
f 508/524/525 509/525/526 507/523/527
s 18
f 508/524/528 519/526/528 510/527/528
s 19
f 509/525/529 512/528/530 511/529/531
s 20
f 511/529/532 498/530/533 497/512/534
s 21
f 503/531/535 507/532/535 511/533/535
s 22
f 519/534/536 517/535/536 515/536/537
s 15
f 506/522/538 516/537/539 517/538/539
s 23
f 512/528/540 519/526/540 520/539/541
s 24
f 502/515/542 514/540/542 515/541/542
s 16
f 508/524/543 517/538/544 518/542/544
s 20
f 512/528/545 513/543/546 498/530/533
s 12
f 500/513/511 513/543/547 514/540/547
s 25
f 502/517/548 516/537/548 504/520/548
s 12
f 497/512/510 498/530/555 500/513/511
s 13
f 499/514/513 500/513/556 502/515/514
s 14
f 502/517/516 504/520/557 503/518/517
s 15
f 504/520/519 506/522/538 505/521/520
s 16
f 506/522/522 508/524/543 507/523/523
s 17
f 508/524/525 510/527/558 509/525/526
s 18
f 508/524/528 518/542/528 519/526/528
s 19
f 509/525/529 510/527/559 512/528/530
s 20
f 511/529/532 512/528/545 498/530/533
s 21
f 511/533/535 497/544/535 499/545/535
f 499/545/535 501/546/535 503/531/535
f 503/531/535 505/547/535 507/532/535
f 507/532/535 509/548/535 511/533/535
f 511/533/535 499/545/535 503/531/535
s 22
f 515/536/537 514/549/537 513/550/537
f 513/550/537 520/551/536 519/534/536
f 519/534/536 518/552/560 517/535/536
f 517/535/536 516/553/536 515/536/537
f 515/536/537 513/550/537 519/534/536
s 15
f 506/522/538 504/520/519 516/537/539
s 23
f 512/528/540 510/527/540 519/526/540
s 24
f 502/515/542 500/513/542 514/540/542
s 16
f 508/524/543 506/522/522 517/538/544
s 20
f 512/528/545 520/539/546 513/543/546
s 12
f 500/513/511 498/530/555 513/543/547
s 25
f 502/517/548 515/554/548 516/537/548
