# Blender 5.1.0
# www.blender.org
mtllib llAtrasIzq.mtl
g GoKart.004_Mesh
v -0.244761 -0.022807 0.056106
v -0.244761 -0.041293 0.046687
v -0.244761 -0.055964 0.032016
v -0.244761 -0.065383 0.013530
v -0.244761 -0.068629 -0.006963
v -0.244761 -0.065384 -0.027455
v -0.244761 -0.055964 -0.045941
v -0.244761 -0.041293 -0.060613
v -0.244761 -0.022807 -0.070032
v -0.244761 -0.002315 -0.073278
v -0.244761 0.018177 -0.070032
v -0.244761 0.036664 -0.060613
v -0.244761 0.051335 -0.045942
v -0.244761 0.060754 -0.027455
v -0.244761 0.063999 -0.006963
v -0.244761 0.060754 0.013530
v -0.244761 0.051335 0.032016
v -0.244761 0.036664 0.046687
v -0.244761 0.018177 0.056106
v -0.244761 -0.002315 0.059352
v -0.242960 -0.002315 -0.006963
v 0.216829 -0.031094 0.081609
v 0.216829 -0.057055 0.068381
v 0.216829 -0.077658 0.047778
v 0.216829 -0.090887 0.021816
v 0.216829 -0.095445 -0.006963
v 0.216829 -0.090887 -0.035741
v 0.216829 -0.077658 -0.061703
v 0.216829 -0.057055 -0.082306
v 0.216829 -0.031094 -0.095535
v 0.216829 -0.002316 -0.100093
v 0.216829 0.026463 -0.095535
v 0.216829 0.052425 -0.082306
v 0.216829 0.073028 -0.061703
v 0.216829 0.086257 -0.035741
v 0.216829 0.090815 -0.006963
v 0.216829 0.086257 0.021816
v 0.216829 0.073028 0.047778
v 0.216829 0.052425 0.068381
v 0.216829 0.026463 0.081609
v 0.216829 -0.002316 0.086167
v 0.227609 -0.034249 0.091320
v 0.227609 -0.063057 0.076642
v 0.227609 -0.085919 0.053779
v 0.227609 -0.100598 0.024971
v 0.227609 -0.105656 -0.006963
v 0.227609 -0.100598 -0.038897
v 0.227609 -0.085919 -0.067705
v 0.227609 -0.063057 -0.090567
v 0.227609 -0.034249 -0.105246
v 0.227609 -0.002316 -0.110303
v 0.227609 0.029619 -0.105246
v 0.227609 0.058427 -0.090567
v 0.227609 0.081289 -0.067705
v 0.227609 0.095968 -0.038897
v 0.227609 0.101026 -0.006963
v 0.227609 0.095968 0.024971
v 0.227609 0.081289 0.053779
v 0.227609 0.058427 0.076642
v 0.227609 0.029619 0.091320
v 0.227609 -0.002316 0.096378
v 0.236885 -0.036343 0.097764
v 0.236885 -0.067040 0.082123
v 0.236885 -0.091400 0.057762
v 0.236885 -0.107041 0.027065
v 0.236885 -0.112432 -0.006963
v 0.236885 -0.107041 -0.040991
v 0.236885 -0.091400 -0.071687
v 0.236885 -0.067040 -0.096049
v 0.236885 -0.036343 -0.111689
v 0.236885 -0.002316 -0.117079
v 0.236885 0.031713 -0.111689
v 0.236885 0.062409 -0.096049
v 0.236885 0.086771 -0.071687
v 0.236885 0.102412 -0.040991
v 0.236885 0.107801 -0.006963
v 0.236885 0.102412 0.027065
v 0.236885 0.086771 0.057762
v 0.236885 0.062409 0.082123
v 0.236885 0.031713 0.097764
v 0.236885 -0.002316 0.103153
v 0.226853 -0.112110 0.144158
v 0.220146 -0.118419 0.152841
v 0.226853 -0.153436 0.102833
v 0.220146 -0.162119 0.109141
v 0.226853 -0.179968 0.050760
v 0.220146 -0.190175 0.054077
v 0.226853 -0.189110 -0.006963
v 0.220146 -0.199843 -0.006963
v 0.226853 -0.179968 -0.064685
v 0.220146 -0.190175 -0.068002
v 0.226853 -0.153436 -0.116758
v 0.220146 -0.162119 -0.123067
v 0.226853 -0.112110 -0.158083
v 0.220146 -0.118419 -0.166766
v 0.226853 -0.060038 -0.184615
v 0.220146 -0.063354 -0.194823
v 0.226853 -0.002315 -0.193758
v 0.220146 -0.002315 -0.204491
v 0.226853 0.055407 -0.184615
v 0.220146 0.058724 -0.194823
v 0.226853 0.107480 -0.158083
v 0.220145 0.113789 -0.166766
v 0.226853 0.148805 -0.116758
v 0.220145 0.157488 -0.123067
v 0.226853 0.175338 -0.064686
v 0.220146 0.185545 -0.068002
v 0.226853 0.184480 -0.006963
v 0.220146 0.195213 -0.006963
v 0.226853 0.175338 0.050760
v 0.220146 0.185545 0.054077
v 0.226853 0.148805 0.102832
v 0.220145 0.157488 0.109141
v 0.226853 0.107480 0.144158
v 0.220146 0.113789 0.152841
v 0.226853 0.055407 0.170690
v 0.220146 0.058724 0.180898
v 0.226853 -0.060038 0.170690
v 0.220146 -0.063354 0.180898
v 0.226853 -0.002315 0.179832
v 0.220146 -0.002315 0.190565
v 0.204536 -0.067232 0.192832
v 0.204536 -0.125795 0.162993
v 0.204536 -0.172271 0.116517
v 0.204536 -0.202110 0.057955
v 0.204536 -0.212392 -0.006963
v 0.204536 -0.202110 -0.071880
v 0.204536 -0.172271 -0.130443
v 0.204536 -0.125795 -0.176918
v 0.204536 -0.067232 -0.206757
v 0.204536 -0.002315 -0.217039
v 0.204536 0.062602 -0.206757
v 0.204536 0.121165 -0.176918
v 0.204536 0.167640 -0.130443
v 0.204536 0.197480 -0.071880
v 0.204536 0.207761 -0.006963
v 0.204536 0.197480 0.057955
v 0.204536 0.167640 0.116517
v 0.204536 0.121165 0.162993
v 0.204536 0.062602 0.192832
v 0.204536 -0.002315 0.203114
v -0.237498 -0.108440 0.139106
v -0.230594 -0.115947 0.149438
v -0.237498 -0.148384 0.099162
v -0.230594 -0.158716 0.106669
v -0.237498 -0.174029 0.048831
v -0.230594 -0.186175 0.052777
v -0.237498 -0.182866 -0.006963
v -0.230594 -0.195637 -0.006963
v -0.237498 -0.174029 -0.062756
v -0.230594 -0.186175 -0.066703
v -0.237498 -0.148384 -0.113088
v -0.230594 -0.158716 -0.120594
v -0.237498 -0.108440 -0.153031
v -0.230594 -0.115947 -0.163364
v -0.237498 -0.058108 -0.178677
v -0.230594 -0.062055 -0.190823
v -0.237498 -0.002315 -0.187513
v -0.230594 -0.002315 -0.200285
v -0.237498 0.053478 -0.178677
v -0.230594 0.057424 -0.190823
v -0.237498 0.103810 -0.153031
v -0.230594 0.111317 -0.163363
v -0.237498 0.143753 -0.113088
v -0.230594 0.154085 -0.120594
v -0.237498 0.169399 -0.062756
v -0.230594 0.181545 -0.066703
v -0.237498 0.178235 -0.006963
v -0.230594 0.191007 -0.006963
v -0.237498 0.169399 0.048831
v -0.230594 0.181545 0.052777
v -0.237498 0.143753 0.099162
v -0.230594 0.154085 0.106669
v -0.237498 0.103810 0.139106
v -0.230594 0.111316 0.149438
v -0.237498 -0.058108 0.164751
v -0.230594 -0.062055 0.176897
v -0.237498 0.053478 0.164751
v -0.230594 0.057424 0.176897
v -0.237498 -0.002315 0.173588
v -0.230594 -0.002315 0.186359
v -0.215897 -0.067232 0.192832
v -0.215897 -0.125795 0.162993
v -0.215897 -0.172271 0.116517
v -0.215897 -0.202110 0.057955
v -0.215897 -0.212392 -0.006963
v -0.215897 -0.202110 -0.071880
v -0.215897 -0.172271 -0.130443
v -0.215897 -0.125795 -0.176918
v -0.215897 -0.067232 -0.206757
v -0.215897 -0.002315 -0.217039
v -0.215897 0.062602 -0.206757
v -0.215897 0.121165 -0.176918
v -0.215897 0.167640 -0.130443
v -0.215897 0.197480 -0.071880
v -0.215897 0.207761 -0.006963
v -0.215897 0.197480 0.057955
v -0.215897 0.167640 0.116517
v -0.215897 0.121165 0.162993
v -0.215897 0.062602 0.192832
v -0.215897 -0.002315 0.203114
v -0.254193 -0.039618 0.107842
v -0.254193 -0.073268 0.090696
v -0.254193 -0.099974 0.063990
v -0.254193 -0.117120 0.030340
v -0.254193 -0.123028 -0.006963
v -0.254193 -0.117120 -0.044265
v -0.254193 -0.099974 -0.077916
v -0.254193 -0.073268 -0.104621
v -0.254193 -0.039618 -0.121767
v -0.254193 -0.002315 -0.127675
v -0.254193 0.034987 -0.121767
v -0.254193 0.068638 -0.104621
v -0.254193 0.095343 -0.077916
v -0.254193 0.112489 -0.044265
v -0.254193 0.118397 -0.006963
v -0.254193 0.112489 0.030340
v -0.254193 0.095343 0.063990
v -0.254193 0.068638 0.090696
v -0.254193 0.034987 0.107842
v -0.254193 -0.002315 0.113750
v 0.236885 -0.046550 0.129178
v 0.236885 -0.086454 0.108845
v 0.236885 -0.118122 0.077177
v 0.236885 -0.138455 0.037272
v 0.236885 -0.145462 -0.006963
v 0.236885 -0.138455 -0.051197
v 0.236885 -0.118122 -0.091102
v 0.236885 -0.086454 -0.122771
v 0.236885 -0.046550 -0.143103
v 0.236885 -0.002316 -0.150109
v 0.236885 0.041919 -0.143103
v 0.236885 0.081824 -0.122771
v 0.236885 0.113493 -0.091102
v 0.236885 0.133825 -0.051197
v 0.236885 0.140831 -0.006963
v 0.236885 0.133825 0.037272
v 0.236885 0.113493 0.077177
v 0.236885 0.081824 0.108845
v 0.236885 0.041919 0.129178
v 0.236885 -0.002316 0.136184
v 0.216829 -0.031094 0.081609
v 0.216829 -0.057055 0.068381
v 0.216829 -0.077658 0.047778
v 0.216829 -0.090887 0.021816
v 0.216829 -0.095445 -0.006963
v 0.216829 -0.090887 -0.035741
v 0.216829 -0.077658 -0.061703
v 0.216829 -0.057055 -0.082306
v 0.216829 -0.031094 -0.095535
v 0.216829 -0.002316 -0.100093
v 0.216829 0.026463 -0.095535
v 0.216829 0.052425 -0.082306
v 0.216829 0.073028 -0.061703
v 0.216829 0.086257 -0.035741
v 0.216829 0.090815 -0.006963
v 0.216829 0.086257 0.021816
v 0.216829 0.073028 0.047778
v 0.216829 0.052425 0.068381
v 0.216829 -0.002316 0.086167
v 0.216829 0.026463 0.081609
v 0.216829 -0.002315 -0.006963
vn -0.9996 0.0084 -0.0258
vn -0.9996 -0.0000 -0.0271
vn -1.0000 -0.0000 -0.0000
vn -0.9996 0.0160 -0.0220
vn -0.9996 0.0220 -0.0160
vn -0.9996 0.0258 -0.0084
vn -0.9996 0.0271 -0.0000
vn -0.9996 0.0258 0.0084
vn -0.9996 0.0220 0.0160
vn -0.9996 0.0160 0.0220
vn -0.9996 0.0084 0.0258
vn -0.9996 -0.0000 0.0271
vn -0.9996 -0.0084 0.0258
vn -0.9996 -0.0160 0.0220
vn -0.9996 -0.0220 0.0160
vn -0.9996 -0.0258 0.0084
vn -0.9996 -0.0271 -0.0000
vn -0.9996 -0.0258 -0.0084
vn -0.9996 -0.0220 -0.0160
vn -0.9996 -0.0160 -0.0220
vn -0.9996 -0.0084 -0.0258
vn 0.6411 0.2371 -0.7299
vn 0.6877 -0.0000 -0.7260
vn 0.6411 -0.0000 -0.7674
vn 0.6411 0.4511 -0.6209
vn 0.6877 0.2244 -0.6905
vn 0.6877 0.5874 -0.4267
vn 0.6877 0.4267 -0.5873
vn 0.6411 0.6209 -0.4511
vn 0.6877 0.6905 -0.2244
vn 0.6411 0.7299 -0.2372
vn 0.6877 0.7260 -0.0000
vn 0.6411 0.7674 -0.0000
vn 0.6877 0.6905 0.2244
vn 0.6411 0.7299 0.2372
vn 0.6877 0.5873 0.4267
vn 0.6411 0.6209 0.4511
vn 0.6877 0.4267 0.5873
vn 0.6412 0.4511 0.6208
vn 0.6877 0.2244 0.6905
vn 0.6412 -0.0000 0.7674
vn 0.6411 0.2372 0.7299
vn 0.6877 -0.2243 0.6905
vn 0.6877 -0.0000 0.7260
vn 0.6411 -0.2372 0.7299
vn 0.6877 -0.4267 0.5873
vn 0.6412 -0.4511 0.6208
vn 0.6877 -0.5873 0.4267
vn 0.6411 -0.7299 0.2372
vn 0.6411 -0.6209 0.4511
vn 0.6411 -0.7674 -0.0000
vn 0.6877 -0.6905 0.2244
vn 0.6411 -0.7299 -0.2372
vn 0.6877 -0.7260 -0.0000
vn 0.6412 -0.6208 -0.4511
vn 0.6877 -0.6905 -0.2244
vn 0.6412 -0.4511 -0.6208
vn 0.6877 -0.5874 -0.4267
vn 0.6411 -0.2371 -0.7299
vn 0.6877 -0.4267 -0.5874
vn 0.6877 -0.2243 -0.6905
vn 0.9847 -0.0000 -0.1741
vn 0.9847 0.0538 -0.1656
vn 0.9847 0.1409 -0.1024
vn 0.9847 0.1023 -0.1409
vn 0.9847 0.1656 -0.0539
vn 0.9847 0.1741 -0.0000
vn 0.9847 0.1657 0.0538
vn 0.9847 0.1409 0.1024
vn 0.9847 0.0538 0.1656
vn 0.9847 0.1024 0.1408
vn 0.9847 -0.0000 0.1741
vn 0.9847 -0.1023 0.1409
vn 0.9847 -0.0538 0.1657
vn 0.9847 -0.1410 0.1023
vn 0.9847 -0.1741 -0.0000
vn 0.9847 -0.1656 0.0539
vn 0.9847 -0.1656 -0.0538
vn 0.9847 -0.1409 -0.1023
vn 0.9847 -0.1024 -0.1409
vn 0.9847 -0.0538 -0.1656
vn 1.0000 -0.0000 -0.0000
vn 0.9493 -0.0971 0.2989
vn 0.9746 -0.0000 0.2240
vn 0.9493 -0.0000 0.3143
vn 0.9493 -0.1847 0.2543
vn 0.9746 -0.0692 0.2130
vn 0.9746 -0.1812 0.1317
vn 0.9746 -0.1317 0.1812
vn 0.9493 -0.2543 0.1847
vn 0.9746 -0.2130 0.0692
vn 0.9493 -0.2989 0.0971
vn 0.9746 -0.2240 -0.0000
vn 0.9493 -0.2989 -0.0971
vn 0.9493 -0.3143 -0.0000
vn 0.9493 -0.2543 -0.1847
vn 0.9746 -0.2130 -0.0692
vn 0.9493 -0.1847 -0.2543
vn 0.9746 -0.1812 -0.1317
vn 0.9493 -0.0971 -0.2989
vn 0.9746 -0.1317 -0.1812
vn 0.9746 -0.0000 -0.2240
vn 0.9746 -0.0692 -0.2130
vn 0.9493 -0.0000 -0.3143
vn 0.9746 0.0692 -0.2130
vn 0.9493 0.0971 -0.2989
vn 0.9746 0.1317 -0.1812
vn 0.9493 0.1848 -0.2543
vn 0.9746 0.1812 -0.1317
vn 0.9493 0.2989 -0.0971
vn 0.9493 0.2543 -0.1848
vn 0.9493 0.3143 -0.0000
vn 0.9746 0.2130 -0.0692
vn 0.9746 0.2130 0.0692
vn 0.9746 0.2240 -0.0000
vn 0.9493 0.2543 0.1848
vn 0.9493 0.2989 0.0971
vn 0.9493 0.1847 0.2543
vn 0.9746 0.1812 0.1317
vn 0.9746 0.0692 0.2130
vn 0.9746 0.1317 0.1812
vn 0.9493 0.0971 0.2989
vn 0.7106 -0.4136 0.5692
vn 0.6265 -0.2408 0.7413
vn 0.6265 -0.4581 0.6305
vn 0.7106 -0.5692 0.4135
vn 0.6265 -0.6305 0.4581
vn 0.6266 -0.7412 0.2408
vn 0.6266 -0.7794 -0.0000
vn 0.7106 -0.6692 0.2174
vn 0.7106 -0.6692 -0.2174
vn 0.6266 -0.7412 -0.2408
vn 0.7106 -0.5692 -0.4136
vn 0.6265 -0.6305 -0.4581
vn 0.6265 -0.4581 -0.6305
vn 0.6265 -0.2408 -0.7413
vn 0.7106 -0.4136 -0.5692
vn 0.6265 -0.0000 -0.7794
vn 0.7106 -0.2174 -0.6692
vn 0.7106 0.2174 -0.6692
vn 0.6265 0.2408 -0.7412
vn 0.7106 0.4136 -0.5692
vn 0.6266 0.4581 -0.6305
vn 0.6266 0.6305 -0.4581
vn 0.6266 0.7412 -0.2408
vn 0.7106 0.5692 -0.4136
vn 0.6265 0.7794 -0.0000
vn 0.7106 0.6692 -0.2174
vn 0.7106 0.6692 0.2174
vn 0.6266 0.7412 0.2408
vn 0.7106 0.5692 0.4136
vn 0.6266 0.6305 0.4581
vn 0.6265 0.4581 0.6305
vn 0.6265 0.2408 0.7413
vn 0.7106 0.4136 0.5692
vn 0.6265 -0.0000 0.7794
vn 0.7106 0.2174 0.6691
vn 0.7106 -0.2174 0.6691
vn 0.7106 -0.0000 0.7036
vn 0.7106 -0.7036 -0.0000
vn 0.7106 -0.0000 -0.7036
vn 0.7106 0.7036 -0.0000
vn -0.0000 -0.3090 0.9511
vn -0.0000 -0.0000 1.0000
vn -0.0000 -0.5878 0.8090
vn -0.0000 -0.8090 0.5878
vn -0.0000 -0.9511 0.3090
vn -0.0000 -1.0000 -0.0000
vn -0.0000 -0.9511 -0.3090
vn -0.0000 -0.8090 -0.5878
vn -0.0000 -0.5878 -0.8090
vn -0.0000 -0.3090 -0.9511
vn -0.0000 -0.0000 -1.0000
vn -0.0000 0.3090 -0.9511
vn -0.0000 0.5878 -0.8090
vn -0.0000 0.8090 -0.5878
vn -0.0000 0.9511 -0.3090
vn -0.0000 1.0000 -0.0000
vn -0.0000 0.9511 0.3090
vn -0.0000 0.8090 0.5878
vn -0.0000 0.5878 0.8090
vn -0.0000 0.3090 0.9511
vn -0.9632 -0.0000 0.2687
vn -0.9461 -0.1001 0.3080
vn -0.9461 -0.0000 0.3238
vn -0.9632 -0.0830 0.2556
vn -0.9461 -0.1904 0.2620
vn -0.9632 -0.1580 0.2174
vn -0.9461 -0.2620 0.1904
vn -0.9632 -0.2556 0.0830
vn -0.9632 -0.2174 0.1580
vn -0.9461 -0.3239 -0.0000
vn -0.9461 -0.3080 0.1001
vn -0.9632 -0.2556 -0.0830
vn -0.9632 -0.2687 -0.0000
vn -0.9632 -0.2174 -0.1580
vn -0.9461 -0.3080 -0.1001
vn -0.9461 -0.1904 -0.2620
vn -0.9461 -0.2620 -0.1904
vn -0.9632 -0.0830 -0.2556
vn -0.9632 -0.1580 -0.2174
vn -0.9632 -0.0000 -0.2687
vn -0.9461 -0.1001 -0.3080
vn -0.9632 0.0830 -0.2556
vn -0.9461 -0.0000 -0.3239
vn -0.9461 0.1903 -0.2620
vn -0.9461 0.1001 -0.3080
vn -0.9632 0.2174 -0.1580
vn -0.9632 0.1580 -0.2174
vn -0.9632 0.2556 -0.0830
vn -0.9461 0.2620 -0.1903
vn -0.9461 0.3238 -0.0000
vn -0.9461 0.3080 -0.1001
vn -0.9632 0.2556 0.0830
vn -0.9632 0.2687 -0.0000
vn -0.9461 0.2620 0.1903
vn -0.9461 0.3080 0.1001
vn -0.9632 0.1580 0.2174
vn -0.9632 0.2174 0.1580
vn -0.9461 0.1001 0.3080
vn -0.9461 0.1903 0.2620
vn -0.9632 0.0830 0.2556
vn -0.7518 -0.3876 0.5335
vn -0.7996 -0.1856 0.5711
vn -0.7996 -0.3530 0.4858
vn -0.7518 -0.5335 0.3876
vn -0.7996 -0.4858 0.3530
vn -0.7518 -0.6272 0.2038
vn -0.7996 -0.5711 0.1856
vn -0.7518 -0.6594 -0.0000
vn -0.7996 -0.6005 -0.0000
vn -0.7518 -0.6272 -0.2038
vn -0.7996 -0.5711 -0.1856
vn -0.7518 -0.5335 -0.3876
vn -0.7996 -0.4858 -0.3530
vn -0.7996 -0.3530 -0.4858
vn -0.7517 -0.2038 -0.6272
vn -0.7996 -0.1856 -0.5711
vn -0.7996 -0.0000 -0.6005
vn -0.7996 0.1856 -0.5711
vn -0.7517 -0.0000 -0.6595
vn -0.7996 0.3530 -0.4858
vn -0.7518 0.2038 -0.6272
vn -0.7518 0.5335 -0.3876
vn -0.7996 0.4858 -0.3530
vn -0.7996 0.5711 -0.1856
vn -0.7996 0.6005 -0.0000
vn -0.7518 0.6272 -0.2038
vn -0.7996 0.5711 0.1856
vn -0.7517 0.6595 -0.0000
vn -0.7518 0.5335 0.3876
vn -0.7996 0.4859 0.3530
vn -0.7518 0.3876 0.5335
vn -0.7996 0.3530 0.4858
vn -0.7518 0.2038 0.6272
vn -0.7996 0.1856 0.5711
vn -0.7996 -0.0000 0.6005
vn -0.7518 -0.2038 0.6272
vn -0.7518 -0.0000 0.6594
vn -0.7518 0.6272 0.2038
vn -0.7518 0.3876 -0.5335
vn -0.7517 -0.3876 -0.5335
vt 0.333407 0.111521
vt 0.316224 0.114371
vt 0.316590 0.058646
vt 0.348772 0.103392
vt 0.360742 0.090911
vt 0.368164 0.075446
vt 0.370412 0.058613
vt 0.367408 0.042085
vt 0.359569 0.027416
vt 0.347730 0.015921
vt 0.333032 0.008589
vt 0.316823 0.006039
vt 0.300559 0.008492
vt 0.285707 0.015759
vt 0.273649 0.027243
vt 0.265571 0.041958
vt 0.262349 0.058572
vt 0.264435 0.075497
vt 0.271759 0.091027
vt 0.283686 0.103519
vt 0.299041 0.111602
vt 0.185484 0.133631
vt 0.189742 0.152841
vt 0.185484 0.152841
vt 0.185484 0.123986
vt 0.189742 0.133631
vt 0.189742 0.108636
vt 0.189742 0.123986
vt 0.185484 0.108636
vt 0.189742 0.094322
vt 0.185484 0.094322
vt 0.189742 0.080650
vt 0.185484 0.080650
vt 0.189742 0.067507
vt 0.185484 0.067507
vt 0.189742 0.053451
vt 0.185484 0.053451
vt 0.189742 0.038953
vt 0.185484 0.038953
vt 0.189742 0.023875
vt 0.185484 0.007158
vt 0.185484 0.023875
vt 0.185484 0.273922
vt 0.189742 0.265337
vt 0.189742 0.273922
vt 0.185484 0.265337
vt 0.189742 0.255916
vt 0.185484 0.255916
vt 0.189742 0.245394
vt 0.185484 0.233817
vt 0.185484 0.245394
vt 0.185484 0.221388
vt 0.189742 0.233817
vt 0.185484 0.208334
vt 0.189742 0.221388
vt 0.185484 0.194828
vt 0.189742 0.208334
vt 0.185484 0.181018
vt 0.189742 0.194828
vt 0.185484 0.167000
vt 0.189742 0.181018
vt 0.189742 0.167000
vt 0.182672 0.152841
vt 0.182672 0.133631
vt 0.182672 0.108636
vt 0.182672 0.123986
vt 0.182672 0.094322
vt 0.182672 0.080650
vt 0.182672 0.067507
vt 0.182672 0.053451
vt 0.182672 0.023875
vt 0.182672 0.038953
vt 0.182672 0.007158
vt 0.182672 0.273922
vt 0.182672 0.255916
vt 0.182672 0.265337
vt 0.182672 0.245394
vt 0.182672 0.221388
vt 0.182672 0.233817
vt 0.182672 0.208334
vt 0.182672 0.194828
vt 0.182672 0.181018
vt 0.182672 0.167000
vt 0.175025 0.152841
vt 0.175025 0.123986
vt 0.175025 0.133631
vt 0.175025 0.108636
vt 0.175025 0.094322
vt 0.175025 0.067507
vt 0.175025 0.080650
vt 0.175025 0.053451
vt 0.175025 0.023875
vt 0.175025 0.038953
vt 0.175025 0.265337
vt 0.175025 0.273922
vt 0.175025 0.255916
vt 0.175025 0.245394
vt 0.175025 0.233817
vt 0.175025 0.221388
vt 0.175025 0.208334
vt 0.175025 0.181018
vt 0.175025 0.194828
vt 0.175025 0.167000
vt 0.162973 0.133631
vt 0.162973 0.152841
vt 0.162973 0.123986
vt 0.162973 0.108636
vt 0.162973 0.094322
vt 0.162973 0.067507
vt 0.162973 0.080650
vt 0.162973 0.053451
vt 0.162973 0.038953
vt 0.162973 0.023875
vt 0.175025 0.007158
vt 0.162973 0.273922
vt 0.162973 0.265337
vt 0.162973 0.255916
vt 0.162973 0.233817
vt 0.162973 0.245394
vt 0.162973 0.221388
vt 0.162973 0.194828
vt 0.162973 0.208334
vt 0.162973 0.181018
vt 0.162973 0.167000
vt 0.157031 0.123986
vt 0.148739 0.133631
vt 0.148739 0.123986
vt 0.157031 0.108636
vt 0.148739 0.108636
vt 0.148739 0.094322
vt 0.148739 0.080650
vt 0.157031 0.094322
vt 0.157031 0.067507
vt 0.148739 0.067507
vt 0.157031 0.053451
vt 0.148739 0.053451
vt 0.148739 0.038953
vt 0.148739 0.023875
vt 0.157031 0.038953
vt 0.148739 0.007158
vt 0.157031 0.023875
vt 0.157031 0.265337
vt 0.148739 0.273922
vt 0.148739 0.265337
vt 0.157031 0.255916
vt 0.148739 0.255916
vt 0.148739 0.245394
vt 0.148739 0.233817
vt 0.157031 0.245394
vt 0.148739 0.221388
vt 0.157031 0.233817
vt 0.157031 0.208334
vt 0.148739 0.208334
vt 0.157031 0.194828
vt 0.148739 0.194828
vt 0.148739 0.181018
vt 0.148739 0.167000
vt 0.157031 0.181018
vt 0.148739 0.152841
vt 0.157031 0.167000
vt 0.157031 0.133631
vt 0.157031 0.152841
vt 0.157031 0.080650
vt 0.162973 0.007158
vt 0.157031 0.007158
vt 0.157031 0.273922
vt 0.157031 0.221388
vt 0.052020 0.133631
vt 0.052020 0.152841
vt 0.052020 0.123986
vt 0.052020 0.108636
vt 0.052020 0.094322
vt 0.052020 0.080650
vt 0.052020 0.067507
vt 0.052020 0.053451
vt 0.052020 0.038953
vt 0.052020 0.023875
vt 0.052020 0.007158
vt 0.052020 0.265337
vt 0.052020 0.273922
vt 0.052020 0.255916
vt 0.052020 0.245394
vt 0.052020 0.233817
vt 0.052020 0.221388
vt 0.052020 0.208334
vt 0.052020 0.194828
vt 0.052020 0.181018
vt 0.052020 0.167000
vt 0.009157 0.152841
vt 0.042718 0.133631
vt 0.042718 0.152841
vt 0.009157 0.133631
vt 0.042718 0.123986
vt 0.009157 0.123986
vt 0.042718 0.108636
vt 0.009157 0.094322
vt 0.009157 0.108636
vt 0.042718 0.080650
vt 0.042718 0.094322
vt 0.009157 0.067507
vt 0.009157 0.080650
vt 0.009157 0.053451
vt 0.042718 0.067507
vt 0.042718 0.038953
vt 0.042718 0.053451
vt 0.009157 0.023875
vt 0.009157 0.038953
vt 0.009157 0.007158
vt 0.042718 0.023875
vt 0.009157 0.265337
vt 0.042718 0.273922
vt 0.009157 0.273922
vt 0.042718 0.255916
vt 0.042718 0.265337
vt 0.009157 0.245394
vt 0.009157 0.255916
vt 0.009157 0.233817
vt 0.042718 0.245394
vt 0.042718 0.221388
vt 0.042718 0.233817
vt 0.009157 0.208334
vt 0.009157 0.221388
vt 0.042718 0.194828
vt 0.042718 0.208334
vt 0.009157 0.181018
vt 0.009157 0.194828
vt 0.042718 0.167000
vt 0.042718 0.181018
vt 0.009157 0.167000
vt 0.046188 0.133631
vt 0.046188 0.123986
vt 0.046188 0.108636
vt 0.046188 0.094322
vt 0.046188 0.080650
vt 0.046188 0.067507
vt 0.046188 0.053451
vt 0.046188 0.038953
vt 0.046188 0.023875
vt 0.046188 0.007158
vt 0.046188 0.265337
vt 0.046188 0.273922
vt 0.046188 0.255916
vt 0.046188 0.245394
vt 0.046188 0.233817
vt 0.046188 0.221388
vt 0.046188 0.208334
vt 0.046188 0.194828
vt 0.046188 0.181018
vt 0.046188 0.167000
vt 0.046188 0.152841
vt 0.042718 0.007158
vt 0.553654 0.837629
vt 0.544588 0.836086
vt 0.553595 0.808104
vt 0.536490 0.831782
vt 0.530169 0.825194
vt 0.526221 0.817021
vt 0.524986 0.808090
vt 0.526531 0.799274
vt 0.530662 0.791400
vt 0.536960 0.785186
vt 0.544828 0.781191
vt 0.553539 0.779776
vt 0.562295 0.781080
vt 0.570281 0.785007
vt 0.576733 0.791225
vt 0.581002 0.799177
vt 0.582628 0.808118
vt 0.581394 0.817173
vt 0.577375 0.825424
vt 0.570946 0.832007
vt 0.562757 0.836225
vt 0.189742 0.007158
s 1
g off
g GoKart.004_blinn1SG.001
usemtl blinn1SG.001
f 1/1/1 20/2/2 21/3/3
f 2/4/4 1/1/1 21/3/3
f 3/5/5 2/4/4 21/3/3
f 4/6/6 3/5/5 21/3/3
f 5/7/7 4/6/6 21/3/3
f 6/8/8 5/7/7 21/3/3
f 7/9/9 6/8/8 21/3/3
f 8/10/10 7/9/9 21/3/3
f 9/11/11 8/10/10 21/3/3
f 10/12/12 9/11/11 21/3/3
f 11/13/13 10/12/12 21/3/3
f 12/14/14 11/13/13 21/3/3
f 13/15/15 12/14/14 21/3/3
f 14/16/16 13/15/15 21/3/3
f 15/17/17 14/16/16 21/3/3
f 16/18/18 15/17/17 21/3/3
f 17/19/19 16/18/18 21/3/3
f 18/20/20 17/19/19 21/3/3
f 19/21/21 18/20/20 21/3/3
f 20/2/2 19/21/21 21/3/3
s 2
g GoKart.004_lambert2SG.001
usemtl lambert2SG.001
f 42/22/22 41/23/23 61/24/24
f 43/25/25 22/26/26 42/22/22
f 43/25/25 24/27/27 23/28/28
f 44/29/29 25/30/30 24/27/27
f 45/31/31 26/32/32 25/30/30
f 46/33/33 27/34/34 26/32/32
f 47/35/35 28/36/36 27/34/34
f 48/37/37 29/38/38 28/36/36
f 49/39/39 30/40/40 29/38/38
f 51/41/41 30/40/40 50/42/42
f 51/43/41 32/44/43 31/45/44
f 52/46/45 33/47/46 32/44/43
f 53/48/47 34/49/48 33/47/46
f 55/50/49 34/49/48 54/51/50
f 56/52/51 35/53/52 55/50/49
f 57/54/53 36/55/54 56/52/51
f 58/56/55 37/57/56 57/54/53
f 59/58/57 38/59/58 58/56/55
f 60/60/59 39/61/60 59/58/57
f 61/24/24 40/62/61 60/60/59
f 81/63/62 42/22/22 61/24/24
f 62/64/63 43/25/25 42/22/22
f 64/65/64 43/25/25 63/66/65
f 65/67/66 44/29/29 64/65/64
f 66/68/67 45/31/31 65/67/66
f 66/68/67 47/35/35 46/33/33
f 67/69/68 48/37/37 47/35/35
f 68/70/69 49/39/39 48/37/37
f 70/71/70 49/39/39 69/72/71
f 71/73/72 50/42/42 70/71/70
f 71/74/72 52/46/45 51/43/41
f 73/75/73 52/46/45 72/76/74
f 73/75/73 54/51/50 53/48/47
f 74/77/75 55/50/49 54/51/50
f 76/78/76 55/50/49 75/79/77
f 76/78/76 57/54/53 56/52/51
f 77/80/78 58/56/55 57/54/53
f 78/81/79 59/58/57 58/56/55
f 79/82/80 60/60/59 59/58/57
f 81/63/62 60/60/59 80/83/81
f 241/84/82 62/64/63 81/63/62
f 223/85/82 62/64/63 222/86/82
f 224/87/82 63/66/65 223/85/82
f 224/87/82 65/67/66 64/65/64
f 225/88/82 66/68/67 65/67/66
f 227/89/82 66/68/67 226/90/82
f 228/91/82 67/69/68 227/89/82
f 228/91/82 69/72/71 68/70/69
f 230/92/82 69/72/71 229/93/82
f 230/92/82 71/73/72 70/71/70
f 232/94/82 71/74/72 231/95/82
f 233/96/82 72/76/74 232/94/82
f 233/96/82 74/77/75 73/75/73
f 234/97/82 75/79/77 74/77/75
f 235/98/82 76/78/76 75/79/77
f 236/99/82 77/80/78 76/78/76
f 237/100/82 78/81/79 77/80/78
f 239/101/82 78/81/79 238/102/82
f 239/101/82 80/83/81 79/82/80
f 240/103/82 81/63/62 80/83/81
s 3
f 118/104/83 241/84/84 120/105/85
f 82/106/86 222/86/87 118/104/83
f 82/106/86 224/87/88 223/85/89
f 84/107/90 225/88/91 224/87/88
f 86/108/92 226/90/93 225/88/91
f 90/109/94 226/90/93 88/110/95
f 92/111/96 227/89/97 90/109/94
f 94/112/98 228/91/99 92/111/96
f 96/113/100 229/93/101 94/112/98
f 96/113/100 231/114/102 230/92/103
f 98/115/104 232/94/105 231/95/102
f 100/116/106 233/96/107 232/94/105
f 102/117/108 234/97/109 233/96/107
f 106/118/110 234/97/109 104/119/111
f 108/120/112 235/98/113 106/118/110
f 108/120/112 237/100/114 236/99/115
f 112/121/116 237/100/114 110/122/117
f 114/123/118 238/102/119 112/121/116
f 114/123/118 240/103/120 239/101/121
f 120/105/85 240/103/120 116/124/122
f 83/125/123 122/126/124 123/127/125
f 85/128/126 123/127/125 124/129/127
f 125/130/128 85/128/126 124/129/127
f 126/131/129 87/132/130 125/130/128
f 91/133/131 126/131/129 127/134/132
f 93/135/133 127/134/132 128/136/134
f 129/137/135 93/135/133 128/136/134
f 130/138/136 95/139/137 129/137/135
f 131/140/138 97/141/139 130/138/136
f 101/142/140 131/143/138 132/144/141
f 103/145/142 132/144/141 133/146/143
f 134/147/144 103/145/142 133/146/143
f 135/148/145 105/149/146 134/147/144
f 136/150/147 107/151/148 135/148/145
f 111/152/149 136/150/147 137/153/150
f 113/154/151 137/153/150 138/155/152
f 139/156/153 113/154/151 138/155/152
f 140/157/154 115/158/155 139/156/153
f 141/159/156 117/160/157 140/157/154
f 141/159/156 119/161/158 121/162/159
f 84/107/90 83/125/123 85/128/126
f 87/132/130 84/107/90 85/128/126
f 89/163/160 86/108/92 87/132/130
f 90/109/94 89/163/160 91/133/131
f 92/111/96 91/133/131 93/135/133
f 95/139/137 92/111/96 93/135/133
f 96/113/100 95/139/137 97/141/139
f 98/164/104 97/141/139 99/165/161
f 100/116/106 99/166/161 101/142/140
f 102/117/108 101/142/140 103/145/142
f 104/119/111 103/145/142 105/149/146
f 106/118/110 105/149/146 107/151/148
f 108/120/112 107/151/148 109/167/162
f 110/122/117 109/167/162 111/152/149
f 112/121/116 111/152/149 113/154/151
f 114/123/118 113/154/151 115/158/155
f 117/160/157 114/123/118 115/158/155
f 118/104/83 83/125/123 82/106/86
f 120/105/85 119/161/158 118/104/83
f 121/162/159 116/124/122 117/160/157
s 4
f 182/168/163 141/159/164 201/169/164
f 183/170/165 122/126/163 182/168/163
f 184/171/166 123/127/165 183/170/165
f 185/172/167 124/129/166 184/171/166
f 186/173/168 125/130/167 185/172/167
f 187/174/169 126/131/168 186/173/168
f 188/175/170 127/134/169 187/174/169
f 189/176/171 128/136/170 188/175/170
f 190/177/172 129/137/171 189/176/171
f 191/178/173 130/138/172 190/177/172
f 192/179/174 131/143/173 191/180/173
f 193/181/175 132/144/174 192/179/174
f 194/182/176 133/146/175 193/181/175
f 195/183/177 134/147/176 194/182/176
f 196/184/178 135/148/177 195/183/177
f 197/185/179 136/150/178 196/184/178
f 198/186/180 137/153/179 197/185/179
f 199/187/181 138/155/180 198/186/180
f 200/188/182 139/156/181 199/187/181
f 201/169/164 140/157/182 200/188/182
s 5
f 221/189/183 176/190/184 180/191/185
f 202/192/186 142/193/187 176/190/184
f 203/194/188 144/195/189 142/193/187
f 205/196/190 144/195/189 204/197/191
f 205/196/190 148/198/192 146/199/193
f 207/200/194 148/198/192 206/201/195
f 208/202/196 150/203/197 207/200/194
f 208/202/196 154/204/198 152/205/199
f 210/206/200 154/204/198 209/207/201
f 211/208/202 156/209/203 210/206/200
f 212/210/204 158/211/205 211/212/202
f 212/210/204 162/213/206 160/214/207
f 214/215/208 162/213/206 213/216/209
f 215/217/210 164/218/211 214/215/208
f 215/217/210 168/219/212 166/220/213
f 217/221/214 168/219/212 216/222/215
f 217/221/214 172/223/216 170/224/217
f 219/225/218 172/223/216 218/226/219
f 219/225/218 178/227/220 174/228/221
f 221/189/183 178/227/220 220/229/222
f 183/170/223 177/230/224 143/231/225
f 184/171/226 143/231/225 145/232/227
f 185/172/228 145/232/227 147/233/229
f 186/173/230 147/233/229 149/234/231
f 187/174/232 149/234/231 151/235/233
f 188/175/234 151/235/233 153/236/235
f 155/237/236 188/175/234 153/236/235
f 190/177/237 155/237/236 157/238/238
f 159/239/239 190/177/237 157/238/238
f 161/240/240 191/180/241 159/241/239
f 163/242/242 192/179/243 161/240/240
f 194/182/244 163/242/242 165/243/245
f 167/244/246 194/182/244 165/243/245
f 169/245/247 195/183/248 167/244/246
f 171/246/249 196/184/250 169/245/247
f 198/186/251 171/246/249 173/247/252
f 199/187/253 173/247/252 175/248/254
f 200/188/255 175/248/254 179/249/256
f 181/250/257 182/168/258 201/169/259
f 201/169/259 179/249/256 181/250/257
f 144/195/189 143/231/225 142/193/187
f 146/199/193 145/232/227 144/195/189
f 148/198/192 147/233/229 146/199/193
f 150/203/197 149/234/231 148/198/192
f 153/236/235 150/203/197 152/205/199
f 155/237/236 152/205/199 154/204/198
f 157/238/238 154/204/198 156/209/203
f 159/239/239 156/209/203 158/251/205
f 161/240/240 158/211/205 160/214/207
f 163/242/242 160/214/207 162/213/206
f 164/218/211 163/242/242 162/213/206
f 166/220/213 165/243/245 164/218/211
f 169/245/247 166/220/213 168/219/212
f 171/246/249 168/219/212 170/224/217
f 173/247/252 170/224/217 172/223/216
f 174/228/221 173/247/252 172/223/216
f 177/230/224 142/193/187 143/231/225
f 178/227/220 175/248/254 174/228/221
f 180/191/185 179/249/256 178/227/220
f 181/250/257 176/190/184 177/230/224
s 6
f 260/252/82 242/253/82 262/254/82
f 242/253/82 243/255/82 262/254/82
f 243/255/82 244/256/82 262/254/82
f 244/256/82 245/257/82 262/254/82
f 245/257/82 246/258/82 262/254/82
f 246/258/82 247/259/82 262/254/82
f 247/259/82 248/260/82 262/254/82
f 248/260/82 249/261/82 262/254/82
f 249/261/82 250/262/82 262/254/82
f 250/262/82 251/263/82 262/254/82
f 251/263/82 252/264/82 262/254/82
f 252/264/82 253/265/82 262/254/82
f 253/265/82 254/266/82 262/254/82
f 254/266/82 255/267/82 262/254/82
f 255/267/82 256/268/82 262/254/82
f 256/268/82 257/269/82 262/254/82
f 257/269/82 258/270/82 262/254/82
f 258/270/82 259/271/82 262/254/82
f 259/271/82 261/272/82 262/254/82
f 261/272/82 260/252/82 262/254/82
s 5
f 181/250/257 180/191/185 176/190/184
f 180/191/185 181/250/257 179/249/256
f 178/227/220 179/249/256 175/248/254
f 177/230/224 176/190/184 142/193/187
f 174/228/221 175/248/254 173/247/252
f 173/247/252 171/246/249 170/224/217
f 171/246/249 169/245/247 168/219/212
f 169/245/247 167/244/246 166/220/213
f 166/220/213 167/244/246 165/243/245
f 164/218/211 165/243/245 163/242/242
f 163/242/242 161/240/240 160/214/207
f 161/240/240 159/241/239 158/211/205
f 159/239/239 157/238/238 156/209/203
f 157/238/238 155/237/236 154/204/198
f 155/237/236 153/236/235 152/205/199
f 153/236/235 151/235/233 150/203/197
f 150/203/197 151/235/233 149/234/231
f 148/198/192 149/234/231 147/233/229
f 146/199/193 147/233/229 145/232/227
f 144/195/189 145/232/227 143/231/225
f 201/169/259 200/188/255 179/249/256
f 181/250/257 177/230/224 182/168/258
f 200/188/255 199/187/253 175/248/254
f 199/187/253 198/186/251 173/247/252
f 198/186/251 197/185/260 171/246/249
f 171/246/249 197/185/260 196/184/250
f 169/245/247 196/184/250 195/183/248
f 167/244/246 195/183/248 194/182/244
f 194/182/244 193/181/261 163/242/242
f 163/242/242 193/181/261 192/179/243
f 161/240/240 192/179/243 191/180/241
f 159/239/239 191/178/241 190/177/237
f 190/177/237 189/176/262 155/237/236
f 155/237/236 189/176/262 188/175/234
f 188/175/234 187/174/232 151/235/233
f 187/174/232 186/173/230 149/234/231
f 186/173/230 185/172/228 147/233/229
f 185/172/228 184/171/226 145/232/227
f 184/171/226 183/170/223 143/231/225
f 183/170/223 182/168/258 177/230/224
f 221/189/183 180/191/185 178/227/220
f 219/225/218 220/229/222 178/227/220
f 219/225/218 174/228/221 172/223/216
f 217/221/214 218/226/219 172/223/216
f 217/221/214 170/224/217 168/219/212
f 215/217/210 216/222/215 168/219/212
f 215/217/210 166/220/213 164/218/211
f 214/215/208 164/218/211 162/213/206
f 212/210/204 213/216/209 162/213/206
f 212/210/204 160/214/207 158/211/205
f 211/208/202 158/251/205 156/209/203
f 210/206/200 156/209/203 154/204/198
f 208/202/196 209/207/201 154/204/198
f 208/202/196 152/205/199 150/203/197
f 207/200/194 150/203/197 148/198/192
f 205/196/190 206/201/195 148/198/192
f 205/196/190 146/199/193 144/195/189
f 203/194/188 204/197/191 144/195/189
f 202/192/186 203/194/188 142/193/187
f 221/189/183 202/192/186 176/190/184
s 4
f 201/169/164 141/159/164 140/157/182
f 200/188/182 140/157/182 139/156/181
f 199/187/181 139/156/181 138/155/180
f 198/186/180 138/155/180 137/153/179
f 197/185/179 137/153/179 136/150/178
f 196/184/178 136/150/178 135/148/177
f 195/183/177 135/148/177 134/147/176
f 194/182/176 134/147/176 133/146/175
f 193/181/175 133/146/175 132/144/174
f 192/179/174 132/144/174 131/143/173
f 191/178/173 131/140/173 130/138/172
f 190/177/172 130/138/172 129/137/171
f 189/176/171 129/137/171 128/136/170
f 188/175/170 128/136/170 127/134/169
f 187/174/169 127/134/169 126/131/168
f 186/173/168 126/131/168 125/130/167
f 185/172/167 125/130/167 124/129/166
f 184/171/166 124/129/166 123/127/165
f 183/170/165 123/127/165 122/126/163
f 182/168/163 122/126/163 141/159/164
s 3
f 121/162/159 120/105/85 116/124/122
f 120/105/85 121/162/159 119/161/158
f 118/104/83 119/161/158 83/125/123
f 117/160/157 116/124/122 114/123/118
f 114/123/118 112/121/116 113/154/151
f 112/121/116 110/122/117 111/152/149
f 110/122/117 108/120/112 109/167/162
f 108/120/112 106/118/110 107/151/148
f 106/118/110 104/119/111 105/149/146
f 104/119/111 102/117/108 103/145/142
f 102/117/108 100/116/106 101/142/140
f 100/116/106 98/115/104 99/166/161
f 98/164/104 96/113/100 97/141/139
f 96/113/100 94/112/98 95/139/137
f 95/139/137 94/112/98 92/111/96
f 92/111/96 90/109/94 91/133/131
f 90/109/94 88/110/95 89/163/160
f 89/163/160 88/110/95 86/108/92
f 87/132/130 86/108/92 84/107/90
f 84/107/90 82/106/86 83/125/123
f 141/159/156 122/126/124 119/161/158
f 141/159/156 121/162/159 117/160/157
f 140/157/154 117/160/157 115/158/155
f 139/156/153 115/158/155 113/154/151
f 113/154/151 111/152/149 137/153/150
f 111/152/149 109/167/162 136/150/147
f 136/150/147 109/167/162 107/151/148
f 135/148/145 107/151/148 105/149/146
f 134/147/144 105/149/146 103/145/142
f 103/145/142 101/142/140 132/144/141
f 101/142/140 99/166/161 131/143/138
f 131/140/138 99/165/161 97/141/139
f 130/138/136 97/141/139 95/139/137
f 129/137/135 95/139/137 93/135/133
f 93/135/133 91/133/131 127/134/132
f 91/133/131 89/163/160 126/131/129
f 126/131/129 89/163/160 87/132/130
f 125/130/128 87/132/130 85/128/126
f 85/128/126 83/125/123 123/127/125
f 83/125/123 119/161/158 122/126/124
f 120/105/85 241/84/84 240/103/120
f 114/123/118 116/124/122 240/103/120
f 114/123/118 239/101/121 238/102/119
f 112/121/116 238/102/119 237/100/114
f 108/120/112 110/122/117 237/100/114
f 108/120/112 236/99/115 235/98/113
f 106/118/110 235/98/113 234/97/109
f 102/117/108 104/119/111 234/97/109
f 100/116/106 102/117/108 233/96/107
f 98/115/104 100/116/106 232/94/105
f 96/113/100 98/164/104 231/114/102
f 96/113/100 230/92/103 229/93/101
f 94/112/98 229/93/101 228/91/99
f 92/111/96 228/91/99 227/89/97
f 90/109/94 227/89/97 226/90/93
f 86/108/92 88/110/95 226/90/93
f 84/107/90 86/108/92 225/88/91
f 82/106/86 84/107/90 224/87/88
f 82/106/86 223/85/89 222/86/87
f 118/104/83 222/86/87 241/84/84
s 2
f 240/103/82 241/84/82 81/63/62
f 239/101/82 240/103/82 80/83/81
f 239/101/82 79/82/80 78/81/79
f 237/100/82 238/102/82 78/81/79
f 236/99/82 237/100/82 77/80/78
f 235/98/82 236/99/82 76/78/76
f 234/97/82 235/98/82 75/79/77
f 233/96/82 234/97/82 74/77/75
f 233/96/82 73/75/73 72/76/74
f 232/94/82 72/76/74 71/74/72
f 230/92/82 231/114/82 71/73/72
f 230/92/82 70/71/70 69/72/71
f 228/91/82 229/93/82 69/72/71
f 228/91/82 68/70/69 67/69/68
f 227/89/82 67/69/68 66/68/67
f 225/88/82 226/90/82 66/68/67
f 224/87/82 225/88/82 65/67/66
f 224/87/82 64/65/64 63/66/65
f 223/85/82 63/66/65 62/64/63
f 241/84/82 222/86/82 62/64/63
f 81/63/62 61/24/24 60/60/59
f 79/82/80 80/83/81 60/60/59
f 78/81/79 79/82/80 59/58/57
f 77/80/78 78/81/79 58/56/55
f 76/78/76 77/80/78 57/54/53
f 76/78/76 56/52/51 55/50/49
f 74/77/75 75/79/77 55/50/49
f 73/75/73 74/77/75 54/51/50
f 73/75/73 53/48/47 52/46/45
f 71/74/72 72/76/74 52/46/45
f 71/73/72 51/41/41 50/42/42
f 70/71/70 50/42/42 49/39/39
f 68/70/69 69/72/71 49/39/39
f 67/69/68 68/70/69 48/37/37
f 66/68/67 67/69/68 47/35/35
f 66/68/67 46/33/33 45/31/31
f 65/67/66 45/31/31 44/29/29
f 64/65/64 44/29/29 43/25/25
f 62/64/63 63/66/65 43/25/25
f 81/63/62 62/64/63 42/22/22
f 61/24/24 41/23/23 40/62/61
f 60/60/59 40/62/61 39/61/60
f 59/58/57 39/61/60 38/59/58
f 58/56/55 38/59/58 37/57/56
f 57/54/53 37/57/56 36/55/54
f 56/52/51 36/55/54 35/53/52
f 55/50/49 35/53/52 34/49/48
f 53/48/47 54/51/50 34/49/48
f 52/46/45 53/48/47 33/47/46
f 51/43/41 52/46/45 32/44/43
f 51/41/41 31/273/44 30/40/40
f 49/39/39 50/42/42 30/40/40
f 48/37/37 49/39/39 29/38/38
f 47/35/35 48/37/37 28/36/36
f 46/33/33 47/35/35 27/34/34
f 45/31/31 46/33/33 26/32/32
f 44/29/29 45/31/31 25/30/30
f 43/25/25 44/29/29 24/27/27
f 43/25/25 23/28/28 22/26/26
f 42/22/22 22/26/26 41/23/23
