# Blender 5.1.0
# www.blender.org
mtllib llSuperiorIzq.mtl
g GoKart.002_Mesh
v -0.212171 -0.014708 0.054846
v -0.212171 -0.029949 0.047081
v -0.212171 -0.042044 0.034985
v -0.212171 -0.049810 0.019744
v -0.212171 -0.052486 0.002850
v -0.212171 -0.049810 -0.014045
v -0.212171 -0.042044 -0.029286
v -0.212171 -0.029949 -0.041381
v -0.212171 -0.014708 -0.049146
v -0.212171 0.002186 -0.051822
v -0.212171 0.019081 -0.049146
v -0.212171 0.034322 -0.041381
v -0.212171 0.046417 -0.029286
v -0.212171 0.054182 -0.014045
v -0.212171 0.056858 0.002850
v -0.212171 0.054182 0.019745
v -0.212171 0.046417 0.034986
v -0.212171 0.034322 0.047081
v -0.212171 0.019081 0.054846
v -0.212171 0.002186 0.057522
v -0.210686 0.002186 0.002850
v -0.219947 -0.028567 0.097499
v -0.219947 -0.056310 0.083363
v -0.219947 -0.078328 0.061346
v -0.219947 -0.092463 0.033603
v -0.219947 -0.097334 0.002850
v -0.219947 -0.092463 -0.027903
v -0.219947 -0.078328 -0.055646
v -0.219947 -0.056310 -0.077663
v -0.219947 -0.028567 -0.091799
v -0.219947 0.002186 -0.096670
v -0.219947 0.032939 -0.091799
v -0.219947 0.060682 -0.077663
v -0.219947 0.082699 -0.055646
v -0.219947 0.096835 -0.027903
v -0.219947 0.101706 0.002850
v -0.219947 0.096835 0.033603
v -0.219947 0.082699 0.061346
v -0.219947 0.060682 0.083363
v -0.219947 0.032939 0.097499
v -0.219947 0.002186 0.102370
v -0.212171 -0.014708 0.054846
v -0.212171 -0.029949 0.047081
v -0.212171 -0.042044 0.034985
v -0.212171 -0.049810 0.019744
v -0.212171 -0.052486 0.002850
v -0.212171 -0.049810 -0.014045
v -0.212171 -0.042044 -0.029286
v -0.212171 -0.029949 -0.041381
v -0.212171 -0.014708 -0.049146
v -0.212171 0.002186 -0.051822
v -0.212171 0.019081 -0.049146
v -0.212171 0.034322 -0.041381
v -0.212171 0.046417 -0.029286
v -0.212171 0.054182 -0.014045
v -0.212171 0.056858 0.002850
v -0.212171 0.054182 0.019745
v -0.212171 0.046417 0.034986
v -0.212171 0.034322 0.047081
v -0.212171 0.019081 0.054846
v -0.212171 0.002186 0.057522
v -0.231129 -0.022059 0.077468
v -0.231129 -0.043930 0.066324
v -0.231129 -0.061287 0.048966
v -0.231129 -0.072431 0.027095
v -0.231129 -0.076271 0.002850
v -0.231129 -0.072431 -0.021395
v -0.231129 -0.061288 -0.043266
v -0.231129 -0.043930 -0.060624
v -0.231129 -0.022059 -0.071768
v -0.231129 0.002186 -0.075608
v -0.231129 0.026431 -0.071768
v -0.231129 0.048302 -0.060624
v -0.231129 0.065660 -0.043266
v -0.231129 0.076804 -0.021395
v -0.231129 0.080643 0.002850
v -0.231129 0.076804 0.027095
v -0.231129 0.065660 0.048966
v -0.231129 0.048302 0.066324
v -0.231129 0.026431 0.077468
v -0.231129 0.002186 0.081308
v -0.241214 -0.026067 0.089804
v -0.241214 -0.051554 0.076817
v -0.241214 -0.071781 0.056590
v -0.241214 -0.084767 0.031103
v -0.241214 -0.089242 0.002850
v -0.241214 -0.084767 -0.025403
v -0.241214 -0.071781 -0.050890
v -0.241214 -0.051554 -0.071117
v -0.241214 -0.026067 -0.084104
v -0.241214 0.002186 -0.088579
v -0.241214 0.030439 -0.084104
v -0.241214 0.055926 -0.071118
v -0.241214 0.076153 -0.050890
v -0.241214 0.089139 -0.025403
v -0.241214 0.093614 0.002850
v -0.241214 0.089140 0.031103
v -0.241214 0.076154 0.056590
v -0.241214 0.055926 0.076817
v -0.241214 0.030439 0.089804
v -0.241214 0.002186 0.094279
v -0.234851 -0.028840 0.098339
v -0.234851 -0.056829 0.084078
v -0.234851 -0.079042 0.061865
v -0.234851 -0.093303 0.033876
v -0.234851 -0.098217 0.002850
v -0.234851 -0.093303 -0.028177
v -0.234851 -0.079042 -0.056166
v -0.234851 -0.056829 -0.078378
v -0.234851 -0.028840 -0.092639
v -0.234851 0.002186 -0.097554
v -0.234851 0.033212 -0.092639
v -0.234851 0.061202 -0.078378
v -0.234851 0.083414 -0.056166
v -0.234851 0.097675 -0.028176
v -0.234851 0.102589 0.002850
v -0.234851 0.097675 0.033876
v -0.234851 0.083414 0.061866
v -0.234851 0.061202 0.084078
v -0.234851 0.033212 0.098339
v -0.234851 0.002186 0.103254
v -0.230540 -0.030010 0.101940
v -0.230540 -0.059055 0.087141
v -0.230540 -0.082105 0.064091
v -0.230540 -0.096904 0.035046
v -0.230540 -0.102003 0.002850
v -0.230540 -0.096904 -0.029346
v -0.230540 -0.082105 -0.058391
v -0.230540 -0.059055 -0.081441
v -0.230540 -0.030010 -0.096240
v -0.230540 0.002186 -0.101340
v -0.230540 0.034382 -0.096240
v -0.230540 0.063427 -0.081441
v -0.230540 0.086477 -0.058391
v -0.230540 0.101276 -0.029346
v -0.230540 0.106375 0.002850
v -0.230540 0.101276 0.035046
v -0.230540 0.086477 0.064091
v -0.230540 0.063427 0.087141
v -0.230540 0.034382 0.101940
v -0.230540 0.002186 0.107039
v -0.227873 -0.030173 0.102439
v -0.227873 -0.059363 0.087566
v -0.227873 -0.082530 0.064399
v -0.227873 -0.097403 0.035208
v -0.227873 -0.102528 0.002850
v -0.227873 -0.097403 -0.029509
v -0.227873 -0.082530 -0.058700
v -0.227873 -0.059363 -0.081866
v -0.227873 -0.030173 -0.096739
v -0.227873 0.002186 -0.101865
v -0.227873 0.034544 -0.096739
v -0.227873 0.063735 -0.081866
v -0.227873 0.086902 -0.058700
v -0.227873 0.101775 -0.029509
v -0.227873 0.106900 0.002850
v -0.227873 0.101775 0.035208
v -0.227873 0.086902 0.064399
v -0.227873 0.063735 0.087566
v -0.227873 0.034544 0.102439
v -0.227873 0.002186 0.107564
v 0.168380 -0.021540 0.075872
v 0.168380 -0.042944 0.064966
v 0.168380 -0.059930 0.047980
v 0.168380 -0.070835 0.026576
v 0.168380 -0.074594 0.002850
v 0.168380 -0.070835 -0.020876
v 0.168380 -0.059930 -0.042280
v 0.168380 -0.042944 -0.059266
v 0.168380 -0.021540 -0.070172
v 0.168380 0.002186 -0.073930
v 0.168380 0.025912 -0.070172
v 0.168380 0.047315 -0.059266
v 0.168380 0.064302 -0.042280
v 0.168380 0.075208 -0.020876
v 0.168380 0.078966 0.002850
v 0.168380 0.075208 0.026576
v 0.168380 0.064302 0.047980
v 0.168380 0.047315 0.064966
v 0.168380 0.025912 0.075872
v 0.168380 0.002186 0.079629
v 0.177267 -0.024142 0.083878
v 0.177267 -0.047892 0.071776
v 0.177267 -0.066740 0.052928
v 0.177267 -0.078842 0.029177
v 0.177267 -0.083012 0.002850
v 0.177267 -0.078842 -0.023478
v 0.177267 -0.066740 -0.047228
v 0.177267 -0.047892 -0.066077
v 0.177267 -0.024142 -0.078178
v 0.177267 0.002186 -0.082348
v 0.177267 0.028513 -0.078178
v 0.177267 0.052264 -0.066077
v 0.177267 0.071112 -0.047228
v 0.177267 0.083214 -0.023478
v 0.177267 0.087384 0.002850
v 0.177267 0.083214 0.029177
v 0.177267 0.071112 0.052928
v 0.177267 0.052264 0.071776
v 0.177267 0.028513 0.083878
v 0.177267 0.002186 0.088048
v 0.184916 -0.025868 0.089190
v 0.184916 -0.051175 0.076295
v 0.184916 -0.071259 0.056211
v 0.184916 -0.084154 0.030904
v 0.184916 -0.088598 0.002850
v 0.184916 -0.084154 -0.025204
v 0.184916 -0.071259 -0.050511
v 0.184916 -0.051175 -0.070596
v 0.184916 -0.025868 -0.083490
v 0.184916 0.002186 -0.087934
v 0.184916 0.030240 -0.083490
v 0.184916 0.055547 -0.070596
v 0.184916 0.075631 -0.050511
v 0.184916 0.088527 -0.025204
v 0.184916 0.092970 0.002850
v 0.184916 0.088527 0.030904
v 0.184916 0.075631 0.056211
v 0.184916 0.055547 0.076295
v 0.184916 0.030240 0.089190
v 0.184916 0.002186 0.093633
v 0.176645 -0.088333 0.127439
v 0.171115 -0.093534 0.134598
v 0.176645 -0.122403 0.093369
v 0.171115 -0.129562 0.098570
v 0.176645 -0.144277 0.050438
v 0.171115 -0.152693 0.053173
v 0.176645 -0.151814 0.002850
v 0.171115 -0.160663 0.002850
v 0.176645 -0.144277 -0.044739
v 0.171115 -0.152693 -0.047473
v 0.176645 -0.122403 -0.087669
v 0.171115 -0.129562 -0.092870
v 0.176645 -0.088333 -0.121739
v 0.171115 -0.093534 -0.128898
v 0.176645 -0.045403 -0.143613
v 0.171115 -0.048137 -0.152029
v 0.176645 0.002186 -0.151150
v 0.171115 0.002186 -0.159999
v 0.176645 0.049774 -0.143613
v 0.171115 0.052509 -0.152029
v 0.176645 0.092705 -0.121739
v 0.171114 0.097906 -0.128898
v 0.176645 0.126775 -0.087669
v 0.171114 0.133934 -0.092870
v 0.176645 0.148649 -0.044739
v 0.171115 0.157065 -0.047473
v 0.176645 0.156186 0.002850
v 0.171115 0.165035 0.002850
v 0.176645 0.148649 0.050439
v 0.171115 0.157065 0.053173
v 0.176645 0.126775 0.093369
v 0.171114 0.133934 0.098570
v 0.176645 0.092705 0.127439
v 0.171115 0.097906 0.134598
v 0.176645 0.049774 0.149313
v 0.171115 0.052509 0.157729
v 0.176645 -0.045403 0.149313
v 0.171115 -0.048137 0.157729
v 0.176645 0.002186 0.156850
v 0.171115 0.002186 0.165699
v 0.158246 -0.051334 0.167568
v 0.158246 -0.099615 0.142967
v 0.158246 -0.137932 0.104651
v 0.158246 -0.162532 0.056370
v 0.158246 -0.171009 0.002850
v 0.158246 -0.162532 -0.050670
v 0.158246 -0.137932 -0.098951
v 0.158246 -0.099615 -0.137267
v 0.158246 -0.051334 -0.161868
v 0.158246 0.002186 -0.170345
v 0.158246 0.055706 -0.161868
v 0.158246 0.103987 -0.137267
v 0.158246 0.142303 -0.098951
v 0.158246 0.166904 -0.050670
v 0.158246 0.175380 0.002850
v 0.158246 0.166904 0.056370
v 0.158246 0.142303 0.104651
v 0.158246 0.103987 0.142967
v 0.158246 0.055706 0.167568
v 0.158246 0.002186 0.176044
v -0.206183 -0.085307 0.123274
v -0.200491 -0.091496 0.131792
v -0.206183 -0.118238 0.090343
v -0.200491 -0.126756 0.096532
v -0.206183 -0.139381 0.048848
v -0.200491 -0.149395 0.052101
v -0.206183 -0.146667 0.002850
v -0.200491 -0.157195 0.002850
v -0.206183 -0.139381 -0.043148
v -0.200491 -0.149395 -0.046402
v -0.206183 -0.118238 -0.084643
v -0.200491 -0.126756 -0.090832
v -0.206183 -0.085307 -0.117574
v -0.200491 -0.091496 -0.126092
v -0.206183 -0.043812 -0.138717
v -0.200491 -0.047066 -0.148731
v -0.206183 0.002186 -0.146002
v -0.200491 0.002186 -0.156531
v -0.206183 0.048184 -0.138717
v -0.200491 0.051437 -0.148731
v -0.206183 0.089679 -0.117574
v -0.200491 0.095868 -0.126092
v -0.206183 0.122610 -0.084643
v -0.200491 0.131128 -0.090832
v -0.206183 0.143753 -0.043148
v -0.200491 0.153767 -0.046402
v -0.206183 0.151038 0.002850
v -0.200491 0.161567 0.002850
v -0.206183 0.143753 0.048848
v -0.200491 0.153767 0.052101
v -0.206183 0.122610 0.090343
v -0.200491 0.131128 0.096532
v -0.206183 0.089679 0.123274
v -0.200491 0.095868 0.131792
v -0.206183 -0.043812 0.144417
v -0.200491 -0.047066 0.154431
v -0.206183 0.048184 0.144417
v -0.200491 0.051437 0.154431
v -0.206183 0.002186 0.151702
v -0.200491 0.002186 0.162231
v -0.188374 -0.051334 0.167568
v -0.188374 -0.099615 0.142967
v -0.188374 -0.137932 0.104651
v -0.188374 -0.162532 0.056370
v -0.188374 -0.171009 0.002850
v -0.188374 -0.162532 -0.050670
v -0.188374 -0.137932 -0.098951
v -0.188374 -0.099615 -0.137267
v -0.188374 -0.051334 -0.161868
v -0.188374 0.002186 -0.170345
v -0.188374 0.055706 -0.161868
v -0.188374 0.103987 -0.137267
v -0.188374 0.142303 -0.098951
v -0.188374 0.166904 -0.050670
v -0.188374 0.175380 0.002850
v -0.188374 0.166904 0.056370
v -0.188374 0.142303 0.104651
v -0.188374 0.103987 0.142967
v -0.188374 0.055706 0.167568
v -0.188374 0.002186 0.176044
v -0.219947 -0.028567 0.097499
v -0.219947 -0.056310 0.083363
v -0.219947 -0.078328 0.061346
v -0.219947 -0.092463 0.033603
v -0.219947 -0.097334 0.002850
v -0.219947 -0.092463 -0.027903
v -0.219947 -0.078328 -0.055646
v -0.219947 -0.056310 -0.077663
v -0.219947 -0.028567 -0.091799
v -0.219947 0.002186 -0.096670
v -0.219947 0.032939 -0.091799
v -0.219947 0.060682 -0.077663
v -0.219947 0.082699 -0.055646
v -0.219947 0.096835 -0.027903
v -0.219947 0.101706 0.002850
v -0.219947 0.096835 0.033603
v -0.219947 0.082699 0.061346
v -0.219947 0.060682 0.083363
v -0.219947 0.032939 0.097499
v -0.219947 0.002186 0.102370
v 0.184916 -0.034283 0.115089
v 0.184916 -0.067181 0.098326
v 0.184916 -0.093289 0.072217
v 0.184916 -0.110052 0.039319
v 0.184916 -0.115829 0.002850
v 0.184916 -0.110052 -0.033619
v 0.184916 -0.093289 -0.066518
v 0.184916 -0.067181 -0.092626
v 0.184916 -0.034283 -0.109389
v 0.184916 0.002186 -0.115165
v 0.184916 0.038655 -0.109389
v 0.184916 0.071553 -0.092626
v 0.184916 0.097662 -0.066518
v 0.184916 0.114425 -0.033619
v 0.184916 0.120201 0.002850
v 0.184916 0.114425 0.039319
v 0.184916 0.097662 0.072217
v 0.184916 0.071553 0.098326
v 0.184916 0.038655 0.115089
v 0.184916 0.002186 0.120865
v 0.168380 -0.021540 0.075872
v 0.168380 -0.042944 0.064966
v 0.168380 -0.059930 0.047980
v 0.168380 -0.070835 0.026576
v 0.168380 -0.074594 0.002850
v 0.168380 -0.070835 -0.020876
v 0.168380 -0.059930 -0.042280
v 0.168380 -0.042944 -0.059266
v 0.168380 -0.021540 -0.070172
v 0.168380 0.002186 -0.073930
v 0.168380 0.025912 -0.070172
v 0.168380 0.047315 -0.059266
v 0.168380 0.064302 -0.042280
v 0.168380 0.075208 -0.020876
v 0.168380 0.078966 0.002850
v 0.168380 0.075208 0.026576
v 0.168380 0.064302 0.047980
v 0.168380 0.047315 0.064966
v 0.168380 0.002186 0.079629
v 0.168380 0.025912 0.075872
v 0.168381 0.002186 0.002850
vn -0.9996 0.0084 -0.0258
vn -0.9996 -0.0000 -0.0272
vn -1.0000 -0.0000 -0.0000
vn -0.9996 0.0160 -0.0220
vn -0.9996 0.0220 -0.0160
vn -0.9996 0.0258 -0.0084
vn -0.9996 0.0272 -0.0000
vn -0.9996 0.0258 0.0084
vn -0.9996 0.0220 0.0160
vn -0.9996 0.0160 0.0220
vn -0.9996 0.0084 0.0258
vn -0.9996 -0.0000 0.0272
vn -0.9996 -0.0084 0.0258
vn -0.9996 -0.0160 0.0220
vn -0.9996 -0.0220 0.0160
vn -0.9996 -0.0258 0.0084
vn -0.9996 -0.0272 -0.0000
vn -0.9996 -0.0258 -0.0084
vn -0.9996 -0.0220 -0.0160
vn -0.9996 -0.0160 -0.0220
vn -0.9996 -0.0084 -0.0258
vn -0.7857 -0.0000 -0.6186
vn -0.7820 0.1926 -0.5928
vn -0.7855 0.1912 -0.5885
vn -0.7820 0.3664 -0.5042
vn -0.7855 0.3637 -0.5006
vn -0.7856 0.5006 -0.3637
vn -0.7820 0.5043 -0.3663
vn -0.7856 0.5884 -0.1912
vn -0.7820 0.5928 -0.1926
vn -0.7856 0.6187 -0.0000
vn -0.7820 0.6233 -0.0000
vn -0.7855 0.5885 0.1912
vn -0.7820 0.5928 0.1926
vn -0.7855 0.5007 0.3637
vn -0.7820 0.5042 0.3664
vn -0.7853 0.3639 0.5009
vn -0.7820 0.3663 0.5042
vn -0.7860 0.1910 0.5879
vn -0.7820 0.1926 0.5928
vn -0.7853 -0.0000 0.6191
vn -0.7820 -0.0000 0.6233
vn -0.7855 -0.1912 0.5886
vn -0.7820 -0.1926 0.5928
vn -0.7856 -0.3637 0.5006
vn -0.7820 -0.3664 0.5043
vn -0.7820 -0.5043 0.3664
vn -0.7856 -0.5006 0.3637
vn -0.7820 -0.5928 0.1926
vn -0.7856 -0.5885 0.1912
vn -0.7855 -0.6188 -0.0000
vn -0.7820 -0.6233 -0.0000
vn -0.7820 -0.5928 -0.1926
vn -0.7854 -0.5887 -0.1913
vn -0.7856 -0.5006 -0.3637
vn -0.7820 -0.5043 -0.3664
vn -0.7855 -0.3637 -0.5006
vn -0.7820 -0.3664 -0.5043
vn -0.7820 -0.1926 -0.5928
vn -0.7857 -0.1912 -0.5884
vn -0.7820 -0.0000 -0.6233
vn -0.9978 0.0204 -0.0629
vn -0.9978 0.0389 -0.0535
vn -0.9978 0.0535 -0.0389
vn -0.9978 0.0629 -0.0204
vn -0.9978 0.0662 -0.0000
vn -0.9978 0.0629 0.0204
vn -0.9978 0.0535 0.0389
vn -0.9978 0.0389 0.0535
vn -0.9978 0.0204 0.0629
vn -0.9978 -0.0000 0.0661
vn -0.9978 -0.0204 0.0629
vn -0.9978 -0.0389 0.0535
vn -0.9978 -0.0535 0.0389
vn -0.9978 -0.0629 0.0204
vn -0.9978 -0.0662 -0.0000
vn -0.9978 -0.0630 -0.0205
vn -0.9978 -0.0535 -0.0389
vn -0.9978 -0.0389 -0.0535
vn -0.9978 -0.0204 -0.0629
vn -0.9978 -0.0000 -0.0661
vn -0.7596 -0.2010 0.6186
vn -0.7595 -0.3823 0.5262
vn -0.7596 -0.5262 0.3823
vn -0.7595 -0.6186 0.2010
vn -0.7596 -0.6504 -0.0000
vn -0.7595 -0.6186 -0.2010
vn -0.7595 -0.5262 -0.3823
vn -0.7595 -0.3823 -0.5262
vn -0.7595 -0.2010 -0.6186
vn -0.7595 -0.0000 -0.6505
vn -0.7595 0.2010 -0.6186
vn -0.7595 0.3823 -0.5262
vn -0.7595 0.5262 -0.3823
vn -0.7596 0.6186 -0.2010
vn -0.7595 0.6505 -0.0000
vn -0.7595 0.6186 0.2010
vn -0.7595 0.5262 0.3823
vn -0.7595 0.3823 0.5262
vn -0.7596 0.2010 0.6186
vn -0.7596 -0.0000 0.6504
vn -0.5145 -0.0000 0.8575
vn -0.5146 -0.2650 0.8155
vn -0.5145 -0.5040 0.6937
vn -0.5146 -0.6937 0.5040
vn -0.5146 -0.8155 0.2649
vn -0.5146 -0.8574 -0.0000
vn -0.5146 -0.8155 -0.2650
vn -0.5145 -0.6937 -0.5040
vn -0.5146 -0.5040 -0.6937
vn -0.5145 -0.2650 -0.8155
vn -0.5146 -0.0000 -0.8575
vn -0.5145 0.2650 -0.8155
vn -0.5146 0.5040 -0.6937
vn -0.5145 0.6937 -0.5040
vn -0.5146 0.8155 -0.2650
vn -0.5146 0.8574 -0.0000
vn -0.5146 0.8155 0.2650
vn -0.5145 0.6937 0.5040
vn -0.5146 0.5040 0.6937
vn -0.5146 0.2650 0.8155
vn 0.3956 -0.0000 0.9184
vn 0.3956 -0.2838 0.8735
vn 0.3956 -0.5398 0.7430
vn 0.3956 -0.7430 0.5399
vn 0.3956 -0.8735 0.2838
vn 0.3956 -0.9184 -0.0000
vn 0.3956 -0.8735 -0.2838
vn 0.3956 -0.7430 -0.5398
vn 0.3956 -0.5398 -0.7430
vn 0.3956 -0.2839 -0.8734
vn 0.3956 -0.0000 -0.9184
vn 0.3956 0.2838 -0.8735
vn 0.3956 0.5398 -0.7430
vn 0.3956 0.7430 -0.5398
vn 0.3956 0.8735 -0.2838
vn 0.3956 0.9184 -0.0000
vn 0.3956 0.8735 0.2838
vn 0.3956 0.7430 0.5398
vn 0.3957 0.5398 0.7430
vn 0.3956 0.2838 0.8735
vn 0.5481 -0.2585 0.7955
vn 0.5482 -0.4916 0.6766
vn 0.5481 -0.6767 0.4916
vn 0.5481 -0.7955 0.2585
vn 0.5481 -0.8364 -0.0000
vn 0.5481 -0.7955 -0.2584
vn 0.5482 -0.6766 -0.4916
vn 0.5482 -0.4916 -0.6766
vn 0.5481 -0.2585 -0.7954
vn 0.5482 -0.0000 -0.8364
vn 0.5481 0.2585 -0.7955
vn 0.5482 0.4916 -0.6766
vn 0.5482 0.6766 -0.4916
vn 0.5481 0.7955 -0.2584
vn 0.5481 0.8364 -0.0000
vn 0.5481 0.7955 0.2585
vn 0.5482 0.6766 0.4916
vn 0.5482 0.4916 0.6766
vn 0.5481 0.2585 0.7955
vn 0.5481 -0.0000 0.8364
vn 0.6412 -0.0000 -0.7674
vn 0.6877 0.2243 -0.6905
vn 0.6877 -0.0000 -0.7260
vn 0.6411 0.2372 -0.7299
vn 0.6877 0.4267 -0.5874
vn 0.6411 0.4511 -0.6209
vn 0.6877 0.5874 -0.4267
vn 0.6411 0.6209 -0.4511
vn 0.6877 0.6904 -0.2244
vn 0.6411 0.7299 -0.2372
vn 0.6877 0.7260 -0.0000
vn 0.6411 0.7299 0.2372
vn 0.6411 0.7674 -0.0000
vn 0.6877 0.5873 0.4267
vn 0.6877 0.6904 0.2243
vn 0.6412 0.6209 0.4511
vn 0.6877 0.4267 0.5873
vn 0.6411 0.2372 0.7299
vn 0.6411 0.4511 0.6209
vn 0.6411 -0.0000 0.7675
vn 0.6877 0.2243 0.6905
vn 0.6411 -0.2372 0.7299
vn 0.6877 -0.0000 0.7260
vn 0.6877 -0.4267 0.5873
vn 0.6877 -0.2244 0.6905
vn 0.6411 -0.4511 0.6209
vn 0.6877 -0.5873 0.4267
vn 0.6412 -0.7298 0.2372
vn 0.6411 -0.6209 0.4511
vn 0.6411 -0.7674 -0.0000
vn 0.6877 -0.6905 0.2243
vn 0.6411 -0.7299 -0.2372
vn 0.6877 -0.7260 -0.0000
vn 0.6411 -0.6209 -0.4511
vn 0.6877 -0.6905 -0.2244
vn 0.6411 -0.4511 -0.6209
vn 0.6877 -0.5874 -0.4267
vn 0.6411 -0.2371 -0.7299
vn 0.6877 -0.4267 -0.5873
vn 0.6877 -0.2243 -0.6905
vn 0.9847 0.0537 -0.1656
vn 0.9847 -0.0000 -0.1741
vn 0.9847 0.1023 -0.1408
vn 0.9847 0.1655 -0.0538
vn 0.9847 0.1408 -0.1023
vn 0.9847 0.1740 -0.0000
vn 0.9847 0.1655 0.0538
vn 0.9847 0.1408 0.1023
vn 0.9847 0.1023 0.1408
vn 0.9847 0.0538 0.1655
vn 0.9847 -0.0001 0.1740
vn 0.9847 -0.0538 0.1655
vn 0.9847 -0.1409 0.1022
vn 0.9847 -0.1022 0.1409
vn 0.9847 -0.1656 0.0538
vn 0.9847 -0.1741 -0.0001
vn 0.9847 -0.1655 -0.0539
vn 0.9847 -0.1408 -0.1023
vn 0.9847 -0.0538 -0.1655
vn 0.9847 -0.1023 -0.1408
vn 1.0000 -0.0000 -0.0000
vn 0.9493 -0.0000 0.3143
vn 0.9746 -0.0692 0.2130
vn 0.9746 -0.0000 0.2240
vn 0.9493 -0.1848 0.2543
vn 0.9493 -0.0971 0.2989
vn 0.9493 -0.2543 0.1848
vn 0.9746 -0.1317 0.1812
vn 0.9746 -0.2130 0.0692
vn 0.9746 -0.1812 0.1317
vn 0.9493 -0.2989 0.0971
vn 0.9746 -0.2240 -0.0000
vn 0.9493 -0.2989 -0.0971
vn 0.9493 -0.3143 -0.0000
vn 0.9493 -0.2543 -0.1848
vn 0.9746 -0.2130 -0.0692
vn 0.9493 -0.1848 -0.2543
vn 0.9746 -0.1812 -0.1317
vn 0.9746 -0.0692 -0.2130
vn 0.9746 -0.1317 -0.1812
vn 0.9493 -0.0000 -0.3143
vn 0.9493 -0.0971 -0.2989
vn 0.9493 0.0971 -0.2989
vn 0.9746 -0.0000 -0.2240
vn 0.9493 0.1847 -0.2543
vn 0.9746 0.0692 -0.2130
vn 0.9746 0.1812 -0.1317
vn 0.9746 0.1317 -0.1812
vn 0.9493 0.2543 -0.1848
vn 0.9746 0.2130 -0.0692
vn 0.9493 0.3143 -0.0000
vn 0.9493 0.2989 -0.0971
vn 0.9746 0.2130 0.0692
vn 0.9746 0.2240 -0.0000
vn 0.9493 0.2542 0.1847
vn 0.9493 0.2989 0.0971
vn 0.9493 0.1847 0.2543
vn 0.9746 0.1812 0.1317
vn 0.9746 0.0692 0.2130
vn 0.9746 0.1317 0.1812
vn 0.9493 0.0971 0.2989
vn 0.7106 -0.4136 0.5692
vn 0.6265 -0.2408 0.7412
vn 0.6265 -0.4581 0.6305
vn 0.7106 -0.5692 0.4136
vn 0.6266 -0.6305 0.4581
vn 0.6265 -0.7412 0.2408
vn 0.6266 -0.7794 -0.0000
vn 0.7106 -0.6691 0.2174
vn 0.7106 -0.6691 -0.2174
vn 0.6265 -0.7412 -0.2408
vn 0.7106 -0.5692 -0.4136
vn 0.6266 -0.6305 -0.4581
vn 0.6265 -0.4581 -0.6305
vn 0.6265 -0.2408 -0.7412
vn 0.7106 -0.4136 -0.5692
vn 0.6266 -0.0000 -0.7794
vn 0.7106 -0.2174 -0.6692
vn 0.7106 0.2174 -0.6692
vn 0.6265 0.2408 -0.7412
vn 0.7106 0.4136 -0.5692
vn 0.6266 0.4581 -0.6305
vn 0.7106 0.5692 -0.4136
vn 0.6266 0.6305 -0.4581
vn 0.6265 0.7412 -0.2408
vn 0.6265 0.7794 -0.0000
vn 0.7106 0.6692 -0.2174
vn 0.7106 0.6692 0.2174
vn 0.6265 0.7412 0.2408
vn 0.7106 0.5692 0.4136
vn 0.6266 0.6305 0.4581
vn 0.6265 0.4581 0.6305
vn 0.6265 0.2408 0.7412
vn 0.7106 0.4136 0.5692
vn 0.6265 -0.0000 0.7794
vn 0.7106 0.2174 0.6692
vn 0.7106 -0.2174 0.6692
vn 0.7106 -0.0000 0.7036
vn 0.7106 -0.7036 -0.0000
vn 0.7106 -0.0000 -0.7036
vn 0.7106 0.7036 -0.0000
vn -0.0000 -0.3090 0.9511
vn -0.0000 -0.0000 1.0000
vn -0.0000 -0.5878 0.8090
vn -0.0000 -0.8090 0.5878
vn -0.0000 -0.9511 0.3090
vn -0.0000 -1.0000 -0.0000
vn -0.0000 -0.9511 -0.3090
vn -0.0000 -0.8090 -0.5878
vn -0.0000 -0.5878 -0.8090
vn -0.0000 -0.3090 -0.9511
vn -0.0000 -0.0000 -1.0000
vn -0.0000 0.3090 -0.9511
vn -0.0000 0.5878 -0.8090
vn -0.0000 0.8090 -0.5878
vn -0.0000 0.9511 -0.3090
vn -0.0000 1.0000 -0.0000
vn -0.0000 0.9511 0.3090
vn -0.0000 0.8090 0.5878
vn -0.0000 0.5878 0.8090
vn -0.0000 0.3090 0.9511
vn -0.9632 -0.0830 0.2556
vn -0.9461 -0.0000 0.3238
vn -0.9632 -0.0000 0.2687
vn -0.9461 -0.1904 0.2620
vn -0.9461 -0.1001 0.3080
vn -0.9632 -0.2174 0.1580
vn -0.9632 -0.1580 0.2174
vn -0.9461 -0.3080 0.1001
vn -0.9461 -0.2620 0.1903
vn -0.9632 -0.2687 -0.0000
vn -0.9632 -0.2556 0.0830
vn -0.9461 -0.3080 -0.1001
vn -0.9461 -0.3238 -0.0000
vn -0.9632 -0.2174 -0.1580
vn -0.9632 -0.2556 -0.0830
vn -0.9461 -0.1903 -0.2620
vn -0.9461 -0.2620 -0.1904
vn -0.9632 -0.0830 -0.2556
vn -0.9632 -0.1580 -0.2174
vn -0.9461 -0.0000 -0.3239
vn -0.9461 -0.1001 -0.3080
vn -0.9632 0.0830 -0.2556
vn -0.9632 -0.0000 -0.2687
vn -0.9461 0.1903 -0.2620
vn -0.9461 0.1001 -0.3080
vn -0.9632 0.2174 -0.1580
vn -0.9632 0.1580 -0.2174
vn -0.9632 0.2556 -0.0830
vn -0.9461 0.2620 -0.1904
vn -0.9461 0.3239 -0.0000
vn -0.9461 0.3080 -0.1001
vn -0.9632 0.2556 0.0830
vn -0.9632 0.2687 -0.0000
vn -0.9461 0.2620 0.1903
vn -0.9461 0.3080 0.1001
vn -0.9632 0.2174 0.1580
vn -0.9461 0.1903 0.2620
vn -0.9632 0.0830 0.2556
vn -0.9632 0.1580 0.2174
vn -0.9461 0.1001 0.3080
vn -0.7518 -0.3876 0.5335
vn -0.7996 -0.1856 0.5711
vn -0.7996 -0.3530 0.4858
vn -0.7996 -0.4858 0.3530
vn -0.7996 -0.5711 0.1856
vn -0.7518 -0.5335 0.3876
vn -0.7518 -0.6594 -0.0000
vn -0.7996 -0.6005 -0.0000
vn -0.7518 -0.6272 -0.2038
vn -0.7996 -0.5711 -0.1856
vn -0.7518 -0.5335 -0.3876
vn -0.7996 -0.4858 -0.3530
vn -0.7518 -0.3876 -0.5335
vn -0.7996 -0.3530 -0.4858
vn -0.7996 -0.1856 -0.5711
vn -0.7996 -0.0000 -0.6005
vn -0.7518 -0.2038 -0.6272
vn -0.7996 0.1856 -0.5711
vn -0.7518 -0.0000 -0.6594
vn -0.7996 0.3530 -0.4858
vn -0.7518 0.2038 -0.6272
vn -0.7518 0.5335 -0.3876
vn -0.7996 0.4859 -0.3530
vn -0.7996 0.5711 -0.1856
vn -0.7996 0.6005 -0.0000
vn -0.7517 0.6272 -0.2038
vn -0.7996 0.5711 0.1856
vn -0.7518 0.6594 -0.0000
vn -0.7996 0.4858 0.3530
vn -0.7518 0.6272 0.2038
vn -0.7518 0.3876 0.5335
vn -0.7996 0.3530 0.4858
vn -0.7518 0.2038 0.6272
vn -0.7996 0.1856 0.5711
vn -0.7996 -0.0000 0.6005
vn -0.7517 -0.2038 0.6272
vn -0.7518 -0.0000 0.6594
vn -0.7518 0.5335 0.3876
vn -0.7518 0.3876 -0.5335
vn -0.7518 -0.6272 0.2038
vt 0.333407 0.111521
vt 0.316224 0.114371
vt 0.316590 0.058646
vt 0.348772 0.103392
vt 0.360742 0.090911
vt 0.368164 0.075446
vt 0.370412 0.058613
vt 0.367408 0.042085
vt 0.359569 0.027416
vt 0.347730 0.015921
vt 0.333032 0.008589
vt 0.316823 0.006039
vt 0.300559 0.008492
vt 0.285707 0.015759
vt 0.273649 0.027243
vt 0.265571 0.041958
vt 0.262349 0.058572
vt 0.264435 0.075497
vt 0.271759 0.091027
vt 0.283686 0.103519
vt 0.299041 0.111602
vt 0.220739 0.276069
vt 0.198524 0.264930
vt 0.220739 0.264930
vt 0.198524 0.252987
vt 0.220739 0.252987
vt 0.220739 0.240702
vt 0.198524 0.240702
vt 0.220739 0.228083
vt 0.198524 0.228083
vt 0.220739 0.214297
vt 0.198524 0.214297
vt 0.220739 0.200421
vt 0.198524 0.200421
vt 0.220739 0.184362
vt 0.198524 0.184362
vt 0.220739 0.166385
vt 0.198524 0.166385
vt 0.220739 0.148763
vt 0.198524 0.148763
vt 0.220739 0.131255
vt 0.198524 0.131255
vt 0.220739 0.116363
vt 0.198524 0.116363
vt 0.220739 0.101489
vt 0.198524 0.101489
vt 0.198524 0.086495
vt 0.220739 0.086495
vt 0.198524 0.073248
vt 0.220739 0.073248
vt 0.220739 0.060795
vt 0.198524 0.060795
vt 0.198524 0.051561
vt 0.220739 0.051561
vt 0.220739 0.041625
vt 0.198524 0.041625
vt 0.220739 0.031471
vt 0.198524 0.031471
vt 0.198524 0.020965
vt 0.220739 0.020965
vt 0.198524 0.006713
vt 0.220739 0.006713
vt 0.231130 0.264930
vt 0.231130 0.252987
vt 0.231130 0.240702
vt 0.231130 0.228083
vt 0.231130 0.214297
vt 0.231130 0.200421
vt 0.231130 0.184361
vt 0.231130 0.166385
vt 0.231130 0.148763
vt 0.231130 0.131255
vt 0.231130 0.116363
vt 0.231130 0.101489
vt 0.231130 0.086495
vt 0.231130 0.073248
vt 0.231130 0.060795
vt 0.231130 0.051561
vt 0.231130 0.041625
vt 0.231130 0.031471
vt 0.231130 0.020965
vt 0.231130 0.006713
vt 0.237602 0.264930
vt 0.231130 0.276069
vt 0.237602 0.252987
vt 0.237602 0.240702
vt 0.237602 0.228083
vt 0.237602 0.214297
vt 0.237602 0.200421
vt 0.237602 0.184362
vt 0.237602 0.166385
vt 0.237602 0.148763
vt 0.237602 0.131255
vt 0.237602 0.116363
vt 0.237602 0.101489
vt 0.237602 0.086495
vt 0.237602 0.073248
vt 0.237602 0.060795
vt 0.237602 0.051561
vt 0.237602 0.041625
vt 0.237602 0.031471
vt 0.237602 0.020965
vt 0.237602 0.006713
vt 0.240862 0.276069
vt 0.240862 0.264930
vt 0.240862 0.252987
vt 0.240862 0.240702
vt 0.240862 0.228083
vt 0.240862 0.214297
vt 0.240862 0.200421
vt 0.240862 0.184362
vt 0.240862 0.166386
vt 0.240862 0.148763
vt 0.240862 0.131255
vt 0.240862 0.116363
vt 0.240862 0.101489
vt 0.240862 0.086495
vt 0.240862 0.073248
vt 0.240862 0.060795
vt 0.240862 0.051561
vt 0.240862 0.041625
vt 0.240862 0.031471
vt 0.240862 0.020965
vt 0.240862 0.006713
vt 0.242398 0.276069
vt 0.242398 0.264930
vt 0.242398 0.252987
vt 0.242398 0.240702
vt 0.242398 0.228083
vt 0.242398 0.214297
vt 0.242398 0.200421
vt 0.242397 0.184362
vt 0.242398 0.166385
vt 0.242397 0.148763
vt 0.242397 0.131255
vt 0.242397 0.116363
vt 0.242397 0.101489
vt 0.242398 0.086495
vt 0.242398 0.073248
vt 0.242398 0.060795
vt 0.242398 0.051561
vt 0.242398 0.041625
vt 0.242398 0.031471
vt 0.242398 0.020965
vt 0.242398 0.006713
vt 0.258970 0.264930
vt 0.258970 0.252987
vt 0.258970 0.240702
vt 0.258970 0.228083
vt 0.258970 0.214297
vt 0.258970 0.200421
vt 0.258970 0.184362
vt 0.258970 0.166385
vt 0.258970 0.148763
vt 0.258970 0.131255
vt 0.258970 0.116363
vt 0.258970 0.101489
vt 0.258970 0.086495
vt 0.258970 0.073248
vt 0.258970 0.060795
vt 0.258970 0.051561
vt 0.258970 0.041625
vt 0.258970 0.031471
vt 0.258970 0.020965
vt 0.258970 0.006713
vt 0.185484 0.152841
vt 0.189742 0.133631
vt 0.189742 0.152841
vt 0.185484 0.133631
vt 0.189742 0.123986
vt 0.185484 0.123986
vt 0.189742 0.108636
vt 0.185484 0.108636
vt 0.189742 0.094322
vt 0.185484 0.094322
vt 0.189742 0.080650
vt 0.185484 0.067507
vt 0.185484 0.080650
vt 0.189742 0.053451
vt 0.189742 0.067507
vt 0.185484 0.053451
vt 0.189742 0.038953
vt 0.185484 0.023875
vt 0.185484 0.038953
vt 0.185484 0.007158
vt 0.189742 0.023875
vt 0.185484 0.265337
vt 0.189742 0.273922
vt 0.185484 0.273922
vt 0.189742 0.255916
vt 0.189742 0.265337
vt 0.185484 0.255916
vt 0.189742 0.245394
vt 0.185484 0.233817
vt 0.185484 0.245394
vt 0.185484 0.221388
vt 0.189742 0.233817
vt 0.185484 0.208334
vt 0.189742 0.221388
vt 0.185484 0.194828
vt 0.189742 0.208334
vt 0.185484 0.181018
vt 0.189742 0.194828
vt 0.185484 0.167000
vt 0.189742 0.181018
vt 0.189742 0.167000
vt 0.182672 0.133631
vt 0.182672 0.152841
vt 0.182672 0.123986
vt 0.182672 0.094322
vt 0.182672 0.108636
vt 0.182672 0.080650
vt 0.182672 0.067507
vt 0.182672 0.053451
vt 0.182672 0.038953
vt 0.182672 0.023875
vt 0.182672 0.273922
vt 0.182672 0.265337
vt 0.182672 0.245394
vt 0.182672 0.255916
vt 0.182672 0.233817
vt 0.182672 0.221388
vt 0.182672 0.208334
vt 0.182672 0.194828
vt 0.182672 0.167000
vt 0.182672 0.181018
vt 0.175025 0.152841
vt 0.175025 0.123986
vt 0.175025 0.133631
vt 0.175025 0.108636
vt 0.175025 0.094322
vt 0.175025 0.067507
vt 0.175025 0.080650
vt 0.175025 0.053451
vt 0.175025 0.023875
vt 0.175025 0.038953
vt 0.182672 0.007158
vt 0.175025 0.265337
vt 0.175025 0.273922
vt 0.175025 0.245394
vt 0.175025 0.255916
vt 0.175025 0.221388
vt 0.175025 0.233817
vt 0.175025 0.194828
vt 0.175025 0.208334
vt 0.175025 0.181018
vt 0.175025 0.167000
vt 0.162973 0.152841
vt 0.162973 0.123986
vt 0.162973 0.133631
vt 0.162973 0.108636
vt 0.162973 0.094322
vt 0.162973 0.067507
vt 0.162973 0.080650
vt 0.162973 0.053451
vt 0.162973 0.038953
vt 0.162973 0.007158
vt 0.162973 0.023875
vt 0.162973 0.265337
vt 0.162973 0.273922
vt 0.162973 0.255916
vt 0.162973 0.245394
vt 0.162973 0.221388
vt 0.162973 0.233817
vt 0.162973 0.194828
vt 0.162973 0.208334
vt 0.162973 0.181018
vt 0.162973 0.167000
vt 0.157031 0.123986
vt 0.148739 0.133631
vt 0.148739 0.123986
vt 0.157031 0.108636
vt 0.148739 0.108636
vt 0.148739 0.094322
vt 0.148739 0.080650
vt 0.157031 0.094322
vt 0.157031 0.067507
vt 0.148739 0.067507
vt 0.157031 0.053451
vt 0.148739 0.053451
vt 0.148739 0.038953
vt 0.148739 0.023875
vt 0.157031 0.038953
vt 0.148739 0.007158
vt 0.157031 0.023875
vt 0.157031 0.265337
vt 0.148739 0.273922
vt 0.148739 0.265337
vt 0.157031 0.255916
vt 0.148739 0.255916
vt 0.157031 0.245394
vt 0.148739 0.245394
vt 0.148739 0.233817
vt 0.148739 0.221388
vt 0.157031 0.233817
vt 0.157031 0.208334
vt 0.148739 0.208334
vt 0.157031 0.194828
vt 0.148739 0.194828
vt 0.148739 0.181018
vt 0.148739 0.167000
vt 0.157031 0.181018
vt 0.148739 0.152841
vt 0.157031 0.167000
vt 0.157031 0.133631
vt 0.157031 0.152841
vt 0.157031 0.080650
vt 0.157031 0.007158
vt 0.157031 0.273922
vt 0.157031 0.221388
vt 0.052020 0.133631
vt 0.052020 0.152841
vt 0.052020 0.123986
vt 0.052020 0.108636
vt 0.052020 0.094322
vt 0.052020 0.080650
vt 0.052020 0.067507
vt 0.052020 0.053451
vt 0.052020 0.038953
vt 0.052020 0.023875
vt 0.052020 0.007158
vt 0.052020 0.265337
vt 0.052020 0.273922
vt 0.052020 0.255916
vt 0.052020 0.245394
vt 0.052020 0.233817
vt 0.052020 0.221388
vt 0.052020 0.208334
vt 0.052020 0.194828
vt 0.052020 0.181018
vt 0.052020 0.167000
vt 0.009157 0.133631
vt 0.042718 0.152841
vt 0.009157 0.152841
vt 0.042718 0.123986
vt 0.042718 0.133631
vt 0.009157 0.108636
vt 0.009157 0.123986
vt 0.042718 0.094322
vt 0.042718 0.108636
vt 0.009157 0.080650
vt 0.009157 0.094322
vt 0.042718 0.067507
vt 0.042718 0.080650
vt 0.009157 0.053451
vt 0.009157 0.067507
vt 0.042718 0.038953
vt 0.042718 0.053451
vt 0.009157 0.023875
vt 0.009157 0.038953
vt 0.042718 0.007158
vt 0.042718 0.023875
vt 0.009157 0.265337
vt 0.042718 0.273922
vt 0.009157 0.273922
vt 0.042718 0.255916
vt 0.042718 0.265337
vt 0.009157 0.245394
vt 0.009157 0.255916
vt 0.009157 0.233817
vt 0.042718 0.245394
vt 0.042718 0.221388
vt 0.042718 0.233817
vt 0.009157 0.208334
vt 0.009157 0.221388
vt 0.042718 0.194828
vt 0.042718 0.208334
vt 0.009157 0.194828
vt 0.042718 0.181018
vt 0.009157 0.167000
vt 0.009157 0.181018
vt 0.042718 0.167000
vt 0.046188 0.133631
vt 0.046188 0.123986
vt 0.046188 0.108636
vt 0.046188 0.094322
vt 0.046188 0.080650
vt 0.046188 0.067507
vt 0.046188 0.053451
vt 0.046188 0.038953
vt 0.046188 0.023875
vt 0.046188 0.007158
vt 0.046188 0.265337
vt 0.046188 0.273922
vt 0.046188 0.255916
vt 0.046188 0.245394
vt 0.046188 0.233817
vt 0.046188 0.221388
vt 0.046188 0.208334
vt 0.046188 0.194828
vt 0.046188 0.181018
vt 0.046188 0.167000
vt 0.046188 0.152841
vt 0.553654 0.837629
vt 0.544588 0.836086
vt 0.553595 0.808104
vt 0.536490 0.831782
vt 0.530169 0.825194
vt 0.526221 0.817021
vt 0.524986 0.808090
vt 0.526531 0.799274
vt 0.530662 0.791400
vt 0.536960 0.785186
vt 0.544828 0.781191
vt 0.553539 0.779776
vt 0.562295 0.781080
vt 0.570281 0.785007
vt 0.576733 0.791225
vt 0.581002 0.799177
vt 0.582628 0.808118
vt 0.581394 0.817173
vt 0.577375 0.825424
vt 0.570946 0.832007
vt 0.562757 0.836225
vt 0.009157 0.007158
vt 0.175025 0.007158
vt 0.189742 0.007158
vt 0.258970 0.276069
vt 0.237602 0.276069
vt 0.198524 0.276069
s 1
g off
g GoKart.002_blinn1SG.001
usemtl blinn1SG.001
f 1/1/1 20/2/2 21/3/3
f 2/4/4 1/1/1 21/3/3
f 3/5/5 2/4/4 21/3/3
f 4/6/6 3/5/5 21/3/3
f 5/7/7 4/6/6 21/3/3
f 6/8/8 5/7/7 21/3/3
f 7/9/9 6/8/8 21/3/3
f 8/10/10 7/9/9 21/3/3
f 9/11/11 8/10/10 21/3/3
f 10/12/12 9/11/11 21/3/3
f 11/13/13 10/12/12 21/3/3
f 12/14/14 11/13/13 21/3/3
f 13/15/15 12/14/14 21/3/3
f 14/16/16 13/15/15 21/3/3
f 15/17/17 14/16/16 21/3/3
f 16/18/18 15/17/17 21/3/3
f 17/19/19 16/18/18 21/3/3
f 18/20/20 17/19/19 21/3/3
f 19/21/21 18/20/20 21/3/3
f 20/2/2 19/21/21 21/3/3
s 2
f 81/22/22 42/23/23 62/24/24
f 62/24/24 43/25/25 63/26/26
f 64/27/27 43/25/25 44/28/28
f 65/29/29 44/28/28 45/30/30
f 66/31/31 45/30/30 46/32/32
f 67/33/33 46/32/32 47/34/34
f 68/35/35 47/34/34 48/36/36
f 69/37/37 48/36/36 49/38/38
f 70/39/39 49/38/38 50/40/40
f 71/41/41 50/40/40 51/42/42
f 72/43/43 51/42/42 52/44/44
f 73/45/45 52/44/44 53/46/46
f 73/45/45 54/47/47 74/48/48
f 74/48/48 55/49/49 75/50/50
f 76/51/51 55/49/49 56/52/52
f 76/51/51 57/53/53 77/54/54
f 78/55/55 57/53/53 58/56/56
f 79/57/57 58/56/56 59/58/58
f 79/57/57 60/59/59 80/60/60
f 80/60/60 61/61/61 81/62/22
f 82/63/62 81/22/22 62/24/24
f 83/64/63 62/24/24 63/26/26
f 83/64/63 64/27/27 84/65/64
f 84/65/64 65/29/29 85/66/65
f 85/66/65 66/31/31 86/67/66
f 87/68/67 66/31/31 67/33/33
f 87/68/67 68/35/35 88/69/68
f 89/70/69 68/35/35 69/37/37
f 89/70/69 70/39/39 90/71/70
f 90/71/70 71/41/41 91/72/71
f 92/73/72 71/41/41 72/43/43
f 93/74/73 72/43/43 73/45/45
f 94/75/74 73/45/45 74/48/48
f 95/76/75 74/48/48 75/50/50
f 96/77/76 75/50/50 76/51/51
f 96/77/76 77/54/54 97/78/77
f 98/79/78 77/54/54 78/55/55
f 99/80/79 78/55/55 79/57/57
f 99/80/79 80/60/60 100/81/80
f 100/81/80 81/62/22 101/82/81
f 102/83/82 101/84/81 82/63/62
f 103/85/83 82/63/62 83/64/63
f 104/86/84 83/64/63 84/65/64
f 104/86/84 85/66/65 105/87/85
f 105/87/85 86/67/66 106/88/86
f 106/88/86 87/68/67 107/89/87
f 107/89/87 88/69/68 108/90/88
f 108/90/88 89/70/69 109/91/89
f 109/91/89 90/71/70 110/92/90
f 110/92/90 91/72/71 111/93/91
f 112/94/92 91/72/71 92/73/72
f 112/94/92 93/74/73 113/95/93
f 113/95/93 94/75/74 114/96/94
f 115/97/95 94/75/74 95/76/75
f 115/97/95 96/77/76 116/98/96
f 116/98/96 97/78/77 117/99/97
f 117/99/97 98/79/78 118/100/98
f 118/100/98 99/80/79 119/101/99
f 120/102/100 99/80/79 100/81/80
f 120/102/100 101/82/81 121/103/101
f 141/104/102 102/83/82 122/105/103
f 122/105/103 103/85/83 123/106/104
f 123/106/104 104/86/84 124/107/105
f 125/108/106 104/86/84 105/87/85
f 126/109/107 105/87/85 106/88/86
f 127/110/108 106/88/86 107/89/87
f 128/111/109 107/89/87 108/90/88
f 129/112/110 108/90/88 109/91/89
f 130/113/111 109/91/89 110/92/90
f 130/113/111 111/93/91 131/114/112
f 132/115/113 111/93/91 112/94/92
f 133/116/114 112/94/92 113/95/93
f 133/116/114 114/96/94 134/117/115
f 134/117/115 115/97/95 135/118/116
f 136/119/117 115/97/95 116/98/96
f 136/119/117 117/99/97 137/120/118
f 138/121/119 117/99/97 118/100/98
f 138/121/119 119/101/99 139/122/120
f 139/122/120 120/102/100 140/123/121
f 141/124/102 120/102/100 121/103/101
f 161/125/122 122/105/103 142/126/123
f 142/126/123 123/106/104 143/127/124
f 143/127/124 124/107/105 144/128/125
f 144/128/125 125/108/106 145/129/126
f 145/129/126 126/109/107 146/130/127
f 146/130/127 127/110/108 147/131/128
f 147/131/128 128/111/109 148/132/129
f 148/132/129 129/112/110 149/133/130
f 150/134/131 129/112/110 130/113/111
f 151/135/132 130/113/111 131/114/112
f 152/136/133 131/114/112 132/115/113
f 153/137/134 132/115/113 133/116/114
f 154/138/135 133/116/114 134/117/115
f 155/139/136 134/117/115 135/118/116
f 156/140/137 135/118/116 136/119/117
f 157/141/138 136/119/117 137/120/118
f 158/142/139 137/120/118 138/121/119
f 159/143/140 138/121/119 139/122/120
f 159/143/140 140/123/121 160/144/141
f 160/144/141 141/124/102 161/145/122
f 22/146/142 161/125/122 142/126/123
f 23/147/143 142/126/123 143/127/124
f 23/147/143 144/128/125 24/148/144
f 24/148/144 145/129/126 25/149/145
f 26/150/146 145/129/126 146/130/127
f 27/151/147 146/130/127 147/131/128
f 28/152/148 147/131/128 148/132/129
f 29/153/149 148/132/129 149/133/130
f 29/153/149 150/134/131 30/154/150
f 30/154/150 151/135/132 31/155/151
f 31/155/151 152/136/133 32/156/152
f 32/156/152 153/137/134 33/157/153
f 33/157/153 154/138/135 34/158/154
f 34/158/154 155/139/136 35/159/155
f 35/159/155 156/140/137 36/160/156
f 36/160/156 157/141/138 37/161/157
f 37/161/157 158/142/139 38/162/158
f 39/163/159 158/142/139 159/143/140
f 40/164/160 159/143/140 160/144/141
f 41/165/161 160/144/141 161/145/122
f 41/165/161 40/164/160 160/144/141
f 40/164/160 39/163/159 159/143/140
f 39/163/159 38/162/158 158/142/139
f 37/161/157 157/141/138 158/142/139
f 36/160/156 156/140/137 157/141/138
f 35/159/155 155/139/136 156/140/137
f 34/158/154 154/138/135 155/139/136
f 33/157/153 153/137/134 154/138/135
f 32/156/152 152/136/133 153/137/134
f 31/155/151 151/135/132 152/136/133
f 30/154/150 150/134/131 151/135/132
f 29/153/149 149/133/130 150/134/131
f 29/153/149 28/152/148 148/132/129
f 28/152/148 27/151/147 147/131/128
f 27/151/147 26/150/146 146/130/127
f 26/150/146 25/149/145 145/129/126
f 24/148/144 144/128/125 145/129/126
f 23/147/143 143/127/124 144/128/125
f 23/147/143 22/146/142 142/126/123
f 22/146/142 41/418/161 161/125/122
f 160/144/141 140/123/121 141/124/102
f 159/143/140 139/122/120 140/123/121
f 159/143/140 158/142/139 138/121/119
f 158/142/139 157/141/138 137/120/118
f 157/141/138 156/140/137 136/119/117
f 156/140/137 155/139/136 135/118/116
f 155/139/136 154/138/135 134/117/115
f 154/138/135 153/137/134 133/116/114
f 153/137/134 152/136/133 132/115/113
f 152/136/133 151/135/132 131/114/112
f 151/135/132 150/134/131 130/113/111
f 150/134/131 149/133/130 129/112/110
f 148/132/129 128/111/109 129/112/110
f 147/131/128 127/110/108 128/111/109
f 146/130/127 126/109/107 127/110/108
f 145/129/126 125/108/106 126/109/107
f 144/128/125 124/107/105 125/108/106
f 143/127/124 123/106/104 124/107/105
f 142/126/123 122/105/103 123/106/104
f 161/125/122 141/104/102 122/105/103
f 141/124/102 140/123/121 120/102/100
f 139/122/120 119/101/99 120/102/100
f 138/121/119 118/100/98 119/101/99
f 138/121/119 137/120/118 117/99/97
f 136/119/117 116/98/96 117/99/97
f 136/119/117 135/118/116 115/97/95
f 134/117/115 114/96/94 115/97/95
f 133/116/114 113/95/93 114/96/94
f 133/116/114 132/115/113 112/94/92
f 132/115/113 131/114/112 111/93/91
f 130/113/111 110/92/90 111/93/91
f 130/113/111 129/112/110 109/91/89
f 129/112/110 128/111/109 108/90/88
f 128/111/109 127/110/108 107/89/87
f 127/110/108 126/109/107 106/88/86
f 126/109/107 125/108/106 105/87/85
f 125/108/106 124/107/105 104/86/84
f 123/106/104 103/85/83 104/86/84
f 122/105/103 102/83/82 103/85/83
f 141/104/102 121/419/101 102/83/82
f 120/102/100 100/81/80 101/82/81
f 120/102/100 119/101/99 99/80/79
f 118/100/98 98/79/78 99/80/79
f 117/99/97 97/78/77 98/79/78
f 116/98/96 96/77/76 97/78/77
f 115/97/95 95/76/75 96/77/76
f 115/97/95 114/96/94 94/75/74
f 113/95/93 93/74/73 94/75/74
f 112/94/92 92/73/72 93/74/73
f 112/94/92 111/93/91 91/72/71
f 110/92/90 90/71/70 91/72/71
f 109/91/89 89/70/69 90/71/70
f 108/90/88 88/69/68 89/70/69
f 107/89/87 87/68/67 88/69/68
f 106/88/86 86/67/66 87/68/67
f 105/87/85 85/66/65 86/67/66
f 104/86/84 84/65/64 85/66/65
f 104/86/84 103/85/83 83/64/63
f 103/85/83 102/83/82 82/63/62
f 102/83/82 121/419/101 101/84/81
f 100/81/80 80/60/60 81/62/22
f 99/80/79 79/57/57 80/60/60
f 99/80/79 98/79/78 78/55/55
f 98/79/78 97/78/77 77/54/54
f 96/77/76 76/51/51 77/54/54
f 96/77/76 95/76/75 75/50/50
f 95/76/75 94/75/74 74/48/48
f 94/75/74 93/74/73 73/45/45
f 93/74/73 92/73/72 72/43/43
f 92/73/72 91/72/71 71/41/41
f 90/71/70 70/39/39 71/41/41
f 89/70/69 69/37/37 70/39/39
f 89/70/69 88/69/68 68/35/35
f 87/68/67 67/33/33 68/35/35
f 87/68/67 86/67/66 66/31/31
f 85/66/65 65/29/29 66/31/31
f 84/65/64 64/27/27 65/29/29
f 83/64/63 63/26/26 64/27/27
f 83/64/63 82/63/62 62/24/24
f 82/63/62 101/84/81 81/22/22
f 80/60/60 60/59/59 61/61/61
f 79/57/57 59/58/58 60/59/59
f 79/57/57 78/55/55 58/56/56
f 78/55/55 77/54/54 57/53/53
f 76/51/51 56/52/52 57/53/53
f 76/51/51 75/50/50 55/49/49
f 74/48/48 54/47/47 55/49/49
f 73/45/45 53/46/46 54/47/47
f 73/45/45 72/43/43 52/44/44
f 72/43/43 71/41/41 51/42/42
f 71/41/41 70/39/39 50/40/40
f 70/39/39 69/37/37 49/38/38
f 69/37/37 68/35/35 48/36/36
f 68/35/35 67/33/33 47/34/34
f 67/33/33 66/31/31 46/32/32
f 66/31/31 65/29/29 45/30/30
f 65/29/29 64/27/27 44/28/28
f 64/27/27 63/26/26 43/25/25
f 62/24/24 42/23/23 43/25/25
f 81/22/22 61/420/61 42/23/23
s 3
g GoKart.002_lambert2SG.001
usemtl lambert2SG.001
f 201/166/162 162/167/163 181/168/164
f 182/169/165 163/170/166 162/167/163
f 183/171/167 164/172/168 163/170/166
f 184/173/169 165/174/170 164/172/168
f 185/175/171 166/176/172 165/174/170
f 187/177/173 166/176/172 186/178/174
f 187/177/173 168/179/175 167/180/176
f 188/181/177 169/182/178 168/179/175
f 190/183/179 169/182/178 189/184/180
f 191/185/181 170/186/182 190/183/179
f 192/187/183 171/188/184 191/189/181
f 192/187/183 173/190/185 172/191/186
f 193/192/187 174/193/188 173/190/185
f 195/194/189 174/193/188 194/195/190
f 196/196/191 175/197/192 195/194/189
f 197/198/193 176/199/194 196/196/191
f 198/200/195 177/201/196 197/198/193
f 199/202/197 178/203/198 198/200/195
f 200/204/199 179/205/200 199/202/197
f 200/204/199 181/168/164 180/206/201
f 202/207/202 201/166/162 221/208/203
f 203/209/204 182/169/165 202/207/202
f 203/209/204 184/173/169 183/171/167
f 205/210/205 184/173/169 204/211/206
f 206/212/207 185/175/171 205/210/205
f 207/213/208 186/178/174 206/212/207
f 208/214/209 187/177/173 207/213/208
f 208/214/209 189/184/180 188/181/177
f 209/215/210 190/183/179 189/184/180
f 210/216/211 191/185/181 190/183/179
f 211/217/212 192/187/183 191/189/181
f 212/218/213 193/192/187 192/187/183
f 214/219/214 193/192/187 213/220/215
f 214/219/214 195/194/189 194/195/190
f 215/221/216 196/196/191 195/194/189
f 216/222/217 197/198/193 196/196/191
f 217/223/218 198/200/195 197/198/193
f 218/224/219 199/202/197 198/200/195
f 220/225/220 199/202/197 219/226/221
f 221/208/203 200/204/199 220/225/220
f 381/227/222 202/207/202 221/208/203
f 363/228/222 202/207/202 362/229/222
f 364/230/222 203/209/204 363/228/222
f 364/230/222 205/210/205 204/211/206
f 365/231/222 206/212/207 205/210/205
f 367/232/222 206/212/207 366/233/222
f 367/232/222 208/214/209 207/213/208
f 368/234/222 209/215/210 208/214/209
f 370/235/222 209/215/210 369/236/222
f 370/235/222 211/237/212 210/216/211
f 372/238/222 211/217/212 371/239/222
f 372/238/222 213/220/215 212/218/213
f 374/240/222 213/220/215 373/241/222
f 374/240/222 215/221/216 214/219/214
f 376/242/222 215/221/216 375/243/222
f 376/242/222 217/223/218 216/222/217
f 378/244/222 217/223/218 377/245/222
f 378/244/222 219/226/221 218/224/219
f 379/246/222 220/225/220 219/226/221
f 381/227/222 220/225/220 380/247/222
s 4
f 260/248/223 362/229/224 381/227/225
f 222/249/226 362/229/224 258/250/227
f 224/251/228 363/228/229 222/249/226
f 224/251/228 365/231/230 364/230/231
f 226/252/232 366/233/233 365/231/230
f 230/253/234 366/233/233 228/254/235
f 232/255/236 367/232/237 230/253/234
f 234/256/238 368/234/239 232/255/236
f 234/256/238 370/235/240 369/236/241
f 238/257/242 370/235/240 236/258/243
f 240/259/244 371/239/245 238/260/242
f 242/261/246 372/238/247 240/259/244
f 242/261/246 374/240/248 373/241/249
f 244/262/250 375/243/251 374/240/248
f 248/263/252 375/243/251 246/264/253
f 248/263/252 377/245/254 376/242/255
f 252/265/256 377/245/254 250/266/257
f 254/267/258 378/244/259 252/265/256
f 254/267/258 380/247/260 379/246/261
f 256/268/262 381/227/225 380/247/260
f 223/269/263 262/270/264 263/271/265
f 225/272/266 263/271/265 264/273/267
f 265/274/268 225/272/266 264/273/267
f 266/275/269 227/276/270 265/274/268
f 231/277/271 266/275/269 267/278/272
f 233/279/273 267/278/272 268/280/274
f 269/281/275 233/279/273 268/280/274
f 270/282/276 235/283/277 269/281/275
f 271/284/278 237/285/279 270/282/276
f 241/286/280 271/287/278 272/288/281
f 243/289/282 272/288/281 273/290/283
f 245/291/284 273/290/283 274/292/285
f 275/293/286 245/291/284 274/292/285
f 276/294/287 247/295/288 275/293/286
f 251/296/289 276/294/287 277/297/290
f 253/298/291 277/297/290 278/299/292
f 279/300/293 253/298/291 278/299/292
f 280/301/294 255/302/295 279/300/293
f 281/303/296 257/304/297 280/301/294
f 281/303/296 259/305/298 261/306/299
f 225/272/266 222/249/226 223/269/263
f 227/276/270 224/251/228 225/272/266
f 229/307/300 226/252/232 227/276/270
f 231/277/271 228/254/235 229/307/300
f 233/279/273 230/253/234 231/277/271
f 234/256/238 233/279/273 235/283/277
f 236/258/243 235/283/277 237/285/279
f 238/257/242 237/285/279 239/308/301
f 240/259/244 239/309/301 241/286/280
f 242/261/246 241/286/280 243/289/282
f 245/291/284 242/261/246 243/289/282
f 246/264/253 245/291/284 247/295/288
f 248/263/252 247/295/288 249/310/302
f 251/296/289 248/263/252 249/310/302
f 253/298/291 250/266/257 251/296/289
f 254/267/258 253/298/291 255/302/295
f 257/304/297 254/267/258 255/302/295
f 258/250/227 223/269/263 222/249/226
f 260/248/223 259/305/298 258/250/227
f 261/306/299 256/268/262 257/304/297
s 5
f 322/311/303 281/303/304 341/312/304
f 323/313/305 262/270/303 322/311/303
f 324/314/306 263/271/305 323/313/305
f 325/315/307 264/273/306 324/314/306
f 326/316/308 265/274/307 325/315/307
f 327/317/309 266/275/308 326/316/308
f 328/318/310 267/278/309 327/317/309
f 329/319/311 268/280/310 328/318/310
f 330/320/312 269/281/311 329/319/311
f 331/321/313 270/282/312 330/320/312
f 332/322/314 271/287/313 331/323/313
f 333/324/315 272/288/314 332/322/314
f 334/325/316 273/290/315 333/324/315
f 335/326/317 274/292/316 334/325/316
f 336/327/318 275/293/317 335/326/317
f 337/328/319 276/294/318 336/327/318
f 338/329/320 277/297/319 337/328/319
f 339/330/321 278/299/320 338/329/320
f 340/331/322 279/300/321 339/330/321
f 341/312/304 280/301/322 340/331/322
s 6
f 342/332/323 320/333/324 361/334/325
f 342/332/323 282/335/326 316/336/327
f 344/337/328 282/335/326 343/338/329
f 344/337/328 286/339/330 284/340/331
f 346/341/332 286/339/330 345/342/333
f 346/341/332 290/343/334 288/344/335
f 348/345/336 290/343/334 347/346/337
f 348/345/336 294/347/338 292/348/339
f 350/349/340 294/347/338 349/350/341
f 350/349/340 298/351/342 296/352/343
f 352/353/344 298/354/342 351/355/345
f 352/353/344 302/356/346 300/357/347
f 354/358/348 302/356/346 353/359/349
f 355/360/350 304/361/351 354/358/348
f 355/360/350 308/362/352 306/363/353
f 357/364/354 308/362/352 356/365/355
f 357/364/354 312/366/356 310/367/357
f 358/368/358 314/369/359 312/366/356
f 360/370/360 314/369/359 359/371/361
f 360/370/360 320/333/324 318/372/362
f 323/313/363 317/373/364 283/374/365
f 285/375/366 323/313/363 283/374/365
f 287/376/367 324/314/368 285/375/366
f 326/316/369 287/376/367 289/377/370
f 327/317/371 289/377/370 291/378/372
f 328/318/373 291/378/372 293/379/374
f 329/319/375 293/379/374 295/380/376
f 297/381/377 329/319/375 295/380/376
f 299/382/378 330/320/379 297/381/377
f 301/383/380 331/323/381 299/384/378
f 303/385/382 332/322/383 301/383/380
f 334/325/384 303/385/382 305/386/385
f 307/387/386 334/325/384 305/386/385
f 309/388/387 335/326/388 307/387/386
f 311/389/389 336/327/390 309/388/387
f 313/390/391 337/328/392 311/389/389
f 339/330/393 313/390/391 315/391/394
f 340/331/395 315/391/394 319/392/396
f 321/393/397 322/311/398 341/312/399
f 341/312/399 319/392/396 321/393/397
f 284/340/331 283/374/365 282/335/326
f 286/339/330 285/375/366 284/340/331
f 288/344/335 287/376/367 286/339/330
f 290/343/334 289/377/370 288/344/335
f 292/348/339 291/378/372 290/343/334
f 295/380/376 292/348/339 294/347/338
f 297/381/377 294/347/338 296/352/343
f 299/382/378 296/352/343 298/351/342
f 301/383/380 298/354/342 300/357/347
f 303/385/382 300/357/347 302/356/346
f 304/361/351 303/385/382 302/356/346
f 307/387/386 304/361/351 306/363/353
f 309/388/387 306/363/353 308/362/352
f 311/389/389 308/362/352 310/367/357
f 313/390/391 310/367/357 312/366/356
f 315/391/394 312/366/356 314/369/359
f 317/373/364 282/335/326 283/374/365
f 318/372/362 315/391/394 314/369/359
f 320/333/324 319/392/396 318/372/362
f 321/393/397 316/336/327 317/373/364
s 7
f 400/394/222 382/395/222 402/396/222
f 382/395/222 383/397/222 402/396/222
f 383/397/222 384/398/222 402/396/222
f 384/398/222 385/399/222 402/396/222
f 385/399/222 386/400/222 402/396/222
f 386/400/222 387/401/222 402/396/222
f 387/401/222 388/402/222 402/396/222
f 388/402/222 389/403/222 402/396/222
f 389/403/222 390/404/222 402/396/222
f 390/404/222 391/405/222 402/396/222
f 391/405/222 392/406/222 402/396/222
f 392/406/222 393/407/222 402/396/222
f 393/407/222 394/408/222 402/396/222
f 394/408/222 395/409/222 402/396/222
f 395/409/222 396/410/222 402/396/222
f 396/410/222 397/411/222 402/396/222
f 397/411/222 398/412/222 402/396/222
f 398/412/222 399/413/222 402/396/222
f 399/413/222 401/414/222 402/396/222
f 401/414/222 400/394/222 402/396/222
s 6
f 321/393/397 320/333/324 316/336/327
f 320/333/324 321/393/397 319/392/396
f 318/372/362 319/392/396 315/391/394
f 317/373/364 316/336/327 282/335/326
f 315/391/394 313/390/391 312/366/356
f 313/390/391 311/389/389 310/367/357
f 311/389/389 309/388/387 308/362/352
f 309/388/387 307/387/386 306/363/353
f 307/387/386 305/386/385 304/361/351
f 304/361/351 305/386/385 303/385/382
f 303/385/382 301/383/380 300/357/347
f 301/383/380 299/384/378 298/354/342
f 299/382/378 297/381/377 296/352/343
f 297/381/377 295/380/376 294/347/338
f 295/380/376 293/379/374 292/348/339
f 292/348/339 293/379/374 291/378/372
f 290/343/334 291/378/372 289/377/370
f 288/344/335 289/377/370 287/376/367
f 286/339/330 287/376/367 285/375/366
f 284/340/331 285/375/366 283/374/365
f 341/312/399 340/331/395 319/392/396
f 321/393/397 317/373/364 322/311/398
f 340/331/395 339/330/393 315/391/394
f 339/330/393 338/329/400 313/390/391
f 313/390/391 338/329/400 337/328/392
f 311/389/389 337/328/392 336/327/390
f 309/388/387 336/327/390 335/326/388
f 307/387/386 335/326/388 334/325/384
f 334/325/384 333/324/401 303/385/382
f 303/385/382 333/324/401 332/322/383
f 301/383/380 332/322/383 331/323/381
f 299/382/378 331/321/381 330/320/379
f 297/381/377 330/320/379 329/319/375
f 329/319/375 328/318/373 293/379/374
f 328/318/373 327/317/371 291/378/372
f 327/317/371 326/316/369 289/377/370
f 326/316/369 325/315/402 287/376/367
f 287/376/367 325/315/402 324/314/368
f 285/375/366 324/314/368 323/313/363
f 323/313/363 322/311/398 317/373/364
f 360/370/360 361/334/325 320/333/324
f 360/370/360 318/372/362 314/369/359
f 358/368/358 359/371/361 314/369/359
f 357/364/354 358/368/358 312/366/356
f 357/364/354 310/367/357 308/362/352
f 355/360/350 356/365/355 308/362/352
f 355/360/350 306/363/353 304/361/351
f 354/358/348 304/361/351 302/356/346
f 352/353/344 353/359/349 302/356/346
f 352/353/344 300/357/347 298/354/342
f 350/349/340 351/415/345 298/351/342
f 350/349/340 296/352/343 294/347/338
f 348/345/336 349/350/341 294/347/338
f 348/345/336 292/348/339 290/343/334
f 346/341/332 347/346/337 290/343/334
f 346/341/332 288/344/335 286/339/330
f 344/337/328 345/342/333 286/339/330
f 344/337/328 284/340/331 282/335/326
f 342/332/323 343/338/329 282/335/326
f 342/332/323 316/336/327 320/333/324
s 5
f 341/312/304 281/303/304 280/301/322
f 340/331/322 280/301/322 279/300/321
f 339/330/321 279/300/321 278/299/320
f 338/329/320 278/299/320 277/297/319
f 337/328/319 277/297/319 276/294/318
f 336/327/318 276/294/318 275/293/317
f 335/326/317 275/293/317 274/292/316
f 334/325/316 274/292/316 273/290/315
f 333/324/315 273/290/315 272/288/314
f 332/322/314 272/288/314 271/287/313
f 331/321/313 271/284/313 270/282/312
f 330/320/312 270/282/312 269/281/311
f 329/319/311 269/281/311 268/280/310
f 328/318/310 268/280/310 267/278/309
f 327/317/309 267/278/309 266/275/308
f 326/316/308 266/275/308 265/274/307
f 325/315/307 265/274/307 264/273/306
f 324/314/306 264/273/306 263/271/305
f 323/313/305 263/271/305 262/270/303
f 322/311/303 262/270/303 281/303/304
s 4
f 261/306/299 260/248/223 256/268/262
f 260/248/223 261/306/299 259/305/298
f 258/250/227 259/305/298 223/269/263
f 257/304/297 256/268/262 254/267/258
f 254/267/258 252/265/256 253/298/291
f 253/298/291 252/265/256 250/266/257
f 251/296/289 250/266/257 248/263/252
f 248/263/252 246/264/253 247/295/288
f 246/264/253 244/262/250 245/291/284
f 245/291/284 244/262/250 242/261/246
f 242/261/246 240/259/244 241/286/280
f 240/259/244 238/260/242 239/309/301
f 238/257/242 236/258/243 237/285/279
f 236/258/243 234/256/238 235/283/277
f 234/256/238 232/255/236 233/279/273
f 233/279/273 232/255/236 230/253/234
f 231/277/271 230/253/234 228/254/235
f 229/307/300 228/254/235 226/252/232
f 227/276/270 226/252/232 224/251/228
f 225/272/266 224/251/228 222/249/226
f 281/303/296 262/270/264 259/305/298
f 281/303/296 261/306/299 257/304/297
f 280/301/294 257/304/297 255/302/295
f 279/300/293 255/302/295 253/298/291
f 253/298/291 251/296/289 277/297/290
f 251/296/289 249/310/302 276/294/287
f 276/294/287 249/310/302 247/295/288
f 275/293/286 247/295/288 245/291/284
f 245/291/284 243/289/282 273/290/283
f 243/289/282 241/286/280 272/288/281
f 241/286/280 239/309/301 271/287/278
f 271/284/278 239/308/301 237/285/279
f 270/282/276 237/285/279 235/283/277
f 269/281/275 235/283/277 233/279/273
f 233/279/273 231/277/271 267/278/272
f 231/277/271 229/307/300 266/275/269
f 266/275/269 229/307/300 227/276/270
f 265/274/268 227/276/270 225/272/266
f 225/272/266 223/269/263 263/271/265
f 223/269/263 259/305/298 262/270/264
f 256/268/262 260/248/223 381/227/225
f 254/267/258 256/268/262 380/247/260
f 254/267/258 379/246/261 378/244/259
f 252/265/256 378/244/259 377/245/254
f 248/263/252 250/266/257 377/245/254
f 248/263/252 376/242/255 375/243/251
f 244/262/250 246/264/253 375/243/251
f 242/261/246 244/262/250 374/240/248
f 242/261/246 373/241/249 372/238/247
f 240/259/244 372/238/247 371/239/245
f 238/257/242 371/416/245 370/235/240
f 234/256/238 236/258/243 370/235/240
f 234/256/238 369/236/241 368/234/239
f 232/255/236 368/234/239 367/232/237
f 230/253/234 367/232/237 366/233/233
f 226/252/232 228/254/235 366/233/233
f 224/251/228 226/252/232 365/231/230
f 224/251/228 364/230/231 363/228/229
f 222/249/226 363/228/229 362/229/224
f 260/248/223 258/250/227 362/229/224
s 3
f 381/227/222 221/208/203 220/225/220
f 379/246/222 380/247/222 220/225/220
f 378/244/222 379/246/222 219/226/221
f 378/244/222 218/224/219 217/223/218
f 376/242/222 377/245/222 217/223/218
f 376/242/222 216/222/217 215/221/216
f 374/240/222 375/243/222 215/221/216
f 374/240/222 214/219/214 213/220/215
f 372/238/222 373/241/222 213/220/215
f 372/238/222 212/218/213 211/217/212
f 370/235/222 371/416/222 211/237/212
f 370/235/222 210/216/211 209/215/210
f 368/234/222 369/236/222 209/215/210
f 367/232/222 368/234/222 208/214/209
f 367/232/222 207/213/208 206/212/207
f 365/231/222 366/233/222 206/212/207
f 364/230/222 365/231/222 205/210/205
f 364/230/222 204/211/206 203/209/204
f 363/228/222 203/209/204 202/207/202
f 381/227/222 362/229/222 202/207/202
f 221/208/203 201/166/162 200/204/199
f 220/225/220 200/204/199 199/202/197
f 218/224/219 219/226/221 199/202/197
f 217/223/218 218/224/219 198/200/195
f 216/222/217 217/223/218 197/198/193
f 215/221/216 216/222/217 196/196/191
f 214/219/214 215/221/216 195/194/189
f 214/219/214 194/195/190 193/192/187
f 212/218/213 213/220/215 193/192/187
f 211/217/212 212/218/213 192/187/183
f 210/216/211 211/237/212 191/185/181
f 209/215/210 210/216/211 190/183/179
f 208/214/209 209/215/210 189/184/180
f 208/214/209 188/181/177 187/177/173
f 207/213/208 187/177/173 186/178/174
f 206/212/207 186/178/174 185/175/171
f 205/210/205 185/175/171 184/173/169
f 203/209/204 204/211/206 184/173/169
f 203/209/204 183/171/167 182/169/165
f 202/207/202 182/169/165 201/166/162
f 200/204/199 201/166/162 181/168/164
f 200/204/199 180/206/201 179/205/200
f 199/202/197 179/205/200 178/203/198
f 198/200/195 178/203/198 177/201/196
f 197/198/193 177/201/196 176/199/194
f 196/196/191 176/199/194 175/197/192
f 195/194/189 175/197/192 174/193/188
f 193/192/187 194/195/190 174/193/188
f 192/187/183 193/192/187 173/190/185
f 192/187/183 172/191/186 171/188/184
f 191/185/181 171/417/184 170/186/182
f 190/183/179 170/186/182 169/182/178
f 188/181/177 189/184/180 169/182/178
f 187/177/173 188/181/177 168/179/175
f 187/177/173 167/180/176 166/176/172
f 185/175/171 186/178/174 166/176/172
f 184/173/169 185/175/171 165/174/170
f 183/171/167 184/173/169 164/172/168
f 182/169/165 183/171/167 163/170/166
f 201/166/162 182/169/165 162/167/163
