# Blender 5.0.1
# www.blender.org
mtllib pistonIzquierdoExpresoHowarts.mtl
g polySurface29_Mesh
v 2.387482 -0.217544 -1.280817
v 2.387482 -0.168105 -1.354807
v 2.387482 -0.094113 -1.404245
v 2.387482 -0.006834 -1.421607
v 2.387482 0.080444 -1.404245
v 2.387482 0.154436 -1.354807
v 2.387482 0.203875 -1.280817
v 2.387482 0.221236 -1.193537
v 2.387482 0.203875 -1.106256
v 2.387482 0.154436 -1.032266
v 2.387482 0.080444 -0.982829
v 2.387482 -0.006834 -0.965466
v 2.387482 -0.094113 -0.982829
v 2.387482 -0.168105 -1.032266
v 2.387482 -0.217544 -1.106256
v 2.387482 -0.234905 -1.193537
v 2.424037 -0.217544 -1.280817
v 2.444872 -0.201024 -1.273975
v 2.453503 -0.161142 -1.257455
v 2.424037 -0.168105 -1.354807
v 2.444872 -0.155461 -1.342161
v 2.453503 -0.124937 -1.311637
v 2.424037 -0.094113 -1.404245
v 2.444872 -0.087271 -1.387725
v 2.453503 -0.070750 -1.347843
v 2.424037 -0.006834 -1.421607
v 2.444872 -0.006834 -1.403727
v 2.453503 -0.006834 -1.360556
v 2.424037 0.080444 -1.404245
v 2.444872 0.073601 -1.387725
v 2.453503 0.057081 -1.347843
v 2.424037 0.154436 -1.354807
v 2.444872 0.141792 -1.342161
v 2.453503 0.111268 -1.311637
v 2.424037 0.203875 -1.280817
v 2.444872 0.187355 -1.273975
v 2.453503 0.147473 -1.257455
v 2.424037 0.221236 -1.193537
v 2.444872 0.203355 -1.193537
v 2.453503 0.160186 -1.193537
v 2.424037 0.203875 -1.106256
v 2.444872 0.187355 -1.113098
v 2.453503 0.147473 -1.129618
v 2.424037 0.154436 -1.032266
v 2.444872 0.141792 -1.044910
v 2.453503 0.111268 -1.075436
v 2.424037 0.080444 -0.982829
v 2.444872 0.073601 -0.999348
v 2.453503 0.057082 -1.039230
v 2.424037 -0.006834 -0.965466
v 2.444872 -0.006834 -0.983346
v 2.453503 -0.006834 -1.026514
v 2.424037 -0.094113 -0.982829
v 2.444872 -0.087270 -0.999348
v 2.453503 -0.070750 -1.039230
v 2.424037 -0.168105 -1.032266
v 2.444872 -0.155461 -1.044910
v 2.453503 -0.124936 -1.075436
v 2.424037 -0.217544 -1.106256
v 2.444872 -0.201024 -1.113098
v 2.453503 -0.161142 -1.129618
v 2.424037 -0.234905 -1.193537
v 2.444872 -0.217024 -1.193537
v 2.453503 -0.173856 -1.193537
v 2.432149 -0.100801 -1.287499
v 2.432149 -0.129607 -1.244391
v 2.432149 -0.057689 -1.316306
v 2.432149 -0.006834 -1.326424
v 2.432149 0.044019 -1.316306
v 2.432149 0.087132 -1.287499
v 2.432149 0.115938 -1.244391
v 2.432149 0.126053 -1.193537
v 2.432149 0.115938 -1.142678
v 2.432149 0.087132 -1.099571
v 2.432149 0.044020 -1.070763
v 2.432149 -0.006834 -1.060646
v 2.432149 -0.057689 -1.070763
v 2.432149 -0.100801 -1.099571
v 2.432149 -0.129607 -1.142678
v 2.432149 -0.139723 -1.193537
v 2.455022 -0.080611 -1.267308
v 2.455022 -0.103228 -1.233463
v 2.455022 -0.006835 -1.193537
v 2.455022 -0.046762 -1.289927
v 2.455022 -0.006835 -1.297870
v 2.455022 0.033092 -1.289927
v 2.455022 0.066941 -1.267308
v 2.455022 0.089558 -1.233463
v 2.455022 0.097499 -1.193537
v 2.455022 0.089558 -1.153606
v 2.455022 0.066941 -1.119761
v 2.455022 0.033093 -1.097142
v 2.455022 -0.006835 -1.089199
v 2.455022 -0.046762 -1.097142
v 2.455022 -0.080611 -1.119761
v 2.455022 -0.103228 -1.153606
v 2.455022 -0.111170 -1.193537
v 2.251083 -0.507893 -0.609038
v 2.263511 -0.515640 -0.609038
v 2.263511 -0.507893 -0.601288
v 2.388508 -0.507893 -0.601288
v 2.388508 -0.515640 -0.609038
v 2.400936 -0.507893 -0.609038
v 2.263511 0.487673 -0.601288
v 2.263511 0.495421 -0.609038
v 2.251083 0.487673 -0.609038
v 2.400936 0.487673 -0.609038
v 2.388508 0.495421 -0.609038
v 2.388508 0.487673 -0.601288
v 2.251083 0.487673 -1.764889
v 2.263511 0.495421 -1.764889
v 2.263511 0.487673 -1.772637
v 2.388508 0.487673 -1.772637
v 2.388508 0.495421 -1.764889
v 2.400936 0.487673 -1.764889
v 2.263511 -0.507893 -1.772637
v 2.263511 -0.515641 -1.764889
v 2.251083 -0.507893 -1.764889
v 2.400936 -0.507893 -1.764889
v 2.388508 -0.515641 -1.764889
v 2.388508 -0.507893 -1.772637
v 2.251083 0.373972 -1.765117
v 2.263628 0.375644 -1.772637
v 2.263628 0.366404 -1.766560
v 2.388391 0.366404 -1.766560
v 2.388275 0.375706 -1.772637
v 2.400936 0.373972 -1.765117
v 2.400936 0.373972 -0.608812
v 2.388391 0.375644 -0.601288
v 2.388391 0.366404 -0.607367
v 2.263628 0.366404 -0.607367
v 2.263744 0.375706 -0.601288
v 2.251083 0.373972 -0.608812
v 2.251083 -0.394047 -0.608801
v 2.263633 -0.395811 -0.601288
v 2.263633 -0.386490 -0.607250
v 2.388386 -0.386490 -0.607250
v 2.388265 -0.395875 -0.601288
v 2.400936 -0.394047 -0.608801
v 2.400936 -0.394047 -1.765126
v 2.388386 -0.395811 -1.772637
v 2.388386 -0.386490 -1.766677
v 2.263633 -0.386490 -1.766677
v 2.263755 -0.395875 -1.772637
v 2.251083 -0.394047 -1.765126
v 2.388508 0.053082 -0.822543
v 2.400936 0.048996 -0.829320
v 2.388508 -0.007438 -0.801275
v 2.400936 -0.006834 -0.809699
v 2.400936 -0.059298 -0.837075
v 2.388508 -0.064308 -0.830951
v 2.263511 -0.007438 -0.801275
v 2.251083 -0.006834 -0.809699
v 2.263511 -0.064308 -0.830951
v 2.251083 -0.059298 -0.837075
v 2.251083 0.048996 -0.829320
v 2.263511 0.053082 -0.822543
v 2.400936 0.048996 -1.544614
v 2.388508 0.053082 -1.551388
v 2.400936 -0.006834 -1.564240
v 2.388508 -0.007438 -1.572662
v 2.388508 -0.064308 -1.542985
v 2.400936 -0.059297 -1.536862
v 2.263511 0.053082 -1.551388
v 2.251083 0.048996 -1.544614
v 2.263511 -0.007438 -1.572662
v 2.251083 -0.006834 -1.564240
v 2.251083 -0.059297 -1.536862
v 2.263511 -0.064308 -1.542985
v 2.388508 0.116286 -0.881111
v 2.400936 0.112918 -0.888555
v 2.251083 0.112918 -0.888555
v 2.263511 0.116286 -0.881111
v 2.400936 0.112918 -1.485379
v 2.388508 0.116286 -1.492818
v 2.263511 0.116286 -1.492818
v 2.251083 0.112918 -1.485379
v 2.400936 -0.133948 -0.929313
v 2.388508 -0.136504 -0.920155
v 2.263511 -0.136504 -0.920155
v 2.251083 -0.133948 -0.929313
v 2.388508 -0.136504 -1.453771
v 2.400936 -0.133948 -1.444613
v 2.251083 -0.133948 -1.444613
v 2.263511 -0.136504 -1.453771
v 2.263511 0.228345 -1.504204
v 2.251083 0.232469 -1.497174
v 2.251083 0.157170 -1.480818
v 2.263511 0.156734 -1.488651
v 2.388508 0.156734 -1.488651
v 2.400936 0.157170 -1.480818
v 2.388508 0.228345 -1.504204
v 2.400936 0.232469 -1.497174
v 2.263511 0.276880 -1.559109
v 2.251083 0.283504 -1.554906
v 2.400936 0.283504 -1.554906
v 2.388508 0.276880 -1.559109
v 2.400936 0.157170 -0.893112
v 2.388508 0.156734 -0.885279
v 2.400936 0.232469 -0.876756
v 2.388508 0.228345 -0.869723
v 2.388508 0.276880 -0.814818
v 2.400936 0.283504 -0.819026
v 2.263511 -0.251712 -0.862431
v 2.251083 -0.257051 -0.868253
v 2.251083 -0.188735 -0.909564
v 2.263511 -0.185384 -0.902537
v 2.388508 -0.185384 -0.902537
v 2.400936 -0.188735 -0.909564
v 2.388508 -0.251712 -0.862431
v 2.400936 -0.257051 -0.868253
v 2.263511 -0.297443 -0.799840
v 2.251083 -0.304152 -0.803790
v 2.400936 -0.304152 -0.803790
v 2.388508 -0.297443 -0.799840
v 2.400936 -0.188735 -1.464365
v 2.388508 -0.185384 -1.471393
v 2.400936 -0.257051 -1.505679
v 2.388508 -0.251712 -1.511505
v 2.388508 -0.297443 -1.574088
v 2.400936 -0.304153 -1.570138
v 2.263511 0.156734 -0.885279
v 2.251083 0.157170 -0.893112
v 2.263511 0.228345 -0.869723
v 2.251083 0.232469 -0.876756
v 2.251083 0.283504 -0.819026
v 2.263511 0.276880 -0.814818
v 2.263511 -0.185384 -1.471393
v 2.251083 -0.188735 -1.464365
v 2.263511 -0.251712 -1.511505
v 2.251083 -0.257051 -1.505679
v 2.251083 -0.304153 -1.570138
v 2.263511 -0.297443 -1.574088
v 2.386914 0.017694 -0.856875
v 2.375640 0.039822 -0.856875
v 2.358079 0.057383 -0.856875
v 2.335951 0.068657 -0.856875
v 2.311423 0.072542 -0.856875
v 2.286894 0.068657 -0.856875
v 2.264767 0.057383 -0.856875
v 2.247206 0.039822 -0.856875
v 2.235932 0.017694 -0.856875
v 2.232047 -0.006834 -0.856875
v 2.235932 -0.031363 -0.856875
v 2.247206 -0.053490 -0.856875
v 2.264767 -0.071051 -0.856875
v 2.286894 -0.082325 -0.856875
v 2.311423 -0.086210 -0.856875
v 2.335951 -0.082325 -0.856875
v 2.358079 -0.071051 -0.856875
v 2.375639 -0.053490 -0.856875
v 2.386914 -0.031363 -0.856875
v 2.390798 -0.006834 -0.856875
v 2.386914 0.017694 1.784698
v 2.375640 0.039822 1.784698
v 2.358079 0.057383 1.784698
v 2.335951 0.068657 1.784698
v 2.311423 0.072542 1.784698
v 2.286894 0.068657 1.784698
v 2.264767 0.057383 1.784698
v 2.247206 0.039822 1.784698
v 2.235932 0.017694 1.784698
v 2.232047 -0.006834 1.784698
v 2.235932 -0.031363 1.784698
v 2.247206 -0.053490 1.784698
v 2.264767 -0.071051 1.784698
v 2.286894 -0.082325 1.784698
v 2.311423 -0.086209 1.784698
v 2.335951 -0.082325 1.784698
v 2.358079 -0.071050 1.784698
v 2.375639 -0.053490 1.784698
v 2.386914 -0.031363 1.784698
v 2.390798 -0.006834 1.784698
v 2.386914 0.017694 -0.495526
v 2.386914 0.017694 -0.478512
v 2.375640 0.039822 -0.478512
v 2.375640 0.039822 -0.495526
v 2.358079 0.057383 -0.478512
v 2.358079 0.057383 -0.495526
v 2.335951 0.068657 -0.478512
v 2.335951 0.068657 -0.495526
v 2.311423 0.072542 -0.478512
v 2.311423 0.072542 -0.495526
v 2.286894 0.068657 -0.478512
v 2.286894 0.068657 -0.495526
v 2.264767 0.057383 -0.478512
v 2.264767 0.057383 -0.495526
v 2.247206 0.039822 -0.478512
v 2.247206 0.039822 -0.495526
v 2.235932 0.017694 -0.478512
v 2.235932 0.017694 -0.495526
v 2.232047 -0.006834 -0.478512
v 2.232047 -0.006834 -0.495526
v 2.235932 -0.031363 -0.478512
v 2.235932 -0.031363 -0.495526
v 2.247206 -0.053490 -0.478512
v 2.247206 -0.053490 -0.495526
v 2.264767 -0.071051 -0.478512
v 2.264767 -0.071051 -0.495526
v 2.286894 -0.082325 -0.478512
v 2.286894 -0.082325 -0.495526
v 2.311423 -0.086209 -0.478512
v 2.311423 -0.086209 -0.495526
v 2.335951 -0.082325 -0.478512
v 2.335951 -0.082325 -0.495526
v 2.358079 -0.071051 -0.478512
v 2.358079 -0.071051 -0.495526
v 2.375639 -0.053490 -0.478512
v 2.375639 -0.053490 -0.495526
v 2.386914 -0.031363 -0.478512
v 2.386914 -0.031363 -0.495526
v 2.390798 -0.006834 -0.478512
v 2.390798 -0.006834 -0.495526
v 2.423202 0.029484 -0.504016
v 2.423202 0.029484 -0.496133
v 2.428954 -0.006834 -0.496133
v 2.428954 -0.006834 -0.504016
v 2.406508 0.062249 -0.504016
v 2.406508 0.062249 -0.496133
v 2.380506 0.088251 -0.504016
v 2.380506 0.088251 -0.496133
v 2.347741 0.104944 -0.504016
v 2.347741 0.104944 -0.496133
v 2.311423 0.110696 -0.504016
v 2.311423 0.110696 -0.496133
v 2.275104 0.104944 -0.504016
v 2.275104 0.104944 -0.496133
v 2.242340 0.088251 -0.504016
v 2.242340 0.088251 -0.496133
v 2.216338 0.062249 -0.504016
v 2.216338 0.062249 -0.496133
v 2.199644 0.029484 -0.504016
v 2.199644 0.029484 -0.496133
v 2.193892 -0.006834 -0.504016
v 2.193892 -0.006834 -0.496133
v 2.199644 -0.043153 -0.504016
v 2.199644 -0.043153 -0.496133
v 2.216338 -0.075917 -0.504016
v 2.216338 -0.075917 -0.496133
v 2.242340 -0.101919 -0.504016
v 2.242340 -0.101919 -0.496133
v 2.275104 -0.118613 -0.504016
v 2.275104 -0.118613 -0.496133
v 2.311423 -0.124365 -0.504016
v 2.311423 -0.124365 -0.496133
v 2.347741 -0.118613 -0.504016
v 2.347741 -0.118613 -0.496133
v 2.380506 -0.101919 -0.504016
v 2.380506 -0.101919 -0.496133
v 2.406507 -0.075917 -0.504016
v 2.406507 -0.075917 -0.496133
v 2.423201 -0.043153 -0.504016
v 2.423201 -0.043153 -0.496133
v 2.375640 0.039822 -0.798090
v 2.358079 0.057383 -0.798090
v 2.335951 0.068657 -0.798090
v 2.311423 0.072542 -0.798090
v 2.286894 0.068657 -0.798090
v 2.264767 0.057383 -0.798090
v 2.247206 0.039822 -0.798090
v 2.235932 0.017694 -0.798090
v 2.232047 -0.006834 -0.798090
v 2.235932 -0.031363 -0.798090
v 2.247206 -0.053490 -0.798090
v 2.264767 -0.071051 -0.798090
v 2.286894 -0.082325 -0.798090
v 2.311423 -0.086210 -0.798090
v 2.335951 -0.082325 -0.798090
v 2.358079 -0.071051 -0.798090
v 2.375639 -0.053490 -0.798090
v 2.386914 -0.031363 -0.798090
v 2.390798 -0.006834 -0.798090
v 2.386914 0.017694 -0.798090
v 2.386914 0.017694 -0.768334
v 2.390798 -0.006834 -0.768334
v 2.386914 -0.031363 -0.768334
v 2.375639 -0.053490 -0.768334
v 2.358079 -0.071051 -0.768334
v 2.335951 -0.082325 -0.768334
v 2.311423 -0.086210 -0.768334
v 2.286894 -0.082325 -0.768334
v 2.264767 -0.071051 -0.768334
v 2.247206 -0.053490 -0.768334
v 2.235932 -0.031363 -0.768334
v 2.232047 -0.006834 -0.768334
v 2.235932 0.017694 -0.768334
v 2.247206 0.039822 -0.768334
v 2.264767 0.057383 -0.768334
v 2.286894 0.068657 -0.768334
v 2.311423 0.072542 -0.768334
v 2.335951 0.068657 -0.768334
v 2.358079 0.057383 -0.768334
v 2.375640 0.039822 -0.768334
v 2.400692 0.022171 -0.798090
v 2.387360 0.048337 -0.798090
v 2.387360 0.048337 -0.768334
v 2.400692 0.022171 -0.768334
v 2.366594 0.069103 -0.798090
v 2.366594 0.069103 -0.768334
v 2.340428 0.082435 -0.798090
v 2.340428 0.082435 -0.768334
v 2.311423 0.087029 -0.798090
v 2.311423 0.087029 -0.768334
v 2.282418 0.082435 -0.798090
v 2.282418 0.082435 -0.768334
v 2.256251 0.069103 -0.798090
v 2.256251 0.069103 -0.768334
v 2.235486 0.048337 -0.798090
v 2.235486 0.048337 -0.768334
v 2.222154 0.022171 -0.798090
v 2.222154 0.022171 -0.768334
v 2.217560 -0.006834 -0.798090
v 2.217560 -0.006834 -0.768334
v 2.222154 -0.035839 -0.798090
v 2.222154 -0.035839 -0.768334
v 2.235486 -0.062006 -0.798090
v 2.235486 -0.062006 -0.768334
v 2.256251 -0.082771 -0.798090
v 2.256251 -0.082771 -0.768334
v 2.282418 -0.096103 -0.798090
v 2.282418 -0.096103 -0.768334
v 2.311423 -0.100697 -0.798090
v 2.311423 -0.100697 -0.768334
v 2.340428 -0.096103 -0.798090
v 2.340428 -0.096103 -0.768334
v 2.366594 -0.082771 -0.798090
v 2.366594 -0.082771 -0.768334
v 2.387360 -0.062006 -0.798090
v 2.387360 -0.062006 -0.768334
v 2.400692 -0.035839 -0.798090
v 2.400692 -0.035839 -0.768334
v 2.405286 -0.006834 -0.798090
v 2.405286 -0.006834 -0.768334
vn -0.0000 -0.7071 -0.7071
vn 0.2759 -0.8880 -0.3678
vn -0.0000 -0.9239 -0.3827
vn -0.0000 -0.3827 -0.9239
vn 0.3371 -0.6213 -0.7073
vn -0.0000 -0.0000 -1.0000
vn 0.3371 -0.3034 -0.8912
vn -0.0000 0.3827 -0.9239
vn 0.3371 0.0608 -0.9395
vn -0.0000 0.7071 -0.7071
vn 0.3371 0.4157 -0.8447
vn -0.0000 0.9239 -0.3827
vn 0.3371 0.7073 -0.6213
vn -0.0000 1.0000 -0.0000
vn 0.3371 0.8913 -0.3034
vn -0.0000 0.9239 0.3827
vn 0.3371 0.9395 0.0608
vn -0.0000 0.7071 0.7071
vn 0.3371 0.8447 0.4157
vn -0.0000 0.3827 0.9239
vn 0.3371 0.6213 0.7073
vn -0.0000 -0.0000 1.0000
vn 0.3371 0.3033 0.8913
vn -0.0000 -0.3827 0.9239
vn 0.3371 -0.0608 0.9395
vn -0.0000 -0.7071 0.7071
vn 0.3371 -0.4157 0.8447
vn -0.0000 -0.9239 0.3827
vn 0.3371 -0.7073 0.6214
vn -0.0000 -1.0000 -0.0000
vn 0.3371 -0.8912 0.3034
vn 0.3371 -0.9395 -0.0608
vn 1.0000 -0.0000 -0.0000
vn 0.6513 -0.7589 -0.0000
vn 0.9806 -0.1811 -0.0750
vn 0.9806 -0.1961 -0.0000
vn 0.9806 -0.1386 -0.1386
vn 0.6513 -0.5366 -0.5366
vn 0.6513 -0.7011 -0.2904
vn 0.9806 -0.0750 -0.1811
vn 0.6513 -0.2904 -0.7011
vn 0.9806 -0.0000 -0.1960
vn 0.6512 -0.0000 -0.7589
vn 0.9806 0.0750 -0.1811
vn 0.6513 0.2904 -0.7011
vn 0.9806 0.1386 -0.1386
vn 0.6513 0.5366 -0.5366
vn 0.9806 0.1811 -0.0750
vn 0.6512 0.7011 -0.2904
vn 0.9806 0.1961 -0.0000
vn 0.6513 0.7589 -0.0000
vn 0.9806 0.1811 0.0750
vn 0.6512 0.7011 0.2904
vn 0.9806 0.1386 0.1386
vn 0.6513 0.5366 0.5366
vn 0.9806 0.0750 0.1811
vn 0.6513 0.2904 0.7011
vn 0.9806 -0.0000 0.1961
vn 0.6512 -0.0000 0.7589
vn 0.9806 -0.0750 0.1811
vn 0.6513 -0.2904 0.7011
vn 0.9806 -0.1386 0.1386
vn 0.6513 -0.5366 0.5366
vn 0.9806 -0.1811 0.0750
vn 0.6513 -0.7011 0.2904
vn 0.8478 0.4900 0.2030
vn 0.8478 0.3750 0.3750
vn 0.8478 0.2030 0.4900
vn 0.8478 -0.0000 0.5304
vn 0.8478 -0.2030 0.4900
vn 0.8478 -0.3750 0.3750
vn 0.8478 -0.4900 0.2030
vn 0.8478 -0.5304 -0.0000
vn 0.8478 -0.4900 -0.2030
vn 0.8478 -0.3750 -0.3750
vn 0.8478 -0.2030 -0.4900
vn 0.8478 -0.0000 -0.5304
vn 0.8478 0.2030 -0.4900
vn 0.8478 0.3750 -0.3750
vn 0.8478 0.4900 -0.2030
vn 0.8478 0.5304 -0.0000
vn 0.7805 -0.4421 -0.4421
vn 0.7805 -0.5776 -0.2393
vn 0.7805 -0.2393 -0.5776
vn 0.7805 -0.0000 -0.6252
vn 0.7805 0.2393 -0.5776
vn 0.7805 0.4421 -0.4421
vn 0.7805 0.5776 -0.2393
vn 0.7805 0.6252 -0.0000
vn 0.7805 0.5776 0.2393
vn 0.7805 0.4421 0.4421
vn 0.7805 0.2393 0.5776
vn 0.7805 -0.0000 0.6252
vn 0.7805 -0.2393 0.5776
vn 0.7805 -0.4421 0.4421
vn 0.7805 -0.5776 0.2393
vn 0.7805 -0.6252 -0.0000
vn -0.5279 0.0004 0.8493
vn -0.5158 0.0126 0.8566
vn -0.5721 0.5649 0.5946
vn -0.5290 -0.8486 -0.0000
vn -0.0000 -0.7072 0.7070
vn 0.5276 0.0009 0.8495
vn 0.5129 0.0125 0.8583
vn 0.5291 0.0011 0.8485
vn 0.5290 -0.8486 -0.0000
vn -0.5276 -0.0009 0.8495
vn -0.5136 -0.0129 0.8579
vn -0.5291 -0.0011 0.8485
vn -0.0000 0.7072 0.7070
vn -0.5290 0.8486 -0.0000
vn 0.5279 -0.0004 0.8493
vn 0.5163 -0.0130 0.8563
vn 0.5741 -0.5850 0.5729
vn 0.5290 0.8486 -0.0000
vn -0.5278 -0.0004 -0.8494
vn -0.5161 -0.0130 -0.8564
vn -0.5739 -0.5851 -0.5730
vn 0.5275 -0.0009 -0.8495
vn 0.5135 -0.0129 -0.8580
vn 0.5290 -0.0011 -0.8486
vn -0.5275 0.0009 -0.8496
vn -0.5128 0.0125 -0.8584
vn -0.5290 0.0011 -0.8486
vn 0.5278 0.0004 -0.8494
vn 0.5157 0.0127 -0.8567
vn 0.5721 0.5649 -0.5946
vn -0.5167 -0.7839 -0.3444
vn -0.5304 -0.7495 -0.3962
vn 0.0003 -0.5493 -0.8356
vn -0.0000 -0.5470 -0.8371
vn -0.0000 -0.5469 -0.8372
vn 0.5167 -0.7838 -0.3445
vn 0.5304 -0.7494 -0.3962
vn 0.5307 -0.7496 -0.3956
vn 0.5168 -0.7838 0.3443
vn 0.5305 -0.7494 0.3962
vn -0.0003 -0.5495 0.8355
vn -0.0000 -0.5472 0.8370
vn -0.0000 -0.5471 0.8371
vn -0.5168 -0.7837 0.3445
vn -0.5305 -0.7494 0.3962
vn -0.5308 -0.7495 0.3956
vn -0.5161 0.7749 0.3649
vn -0.5284 0.7505 0.3970
vn 0.0003 0.5387 0.8425
vn -0.0000 0.5363 0.8440
vn -0.0000 0.5362 0.8441
vn 0.5161 0.7749 0.3650
vn 0.5284 0.7505 0.3970
vn 0.5287 0.7504 0.3967
vn 0.5162 0.7749 -0.3648
vn 0.5284 0.7505 -0.3970
vn -0.0003 0.5385 -0.8426
vn -0.0000 0.5362 -0.8441
vn -0.0000 0.5360 -0.8442
vn -0.5162 0.7748 -0.3650
vn -0.5284 0.7504 -0.3970
vn -0.5287 0.7504 -0.3967
vn 0.5368 0.4609 0.7067
vn 0.5469 0.4272 0.7200
vn 0.5368 0.4608 0.7067
vn 0.5290 0.2814 0.8006
vn 0.5290 -0.3926 0.7523
vn 0.5363 -0.5754 0.6175
vn 0.5290 -0.6596 0.5339
vn -0.5290 -0.3926 0.7523
vn -0.5363 -0.5754 0.6175
vn -0.5290 0.2814 0.8006
vn -0.5368 0.4608 0.7067
vn -0.5368 0.4609 0.7067
vn -0.5290 -0.6596 0.5339
vn -0.5469 0.4272 0.7200
vn -0.5468 0.4293 0.7188
vn 0.5367 0.4609 -0.7067
vn 0.5468 0.4272 -0.7201
vn 0.5467 0.4294 -0.7189
vn 0.5368 0.4609 -0.7067
vn 0.5289 0.2814 -0.8006
vn 0.5290 -0.3926 -0.7524
vn 0.5362 -0.5755 -0.6175
vn 0.5362 -0.5755 -0.6174
vn 0.5290 -0.6597 -0.5338
vn -0.5367 0.4609 -0.7067
vn -0.5468 0.4272 -0.7201
vn -0.5289 0.2814 -0.8006
vn -0.5290 -0.3926 -0.7524
vn -0.5362 -0.5755 -0.6175
vn -0.5290 -0.6597 -0.5338
vn 0.5334 -0.0839 0.8417
vn 0.5334 -0.0843 0.8417
vn -0.5334 -0.0839 0.8417
vn 0.5334 -0.0839 -0.8417
vn -0.5334 -0.0839 -0.8417
vn -0.5335 -0.0843 -0.8416
vn 0.5290 0.2878 0.7983
vn 0.5308 0.3780 0.7585
vn -0.5290 0.2878 0.7983
vn -0.5308 0.3779 0.7586
vn -0.5308 0.3780 0.7585
vn 0.5290 0.2878 -0.7983
vn 0.5308 0.3780 -0.7585
vn 0.5308 0.3781 -0.7585
vn -0.5290 0.2878 -0.7983
vn -0.5309 0.3780 -0.7585
vn -0.5484 -0.4230 -0.7213
vn -0.5307 -0.7496 -0.3956
vn 0.5484 -0.4230 -0.7213
vn 0.5485 -0.4230 0.7213
vn 0.5308 -0.7495 0.3956
vn -0.5365 0.5702 0.6222
vn -0.5288 0.7504 0.3967
vn -0.5364 0.5702 0.6222
vn 0.5365 0.5702 0.6222
vn 0.5364 0.5702 0.6222
vn 0.5366 0.5701 -0.6221
vn 0.5288 0.7503 -0.3967
vn -0.5485 -0.4230 0.7213
vn -0.5366 0.5701 -0.6221
vn -1.0000 -0.0000 -0.0000
vn -0.0000 0.5420 0.8404
vn -0.0000 0.6797 0.7335
vn -0.0000 0.5422 0.8403
vn -0.0000 0.6797 -0.7335
vn -0.0000 0.5420 -0.8404
vn -0.0000 -0.7773 0.6291
vn -0.0000 -0.6773 0.7357
vn -0.0000 -0.6773 -0.7357
vn -0.0000 -0.7773 -0.6291
vn -0.0000 -0.6775 -0.7355
vn -0.0000 0.3316 0.9434
vn -0.0000 -0.4626 0.8866
vn -0.0000 0.3316 -0.9434
vn -0.0000 0.5422 -0.8402
vn -0.0000 -0.4626 -0.8865
vn -0.0000 -0.2122 -0.9772
vn -0.0000 -0.1013 -0.9949
vn -0.0000 -0.1015 -0.9948
vn -0.0000 -0.8851 -0.4655
vn -0.0000 -0.7492 -0.6623
vn -0.0000 0.6756 0.7372
vn -0.0000 0.4480 0.8940
vn -0.0000 0.8843 0.4670
vn -0.0000 0.1025 -0.9947
vn -0.0000 -0.9182 -0.3962
vn -0.0000 -0.8847 -0.4662
vn -0.0000 0.3391 0.9408
vn -0.0000 0.9077 0.4197
vn -0.0000 0.8841 0.4672
vn -0.0000 -0.1015 0.9948
vn -0.0000 0.1025 0.9947
vn -0.0000 -0.9182 0.3962
vn -0.0000 -0.8847 0.4662
vn -0.0000 -0.8851 0.4655
vn -0.0000 0.4481 -0.8940
vn -0.0000 0.3392 -0.9407
vn -0.0000 0.9077 -0.4197
vn -0.0000 0.8841 -0.4672
vn -0.0000 0.8842 -0.4670
vn -0.0000 -0.2123 0.9772
vn -0.0000 -0.1013 0.9949
vn -0.0000 -0.7492 0.6623
vn -0.0000 0.6756 -0.7372
vn -0.0000 0.4480 -0.8940
vn -0.4034 -0.6471 0.6469
vn 0.4034 -0.6471 0.6469
vn -0.4034 0.6471 0.6469
vn 0.4034 0.6471 0.6469
vn -0.4034 0.6471 -0.6470
vn 0.4034 0.6471 -0.6470
vn -0.4034 -0.6470 -0.6470
vn 0.4034 -0.6470 -0.6470
vn 0.5727 -0.5850 -0.5742
vn -0.5728 -0.5850 0.5741
vn 0.5707 0.5649 0.5960
vn -0.5707 0.5649 -0.5960
vn 0.9511 0.3090 -0.0000
vn 0.8090 0.5878 -0.0000
vn 0.5878 0.8090 -0.0000
vn 0.3090 0.9511 -0.0000
vn -0.3090 0.9511 -0.0000
vn -0.5878 0.8090 -0.0000
vn -0.8090 0.5878 -0.0000
vn -0.9511 0.3090 -0.0000
vn -0.9511 -0.3090 -0.0000
vn -0.8090 -0.5878 -0.0000
vn -0.5878 -0.8090 -0.0000
vn -0.3090 -0.9511 -0.0000
vn 0.3090 -0.9511 -0.0000
vn 0.5878 -0.8090 -0.0000
vn 0.8090 -0.5878 -0.0000
vn 0.9511 -0.3090 -0.0000
vn 0.3988 0.1296 0.9079
vn 0.4193 -0.0000 0.9079
vn -0.2066 -0.0671 -0.9761
vn -0.2172 -0.0000 -0.9761
vn -0.1757 -0.1277 -0.9761
vn 0.3392 0.2464 0.9079
vn -0.1277 -0.1757 -0.9761
vn 0.2464 0.3392 0.9079
vn -0.0671 -0.2066 -0.9761
vn 0.1296 0.3988 0.9079
vn -0.0000 -0.2172 -0.9761
vn -0.0000 0.4193 0.9079
vn 0.0671 -0.2066 -0.9761
vn -0.1296 0.3988 0.9079
vn 0.1277 -0.1757 -0.9761
vn -0.2464 0.3392 0.9079
vn 0.1757 -0.1277 -0.9761
vn -0.3392 0.2464 0.9079
vn 0.2066 -0.0671 -0.9761
vn -0.3988 0.1296 0.9079
vn 0.2172 -0.0000 -0.9761
vn -0.4193 -0.0000 0.9079
vn 0.2066 0.0671 -0.9761
vn -0.3987 -0.1296 0.9079
vn -0.3988 -0.1296 0.9079
vn 0.1757 0.1277 -0.9761
vn -0.3392 -0.2464 0.9079
vn 0.1277 0.1757 -0.9761
vn -0.2464 -0.3392 0.9079
vn 0.0671 0.2066 -0.9761
vn -0.1296 -0.3988 0.9079
vn -0.0000 0.2172 -0.9761
vn -0.0000 -0.4193 0.9079
vn -0.0671 0.2066 -0.9761
vn 0.1296 -0.3988 0.9079
vn -0.1277 0.1757 -0.9761
vn 0.2464 -0.3392 0.9079
vn -0.1757 0.1277 -0.9761
vn 0.3392 -0.2464 0.9079
vn -0.2066 0.0671 -0.9761
vn 0.3988 -0.1296 0.9079
vn -0.5291 0.0006 0.8485
vn 0.5291 -0.0006 0.8485
vn -0.5290 -0.0006 -0.8486
vn 0.5290 0.0006 -0.8486
vn 0.0003 -0.5495 -0.8355
vn -0.0003 -0.5496 0.8354
vn 0.0003 0.5388 0.8424
vn -0.0003 0.5386 -0.8425
vn 0.5468 0.4293 0.7188
vn -0.5467 0.4294 -0.7189
vn -0.5334 -0.0843 0.8417
vn 0.5335 -0.0843 -0.8416
vn 0.5308 0.3781 0.7585
vn -0.5309 0.3781 -0.7584
vn -0.0000 -0.6775 0.7355
vt 0.357781 0.476054
vt 0.358294 0.477092
vt 0.357781 0.477092
vt 0.357781 0.475360
vt 0.358294 0.476054
vt 0.489658 0.005291
vt 0.490116 0.006385
vt 0.489658 0.006385
vt 0.489658 0.004197
vt 0.490116 0.005291
vt 0.355828 0.480485
vt 0.356341 0.481179
vt 0.355828 0.481179
vt 0.355828 0.479446
vt 0.356341 0.480485
vt 0.355828 0.478221
vt 0.356341 0.479446
vt 0.355828 0.476996
vt 0.356341 0.478221
vt 0.355828 0.475957
vt 0.356341 0.476996
vt 0.355828 0.475263
vt 0.356341 0.475957
vt 0.359735 0.004628
vt 0.360193 0.005721
vt 0.359735 0.005721
vt 0.359735 0.003534
vt 0.360193 0.004628
vt 0.357781 0.480581
vt 0.358294 0.481274
vt 0.357781 0.481274
vt 0.357781 0.479542
vt 0.358294 0.480581
vt 0.357781 0.478317
vt 0.358294 0.479542
vt 0.358294 0.478317
vt 0.097758 0.478432
vt 0.098063 0.477975
vt 0.099059 0.478970
vt 0.098520 0.477670
vt 0.099059 0.477563
vt 0.099597 0.477670
vt 0.100054 0.477975
vt 0.100359 0.478432
vt 0.100466 0.478970
vt 0.100359 0.479509
vt 0.100054 0.479965
vt 0.099597 0.480270
vt 0.099059 0.480378
vt 0.098520 0.480270
vt 0.098063 0.479965
vt 0.097758 0.479509
vt 0.097651 0.478970
vt 0.096216 0.477793
vt 0.096223 0.478970
vt 0.095982 0.478970
vt 0.096977 0.478108
vt 0.096439 0.477885
vt 0.097054 0.476965
vt 0.097466 0.477377
vt 0.097974 0.476351
vt 0.098197 0.476889
vt 0.096883 0.476795
vt 0.099059 0.476135
vt 0.099059 0.476717
vt 0.097881 0.476128
vt 0.099921 0.476889
vt 0.100236 0.476128
vt 0.100144 0.476351
vt 0.100652 0.477377
vt 0.101234 0.476795
vt 0.101064 0.476965
vt 0.101140 0.478108
vt 0.101901 0.477793
vt 0.101678 0.477885
vt 0.101894 0.478970
vt 0.101312 0.478970
vt 0.101140 0.479832
vt 0.101901 0.480147
vt 0.101678 0.480055
vt 0.101064 0.480975
vt 0.100652 0.480563
vt 0.101234 0.481146
vt 0.099921 0.481052
vt 0.100236 0.481812
vt 0.100144 0.481590
vt 0.099059 0.481223
vt 0.099059 0.481805
vt 0.097974 0.481590
vt 0.098197 0.481052
vt 0.097881 0.481812
vt 0.097466 0.480563
vt 0.097054 0.480975
vt 0.096977 0.479832
vt 0.096883 0.481146
vt 0.096439 0.480055
vt 0.096806 0.478970
vt 0.096216 0.480147
vt 0.097791 0.477703
vt 0.097403 0.478284
vt 0.098373 0.477314
vt 0.099059 0.477178
vt 0.099745 0.477314
vt 0.100326 0.477703
vt 0.100715 0.478284
vt 0.100851 0.478970
vt 0.100715 0.479656
vt 0.100326 0.480238
vt 0.099059 0.480763
vt 0.099745 0.480626
vt 0.097791 0.480238
vt 0.098373 0.480626
vt 0.097403 0.479656
vt 0.097266 0.478970
vt 0.194744 0.402281
vt 0.196174 0.402182
vt 0.196197 0.402278
vt 0.194645 0.417030
vt 0.194645 0.402281
vt 0.101999 0.413969
vt 0.103566 0.414066
vt 0.101999 0.414066
vt 0.168369 0.417029
vt 0.169799 0.417128
vt 0.168369 0.417128
vt 0.168270 0.417029
vt 0.168369 0.402277
vt 0.207448 0.402281
vt 0.206019 0.402182
vt 0.207448 0.402182
vt 0.220200 0.392528
vt 0.221767 0.392625
vt 0.220200 0.392625
vt 0.207547 0.402281
vt 0.207448 0.417030
vt 0.181075 0.417029
vt 0.179645 0.417128
vt 0.179624 0.417032
vt 0.181174 0.402277
vt 0.181174 0.417029
vt 0.206018 0.417128
vt 0.205997 0.417032
vt 0.220200 0.407116
vt 0.221767 0.407213
vt 0.220200 0.407213
vt 0.181075 0.402277
vt 0.179646 0.402178
vt 0.181075 0.402178
vt 0.194744 0.417030
vt 0.196174 0.417128
vt 0.194744 0.417128
vt 0.101999 0.399382
vt 0.103566 0.399479
vt 0.101999 0.399479
vt 0.169799 0.402178
vt 0.169822 0.402274
vt 0.205900 0.417051
vt 0.204843 0.414350
vt 0.426330 0.476843
vt 0.428005 0.476762
vt 0.428007 0.476843
vt 0.179527 0.402256
vt 0.178469 0.404957
vt 0.178385 0.404904
vt 0.179527 0.417050
vt 0.178469 0.414349
vt 0.384048 0.481153
vt 0.382373 0.481234
vt 0.382371 0.481153
vt 0.205900 0.402259
vt 0.204843 0.404960
vt 0.204758 0.404906
vt 0.196293 0.402258
vt 0.197344 0.404766
vt 0.368529 0.476978
vt 0.370274 0.476894
vt 0.370275 0.476978
vt 0.169918 0.417052
vt 0.170969 0.414544
vt 0.171055 0.414594
vt 0.169918 0.402254
vt 0.170969 0.404763
vt 0.313617 0.481754
vt 0.311872 0.481837
vt 0.311871 0.481754
vt 0.196293 0.417052
vt 0.197344 0.414544
vt 0.197430 0.414595
vt 0.175476 0.414218
vt 0.176335 0.413557
vt 0.175528 0.414304
vt 0.174764 0.414468
vt 0.174030 0.414197
vt 0.174094 0.414119
vt 0.173109 0.413058
vt 0.173141 0.412941
vt 0.201138 0.404841
vt 0.200404 0.405112
vt 0.201130 0.404734
vt 0.201902 0.405005
vt 0.201850 0.405091
vt 0.200468 0.405190
vt 0.199483 0.406251
vt 0.202709 0.405752
vt 0.202666 0.405847
vt 0.175476 0.405089
vt 0.176335 0.405750
vt 0.176292 0.405845
vt 0.175528 0.405002
vt 0.174764 0.404838
vt 0.174756 0.404731
vt 0.174030 0.405109
vt 0.174094 0.405187
vt 0.173109 0.406248
vt 0.201850 0.414219
vt 0.202709 0.413558
vt 0.201902 0.414305
vt 0.201138 0.414469
vt 0.200404 0.414198
vt 0.200468 0.414120
vt 0.199483 0.413060
vt 0.199516 0.412943
vt 0.176857 0.413404
vt 0.176851 0.413503
vt 0.203231 0.405905
vt 0.176857 0.405903
vt 0.203231 0.413405
vt 0.203225 0.413505
vt 0.172442 0.413194
vt 0.198817 0.406115
vt 0.198860 0.406026
vt 0.172442 0.406113
vt 0.172485 0.406023
vt 0.198817 0.413195
vt 0.204139 0.413703
vt 0.204758 0.414404
vt 0.204191 0.413613
vt 0.177765 0.405604
vt 0.177818 0.405694
vt 0.177765 0.413702
vt 0.178385 0.414403
vt 0.198013 0.405514
vt 0.197430 0.404715
vt 0.197945 0.405588
vt 0.171638 0.413795
vt 0.171570 0.413721
vt 0.171638 0.405511
vt 0.171055 0.404712
vt 0.204139 0.405607
vt 0.204191 0.405697
vt 0.198013 0.413796
vt 0.197945 0.413722
vt 0.395879 0.486772
vt 0.397271 0.485221
vt 0.397271 0.486770
vt 0.049094 0.002541
vt 0.050489 0.000987
vt 0.050489 0.002544
vt 0.205997 0.402278
vt 0.137010 0.486562
vt 0.138408 0.485006
vt 0.138408 0.486561
vt 0.169822 0.417032
vt 0.051047 0.002409
vt 0.052443 0.000855
vt 0.052443 0.002412
vt 0.196197 0.417033
vt 0.175839 0.479297
vt 0.174131 0.480160
vt 0.174131 0.479297
vt 0.306738 0.478385
vt 0.305031 0.479248
vt 0.305031 0.478385
vt 0.176292 0.413462
vt 0.202666 0.413463
vt 0.175839 0.476707
vt 0.174131 0.477693
vt 0.174131 0.476707
vt 0.173141 0.406365
vt 0.306738 0.480851
vt 0.305031 0.481837
vt 0.305031 0.480851
vt 0.174131 0.478470
vt 0.175839 0.478470
vt 0.306738 0.480075
vt 0.306738 0.479248
vt 0.305031 0.480075
vt 0.305031 0.476855
vt 0.306738 0.477833
vt 0.305031 0.477833
vt 0.426329 0.479631
vt 0.428008 0.480369
vt 0.426329 0.480369
vt 0.368527 0.480551
vt 0.370277 0.481112
vt 0.368527 0.481112
vt 0.368527 0.479674
vt 0.370277 0.480551
vt 0.428008 0.479631
vt 0.174131 0.476039
vt 0.370277 0.479674
vt 0.179624 0.402274
vt 0.175839 0.480713
vt 0.175839 0.480160
vt 0.382370 0.478365
vt 0.384050 0.478365
vt 0.306738 0.482505
vt 0.306738 0.481837
vt 0.311869 0.479058
vt 0.313618 0.479058
vt 0.177818 0.413612
vt 0.171570 0.405585
vt 0.175839 0.481691
vt 0.174131 0.480713
vt 0.382370 0.477628
vt 0.384050 0.477628
vt 0.313618 0.478182
vt 0.311869 0.477621
vt 0.313618 0.477621
vt 0.311869 0.478182
vt 0.101843 0.413969
vt 0.103566 0.413969
vt 0.103722 0.413969
vt 0.220044 0.392625
vt 0.221923 0.392625
vt 0.221767 0.392528
vt 0.220044 0.407116
vt 0.221767 0.407116
vt 0.221923 0.407116
vt 0.101843 0.399479
vt 0.103722 0.399479
vt 0.103566 0.399382
vt 0.426162 0.476863
vt 0.426330 0.476762
vt 0.428175 0.476863
vt 0.384217 0.481133
vt 0.384048 0.481234
vt 0.382203 0.481133
vt 0.327510 0.000999
vt 0.327499 0.000917
vt 0.327560 0.000917
vt 0.104836 0.486626
vt 0.104774 0.486627
vt 0.104786 0.486543
vt 0.388111 0.486651
vt 0.388122 0.486729
vt 0.388064 0.486729
vt 0.230789 0.486679
vt 0.230865 0.486678
vt 0.230850 0.486781
vt 0.145802 0.006839
vt 0.145905 0.006365
vt 0.145905 0.006839
vt 0.145802 0.007266
vt 0.145905 0.007266
vt 0.145802 0.007606
vt 0.419421 0.000847
vt 0.419324 0.001250
vt 0.419324 0.000847
vt 0.419421 0.001250
vt 0.419324 0.001698
vt 0.419421 0.001698
vt 0.419324 0.002145
vt 0.419421 0.002145
vt 0.419324 0.002549
vt 0.017833 0.008545
vt 0.017936 0.008206
vt 0.017936 0.008545
vt 0.017833 0.008206
vt 0.017936 0.007778
vt 0.017833 0.007778
vt 0.017936 0.007304
vt 0.017833 0.007304
vt 0.017936 0.006829
vt 0.017833 0.006829
vt 0.017936 0.006402
vt 0.017833 0.006402
vt 0.017936 0.006062
vt 0.392948 0.002871
vt 0.393046 0.002466
vt 0.393046 0.002871
vt 0.392948 0.002466
vt 0.393046 0.002017
vt 0.392948 0.002017
vt 0.393046 0.001567
vt 0.392948 0.001567
vt 0.393046 0.001162
vt 0.145905 0.005124
vt 0.145802 0.005463
vt 0.145802 0.005124
vt 0.145905 0.005463
vt 0.145802 0.005890
vt 0.145905 0.005890
vt 0.145802 0.006365
vt 0.135573 0.018411
vt 0.135275 0.048887
vt 0.135275 0.018411
vt 0.135809 0.018411
vt 0.135573 0.048887
vt 0.128160 0.029593
vt 0.128445 0.000402
vt 0.128445 0.029593
vt 0.127844 0.029593
vt 0.128160 0.000402
vt 0.127527 0.029593
vt 0.127844 0.000402
vt 0.127242 0.029593
vt 0.127527 0.000402
vt 0.009558 0.038734
vt 0.009794 0.008258
vt 0.009794 0.038734
vt 0.009260 0.038734
vt 0.009558 0.008258
vt 0.008929 0.038734
vt 0.009260 0.008258
vt 0.008599 0.038734
vt 0.008929 0.008258
vt 0.008301 0.038734
vt 0.008599 0.008258
vt 0.008065 0.038734
vt 0.008301 0.008258
vt 0.498735 0.000390
vt 0.498450 0.029581
vt 0.498450 0.000390
vt 0.499051 0.000390
vt 0.498735 0.029581
vt 0.499368 0.000390
vt 0.499051 0.029581
vt 0.499653 0.000390
vt 0.499368 0.029581
vt 0.134316 0.018411
vt 0.134080 0.048887
vt 0.134080 0.018411
vt 0.134614 0.018411
vt 0.134316 0.048887
vt 0.134945 0.018411
vt 0.134614 0.048887
vt 0.134945 0.048887
vt 0.496893 0.003185
vt 0.496496 0.002836
vt 0.496893 0.002836
vt 0.496893 0.003462
vt 0.496496 0.003185
vt 0.233121 0.479846
vt 0.232743 0.479513
vt 0.233121 0.479513
vt 0.233121 0.480215
vt 0.232743 0.479846
vt 0.233121 0.480584
vt 0.232743 0.480215
vt 0.233121 0.480917
vt 0.232743 0.480584
vt 0.435930 0.003176
vt 0.436327 0.003453
vt 0.435930 0.003453
vt 0.435930 0.002827
vt 0.436327 0.003176
vt 0.435930 0.002440
vt 0.436327 0.002827
vt 0.435930 0.002053
vt 0.436327 0.002440
vt 0.435930 0.001704
vt 0.436327 0.002053
vt 0.435930 0.001427
vt 0.436327 0.001704
vt 0.145802 0.001498
vt 0.146177 0.001827
vt 0.145802 0.001827
vt 0.145802 0.001132
vt 0.146177 0.001498
vt 0.146177 0.000766
vt 0.146177 0.001132
vt 0.145802 0.000766
vt 0.146177 0.000436
vt 0.496893 0.001713
vt 0.496496 0.001436
vt 0.496893 0.001436
vt 0.496893 0.002062
vt 0.496496 0.001713
vt 0.496893 0.002449
vt 0.496496 0.002062
vt 0.496496 0.002449
vt 0.050621 0.481358
vt 0.050070 0.481679
vt 0.050145 0.481203
vt 0.386309 0.480510
vt 0.386619 0.479979
vt 0.386619 0.480461
vt 0.386029 0.480653
vt 0.386160 0.480052
vt 0.050769 0.481068
vt 0.050364 0.480774
vt 0.385807 0.480875
vt 0.385746 0.480263
vt 0.050999 0.480837
vt 0.050705 0.480433
vt 0.385206 0.481005
vt 0.385417 0.480591
vt 0.051135 0.480214
vt 0.051289 0.480690
vt 0.385665 0.481154
vt 0.385134 0.481464
vt 0.051611 0.480138
vt 0.051611 0.480639
vt 0.385616 0.481464
vt 0.385206 0.481923
vt 0.052087 0.480214
vt 0.051932 0.480690
vt 0.385807 0.482054
vt 0.385665 0.481774
vt 0.052222 0.480837
vt 0.052517 0.480433
vt 0.386029 0.482276
vt 0.385417 0.482337
vt 0.052453 0.481068
vt 0.052857 0.480774
vt 0.386160 0.482877
vt 0.385746 0.482666
vt 0.053076 0.481203
vt 0.052601 0.481358
vt 0.386619 0.482467
vt 0.386309 0.482418
vt 0.052651 0.481679
vt 0.053152 0.481679
vt 0.386929 0.482418
vt 0.386619 0.482949
vt 0.053076 0.482156
vt 0.052601 0.482001
vt 0.387208 0.482276
vt 0.387078 0.482877
vt 0.052453 0.482291
vt 0.052857 0.482585
vt 0.387820 0.482337
vt 0.387492 0.482666
vt 0.052517 0.482926
vt 0.052222 0.482521
vt 0.387572 0.481774
vt 0.387430 0.482054
vt 0.051932 0.482669
vt 0.052087 0.483145
vt 0.388104 0.481464
vt 0.388031 0.481923
vt 0.051611 0.483220
vt 0.051611 0.482720
vt 0.387572 0.481154
vt 0.387622 0.481464
vt 0.051289 0.482669
vt 0.051135 0.483145
vt 0.387430 0.480875
vt 0.388031 0.481005
vt 0.050999 0.482521
vt 0.050705 0.482926
vt 0.387492 0.480263
vt 0.387820 0.480591
vt 0.050364 0.482585
vt 0.050769 0.482291
vt 0.386929 0.480510
vt 0.387208 0.480653
vt 0.050621 0.482001
vt 0.050145 0.482155
vt 0.387078 0.480052
vt 0.050570 0.481679
vt 0.128029 0.486263
vt 0.127242 0.486027
vt 0.128029 0.486027
vt 0.378081 0.486019
vt 0.377319 0.485732
vt 0.378081 0.485732
vt 0.378081 0.486337
vt 0.377319 0.486019
vt 0.378081 0.486655
vt 0.377319 0.486337
vt 0.378081 0.486942
vt 0.377319 0.486655
vt 0.026625 0.486080
vt 0.027413 0.486316
vt 0.026625 0.486316
vt 0.026625 0.485784
vt 0.027413 0.486080
vt 0.026625 0.485455
vt 0.027413 0.485784
vt 0.026625 0.485126
vt 0.027413 0.485455
vt 0.026625 0.484830
vt 0.027413 0.485126
vt 0.026625 0.484594
vt 0.027413 0.484830
vt 0.433977 0.486958
vt 0.434728 0.486675
vt 0.434728 0.486958
vt 0.433977 0.486675
vt 0.434728 0.486362
vt 0.433977 0.486048
vt 0.433977 0.486362
vt 0.433977 0.485765
vt 0.434728 0.486048
vt 0.128029 0.484778
vt 0.127242 0.484542
vt 0.128029 0.484542
vt 0.128029 0.485074
vt 0.127242 0.484778
vt 0.128029 0.485402
vt 0.127242 0.485074
vt 0.128029 0.485731
vt 0.127242 0.485402
vt 0.127242 0.485731
vt 0.154811 0.477571
vt 0.154481 0.481241
vt 0.154481 0.477571
vt 0.154151 0.481241
vt 0.154151 0.477571
vt 0.153853 0.481241
vt 0.153853 0.477571
vt 0.153617 0.481241
vt 0.153617 0.477571
vt 0.390243 0.000703
vt 0.389958 0.004216
vt 0.389958 0.000703
vt 0.389642 0.004216
vt 0.389642 0.000703
vt 0.389326 0.004216
vt 0.389326 0.000703
vt 0.389041 0.004216
vt 0.389041 0.000703
vt 0.046162 0.004213
vt 0.046399 0.000541
vt 0.046399 0.004213
vt 0.046696 0.000541
vt 0.046696 0.004213
vt 0.047027 0.000541
vt 0.047027 0.004213
vt 0.047357 0.000541
vt 0.047357 0.004213
vt 0.047655 0.000541
vt 0.047655 0.004213
vt 0.047891 0.000541
vt 0.047891 0.004213
vt 0.422254 0.004862
vt 0.422539 0.001349
vt 0.422539 0.004862
vt 0.422855 0.001349
vt 0.422855 0.004862
vt 0.423171 0.001349
vt 0.423171 0.004862
vt 0.423456 0.001349
vt 0.423456 0.004862
vt 0.155345 0.477571
vt 0.155109 0.481241
vt 0.155109 0.477571
vt 0.154811 0.481241
vt 0.389622 0.485391
vt 0.389840 0.485083
vt 0.389895 0.485252
vt 0.150491 0.485082
vt 0.150270 0.484768
vt 0.150598 0.484935
vt 0.389406 0.485608
vt 0.389517 0.485247
vt 0.150711 0.485302
vt 0.150857 0.485195
vt 0.389098 0.485825
vt 0.389262 0.485503
vt 0.151024 0.485523
vt 0.150852 0.485579
vt 0.389219 0.486182
vt 0.389267 0.485880
vt 0.150900 0.485886
vt 0.151082 0.485886
vt 0.389098 0.486539
vt 0.389041 0.486182
vt 0.151024 0.486248
vt 0.150852 0.486192
vt 0.389406 0.486757
vt 0.389267 0.486484
vt 0.150711 0.486469
vt 0.150857 0.486576
vt 0.389517 0.487117
vt 0.389262 0.486862
vt 0.150598 0.486836
vt 0.150491 0.486689
vt 0.389622 0.486973
vt 0.389840 0.487282
vt 0.150270 0.487002
vt 0.150214 0.486830
vt 0.389895 0.487112
vt 0.390197 0.487338
vt 0.149907 0.487060
vt 0.149907 0.486879
vt 0.390499 0.487112
vt 0.390197 0.487160
vt 0.149600 0.486830
vt 0.149544 0.487002
vt 0.390772 0.486973
vt 0.390554 0.487282
vt 0.149323 0.486689
vt 0.149217 0.486836
vt 0.391132 0.486862
vt 0.390877 0.487117
vt 0.148957 0.486576
vt 0.149104 0.486469
vt 0.390988 0.486757
vt 0.391297 0.486539
vt 0.148790 0.486248
vt 0.148963 0.486192
vt 0.391127 0.486484
vt 0.391353 0.486182
vt 0.148733 0.485886
vt 0.148914 0.485886
vt 0.391127 0.485880
vt 0.391175 0.486182
vt 0.148963 0.485579
vt 0.148790 0.485523
vt 0.390988 0.485608
vt 0.391297 0.485825
vt 0.149104 0.485302
vt 0.148957 0.485195
vt 0.390772 0.485391
vt 0.391132 0.485503
vt 0.149217 0.484935
vt 0.149323 0.485082
vt 0.390499 0.485252
vt 0.390877 0.485247
vt 0.149600 0.484941
vt 0.149544 0.484768
vt 0.390197 0.485026
vt 0.390554 0.485083
vt 0.149907 0.484711
vt 0.149907 0.484892
vt 0.390197 0.485205
vt 0.150214 0.484941
vt 0.358294 0.475360
vt 0.490116 0.004197
vt 0.356341 0.475263
vt 0.360193 0.003534
vt 0.099059 0.475894
vt 0.102135 0.478970
vt 0.099059 0.482047
vt 0.194744 0.402182
vt 0.168270 0.402277
vt 0.207547 0.417030
vt 0.181075 0.417128
vt 0.207448 0.417128
vt 0.168369 0.402178
vt 0.368529 0.476894
vt 0.313617 0.481837
vt 0.174756 0.414576
vt 0.199516 0.406367
vt 0.201130 0.414577
vt 0.203225 0.405805
vt 0.176851 0.405803
vt 0.172485 0.413283
vt 0.198860 0.413284
vt 0.395879 0.485218
vt 0.049093 0.000989
vt 0.137010 0.485004
vt 0.051047 0.000857
vt 0.175839 0.477693
vt 0.306738 0.476855
vt 0.175839 0.476039
vt 0.305031 0.482505
vt 0.174131 0.481691
vt 0.145905 0.007606
vt 0.419421 0.002549
vt 0.017833 0.006062
vt 0.392948 0.001162
vt 0.135809 0.048887
vt 0.127242 0.000402
vt 0.008065 0.008258
vt 0.499653 0.029581
vt 0.496496 0.003462
vt 0.232743 0.480917
vt 0.436327 0.001427
vt 0.145802 0.000436
vt 0.127242 0.486263
vt 0.377319 0.486942
vt 0.027413 0.484594
vt 0.434728 0.485765
vt 0.390243 0.004216
vt 0.046162 0.000541
vt 0.422254 0.001349
vt 0.155345 0.481241
s 1
g off
g polySurface29_Black
usemtl Black
f 2/1/1 17/2/2 1/3/3
f 3/4/4 20/5/5 2/1/1
f 4/6/6 23/7/7 3/8/4
f 5/9/8 26/10/9 4/6/6
f 6/11/10 29/12/11 5/13/8
f 7/14/12 32/15/13 6/11/10
f 8/16/14 35/17/15 7/14/12
f 9/18/16 38/19/17 8/16/14
f 10/20/18 41/21/19 9/18/16
f 11/22/20 44/23/21 10/20/18
f 12/24/22 47/25/23 11/26/20
f 13/27/24 50/28/25 12/24/22
f 14/29/26 53/30/27 13/31/24
f 15/32/28 56/33/29 14/29/26
f 16/34/30 59/35/31 15/32/28
f 1/3/3 62/36/32 16/34/30
f 82/37/33 81/38/33 83/39/33
f 81/38/33 84/40/33 83/39/33
f 84/40/33 85/41/33 83/39/33
f 85/41/33 86/42/33 83/39/33
f 86/42/33 87/43/33 83/39/33
f 87/43/33 88/44/33 83/39/33
f 88/44/33 89/45/33 83/39/33
f 89/45/33 90/46/33 83/39/33
f 90/46/33 91/47/33 83/39/33
f 91/47/33 92/48/33 83/39/33
f 92/48/33 93/49/33 83/39/33
f 93/49/33 94/50/33 83/39/33
f 94/50/33 95/51/33 83/39/33
f 95/51/33 96/52/33 83/39/33
f 96/52/33 97/53/33 83/39/33
f 97/53/33 82/37/33 83/39/33
f 17/54/2 63/55/34 62/56/32
s 2
f 19/57/35 63/55/36 18/58/35
f 19/57/35 21/59/37 22/60/37
s 1
f 17/54/2 21/59/38 18/58/39
s 2
f 22/60/37 24/61/40 25/62/40
s 1
f 20/63/5 24/61/41 21/59/38
s 2
f 25/62/40 27/64/42 28/65/42
s 1
f 23/66/7 27/64/43 24/61/41
s 2
f 27/64/42 31/67/44 28/65/42
s 1
f 27/64/43 29/68/11 30/69/45
s 2
f 30/69/44 34/70/46 31/67/44
s 1
f 30/69/45 32/71/13 33/72/47
s 2
f 33/72/46 37/73/48 34/70/46
s 1
f 33/72/47 35/74/15 36/75/49
s 2
f 37/73/48 39/76/50 40/77/50
s 1
f 35/74/15 39/76/51 36/75/49
s 2
f 39/76/50 43/78/52 40/77/50
s 1
f 39/76/51 41/79/19 42/80/53
s 2
f 43/78/52 45/81/54 46/82/54
s 1
f 42/80/53 44/83/21 45/81/55
s 2
f 45/81/54 49/84/56 46/82/54
s 1
f 45/81/55 47/85/23 48/86/57
s 2
f 48/86/56 52/87/58 49/84/56
s 1
f 47/85/23 51/88/59 48/86/57
s 2
f 52/87/58 54/89/60 55/90/60
s 1
f 51/88/59 53/91/27 54/89/61
s 2
f 54/89/60 58/92/62 55/90/60
s 1
f 53/91/27 57/93/63 54/89/61
s 2
f 57/93/62 61/94/64 58/92/62
s 1
f 56/95/29 60/96/65 57/93/63
s 2
f 60/96/64 64/97/36 61/94/64
s 1
f 59/98/31 63/55/34 60/96/65
f 19/57/66 65/99/67 66/100/66
f 22/60/67 67/101/68 65/99/67
f 25/62/68 68/102/69 67/101/68
f 31/67/70 68/102/69 28/65/69
f 34/70/71 69/103/70 31/67/70
f 37/73/72 70/104/71 34/70/71
f 40/77/73 71/105/72 37/73/72
f 43/78/74 72/106/73 40/77/73
f 46/82/75 73/107/74 43/78/74
f 49/84/76 74/108/75 46/82/75
f 49/84/76 76/109/77 75/110/76
f 55/90/78 76/109/77 52/87/77
f 55/90/78 78/111/79 77/112/78
f 58/92/79 79/113/80 78/111/79
f 61/94/80 80/114/81 79/113/80
f 64/97/81 66/100/66 80/114/81
s 2
f 65/99/82 82/37/83 66/100/83
f 65/99/82 84/40/84 81/38/82
f 67/101/84 85/41/85 84/40/84
f 69/103/86 85/41/85 68/102/85
f 70/104/87 86/42/86 69/103/86
f 70/104/87 88/44/88 87/43/87
f 72/106/89 88/44/88 71/105/88
f 72/106/89 90/46/90 89/45/89
f 74/108/91 90/46/90 73/107/90
f 74/108/91 92/48/92 91/47/91
f 75/110/92 93/49/93 92/48/92
f 77/112/94 93/49/93 76/109/93
f 78/111/95 94/50/94 77/112/94
f 78/111/95 96/52/96 95/51/95
f 80/114/97 96/52/96 79/113/96
f 80/114/97 82/37/83 97/53/97
s 1
f 98/115/98 135/116/99 134/117/100
s 2
f 98/115/101 117/118/101 99/119/101
s 4
f 99/120/102 101/121/102 100/122/102
s 1
f 103/123/103 138/124/104 101/125/105
s 2
f 102/126/106 119/127/106 103/123/106
s 1
f 106/128/107 132/129/108 104/130/109
s 2
f 104/131/110 108/132/110 105/133/110
s 4
f 105/134/111 110/135/111 106/128/111
s 1
f 107/136/112 129/137/113 128/138/114
s 4
f 107/136/115 114/139/115 108/140/115
s 1
f 110/135/116 123/141/117 122/142/118
s 2
f 111/143/10 113/144/10 112/145/10
s 1
f 115/146/119 126/147/120 113/148/121
f 118/149/122 144/150/123 116/151/124
s 4
f 116/152/1 120/153/1 117/154/1
s 1
f 119/127/125 141/155/126 140/156/127
f 124/157/128 195/158/129 122/142/118
s 2
f 124/159/130 126/160/131 125/161/132
s 1
f 125/162/133 196/163/134 197/164/135
f 130/165/136 203/166/137 128/138/114
s 2
f 130/167/138 132/168/139 131/169/140
s 1
f 131/170/141 226/171/142 227/172/143
f 136/173/144 213/174/145 134/117/100
s 2
f 136/175/146 138/176/147 137/177/148
s 1
f 137/178/149 214/179/150 215/180/151
f 142/181/152 221/182/153 140/156/127
s 2
f 142/183/154 144/184/155 143/185/156
s 1
f 143/186/157 232/187/158 233/188/159
f 147/189/160 170/190/161 146/191/162
f 146/191/162 149/192/163 147/189/160
s 2
f 149/192/164 151/193/165 150/194/165
f 150/194/165 179/195/166 178/196/166
f 153/197/167 154/198/168 152/199/167
s 1
f 153/197/169 157/200/170 156/201/171
s 2
f 155/202/168 180/203/172 154/198/168
s 1
f 156/201/171 173/204/173 172/205/174
f 158/206/175 175/207/176 174/208/177
f 159/209/178 160/210/179 161/211/179
s 2
f 160/210/180 162/212/181 161/211/180
f 163/213/182 182/214/183 162/212/181
s 1
f 165/215/184 176/216/185 164/217/184
f 164/217/184 167/218/186 165/215/184
s 2
f 167/218/187 169/219/188 168/220/188
f 168/220/188 185/221/189 184/222/189
s 1
f 170/190/161 198/223/190 199/224/191
f 173/204/173 223/225/192 172/205/174
f 175/207/176 191/226/193 174/208/177
f 176/216/185 188/227/194 189/228/195
f 179/195/196 209/229/197 178/196/196
f 180/203/198 206/230/199 207/231/200
f 182/214/201 216/232/202 217/233/203
f 185/221/204 229/234/205 184/222/204
f 186/235/206 195/158/129 194/236/207
f 186/235/206 188/227/194 187/237/206
f 191/226/193 192/238/208 193/239/208
f 192/238/208 196/163/134 193/239/208
f 198/223/190 201/240/209 199/224/191
f 201/240/209 203/166/137 202/241/210
f 204/242/211 213/174/145 212/243/212
f 204/242/211 206/230/199 205/244/213
f 209/229/197 210/245/214 211/246/215
f 210/245/214 214/179/150 211/246/215
f 216/232/202 219/247/216 217/233/203
f 219/247/216 221/182/153 220/248/217
f 223/225/192 224/249/218 225/250/218
f 224/249/218 226/171/142 225/250/218
f 229/234/205 230/251/219 231/252/219
f 230/251/219 232/187/158 231/252/219
f 108/132/14 111/143/14 105/133/14
f 120/153/30 99/120/30 117/154/30
s 4
f 112/253/6 126/254/6 123/255/6
s 8
f 128/138/33 115/146/33 107/136/33
s 4
f 132/256/22 109/257/22 104/258/22
s 8
f 133/259/220 110/135/220 122/142/220
f 100/260/22 138/261/22 135/262/22
f 119/127/33 139/263/33 103/123/33
f 144/264/6 121/265/6 116/266/6
f 98/115/220 145/267/220 118/149/220
s 4
f 146/268/221 173/269/222 157/270/223
f 175/271/224 164/272/225 176/273/224
s 8
f 147/189/33 174/208/33 171/274/33
f 156/201/220 177/275/220 165/215/220
f 179/276/226 154/277/227 180/278/226
f 183/279/33 150/194/33 178/196/33
f 162/280/228 185/281/229 169/282/230
f 184/222/220 155/202/220 168/220/220
s 4
f 152/283/231 146/268/221 157/270/223
s 8
f 154/277/227 148/284/232 152/283/232
f 149/192/33 158/206/33 147/189/33
f 149/192/33 163/213/33 160/210/33
s 4
f 161/285/233 164/272/225 159/286/234
s 8
f 162/280/228 166/287/235 161/285/235
f 153/197/220 168/220/220 155/202/220
f 153/197/220 165/215/220 167/218/220
s 2
f 186/288/236 190/289/237 189/290/238
s 4
f 194/291/239 192/292/240 186/293/240
f 204/294/241 208/295/242 207/296/242
f 212/297/243 210/298/241 204/294/241
s 2
f 189/290/238 175/271/244 176/273/244
s 4
f 124/159/245 197/299/246 194/291/239
f 207/300/242 179/276/247 180/278/247
f 136/175/248 215/301/249 212/297/243
s 8
f 191/226/33 171/274/33 174/208/33
f 127/302/33 203/166/33 196/163/33
s 2
f 199/303/250 173/269/251 170/304/251
s 4
f 130/167/252 227/305/253 202/306/254
s 8
f 122/142/220 226/171/220 133/259/220
f 188/227/220 172/205/220 223/225/220
f 209/229/33 183/279/33 178/196/33
f 214/179/33 140/156/33 221/182/33
s 4
f 217/307/255 185/281/256 182/308/256
f 142/183/257 233/309/258 220/310/259
s 8
f 213/174/220 145/267/220 134/117/220
f 206/230/220 184/222/220 229/234/220
f 193/239/33 198/223/33 191/226/33
f 193/239/33 203/166/33 200/311/33
f 211/246/33 216/232/33 209/229/33
f 211/246/33 221/182/33 218/312/33
s 2
f 201/313/260 222/314/261 199/303/250
s 4
f 202/306/254 224/315/262 201/316/262
s 8
f 187/237/220 226/171/220 195/158/220
f 187/237/220 223/225/220 225/250/220
s 4
f 219/317/263 228/318/264 217/319/255
f 220/310/259 230/320/263 219/317/263
s 8
f 205/244/220 232/187/220 213/174/220
f 205/244/220 229/234/220 231/252/220
s 16
f 98/321/265 99/120/265 100/122/265
f 101/121/266 102/322/266 103/323/266
f 104/131/267 105/133/267 106/324/267
f 107/325/268 108/132/268 109/326/268
f 110/327/269 111/143/269 112/145/269
f 113/144/270 114/328/270 115/329/270
f 116/152/271 117/154/271 118/330/271
f 119/331/272 120/153/272 121/332/272
s 1
f 122/333/118 123/334/117 124/159/128
f 125/161/133 126/160/120 127/335/273
f 128/336/114 129/337/113 130/167/136
f 131/169/141 132/168/108 133/338/274
f 134/339/100 135/340/99 136/341/144
f 137/342/149 138/343/104 139/344/275
f 140/345/127 141/346/126 142/347/152
f 143/348/157 144/349/123 145/350/276
f 315/351/277 317/352/33 314/353/277
f 314/353/277 319/354/278 315/351/277
f 318/355/278 321/356/279 319/354/278
f 320/357/279 323/358/280 321/359/279
f 322/360/280 325/361/14 323/358/280
f 324/362/14 327/363/281 325/361/14
f 326/364/281 329/365/282 327/363/281
f 328/366/282 331/367/283 329/368/282
f 330/369/283 333/370/284 331/367/283
f 332/371/284 335/372/220 333/370/284
f 334/373/220 337/374/285 335/372/220
f 336/375/285 339/376/286 337/374/285
f 338/377/286 341/378/287 339/376/286
f 340/379/287 343/380/288 341/381/287
f 342/382/288 345/383/30 343/380/288
f 344/384/30 347/385/289 345/383/30
f 346/386/289 349/387/290 347/385/289
f 348/388/290 351/389/291 349/390/290
f 350/391/291 353/392/292 351/389/291
f 352/393/292 316/394/33 353/392/292
f 276/395/278 254/396/277 275/397/277
f 278/398/279 255/399/278 276/395/278
f 280/400/280 256/401/279 278/402/279
f 282/403/14 257/404/280 280/400/280
f 284/405/281 258/406/14 282/403/14
f 286/407/282 259/408/281 284/405/281
f 288/409/283 260/410/282 286/411/282
f 290/412/284 261/413/283 288/409/283
f 292/414/220 262/415/284 290/412/284
f 294/416/285 263/417/220 292/414/220
f 296/418/286 264/419/285 294/416/285
f 298/420/287 265/421/286 296/418/286
f 300/422/288 266/423/287 298/424/287
f 302/425/30 267/426/288 300/422/288
f 304/427/289 268/428/30 302/425/30
f 306/429/290 269/430/289 304/427/289
f 308/431/291 270/432/290 306/433/290
f 310/434/292 271/435/291 308/431/291
f 312/436/33 272/437/292 310/434/292
f 275/397/277 273/438/33 312/436/33
f 395/439/278 397/440/277 394/441/277
f 398/442/279 396/443/278 395/439/278
f 400/444/280 399/445/279 398/446/279
f 402/447/14 401/448/280 400/444/280
f 404/449/281 403/450/14 402/447/14
f 406/451/282 405/452/281 404/449/281
f 408/453/283 407/454/282 406/455/282
f 410/456/284 409/457/283 408/453/283
f 412/458/220 411/459/284 410/456/284
f 414/460/285 413/461/220 412/458/220
f 416/462/286 415/463/285 414/460/285
f 418/464/287 417/465/286 416/462/286
f 420/466/288 419/467/287 418/468/287
f 422/469/30 421/470/288 420/466/288
f 422/469/30 425/471/289 423/472/30
f 424/473/289 427/474/290 425/471/289
f 428/475/291 427/476/290 426/477/290
f 430/478/292 429/479/291 428/475/291
f 432/480/33 431/481/292 430/478/292
f 394/441/277 433/482/33 432/480/33
s 2
f 275/483/293 316/484/294 315/485/293
f 274/486/295 317/487/296 313/488/296
f 277/489/297 314/490/295 274/486/295
f 276/491/298 315/485/293 319/492/298
f 279/493/299 318/494/297 277/489/297
f 278/495/300 319/492/298 321/496/300
f 279/493/299 322/497/301 320/498/299
f 278/495/300 323/499/302 280/500/302
f 281/501/301 324/502/303 322/497/301
f 280/500/302 325/503/304 282/504/304
f 283/505/303 326/506/305 324/502/303
f 282/504/304 327/507/306 284/508/306
f 287/509/307 326/506/305 285/510/305
f 286/511/308 327/507/306 329/512/308
f 289/513/309 328/514/307 287/509/307
f 288/515/310 329/512/308 331/516/310
f 289/513/309 332/517/311 330/518/309
f 288/515/310 333/519/312 290/520/312
f 293/521/313 332/517/311 291/522/311
f 292/523/314 333/519/312 335/524/314
f 295/525/315 334/526/313 293/521/313
f 292/523/314 337/527/316 294/528/317
f 297/529/318 336/530/315 295/525/315
f 296/531/319 337/527/316 339/532/319
f 297/529/318 340/533/320 338/534/318
f 296/531/319 341/535/321 298/536/321
f 301/537/322 340/533/320 299/538/320
f 300/539/323 341/535/321 343/540/323
f 301/537/322 344/541/324 342/542/322
f 300/539/323 345/543/325 302/544/325
f 305/545/326 344/541/324 303/546/324
f 304/547/327 345/543/325 347/548/327
f 307/549/328 346/550/326 305/545/326
f 306/551/329 347/548/327 349/552/329
f 307/549/328 350/553/330 348/554/328
f 306/551/329 351/555/331 308/556/331
f 311/557/332 350/553/330 309/558/330
f 310/559/333 351/555/331 353/560/333
f 311/557/332 317/487/296 352/561/332
f 310/559/333 316/484/294 312/562/294
s 1
f 236/563/279 354/564/278 235/565/278
f 237/566/280 355/567/279 236/568/279
f 238/569/14 356/570/280 237/566/280
f 239/571/281 357/572/14 238/569/14
f 240/573/282 358/574/281 239/571/281
f 241/575/283 359/576/282 240/577/282
f 242/578/284 360/579/283 241/575/283
f 243/580/220 361/581/284 242/578/284
f 244/582/285 362/583/220 243/580/220
f 245/584/286 363/585/285 244/582/285
f 246/586/287 364/587/286 245/584/286
f 246/588/287 366/589/288 365/590/287
f 247/591/288 367/592/30 366/589/288
f 249/593/289 367/592/30 248/594/30
f 250/595/290 368/596/289 249/593/289
f 251/597/291 369/598/290 250/599/290
f 252/600/292 370/601/291 251/597/291
f 253/602/33 371/603/292 252/600/292
f 234/604/277 372/605/33 253/602/33
f 235/565/278 373/606/277 234/604/277
f 374/607/277 313/608/33 375/609/33
f 375/609/33 311/610/292 376/611/292
f 376/611/292 309/612/291 377/613/291
f 377/613/291 307/614/290 378/615/290
f 378/616/290 305/617/289 379/618/289
f 379/618/289 303/619/30 380/620/30
f 380/620/30 301/621/288 381/622/288
f 381/622/288 299/623/287 382/624/287
f 382/625/287 297/626/286 383/627/286
f 383/627/286 295/628/285 384/629/285
f 384/629/285 293/630/220 385/631/220
f 385/631/220 291/632/284 386/633/284
f 386/633/284 289/634/283 387/635/283
f 387/635/283 287/636/282 388/637/282
f 388/638/282 285/639/281 389/640/281
f 389/640/281 283/641/14 390/642/14
f 390/642/14 281/643/280 391/644/280
f 391/644/280 279/645/279 392/646/279
f 392/647/279 277/648/278 393/649/278
f 393/649/278 274/650/277 374/607/277
s 2
f 354/651/6 394/652/6 373/653/6
f 393/654/22 397/655/22 396/656/22
f 355/657/6 395/658/6 354/651/6
f 392/659/22 396/656/22 399/660/22
f 355/657/6 400/661/6 398/662/6
f 392/659/22 401/663/22 391/664/22
f 357/665/6 400/661/6 356/666/6
f 390/667/22 401/663/22 403/668/22
f 357/665/6 404/669/6 402/670/6
f 390/667/22 405/671/22 389/672/22
f 359/673/6 404/669/6 358/674/6
f 388/675/22 405/671/22 407/676/22
f 359/673/6 408/677/6 406/678/6
f 388/675/22 409/679/22 387/680/22
f 360/681/6 410/682/6 408/677/6
f 387/680/22 411/683/22 386/684/22
f 361/685/6 412/686/6 410/682/6
f 386/684/22 413/687/22 385/688/22
f 363/689/6 412/686/6 362/690/6
f 384/691/22 413/687/22 415/692/22
f 364/693/6 414/694/6 363/689/6
f 383/695/22 415/692/22 417/696/22
f 364/693/6 418/697/6 416/698/6
f 383/695/22 419/699/22 382/700/22
f 365/701/6 420/702/6 418/697/6
f 382/700/22 421/703/22 381/704/22
f 366/705/6 422/706/6 420/702/6
f 381/704/22 423/707/22 380/708/22
f 368/709/6 422/706/6 367/710/6
f 379/711/22 423/707/22 425/712/22
f 369/713/6 424/714/6 368/709/6
f 378/715/22 425/712/22 427/716/22
f 370/717/6 426/718/6 369/713/6
f 378/715/22 429/719/22 377/720/22
f 371/721/6 428/722/6 370/717/6
f 376/723/22 429/719/22 431/724/22
f 371/721/6 432/725/6 430/726/6
f 376/723/22 433/727/22 375/728/22
f 373/653/6 432/725/6 372/729/6
f 374/730/22 433/727/22 397/655/22
s 1
f 2/1/1 20/5/5 17/2/2
f 3/4/4 23/731/7 20/5/5
f 4/6/6 26/10/9 23/7/7
f 5/9/8 29/732/11 26/10/9
f 6/11/10 32/15/13 29/12/11
f 7/14/12 35/17/15 32/15/13
f 8/16/14 38/19/17 35/17/15
f 9/18/16 41/21/19 38/19/17
f 10/20/18 44/23/21 41/21/19
f 11/22/20 47/733/23 44/23/21
f 12/24/22 50/28/25 47/25/23
f 13/27/24 53/734/27 50/28/25
f 14/29/26 56/33/29 53/30/27
f 15/32/28 59/35/31 56/33/29
f 16/34/30 62/36/32 59/35/31
f 1/3/3 17/2/2 62/36/32
f 17/54/2 18/58/39 63/55/34
s 2
f 19/57/35 64/97/36 63/55/36
f 19/57/35 18/58/35 21/59/37
s 1
f 17/54/2 20/63/5 21/59/38
s 2
f 22/60/37 21/59/37 24/61/40
s 1
f 20/63/5 23/66/7 24/61/41
s 2
f 25/62/40 24/61/40 27/64/42
s 1
f 23/66/7 26/735/9 27/64/43
s 2
f 27/64/42 30/69/44 31/67/44
s 1
f 27/64/43 26/735/9 29/68/11
s 2
f 30/69/44 33/72/46 34/70/46
s 1
f 30/69/45 29/68/11 32/71/13
s 2
f 33/72/46 36/75/48 37/73/48
s 1
f 33/72/47 32/71/13 35/74/15
s 2
f 37/73/48 36/75/48 39/76/50
s 1
f 35/74/15 38/736/17 39/76/51
s 2
f 39/76/50 42/80/52 43/78/52
s 1
f 39/76/51 38/736/17 41/79/19
s 2
f 43/78/52 42/80/52 45/81/54
s 1
f 42/80/53 41/79/19 44/83/21
s 2
f 45/81/54 48/86/56 49/84/56
s 1
f 45/81/55 44/83/21 47/85/23
s 2
f 48/86/56 51/88/58 52/87/58
s 1
f 47/85/23 50/737/25 51/88/59
s 2
f 52/87/58 51/88/58 54/89/60
s 1
f 51/88/59 50/737/25 53/91/27
s 2
f 54/89/60 57/93/62 58/92/62
s 1
f 53/91/27 56/95/29 57/93/63
s 2
f 57/93/62 60/96/64 61/94/64
s 1
f 56/95/29 59/98/31 60/96/65
s 2
f 60/96/64 63/55/36 64/97/36
s 1
f 59/98/31 62/56/32 63/55/34
f 19/57/66 22/60/67 65/99/67
f 22/60/67 25/62/68 67/101/68
f 25/62/68 28/65/69 68/102/69
f 31/67/70 69/103/70 68/102/69
f 34/70/71 70/104/71 69/103/70
f 37/73/72 71/105/72 70/104/71
f 40/77/73 72/106/73 71/105/72
f 43/78/74 73/107/74 72/106/73
f 46/82/75 74/108/75 73/107/74
f 49/84/76 75/110/76 74/108/75
f 49/84/76 52/87/77 76/109/77
f 55/90/78 77/112/78 76/109/77
f 55/90/78 58/92/79 78/111/79
f 58/92/79 61/94/80 79/113/80
f 61/94/80 64/97/81 80/114/81
f 64/97/81 19/57/66 66/100/66
s 2
f 65/99/82 81/38/82 82/37/83
f 65/99/82 67/101/84 84/40/84
f 67/101/84 68/102/85 85/41/85
f 69/103/86 86/42/86 85/41/85
f 70/104/87 87/43/87 86/42/86
f 70/104/87 71/105/88 88/44/88
f 72/106/89 89/45/89 88/44/88
f 72/106/89 73/107/90 90/46/90
f 74/108/91 91/47/91 90/46/90
f 74/108/91 75/110/92 92/48/92
f 75/110/92 76/109/93 93/49/93
f 77/112/94 94/50/94 93/49/93
f 78/111/95 95/51/95 94/50/94
f 78/111/95 79/113/96 96/52/96
f 80/114/97 97/53/97 96/52/96
f 80/114/97 66/100/83 82/37/83
s 1
f 98/115/98 100/738/334 135/116/99
s 2
f 98/115/101 118/149/101 117/118/101
s 4
f 99/120/102 102/322/102 101/121/102
s 1
f 103/123/103 139/263/275 138/124/104
s 2
f 102/126/106 120/739/106 119/127/106
s 1
f 106/128/107 133/259/274 132/129/108
s 2
f 104/131/110 109/326/110 108/132/110
s 4
f 105/134/111 111/740/111 110/135/111
s 1
f 107/136/112 109/741/335 129/137/113
s 4
f 107/136/115 115/146/115 114/139/115
s 1
f 110/135/116 112/742/336 123/141/117
s 2
f 111/143/10 114/328/10 113/144/10
s 1
f 115/146/119 127/302/273 126/147/120
f 118/149/122 145/267/276 144/150/123
s 4
f 116/152/1 121/332/1 120/153/1
s 1
f 119/127/125 121/743/337 141/155/126
f 124/157/128 194/236/207 195/158/129
s 2
f 124/159/130 123/334/338 126/160/131
s 1
f 125/162/133 127/302/273 196/163/134
f 130/165/136 202/241/210 203/166/137
s 2
f 130/167/138 129/337/339 132/168/139
s 1
f 131/170/141 133/259/274 226/171/142
f 136/173/144 212/243/212 213/174/145
s 2
f 136/175/146 135/744/340 138/176/147
s 1
f 137/178/149 139/263/275 214/179/150
f 142/181/152 220/248/217 221/182/153
s 2
f 142/183/154 141/745/341 144/184/155
s 1
f 143/186/157 145/267/276 232/187/158
f 147/189/160 171/274/342 170/190/161
f 146/191/162 148/746/163 149/192/163
s 2
f 149/192/164 148/746/164 151/193/165
f 150/194/165 151/193/165 179/195/166
f 153/197/167 155/202/168 154/198/168
s 1
f 153/197/169 152/199/169 157/200/170
s 2
f 155/202/168 181/747/172 180/203/172
s 1
f 156/201/171 157/200/170 173/204/173
f 158/206/175 159/209/178 175/207/176
f 159/209/178 158/206/175 160/210/179
s 2
f 160/210/180 163/213/182 162/212/181
f 163/213/182 183/279/183 182/214/183
s 1
f 165/215/184 177/275/343 176/216/185
f 164/217/184 166/748/186 167/218/186
s 2
f 167/218/187 166/748/187 169/219/188
f 168/220/188 169/219/188 185/221/189
s 1
f 170/190/161 171/274/342 198/223/190
f 173/204/173 222/749/344 223/225/192
f 175/207/176 190/750/345 191/226/193
f 176/216/185 177/275/343 188/227/194
f 179/195/196 208/751/346 209/229/197
f 180/203/198 181/747/198 206/230/199
f 182/214/201 183/279/201 216/232/202
f 185/221/204 228/752/347 229/234/205
f 186/235/206 187/237/206 195/158/129
f 186/235/206 189/228/195 188/227/194
f 191/226/193 190/750/345 192/238/208
f 192/238/208 197/164/135 196/163/134
f 198/223/190 200/311/209 201/240/209
f 201/240/209 200/311/209 203/166/137
f 204/242/211 205/244/213 213/174/145
f 204/242/211 207/231/200 206/230/199
f 209/229/197 208/751/346 210/245/214
f 210/245/214 215/180/151 214/179/150
f 216/232/202 218/312/216 219/247/216
f 219/247/216 218/312/216 221/182/153
f 223/225/192 222/749/344 224/249/218
f 224/249/218 227/172/143 226/171/142
f 229/234/205 228/752/347 230/251/219
f 230/251/219 233/188/159 232/187/158
f 108/132/14 114/328/14 111/143/14
f 120/153/30 102/322/30 99/120/30
s 4
f 112/253/6 113/753/6 126/254/6
s 8
f 128/138/33 127/302/33 115/146/33
s 4
f 132/256/22 129/754/22 109/257/22
s 8
f 133/259/220 106/128/220 110/135/220
f 100/260/22 101/755/22 138/261/22
f 119/127/33 140/156/33 139/263/33
f 144/264/6 141/756/6 121/265/6
f 98/115/220 134/117/220 145/267/220
s 4
f 146/268/221 170/304/222 173/269/222
f 175/271/224 159/286/234 164/272/225
s 8
f 147/189/33 158/206/33 174/208/33
f 156/201/220 172/205/220 177/275/220
f 179/276/226 151/757/348 154/277/227
f 183/279/33 163/213/33 150/194/33
f 162/280/228 182/308/229 185/281/229
f 184/222/220 181/747/220 155/202/220
s 4
f 152/283/231 148/284/231 146/268/221
s 8
f 154/277/227 151/757/348 148/284/232
f 149/192/33 160/210/33 158/206/33
f 149/192/33 150/194/33 163/213/33
s 4
f 161/285/233 166/287/233 164/272/225
s 8
f 162/280/228 169/282/230 166/287/235
f 153/197/220 167/218/220 168/220/220
f 153/197/220 156/201/220 165/215/220
s 2
f 186/288/236 192/758/236 190/289/237
s 4
f 194/291/239 197/299/246 192/292/240
f 204/294/241 210/298/241 208/295/242
f 212/297/243 215/301/249 210/298/241
s 2
f 189/290/238 190/289/237 175/271/244
s 4
f 124/159/245 125/161/245 197/299/246
f 207/300/242 208/759/242 179/276/247
f 136/175/248 137/177/248 215/301/249
s 8
f 191/226/33 198/223/33 171/274/33
f 127/302/33 128/138/33 203/166/33
s 2
f 199/303/250 222/314/261 173/269/251
s 4
f 130/167/252 131/169/252 227/305/253
s 8
f 122/142/220 195/158/220 226/171/220
f 188/227/220 177/275/220 172/205/220
f 209/229/33 216/232/33 183/279/33
f 214/179/33 139/263/33 140/156/33
s 4
f 217/307/255 228/760/264 185/281/256
f 142/183/257 143/185/257 233/309/258
s 8
f 213/174/220 232/187/220 145/267/220
f 206/230/220 181/747/220 184/222/220
f 193/239/33 200/311/33 198/223/33
f 193/239/33 196/163/33 203/166/33
f 211/246/33 218/312/33 216/232/33
f 211/246/33 214/179/33 221/182/33
s 2
f 201/313/260 224/761/260 222/314/261
s 4
f 202/306/254 227/305/253 224/315/262
s 8
f 187/237/220 225/250/220 226/171/220
f 187/237/220 188/227/220 223/225/220
s 4
f 219/317/263 230/320/263 228/318/264
f 220/310/259 233/309/258 230/320/263
s 8
f 205/244/220 231/252/220 232/187/220
f 205/244/220 206/230/220 229/234/220
s 1
f 315/351/277 316/394/33 317/352/33
f 314/353/277 318/355/278 319/354/278
f 318/355/278 320/762/279 321/356/279
f 320/357/279 322/360/280 323/358/280
f 322/360/280 324/362/14 325/361/14
f 324/362/14 326/364/281 327/363/281
f 326/364/281 328/763/282 329/365/282
f 328/366/282 330/369/283 331/367/283
f 330/369/283 332/371/284 333/370/284
f 332/371/284 334/373/220 335/372/220
f 334/373/220 336/375/285 337/374/285
f 336/375/285 338/377/286 339/376/286
f 338/377/286 340/764/287 341/378/287
f 340/379/287 342/382/288 343/380/288
f 342/382/288 344/384/30 345/383/30
f 344/384/30 346/386/289 347/385/289
f 346/386/289 348/765/290 349/387/290
f 348/388/290 350/391/291 351/389/291
f 350/391/291 352/393/292 353/392/292
f 352/393/292 317/352/33 316/394/33
f 276/395/278 255/399/278 254/396/277
f 278/398/279 256/766/279 255/399/278
f 280/400/280 257/404/280 256/401/279
f 282/403/14 258/406/14 257/404/280
f 284/405/281 259/408/281 258/406/14
f 286/407/282 260/767/282 259/408/281
f 288/409/283 261/413/283 260/410/282
f 290/412/284 262/415/284 261/413/283
f 292/414/220 263/417/220 262/415/284
f 294/416/285 264/419/285 263/417/220
f 296/418/286 265/421/286 264/419/285
f 298/420/287 266/768/287 265/421/286
f 300/422/288 267/426/288 266/423/287
f 302/425/30 268/428/30 267/426/288
f 304/427/289 269/430/289 268/428/30
f 306/429/290 270/769/290 269/430/289
f 308/431/291 271/435/291 270/432/290
f 310/434/292 272/437/292 271/435/291
f 312/436/33 273/438/33 272/437/292
f 275/397/277 254/396/277 273/438/33
f 395/439/278 396/443/278 397/440/277
f 398/442/279 399/770/279 396/443/278
f 400/444/280 401/448/280 399/445/279
f 402/447/14 403/450/14 401/448/280
f 404/449/281 405/452/281 403/450/14
f 406/451/282 407/771/282 405/452/281
f 408/453/283 409/457/283 407/454/282
f 410/456/284 411/459/284 409/457/283
f 412/458/220 413/461/220 411/459/284
f 414/460/285 415/463/285 413/461/220
f 416/462/286 417/465/286 415/463/285
f 418/464/287 419/772/287 417/465/286
f 420/466/288 421/470/288 419/467/287
f 422/469/30 423/472/30 421/470/288
f 422/469/30 424/473/289 425/471/289
f 424/473/289 426/773/290 427/474/290
f 428/475/291 429/479/291 427/476/290
f 430/478/292 431/481/292 429/479/291
f 432/480/33 433/482/33 431/481/292
f 394/441/277 397/440/277 433/482/33
s 2
f 275/483/293 312/562/294 316/484/294
f 274/486/295 314/490/295 317/487/296
f 277/489/297 318/494/297 314/490/295
f 276/491/298 275/483/293 315/485/293
f 279/493/299 320/498/299 318/494/297
f 278/495/300 276/491/298 319/492/298
f 279/493/299 281/501/301 322/497/301
f 278/495/300 321/496/300 323/499/302
f 281/501/301 283/505/303 324/502/303
f 280/500/302 323/499/302 325/503/304
f 283/505/303 285/510/305 326/506/305
f 282/504/304 325/503/304 327/507/306
f 287/509/307 328/514/307 326/506/305
f 286/511/308 284/508/306 327/507/306
f 289/513/309 330/518/309 328/514/307
f 288/515/310 286/511/308 329/512/308
f 289/513/309 291/522/311 332/517/311
f 288/515/310 331/516/310 333/519/312
f 293/521/313 334/526/313 332/517/311
f 292/523/314 290/520/312 333/519/312
f 295/525/315 336/530/315 334/526/313
f 292/523/314 335/524/314 337/527/316
f 297/529/318 338/534/318 336/530/315
f 296/531/319 294/528/317 337/527/316
f 297/529/318 299/538/320 340/533/320
f 296/531/319 339/532/319 341/535/321
f 301/537/322 342/542/322 340/533/320
f 300/539/323 298/536/321 341/535/321
f 301/537/322 303/546/324 344/541/324
f 300/539/323 343/540/323 345/543/325
f 305/545/326 346/550/326 344/541/324
f 304/547/327 302/544/325 345/543/325
f 307/549/328 348/554/328 346/550/326
f 306/551/329 304/547/327 347/548/327
f 307/549/328 309/558/330 350/553/330
f 306/551/329 349/552/329 351/555/331
f 311/557/332 352/561/332 350/553/330
f 310/559/333 308/556/331 351/555/331
f 311/557/332 313/488/296 317/487/296
f 310/559/333 353/560/333 316/484/294
s 1
f 236/563/279 355/774/279 354/564/278
f 237/566/280 356/570/280 355/567/279
f 238/569/14 357/572/14 356/570/280
f 239/571/281 358/574/281 357/572/14
f 240/573/282 359/775/282 358/574/281
f 241/575/283 360/579/283 359/576/282
f 242/578/284 361/581/284 360/579/283
f 243/580/220 362/583/220 361/581/284
f 244/582/285 363/585/285 362/583/220
f 245/584/286 364/587/286 363/585/285
f 246/586/287 365/776/287 364/587/286
f 246/588/287 247/591/288 366/589/288
f 247/591/288 248/594/30 367/592/30
f 249/593/289 368/596/289 367/592/30
f 250/595/290 369/777/290 368/596/289
f 251/597/291 370/601/291 369/598/290
f 252/600/292 371/603/292 370/601/291
f 253/602/33 372/605/33 371/603/292
f 234/604/277 373/606/277 372/605/33
f 235/565/278 354/564/278 373/606/277
f 374/607/277 274/650/277 313/608/33
f 375/609/33 313/608/33 311/610/292
f 376/611/292 311/610/292 309/612/291
f 377/613/291 309/612/291 307/614/290
f 378/616/290 307/778/290 305/617/289
f 379/618/289 305/617/289 303/619/30
f 380/620/30 303/619/30 301/621/288
f 381/622/288 301/621/288 299/623/287
f 382/625/287 299/779/287 297/626/286
f 383/627/286 297/626/286 295/628/285
f 384/629/285 295/628/285 293/630/220
f 385/631/220 293/630/220 291/632/284
f 386/633/284 291/632/284 289/634/283
f 387/635/283 289/634/283 287/636/282
f 388/638/282 287/780/282 285/639/281
f 389/640/281 285/639/281 283/641/14
f 390/642/14 283/641/14 281/643/280
f 391/644/280 281/643/280 279/645/279
f 392/647/279 279/781/279 277/648/278
f 393/649/278 277/648/278 274/650/277
s 2
f 354/651/6 395/658/6 394/652/6
f 393/654/22 374/730/22 397/655/22
f 355/657/6 398/662/6 395/658/6
f 392/659/22 393/654/22 396/656/22
f 355/657/6 356/666/6 400/661/6
f 392/659/22 399/660/22 401/663/22
f 357/665/6 402/670/6 400/661/6
f 390/667/22 391/664/22 401/663/22
f 357/665/6 358/674/6 404/669/6
f 390/667/22 403/668/22 405/671/22
f 359/673/6 406/678/6 404/669/6
f 388/675/22 389/672/22 405/671/22
f 359/673/6 360/681/6 408/677/6
f 388/675/22 407/676/22 409/679/22
f 360/681/6 361/685/6 410/682/6
f 387/680/22 409/679/22 411/683/22
f 361/685/6 362/690/6 412/686/6
f 386/684/22 411/683/22 413/687/22
f 363/689/6 414/694/6 412/686/6
f 384/691/22 385/688/22 413/687/22
f 364/693/6 416/698/6 414/694/6
f 383/695/22 384/691/22 415/692/22
f 364/693/6 365/701/6 418/697/6
f 383/695/22 417/696/22 419/699/22
f 365/701/6 366/705/6 420/702/6
f 382/700/22 419/699/22 421/703/22
f 366/705/6 367/710/6 422/706/6
f 381/704/22 421/703/22 423/707/22
f 368/709/6 424/714/6 422/706/6
f 379/711/22 380/708/22 423/707/22
f 369/713/6 426/718/6 424/714/6
f 378/715/22 379/711/22 425/712/22
f 370/717/6 428/722/6 426/718/6
f 378/715/22 427/716/22 429/719/22
f 371/721/6 430/726/6 428/722/6
f 376/723/22 377/720/22 429/719/22
f 371/721/6 372/729/6 432/725/6
f 376/723/22 431/724/22 433/727/22
f 373/653/6 394/652/6 432/725/6
f 374/730/22 375/728/22 433/727/22
