# Blender 5.1.0
# www.blender.org
mtllib Radio.mtl
o LogNew
v 0.534485 -0.065460 0.838395
v 0.534485 0.095440 0.838395
v -0.547835 -0.065460 0.838395
v -0.547835 0.095440 0.838395
v 0.600720 0.235470 -0.351920
v 0.600720 0.298565 -0.416845
v 0.555435 0.260960 -0.312665
v 0.600720 0.162390 -0.320770
v 0.555435 0.171340 -0.274465
v -0.564320 0.260960 -0.312665
v -0.564320 0.336715 -0.390615
v 0.555435 0.336715 -0.390615
v 0.600720 0.328840 -0.492050
v -0.564320 0.171340 -0.274465
v 0.600720 0.070335 -0.320770
v 0.555435 0.070335 -0.274465
v -0.564320 0.070335 -0.274465
v -0.609605 0.070335 -0.320770
v -0.609605 0.162390 -0.320770
v -0.609605 0.235470 -0.351920
v -0.609605 0.298565 -0.416845
v -0.564320 0.373840 -0.482840
v 0.555435 0.373840 -0.482840
v 0.555435 0.399810 -0.837565
v 0.600720 0.354810 -0.837565
v 0.600720 0.328840 -1.183080
v 0.555435 0.373840 -1.192290
v -0.564320 0.399810 -0.837565
v -0.564320 0.373840 -1.192290
v -0.609605 0.328840 -0.492050
v -0.564320 0.336715 -1.284515
v 0.600720 0.298565 -1.258285
v 0.555435 0.336715 -1.284515
v -0.564320 0.260960 -1.362470
v -0.609605 0.354810 -0.837565
v -0.609605 0.328840 -1.183080
v -0.609605 0.298565 -1.258285
v -0.609605 0.235470 -1.323215
v -0.564320 0.171340 -1.400670
v -0.609605 0.162390 -1.354365
v -0.564320 0.070335 -1.400670
v -0.609605 0.070335 -1.354365
v 0.555435 0.070335 -1.400670
v 0.600720 0.235470 -1.323215
v 0.555435 0.260960 -1.362470
v 0.555435 0.171340 -1.400670
v 0.600720 0.070335 -1.354365
v 0.600720 0.162390 -1.354365
v -0.609605 0.070335 -0.837565
v -0.609605 0.162390 -1.354365
v -0.609605 0.070335 -1.354365
v -0.609605 0.162390 -0.320770
v -0.609605 0.235470 -0.351920
v -0.609605 0.070335 -0.320770
v -0.609605 0.328840 -0.492050
v -0.609605 0.354810 -0.837565
v -0.609605 0.328840 -1.183080
v -0.609605 0.235470 -1.323215
v -0.609605 0.298565 -1.258285
v -0.609605 0.298565 -0.416845
v 0.600720 0.070335 -0.837565
v 0.600720 0.162390 -0.320770
v 0.600720 0.070335 -0.320770
v 0.600720 0.162390 -1.354365
v 0.600720 0.235470 -1.323215
v 0.600720 0.070335 -1.354365
v 0.600720 0.328840 -1.183080
v 0.600720 0.354810 -0.837565
v 0.600720 0.328840 -0.492050
v 0.600720 0.235470 -0.351920
v 0.600720 0.298565 -0.416845
v 0.600720 0.298565 -1.258285
v 0.716865 0.051020 0.731080
v 0.716865 0.022450 0.688160
v 0.716865 0.108045 0.730985
v 0.716865 0.022235 0.564640
v 0.716865 0.136250 0.564440
v 0.716865 0.136470 0.687960
v 0.684390 0.108045 0.730985
v 0.684390 0.051020 0.731080
v 0.684390 0.022450 0.688160
v 0.684390 0.022235 0.564640
v 0.684390 0.136250 0.564440
v 0.684390 0.136470 0.687960
v -0.729325 0.108045 0.730985
v -0.729325 0.136470 0.687960
v -0.729325 0.051020 0.731080
v -0.729325 0.136250 0.564440
v -0.729325 0.022230 0.564640
v -0.729325 0.022450 0.688160
v -0.696845 0.051020 0.731080
v -0.696845 0.108045 0.730985
v -0.696845 0.136470 0.687960
v -0.696845 0.136250 0.564440
v -0.696845 0.022230 0.564640
v -0.696845 0.022450 0.688160
v 0.317455 0.387815 -1.135680
v 0.317455 0.417680 -1.148435
v 0.317455 0.339305 -1.249275
v 0.431475 0.369170 -1.262030
v 0.317455 0.369170 -1.262030
v 0.431475 0.417680 -1.148435
v 0.402980 0.352295 -1.301550
v 0.345955 0.352295 -1.301550
v 0.402980 0.322430 -1.288800
v 0.345955 0.322430 -1.288800
v 0.431475 0.387815 -1.135680
v 0.431475 0.339305 -1.249275
v 0.659215 0.084180 -0.208925
v 0.698680 0.084180 -0.278795
v 0.579785 0.084180 -0.190080
v -0.582070 0.084180 -0.190080
v 0.701145 0.084180 -0.439240
v 0.662195 0.084180 -1.370395
v 0.601885 0.084180 -1.435045
v 0.682840 0.084180 -1.257510
v 0.476145 0.084180 -1.467200
v -0.685125 0.084180 -1.257510
v -0.661500 0.084180 -0.208925
v -0.703435 0.084180 -0.439240
v -0.700965 0.084180 -0.278795
v -0.604170 0.084180 -1.435045
v -0.664480 0.084180 -1.370395
v -0.478435 0.084180 -1.467200
v 0.698680 -0.068885 -0.278795
v 0.659215 -0.068885 -0.208925
v 0.701145 -0.068885 -0.439240
v 0.682840 -0.068885 -1.257510
v 0.579785 -0.068885 -0.190080
v -0.661500 -0.068885 -0.208925
v -0.700965 -0.068885 -0.278795
v -0.582070 -0.068885 -0.190080
v -0.703435 -0.068885 -0.439235
v -0.478435 -0.068885 -1.467200
v 0.662195 -0.068885 -1.370395
v 0.476145 -0.068885 -1.467200
v 0.601885 -0.068885 -1.435045
v -0.664480 -0.068885 -1.370395
v -0.604170 -0.068885 -1.435045
v -0.685125 -0.068885 -1.257510
v 0.652720 0.144790 -0.871040
v 0.791865 0.144790 -0.202395
v 0.652720 0.007685 -0.871040
v 0.791865 0.007685 -0.202395
v 0.831330 0.144790 0.131925
v 0.831330 0.007685 0.131925
v 0.836245 0.144790 0.466245
v 0.836245 0.007685 0.466245
v 0.794330 0.144790 0.559015
v 0.794330 0.007685 0.559015
v 0.689255 0.144790 0.614565
v 0.689255 0.007685 0.614565
v 0.689255 0.007685 0.899430
v 0.689255 0.144790 0.899430
v 0.674255 0.159790 0.884415
v 0.668805 0.159790 0.614565
v 0.772565 0.159790 0.559015
v 0.821195 0.159790 0.463115
v 0.816280 0.159790 0.131925
v 0.776650 0.159790 -0.202395
v 0.638720 0.159790 -0.864680
v 0.540405 0.144790 -1.019930
v 0.540405 0.007685 -1.019930
v 0.532005 0.159790 -1.006155
v 0.599710 0.197435 -0.557775
v -0.603270 0.197435 -0.557775
v 0.599710 0.273185 -0.478550
v -0.603270 0.273185 -0.478550
v 0.599710 0.310310 -0.384820
v -0.603270 0.310310 -0.384820
v -0.651920 0.235040 -0.451890
v -0.651920 0.265310 -0.375460
v -0.603270 0.339810 -0.024315
v 0.599710 0.339810 -0.024315
v 0.648365 0.265310 -0.375460
v 0.648365 0.235040 -0.451890
v 0.648365 0.171945 -0.517875
v 0.648365 0.098860 -0.549535
v 0.599710 0.107810 -0.596595
v -0.603270 0.107810 -0.596595
v -0.651920 0.171945 -0.517875
v -0.651920 0.098860 -0.549535
v -0.411690 0.352295 -1.301550
v -0.440185 0.369170 -1.262030
v -0.354665 0.352295 -1.301550
v -0.440185 0.417680 -1.148435
v -0.326165 0.417680 -1.148435
v -0.326165 0.369170 -1.262030
v -0.354665 0.322430 -1.288800
v -0.411690 0.322430 -1.288800
v -0.440185 0.339305 -1.249275
v -0.440185 0.387815 -1.135680
v -0.326165 0.387815 -1.135680
v -0.326165 0.339305 -1.249275
v -0.354555 0.357985 -0.376855
v -0.326055 0.372130 -0.417430
v -0.411580 0.357985 -0.376855
v -0.326055 0.412795 -0.534065
v -0.440075 0.412795 -0.534065
v -0.440075 0.372130 -0.417430
v -0.411580 0.327320 -0.387545
v -0.354555 0.327320 -0.387545
v -0.326055 0.341465 -0.428120
v -0.326055 0.382130 -0.544755
v -0.440075 0.382130 -0.544755
v -0.440075 0.341465 -0.428120
v 0.402980 0.357985 -0.376855
v 0.431475 0.372130 -0.417430
v 0.345955 0.357985 -0.376855
v 0.431475 0.412795 -0.534065
v 0.317455 0.412795 -0.534065
v 0.317455 0.372130 -0.417430
v 0.345955 0.327320 -0.387545
v 0.402980 0.327320 -0.387545
v 0.431475 0.341465 -0.428120
v 0.431475 0.382130 -0.544755
v 0.317455 0.382130 -0.544755
v 0.317455 0.341465 -0.428120
v 0.797705 0.187310 0.223120
v 0.754730 0.187310 0.194625
v 0.797705 0.187310 0.280150
v 0.631210 0.187310 0.194625
v 0.631210 0.187310 0.308645
v 0.754730 0.187310 0.308645
v 0.797705 0.154835 0.280150
v 0.797705 0.154835 0.223120
v 0.754730 0.154835 0.194625
v 0.631210 0.154835 0.194625
v 0.631210 0.154835 0.308645
v 0.754730 0.154835 0.308645
v -0.799050 0.187310 0.280150
v -0.756075 0.187310 0.308645
v -0.799050 0.187310 0.223120
v -0.632555 0.187310 0.308645
v -0.632555 0.187310 0.194625
v -0.756075 0.187310 0.194625
v -0.799050 0.154835 0.223120
v -0.799050 0.154835 0.280150
v -0.756075 0.154835 0.308645
v -0.632555 0.154835 0.308645
v -0.632555 0.154835 0.194625
v -0.756075 0.154835 0.194625
v -0.606915 0.120475 0.756450
v -0.606915 0.120475 1.248240
v -0.595995 0.135940 0.756450
v -0.526285 0.138845 1.178775
v -0.500130 0.138845 1.204470
v -0.516720 0.120470 1.170535
v -0.516720 0.096440 0.756450
v -0.527645 0.117730 0.756450
v -0.597350 0.138845 1.240000
v -0.580145 0.120475 1.273410
v -0.570315 0.138845 1.264940
v -0.394735 0.120460 1.288015
v -0.390700 0.138845 1.277330
v -0.364385 0.138845 1.207585
v -0.331200 0.151035 1.200695
v -0.364945 0.142870 1.293190
v -0.340065 0.155725 1.330455
v -0.294760 0.161575 1.172550
v -0.006705 0.155880 1.344965
v -0.007060 0.161700 1.180645
v 0.280635 0.161420 1.173070
v -0.007085 0.144300 1.169590
v -0.290905 0.144205 1.159110
v -0.334260 0.130240 1.190970
v -0.349085 0.122515 1.195705
v -0.489955 0.120475 1.195705
v 0.326630 0.156260 1.333245
v 0.350680 0.143100 1.293070
v 0.315235 0.151925 1.198740
v 0.348495 0.138845 1.207860
v 0.376295 0.138845 1.277405
v 0.483615 0.138845 1.204545
v 0.551695 0.138845 1.264870
v 0.578445 0.138845 1.239700
v 0.509725 0.138845 1.178810
v 0.473640 0.120475 1.195705
v 0.332815 0.122695 1.195705
v 0.317750 0.131105 1.189825
v 0.276735 0.143990 1.159770
v 0.500235 0.120470 1.170400
v 0.355060 0.123550 1.304745
v 0.380540 0.120455 1.288015
v 0.561330 0.120475 1.273410
v 0.587930 0.120475 1.248110
v 0.587930 0.120475 0.756450
v 0.577020 0.135855 0.756450
v 0.511150 0.117810 0.756450
v 0.500235 0.096440 0.756450
v -0.603270 0.197435 0.509145
v 0.599710 0.197435 0.509145
v -0.603270 0.273185 0.429920
v 0.599710 0.273185 0.429920
v -0.603270 0.310310 0.336195
v 0.599710 0.310310 0.336195
v -0.651920 0.265310 0.326835
v -0.651920 0.235040 0.403265
v -0.651920 0.171945 0.469250
v -0.651920 0.098860 0.500910
v -0.603270 0.107810 0.547970
v 0.599710 0.107810 0.547970
v -0.651920 0.294810 -0.024315
v 0.648365 0.098860 0.500910
v 0.648365 0.171945 0.469250
v 0.648365 0.235040 0.403265
v 0.648365 0.265310 0.326835
v 0.648365 0.294810 -0.024315
v -0.651920 0.235040 0.403265
v -0.651920 0.265310 0.326835
v -0.651920 0.171945 0.469250
v -0.651920 0.034435 0.500910
v -0.651920 0.294810 -0.024315
v -0.651920 0.034435 -0.024315
v -0.651920 0.265310 -0.375460
v -0.651920 0.098860 -0.549535
v -0.651920 0.171945 -0.517875
v -0.651920 0.235040 -0.451890
v -0.651920 0.098860 0.500910
v -0.651920 0.034435 -0.549535
v 0.587930 0.035425 0.756450
v 0.587930 0.035425 1.248110
v 0.576870 0.017050 0.756450
v 0.511295 0.017050 0.756450
v 0.509725 0.017050 1.178810
v 0.578445 0.017050 1.239700
v 0.561330 0.035425 1.273410
v 0.551695 0.017050 1.264870
v 0.380540 0.035425 1.288015
v 0.376295 0.017050 1.277400
v 0.355040 0.035185 1.304785
v 0.350560 0.015970 1.293350
v 0.330185 0.021845 1.342605
v 0.483615 0.017050 1.204545
v 0.348570 0.017050 1.208050
v 0.313030 0.008885 1.197295
v 0.326605 0.002440 1.329885
v 0.280655 -0.007645 1.173135
v -0.006705 0.002810 1.341450
v -0.007060 -0.007930 1.180645
v 0.276735 0.009645 1.159770
v 0.317120 0.028460 1.189385
v 0.332475 0.033705 1.195705
v 0.473640 0.035425 1.195705
v 0.500235 0.035425 1.170400
v 0.500235 0.035425 0.756450
v -0.489955 0.035425 1.195705
v -0.348745 0.033895 1.195705
v -0.500130 0.017050 1.204470
v -0.364440 0.017050 1.207730
v -0.333870 0.029120 1.190645
v -0.329420 0.009540 1.199600
v -0.290905 0.006040 1.159110
v -0.294785 -0.011185 1.172635
v -0.007085 0.009470 1.169590
v -0.340040 0.002975 1.330375
v -0.364785 0.016145 1.293290
v -0.390700 0.017050 1.277325
v -0.570315 0.017050 1.264940
v -0.526285 0.017050 1.178775
v -0.597350 0.017050 1.240000
v -0.516720 0.035425 1.170535
v -0.580145 0.035425 1.273410
v -0.606915 0.035425 1.248240
v -0.606915 0.035425 0.756450
v -0.595855 0.017050 0.756450
v -0.527780 0.017050 0.756450
v -0.516720 0.035425 0.756450
v -0.006680 0.022135 1.353005
v -0.343545 0.022445 1.342595
v -0.369145 0.035330 1.304810
v -0.394735 0.035425 1.288015
v 0.836245 0.007685 0.466245
v 0.794330 0.007685 0.559015
v 0.831330 0.007685 0.131925
v 0.216850 0.007685 -1.076150
v 0.540405 0.007685 -1.019930
v -0.228640 0.007685 -1.076150
v -0.664505 0.007685 -0.871040
v 0.791865 0.007685 -0.202395
v -0.803650 0.007685 -0.202395
v -0.843120 0.007685 0.131925
v -0.848030 0.007685 0.466245
v -0.806120 0.007685 0.559015
v 0.689255 0.007685 0.614565
v -0.710565 0.007685 0.614565
v 0.689255 0.007685 0.899430
v -0.710565 0.007685 0.899430
v -0.351370 0.401195 -1.108775
v -0.395940 0.401975 -1.093770
v 0.331625 0.401195 -1.108415
v -0.412150 0.404245 -1.050660
v -0.423945 0.416980 -0.838585
v -0.360120 0.401195 -0.581000
v -0.396530 0.401975 -0.594545
v -0.413280 0.404245 -0.634015
v 0.356990 0.401195 -0.579910
v 0.396515 0.401975 -0.597205
v 0.411055 0.404245 -0.636675
v 0.421070 0.416980 -0.838585
v 0.395245 0.401975 -1.094515
v 0.413625 0.404245 -1.055040
v -0.650510 0.159790 -0.864680
v -0.788440 0.159790 -0.202395
v -0.543790 0.159790 -1.006155
v 0.674255 0.159790 0.884415
v 0.668805 0.159790 0.614565
v -0.695565 0.159790 0.884415
v -0.690595 0.159790 0.614565
v 0.772565 0.159790 0.559015
v -0.784895 0.159790 0.559015
v 0.821195 0.159790 0.463115
v 0.816280 0.159790 0.131925
v -0.828065 0.159790 0.131925
v 0.776650 0.159790 -0.202395
v 0.638720 0.159790 -0.864680
v 0.215560 0.159790 -1.061135
v -0.227350 0.159790 -1.061135
v -0.832985 0.159790 0.463115
v 0.532005 0.159790 -1.006155
v -0.540970 0.308465 -1.074660
v -0.511135 0.304335 -1.146425
v -0.540970 0.322055 -0.838575
v -0.427370 0.301950 -1.187840
v -0.499400 0.303660 -1.158115
v 0.416535 0.301950 -1.187840
v 0.488565 0.303660 -1.158115
v -0.511135 0.304335 -0.530725
v -0.540970 0.308465 -0.602490
v -0.499400 0.303660 -0.519035
v 0.416535 0.301950 -0.489305
v 0.530135 0.322055 -0.838575
v 0.530135 0.308465 -1.074660
v 0.500300 0.304335 -1.146425
v -0.427370 0.301950 -0.489305
v 0.530135 0.308465 -0.602490
v 0.500300 0.304335 -0.530725
v 0.488565 0.303660 -0.519035
v -0.606915 0.035425 1.248240
v -0.606915 0.120475 1.248240
v -0.606915 0.035425 0.756450
v -0.606915 0.120475 0.756450
v 0.587930 0.035425 0.756450
v 0.587930 0.120475 0.756450
v 0.587930 0.035425 1.248110
v 0.587930 0.120475 1.248110
v -0.548130 0.231565 -0.331785
v -0.541520 0.378800 -0.331785
v 0.550595 0.231565 -0.331785
v 0.543485 0.378800 -0.331785
v -0.470335 0.378800 -0.261240
v 0.468465 0.378800 -0.261240
v 0.588105 0.378800 -0.288030
v 0.513085 0.378800 -0.217485
v 0.588105 0.378800 0.354285
v 0.513085 0.378800 0.299265
v 0.540850 0.378800 0.396175
v 0.465830 0.378800 0.341150
v 0.550595 0.231565 -0.331785
v 0.543485 0.378800 -0.331785
v 0.588105 0.231565 -0.293895
v 0.588105 0.231565 0.358280
v 0.550595 0.231565 0.396175
v 0.540850 0.378800 0.396175
v 0.550595 0.231565 0.396175
v -0.548130 0.231565 0.396175
v -0.538980 0.378800 0.396175
v -0.467795 0.378800 0.341150
v -0.585640 0.378800 0.353935
v -0.514455 0.378800 0.298915
v -0.585640 0.378800 -0.287565
v -0.514455 0.378800 -0.217025
v -0.548130 0.231565 0.396175
v -0.538980 0.378800 0.396175
v -0.585640 0.231565 0.358280
v -0.585640 0.231565 -0.293895
v -0.548130 0.231565 -0.331785
v -0.541520 0.378800 -0.331785
v 0.652720 0.007685 -0.871040
v -0.604170 0.084180 -1.435045
v -0.478435 0.084180 -1.467200
v -0.604170 -0.068885 -1.435045
v -0.478435 -0.068885 -1.467200
v 0.476145 -0.068885 -1.467200
v 0.476145 0.084180 -1.467200
v 0.601885 0.084180 -1.435045
v 0.601885 -0.068885 -1.435045
v 0.659215 0.084180 -0.208925
v 0.579785 0.084180 -0.190080
v 0.659215 -0.068885 -0.208925
v 0.579785 -0.068885 -0.190080
v -0.582070 -0.068885 -0.190080
v -0.582070 0.084180 -0.190080
v -0.661500 0.084180 -0.208925
v -0.661500 -0.068885 -0.208925
v 0.590990 -0.065460 0.795890
v 0.534485 -0.065460 0.838395
v 0.586745 -0.065460 0.386080
v -0.595815 -0.065460 0.785990
v -0.547835 -0.065460 0.838395
v -0.584340 -0.065460 0.386080
v -0.547070 -0.065460 0.290790
v -0.418600 -0.065460 0.237285
v 0.436995 -0.065460 0.237285
v 0.548895 -0.065460 0.290790
v 0.473640 0.120475 1.195705
v 0.325175 0.044610 1.195705
v 0.332815 0.122695 1.195705
v 0.325175 0.111285 1.195705
v 0.317750 0.131105 1.189825
v 0.276735 0.143990 1.159770
v 0.500235 0.035425 0.756450
v 0.500235 0.035425 1.170400
v 0.500235 0.096440 0.756450
v 0.500235 0.120470 1.170400
v 0.473640 0.035425 1.195705
v 0.332475 0.033705 1.195705
v 0.317120 0.028460 1.189385
v 0.276735 0.009645 1.159770
v -0.007085 0.009470 1.169590
v -0.007085 0.144300 1.169590
v -0.290905 0.006040 1.159110
v -0.290905 0.144205 1.159110
v -0.341645 0.044610 1.195705
v -0.334260 0.130240 1.190970
v -0.341645 0.111285 1.195705
v -0.349085 0.122515 1.195705
v -0.489955 0.120475 1.195705
v -0.489955 0.035425 1.195705
v -0.348745 0.033895 1.195705
v -0.333870 0.029120 1.190645
v -0.516720 0.120470 1.170535
v -0.516720 0.035425 1.170535
v -0.516720 0.035425 0.756450
v -0.516720 0.096440 0.756450
v 0.674255 0.159790 0.884415
v -0.695565 0.159790 0.884415
v 0.689255 0.144790 0.899430
v -0.710565 0.144790 0.899430
v -0.710565 0.007685 0.899430
v 0.689255 0.007685 0.899430
v -0.690595 0.159790 0.614565
v -0.784895 0.159790 0.559015
v -0.710565 0.144790 0.614565
v -0.806120 0.144790 0.559015
v -0.832985 0.159790 0.463115
v -0.848030 0.144790 0.466245
v -0.828065 0.159790 0.131925
v -0.843120 0.144790 0.131925
v -0.803650 0.007685 -0.202395
v -0.843120 0.007685 0.131925
v -0.803650 0.144790 -0.202395
v -0.848030 0.007685 0.466245
v -0.806120 0.007685 0.559015
v -0.710565 0.007685 0.614565
v -0.710565 0.007685 0.899430
v -0.710565 0.144790 0.899430
v -0.695565 0.159790 0.884415
v -0.552195 0.007685 -1.019930
v -0.788440 0.159790 -0.202395
v -0.650510 0.159790 -0.864680
v -0.664505 0.144790 -0.871040
v -0.543790 0.159790 -1.006155
v -0.552195 0.144790 -1.019930
v -0.552195 0.007685 -1.019930
v -0.664505 0.007685 -0.871040
v -0.543790 0.159790 -1.006155
v -0.227350 0.159790 -1.061135
v -0.552195 0.144790 -1.019930
v -0.228640 0.144790 -1.076150
v 0.215560 0.159790 -1.061135
v 0.216850 0.144790 -1.076150
v 0.532005 0.159790 -1.006155
v 0.540405 0.144790 -1.019930
v 0.540405 0.007685 -1.019930
v 0.216850 0.007685 -1.076150
v -0.228640 0.007685 -1.076150
v -0.552195 0.007685 -1.019930
v -0.484450 0.425630 0.275570
v -0.348770 0.463130 0.160960
v -0.484450 0.425630 -0.190835
v 0.483080 0.403130 -0.188595
v 0.483080 0.425630 -0.190665
v 0.483080 0.403130 0.275550
v 0.436925 0.425630 -0.232510
v 0.438635 0.403130 -0.232510
v -0.437985 0.425630 -0.232510
v -0.440005 0.403130 -0.232510
v -0.348770 0.463130 -0.086405
v -0.290560 0.463130 0.208725
v -0.287730 0.463130 -0.132700
v 0.291260 0.463130 -0.132700
v 0.351235 0.463130 0.160480
v 0.293980 0.463130 0.208725
v 0.351235 0.463130 -0.085990
v -0.438830 0.425630 0.317830
v 0.437755 0.425630 0.317830
v 0.483080 0.425630 0.275385
v -0.484450 0.403130 -0.188595
v -0.484450 0.403130 0.275550
v -0.437850 0.403130 0.317830
v 0.436475 0.403130 0.317830
v 0.468465 0.378800 -0.261240
v 0.468640 0.403130 -0.261240
v 0.513085 0.378800 -0.217485
v 0.513085 0.403130 -0.217330
v 0.513085 0.378800 0.299265
v 0.513085 0.403130 0.298875
v 0.465830 0.378800 0.341150
v 0.466485 0.403130 0.341150
v -0.467855 0.403130 0.341150
v -0.514455 0.403130 0.298875
v -0.514455 0.403130 -0.217330
v -0.470015 0.403130 -0.261240
v -0.467795 0.378800 0.341150
v -0.514455 0.378800 0.298915
v -0.514455 0.378800 -0.217025
v -0.470335 0.378800 -0.261240
v 0.648365 0.098860 -0.549535
v 0.648365 0.171945 -0.517875
v 0.648365 0.034435 -0.549535
v 0.648365 0.235040 -0.451890
v 0.648365 0.265310 -0.375460
v 0.648365 0.294810 -0.024315
v 0.648365 0.034435 -0.024315
v 0.648365 0.265310 0.326835
v 0.648365 0.098860 0.500910
v 0.648365 0.171945 0.469250
v 0.648365 0.235040 0.403265
v 0.648365 0.034435 0.500910
v -0.006680 0.136570 1.355515
v -0.343545 0.136190 1.342595
v -0.006680 0.022135 1.353005
v -0.343545 0.022445 1.342595
v -0.369165 0.123390 1.304770
v -0.369145 0.035330 1.304810
v -0.394735 0.035425 1.288015
v -0.394735 0.120460 1.288015
v -0.580145 0.120475 1.273410
v -0.580145 0.035425 1.273410
v -0.606915 0.035425 1.248240
v -0.606915 0.120475 1.248240
v -0.651920 0.034435 -0.549535
v -0.603270 0.034435 -0.596595
v 0.599710 0.034435 -0.596595
v 0.648365 0.034435 -0.549535
v -0.547835 -0.065460 0.838395
v -0.547835 0.095440 0.838395
v -0.595815 -0.065460 0.785990
v -0.595815 0.095440 0.785990
v -0.584340 -0.065460 0.386080
v -0.584340 0.095440 0.386080
v -0.547070 -0.065460 0.290790
v -0.547070 0.095440 0.290790
v -0.547070 -0.065460 0.290790
v -0.547070 0.095440 0.290790
v -0.418600 -0.065460 0.237285
v -0.418600 0.095440 0.237285
v 0.436995 -0.065460 0.237285
v 0.436995 0.095440 0.237285
v 0.548895 -0.065460 0.290790
v 0.548895 0.095440 0.290790
v 0.548895 -0.065460 0.290790
v 0.548895 0.095440 0.290790
v 0.586745 -0.065460 0.386080
v 0.586745 0.095440 0.386080
v 0.590990 -0.065460 0.795890
v 0.590990 0.095440 0.795890
v 0.534485 -0.065460 0.838395
v 0.534485 0.095440 0.838395
v -0.427370 0.422455 -1.187840
v -0.351375 0.426775 -1.108760
v 0.416535 0.422455 -1.187840
v 0.331620 0.426775 -1.108400
v 0.488565 0.424165 -1.158115
v 0.395245 0.427555 -1.094500
v 0.413625 0.404245 -1.055040
v 0.413620 0.429830 -1.055030
v 0.395245 0.401975 -1.094515
v 0.331625 0.401195 -1.108415
v -0.351370 0.401195 -1.108775
v -0.395940 0.401975 -1.093770
v -0.395940 0.427555 -1.093760
v -0.499400 0.424165 -1.158115
v 0.488565 0.303660 -1.158115
v 0.500300 0.304335 -1.146425
v 0.416535 0.301950 -1.187840
v -0.427370 0.301950 -1.187840
v -0.499400 0.303660 -1.158115
v -0.511135 0.424840 -1.146425
v -0.511135 0.304335 -1.146425
v -0.540970 0.428970 -1.074660
v -0.412155 0.429830 -1.050645
v -0.423950 0.442560 -0.838575
v -0.540970 0.442560 -0.838575
v -0.413280 0.429830 -0.634005
v -0.540970 0.428970 -0.602490
v -0.396535 0.427555 -0.594530
v -0.412150 0.404245 -1.050660
v -0.423945 0.416980 -0.838585
v -0.413280 0.404245 -0.634015
v -0.396530 0.401975 -0.594545
v -0.360120 0.401195 -0.581000
v -0.360125 0.426775 -0.580985
v -0.540970 0.308465 -1.074660
v -0.540970 0.322055 -0.838575
v -0.540970 0.308465 -0.602490
v -0.511135 0.424840 -0.530725
v -0.499400 0.424165 -0.519035
v -0.427370 0.422455 -0.489305
v -0.511135 0.304335 -0.530725
v -0.499400 0.303660 -0.519035
v -0.427370 0.301950 -0.489305
v 0.416535 0.422455 -0.489305
v 0.416535 0.301950 -0.489305
v 0.488565 0.424165 -0.519035
v 0.488565 0.303660 -0.519035
v 0.356985 0.426775 -0.579900
v 0.396510 0.427555 -0.597190
v 0.500300 0.424840 -0.530725
v 0.500300 0.304335 -0.530725
v 0.530135 0.428970 -0.602490
v 0.530135 0.308465 -0.602490
v 0.530135 0.322055 -0.838575
v 0.411055 0.429830 -0.636665
v 0.421070 0.442560 -0.838575
v 0.530135 0.442560 -0.838575
v 0.530135 0.428970 -1.074660
v 0.500300 0.424840 -1.146425
v 0.530135 0.308465 -1.074660
v 0.356990 0.401195 -0.579910
v 0.396515 0.401975 -0.597205
v 0.411055 0.404245 -0.636675
v 0.421070 0.416980 -0.838585
v -0.369165 0.123390 1.304770
v -0.343545 0.136190 1.342595
v -0.006680 0.136570 1.355515
v 0.330185 0.136745 1.345120
v 0.587930 0.035425 1.248110
v 0.587930 0.120475 1.248110
v 0.561330 0.035425 1.273410
v 0.561330 0.120475 1.273410
v 0.380540 0.120455 1.288015
v 0.380540 0.035425 1.288015
v 0.355040 0.035185 1.304785
v 0.355060 0.123550 1.304745
v 0.330185 0.136745 1.345120
v 0.330185 0.021845 1.342605
v -0.661500 -0.068885 -0.208925
v -0.661500 0.084180 -0.208925
v -0.700965 -0.068885 -0.278795
v -0.700965 0.084180 -0.278795
v -0.703435 0.084180 -0.439240
v -0.703435 -0.068885 -0.439235
v -0.685125 -0.068885 -1.257510
v -0.685125 0.084180 -1.257510
v -0.664480 0.084180 -1.370395
v -0.664480 -0.068885 -1.370395
v -0.604170 -0.068885 -1.435045
v -0.604170 0.084180 -1.435045
v 0.601885 -0.068885 -1.435045
v 0.601885 0.084180 -1.435045
v 0.662195 -0.068885 -1.370395
v 0.662195 0.084180 -1.370395
v 0.682840 0.084180 -1.257510
v 0.682840 -0.068885 -1.257510
v 0.701145 -0.068885 -0.439240
v 0.701145 0.084180 -0.439240
v 0.698680 0.084180 -0.278795
v 0.698680 -0.068885 -0.278795
v 0.659215 -0.068885 -0.208925
v 0.659215 0.084180 -0.208925
v 0.648365 0.034435 0.500910
v 0.599710 0.034435 0.547970
v -0.603270 0.034435 0.547970
v -0.651920 0.034435 0.500910
vn -0.0000 -0.0000 1.0000
vn 0.7098 0.5051 0.4909
vn 0.7134 0.2748 0.6446
vn -0.0000 0.3921 0.9199
vn -0.0000 0.7171 0.6969
vn 0.7099 0.5051 0.4909
vn 0.7063 0.6567 0.2644
vn 0.7149 -0.0000 0.6992
vn -0.7149 -0.0000 0.6992
vn -0.7134 0.2748 0.6446
vn -0.7098 0.5051 0.4909
vn -0.7099 0.5051 0.4909
vn -0.7063 0.6567 0.2643
vn -0.0000 0.9277 0.3734
vn 0.7063 0.6567 0.2643
vn 0.7092 0.7031 0.0515
vn 0.7039 0.7083 0.0532
vn 0.7039 0.7083 -0.0532
vn 0.7092 0.7031 -0.0515
vn -0.0000 0.9973 -0.0730
vn -0.0000 0.9973 0.0730
vn -0.7092 0.7031 0.0515
vn -0.7063 0.6567 0.2644
vn -0.0000 0.9277 -0.3734
vn 0.7063 0.6567 -0.2644
vn 0.7063 0.6567 -0.2643
vn -0.0000 0.7172 -0.6969
vn -0.7039 0.7083 -0.0532
vn -0.7039 0.7083 0.0532
vn -0.7092 0.7031 -0.0515
vn -0.7063 0.6567 -0.2643
vn -0.7063 0.6567 -0.2644
vn -0.7099 0.5051 -0.4909
vn -0.7098 0.5051 -0.4909
vn -0.7134 0.2748 -0.6446
vn -0.7149 -0.0000 -0.6992
vn -0.0000 -0.0000 -1.0000
vn 0.7099 0.5051 -0.4909
vn 0.7098 0.5051 -0.4909
vn -0.0000 0.3921 -0.9199
vn 0.7149 -0.0000 -0.6992
vn 0.7134 0.2748 -0.6446
vn -1.0000 -0.0000 -0.0000
vn 1.0000 -0.0000 -0.0000
vn -0.0000 0.8344 0.5512
vn -0.0000 0.0017 1.0000
vn -0.0000 -0.8324 0.5541
vn -0.0000 -1.0000 0.0017
vn -0.0000 -0.0018 -1.0000
vn -0.0000 1.0000 -0.0018
vn -0.0000 -1.0000 0.0018
vn -0.0000 0.9197 -0.3927
vn -0.0000 -0.3926 -0.9197
vn -0.8334 -0.2170 -0.5083
vn -0.8334 -0.2171 -0.5083
vn -0.0000 0.3928 0.9196
vn 0.8334 -0.2170 -0.5082
vn 0.8334 -0.2170 -0.5083
vn -0.0000 1.0000 -0.0000
vn -0.0000 -1.0000 -0.0000
vn 0.9790 -0.0000 -0.2037
vn 0.9931 -0.0000 -0.1172
vn 0.9999 -0.0000 -0.0147
vn 0.9113 -0.0000 0.4117
vn 0.4674 -0.0000 0.8841
vn 0.7071 0.7071 -0.0000
vn 0.5914 0.8063 -0.0119
vn 0.3942 0.5374 0.7456
vn 0.3894 0.5650 0.7274
vn 0.5497 0.7976 0.2484
vn 0.6341 0.7033 0.3215
vn 0.7070 0.7072 -0.0104
vn 0.7059 0.7082 -0.0105
vn 0.7035 0.7058 -0.0830
vn 0.6996 0.7097 -0.0829
vn 0.6947 0.7046 -0.1446
vn 0.6922 0.7072 -0.1442
vn 0.5644 0.7073 -0.4257
vn 0.7983 -0.0000 -0.6022
vn 0.5645 0.7071 -0.4258
vn -0.0000 0.7228 -0.6911
vn -0.0000 0.9297 -0.3683
vn -0.6870 0.5252 -0.5022
vn -0.6813 0.6806 -0.2695
vn -0.6813 0.6805 -0.2695
vn -0.6840 0.7271 -0.0595
vn -0.0000 0.9967 -0.0816
vn 0.6813 0.6806 -0.2695
vn 0.6813 0.6806 -0.2696
vn 0.6870 0.5252 -0.5022
vn 0.6928 0.2866 -0.6617
vn -0.0000 0.3975 -0.9176
vn -0.6928 0.2866 -0.6617
vn -0.8334 -0.2170 -0.5082
vn -0.8334 -0.2171 -0.5082
vn 0.8334 -0.2171 -0.5083
vn -0.0000 0.9443 0.3292
vn -0.8334 -0.1819 0.5219
vn -0.0000 -0.3292 0.9443
vn 0.8334 -0.1819 0.5219
vn -0.0000 0.3292 -0.9443
vn 0.5526 -0.0000 0.8334
vn 0.5526 -0.0000 -0.8334
vn -0.5526 -0.0000 -0.8334
vn -0.5526 -0.0000 0.8334
vn -0.8169 0.5768 -0.0000
vn 0.5783 0.5650 -0.5886
vn 0.8816 0.4712 -0.0273
vn 0.8894 0.4564 -0.0257
vn 0.2571 0.9651 -0.0491
vn -0.0052 1.0000 -0.0060
vn -0.8879 0.4600 -0.0053
vn -0.5655 0.5643 0.6015
vn -0.5550 0.5744 0.6017
vn -0.0702 0.4484 0.8911
vn -0.0591 0.5113 0.8574
vn -0.3667 0.9200 -0.1383
vn -0.1695 0.9852 0.0251
vn -0.3862 0.9205 -0.0597
vn -0.3170 0.9468 -0.0559
vn -0.0021 0.9993 0.0364
vn -0.0014 0.9994 0.0354
vn -0.0217 0.5362 -0.8438
vn 0.0310 0.5360 -0.8437
vn 0.0219 0.6148 -0.7883
vn -0.6237 0.3870 -0.6791
vn -0.6296 0.4032 -0.6641
vn -0.4701 0.4297 -0.7709
vn -0.3120 0.3502 -0.8832
vn -0.0084 0.5831 -0.8124
vn 0.0206 0.4398 -0.8979
vn 0.5541 0.5880 -0.5893
vn 0.0019 0.9994 0.0354
vn -0.0000 0.9995 0.0322
vn 0.3752 0.9237 -0.0780
vn 0.2734 0.9618 -0.0127
vn 0.3786 0.9239 -0.0558
vn 0.1321 0.9898 -0.0528
vn -0.5686 0.5864 -0.5769
vn 0.0068 0.4306 -0.9025
vn -0.0194 0.6132 -0.7897
vn 0.4549 0.2097 -0.8655
vn 0.3858 0.4021 -0.8303
vn 0.6219 0.3705 -0.6899
vn 0.6156 0.3864 -0.6868
vn -0.0267 0.6102 -0.7918
vn -0.5680 0.5666 -0.5970
vn 0.5115 0.5221 0.6824
vn 0.5078 0.5155 0.6903
vn 0.0692 0.5105 0.8571
vn 0.0637 0.4480 0.8918
vn 0.5650 0.5725 0.5941
vn 0.5648 0.5664 0.6002
vn 0.8885 0.4588 -0.0000
vn 0.8156 0.5786 -0.0060
vn 0.0055 1.0000 -0.0062
vn -0.2639 0.9633 -0.0489
vn -0.8832 0.4682 -0.0263
vn -0.8902 0.4547 -0.0264
vn -0.0000 0.7228 0.6911
vn -0.0000 0.9297 0.3683
vn -0.0000 0.9967 0.0816
vn -0.6840 0.7271 0.0595
vn -0.6813 0.6805 0.2695
vn -0.6813 0.6806 0.2696
vn -0.6870 0.5252 0.5022
vn -0.6928 0.2866 0.6617
vn -0.0000 0.3975 0.9176
vn -0.6777 0.7327 -0.0616
vn -0.6777 0.7327 0.0616
vn 0.6928 0.2867 0.6617
vn 0.6870 0.5252 0.5022
vn 0.6869 0.5253 0.5022
vn 0.6813 0.6806 0.2696
vn 0.6839 0.7271 0.0595
vn 0.6777 0.7328 0.0616
vn 0.6777 0.7328 -0.0616
vn 0.6839 0.7271 -0.0595
vn 0.8568 -0.5157 -0.0000
vn 0.8891 -0.4576 -0.0029
vn 0.5679 -0.5665 0.5971
vn 0.5620 -0.5723 0.5972
vn 0.0719 -0.4511 0.8896
vn 0.0613 -0.5099 0.8581
vn 0.4727 -0.5201 0.7113
vn 0.4625 -0.5306 0.7103
vn 0.8187 -0.4224 0.3890
vn 0.2516 -0.9626 -0.1006
vn 0.0703 -0.9965 0.0460
vn 0.3893 -0.9172 -0.0844
vn 0.5072 -0.8567 -0.0936
vn 0.0011 -0.9980 0.0639
vn 0.0027 -0.9978 0.0666
vn 0.6551 -0.3635 -0.6624
vn 0.6704 -0.3941 -0.6287
vn 0.4637 -0.4135 -0.7835
vn 0.3414 -0.3240 -0.8823
vn 0.0072 -0.5910 -0.8067
vn -0.0233 -0.4436 -0.8959
vn -0.5587 -0.5858 -0.5872
vn -0.5782 -0.5671 -0.5866
vn -0.8885 -0.4589 -0.0000
vn -0.8568 -0.5157 -0.0032
vn -0.0046 -0.4284 -0.9036
vn 0.0193 -0.5928 -0.8051
vn -0.3865 -0.2695 -0.8820
vn -0.2926 -0.4519 -0.8427
vn -0.6728 -0.4287 -0.6029
vn -0.6959 -0.3399 -0.6326
vn 0.0364 -0.6222 -0.7820
vn 0.0296 -0.5360 -0.8437
vn -0.0289 -0.5361 -0.8437
vn -0.0200 -0.6143 -0.7888
vn 0.0094 -0.9977 0.0666
vn -0.0034 -0.9961 0.0884
vn -0.5605 -0.8236 -0.0869
vn -0.3762 -0.9233 -0.0769
vn -0.2122 -0.9772 -0.0112
vn -0.0283 -0.9995 -0.0107
vn 0.5665 -0.5887 -0.5766
vn 0.5656 -0.5642 -0.6015
vn -0.0616 -0.4448 0.8935
vn -0.5606 -0.5747 0.5962
vn -0.5600 -0.5638 0.6071
vn -0.8870 -0.4617 -0.0000
vn -0.8568 -0.5157 -0.0026
vn 0.8864 -0.4628 -0.0031
vn 0.8254 -0.4080 0.3901
vn 0.0253 -0.5513 0.8339
vn 0.0292 -0.5130 0.8579
vn -0.0270 -0.5130 0.8580
vn -0.0283 -0.5350 0.8444
vn -0.8148 -0.4062 0.4135
vn -0.8161 -0.4224 0.3945
vn -0.4664 -0.5309 0.7076
vn -0.4612 -0.5197 0.7192
vn -0.0674 -0.5127 0.8559
vn -0.0000 0.9987 -0.0518
vn -0.0000 0.9986 -0.0526
vn -0.0006 0.9982 -0.0600
vn -0.0015 0.9981 0.0615
vn -0.0127 0.9979 0.0628
vn -0.0001 0.9990 0.0449
vn 0.0002 0.9983 0.0575
vn 0.0005 0.9981 0.0611
vn -0.0000 0.9980 0.0629
vn -0.0000 0.9983 -0.0584
vn 0.0006 0.9983 -0.0586
vn 0.0031 0.9983 -0.0588
vn -0.0000 -0.9983 0.0575
vn 0.0001 -0.9983 0.0578
vn -0.0000 -0.9983 0.0574
vn -0.0003 -0.9984 -0.0573
vn -0.0000 -0.9983 -0.0575
vn 0.0003 -0.9984 0.0573
vn -0.0000 -0.9984 -0.0574
vn -0.0002 -0.9983 -0.0578
vn 0.7102 0.0343 -0.7031
vn 0.6999 0.0284 -0.7137
vn 0.7106 0.0191 0.7034
vn 0.6627 0.0439 0.7476
vn -0.7100 0.0441 0.7028
vn -0.6710 0.0219 0.7412
vn -0.7103 0.0302 -0.7032
vn -0.7075 0.0318 -0.7059
vn -0.2478 -0.0000 -0.9688
vn 0.2478 -0.0000 -0.9688
vn 0.2308 -0.0000 0.9730
vn -0.2308 -0.0000 0.9730
vn 0.2688 -0.1800 -0.9462
vn 0.5868 -0.0203 -0.8095
vn -0.6893 -0.0000 -0.7245
vn 0.3107 0.2080 -0.9275
vn 0.6173 -0.0000 -0.7867
vn 0.5901 0.0042 -0.8073
vn 0.5958 -0.0000 -0.8031
vn -0.0346 -0.0000 -0.9994
vn 0.0369 -0.0000 -0.9993
vn -0.5850 -0.0000 -0.8111
vn -0.5936 0.0067 -0.8048
vn -0.5397 -0.0000 -0.8418
vn -0.2284 -0.1513 -0.9618
vn -0.2658 0.1762 -0.9478
vn -0.6068 -0.0454 -0.7935
vn 0.6851 -0.0000 -0.7285
vn -0.0000 0.7075 0.7068
vn -0.4205 0.5599 0.7139
vn -0.4096 0.5796 0.7045
vn -0.5544 0.7845 0.2780
vn -0.6444 0.7071 0.2911
vn -0.7071 0.7070 -0.0105
vn -0.7058 0.7084 -0.0104
vn -0.9931 -0.0000 -0.1172
vn -0.9999 -0.0000 -0.0147
vn -0.9113 -0.0000 0.4117
vn -0.5026 -0.0000 0.8645
vn -0.6006 0.7996 -0.0000
vn -0.7136 0.7004 -0.0131
vn -0.7034 0.7059 -0.0834
vn -0.6998 0.7096 -0.0826
vn -0.6948 0.7045 -0.1447
vn -0.6923 0.7070 -0.1441
vn -0.5645 0.7072 -0.4258
vn -0.5644 0.7072 -0.4257
vn -0.7983 -0.0000 -0.6022
vn -0.9790 -0.0000 -0.2037
vn -0.1210 0.7074 -0.6964
vn -0.1210 0.7074 -0.6963
vn -0.0000 0.7075 -0.7068
vn 0.1210 0.7074 -0.6963
vn 0.1210 0.7073 -0.6964
vn 0.1712 -0.0000 -0.9852
vn -0.1712 -0.0000 -0.9852
vn -0.2664 0.9639 -0.0000
vn 0.6701 -0.0680 -0.7391
vn 0.7019 0.0533 -0.7103
vn -0.6665 0.0598 -0.7431
vn -0.1452 0.9761 -0.1619
vn -0.1332 0.9777 0.1623
vn -0.0000 0.9361 -0.3517
vn -0.1299 0.9766 -0.1713
vn -0.1380 0.9792 0.1490
vn -0.0000 0.9457 0.3250
vn 0.1342 0.9781 0.1593
vn 0.1440 0.9776 0.1538
vn 0.2736 0.9619 -0.0000
vn 0.1373 0.9747 -0.1763
vn 0.1433 0.9770 -0.1580
vn -0.7011 -0.0706 -0.7096
vn -0.6796 -0.0007 0.7336
vn -0.6717 -0.0293 0.7403
vn 0.6830 -0.0389 0.7294
vn 0.6719 0.0054 0.7406
vn 0.7001 -0.0050 -0.7140
vn 0.7028 0.0045 -0.7114
vn 0.6633 0.0120 0.7483
vn 0.6718 -0.0181 0.7405
vn -0.6711 -0.0017 0.7414
vn -0.6719 0.0012 0.7406
vn -0.7078 -0.0089 -0.7063
vn -0.7028 0.0092 -0.7113
vn -0.0383 -0.0219 0.9990
vn -0.0309 -0.0000 0.9995
vn -0.8280 -0.0000 0.5608
vn -0.8279 0.0001 0.5609
vn -0.5487 0.0003 0.8360
vn -0.5481 -0.0000 0.8364
vn -0.0785 -0.0000 0.9969
vn -0.6850 -0.0000 0.7285
vn -0.6953 -0.0000 -0.7188
vn 0.6952 -0.0000 -0.7188
vn -0.7376 -0.0000 0.6753
vn -0.9996 -0.0000 -0.0287
vn -0.9313 -0.0000 -0.3643
vn -0.3845 -0.0000 -0.9231
vn 0.4314 -0.0000 -0.9022
vn 0.9294 -0.0000 -0.3692
vn 0.9999 -0.0000 -0.0104
vn 0.6011 -0.0000 0.7991
vn -0.0000 0.9985 -0.0545
vn -0.0000 0.9985 -0.0543
vn -0.0009 0.9985 -0.0553
vn -0.0005 0.9985 -0.0539
vn -0.9065 -0.0003 0.4221
vn -0.9066 -0.0002 0.4221
vn -0.2134 -0.0006 0.9770
vn -0.0005 -0.0006 1.0000
vn 0.3191 -0.0005 0.9477
vn 0.3190 -0.0004 0.9478
vn -0.0007 0.9985 -0.0539
vn 0.0012 0.9985 -0.0545
vn 0.7058 -0.0000 -0.7085
vn 0.3815 -0.0000 -0.9244
vn -0.3815 -0.0000 -0.9244
vn -0.7058 -0.0000 -0.7085
vn -0.7057 -0.0000 -0.7085
vn -0.9234 -0.0000 -0.3839
vn 0.0019 0.9984 -0.0557
vn 0.0005 0.9986 -0.0525
vn 0.0038 0.9984 -0.0559
vn 0.0045 0.9982 -0.0597
vn -0.0000 0.9983 -0.0575
vn -0.0000 0.9981 0.0621
vn 0.0075 0.9983 0.0575
vn 0.0068 0.9985 0.0547
vn 0.9360 -0.0001 0.3520
vn 0.9360 -0.0000 0.3520
vn 0.9985 0.0002 0.0555
vn 0.9986 0.0002 -0.0520
vn 0.9986 -0.0000 -0.0521
vn 0.9205 0.0002 -0.3906
vn 0.9206 0.0004 -0.3905
vn 0.3487 0.0006 -0.9372
vn -0.9234 -0.0000 0.3839
vn 0.0068 0.9985 0.0546
vn 0.0054 0.9986 0.0522
vn 0.0031 0.9988 0.0491
vn 0.0033 0.9988 0.0495
vn -0.7057 -0.0000 0.7085
vn -0.3815 -0.0000 0.9244
vn 0.3815 -0.0000 0.9244
vn -0.0001 0.9989 0.0470
vn -0.0000 0.9989 0.0476
vn 0.0009 0.9989 0.0471
vn -0.0039 0.9988 0.0479
vn -0.0066 0.9987 0.0511
vn 0.7057 -0.0000 0.7085
vn 0.9234 -0.0000 0.3839
vn -0.0087 0.9985 0.0543
vn -0.0083 0.9985 0.0540
vn -0.0107 0.9980 0.0624
vn -0.0000 0.9983 0.0575
vn -0.0000 0.9983 -0.0587
vn -0.0023 0.9983 -0.0575
vn -0.0022 0.9984 -0.0565
vn -0.0022 0.9984 -0.0566
vn -0.0018 0.9984 -0.0558
vn 0.7057 -0.0000 -0.7085
vn 0.9234 -0.0000 -0.3839
vn 0.0015 0.0006 -1.0000
vn 0.0015 0.0004 -1.0000
vn -0.4009 0.0003 -0.9161
vn -0.4008 0.0005 -0.9162
vn -0.9384 -0.0000 -0.3457
vn -0.9383 0.0001 -0.3457
vn -0.9988 -0.0000 -0.0495
vn -0.9994 -0.0000 0.0344
vn -0.9994 -0.0002 0.0344
vn -0.5108 0.5130 0.6898
vn -0.5055 0.5192 0.6891
vn -0.8115 0.4184 0.4081
vn -0.8199 0.4004 0.4093
vn -0.0331 0.5318 0.8462
vn -0.0384 0.4791 0.8769
vn 0.0268 0.4793 0.8772
vn 0.0293 0.5235 0.8515
vn 0.8358 0.3884 0.3880
vn 0.8364 0.4068 0.3674
vn 0.6892 -0.0000 0.7246
vn 0.0805 -0.0000 0.9968
vn 0.5495 -0.0000 0.8355
vn 0.5489 0.0003 0.8359
vn 0.8514 -0.0000 0.5245
vn 0.8376 -0.0120 0.5462
vn 0.0308 -0.0219 0.9993
vn -0.8707 -0.0000 0.4918
vn -0.9999 -0.0000 0.0154
vn -0.9997 -0.0000 -0.0224
vn -0.9837 -0.0000 -0.1799
vn -0.7312 -0.0000 -0.6821
vn 0.7312 -0.0000 -0.6821
vn 0.9837 -0.0000 -0.1799
vn 0.9997 -0.0000 -0.0224
vn 0.9999 -0.0000 0.0154
vn 0.8707 -0.0000 0.4918
vn 0.6952 -0.0000 0.7188
vn -0.6953 -0.0000 0.7188
vt 0.487300 0.279100
vt 0.453900 0.279100
vt 0.487300 0.054200
vt 0.453900 0.054200
vt 0.512500 0.743500
vt 0.512500 0.758800
vt 0.502800 0.735500
vt 0.512500 0.727500
vt 0.502800 0.718000
vt 0.264200 0.735500
vt 0.264200 0.753400
vt 0.502800 0.753400
vt 0.512500 0.779000
vt 0.264200 0.718000
vt 0.512500 0.713100
vt 0.502800 0.702500
vt 0.264200 0.702500
vt 0.254500 0.713100
vt 0.254500 0.727500
vt 0.254500 0.745100
vt 0.254500 0.759500
vt 0.264200 0.777100
vt 0.502800 0.777100
vt 0.502800 0.849800
vt 0.512500 0.849800
vt 0.512500 0.920600
vt 0.502800 0.922500
vt 0.264200 0.849800
vt 0.264200 0.922500
vt 0.254500 0.779700
vt 0.264200 0.945200
vt 0.512500 0.939900
vt 0.502800 0.945200
vt 0.264200 0.964100
vt 0.254500 0.849800
vt 0.254500 0.921400
vt 0.254500 0.940700
vt 0.254500 0.956900
vt 0.264200 0.981100
vt 0.254500 0.971600
vt 0.264200 0.996500
vt 0.254500 0.985900
vt 0.502800 0.996500
vt 0.512500 0.956100
vt 0.502800 0.964100
vt 0.502800 0.981100
vt 0.512500 0.985900
vt 0.512500 0.971600
vt 0.188600 0.851500
vt 0.209100 0.962200
vt 0.188600 0.962200
vt 0.209100 0.739500
vt 0.225300 0.746300
vt 0.188600 0.739500
vt 0.246100 0.776600
vt 0.251900 0.851500
vt 0.246100 0.925100
vt 0.225300 0.955500
vt 0.239400 0.941400
vt 0.239400 0.760300
vt 0.580400 0.849800
vt 0.559400 0.734400
vt 0.580400 0.734400
vt 0.559400 0.965100
vt 0.542600 0.958100
vt 0.580400 0.965100
vt 0.521300 0.926900
vt 0.515300 0.849800
vt 0.521300 0.772600
vt 0.542600 0.741400
vt 0.528200 0.755900
vt 0.528200 0.943700
vt 0.070700 0.162800
vt 0.048200 0.129200
vt 0.115700 0.162800
vt 0.047500 0.031600
vt 0.138900 0.031300
vt 0.138200 0.128800
vt 0.133000 0.190300
vt 0.053600 0.190300
vt 0.022700 0.144700
vt 0.022700 0.008100
vt 0.164000 0.007800
vt 0.163900 0.144700
vt 0.744700 0.501400
vt 0.738800 0.491000
vt 0.756500 0.504200
vt 0.928700 0.504200
vt 0.738500 0.467300
vt 0.744300 0.329200
vt 0.753200 0.319700
vt 0.741200 0.346000
vt 0.771800 0.314900
vt 0.943900 0.346000
vt 0.940400 0.501400
vt 0.946700 0.467300
vt 0.946300 0.491000
vt 0.931900 0.319700
vt 0.940900 0.329200
vt 0.913300 0.314900
vt 0.700700 0.051800
vt 0.708200 0.038500
vt 0.700200 0.082200
vt 0.703700 0.237500
vt 0.723200 0.034900
vt 0.958700 0.038500
vt 0.966200 0.051800
vt 0.943700 0.034900
vt 0.966700 0.082200
vt 0.924000 0.277200
vt 0.707600 0.258900
vt 0.742900 0.277200
vt 0.719000 0.271100
vt 0.959300 0.258900
vt 0.947800 0.271100
vt 0.963200 0.237500
vt 0.029900 0.534400
vt 0.148800 0.534400
vt 0.029900 0.558800
vt 0.148800 0.558800
vt 0.208300 0.534400
vt 0.208300 0.558800
vt 0.267800 0.534400
vt 0.267800 0.558800
vt 0.284300 0.534400
vt 0.284300 0.558800
vt 0.294200 0.534400
vt 0.294200 0.558800
vt 0.344900 0.558800
vt 0.344900 0.534400
vt 0.342200 0.531700
vt 0.294200 0.531700
vt 0.284300 0.531700
vt 0.267200 0.531700
vt 0.208300 0.531700
vt 0.148800 0.531700
vt 0.031000 0.531700
vt 0.003400 0.534400
vt 0.003400 0.558800
vt 0.005800 0.531700
vt 0.916600 0.980000
vt 0.667400 0.980000
vt 0.916600 0.959600
vt 0.667400 0.959600
vt 0.916600 0.933400
vt 0.667400 0.933400
vt 0.657300 0.953300
vt 0.657300 0.931200
vt 0.667400 0.848500
vt 0.916600 0.848500
vt 0.926700 0.931200
vt 0.926700 0.953300
vt 0.926700 0.970600
vt 0.926700 0.988200
vt 0.916600 0.999200
vt 0.667400 0.999200
vt 0.657300 0.970600
vt 0.657300 0.988200
vt 0.248800 0.984200
vt 0.129800 0.984200
vt 0.248800 0.981800
vt 0.146600 0.966200
vt 0.140400 0.960400
vt 0.148600 0.964100
vt 0.248800 0.964100
vt 0.248800 0.966500
vt 0.131800 0.982100
vt 0.123700 0.978200
vt 0.125700 0.976000
vt 0.120100 0.936800
vt 0.122700 0.935900
vt 0.139600 0.930000
vt 0.141300 0.922600
vt 0.118900 0.930100
vt 0.109800 0.924600
vt 0.148100 0.914500
vt 0.106300 0.850100
vt 0.146100 0.850200
vt 0.148000 0.785900
vt 0.148800 0.850200
vt 0.151300 0.913600
vt 0.143600 0.923300
vt 0.142500 0.926600
vt 0.142500 0.958100
vt 0.109200 0.775600
vt 0.118900 0.770200
vt 0.141700 0.778200
vt 0.139500 0.770700
vt 0.122700 0.764500
vt 0.140300 0.740500
vt 0.125700 0.725300
vt 0.131800 0.719400
vt 0.146600 0.734700
vt 0.142500 0.742800
vt 0.142500 0.774200
vt 0.143900 0.777600
vt 0.151200 0.786800
vt 0.148600 0.736800
vt 0.116100 0.769300
vt 0.120100 0.763600
vt 0.123700 0.723200
vt 0.129800 0.717200
vt 0.248900 0.717200
vt 0.248900 0.719700
vt 0.248900 0.734400
vt 0.248900 0.736800
vt 0.667400 0.717000
vt 0.916600 0.717000
vt 0.667400 0.738000
vt 0.916600 0.738000
vt 0.667400 0.763700
vt 0.916600 0.763700
vt 0.657300 0.765900
vt 0.657300 0.744300
vt 0.657300 0.726400
vt 0.657300 0.705900
vt 0.667400 0.694800
vt 0.916600 0.694800
vt 0.657300 0.848500
vt 0.926700 0.705900
vt 0.926700 0.726400
vt 0.926700 0.744300
vt 0.926700 0.765900
vt 0.926700 0.848500
vt 0.637900 0.736100
vt 0.645000 0.756300
vt 0.623000 0.718700
vt 0.583900 0.710400
vt 0.652000 0.848800
vt 0.583900 0.848800
vt 0.645000 0.941400
vt 0.605700 0.987200
vt 0.623000 0.978900
vt 0.637900 0.961500
vt 0.605700 0.710400
vt 0.583900 0.987200
vt 0.259200 0.704100
vt 0.259200 0.587700
vt 0.256900 0.704100
vt 0.243000 0.704100
vt 0.242700 0.604100
vt 0.257200 0.589700
vt 0.253600 0.581700
vt 0.251600 0.583800
vt 0.215400 0.578300
vt 0.214500 0.580800
vt 0.210000 0.574300
vt 0.209100 0.577000
vt 0.204800 0.565400
vt 0.237200 0.598000
vt 0.208700 0.597200
vt 0.201100 0.599800
vt 0.204000 0.568400
vt 0.194300 0.605500
vt 0.133600 0.565600
vt 0.133500 0.603700
vt 0.193500 0.608600
vt 0.202000 0.601600
vt 0.205300 0.600100
vt 0.235100 0.600100
vt 0.240700 0.606100
vt 0.240700 0.704100
vt 0.031500 0.600100
vt 0.061300 0.600100
vt 0.029300 0.598000
vt 0.058000 0.597300
vt 0.064500 0.601300
vt 0.065400 0.599200
vt 0.073500 0.608800
vt 0.072700 0.605600
vt 0.133500 0.606300
vt 0.063200 0.568300
vt 0.057900 0.577000
vt 0.052500 0.580800
vt 0.014500 0.583700
vt 0.023800 0.604100
vt 0.008800 0.589600
vt 0.025800 0.606100
vt 0.012400 0.581700
vt 0.006800 0.587700
vt 0.006800 0.704100
vt 0.009100 0.704100
vt 0.023500 0.704100
vt 0.025800 0.704100
vt 0.133600 0.562900
vt 0.062400 0.565400
vt 0.057000 0.574300
vt 0.051600 0.578300
vt 0.387100 0.003100
vt 0.399500 0.008700
vt 0.342500 0.003800
vt 0.181300 0.085800
vt 0.188800 0.042600
vt 0.181300 0.145300
vt 0.208700 0.203600
vt 0.297900 0.009100
vt 0.297900 0.222100
vt 0.342500 0.227400
vt 0.387100 0.228100
vt 0.399500 0.222500
vt 0.406900 0.022800
vt 0.406900 0.209700
vt 0.444900 0.022800
vt 0.444900 0.209700
vt 0.389900 0.473000
vt 0.393600 0.464000
vt 0.390000 0.630000
vt 0.402700 0.457700
vt 0.451400 0.456400
vt 0.510600 0.471000
vt 0.507500 0.462000
vt 0.498500 0.458800
vt 0.511000 0.635900
vt 0.506900 0.644900
vt 0.497800 0.648100
vt 0.451400 0.649100
vt 0.392600 0.641500
vt 0.401700 0.646400
vt 0.313700 0.459300
vt 0.195900 0.483900
vt 0.338900 0.440300
vt 0.002600 0.223400
vt 0.050600 0.224400
vt 0.002600 0.467300
vt 0.050600 0.466500
vt 0.060400 0.205900
vt 0.060400 0.483200
vt 0.077500 0.197300
vt 0.136400 0.198100
vt 0.136400 0.490900
vt 0.195900 0.205200
vt 0.313700 0.229800
vt 0.348700 0.305100
vt 0.348700 0.384000
vt 0.077500 0.491800
vt 0.338900 0.248800
vt 0.678800 0.440600
vt 0.693300 0.446600
vt 0.631200 0.440600
vt 0.701700 0.463500
vt 0.695700 0.449000
vt 0.701700 0.633000
vt 0.695700 0.647500
vt 0.569200 0.446600
vt 0.583600 0.440600
vt 0.566800 0.449000
vt 0.560800 0.633000
vt 0.631200 0.655800
vt 0.678800 0.655800
vt 0.693300 0.649800
vt 0.560800 0.463500
vt 0.583600 0.655800
vt 0.569200 0.649800
vt 0.566800 0.647500
vt 0.025600 0.821300
vt 0.007100 0.821300
vt 0.025600 0.714100
vt 0.007100 0.714100
vt 0.026300 0.931900
vt 0.008700 0.931900
vt 0.026300 0.830300
vt 0.008700 0.830300
vt 0.741700 0.691700
vt 0.743100 0.664800
vt 0.942300 0.691400
vt 0.940700 0.664500
vt 0.756100 0.651900
vt 0.926600 0.652000
vt 0.948400 0.655700
vt 0.934500 0.644000
vt 0.946300 0.541800
vt 0.932900 0.551200
vt 0.937900 0.533600
vt 0.924100 0.543800
vt 0.974500 0.667300
vt 0.948500 0.667700
vt 0.974400 0.655500
vt 0.972400 0.541300
vt 0.972200 0.529000
vt 0.946200 0.529500
vt 0.939900 0.506700
vt 0.739200 0.507000
vt 0.741200 0.533900
vt 0.754600 0.543600
vt 0.733200 0.542400
vt 0.746300 0.551300
vt 0.735200 0.656300
vt 0.747900 0.644100
vt 0.707000 0.530800
vt 0.733100 0.530300
vt 0.707100 0.542800
vt 0.709100 0.657200
vt 0.709300 0.669200
vt 0.735400 0.668700
vt 0.208700 0.027600
vt 0.952200 0.310500
vt 0.928400 0.310500
vt 0.952200 0.281400
vt 0.928400 0.281400
vt 0.747300 0.281400
vt 0.747300 0.310500
vt 0.723400 0.310500
vt 0.723400 0.281400
vt 0.705100 0.001800
vt 0.720100 0.001800
vt 0.705100 0.030800
vt 0.720100 0.030800
vt 0.940500 0.030800
vt 0.940500 0.001800
vt 0.955600 0.001800
vt 0.955600 0.030800
vt 0.506800 0.292200
vt 0.497900 0.280500
vt 0.591900 0.291300
vt 0.508800 0.045600
vt 0.497900 0.055500
vt 0.591900 0.048000
vt 0.611700 0.055700
vt 0.622900 0.082400
vt 0.622900 0.260200
vt 0.611700 0.283500
vt 0.039400 0.885000
vt 0.059300 0.847100
vt 0.038800 0.849000
vt 0.041800 0.847100
vt 0.036600 0.845200
vt 0.033200 0.834700
vt 0.061700 0.891800
vt 0.045700 0.891800
vt 0.039400 0.891800
vt 0.061700 0.885000
vt 0.062100 0.849000
vt 0.063500 0.845000
vt 0.068400 0.834700
vt 0.068500 0.762300
vt 0.033100 0.762300
vt 0.069400 0.689900
vt 0.033200 0.689900
vt 0.059300 0.677000
vt 0.036800 0.678900
vt 0.041800 0.677000
vt 0.038900 0.675100
vt 0.039400 0.639100
vt 0.061700 0.639100
vt 0.062100 0.675200
vt 0.063300 0.679000
vt 0.039400 0.632300
vt 0.061700 0.632300
vt 0.045700 0.632300
vt 0.423200 0.379300
vt 0.667200 0.379300
vt 0.420600 0.382000
vt 0.669800 0.382000
vt 0.669800 0.406400
vt 0.420600 0.406400
vt 0.054100 0.497300
vt 0.064000 0.497300
vt 0.054100 0.500000
vt 0.064000 0.500000
vt 0.081000 0.497300
vt 0.080500 0.500000
vt 0.139900 0.497300
vt 0.139900 0.500000
vt 0.199400 0.524400
vt 0.139900 0.524400
vt 0.199400 0.500000
vt 0.080500 0.524400
vt 0.064000 0.524400
vt 0.054100 0.524400
vt 0.003400 0.524400
vt 0.003400 0.500000
vt 0.006100 0.497300
vt 0.188800 0.188600
vt 0.199400 0.497300
vt 0.317200 0.497300
vt 0.318400 0.500000
vt 0.342400 0.497300
vt 0.344900 0.500000
vt 0.344900 0.524400
vt 0.318400 0.524400
vt 0.418600 0.347200
vt 0.474900 0.347200
vt 0.417100 0.349900
vt 0.474700 0.349900
vt 0.553800 0.347200
vt 0.554000 0.349900
vt 0.610100 0.347200
vt 0.611600 0.349900
vt 0.611600 0.374300
vt 0.554000 0.374300
vt 0.474700 0.374300
vt 0.417100 0.374300
vt 0.912800 0.632100
vt 0.893800 0.616200
vt 0.912800 0.564800
vt 0.763200 0.560500
vt 0.766800 0.564500
vt 0.763200 0.634900
vt 0.773300 0.558700
vt 0.769600 0.555100
vt 0.907800 0.559000
vt 0.911100 0.555100
vt 0.893700 0.579300
vt 0.885600 0.622800
vt 0.887100 0.572800
vt 0.793800 0.572600
vt 0.785400 0.616100
vt 0.793500 0.622800
vt 0.785300 0.579100
vt 0.906400 0.638000
vt 0.773300 0.638000
vt 0.766900 0.632100
vt 0.916800 0.562000
vt 0.916800 0.634900
vt 0.909700 0.641500
vt 0.769900 0.641500
vt 0.761200 0.546600
vt 0.765400 0.550600
vt 0.754600 0.555400
vt 0.758500 0.557500
vt 0.754600 0.641000
vt 0.758500 0.638600
vt 0.763000 0.649000
vt 0.766200 0.645200
vt 0.913800 0.645200
vt 0.921500 0.638600
vt 0.921500 0.557500
vt 0.915300 0.550600
vt 0.916500 0.649000
vt 0.925400 0.641100
vt 0.925400 0.554800
vt 0.918600 0.546600
vt 0.977900 0.987200
vt 0.960600 0.978900
vt 0.999700 0.987200
vt 0.945700 0.961500
vt 0.938500 0.941400
vt 0.931600 0.848800
vt 0.999700 0.848800
vt 0.938500 0.756300
vt 0.977900 0.710400
vt 0.960600 0.718700
vt 0.945700 0.736100
vt 0.999700 0.710400
vt 0.073100 0.761000
vt 0.073200 0.686300
vt 0.097500 0.761000
vt 0.097400 0.686300
vt 0.075900 0.677600
vt 0.094700 0.677600
vt 0.094600 0.669400
vt 0.076600 0.669400
vt 0.076500 0.628300
vt 0.094600 0.628300
vt 0.094600 0.619300
vt 0.076500 0.619300
vt 0.499100 0.036300
vt 0.499100 0.002800
vt 0.510000 0.036300
vt 0.510000 0.002800
vt 0.593100 0.036300
vt 0.593100 0.002800
vt 0.612900 0.036300
vt 0.612900 0.002800
vt 0.630000 0.057100
vt 0.663400 0.057100
vt 0.630000 0.083800
vt 0.663400 0.083800
vt 0.630000 0.261600
vt 0.663400 0.261600
vt 0.630000 0.284800
vt 0.663400 0.284800
vt 0.615300 0.303600
vt 0.615300 0.337100
vt 0.595500 0.303600
vt 0.595500 0.337100
vt 0.510300 0.303600
vt 0.510300 0.337100
vt 0.501500 0.303600
vt 0.501500 0.337100
vt 0.370100 0.463700
vt 0.381800 0.468100
vt 0.369600 0.643500
vt 0.381800 0.637600
vt 0.377300 0.662000
vt 0.389000 0.653300
vt 0.408600 0.651600
vt 0.404700 0.660500
vt 0.394200 0.645000
vt 0.387600 0.630700
vt 0.387600 0.471000
vt 0.394200 0.459100
vt 0.389000 0.452400
vt 0.376700 0.442400
vt 0.354100 0.681900
vt 0.362500 0.689600
vt 0.348500 0.652900
vt 0.348500 0.456700
vt 0.356000 0.425600
vt 0.379200 0.439200
vt 0.363400 0.418800
vt 0.401000 0.430800
vt 0.404700 0.445300
vt 0.452300 0.445300
vt 0.452000 0.430600
vt 0.499900 0.445300
vt 0.503900 0.430500
vt 0.517000 0.452400
vt 0.406700 0.454100
vt 0.452300 0.454100
vt 0.496000 0.454100
vt 0.510300 0.460700
vt 0.516900 0.475100
vt 0.522700 0.469100
vt 0.397800 0.413900
vt 0.451600 0.413800
vt 0.508100 0.413900
vt 0.526600 0.436200
vt 0.530600 0.440200
vt 0.531300 0.463400
vt 0.538600 0.418500
vt 0.546400 0.426100
vt 0.555700 0.449900
vt 0.531300 0.642300
vt 0.555700 0.655700
vt 0.531000 0.662800
vt 0.551300 0.680900
vt 0.522700 0.636300
vt 0.515500 0.652600
vt 0.525500 0.667900
vt 0.540800 0.690900
vt 0.503000 0.669700
vt 0.509000 0.692800
vt 0.452000 0.693900
vt 0.499900 0.660500
vt 0.452300 0.660500
vt 0.452000 0.669500
vt 0.400400 0.669700
vt 0.381200 0.665200
vt 0.393000 0.693400
vt 0.516900 0.630700
vt 0.510300 0.645000
vt 0.496000 0.651600
vt 0.452300 0.651600
vt 0.116100 0.931100
vt 0.106900 0.925400
vt 0.103800 0.850100
vt 0.106300 0.774800
vt 0.094600 0.901800
vt 0.076500 0.901800
vt 0.094600 0.892700
vt 0.076500 0.892700
vt 0.076600 0.852700
vt 0.094600 0.852700
vt 0.094700 0.844200
vt 0.075900 0.844200
vt 0.073100 0.835600
vt 0.097500 0.835600
vt 0.971300 0.037100
vt 1.000300 0.037100
vt 0.971300 0.050400
vt 1.000300 0.050400
vt 1.000300 0.080800
vt 0.971300 0.080800
vt 0.971300 0.236100
vt 1.000300 0.236100
vt 1.000300 0.257500
vt 0.971300 0.257500
vt 0.971300 0.269700
vt 1.000300 0.269700
vt 0.695800 0.270300
vt 0.666700 0.270300
vt 0.695800 0.258000
vt 0.666700 0.258000
vt 0.666700 0.236600
vt 0.695800 0.236600
vt 0.695800 0.081400
vt 0.666700 0.081400
vt 0.666700 0.051000
vt 0.695800 0.051000
vt 0.695800 0.037700
vt 0.666700 0.037700
s 0
usemtl LogNew
f 1/1/1 2/2/1 3/3/1
f 4/4/1 3/3/1 2/2/1
f 5/5/2 6/6/2 7/7/2
f 8/8/3 5/5/3 9/9/3
f 7/7/3 9/9/3 5/5/3
f 7/7/4 10/10/4 9/9/4
f 10/10/5 7/7/5 11/11/5
f 12/12/5 11/11/5 7/7/5
f 12/12/6 7/7/6 6/6/6
f 6/6/7 13/13/7 12/12/7
f 14/14/4 9/9/4 10/10/4
f 15/15/8 8/8/8 16/16/8
f 9/9/8 16/16/8 8/8/8
f 16/16/1 9/9/1 17/17/1
f 14/14/1 17/17/1 9/9/1
f 17/17/9 14/14/9 18/18/9
f 19/19/9 18/18/9 14/14/9
f 14/14/10 10/10/10 19/19/10
f 20/20/10 19/19/10 10/10/10
f 10/10/11 11/11/11 20/20/11
f 21/21/12 20/20/12 11/11/12
f 11/11/13 22/22/13 21/21/13
f 11/11/14 12/12/14 22/22/14
f 23/23/14 22/22/14 12/12/14
f 23/23/15 12/12/15 13/13/15
f 23/23/16 13/13/16 24/24/16
f 25/25/17 24/24/17 13/13/17
f 25/25/18 26/26/18 24/24/18
f 27/27/19 24/24/19 26/26/19
f 24/24/20 27/27/20 28/28/20
f 29/29/20 28/28/20 27/27/20
f 24/24/21 28/28/21 23/23/21
f 22/22/21 23/23/21 28/28/21
f 22/22/22 28/28/22 30/30/22
f 30/30/23 21/21/23 22/22/23
f 29/29/24 27/27/24 31/31/24
f 26/26/25 32/32/25 27/27/25
f 33/33/26 27/27/26 32/32/26
f 33/33/24 31/31/24 27/27/24
f 31/31/27 33/33/27 34/34/27
f 35/35/28 28/28/28 36/36/28
f 35/35/29 30/30/29 28/28/29
f 29/29/30 36/36/30 28/28/30
f 29/29/31 31/31/31 36/36/31
f 37/37/32 36/36/32 31/31/32
f 31/31/33 34/34/33 37/37/33
f 38/38/34 37/37/34 34/34/34
f 34/34/35 39/39/35 38/38/35
f 40/40/35 38/38/35 39/39/35
f 39/39/36 41/41/36 40/40/36
f 42/42/36 40/40/36 41/41/36
f 41/41/37 39/39/37 43/43/37
f 32/32/38 44/44/38 33/33/38
f 45/45/39 33/33/39 44/44/39
f 45/45/27 34/34/27 33/33/27
f 34/34/40 45/45/40 39/39/40
f 46/46/40 39/39/40 45/45/40
f 46/46/37 43/43/37 39/39/37
f 43/43/41 46/46/41 47/47/41
f 48/48/41 47/47/41 46/46/41
f 46/46/42 45/45/42 48/48/42
f 44/44/42 48/48/42 45/45/42
f 49/49/43 50/50/43 51/51/43
f 52/52/43 53/53/43 54/54/43
f 53/53/43 55/55/43 54/54/43
f 55/55/43 56/56/43 54/54/43
f 54/54/43 56/56/43 49/49/43
f 56/56/43 57/57/43 49/49/43
f 57/57/43 50/50/43 49/49/43
f 58/58/43 50/50/43 57/57/43
f 59/59/43 58/58/43 57/57/43
f 60/60/43 55/55/43 53/53/43
f 61/61/44 62/62/44 63/63/44
f 64/64/44 65/65/44 66/66/44
f 65/65/44 67/67/44 66/66/44
f 67/67/44 68/68/44 66/66/44
f 66/66/44 68/68/44 61/61/44
f 68/68/44 69/69/44 61/61/44
f 69/69/44 62/62/44 61/61/44
f 70/70/44 62/62/44 69/69/44
f 71/71/44 70/70/44 69/69/44
f 72/72/44 67/67/44 65/65/44
f 73/73/44 74/74/44 75/75/44
f 76/76/44 77/77/44 74/74/44
f 78/78/44 74/74/44 77/77/44
f 78/78/44 75/75/44 74/74/44
f 75/75/45 78/78/45 79/79/45
f 75/75/46 79/79/46 73/73/46
f 80/80/46 73/73/46 79/79/46
f 80/80/47 81/81/47 73/73/47
f 74/74/47 73/73/47 81/81/47
f 74/74/48 81/81/48 76/76/48
f 82/82/48 76/76/48 81/81/48
f 76/76/49 82/82/49 77/77/49
f 83/83/49 77/77/49 82/82/49
f 77/77/50 83/83/50 78/78/50
f 84/84/50 78/78/50 83/83/50
f 84/84/45 79/79/45 78/78/45
f 85/73/43 86/74/43 87/75/43
f 88/76/43 89/77/43 86/74/43
f 90/78/43 86/74/43 89/77/43
f 90/78/43 87/75/43 86/74/43
f 87/75/47 90/78/47 91/79/47
f 87/75/46 91/79/46 85/73/46
f 92/80/46 85/73/46 91/79/46
f 92/80/45 93/81/45 85/73/45
f 86/74/45 85/73/45 93/81/45
f 86/74/50 93/81/50 88/76/50
f 94/82/50 88/76/50 93/81/50
f 88/76/49 94/82/49 89/77/49
f 95/83/49 89/77/49 94/82/49
f 89/77/51 95/83/51 90/78/51
f 96/84/51 90/78/51 95/83/51
f 96/84/47 91/79/47 90/78/47
f 97/82/43 98/76/43 99/81/43
f 100/78/52 101/74/52 102/77/52
f 100/78/52 103/75/52 101/74/52
f 104/73/52 101/74/52 103/75/52
f 103/75/53 105/79/53 104/73/53
f 106/80/53 104/73/53 105/79/53
f 106/80/54 99/81/54 104/73/54
f 101/74/55 104/73/55 99/81/55
f 101/74/43 99/81/43 98/76/43
f 98/76/52 102/77/52 101/74/52
f 98/76/56 97/82/56 102/77/56
f 107/83/56 102/77/56 97/82/56
f 102/77/44 107/83/44 100/78/44
f 108/84/44 100/78/44 107/83/44
f 108/84/57 105/79/57 100/78/57
f 103/75/58 100/78/58 105/79/58
f 109/85/59 110/86/59 111/87/59
f 111/87/59 110/86/59 112/88/59
f 110/86/59 113/89/59 112/88/59
f 114/90/59 115/91/59 116/92/59
f 116/92/59 115/91/59 113/89/59
f 115/91/59 117/93/59 113/89/59
f 113/89/59 117/93/59 112/88/59
f 117/93/59 118/94/59 112/88/59
f 112/88/59 118/94/59 119/95/59
f 119/95/59 118/94/59 120/96/59
f 121/97/59 119/95/59 120/96/59
f 122/98/59 123/99/59 124/100/59
f 124/100/59 123/99/59 117/93/59
f 123/99/59 118/94/59 117/93/59
f 125/101/60 126/102/60 127/103/60
f 127/103/60 126/102/60 128/104/60
f 126/102/60 129/105/60 128/104/60
f 130/106/60 131/107/60 132/108/60
f 131/107/60 129/105/60 132/108/60
f 133/109/60 129/105/60 131/107/60
f 128/104/60 129/105/60 133/109/60
f 134/110/60 128/104/60 133/109/60
f 135/111/60 128/104/60 134/110/60
f 136/112/60 135/111/60 134/110/60
f 137/113/60 135/111/60 136/112/60
f 138/114/60 139/115/60 140/116/60
f 140/116/60 139/115/60 133/109/60
f 139/115/60 134/110/60 133/109/60
f 141/117/61 142/118/61 143/119/61
f 144/120/61 143/119/61 142/118/61
f 142/118/62 145/121/62 144/120/62
f 146/122/62 144/120/62 145/121/62
f 145/121/63 147/123/63 146/122/63
f 148/124/63 146/122/63 147/123/63
f 147/123/64 149/125/64 148/124/64
f 150/126/64 148/124/64 149/125/64
f 149/125/65 151/127/65 150/126/65
f 152/128/65 150/126/65 151/127/65
f 153/129/44 152/128/44 154/130/44
f 151/127/44 154/130/44 152/128/44
f 154/130/66 151/127/66 155/131/66
f 156/132/67 155/131/67 151/127/67
f 151/127/68 149/125/68 156/132/68
f 157/133/69 156/132/69 149/125/69
f 149/125/70 147/123/70 157/133/70
f 158/134/71 157/133/71 147/123/71
f 147/123/72 145/121/72 158/134/72
f 159/135/73 158/134/73 145/121/73
f 145/121/74 142/118/74 159/135/74
f 160/136/75 159/135/75 142/118/75
f 142/118/76 141/117/76 160/136/76
f 161/137/77 160/136/77 141/117/77
f 141/117/78 162/138/78 161/137/78
f 141/117/79 143/119/79 162/138/79
f 163/139/79 162/138/79 143/119/79
f 164/140/80 161/137/80 162/138/80
f 165/141/81 166/142/81 167/143/81
f 168/144/81 167/143/81 166/142/81
f 167/143/82 168/144/82 169/145/82
f 170/146/82 169/145/82 168/144/82
f 168/144/83 166/142/83 171/147/83
f 171/147/84 172/148/84 168/144/84
f 170/146/85 168/144/85 172/148/85
f 170/146/86 172/148/86 173/149/86
f 170/146/87 173/149/87 169/145/87
f 174/150/87 169/145/87 173/149/87
f 175/151/88 176/152/88 169/145/88
f 167/143/89 169/145/89 176/152/89
f 176/152/90 177/153/90 167/143/90
f 165/141/90 167/143/90 177/153/90
f 177/153/91 178/154/91 165/141/91
f 179/155/91 165/141/91 178/154/91
f 179/155/92 180/156/92 165/141/92
f 166/142/92 165/141/92 180/156/92
f 166/142/93 180/156/93 181/157/93
f 181/157/83 171/147/83 166/142/83
f 182/158/93 181/157/93 180/156/93
f 183/73/52 184/74/52 185/75/52
f 186/76/52 187/77/52 184/74/52
f 188/78/52 184/74/52 187/77/52
f 188/78/52 185/75/52 184/74/52
f 185/75/58 188/78/58 189/79/58
f 185/75/53 189/79/53 183/73/53
f 190/80/53 183/73/53 189/79/53
f 190/80/94 191/81/94 183/73/94
f 184/74/95 183/73/95 191/81/95
f 184/74/43 191/81/43 186/76/43
f 192/82/43 186/76/43 191/81/43
f 186/76/56 192/82/56 187/77/56
f 193/83/56 187/77/56 192/82/56
f 187/77/44 193/83/44 188/78/44
f 194/84/44 188/78/44 193/83/44
f 194/84/96 189/79/96 188/78/96
f 195/73/97 196/74/97 197/75/97
f 198/76/97 199/77/97 196/74/97
f 200/78/97 196/74/97 199/77/97
f 200/78/97 197/75/97 196/74/97
f 197/75/98 200/78/98 201/79/98
f 197/75/99 201/79/99 195/73/99
f 202/80/99 195/73/99 201/79/99
f 202/80/100 203/81/100 195/73/100
f 196/74/100 195/73/100 203/81/100
f 196/74/44 203/81/44 198/76/44
f 204/82/44 198/76/44 203/81/44
f 198/76/101 204/82/101 199/77/101
f 205/83/101 199/77/101 204/82/101
f 199/77/43 205/83/43 200/78/43
f 206/84/43 200/78/43 205/83/43
f 206/84/98 201/79/98 200/78/98
f 207/73/97 208/74/97 209/75/97
f 210/76/97 211/77/97 208/74/97
f 212/78/97 208/74/97 211/77/97
f 212/78/97 209/75/97 208/74/97
f 209/75/98 212/78/98 213/79/98
f 209/75/99 213/79/99 207/73/99
f 214/80/99 207/73/99 213/79/99
f 214/80/100 215/81/100 207/73/100
f 208/74/100 207/73/100 215/81/100
f 208/74/44 215/81/44 210/76/44
f 216/82/44 210/76/44 215/81/44
f 210/76/101 216/82/101 211/77/101
f 217/83/101 211/77/101 216/82/101
f 211/77/43 217/83/43 212/78/43
f 218/84/43 212/78/43 217/83/43
f 218/84/98 213/79/98 212/78/98
f 219/73/59 220/74/59 221/75/59
f 222/76/59 223/77/59 220/74/59
f 224/78/59 220/74/59 223/77/59
f 224/78/59 221/75/59 220/74/59
f 221/75/102 224/78/102 225/79/102
f 221/75/44 225/79/44 219/73/44
f 226/80/44 219/73/44 225/79/44
f 226/80/103 227/81/103 219/73/103
f 220/74/103 219/73/103 227/81/103
f 220/74/37 227/81/37 222/76/37
f 228/82/37 222/76/37 227/81/37
f 222/76/43 228/82/43 223/77/43
f 229/83/43 223/77/43 228/82/43
f 223/77/1 229/83/1 224/78/1
f 230/84/1 224/78/1 229/83/1
f 230/84/102 225/79/102 224/78/102
f 231/73/59 232/74/59 233/75/59
f 234/76/59 235/77/59 232/74/59
f 236/78/59 232/74/59 235/77/59
f 236/78/59 233/75/59 232/74/59
f 233/75/104 236/78/104 237/79/104
f 233/75/43 237/79/43 231/73/43
f 238/80/43 231/73/43 237/79/43
f 238/80/105 239/81/105 231/73/105
f 232/74/105 231/73/105 239/81/105
f 232/74/1 239/81/1 234/76/1
f 240/82/1 234/76/1 239/81/1
f 234/76/44 240/82/44 235/77/44
f 241/83/44 235/77/44 240/82/44
f 235/77/37 241/83/37 236/78/37
f 242/84/37 236/78/37 241/83/37
f 242/84/104 237/79/104 236/78/104
f 243/159/106 244/160/106 245/161/106
f 246/162/107 247/163/107 248/164/107
f 248/164/108 249/165/108 246/162/108
f 250/166/109 246/162/109 249/165/109
f 250/166/110 245/161/110 246/162/110
f 251/167/111 246/162/111 245/161/111
f 251/167/112 245/161/112 244/160/112
f 244/160/113 252/168/113 251/167/113
f 253/169/114 251/167/114 252/168/114
f 252/168/115 254/170/115 253/169/115
f 255/171/116 253/169/116 254/170/116
f 246/162/59 251/167/59 247/163/59
f 253/169/59 247/163/59 251/167/59
f 253/169/59 255/171/59 247/163/59
f 256/172/59 247/163/59 255/171/59
f 256/172/117 255/171/117 257/173/117
f 258/174/118 257/173/118 255/171/118
f 258/174/119 259/175/119 257/173/119
f 260/176/120 257/173/120 259/175/120
f 259/175/121 261/177/121 260/176/121
f 262/178/122 260/176/122 261/177/122
f 262/178/123 263/179/123 264/180/123
f 264/180/124 265/181/124 262/178/124
f 260/176/125 262/178/125 265/181/125
f 265/181/126 266/182/126 260/176/126
f 257/173/127 260/176/127 266/182/127
f 266/182/128 267/183/128 257/173/128
f 256/172/129 257/173/129 267/183/129
f 267/183/130 268/184/130 256/172/130
f 247/163/131 256/172/131 268/184/131
f 268/184/132 248/164/132 247/163/132
f 262/178/133 261/177/133 263/179/133
f 269/185/134 263/179/134 261/177/134
f 269/185/135 270/186/135 263/179/135
f 271/187/136 263/179/136 270/186/136
f 271/187/137 270/186/137 272/188/137
f 273/189/138 272/188/138 270/186/138
f 272/188/59 273/189/59 274/190/59
f 275/191/59 274/190/59 273/189/59
f 276/192/59 277/193/59 275/191/59
f 274/190/59 275/191/59 277/193/59
f 274/190/139 277/193/139 278/194/139
f 278/194/140 279/195/140 274/190/140
f 272/188/141 274/190/141 279/195/141
f 279/195/142 280/196/142 272/188/142
f 271/187/143 272/188/143 280/196/143
f 280/196/144 281/197/144 271/187/144
f 263/179/145 271/187/145 281/197/145
f 281/197/146 264/180/146 263/179/146
f 282/198/147 278/194/147 277/193/147
f 283/199/148 284/200/148 270/186/148
f 273/189/149 270/186/149 284/200/149
f 284/200/150 285/201/150 273/189/150
f 275/191/151 273/189/151 285/201/151
f 285/201/152 286/202/152 275/191/152
f 276/192/153 275/191/153 286/202/153
f 286/202/154 287/203/154 276/192/154
f 288/204/155 276/192/155 287/203/155
f 276/192/156 288/204/156 277/193/156
f 289/205/157 277/193/157 288/204/157
f 277/193/158 289/205/158 282/198/158
f 290/206/159 282/198/159 289/205/159
f 291/207/160 292/208/160 293/209/160
f 294/210/160 293/209/160 292/208/160
f 293/209/161 294/210/161 295/211/161
f 296/212/161 295/211/161 294/210/161
f 174/150/162 173/149/162 296/212/162
f 295/211/162 296/212/162 173/149/162
f 295/211/163 173/149/163 297/213/163
f 297/213/164 298/214/164 295/211/164
f 293/209/165 295/211/165 298/214/165
f 298/214/166 299/215/166 293/209/166
f 291/207/166 293/209/166 299/215/166
f 299/215/167 300/216/167 291/207/167
f 301/217/167 291/207/167 300/216/167
f 301/217/168 302/218/168 291/207/168
f 303/219/169 173/149/169 172/148/169
f 303/219/170 297/213/170 173/149/170
f 304/220/171 305/221/171 302/218/171
f 292/208/168 291/207/168 302/218/168
f 292/208/171 302/218/171 305/221/171
f 305/221/172 306/222/172 292/208/172
f 294/210/173 292/208/173 306/222/173
f 306/222/174 307/223/174 294/210/174
f 296/212/174 294/210/174 307/223/174
f 296/212/175 307/223/175 174/150/175
f 308/224/176 174/150/176 307/223/176
f 308/224/177 175/151/177 174/150/177
f 169/145/178 174/150/178 175/151/178
f 309/225/43 310/226/43 311/227/43
f 311/227/43 310/226/43 312/228/43
f 310/226/43 313/229/43 312/228/43
f 312/228/43 313/229/43 314/230/43
f 313/229/43 315/231/43 314/230/43
f 315/231/43 316/232/43 314/230/43
f 317/233/43 316/232/43 315/231/43
f 318/234/43 317/233/43 315/231/43
f 319/235/43 311/227/43 312/228/43
f 314/230/43 316/232/43 320/236/43
f 321/237/179 322/238/179 323/239/179
f 324/240/60 323/239/60 325/241/60
f 326/242/60 325/241/60 323/239/60
f 326/242/180 323/239/180 322/238/180
f 322/238/181 327/243/181 326/242/181
f 328/244/182 326/242/182 327/243/182
f 327/243/183 329/245/183 328/244/183
f 330/246/184 328/244/184 329/245/184
f 329/245/185 331/247/185 330/246/185
f 332/248/186 330/246/186 331/247/186
f 331/247/187 333/249/187 332/248/187
f 325/241/60 326/242/60 334/250/60
f 328/244/60 334/250/60 326/242/60
f 328/244/60 330/246/60 334/250/60
f 335/251/60 334/250/60 330/246/60
f 335/251/188 330/246/188 336/252/188
f 332/248/189 336/252/189 330/246/189
f 332/248/190 337/253/190 336/252/190
f 338/254/191 336/252/191 337/253/191
f 337/253/192 339/255/192 338/254/192
f 340/256/193 338/254/193 339/255/193
f 341/257/194 342/258/194 338/254/194
f 336/252/195 338/254/195 342/258/195
f 342/258/196 343/259/196 336/252/196
f 335/251/197 336/252/197 343/259/197
f 343/259/198 344/260/198 335/251/198
f 334/250/199 335/251/199 344/260/199
f 344/260/200 345/261/200 334/250/200
f 325/241/201 334/250/201 345/261/201
f 345/261/202 346/262/202 325/241/202
f 324/240/203 325/241/203 346/262/203
f 347/263/204 348/264/204 349/265/204
f 350/266/205 349/265/205 348/264/205
f 348/264/206 351/267/206 350/266/206
f 352/268/207 350/266/207 351/267/207
f 351/267/208 353/269/208 352/268/208
f 354/270/209 352/268/209 353/269/209
f 353/269/210 355/271/210 354/270/210
f 340/256/211 354/270/211 355/271/211
f 355/271/212 341/257/212 340/256/212
f 338/254/213 340/256/213 341/257/213
f 340/256/214 339/255/214 354/270/214
f 356/272/215 354/270/215 339/255/215
f 354/270/216 356/272/216 352/268/216
f 357/273/217 352/268/217 356/272/217
f 352/268/218 357/273/218 350/266/218
f 358/274/219 350/266/219 357/273/219
f 350/266/60 358/274/60 349/265/60
f 359/275/60 349/265/60 358/274/60
f 349/265/60 359/275/60 360/276/60
f 361/277/60 360/276/60 359/275/60
f 349/265/220 360/276/220 347/263/220
f 362/278/221 347/263/221 360/276/221
f 359/275/222 358/274/222 363/279/222
f 363/279/223 364/280/223 359/275/223
f 361/277/224 359/275/224 364/280/224
f 364/280/225 365/281/225 361/277/225
f 366/282/226 361/277/226 365/281/226
f 361/277/60 366/282/60 360/276/60
f 367/283/60 360/276/60 366/282/60
f 360/276/227 367/283/227 362/278/227
f 368/284/179 362/278/179 367/283/179
f 337/253/228 332/248/228 333/249/228
f 333/249/229 369/285/229 337/253/229
f 339/255/230 337/253/230 369/285/230
f 369/285/231 370/286/231 339/255/231
f 356/272/232 339/255/232 370/286/232
f 370/286/233 371/287/233 356/272/233
f 357/273/234 356/272/234 371/287/234
f 371/287/235 372/288/235 357/273/235
f 358/274/236 357/273/236 372/288/236
f 372/288/237 363/279/237 358/274/237
f 373/289/60 374/290/60 375/291/60
f 376/292/60 377/293/60 378/294/60
f 378/294/60 377/293/60 379/295/60
f 377/293/60 380/296/60 379/295/60
f 379/295/60 380/296/60 381/297/60
f 380/296/60 375/291/60 381/297/60
f 382/298/60 381/297/60 375/291/60
f 382/298/60 375/291/60 383/299/60
f 375/291/60 374/290/60 383/299/60
f 383/299/60 374/290/60 384/300/60
f 374/290/60 385/301/60 384/300/60
f 386/302/60 384/300/60 385/301/60
f 385/301/60 387/303/60 386/302/60
f 388/304/60 386/302/60 387/303/60
f 389/305/238 390/306/238 391/307/238
f 390/306/239 392/308/239 391/307/239
f 392/308/240 393/309/240 391/307/240
f 394/310/241 393/309/241 395/311/241
f 395/311/242 393/309/242 396/312/242
f 397/313/243 398/314/243 394/310/243
f 398/314/244 399/315/244 394/310/244
f 399/315/245 393/309/245 394/310/245
f 400/316/246 393/309/246 399/315/246
f 391/307/247 393/309/247 400/316/247
f 401/317/248 391/307/248 400/316/248
f 402/318/249 401/317/249 400/316/249
f 403/319/59 404/320/59 405/321/59
f 406/322/59 407/323/59 408/324/59
f 409/325/59 408/324/59 407/323/59
f 407/323/59 410/326/59 409/325/59
f 411/327/59 409/325/59 410/326/59
f 410/326/59 412/328/59 411/327/59
f 412/328/59 413/329/59 411/327/59
f 413/329/59 414/330/59 411/327/59
f 413/329/59 415/331/59 414/330/59
f 404/320/59 414/330/59 415/331/59
f 416/332/59 404/320/59 415/331/59
f 405/321/59 404/320/59 416/332/59
f 417/333/59 405/321/59 416/332/59
f 418/334/59 405/321/59 417/333/59
f 411/327/59 414/330/59 419/335/59
f 420/336/59 417/333/59 416/332/59
f 421/337/250 422/338/250 423/339/250
f 422/338/250 424/340/250 423/339/250
f 425/341/251 424/340/251 422/338/251
f 426/342/252 427/343/252 424/340/252
f 428/344/253 429/345/253 430/346/253
f 429/345/254 431/347/254 430/346/254
f 423/339/254 431/347/254 429/345/254
f 432/348/254 431/347/254 423/339/254
f 424/340/250 432/348/250 423/339/250
f 433/349/250 432/348/250 424/340/250
f 427/343/250 433/349/250 424/340/250
f 434/350/255 433/349/255 427/343/255
f 430/346/256 431/347/256 435/351/256
f 436/352/254 437/353/254 432/348/254
f 437/353/254 431/347/254 432/348/254
f 438/354/257 431/347/257 437/353/257
f 439/355/43 440/356/43 441/357/43
f 442/358/43 441/357/43 440/356/43
f 443/359/44 444/360/44 445/361/44
f 446/362/44 445/361/44 444/360/44
f 447/363/37 448/364/37 449/365/37
f 450/366/37 449/365/37 448/364/37
f 448/364/59 451/367/59 450/366/59
f 452/368/59 450/366/59 451/367/59
f 450/366/59 452/368/59 453/369/59
f 454/370/59 453/369/59 452/368/59
f 453/369/59 454/370/59 455/371/59
f 456/372/59 455/371/59 454/370/59
f 455/371/59 456/372/59 457/373/59
f 458/374/59 457/373/59 456/372/59
f 459/375/258 460/376/258 461/377/258
f 453/369/259 461/377/259 460/376/259
f 461/377/44 453/369/44 462/378/44
f 455/371/44 462/378/44 453/369/44
f 462/378/260 455/371/260 463/379/260
f 464/380/261 463/379/261 455/371/261
f 465/381/1 457/373/1 466/382/1
f 467/383/1 466/382/1 457/373/1
f 457/373/59 458/374/59 467/383/59
f 468/384/59 467/383/59 458/374/59
f 467/383/59 468/384/59 469/385/59
f 470/386/59 469/385/59 468/384/59
f 469/385/59 470/386/59 471/387/59
f 472/388/59 471/387/59 470/386/59
f 471/387/59 472/388/59 448/364/59
f 451/367/59 448/364/59 472/388/59
f 473/389/262 474/390/262 475/391/262
f 469/385/263 475/391/263 474/390/263
f 475/391/43 469/385/43 476/392/43
f 471/387/43 476/392/43 469/385/43
f 476/392/264 471/387/264 477/393/264
f 478/394/265 477/393/265 471/387/265
f 479/395/60 380/296/60 377/293/60
f 480/396/266 481/397/266 482/398/266
f 483/399/266 482/398/266 481/397/266
f 483/399/37 481/397/37 484/400/37
f 485/401/37 484/400/37 481/397/37
f 485/401/267 486/402/267 484/400/267
f 487/403/267 484/400/267 486/402/267
f 488/404/268 489/405/268 490/406/268
f 491/407/268 490/406/268 489/405/268
f 491/407/1 489/405/1 492/408/1
f 493/409/1 492/408/1 489/405/1
f 493/409/269 494/410/269 492/408/269
f 495/411/269 492/408/269 494/410/269
f 496/412/60 497/413/60 498/414/60
f 498/414/60 497/413/60 499/415/60
f 499/415/60 497/413/60 500/416/60
f 501/417/60 502/418/60 499/415/60
f 502/418/60 503/419/60 499/415/60
f 503/419/60 498/414/60 499/415/60
f 504/420/60 498/414/60 503/419/60
f 505/421/60 498/414/60 504/420/60
f 506/422/37 507/423/37 508/424/37
f 508/424/37 507/423/37 509/425/37
f 509/425/270 510/426/270 508/424/270
f 509/425/271 511/427/271 510/426/271
f 512/428/43 513/428/43 514/429/43
f 515/430/43 514/429/43 513/428/43
f 515/430/272 513/428/272 506/422/272
f 516/431/272 506/422/272 513/428/272
f 516/431/37 507/423/37 506/422/37
f 517/432/37 507/423/37 516/431/37
f 518/433/273 507/423/273 517/432/273
f 507/423/274 518/433/274 509/425/274
f 518/433/275 519/434/275 509/425/275
f 519/434/276 511/427/276 509/425/276
f 519/434/277 520/435/277 511/427/277
f 521/436/277 511/427/277 520/435/277
f 520/435/278 522/437/278 521/436/278
f 523/438/278 521/436/278 522/437/278
f 523/438/279 522/437/279 524/439/279
f 525/440/280 523/438/280 524/439/280
f 526/441/281 525/440/281 524/439/281
f 525/440/282 526/441/282 527/442/282
f 527/442/37 526/441/37 528/443/37
f 526/441/37 529/444/37 528/443/37
f 530/445/37 529/444/37 526/441/37
f 524/439/37 530/445/37 526/441/37
f 524/439/283 531/446/283 530/445/283
f 524/439/284 522/437/284 531/446/284
f 528/443/285 529/444/285 532/447/285
f 533/448/285 532/447/285 529/444/285
f 533/448/44 534/448/44 532/447/44
f 535/449/44 532/447/44 534/448/44
f 536/450/286 537/451/286 538/452/286
f 539/453/286 538/452/286 537/451/286
f 539/453/1 540/454/1 538/452/1
f 541/455/1 538/452/1 540/454/1
f 542/456/287 543/457/287 544/458/287
f 545/459/288 544/458/288 543/457/288
f 543/457/289 546/460/289 545/459/289
f 547/461/290 545/459/290 546/460/290
f 546/460/291 548/462/291 547/461/291
f 549/463/292 547/461/292 548/462/292
f 550/464/293 551/465/293 552/466/293
f 549/463/293 552/466/293 551/465/293
f 551/465/294 553/467/294 549/463/294
f 547/461/294 549/463/294 553/467/294
f 553/467/295 554/468/295 547/461/295
f 545/459/295 547/461/295 554/468/295
f 554/468/296 555/469/296 545/459/296
f 544/458/296 545/459/296 555/469/296
f 555/469/43 556/470/43 544/458/43
f 557/471/43 544/458/43 556/470/43
f 544/458/297 557/471/297 542/456/297
f 558/472/298 542/456/298 557/471/298
f 559/473/60 378/294/60 379/295/60
f 548/462/299 560/474/299 549/463/299
f 552/466/300 549/463/300 560/474/300
f 560/474/301 561/475/301 552/466/301
f 562/476/302 552/466/302 561/475/302
f 561/475/303 563/477/303 562/476/303
f 564/478/304 562/476/304 563/477/304
f 564/478/305 565/479/305 562/476/305
f 566/480/305 562/476/305 565/479/305
f 566/480/306 550/464/306 562/476/306
f 552/466/306 562/476/306 550/464/306
f 567/481/307 568/482/307 569/483/307
f 570/484/308 569/483/308 568/482/308
f 568/482/309 571/485/309 570/484/309
f 572/486/309 570/484/309 571/485/309
f 571/485/310 573/487/310 572/486/310
f 574/488/311 572/486/311 573/487/311
f 574/488/312 575/489/312 572/486/312
f 576/490/312 572/486/312 575/489/312
f 572/486/37 576/490/37 570/484/37
f 577/491/37 570/484/37 576/490/37
f 570/484/313 577/491/313 569/483/313
f 578/492/313 569/483/313 577/491/313
f 579/493/314 580/494/314 581/495/314
f 582/496/44 583/497/44 584/498/44
f 583/497/315 582/496/315 585/499/315
f 586/500/316 585/499/316 582/496/316
f 585/499/37 586/500/37 587/501/37
f 588/502/37 587/501/37 586/500/37
f 587/501/317 588/502/317 581/495/317
f 581/495/318 589/503/318 587/501/318
f 589/503/314 581/495/314 580/494/314
f 590/504/59 589/503/59 580/494/59
f 580/494/319 579/493/319 590/504/319
f 587/501/320 591/505/320 585/499/320
f 591/505/321 587/501/321 589/503/321
f 591/505/59 589/503/59 592/506/59
f 592/506/59 589/503/59 590/504/59
f 593/507/59 592/506/59 590/504/59
f 594/508/59 593/507/59 590/504/59
f 595/509/59 592/506/59 593/507/59
f 596/510/322 590/504/322 579/493/322
f 590/504/323 596/510/323 594/508/323
f 597/511/323 594/508/323 596/510/323
f 594/508/324 597/511/324 593/507/324
f 598/512/325 593/507/325 597/511/325
f 593/507/326 598/512/326 595/509/326
f 583/497/326 595/509/326 598/512/326
f 595/509/327 583/497/327 592/506/327
f 585/499/328 592/506/328 583/497/328
f 592/506/320 585/499/320 591/505/320
f 599/513/329 581/495/329 588/502/329
f 581/495/43 599/513/43 579/493/43
f 600/514/43 579/493/43 599/513/43
f 579/493/330 600/514/330 596/510/330
f 601/515/331 596/510/331 600/514/331
f 596/510/1 601/515/1 597/511/1
f 602/516/1 597/511/1 601/515/1
f 597/511/332 602/516/332 598/512/332
f 584/498/333 598/512/333 602/516/333
f 598/512/44 584/498/44 583/497/44
f 603/517/334 604/518/334 605/519/334
f 606/520/335 605/519/335 604/518/335
f 605/519/44 606/520/44 607/521/44
f 608/522/44 607/521/44 606/520/44
f 607/521/336 608/522/336 609/523/336
f 610/524/337 609/523/337 608/522/337
f 608/522/59 584/498/59 610/524/59
f 602/516/59 610/524/59 584/498/59
f 610/524/59 602/516/59 611/525/59
f 601/515/59 611/525/59 602/516/59
f 611/525/59 601/515/59 612/526/59
f 600/514/59 612/526/59 601/515/59
f 612/526/59 600/514/59 613/527/59
f 599/513/59 613/527/59 600/514/59
f 613/527/59 599/513/59 614/528/59
f 588/502/59 614/528/59 599/513/59
f 614/528/59 588/502/59 604/518/59
f 586/500/59 604/518/59 588/502/59
f 604/518/59 586/500/59 606/520/59
f 582/496/59 606/520/59 586/500/59
f 606/520/59 582/496/59 608/522/59
f 584/498/59 608/522/59 582/496/59
f 609/523/1 610/524/1 615/529/1
f 611/525/1 615/529/1 610/524/1
f 615/529/338 611/525/338 616/530/338
f 612/526/339 616/530/339 611/525/339
f 616/530/43 612/526/43 617/531/43
f 613/527/43 617/531/43 612/526/43
f 617/531/340 613/527/340 618/532/340
f 614/528/341 618/532/341 613/527/341
f 618/532/37 614/528/37 603/517/37
f 604/518/37 603/517/37 614/528/37
f 619/533/44 620/534/44 621/535/44
f 622/536/44 623/537/44 620/534/44
f 620/534/44 623/537/44 621/535/44
f 623/537/44 624/538/44 621/535/44
f 621/535/44 624/538/44 625/539/44
f 624/538/44 626/540/44 625/539/44
f 626/540/44 627/541/44 625/539/44
f 628/542/44 627/541/44 626/540/44
f 629/543/44 628/542/44 626/540/44
f 625/539/44 627/541/44 630/544/44
f 631/545/342 632/546/342 633/547/342
f 634/548/343 633/547/343 632/546/343
f 632/546/344 635/549/344 634/548/344
f 636/550/345 634/548/345 635/549/345
f 636/550/346 635/549/346 637/551/346
f 638/552/347 637/551/347 635/549/347
f 638/552/348 639/553/348 637/551/348
f 640/554/348 637/551/348 639/553/348
f 640/554/349 639/553/349 641/555/349
f 642/556/349 641/555/349 639/553/349
f 643/158/350 182/158/350 644/156/350
f 180/156/350 644/156/350 182/158/350
f 644/156/37 180/156/37 645/155/37
f 179/155/37 645/155/37 180/156/37
f 645/155/351 179/155/351 646/154/351
f 178/154/351 646/154/351 179/155/351
f 647/557/352 648/558/352 649/559/352
f 650/560/352 649/559/352 648/558/352
f 649/559/353 650/560/353 651/561/353
f 652/562/353 651/561/353 650/560/353
f 651/561/354 652/562/354 653/563/354
f 654/564/354 653/563/354 652/562/354
f 655/565/355 656/566/355 657/567/355
f 658/568/355 657/567/355 656/566/355
f 657/567/37 658/568/37 659/569/37
f 660/570/37 659/569/37 658/568/37
f 659/569/356 660/570/356 661/571/356
f 662/572/356 661/571/356 660/570/356
f 663/573/357 664/574/357 665/575/357
f 666/576/357 665/575/357 664/574/357
f 665/575/358 666/576/358 667/577/358
f 668/578/358 667/577/358 666/576/358
f 667/577/359 668/578/359 669/579/359
f 670/580/359 669/579/359 668/578/359
f 671/581/360 672/582/360 673/583/360
f 674/584/361 673/583/361 672/582/361
f 673/583/362 674/584/362 675/585/362
f 676/586/363 675/585/363 674/584/363
f 677/587/364 678/588/364 679/589/364
f 676/586/365 679/589/365 678/588/365
f 679/589/366 676/586/366 680/590/366
f 674/584/366 680/590/366 676/586/366
f 680/590/367 674/584/367 681/591/367
f 672/582/367 681/591/367 674/584/367
f 681/591/368 672/582/368 682/592/368
f 683/593/369 682/592/369 672/582/369
f 672/582/370 671/581/370 683/593/370
f 684/594/371 683/593/371 671/581/371
f 685/595/372 675/585/372 686/596/372
f 675/585/373 685/595/373 673/583/373
f 687/597/373 673/583/373 685/595/373
f 673/583/37 687/597/37 671/581/37
f 688/598/37 671/581/37 687/597/37
f 671/581/374 688/598/374 684/594/374
f 689/599/374 684/594/374 688/598/374
f 684/594/375 689/599/375 690/600/375
f 691/601/376 690/600/376 689/599/376
f 690/600/377 691/601/377 692/602/377
f 690/600/378 683/593/378 684/594/378
f 683/593/379 690/600/379 693/603/379
f 692/602/380 693/603/380 690/600/380
f 693/603/381 692/602/381 694/604/381
f 695/605/382 694/604/382 692/602/382
f 694/604/383 695/605/383 696/606/383
f 697/607/384 696/606/384 695/605/384
f 696/606/385 697/607/385 698/608/385
f 682/592/386 683/593/386 699/609/386
f 693/603/387 699/609/387 683/593/387
f 699/609/388 693/603/388 700/610/388
f 694/604/388 700/610/388 693/603/388
f 700/610/389 694/604/389 701/611/389
f 696/606/390 701/611/390 694/604/390
f 701/611/391 696/606/391 702/612/391
f 698/608/392 702/612/392 696/606/392
f 702/612/393 698/608/393 703/613/393
f 704/614/393 703/613/393 698/608/393
f 705/615/377 692/602/377 691/601/377
f 705/615/43 706/616/43 692/602/43
f 695/605/43 692/602/43 706/616/43
f 706/616/43 707/617/43 695/605/43
f 697/607/43 695/605/43 707/617/43
f 697/607/394 707/617/394 708/618/394
f 708/618/395 698/608/395 697/607/395
f 709/619/396 698/608/396 708/618/396
f 698/608/397 709/619/397 704/614/397
f 710/620/398 704/614/398 709/619/398
f 711/621/394 708/618/394 707/617/394
f 708/618/399 711/621/399 709/619/399
f 712/622/399 709/619/399 711/621/399
f 709/619/400 712/622/400 710/620/400
f 713/623/400 710/620/400 712/622/400
f 710/620/1 713/623/1 714/624/1
f 715/625/1 714/624/1 713/623/1
f 714/624/401 715/625/401 716/626/401
f 717/627/401 716/626/401 715/625/401
f 704/614/402 710/620/402 718/628/402
f 714/624/403 718/628/403 710/620/403
f 718/628/404 714/624/404 719/629/404
f 716/626/405 719/629/405 714/624/405
f 720/630/406 719/629/406 716/626/406
f 716/626/407 717/627/407 720/630/407
f 721/631/407 720/630/407 717/627/407
f 720/630/408 721/631/408 722/632/408
f 723/633/408 722/632/408 721/631/408
f 723/633/44 724/634/44 722/632/44
f 719/629/409 720/630/409 725/635/409
f 722/632/410 725/635/410 720/630/410
f 725/635/411 722/632/411 726/636/411
f 727/637/412 726/636/412 722/632/412
f 726/636/413 727/637/413 678/588/413
f 728/638/414 678/588/414 727/637/414
f 678/588/415 728/638/415 676/586/415
f 729/639/416 676/586/416 728/638/416
f 675/585/417 676/586/417 729/639/417
f 729/639/418 686/596/418 675/585/418
f 727/637/44 722/632/44 724/634/44
f 724/634/44 730/640/44 727/637/44
f 728/638/44 727/637/44 730/640/44
f 728/638/419 730/640/419 729/639/419
f 686/596/419 729/639/419 730/640/419
f 703/613/420 704/614/420 731/641/420
f 718/628/421 731/641/421 704/614/421
f 731/641/422 718/628/422 732/642/422
f 719/629/423 732/642/423 718/628/423
f 732/642/424 719/629/424 733/643/424
f 725/635/425 733/643/425 719/629/425
f 733/643/426 725/635/426 734/644/426
f 726/636/426 734/644/426 725/635/426
f 734/644/427 726/636/427 677/587/427
f 678/588/428 677/587/428 726/636/428
f 254/170/429 735/645/429 255/171/429
f 258/174/430 255/171/430 735/645/430
f 735/645/431 736/646/431 258/174/431
f 259/175/432 258/174/432 736/646/432
f 736/646/433 737/647/433 259/175/433
f 261/177/434 259/175/434 737/647/434
f 737/647/435 738/648/435 261/177/435
f 269/185/436 261/177/436 738/648/436
f 738/648/437 283/199/437 269/185/437
f 270/186/438 269/185/438 283/199/438
f 739/649/439 740/650/439 741/651/439
f 742/652/439 741/651/439 740/650/439
f 742/652/440 743/653/440 741/651/440
f 744/654/440 741/651/440 743/653/440
f 744/654/441 743/653/441 745/655/441
f 746/656/442 745/655/442 743/653/442
f 746/656/443 747/657/443 745/655/443
f 748/658/444 745/655/444 747/657/444
f 747/657/445 631/545/445 748/658/445
f 633/547/445 748/658/445 631/545/445
f 749/659/446 750/660/446 751/661/446
f 752/662/446 751/661/446 750/660/446
f 752/662/447 753/663/447 751/661/447
f 754/664/447 751/661/447 753/663/447
f 754/664/448 753/663/448 755/665/448
f 756/666/448 755/665/448 753/663/448
f 756/666/449 757/667/449 755/665/449
f 758/668/449 755/665/449 757/667/449
f 758/668/450 757/667/450 759/669/450
f 760/670/450 759/669/450 757/667/450
f 761/671/451 762/672/451 763/673/451
f 764/674/451 763/673/451 762/672/451
f 764/674/452 765/675/452 763/673/452
f 766/676/452 763/673/452 765/675/452
f 766/676/453 765/675/453 767/677/453
f 768/678/453 767/677/453 765/675/453
f 768/678/454 769/679/454 767/677/454
f 770/680/454 767/677/454 769/679/454
f 770/680/455 769/679/455 771/681/455
f 772/682/455 771/681/455 769/679/455
f 773/220/456 304/220/456 774/218/456
f 302/218/456 774/218/456 304/220/456
f 774/218/1 302/218/1 775/217/1
f 301/217/1 775/217/1 302/218/1
f 775/217/457 301/217/457 776/216/457
f 300/216/457 776/216/457 301/217/457
