# Blender 5.0.1
# www.blender.org
mtllib ruedaSteamCar2ChiefCoco.mtl
g Cylinder.012_Mesh
v 0.001319 0.614896 -0.112192
v -0.234521 0.567985 -0.112192
v -0.434456 0.434392 -0.112192
v -0.568049 0.234457 -0.112192
v -0.614960 -0.001383 -0.112192
v -0.568049 -0.237222 -0.112192
v -0.434456 -0.437158 -0.112192
v -0.234521 -0.570750 -0.112192
v 0.001319 -0.617662 -0.112192
v 0.237159 -0.570750 -0.112192
v 0.437094 -0.437158 -0.112192
v 0.570686 -0.237223 -0.112192
v 0.617598 -0.001383 -0.112192
v 0.570686 0.234457 -0.112192
v 0.437094 0.434392 -0.112192
v 0.237159 0.567985 -0.112192
v 0.001319 0.614896 -0.015652
v -0.234521 0.567985 -0.015652
v -0.434456 0.434392 -0.015652
v -0.568049 0.234457 -0.015652
v -0.614960 -0.001383 -0.015652
v -0.568049 -0.237222 -0.015652
v -0.434456 -0.437158 -0.015652
v -0.234521 -0.570750 -0.015652
v 0.001319 -0.617662 -0.015652
v 0.237159 -0.570750 -0.015652
v 0.437094 -0.437158 -0.015652
v 0.570686 -0.237223 -0.015652
v 0.617598 -0.001383 -0.015652
v 0.570686 0.234457 -0.015652
v 0.437094 0.434392 -0.015652
v 0.237159 0.567985 -0.015652
v -0.234521 0.567985 -0.126752
v 0.001319 0.614896 -0.126752
v -0.434456 0.434392 -0.126752
v -0.568049 0.234457 -0.126752
v -0.614960 -0.001383 -0.126752
v -0.568049 -0.237222 -0.126752
v -0.434456 -0.437158 -0.126752
v -0.234521 -0.570750 -0.126752
v 0.001319 -0.617662 -0.126752
v 0.237159 -0.570750 -0.126752
v 0.437094 -0.437158 -0.126752
v 0.570686 -0.237223 -0.126752
v 0.617598 -0.001383 -0.126752
v 0.570686 0.234457 -0.126752
v 0.437094 0.434392 -0.126752
v 0.237159 0.567985 -0.126752
v -0.234521 0.567985 -0.001092
v 0.001319 0.614896 -0.001092
v -0.434456 0.434392 -0.001092
v -0.568049 0.234457 -0.001092
v -0.614960 -0.001383 -0.001092
v -0.568049 -0.237222 -0.001092
v -0.434456 -0.437158 -0.001092
v -0.234521 -0.570750 -0.001092
v 0.001319 -0.617662 -0.001092
v 0.237159 -0.570750 -0.001092
v 0.437094 -0.437158 -0.001092
v 0.570686 -0.237223 -0.001092
v 0.617598 -0.001383 -0.001092
v 0.570686 0.234457 -0.001092
v 0.437094 0.434392 -0.001092
v 0.237159 0.567985 -0.001092
v 0.426912 -0.426976 -0.015652
v 0.426912 -0.426976 -0.112192
v 0.557384 -0.231712 -0.112192
v 0.557384 -0.231712 -0.071732
v -0.554746 0.228947 -0.015652
v -0.554746 0.228947 -0.056112
v -0.600561 -0.001383 -0.056112
v -0.600561 -0.001383 -0.015652
v 0.603199 -0.001383 -0.112192
v 0.603199 -0.001383 -0.071732
v -0.554746 -0.231712 -0.056112
v -0.554746 -0.231712 -0.015652
v 0.557384 0.228947 -0.112192
v 0.557384 0.228947 -0.071732
v -0.424275 -0.426976 -0.112192
v -0.424275 -0.426976 -0.015652
v 0.426912 0.424211 -0.056112
v 0.426912 0.424211 -0.071732
v -0.229011 -0.557447 -0.112192
v -0.229011 -0.557447 -0.015652
v 0.231648 0.554682 -0.056112
v 0.231648 0.554682 -0.071732
v 0.001319 -0.603263 -0.112192
v 0.001319 -0.603263 -0.015652
v 0.001319 0.600497 -0.071732
v 0.001319 0.600497 -0.056112
v -0.229011 0.554682 -0.056112
v -0.229011 0.554682 -0.071732
v 0.231648 -0.557447 -0.112192
v 0.231648 -0.557447 -0.015652
v -0.424275 0.424211 -0.056112
v -0.424275 0.424211 -0.071732
v -0.229011 0.554682 -0.112192
v 0.001319 0.600498 -0.112192
v -0.424275 0.424211 -0.112192
v -0.554746 0.228947 -0.112192
v -0.600561 -0.001383 -0.112192
v -0.554746 -0.231712 -0.112192
v -0.424275 -0.426976 -0.056112
v -0.229011 -0.557447 -0.056113
v 0.001319 -0.603263 -0.056113
v 0.231648 -0.557447 -0.056113
v 0.426912 -0.426976 -0.056112
v 0.557384 -0.231712 -0.056112
v 0.603199 -0.001383 -0.056112
v 0.557384 0.228947 -0.056112
v 0.426912 0.424211 -0.112192
v 0.231648 0.554682 -0.112192
v -0.229011 0.554682 -0.015652
v 0.001319 0.600497 -0.015652
v -0.424275 0.424211 -0.015652
v -0.554746 0.228947 -0.071732
v -0.600561 -0.001383 -0.071732
v -0.554746 -0.231712 -0.071732
v -0.424275 -0.426976 -0.071732
v -0.229011 -0.557447 -0.071732
v 0.001319 -0.603263 -0.071732
v 0.231648 -0.557447 -0.071732
v 0.426912 -0.426976 -0.071732
v 0.557384 -0.231712 -0.015652
v 0.603199 -0.001383 -0.015652
v 0.557384 0.228947 -0.015652
v 0.426912 0.424211 -0.015652
v 0.231648 0.554682 -0.015652
v 0.396470 -0.396534 -0.071732
v 0.396470 -0.396534 -0.056112
v 0.517609 -0.215237 -0.056112
v 0.517609 -0.215237 -0.071732
v -0.514971 0.212472 -0.071732
v -0.514971 0.212472 -0.056112
v -0.557509 -0.001383 -0.056112
v -0.557509 -0.001383 -0.071732
v 0.560147 -0.001383 -0.056112
v 0.560147 -0.001383 -0.071732
v -0.514971 -0.215237 -0.056112
v -0.514971 -0.215237 -0.071732
v 0.517609 0.212472 -0.056112
v 0.517609 0.212472 -0.071732
v -0.393832 -0.396534 -0.056112
v -0.393832 -0.396534 -0.071732
v 0.396470 0.393769 -0.056112
v 0.396470 0.393769 -0.071732
v -0.212536 -0.517673 -0.056113
v -0.212536 -0.517673 -0.071732
v 0.215173 0.514907 -0.056112
v 0.215173 0.514907 -0.071732
v 0.001319 -0.560211 -0.056113
v 0.001319 -0.560211 -0.071732
v 0.001319 0.557445 -0.071732
v 0.001319 0.557445 -0.056112
v -0.212536 0.514907 -0.056112
v -0.212536 0.514907 -0.071732
v 0.215173 -0.517673 -0.056113
v 0.215173 -0.517673 -0.071732
v -0.393832 0.393769 -0.056112
v -0.393832 0.393769 -0.071732
v 0.426365 -0.351792 -0.057853
v 0.426365 -0.351792 -0.069991
v 0.487713 -0.259979 -0.069991
v 0.487713 -0.259979 -0.057853
v -0.525469 0.159695 -0.057853
v -0.525469 0.159695 -0.069991
v -0.547011 0.051394 -0.069991
v -0.547011 0.051394 -0.057853
v 0.528107 -0.162461 -0.057853
v 0.528107 -0.162461 -0.069991
v 0.549649 -0.054159 -0.069991
v 0.549649 -0.054159 -0.057853
v -0.547011 -0.054159 -0.057853
v -0.547011 -0.054159 -0.069991
v -0.525469 -0.162461 -0.069991
v -0.525469 -0.162461 -0.057853
v 0.549649 0.051394 -0.057853
v 0.549649 0.051394 -0.069991
v 0.528107 0.159695 -0.069991
v 0.528107 0.159695 -0.057853
v -0.485076 -0.259979 -0.057853
v -0.485076 -0.259979 -0.069991
v -0.423728 -0.351792 -0.069991
v -0.423728 -0.351792 -0.057853
v 0.487713 0.257213 -0.057853
v 0.487713 0.257213 -0.069991
v 0.426365 0.349027 -0.069991
v 0.426365 0.349027 -0.057853
v -0.349091 -0.426429 -0.057853
v -0.349091 -0.426429 -0.069991
v -0.257277 -0.487777 -0.069991
v -0.257277 -0.487777 -0.057853
v 0.351728 0.423664 -0.057853
v 0.351728 0.423664 -0.069991
v 0.259915 0.485012 -0.069991
v 0.259915 0.485012 -0.057853
v -0.159759 -0.528170 -0.057853
v -0.159759 -0.528170 -0.069991
v -0.051457 -0.549713 -0.069991
v -0.051457 -0.549713 -0.057853
v -0.051458 0.546948 -0.057853
v -0.051458 0.546948 -0.069991
v -0.159759 0.525405 -0.069991
v -0.159759 0.525405 -0.057853
v 0.162397 0.525405 -0.057853
v 0.162397 0.525405 -0.069991
v 0.054095 0.546948 -0.069991
v 0.054095 0.546948 -0.057853
v 0.054095 -0.549713 -0.057853
v 0.054095 -0.549713 -0.069991
v 0.162397 -0.528170 -0.069991
v 0.162397 -0.528170 -0.057853
v -0.257277 0.485012 -0.057853
v -0.257277 0.485012 -0.069991
v -0.349091 0.423664 -0.069991
v -0.349091 0.423664 -0.057853
v 0.259915 -0.487777 -0.057853
v 0.259915 -0.487777 -0.069991
v 0.351728 -0.426429 -0.069991
v 0.351728 -0.426429 -0.057853
v -0.423728 0.349027 -0.057853
v -0.423728 0.349027 -0.069991
v -0.485076 0.257213 -0.069991
v -0.485076 0.257213 -0.057853
v 0.426331 -0.312362 -0.066389
v 0.426331 -0.312362 -0.061455
v 0.451271 -0.275036 -0.061455
v 0.451271 -0.275036 -0.066389
v -0.510348 0.123279 -0.066389
v -0.510348 0.123279 -0.061455
v -0.519106 0.079251 -0.061455
v -0.519106 0.079251 -0.066389
v 0.512985 -0.126045 -0.061455
v 0.512985 -0.126045 -0.066389
v 0.521743 -0.082016 -0.061455
v 0.521743 -0.082016 -0.066389
v -0.519106 -0.082016 -0.061455
v -0.519106 -0.082016 -0.066389
v -0.510348 -0.126045 -0.061455
v -0.510348 -0.126045 -0.066389
v 0.521743 0.079251 -0.061455
v 0.521743 0.079251 -0.066389
v 0.512985 0.123279 -0.061455
v 0.512985 0.123279 -0.066389
v -0.448634 -0.275036 -0.061455
v -0.448634 -0.275036 -0.066389
v -0.423693 -0.312362 -0.061455
v -0.423693 -0.312362 -0.066389
v 0.451271 0.272271 -0.061455
v 0.451271 0.272271 -0.066389
v 0.426331 0.309596 -0.061455
v 0.426331 0.309596 -0.066389
v -0.309660 -0.426395 -0.061455
v -0.309660 -0.426395 -0.066390
v -0.272335 -0.451335 -0.061455
v -0.272335 -0.451335 -0.066390
v 0.312298 0.423629 -0.061455
v 0.312298 0.423629 -0.066389
v 0.274972 0.448570 -0.061455
v 0.274972 0.448570 -0.066389
v -0.123343 -0.513049 -0.061455
v -0.123343 -0.513049 -0.066390
v -0.079315 -0.521807 -0.061455
v -0.079315 -0.521807 -0.066390
v -0.079315 0.519042 -0.066389
v -0.079315 0.519042 -0.061455
v -0.123343 0.510284 -0.061455
v -0.123343 0.510284 -0.066389
v 0.125981 0.510284 -0.061455
v 0.125981 0.510284 -0.066389
v 0.081952 0.519042 -0.061455
v 0.081952 0.519042 -0.066389
v 0.081952 -0.521807 -0.061455
v 0.081952 -0.521807 -0.066390
v 0.125981 -0.513049 -0.061455
v 0.125981 -0.513049 -0.066390
v -0.272335 0.448570 -0.061455
v -0.272335 0.448570 -0.066389
v -0.309660 0.423629 -0.061455
v -0.309660 0.423629 -0.066389
v 0.274972 -0.451335 -0.061455
v 0.274972 -0.451335 -0.066390
v 0.312298 -0.426395 -0.061455
v 0.312298 -0.426395 -0.066390
v -0.423693 0.309596 -0.061455
v -0.423693 0.309596 -0.066389
v -0.448633 0.272271 -0.061455
v -0.448633 0.272271 -0.066389
v 0.048664 -0.049139 -0.065407
v 0.048664 -0.049139 -0.062668
v 0.063558 -0.026848 -0.062683
v 0.063558 -0.026848 -0.065408
v -0.060698 0.024620 -0.065408
v -0.060698 0.024620 -0.062684
v -0.065928 -0.001674 -0.062689
v -0.065928 -0.001674 -0.065408
v 0.063335 -0.027386 -0.062684
v 0.063335 -0.027386 -0.065408
v 0.068566 -0.001091 -0.062689
v 0.068566 -0.001091 -0.065408
v -0.065928 -0.001092 -0.062689
v -0.065928 -0.001092 -0.065408
v -0.060698 -0.027386 -0.062684
v -0.060698 -0.027386 -0.065408
v 0.068566 -0.001674 -0.062689
v 0.068566 -0.001674 -0.065408
v 0.063335 0.024621 -0.062684
v 0.063335 0.024621 -0.065408
v -0.060921 -0.026848 -0.062683
v -0.060921 -0.026848 -0.065408
v -0.046026 -0.049139 -0.062668
v -0.046026 -0.049139 -0.065407
v 0.063558 0.024083 -0.062683
v 0.063558 0.024083 -0.065408
v 0.048664 0.046374 -0.062668
v 0.048664 0.046374 -0.065407
v -0.046437 -0.048727 -0.062669
v -0.046437 -0.048727 -0.065407
v -0.024146 -0.063622 -0.062683
v -0.024146 -0.063622 -0.065408
v 0.049075 0.045962 -0.062669
v 0.049075 0.045962 -0.065407
v 0.026784 0.060857 -0.062683
v 0.026784 0.060857 -0.065408
v -0.024684 -0.063399 -0.062684
v -0.024684 -0.063399 -0.065408
v 0.001610 -0.068629 -0.062689
v 0.001610 -0.068629 -0.065408
v 0.001610 0.065864 -0.065408
v 0.001610 0.065864 -0.062689
v -0.024684 0.060634 -0.062684
v -0.024684 0.060634 -0.065408
v 0.027322 0.060634 -0.062684
v 0.027322 0.060634 -0.065408
v 0.001028 0.065864 -0.062689
v 0.001028 0.065864 -0.065408
v 0.001028 -0.068629 -0.062689
v 0.001028 -0.068629 -0.065408
v 0.027322 -0.063399 -0.062684
v 0.027322 -0.063399 -0.065408
v -0.024146 0.060857 -0.062683
v -0.024146 0.060857 -0.065408
v -0.046437 0.045962 -0.062669
v -0.046437 0.045962 -0.065407
v 0.026784 -0.063622 -0.062683
v 0.026784 -0.063622 -0.065408
v 0.049076 -0.048727 -0.062669
v 0.049076 -0.048727 -0.065407
v -0.046026 0.046374 -0.062668
v -0.046026 0.046374 -0.065407
v -0.060920 0.024083 -0.062683
v -0.060920 0.024083 -0.065408
v 0.001319 0.112588 -0.038995
v 0.001319 0.112588 -0.092151
v 0.058074 0.097319 -0.038996
v 0.058074 0.097319 -0.092150
v 0.099622 0.055602 -0.038997
v 0.099622 0.055603 -0.092148
v 0.114829 -0.001383 -0.038998
v 0.114829 -0.001383 -0.092148
v 0.099622 -0.058368 -0.038997
v 0.099622 -0.058368 -0.092148
v 0.058074 -0.100084 -0.038996
v 0.058074 -0.100084 -0.092150
v 0.001319 -0.115353 -0.038995
v 0.001319 -0.115353 -0.092151
v -0.055436 -0.100084 -0.038996
v -0.055436 -0.100084 -0.092150
v -0.096984 -0.058368 -0.038997
v -0.096984 -0.058368 -0.092148
v -0.112192 -0.001383 -0.038998
v -0.112192 -0.001383 -0.092148
v -0.096984 0.055602 -0.038997
v -0.096984 0.055602 -0.092148
v -0.055436 0.097319 -0.038996
v -0.055436 0.097319 -0.092150
v 0.050257 0.083826 -0.091526
v 0.001319 0.097008 -0.091526
v -0.047619 0.083826 -0.091526
v -0.083444 0.047812 -0.091524
v -0.096557 -0.001383 -0.091523
v -0.083444 -0.050578 -0.091524
v -0.047619 -0.086591 -0.091526
v 0.001319 -0.099773 -0.091526
v 0.050257 -0.086591 -0.091526
v 0.086082 -0.050578 -0.091524
v 0.099195 -0.001383 -0.091523
v 0.086082 0.047812 -0.091524
v 0.001319 0.097008 -0.039619
v 0.050257 0.083826 -0.039620
v 0.086082 0.047812 -0.039622
v 0.099195 -0.001383 -0.039623
v 0.086082 -0.050578 -0.039622
v 0.050257 -0.086591 -0.039620
v 0.001319 -0.099773 -0.039619
v -0.047619 -0.086591 -0.039620
v -0.083444 -0.050578 -0.039622
v -0.096557 -0.001383 -0.039623
v -0.083444 0.047812 -0.039622
v -0.047619 0.083826 -0.039620
v 0.050257 0.083826 -0.105496
v 0.001319 0.097008 -0.105498
v 0.086082 0.047812 -0.105493
v -0.047619 0.083826 -0.105496
v -0.083444 0.047812 -0.105493
v -0.096557 -0.001383 -0.105491
v -0.083444 -0.050578 -0.105493
v -0.047619 -0.086591 -0.105496
v 0.001319 -0.099773 -0.105498
v 0.050257 -0.086591 -0.105496
v 0.086082 -0.050578 -0.105493
v 0.099195 -0.001383 -0.105491
v 0.001319 0.097008 -0.025648
v 0.050257 0.083826 -0.025649
v -0.047619 0.083826 -0.025649
v 0.086082 0.047812 -0.025653
v 0.099195 -0.001383 -0.025654
v 0.086082 -0.050578 -0.025653
v 0.050257 -0.086591 -0.025649
v 0.001319 -0.099773 -0.025648
v -0.047619 -0.086591 -0.025649
v -0.083444 -0.050578 -0.025653
v -0.096557 -0.001383 -0.025654
v -0.083444 0.047812 -0.025653
v 0.039520 0.065131 -0.131192
v 0.001319 0.075421 -0.131192
v 0.067485 0.037019 -0.131192
v -0.036882 0.065131 -0.131192
v -0.064847 0.037019 -0.131192
v -0.075083 -0.001383 -0.131192
v -0.064847 -0.039785 -0.131192
v -0.036882 -0.067897 -0.131192
v 0.001319 -0.078186 -0.131192
v 0.039520 -0.067897 -0.131192
v 0.067485 -0.039785 -0.131192
v 0.077721 -0.001383 -0.131192
v 0.001319 0.075421 0.000047
v 0.039520 0.065131 0.000047
v -0.036882 0.065131 0.000047
v 0.067485 0.037019 0.000047
v 0.077721 -0.001383 0.000047
v 0.067485 -0.039785 0.000047
v 0.039520 -0.067897 0.000047
v 0.001319 -0.078186 0.000047
v -0.036882 -0.067897 0.000047
v -0.064847 -0.039785 0.000047
v -0.075083 -0.001383 0.000047
v -0.064847 0.037019 0.000047
v -0.250931 0.607603 -0.126752
v -0.257656 0.623837 -0.104309
v -0.255686 0.619082 -0.120178
v 0.001319 0.675350 -0.104309
v 0.001319 0.657779 -0.126752
v 0.001319 0.670204 -0.120178
v -0.464779 0.464715 -0.126752
v -0.477203 0.477140 -0.104309
v -0.473564 0.473500 -0.120179
v -0.607667 0.250867 -0.126752
v -0.623901 0.257592 -0.104309
v -0.619146 0.255622 -0.120179
v -0.657843 -0.001383 -0.126752
v -0.675414 -0.001383 -0.104309
v -0.670267 -0.001383 -0.120179
v -0.607667 -0.253633 -0.126752
v -0.623901 -0.260357 -0.104309
v -0.619146 -0.258388 -0.120179
v -0.464779 -0.467480 -0.126752
v -0.477203 -0.479905 -0.104309
v -0.473564 -0.476266 -0.120179
v -0.250931 -0.610368 -0.126752
v -0.257656 -0.626602 -0.104309
v -0.255686 -0.621847 -0.120179
v 0.001319 -0.660544 -0.126752
v 0.001319 -0.678115 -0.104309
v 0.001319 -0.672969 -0.120179
v 0.253569 -0.610368 -0.126752
v 0.260293 -0.626602 -0.104309
v 0.258324 -0.621847 -0.120179
v 0.467416 -0.467480 -0.126752
v 0.479841 -0.479905 -0.104309
v 0.476202 -0.476266 -0.120179
v 0.610304 -0.253633 -0.126752
v 0.626538 -0.260357 -0.104309
v 0.621783 -0.258388 -0.120179
v 0.660480 -0.001383 -0.126752
v 0.678052 -0.001383 -0.104309
v 0.672905 -0.001383 -0.120179
v 0.610304 0.250868 -0.126752
v 0.626538 0.257592 -0.104309
v 0.621783 0.255622 -0.120179
v 0.467416 0.464715 -0.126752
v 0.479841 0.477140 -0.104309
v 0.476202 0.473500 -0.120179
v 0.253569 0.607603 -0.126752
v 0.260293 0.623837 -0.104309
v 0.258324 0.619082 -0.120178
v -0.257656 0.623837 -0.023535
v -0.250931 0.607603 -0.001092
v -0.255686 0.619082 -0.007665
v 0.001319 0.657779 -0.001092
v 0.001319 0.675350 -0.023535
v 0.001319 0.670203 -0.007665
v -0.477203 0.477140 -0.023535
v -0.464779 0.464715 -0.001092
v -0.473564 0.473500 -0.007665
v -0.623901 0.257592 -0.023535
v -0.607667 0.250867 -0.001092
v -0.619146 0.255622 -0.007665
v -0.675414 -0.001383 -0.023535
v -0.657843 -0.001383 -0.001092
v -0.670267 -0.001383 -0.007665
v -0.623901 -0.260357 -0.023535
v -0.607667 -0.253633 -0.001092
v -0.619146 -0.258388 -0.007666
v -0.477203 -0.479905 -0.023535
v -0.464779 -0.467480 -0.001092
v -0.473564 -0.476266 -0.007666
v -0.257656 -0.626602 -0.023535
v -0.250931 -0.610368 -0.001092
v -0.255686 -0.621847 -0.007666
v 0.001319 -0.678115 -0.023535
v 0.001319 -0.660544 -0.001092
v 0.001319 -0.672969 -0.007666
v 0.260293 -0.626602 -0.023535
v 0.253569 -0.610368 -0.001092
v 0.258324 -0.621847 -0.007666
v 0.479841 -0.479905 -0.023535
v 0.467416 -0.467480 -0.001092
v 0.476202 -0.476266 -0.007666
v 0.626538 -0.260357 -0.023535
v 0.610304 -0.253633 -0.001092
v 0.621783 -0.258388 -0.007666
v 0.678052 -0.001383 -0.023535
v 0.660480 -0.001383 -0.001092
v 0.672905 -0.001383 -0.007665
v 0.626538 0.257592 -0.023535
v 0.610304 0.250868 -0.001092
v 0.621783 0.255622 -0.007665
v 0.479841 0.477140 -0.023535
v 0.467416 0.464715 -0.001092
v 0.476202 0.473500 -0.007665
v 0.260293 0.623837 -0.023535
v 0.253569 0.607603 -0.001092
v 0.258324 0.619082 -0.007665
vn -0.0000 -0.0000 -1.0000
vn -0.0000 -0.0000 1.0000
vn 0.2652 -0.0000 -0.9642
vn 0.2450 -0.1015 -0.9642
vn -0.2652 -0.0000 -0.9642
vn -0.2450 -0.1015 -0.9642
vn 0.2450 0.1015 -0.9642
vn -0.1015 -0.2450 -0.9642
vn -0.1875 -0.1875 -0.9642
vn 0.1015 0.2450 -0.9642
vn 0.1875 0.1875 -0.9642
vn -0.1015 0.2450 0.9642
vn 0.1015 -0.2450 -0.9642
vn -0.0000 -0.2652 -0.9642
vn -0.1015 0.2450 -0.9642
vn -0.1875 0.1875 -0.9642
vn -0.3781 0.9128 -0.1543
vn -0.0000 0.9880 0.1543
vn -0.0000 0.9880 -0.1543
vn 0.1875 -0.1875 -0.9642
vn -0.2450 0.1015 -0.9642
vn -0.3781 -0.9128 -0.1543
vn -0.6986 -0.6986 0.1543
vn -0.6986 -0.6986 -0.1543
vn -0.2450 -0.1015 0.9642
vn -0.1875 -0.1875 0.9642
vn -0.0000 -0.9880 -0.1543
vn -0.3781 -0.9128 0.1543
vn -0.1015 -0.2450 0.9642
vn 0.3781 -0.9128 -0.1543
vn -0.0000 -0.9880 0.1543
vn -0.0000 -0.2652 0.9642
vn 0.6986 -0.6986 -0.1543
vn 0.3781 -0.9128 0.1543
vn 0.1015 -0.2450 0.9642
vn 0.9128 -0.3781 0.1543
vn 0.6986 -0.6986 0.1543
vn 0.1875 -0.1875 0.9642
vn 0.9128 -0.3781 -0.1543
vn 0.9880 -0.0000 0.1543
vn 0.2450 -0.1015 0.9642
vn 0.9128 0.3781 -0.1543
vn 0.9880 -0.0000 -0.1543
vn 0.2652 -0.0000 0.9642
vn 0.6986 0.6986 -0.1543
vn 0.9128 0.3781 0.1543
vn -0.6986 0.6986 -0.1543
vn -0.3781 0.9128 0.1543
vn 0.2450 0.1015 0.9642
vn 0.3781 0.9128 -0.1543
vn 0.6986 0.6986 0.1543
vn 0.1875 0.1875 0.9642
vn 0.3781 0.9128 0.1543
vn -0.9128 0.3781 -0.1543
vn -0.6986 0.6986 0.1543
vn 0.1015 0.2450 0.9642
vn -0.1875 0.1875 0.9642
vn -0.9880 -0.0000 -0.1543
vn -0.9128 0.3781 0.1543
vn -0.0000 0.2652 0.9642
vn -0.9128 -0.3781 -0.1543
vn -0.9880 -0.0000 0.1543
vn -0.2450 0.1015 0.9642
vn -0.2652 -0.0000 0.9642
vn -0.9128 -0.3781 0.1543
vn 0.3827 -0.9239 -0.0000
vn -0.0000 -1.0000 -0.0000
vn 0.7071 -0.7071 -0.0000
vn 0.9239 -0.3827 -0.0000
vn 1.0000 -0.0000 -0.0000
vn 0.9239 0.3827 -0.0000
vn 0.7071 0.7071 -0.0000
vn 0.3827 0.9239 -0.0000
vn -0.0000 1.0000 -0.0000
vn -0.3827 0.9239 -0.0000
vn -0.7071 0.7071 -0.0000
vn -0.9239 0.3827 -0.0000
vn -1.0000 -0.0000 -0.0000
vn -0.9239 -0.3827 -0.0000
vn -0.7071 -0.7071 -0.0000
vn -0.3827 -0.9239 -0.0000
vn 0.7065 -0.7077 -0.0000
vn 0.9450 -0.3271 -0.0000
vn -0.0316 -0.1589 0.9868
vn -0.0199 -0.0999 0.9948
vn -0.4369 0.8995 -0.0000
vn 0.0009 1.0000 -0.0000
vn 0.1589 -0.0316 -0.9868
vn 0.0997 -0.0198 -0.9948
vn -0.0595 -0.9982 -0.0000
vn 0.3835 -0.9235 -0.0000
vn -0.0900 0.1347 -0.9868
vn -0.0565 0.0845 -0.9948
vn 0.0999 -0.0199 0.9948
vn 0.1589 -0.0316 0.9868
vn -0.9235 0.3835 -0.0000
vn -0.9982 -0.0595 -0.0000
vn -0.0900 0.1347 0.9868
vn -0.0566 0.0847 0.9948
vn 0.9982 -0.0595 -0.0000
vn 0.9235 0.3835 -0.0000
vn -0.0997 -0.0198 -0.9948
vn -0.1589 -0.0316 -0.9868
vn -0.9242 0.3819 -0.0000
vn -0.6638 0.7479 -0.0000
vn -0.1589 -0.0316 0.9868
vn -0.0999 -0.0199 0.9948
vn 0.6638 0.7479 -0.0000
vn 0.9242 0.3819 -0.0000
vn -0.7065 -0.7077 -0.0000
vn -0.9450 -0.3271 -0.0000
vn 0.0900 0.1347 -0.9868
vn 0.0565 0.0845 -0.9948
vn -0.8995 0.4369 -0.0000
vn -0.7479 0.6638 -0.0000
vn -0.9982 0.0595 -0.0000
vn -0.9450 0.3271 -0.0000
vn 0.9450 0.3271 -0.0000
vn 0.9982 0.0595 -0.0000
vn 0.7479 0.6638 -0.0000
vn 0.8995 0.4369 -0.0000
vn -0.7479 -0.6638 -0.0000
vn -0.8995 -0.4369 -0.0000
vn 0.4369 0.8995 -0.0000
vn -0.4369 -0.8995 -0.0000
vn -0.6638 -0.7479 -0.0000
vn 0.0595 0.9982 -0.0000
vn 0.3271 0.9450 -0.0000
vn 0.3270 -0.9450 -0.0000
vn 0.0595 -0.9982 -0.0000
vn -0.3271 -0.9450 -0.0000
vn -0.3271 0.9450 -0.0000
vn -0.0595 0.9982 -0.0000
vn 0.6638 -0.7479 0.0001
vn 0.4369 -0.8995 -0.0000
vn 0.8995 -0.4369 -0.0000
vn 0.7479 -0.6638 -0.0000
vn -0.9768 0.2143 -0.0000
vn 0.0018 -0.0012 -1.0000
vn 0.0845 -0.0565 -0.9948
vn -0.0999 0.0199 0.9948
vn -0.0026 0.0007 1.0000
vn -0.8422 0.5391 -0.0000
vn 0.0847 -0.0566 0.9948
vn 0.0019 -0.0019 1.0000
vn -0.2143 -0.9768 -0.0000
vn -0.0565 -0.0845 -0.9948
vn -0.0012 -0.0018 -1.0000
vn 0.5718 0.8204 -0.0000
vn -0.1758 -0.9844 -0.0000
vn -0.0019 -0.0019 1.0000
vn -0.0566 -0.0847 0.9948
vn 0.8204 0.5718 -0.0000
vn 0.0021 -0.0004 -1.0000
vn 0.8204 -0.5718 -0.0000
vn -0.0012 0.0018 -1.0000
vn 0.0026 -0.0007 1.0000
vn 0.8422 -0.5391 -0.0000
vn 0.0009 -1.0000 -0.0000
vn -0.7077 -0.7065 -0.0000
vn -0.0900 -0.1347 0.9868
vn 0.3819 0.9242 -0.0000
vn -0.9242 -0.3819 -0.0000
vn 0.0847 0.0566 0.9948
vn 0.1347 0.0900 0.9868
vn 1.0000 0.0009 -0.0000
vn 0.1347 0.0900 -0.9868
vn 0.0845 0.0565 -0.9948
vn -0.9235 -0.3835 -0.0000
vn 0.1347 -0.0900 0.9868
vn 1.0000 -0.0009 -0.0000
vn -0.1589 0.0316 0.9868
vn 0.1347 -0.0900 -0.9868
vn -0.7077 0.7065 -0.0000
vn -0.0997 0.0198 -0.9948
vn -0.1589 0.0316 -0.9868
vn 0.3819 -0.9242 -0.0000
vn -0.0199 0.0999 0.9948
vn -0.0316 0.1589 0.9868
vn -0.7065 0.7077 -0.0000
vn -0.0316 0.1589 -0.9868
vn -0.0198 0.0997 -0.9948
vn -0.3835 0.9235 -0.0000
vn 0.3835 0.9235 -0.0000
vn 0.0199 0.0999 0.9948
vn 0.0316 0.1589 0.9868
vn 0.0198 0.0997 -0.9948
vn 0.0316 0.1589 -0.9868
vn -0.3819 -0.9242 -0.0000
vn 0.7077 0.7065 -0.0000
vn -0.0847 -0.0566 0.9948
vn -0.1347 -0.0900 0.9868
vn 0.7065 0.7077 -0.0000
vn -1.0000 0.0009 -0.0000
vn 0.1589 0.0316 0.9868
vn 0.0999 0.0199 0.9948
vn 0.9242 -0.3819 -0.0000
vn 0.6638 -0.7479 -0.0001
vn 0.0997 0.0198 -0.9948
vn 0.1589 0.0316 -0.9868
vn -1.0000 -0.0009 -0.0000
vn 0.0900 -0.1347 0.9868
vn 0.0566 -0.0847 0.9948
vn 0.9235 -0.3835 -0.0000
vn -0.1347 0.0900 0.9868
vn -0.0847 0.0566 0.9948
vn 0.0565 -0.0845 -0.9948
vn 0.0900 -0.1347 -0.9868
vn -0.0845 0.0565 -0.9948
vn -0.1347 0.0900 -0.9868
vn -0.0009 -1.0000 -0.0000
vn 0.0316 -0.1589 0.9868
vn 0.0199 -0.0999 0.9948
vn -0.3819 0.9242 -0.0000
vn -0.0009 1.0000 -0.0000
vn -0.3835 -0.9235 -0.0000
vn 0.0595 -0.9982 -0.0001
vn 0.0566 0.0847 0.9948
vn 0.0900 0.1347 0.9868
vn -0.0021 0.0004 -1.0000
vn -0.5391 -0.8422 -0.0000
vn 0.0007 0.0026 1.0000
vn 0.1758 0.9844 -0.0000
vn 0.0004 0.0021 -1.0000
vn -0.1758 0.9844 -0.0000
vn 0.9844 -0.1758 -0.0000
vn 0.0026 0.0007 1.0000
vn 0.9844 0.1758 -0.0000
vn 0.0021 0.0004 -1.0000
vn 0.0007 -0.0026 1.0000
vn 0.2143 -0.9768 -0.0000
vn 0.0004 -0.0021 -1.0000
vn 0.0198 -0.0997 -0.9948
vn 0.1758 -0.9844 -0.0000
vn -0.9768 -0.2143 -0.0000
vn -0.0026 -0.0007 1.0000
vn 0.9768 -0.2143 -0.0000
vn -0.0021 -0.0004 -1.0000
vn -0.0007 -0.0026 1.0000
vn -0.2143 0.9768 -0.0000
vn -0.0004 -0.0021 -1.0000
vn -0.0198 -0.0997 -0.9948
vn -0.5391 0.8422 -0.0000
vn -0.9844 0.1758 -0.0000
vn 0.0019 0.0019 1.0000
vn -0.9844 -0.1758 -0.0000
vn 0.0018 0.0012 -1.0000
vn -0.0007 0.0026 1.0000
vn 0.5718 -0.8204 -0.0000
vn -0.0004 0.0021 -1.0000
vn 0.5391 -0.8422 -0.0000
vn 0.9768 0.2143 -0.0000
vn 0.8422 0.5391 -0.0000
vn -0.0018 -0.0012 -1.0000
vn -0.0845 -0.0565 -0.9948
vn -0.5718 -0.8204 -0.0000
vn 0.0019 -0.0020 1.0000
vn -0.5718 0.8204 -0.0000
vn -0.0019 0.0019 1.0000
vn 0.0012 -0.0018 -1.0000
vn -0.8204 0.5718 -0.0000
vn -0.0018 0.0012 -1.0000
vn -0.8204 -0.5718 -0.0000
vn 0.5391 0.8422 -0.0000
vn -0.8422 -0.5391 -0.0000
vn 0.0012 0.0018 -1.0000
vn 0.2143 0.9768 -0.0000
vn -0.0019 0.0020 1.0000
vn 0.5013 0.8653 -0.0000
vn 0.8668 0.4987 -0.0000
vn 0.8668 -0.4987 -0.0000
vn 0.5013 -0.8653 -0.0000
vn -0.5013 -0.8653 -0.0000
vn -0.8668 -0.4987 -0.0000
vn -0.8668 0.4987 -0.0000
vn 0.5017 -0.8650 -0.0000
vn -0.5013 0.8653 -0.0000
vn -0.0200 -0.0346 -0.9992
vn -0.0000 -0.0400 -0.9992
vn 0.0200 -0.0346 -0.9992
vn 0.0346 -0.0199 -0.9992
vn 0.0399 -0.0000 -0.9992
vn 0.0200 0.0346 -0.9992
vn -0.0000 0.0400 -0.9992
vn -0.0200 0.0346 -0.9992
vn -0.0346 0.0199 -0.9992
vn -0.0399 -0.0000 -0.9992
vn -0.0346 -0.0199 -0.9992
vn -0.0000 -0.0400 0.9992
vn -0.0200 -0.0346 0.9992
vn -0.0346 -0.0199 0.9992
vn -0.0399 -0.0000 0.9992
vn -0.0346 0.0199 0.9992
vn -0.0200 0.0346 0.9992
vn -0.0000 0.0400 0.9992
vn 0.0200 0.0346 0.9992
vn 0.0346 0.0199 0.9992
vn 0.0399 -0.0000 0.9992
vn 0.0346 -0.0199 0.9992
vn 0.0200 -0.0346 0.9992
vn -0.0000 0.4610 0.8874
vn 0.3841 0.6628 0.6427
vn -0.0000 0.7657 0.6432
vn -0.0000 -0.4610 0.8874
vn -0.3841 -0.6628 0.6427
vn -0.0000 -0.7657 0.6432
vn 0.8670 0.4983 -0.0000
vn 0.5017 0.8650 -0.0000
vn -0.5017 -0.8650 -0.0000
vn 0.8670 -0.4983 -0.0000
vn -0.5017 0.8650 -0.0000
vn -0.8670 -0.4983 -0.0000
vn -0.8670 0.4983 -0.0000
vn 0.4002 -0.2298 -0.8871
vn -0.4002 -0.2298 -0.8871
vn -0.0000 0.4610 -0.8874
vn -0.4617 -0.0000 0.8871
vn 0.2316 -0.3988 0.8873
vn 0.2316 0.3988 0.8873
vn -0.7674 -0.0000 -0.6412
vn -0.6648 -0.3824 -0.6417
vn -0.2316 -0.3988 0.8873
vn -0.6648 -0.3824 0.6417
vn -0.3841 0.6628 0.6427
vn -0.2316 -0.3988 -0.8873
vn -0.3841 -0.6628 -0.6427
vn -0.4002 -0.2298 0.8871
vn -0.7674 -0.0000 0.6412
vn 0.6648 0.3824 0.6417
vn -0.0000 -0.4610 -0.8874
vn -0.0000 -0.7657 -0.6432
vn -0.4002 0.2298 0.8871
vn -0.6648 0.3824 0.6417
vn 0.3841 0.6628 -0.6427
vn -0.0000 0.7657 -0.6432
vn 0.4002 0.2298 0.8871
vn 0.7674 -0.0000 0.6412
vn 0.3841 -0.6628 -0.6427
vn -0.2316 0.3988 0.8873
vn 0.6648 0.3824 -0.6417
vn 0.2316 0.3988 -0.8873
vn 0.4002 -0.2298 0.8871
vn 0.6648 -0.3824 0.6417
vn 0.2316 -0.3988 -0.8873
vn 0.6648 -0.3824 -0.6417
vn -0.3841 0.6628 -0.6427
vn 0.3841 -0.6628 0.6427
vn 0.7674 -0.0000 -0.6412
vn -0.2316 0.3988 -0.8873
vn -0.6648 0.3824 -0.6417
vn 0.4002 0.2298 -0.8871
vn -0.4002 0.2298 -0.8871
vn -0.2958 0.7142 -0.6344
vn -0.0000 0.2652 -0.9642
vn -0.5466 0.5466 -0.6344
vn -0.8788 0.3640 -0.3085
vn -0.4320 0.1790 -0.8839
vn -0.7730 -0.0000 -0.6344
vn -0.7142 -0.2958 -0.6344
vn -0.5466 -0.5466 -0.6344
vn -0.2958 -0.7142 -0.6344
vn -0.0000 -0.7730 -0.6344
vn 0.2958 -0.7142 -0.6344
vn 0.6726 -0.6726 -0.3085
vn 0.3307 -0.3307 -0.8839
vn 0.8788 -0.3640 -0.3085
vn 0.4320 -0.1790 -0.8839
vn 0.9512 -0.0000 -0.3085
vn 0.4676 -0.0000 -0.8839
vn 0.7142 0.2958 -0.6344
vn 0.5466 0.5466 -0.6344
vn 0.2958 0.7142 -0.6344
vn -0.0000 0.7730 -0.6344
vn -0.2958 0.7142 0.6344
vn -0.5466 0.5466 0.6344
vn -0.7142 0.2958 0.6344
vn -0.7730 -0.0000 0.6344
vn -0.7142 -0.2958 0.6344
vn -0.5466 -0.5466 0.6344
vn -0.2958 -0.7142 0.6344
vn -0.0000 -0.7730 0.6344
vn 0.2958 -0.7142 0.6344
vn 0.5466 -0.5466 0.6344
vn 0.4320 -0.1790 0.8839
vn 0.8788 -0.3640 0.3085
vn 0.7730 -0.0000 0.6344
vn 0.7142 0.2958 0.6344
vn 0.5466 0.5466 0.6344
vn 0.2958 0.7142 0.6344
vn -0.0000 0.4676 0.8839
vn -0.0000 0.9512 0.3085
vn 0.0019 0.0020 1.0000
vn -0.0019 -0.0020 1.0000
vn 0.4617 -0.0000 -0.8871
vn -0.4617 -0.0000 -0.8871
vn 0.4617 -0.0000 0.8871
vt 0.194332 0.775037
vt 0.202226 0.766142
vt 0.202824 0.766542
vt 0.447002 0.699439
vt 0.435763 0.695547
vt 0.435903 0.694842
vt 0.412790 0.699439
vt 0.404893 0.708334
vt 0.404295 0.707934
vt 0.183237 0.779635
vt 0.193933 0.774439
vt 0.424029 0.695547
vt 0.423889 0.694842
vt 0.400403 0.719174
vt 0.399697 0.719034
vt 0.171226 0.779635
vt 0.183096 0.778929
vt 0.413189 0.700038
vt 0.399697 0.731048
vt 0.400403 0.730907
vt 0.160130 0.775037
vt 0.171366 0.778929
vt 0.404893 0.741748
vt 0.404294 0.742147
vt 0.152234 0.766142
vt 0.160529 0.774439
vt 0.413189 0.750045
vt 0.412790 0.750643
vt 0.151636 0.766542
vt 0.147744 0.755302
vt 0.331773 0.656540
vt 0.319345 0.654438
vt 0.332191 0.654439
vt 0.342869 0.712342
vt 0.332191 0.719039
vt 0.331773 0.716938
vt 0.308666 0.661136
vt 0.319763 0.656539
vt 0.351362 0.703847
vt 0.344059 0.714123
vt 0.300174 0.669630
vt 0.307477 0.659354
vt 0.358059 0.693167
vt 0.353143 0.705038
vt 0.293477 0.680311
vt 0.298393 0.668440
vt 0.355958 0.680735
vt 0.355958 0.692749
vt 0.543116 0.211314
vt 0.553797 0.204615
vt 0.554215 0.206717
vt 0.353143 0.668445
vt 0.358059 0.680317
vt 0.308666 0.712338
vt 0.298393 0.705033
vt 0.300174 0.703843
vt 0.319763 0.716937
vt 0.307477 0.714120
vt 0.342869 0.661139
vt 0.351362 0.669635
vt 0.913473 0.435874
vt 0.917995 0.448785
vt 0.913470 0.448785
vt 0.344059 0.659358
vt 0.319345 0.719038
vt 0.667468 0.757152
vt 0.672029 0.768216
vt 0.667505 0.768216
vt 0.590421 0.242922
vt 0.592522 0.230491
vt 0.592522 0.243340
vt 0.667455 0.744180
vt 0.671992 0.757151
vt 0.587605 0.255212
vt 0.585823 0.254022
vt 0.667468 0.731276
vt 0.671980 0.744180
vt 0.578519 0.264298
vt 0.577328 0.262517
vt 0.667505 0.720404
vt 0.671992 0.731276
vt 0.566647 0.269216
vt 0.566229 0.267115
vt 0.816999 0.918375
vt 0.821506 0.907259
vt 0.821525 0.918375
vt 0.553797 0.269216
vt 0.554215 0.267115
vt 0.816981 0.907259
vt 0.821500 0.894270
vt 0.541926 0.264298
vt 0.543116 0.262517
vt 0.816981 0.881387
vt 0.816975 0.894270
vt 0.532840 0.255212
vt 0.534621 0.254022
vt 0.816999 0.870569
vt 0.821506 0.881386
vt 0.913480 0.424983
vt 0.917998 0.435874
vt 0.530023 0.242923
vt 0.527922 0.243340
vt 0.913473 0.461750
vt 0.918004 0.472796
vt 0.913480 0.472796
vt 0.295578 0.692743
vt 0.295578 0.680729
vt 0.530023 0.230908
vt 0.527922 0.230491
vt 0.917998 0.461750
vt 0.463432 0.731373
vt 0.468107 0.742620
vt 0.463583 0.742624
vt 0.532840 0.218618
vt 0.534621 0.219809
vt 0.566647 0.204615
vt 0.566229 0.206717
vt 0.463379 0.718342
vt 0.467956 0.731369
vt 0.541926 0.209533
vt 0.463432 0.705515
vt 0.467903 0.718338
vt 0.577328 0.211313
vt 0.578519 0.209533
vt 0.587605 0.218618
vt 0.585823 0.219809
vt 0.463583 0.694845
vt 0.467956 0.705512
vt 0.590421 0.230908
vt 0.439020 0.928573
vt 0.439824 0.940324
vt 0.439009 0.940324
vt 0.439054 0.918673
vt 0.439836 0.928573
vt 0.962327 0.116147
vt 0.963160 0.126270
vt 0.962343 0.126270
vt 0.962321 0.104318
vt 0.963142 0.116147
vt 0.962327 0.092585
vt 0.963137 0.104318
vt 0.962343 0.082734
vt 0.963142 0.092585
vt 0.962544 0.068267
vt 0.963365 0.078327
vt 0.962550 0.078327
vt 0.962542 0.056460
vt 0.963359 0.068267
vt 0.962544 0.044703
vt 0.963357 0.056460
vt 0.962550 0.034784
vt 0.963359 0.044703
vt 0.349871 0.816700
vt 0.350825 0.826946
vt 0.350009 0.826946
vt 0.349823 0.804834
vt 0.350687 0.816700
vt 0.349871 0.793153
vt 0.350639 0.804833
vt 0.350009 0.783436
vt 0.350687 0.793152
vt 0.439020 0.952137
vt 0.439869 0.962214
vt 0.439054 0.962214
vt 0.439836 0.952137
vt 0.657331 0.930021
vt 0.656528 0.918270
vt 0.657343 0.918270
vt 0.656561 0.908370
vt 0.657377 0.908370
vt 0.963314 0.304319
vt 0.962481 0.294196
vt 0.963297 0.294196
vt 0.962476 0.282368
vt 0.963292 0.282368
vt 0.962481 0.270635
vt 0.963297 0.270635
vt 0.962499 0.260783
vt 0.963314 0.260783
vt 0.963727 0.718285
vt 0.962905 0.708226
vt 0.963720 0.708226
vt 0.962903 0.696418
vt 0.963718 0.696418
vt 0.962905 0.684661
vt 0.963720 0.684661
vt 0.962911 0.674743
vt 0.963727 0.674743
vt 0.143797 0.734303
vt 0.142844 0.724058
vt 0.143660 0.724057
vt 0.142796 0.712191
vt 0.143611 0.712190
vt 0.142844 0.700510
vt 0.143660 0.700509
vt 0.142982 0.690793
vt 0.143797 0.690793
vt 0.657377 0.951911
vt 0.656528 0.941834
vt 0.657343 0.941834
vt 0.656516 0.930021
vt 0.778597 0.783066
vt 0.785103 0.773575
vt 0.786891 0.774770
vt 0.777415 0.719888
vt 0.786906 0.713380
vt 0.778610 0.721677
vt 0.767760 0.787555
vt 0.777402 0.781277
vt 0.785118 0.712185
vt 0.791397 0.702539
vt 0.756450 0.785444
vt 0.756030 0.787554
vt 0.789287 0.702120
vt 0.791397 0.690806
vt 0.746388 0.781274
vt 0.745193 0.783063
vt 0.734519 0.752612
vt 0.732410 0.763925
vt 0.732410 0.752192
vt 0.789287 0.691226
vt 0.786906 0.679966
vt 0.738687 0.773571
vt 0.736899 0.774765
vt 0.738687 0.742548
vt 0.736899 0.741352
vt 0.777415 0.673458
vt 0.778610 0.671670
vt 0.746388 0.734845
vt 0.745193 0.733057
vt 0.767350 0.669290
vt 0.767770 0.667180
vt 0.745197 0.671670
vt 0.738689 0.681162
vt 0.736900 0.679967
vt 0.455497 0.707934
vt 0.446603 0.700038
vt 0.206714 0.755302
vt 0.207420 0.755443
vt 0.460095 0.719034
vt 0.454899 0.708334
vt 0.206713 0.743569
vt 0.207418 0.743429
vt 0.460095 0.731048
vt 0.459389 0.719174
vt 0.202223 0.732729
vt 0.202821 0.732329
vt 0.454899 0.741748
vt 0.459389 0.730907
vt 0.193928 0.724432
vt 0.194328 0.723835
vt 0.455497 0.742147
vt 0.446602 0.750045
vt 0.183231 0.719237
vt 0.183091 0.719943
vt 0.435903 0.755240
vt 0.447002 0.750643
vt 0.171221 0.719237
vt 0.171361 0.719943
vt 0.423889 0.755240
vt 0.435762 0.754535
vt 0.160525 0.724432
vt 0.160125 0.723835
vt 0.424029 0.754535
vt 0.152231 0.732729
vt 0.151633 0.732329
vt 0.945045 0.582997
vt 0.948174 0.594474
vt 0.945033 0.594474
vt 0.945077 0.573328
vt 0.948186 0.582997
vt 0.945593 0.338335
vt 0.948751 0.348221
vt 0.945609 0.348221
vt 0.945587 0.326783
vt 0.948734 0.338335
vt 0.945593 0.315324
vt 0.948729 0.326783
vt 0.945609 0.305703
vt 0.948734 0.315324
vt 0.948561 0.507898
vt 0.951709 0.517723
vt 0.948567 0.517723
vt 0.948559 0.496367
vt 0.951703 0.507898
vt 0.948561 0.484884
vt 0.951701 0.496367
vt 0.948567 0.475198
vt 0.951703 0.484884
vt 0.944643 0.931211
vt 0.947918 0.941215
vt 0.944777 0.941218
vt 0.944595 0.919621
vt 0.947783 0.931209
vt 0.944643 0.908214
vt 0.947736 0.919619
vt 0.944777 0.898724
vt 0.947783 0.908211
vt 0.945045 0.606010
vt 0.948219 0.615851
vt 0.945077 0.615851
vt 0.948186 0.606010
vt 0.948348 0.716540
vt 0.945218 0.705064
vt 0.948359 0.705064
vt 0.948392 0.695395
vt 0.945251 0.695395
vt 0.948745 0.125252
vt 0.945587 0.115366
vt 0.948729 0.115366
vt 0.945581 0.103814
vt 0.948723 0.103814
vt 0.945587 0.092355
vt 0.948729 0.092355
vt 0.945603 0.082734
vt 0.948745 0.082734
vt 0.702868 0.951657
vt 0.699720 0.941833
vt 0.702862 0.941833
vt 0.699718 0.930302
vt 0.702859 0.930302
vt 0.699720 0.918819
vt 0.702862 0.918819
vt 0.699726 0.909132
vt 0.702868 0.909132
vt 0.222146 0.945437
vt 0.218871 0.935433
vt 0.222012 0.935431
vt 0.218823 0.923844
vt 0.221964 0.923841
vt 0.222012 0.912433
vt 0.218871 0.912436
vt 0.219005 0.902946
vt 0.222146 0.902944
vt 0.948392 0.737918
vt 0.945218 0.728077
vt 0.948359 0.728077
vt 0.945207 0.716540
vt 0.966295 0.379267
vt 0.965813 0.377848
vt 0.966493 0.377847
vt 0.618499 0.931331
vt 0.614618 0.932426
vt 0.612982 0.931331
vt 0.967104 0.204062
vt 0.966626 0.206031
vt 0.966424 0.204062
vt 0.131833 0.933998
vt 0.127950 0.935095
vt 0.126318 0.933998
vt 0.965821 0.341448
vt 0.966302 0.339639
vt 0.966500 0.341448
vt 0.033846 0.959904
vt 0.037723 0.958813
vt 0.039363 0.959904
vt 0.444703 0.946998
vt 0.448582 0.948094
vt 0.443065 0.948094
vt 0.017659 0.936300
vt 0.017166 0.934453
vt 0.017846 0.934452
vt 0.359781 0.924997
vt 0.355902 0.926093
vt 0.354264 0.924997
vt 0.965816 0.383279
vt 0.966296 0.381476
vt 0.966496 0.383279
vt 0.245728 0.956703
vt 0.249612 0.957800
vt 0.244096 0.957800
vt 0.978935 0.279647
vt 0.979427 0.281496
vt 0.978747 0.281496
vt 0.522328 0.955514
vt 0.526207 0.954419
vt 0.527845 0.955514
vt 0.977545 0.918917
vt 0.978024 0.917112
vt 0.978225 0.918917
vt 0.962964 0.130083
vt 0.962480 0.128670
vt 0.963160 0.128670
vt 0.954559 0.284864
vt 0.958442 0.283773
vt 0.960075 0.284864
vt 0.767770 0.726167
vt 0.789271 0.763511
vt 0.791380 0.763930
vt 0.756457 0.724057
vt 0.756037 0.726167
vt 0.789271 0.752616
vt 0.791380 0.752197
vt 0.746392 0.719889
vt 0.745197 0.721677
vt 0.786891 0.741357
vt 0.736900 0.713380
vt 0.777402 0.734848
vt 0.778597 0.733059
vt 0.732410 0.702540
vt 0.738689 0.712185
vt 0.767341 0.730678
vt 0.767760 0.728568
vt 0.732410 0.690806
vt 0.734520 0.702121
vt 0.756457 0.669290
vt 0.756037 0.667180
vt 0.756030 0.728567
vt 0.734520 0.691226
vt 0.756450 0.730677
vt 0.017271 0.960189
vt 0.018079 0.962482
vt 0.017204 0.962482
vt 0.017887 0.955484
vt 0.017954 0.953191
vt 0.017079 0.953192
vt 0.017207 0.955484
vt 0.966595 0.385926
vt 0.965720 0.385926
vt 0.966589 0.375201
vt 0.965714 0.375201
vt 0.017166 0.950536
vt 0.017823 0.945086
vt 0.017910 0.942430
vt 0.017143 0.945086
vt 0.017035 0.942431
vt 0.965813 0.372575
vt 0.966493 0.372575
vt 0.966595 0.364561
vt 0.966496 0.367187
vt 0.965720 0.364561
vt 0.017143 0.939817
vt 0.017954 0.931838
vt 0.017079 0.931839
vt 0.965821 0.362357
vt 0.966501 0.362357
vt 0.966610 0.355628
vt 0.966509 0.357833
vt 0.965735 0.355628
vt 0.017207 0.929664
vt 0.017950 0.925202
vt 0.018079 0.923027
vt 0.017271 0.925202
vt 0.017204 0.923028
vt 0.966424 0.239074
vt 0.967203 0.241325
vt 0.966328 0.241325
vt 0.967104 0.239074
vt 0.967197 0.232203
vt 0.967101 0.234455
vt 0.966322 0.232203
vt 0.966421 0.234455
vt 0.965846 0.350973
vt 0.966631 0.353228
vt 0.965756 0.353228
vt 0.966511 0.346346
vt 0.966600 0.344091
vt 0.965831 0.346346
vt 0.965725 0.344091
vt 0.967100 0.229561
vt 0.967196 0.221497
vt 0.967099 0.224139
vt 0.966321 0.221497
vt 0.966420 0.229561
vt 0.965815 0.330750
vt 0.966590 0.333380
vt 0.965715 0.333380
vt 0.966495 0.330750
vt 0.966600 0.322723
vt 0.965821 0.325354
vt 0.965726 0.322723
vt 0.966495 0.336023
vt 0.965815 0.336023
vt 0.966419 0.218866
vt 0.967099 0.218866
vt 0.967197 0.210835
vt 0.967100 0.213467
vt 0.966322 0.210835
vt 0.965831 0.320508
vt 0.966526 0.315962
vt 0.966631 0.313746
vt 0.965846 0.315962
vt 0.965756 0.313746
vt 0.967101 0.208616
vt 0.967203 0.201842
vt 0.966328 0.201842
vt 0.966421 0.208616
vt 0.965829 0.392840
vt 0.966610 0.395105
vt 0.965735 0.395106
vt 0.966501 0.388192
vt 0.965821 0.388192
vt 0.980488 0.845748
vt 0.980212 0.823104
vt 0.980488 0.823105
vt 0.580192 0.957657
vt 0.578396 0.934662
vt 0.580638 0.934662
vt 0.781108 0.953033
vt 0.782899 0.930038
vt 0.783351 0.953033
vt 0.977763 0.893302
vt 0.977731 0.873455
vt 0.978040 0.893302
vt 0.475845 0.926034
vt 0.474053 0.949030
vt 0.473602 0.926034
vt 0.980763 0.642806
vt 0.980994 0.665334
vt 0.980718 0.665334
vt 0.912707 0.932048
vt 0.910911 0.955039
vt 0.910464 0.932048
vt 0.981888 0.956237
vt 0.982108 0.975244
vt 0.981832 0.975244
vt 0.979362 0.626256
vt 0.979549 0.603563
vt 0.979637 0.626256
vt 0.828787 0.932315
vt 0.830578 0.955310
vt 0.828335 0.955310
vt 0.982862 0.498017
vt 0.983105 0.479420
vt 0.983138 0.498017
vt 0.129741 0.958090
vt 0.130192 0.935095
vt 0.981866 0.117448
vt 0.982107 0.136581
vt 0.981830 0.136581
vt 0.035924 0.935822
vt 0.035480 0.958813
vt 0.445154 0.924003
vt 0.446945 0.946998
vt 0.977748 0.917112
vt 0.977925 0.897492
vt 0.966324 0.349004
vt 0.966526 0.350973
vt 0.966300 0.337433
vt 0.826698 0.956405
vt 0.832215 0.956405
vt 0.978469 0.374867
vt 0.978948 0.376696
vt 0.978268 0.376696
vt 0.978224 0.895092
vt 0.977545 0.895092
vt 0.134321 0.469014
vt 0.138200 0.470111
vt 0.132683 0.470111
vt 0.966307 0.390871
vt 0.966509 0.392840
vt 0.676729 0.959648
vt 0.680613 0.958555
vt 0.682245 0.959648
vt 0.017383 0.948748
vt 0.017845 0.950535
vt 0.477483 0.924938
vt 0.471966 0.924938
vt 0.966307 0.359803
vt 0.965829 0.357833
vt 0.779472 0.954128
vt 0.784989 0.954128
vt 0.576763 0.933564
vt 0.582279 0.933564
vt 0.977305 0.845568
vt 0.977811 0.847016
vt 0.977131 0.847016
vt 0.901302 0.957461
vt 0.905186 0.958556
vt 0.899671 0.958556
vt 0.978087 0.333279
vt 0.978562 0.335089
vt 0.977882 0.335089
vt 0.148674 0.947092
vt 0.152555 0.948189
vt 0.147038 0.948189
vt 0.017650 0.946532
vt 0.954559 0.337824
vt 0.958437 0.336734
vt 0.960075 0.337824
vt 0.966622 0.227750
vt 0.966898 0.215294
vt 0.966420 0.213467
vt 0.721907 0.945026
vt 0.725788 0.946122
vt 0.720271 0.946122
vt 0.958437 0.341316
vt 0.954559 0.340225
vt 0.960076 0.340225
vt 0.978319 0.055820
vt 0.978794 0.053990
vt 0.978999 0.055820
vt 0.966621 0.225546
vt 0.966419 0.224139
vt 0.411495 0.933457
vt 0.407615 0.932362
vt 0.413132 0.932362
vt 0.790634 0.901633
vt 0.791111 0.900225
vt 0.791314 0.901633
vt 0.017748 0.927171
vt 0.574160 0.921827
vt 0.570280 0.922924
vt 0.568643 0.921827
vt 0.787389 0.979159
vt 0.787866 0.977323
vt 0.788069 0.979159
vt 0.060702 0.958153
vt 0.064576 0.959248
vt 0.059061 0.959248
vt 0.017472 0.958221
vt 0.017950 0.960189
vt 0.271988 0.949662
vt 0.275869 0.948566
vt 0.277505 0.949662
vt 0.966020 0.369021
vt 0.965816 0.367187
vt 0.394095 0.927035
vt 0.390216 0.928130
vt 0.388578 0.927035
vt 0.332767 0.933021
vt 0.328889 0.931921
vt 0.334406 0.931921
vt 0.507466 0.958436
vt 0.511350 0.959530
vt 0.505834 0.959530
vt 0.966324 0.317931
vt 0.298394 0.929568
vt 0.294513 0.930663
vt 0.292877 0.929568
vt 0.978384 0.020701
vt 0.978862 0.022514
vt 0.978182 0.022514
vt 0.966902 0.237104
vt 0.966302 0.327183
vt 0.966500 0.325354
vt 0.941036 0.256468
vt 0.944916 0.257565
vt 0.939399 0.257565
vt 0.901750 0.934466
vt 0.903544 0.957461
vt 0.978234 0.313746
vt 0.978364 0.333279
vt 0.722358 0.922030
vt 0.724149 0.945026
vt 0.979938 0.471923
vt 0.980141 0.449240
vt 0.980213 0.471923
vt 0.956645 0.364303
vt 0.956194 0.341316
vt 0.790907 0.877627
vt 0.790834 0.900225
vt 0.979214 0.432764
vt 0.979412 0.410044
vt 0.979489 0.432764
vt 0.572522 0.922924
vt 0.570731 0.945919
vt 0.977383 0.479420
vt 0.977579 0.501974
vt 0.977303 0.501974
vt 0.061158 0.935159
vt 0.062945 0.958153
vt 0.296756 0.930663
vt 0.294965 0.953659
vt 0.981433 0.736938
vt 0.981667 0.714540
vt 0.981709 0.736938
vt 0.547413 0.929966
vt 0.549207 0.952956
vt 0.546964 0.952956
vt 0.962873 0.152669
vt 0.962687 0.130083
vt 0.981651 0.775280
vt 0.981927 0.753027
vt 0.981927 0.775279
vt 0.523964 0.954419
vt 0.525755 0.931424
vt 0.980683 0.849417
vt 0.980902 0.871978
vt 0.980625 0.871978
vt 0.246181 0.933708
vt 0.247970 0.956703
vt 0.616861 0.932426
vt 0.615070 0.955421
vt 0.981263 0.023612
vt 0.981475 0.001201
vt 0.981539 0.023612
vt 0.302884 0.929568
vt 0.304673 0.952558
vt 0.302430 0.952558
vt 0.978549 0.355629
vt 0.978746 0.374867
vt 0.979301 0.532669
vt 0.979148 0.555453
vt 0.979024 0.532669
vt 0.134772 0.446019
vt 0.136563 0.469014
vt 0.977477 0.823104
vt 0.977582 0.845568
vt 0.678370 0.958555
vt 0.680169 0.935562
vt 0.149126 0.924097
vt 0.150917 0.947092
vt 0.982615 0.467934
vt 0.982890 0.449240
vt 0.982890 0.467934
vt 0.956195 0.336734
vt 0.957982 0.313746
vt 0.978650 0.034784
vt 0.978518 0.053990
vt 0.981598 0.247316
vt 0.981818 0.224955
vt 0.981874 0.247316
vt 0.411043 0.956452
vt 0.409252 0.933457
vt 0.787690 0.958208
vt 0.787589 0.977323
vt 0.796646 0.956976
vt 0.794860 0.933983
vt 0.797103 0.933983
vt 0.981894 0.410045
vt 0.982167 0.429085
vt 0.981890 0.429085
vt 0.274078 0.925571
vt 0.273626 0.948566
vt 0.982333 0.403131
vt 0.982553 0.384403
vt 0.982609 0.403131
vt 0.392008 0.951126
vt 0.392459 0.928130
vt 0.332320 0.956013
vt 0.330524 0.933021
vt 0.981722 0.778402
vt 0.981998 0.797782
vt 0.981722 0.797779
vt 0.509250 0.935443
vt 0.509709 0.958436
vt 0.983165 0.823104
vt 0.983012 0.841443
vt 0.982889 0.823109
vt 0.941487 0.233473
vt 0.943278 0.256468
vt 0.978580 0.001201
vt 0.978661 0.020701
vt 0.979275 0.260783
vt 0.979211 0.279647
vt 0.956199 0.283773
vt 0.957996 0.260783
vt 0.981028 0.315195
vt 0.981239 0.337711
vt 0.980963 0.337711
vt 0.357693 0.949089
vt 0.358145 0.926093
vt 0.096556 0.977990
vt 0.093578 0.975145
vt 0.096556 0.975146
vt 0.093579 0.980087
vt 0.093578 0.977989
vt 0.958838 0.974652
vt 0.955864 0.971820
vt 0.958841 0.971821
vt 0.955860 0.977512
vt 0.955860 0.974651
vt 0.958841 0.979640
vt 0.958838 0.977514
vt 0.829676 0.974764
vt 0.826706 0.971935
vt 0.829683 0.971939
vt 0.826698 0.977606
vt 0.826698 0.974760
vt 0.829676 0.977610
vt 0.826706 0.979709
vt 0.558629 0.974455
vt 0.555683 0.971627
vt 0.558661 0.971641
vt 0.555653 0.977317
vt 0.555653 0.974442
vt 0.916918 0.983138
vt 0.916142 0.980701
vt 0.916924 0.980702
vt 0.558661 0.979495
vt 0.558629 0.977330
vt 0.093579 0.972319
vt 0.096557 0.972319
vt 0.985765 0.800592
vt 0.984976 0.803027
vt 0.984983 0.800591
vt 0.928137 0.953612
vt 0.930882 0.954327
vt 0.930680 0.955080
vt 0.933617 0.955074
vt 0.933414 0.954322
vt 0.936160 0.953597
vt 0.935606 0.953045
vt 0.937628 0.951043
vt 0.936160 0.945548
vt 0.933416 0.944831
vt 0.933617 0.944080
vt 0.930680 0.944085
vt 0.930884 0.944836
vt 0.928137 0.945563
vt 0.928691 0.946113
vt 0.926669 0.948117
vt 0.927423 0.950861
vt 0.926669 0.951063
vt 0.928689 0.953060
vt 0.858765 0.940536
vt 0.856021 0.941253
vt 0.858564 0.939785
vt 0.856572 0.941803
vt 0.854553 0.943802
vt 0.855307 0.944004
vt 0.854553 0.946749
vt 0.856574 0.948753
vt 0.856021 0.949304
vt 0.858768 0.950030
vt 0.858564 0.950782
vt 0.861300 0.950036
vt 0.861500 0.950788
vt 0.864044 0.949320
vt 0.863492 0.948769
vt 0.865512 0.946771
vt 0.864758 0.946569
vt 0.865512 0.943824
vt 0.863490 0.941819
vt 0.864044 0.941269
vt 0.861297 0.940543
vt 0.861500 0.939791
vt 0.935061 0.429615
vt 0.933622 0.432055
vt 0.933621 0.429604
vt 0.987204 0.803044
vt 0.985759 0.805482
vt 0.985759 0.803028
vt 0.986731 0.465037
vt 0.987513 0.463228
vt 0.987514 0.465037
vt 0.984976 0.805481
vt 0.986938 0.610313
vt 0.986152 0.608477
vt 0.986935 0.608478
vt 0.932838 0.429604
vt 0.932839 0.432055
vt 0.987513 0.460776
vt 0.986731 0.458339
vt 0.987514 0.458339
vt 0.985765 0.807295
vt 0.984983 0.807294
vt 0.986152 0.606007
vt 0.986935 0.606007
vt 0.933622 0.427166
vt 0.932839 0.427166
vt 0.986731 0.276753
vt 0.985922 0.274880
vt 0.986704 0.274884
vt 0.984426 0.791160
vt 0.985181 0.793593
vt 0.984399 0.793589
vt 0.986938 0.603563
vt 0.933623 0.433865
vt 0.932840 0.433865
vt 0.985922 0.272398
vt 0.986704 0.272402
vt 0.984399 0.796072
vt 0.984571 0.422641
vt 0.985350 0.425085
vt 0.984568 0.425085
vt 0.986731 0.269972
vt 0.985181 0.796075
vt 0.984426 0.797941
vt 0.984568 0.427555
vt 0.916142 0.987403
vt 0.916918 0.985591
vt 0.916924 0.987404
vt 0.985350 0.427556
vt 0.984571 0.429391
vt 0.916135 0.985590
vt 0.986730 0.463228
vt 0.891814 0.424508
vt 0.891814 0.431119
vt 0.886060 0.427814
vt 0.934046 0.963213
vt 0.927658 0.964949
vt 0.929369 0.958527
vt 0.984525 0.270537
vt 0.985949 0.269968
vt 0.987204 0.804959
vt 0.892388 0.432050
vt 0.893218 0.429722
vt 0.894187 0.430260
vt 0.986663 0.791746
vt 0.985208 0.791163
vt 0.926895 0.958758
vt 0.929087 0.957480
vt 0.914701 0.983149
vt 0.916135 0.983137
vt 0.986642 0.795580
vt 0.985291 0.460788
vt 0.986730 0.460776
vt 0.986795 0.423200
vt 0.985353 0.422641
vt 0.986663 0.797039
vt 0.985208 0.797944
vt 0.985291 0.462701
vt 0.986793 0.427036
vt 0.893218 0.425905
vt 0.892388 0.423581
vt 0.894187 0.425370
vt 0.986795 0.428469
vt 0.985354 0.429391
vt 0.984715 0.607956
vt 0.984526 0.275831
vt 0.985949 0.276749
vt 0.984717 0.604120
vt 0.986156 0.603563
vt 0.984505 0.274372
vt 0.912584 0.435974
vt 0.297886 0.705377
vt 0.293477 0.693161
vt 0.912591 0.425166
vt 0.307141 0.714635
vt 0.462548 0.731285
vt 0.319232 0.719646
vt 0.462496 0.718353
vt 0.332321 0.719647
vt 0.462548 0.705624
vt 0.344413 0.714638
vt 0.462698 0.695035
vt 0.353668 0.705381
vt 0.666580 0.757056
vt 0.358676 0.693286
vt 0.666568 0.744184
vt 0.358676 0.680194
vt 0.666580 0.731378
vt 0.353668 0.668098
vt 0.666616 0.720588
vt 0.344413 0.658840
vt 0.816092 0.907166
vt 0.332321 0.653829
vt 0.816087 0.894276
vt 0.319232 0.653828
vt 0.816092 0.881490
vt 0.307141 0.658837
vt 0.816111 0.870754
vt 0.297886 0.668093
vt 0.912584 0.461655
vt 0.292877 0.680188
vt 0.912582 0.448788
vt 0.292877 0.693281
vt 0.553674 0.204006
vt 0.918887 0.435974
vt 0.566766 0.204006
vt 0.918894 0.425166
vt 0.918004 0.424983
vt 0.578862 0.209016
vt 0.469000 0.742445
vt 0.468849 0.731280
vt 0.588119 0.218273
vt 0.468797 0.718348
vt 0.593129 0.230369
vt 0.468849 0.705619
vt 0.593129 0.243461
vt 0.469000 0.695030
vt 0.468107 0.694842
vt 0.588119 0.255557
vt 0.672919 0.768036
vt 0.672883 0.757056
vt 0.578862 0.264814
vt 0.672870 0.744183
vt 0.566766 0.269824
vt 0.672883 0.731377
vt 0.553674 0.269824
vt 0.672029 0.720404
vt 0.672919 0.720588
vt 0.541579 0.264814
vt 0.822413 0.918197
vt 0.822395 0.907165
vt 0.532321 0.255557
vt 0.822390 0.894275
vt 0.527311 0.243462
vt 0.822395 0.881490
vt 0.527311 0.230370
vt 0.821525 0.870569
vt 0.822413 0.870754
vt 0.532321 0.218273
vt 0.918894 0.472616
vt 0.918887 0.461655
vt 0.541579 0.209016
vt 0.918885 0.448788
vt 0.147039 0.755443
vt 0.439869 0.918673
vt 0.963160 0.082734
vt 0.963365 0.034784
vt 0.350825 0.783435
vt 0.962499 0.304319
vt 0.962911 0.718285
vt 0.142982 0.734304
vt 0.656561 0.951911
vt 0.767341 0.785445
vt 0.734519 0.763505
vt 0.785118 0.681161
vt 0.746392 0.673458
vt 0.948219 0.573328
vt 0.948751 0.305703
vt 0.951709 0.475198
vt 0.947918 0.898721
vt 0.945603 0.125253
vt 0.699726 0.951657
vt 0.219005 0.945440
vt 0.945251 0.737918
vt 0.966019 0.379267
vt 0.966902 0.206031
vt 0.966026 0.339639
vt 0.017383 0.936301
vt 0.966020 0.381476
vt 0.767350 0.724057
vt 0.785103 0.742551
vt 0.017823 0.939816
vt 0.017887 0.929664
vt 0.966511 0.320508
vt 0.980335 0.845748
vt 0.578853 0.957657
vt 0.781559 0.930038
vt 0.977578 0.873455
vt 0.475393 0.949030
vt 0.980916 0.642806
vt 0.912251 0.955039
vt 0.982041 0.956237
vt 0.979397 0.603563
vt 0.830127 0.932315
vt 0.982951 0.479420
vt 0.128402 0.958090
vt 0.982019 0.117448
vt 0.037264 0.935822
vt 0.446494 0.924003
vt 0.977773 0.897492
vt 0.966048 0.349004
vt 0.966024 0.337433
vt 0.966031 0.390871
vt 0.017659 0.948747
vt 0.966031 0.359803
vt 0.017374 0.946532
vt 0.966898 0.227750
vt 0.966622 0.215294
vt 0.966898 0.225546
vt 0.017472 0.927171
vt 0.017748 0.958221
vt 0.966296 0.369021
vt 0.966048 0.317931
vt 0.966626 0.237104
vt 0.966026 0.327183
vt 0.903090 0.934466
vt 0.978082 0.313746
vt 0.723698 0.922030
vt 0.979989 0.449240
vt 0.957983 0.364303
vt 0.791059 0.877627
vt 0.979259 0.410044
vt 0.572071 0.945919
vt 0.977535 0.479420
vt 0.062498 0.935159
vt 0.296304 0.953659
vt 0.981514 0.714540
vt 0.548752 0.929966
vt 0.962721 0.152669
vt 0.981774 0.753027
vt 0.524415 0.931424
vt 0.980835 0.849417
vt 0.247521 0.933708
vt 0.616409 0.955421
vt 0.981322 0.001201
vt 0.304224 0.929568
vt 0.978702 0.355629
vt 0.979301 0.555453
vt 0.136112 0.446019
vt 0.977629 0.823104
vt 0.678830 0.935562
vt 0.150465 0.924097
vt 0.982737 0.449240
vt 0.956643 0.313746
vt 0.978802 0.034784
vt 0.981666 0.224955
vt 0.409704 0.956452
vt 0.787843 0.958208
vt 0.795307 0.956976
vt 0.982047 0.410045
vt 0.275418 0.925571
vt 0.982400 0.384403
vt 0.390668 0.951126
vt 0.330981 0.956013
vt 0.981875 0.778403
vt 0.507911 0.935443
vt 0.983165 0.841440
vt 0.942827 0.233473
vt 0.978428 0.001201
vt 0.979427 0.260783
vt 0.956657 0.260783
vt 0.981180 0.315195
vt 0.356354 0.949089
vt 0.096557 0.980087
vt 0.955863 0.979639
vt 0.829683 0.979712
vt 0.555683 0.979482
vt 0.936873 0.950840
vt 0.935609 0.946098
vt 0.927424 0.948318
vt 0.855308 0.946547
vt 0.864757 0.944025
vt 0.935062 0.431529
vt 0.986156 0.610313
vt 0.886574 0.425905
vt 0.887978 0.424508
vt 0.889896 0.423996
vt 0.893732 0.427814
vt 0.889896 0.431631
vt 0.887978 0.431119
vt 0.886574 0.429722
vt 0.931345 0.958522
vt 0.933057 0.959510
vt 0.934046 0.961227
vt 0.933057 0.964935
vt 0.931346 0.965932
vt 0.929369 0.965938
vt 0.926670 0.963232
vt 0.926670 0.961247
vt 0.927658 0.959524
vt 0.984505 0.272434
vt 0.987209 0.806376
vt 0.935062 0.427711
vt 0.986642 0.793642
vt 0.914701 0.985064
vt 0.986793 0.425108
vt 0.914706 0.981247
vt 0.985292 0.464113
vt 0.985292 0.458884
vt 0.984715 0.606028
vt 0.987209 0.801143
vt 0.462698 0.742450
vt 0.666616 0.768037
vt 0.816111 0.918197
vt 0.912591 0.472616
s 1
g off
g Cylinder.012_Material.002
usemtl Material.002
f 6/1/1 79/2/1 7/3/1
f 20/4/2 115/5/2 19/6/2
f 17/7/2 128/8/2 32/9/2
f 5/10/1 102/11/1 6/1/1
f 19/6/2 113/12/2 18/13/2
f 32/9/2 127/14/2 31/15/2
f 4/16/1 101/17/1 5/10/1
f 18/13/2 114/18/2 17/7/2
f 30/19/2 127/14/2 126/20/2
f 3/21/1 100/22/1 4/16/1
f 30/19/2 125/23/2 29/24/2
f 3/21/1 97/25/1 99/26/1
f 29/24/2 124/27/2 28/28/2
f 2/29/1 98/30/1 97/25/1
f 44/31/1 485/32/3 482/33/4
f 38/34/1 461/35/5 37/36/1
f 46/37/1 485/32/3 45/38/1
f 39/39/1 464/40/6 38/34/1
f 47/41/1 488/42/7 46/37/1
f 39/39/1 470/43/8 467/44/9
f 47/41/1 494/45/10 491/46/11
f 41/47/1 470/43/8 40/48/1
f 50/49/2 498/50/12 49/51/2
f 41/47/1 476/52/13 473/53/14
f 35/54/1 449/55/15 33/56/1
f 36/57/1 455/58/16 35/54/1
f 43/59/1 476/52/13 42/60/1
f 450/61/17 501/62/18 452/63/19
f 43/59/1 482/33/4 479/64/20
f 37/36/1 458/65/21 36/57/1
f 471/66/22 515/67/23 468/68/24
f 55/69/2 513/70/25 516/71/26
f 474/72/27 518/73/28 471/66/22
f 55/69/2 519/74/29 56/75/2
f 477/76/30 521/77/31 474/72/27
f 56/75/2 522/78/32 57/79/2
f 480/80/33 524/81/34 477/76/30
f 57/79/2 525/82/35 58/83/2
f 480/84/33 530/85/36 527/86/37
f 58/83/2 528/87/38 59/88/2
f 483/89/39 533/90/40 530/85/36
f 59/88/2 531/91/41 60/92/2
f 489/93/42 533/90/40 486/94/43
f 60/92/2 534/95/44 61/96/2
f 492/97/45 536/98/46 489/93/42
f 456/99/47 497/100/48 450/61/17
f 62/101/2 534/95/44 537/102/49
f 495/103/50 539/104/51 492/105/45
f 34/106/1 494/45/10 48/107/1
f 63/108/2 537/102/49 540/109/52
f 452/63/19 542/110/53 495/103/50
f 459/111/54 503/112/55 456/113/47
f 63/108/2 543/114/56 64/115/2
f 49/51/2 504/116/57 51/117/2
f 462/118/58 506/119/59 459/111/54
f 64/115/2 500/120/60 50/49/2
f 465/121/61 509/122/62 462/118/58
f 52/123/2 504/116/57 507/124/63
f 52/123/2 510/125/64 53/126/2
f 468/127/24 512/128/65 465/121/61
f 54/129/2 510/125/64 513/70/25
s 2
f 2/130/66 34/131/67 1/132/67
f 3/133/68 33/134/66 2/130/66
f 4/135/69 35/136/68 3/137/68
f 5/138/70 36/139/69 4/135/69
f 6/140/71 37/141/70 5/138/70
f 7/142/72 38/143/71 6/140/71
f 8/144/73 39/145/72 7/146/72
f 9/147/74 40/148/73 8/144/73
f 10/149/75 41/150/74 9/147/74
f 11/151/76 42/152/75 10/149/75
f 12/153/77 43/154/76 11/155/76
f 13/156/78 44/157/77 12/153/77
f 14/158/79 45/159/78 13/156/78
f 15/160/80 46/161/79 14/158/79
f 16/162/81 47/163/80 15/164/80
f 1/132/67 48/165/81 16/162/81
f 17/166/67 49/167/66 18/168/66
f 18/168/66 51/169/68 19/170/68
f 19/171/68 52/172/69 20/173/69
f 20/173/69 53/174/70 21/175/70
f 21/175/70 54/176/71 22/177/71
f 22/177/71 55/178/72 23/179/72
f 23/180/72 56/181/73 24/182/73
f 24/182/73 57/183/74 25/184/74
f 25/184/74 58/185/75 26/186/75
f 26/186/75 59/187/76 27/188/76
f 27/189/76 60/190/77 28/191/77
f 28/191/77 61/192/78 29/193/78
f 29/193/78 62/194/79 30/195/79
f 30/195/79 63/196/80 31/197/80
f 31/198/80 64/199/81 32/200/81
f 32/200/81 50/201/67 17/166/67
f 118/202/1 144/203/1 119/204/1
f 151/205/2 104/206/2 105/207/2
f 117/208/1 140/209/1 118/202/1
f 147/210/2 103/211/2 104/206/2
f 133/212/1 117/208/1 116/213/1
f 143/214/2 75/215/2 103/211/2
f 160/216/1 116/213/1 96/217/1
f 150/218/1 89/219/1 86/220/1
f 139/221/2 71/222/2 75/215/2
f 156/223/1 96/217/1 92/224/1
f 146/225/1 86/220/1 82/226/1
f 71/222/2 134/227/2 70/228/2
f 89/219/1 156/223/1 92/224/1
f 142/229/1 82/226/1 78/230/1
f 70/228/2 159/231/2 95/232/2
f 90/233/2 149/234/2 85/235/2
s 1
f 21/236/2 69/237/2 20/4/2
f 7/3/1 83/238/1 8/239/1
f 22/240/2 72/241/2 21/236/2
f 8/239/1 87/242/1 9/243/1
f 23/244/2 76/245/2 22/240/2
f 9/243/1 93/246/1 10/247/1
f 23/244/2 84/248/2 80/249/2
f 10/247/1 66/250/1 11/251/1
f 24/252/2 88/253/2 84/248/2
f 12/254/1 66/250/1 67/255/1
f 26/256/2 88/253/2 25/257/2
f 13/258/1 67/255/1 73/259/1
f 27/260/2 94/261/2 26/256/2
f 13/258/1 77/262/1 14/263/1
f 28/28/2 65/264/2 27/260/2
f 14/263/1 111/265/1 15/266/1
s 2
f 91/267/66 98/268/67 90/269/67
f 95/270/68 97/271/66 91/267/66
f 70/272/69 99/273/68 95/274/68
f 71/275/70 100/276/69 70/272/69
f 75/277/71 101/278/70 71/275/70
f 103/279/72 102/280/71 75/277/71
f 104/281/73 79/282/72 103/283/72
f 105/284/74 83/285/73 104/281/73
f 106/286/75 87/287/74 105/284/74
f 107/288/76 93/289/75 106/286/75
f 108/290/77 66/291/76 107/292/76
f 109/293/78 67/294/77 108/290/77
f 110/295/79 73/296/78 109/293/78
f 81/297/80 77/298/79 110/295/79
f 85/299/81 111/300/80 81/301/80
f 90/269/67 112/302/81 85/299/81
f 89/303/67 113/304/66 92/305/66
f 96/306/68 113/304/66 115/307/68
f 96/308/68 69/309/69 116/310/69
f 116/310/69 72/311/70 117/312/70
f 117/312/70 76/313/71 118/314/71
f 118/314/71 80/315/72 119/316/72
f 119/317/72 84/318/73 120/319/73
f 120/319/73 88/320/74 121/321/74
f 121/321/74 94/322/75 122/323/75
f 122/323/75 65/324/76 123/325/76
f 123/326/76 124/327/77 68/328/77
f 68/328/77 125/329/78 74/330/78
f 78/331/79 125/329/78 126/332/79
f 78/331/79 127/333/80 82/334/80
f 82/335/80 128/336/81 86/337/81
f 86/337/81 114/338/67 89/303/67
s 1
f 232/339/82 168/340/83 167/341/83
s 2
f 208/342/84 269/343/85 205/344/84
s 1
f 219/345/86 283/346/87 220/347/86
s 2
f 166/348/88 232/349/89 167/350/88
s 1
f 205/351/90 270/352/91 206/353/90
s 2
f 218/354/92 284/355/93 219/356/92
f 231/357/94 165/358/95 168/359/95
s 1
f 244/360/96 180/361/97 179/362/97
s 2
f 220/363/98 281/364/99 217/365/98
s 1
f 165/366/100 229/367/101 166/368/100
s 2
f 242/369/102 179/370/103 178/371/103
s 1
f 281/372/104 218/373/105 217/374/105
s 2
f 180/375/106 241/376/107 177/377/106
s 1
f 191/378/108 255/379/109 192/380/108
f 241/381/110 178/382/111 177/383/111
s 2
f 190/384/112 256/385/113 191/386/112
f 106/387/2 151/205/2 105/207/2
f 119/204/1 148/388/1 120/389/1
f 130/390/2 106/387/2 107/391/2
f 120/389/1 152/392/1 121/393/1
f 131/394/2 107/391/2 108/395/2
f 152/392/1 122/396/1 121/393/1
f 109/397/2 131/394/2 108/395/2
f 122/396/1 129/398/1 123/399/1
f 110/400/2 137/401/2 109/397/2
f 123/399/1 132/402/1 68/403/1
f 81/404/2 141/405/2 110/400/2
f 155/406/2 90/233/2 91/407/2
f 132/402/1 74/408/1 68/403/1
f 85/235/2 145/409/2 81/404/2
f 95/232/2 155/406/2 91/407/2
f 138/410/1 78/230/1 74/408/1
s 1
f 161/411/114 129/412/76 130/413/76
f 129/412/76 163/414/115 132/415/77
f 163/414/115 131/416/77 132/415/77
f 164/417/115 130/413/76 131/416/77
f 165/366/100 133/418/69 134/419/69
f 166/368/100 136/420/70 133/418/69
f 167/341/83 135/421/70 136/420/70
f 135/421/70 165/366/100 134/419/69
f 169/422/116 132/415/77 131/416/77
f 132/415/77 171/423/117 138/424/78
f 138/424/78 172/425/117 137/426/78
f 172/425/117 131/416/77 137/426/78
f 173/427/118 136/420/70 135/421/70
f 174/428/118 140/429/71 136/420/70
f 175/430/119 139/431/71 140/429/71
f 139/431/71 173/427/118 135/421/70
f 177/432/111 138/424/78 137/426/78
f 138/424/78 179/362/97 142/433/79
f 142/433/79 180/361/97 141/434/79
f 141/434/79 177/432/111 137/426/78
f 181/435/120 140/429/71 139/431/71
f 182/436/120 144/437/72 140/429/71
f 183/438/121 143/439/72 144/437/72
f 143/439/72 181/435/120 139/431/71
f 185/440/122 142/433/79 141/434/79
f 142/433/79 187/441/123 146/442/80
f 146/442/80 188/443/123 145/444/80
f 188/443/123 141/434/79 145/444/80
f 189/445/124 144/446/72 143/447/72
f 190/448/124 148/449/73 144/446/72
f 191/450/108 147/451/73 148/449/73
f 192/452/108 143/447/72 147/451/73
f 193/453/125 146/454/80 145/455/80
f 146/454/80 195/456/126 150/457/81
f 150/457/81 196/458/126 149/459/81
f 196/458/126 145/455/80 149/459/81
f 147/451/73 198/460/127 148/449/73
f 198/460/127 152/461/74 148/449/73
f 199/462/128 151/463/74 152/461/74
f 151/463/74 197/464/127 147/451/73
f 201/465/129 153/466/67 154/467/67
f 202/468/129 156/469/66 153/466/67
f 156/469/66 204/470/130 155/471/66
f 155/471/66 201/465/129 154/467/67
f 205/351/90 150/457/81 149/459/81
f 150/457/81 207/472/131 153/466/67
f 153/466/67 208/473/131 154/467/67
f 208/473/131 149/459/81 154/467/67
f 209/474/132 152/461/74 151/463/74
f 210/475/132 158/476/75 152/461/74
f 211/477/133 157/478/75 158/476/75
f 157/478/75 209/474/132 151/463/74
f 213/479/134 156/469/66 155/471/66
f 156/469/66 215/480/135 160/481/68
f 160/481/68 216/482/135 159/483/68
f 216/482/135 155/471/66 159/483/68
f 157/478/75 218/484/105 158/476/75
f 218/484/105 129/485/76 158/476/75
f 219/345/86 130/486/76 129/485/76
f 130/486/76 217/487/105 157/478/75
f 221/488/136 160/489/68 159/490/68
f 160/489/68 223/491/137 133/418/69
f 133/418/69 224/492/137 134/419/69
f 224/492/137 159/490/68 134/419/69
s 2
f 325/493/138 262/494/138 261/495/138
f 350/496/139 288/497/140 286/498/140
f 235/499/141 297/500/142 233/501/141
f 260/502/143 323/503/143 259/504/143
f 287/505/144 349/506/145 285/507/144
s 4
f 297/508/146 234/509/146 233/510/146
f 258/511/147 324/512/148 260/513/147
f 349/514/149 286/515/149 285/516/149
f 232/517/150 295/518/150 231/519/150
f 323/520/151 257/521/152 259/522/152
f 284/523/153 347/524/153 283/525/153
s 2
f 293/526/154 232/349/89 229/527/89
f 321/528/155 258/529/155 257/530/155
f 346/531/156 284/355/93 282/532/93
f 295/533/157 230/534/94 231/357/94
s 4
f 256/535/158 319/536/158 255/379/158
s 1
f 193/453/125 258/537/159 194/538/125
f 272/539/160 208/473/131 207/472/131
s 4
f 196/540/161 257/521/152 193/541/161
s 1
f 245/542/162 182/543/120 181/544/120
f 260/502/163 196/545/126 195/546/126
s 2
f 247/547/164 181/548/165 184/549/165
s 1
f 221/488/136 286/550/166 222/551/136
s 2
f 182/552/167 248/553/168 183/554/167
s 1
f 233/555/169 170/556/116 169/422/116
s 2
f 224/557/170 285/507/144 221/558/170
s 1
f 248/559/171 184/560/121 183/438/121
s 2
f 172/561/172 233/501/141 169/562/172
f 286/498/140 223/563/173 222/564/173
s 1
f 273/565/174 210/566/132 209/567/132
s 2
f 234/568/175 171/569/176 170/570/176
s 1
f 288/571/177 224/572/137 223/573/137
s 2
f 275/574/178 209/575/179 212/576/179
s 1
f 236/577/180 172/425/117 171/423/117
s 2
f 210/578/181 276/579/182 211/580/181
s 1
f 261/581/183 198/460/127 197/464/127
f 276/582/184 212/583/133 211/477/133
s 4
f 263/584/185 197/585/186 200/586/186
f 262/587/187 199/588/188 198/589/188
s 1
f 185/590/122 250/591/189 186/592/122
f 199/462/128 263/593/190 200/594/128
s 2
f 251/595/191 185/596/192 188/597/192
s 1
f 173/598/118 238/599/193 174/600/118
f 252/601/194 188/443/123 187/441/123
s 2
f 176/602/195 237/603/196 173/604/195
s 1
f 213/605/134 278/606/197 214/607/198
s 2
f 238/608/199 175/609/200 174/610/200
s 1
f 226/611/201 162/612/114 161/411/114
s 2
f 216/613/202 277/614/203 213/615/202
s 1
f 175/430/119 239/616/204 176/617/119
s 2
f 164/618/205 226/619/206 161/620/205
f 278/621/207 215/622/208 214/623/208
f 225/624/209 163/625/210 162/626/210
s 1
f 280/627/211 216/482/135 215/480/135
s 2
f 204/628/212 266/629/213 201/630/212
s 1
f 228/631/214 164/632/115 163/633/115
f 189/445/124 254/634/215 190/448/124
f 268/635/216 204/470/130 203/636/217
s 2
f 255/637/218 189/638/219 192/639/219
f 298/640/220 236/641/175 234/568/175
s 4
f 288/571/221 351/642/221 287/643/221
f 327/644/222 261/645/185 263/584/185
f 236/646/223 299/647/223 235/648/223
f 262/587/187 328/649/224 264/650/187
f 301/651/225 238/599/225 237/652/225
s 2
f 264/653/226 327/654/226 263/655/226
f 239/656/196 301/657/227 237/603/196
s 1
f 330/658/228 265/659/228 266/660/228
s 2
f 302/661/229 240/662/199 238/608/199
f 267/663/213 330/664/230 266/629/213
s 4
f 240/665/231 303/666/231 239/667/231
s 2
f 329/668/232 268/669/233 265/670/233
s 4
f 305/671/234 242/672/234 241/381/234
f 268/673/235 331/674/235 267/675/235
s 2
f 243/676/107 305/677/236 241/376/107
s 4
f 333/678/237 270/679/237 269/680/237
s 2
f 306/681/238 244/682/102 242/369/102
f 271/683/85 333/684/239 269/343/85
s 4
f 244/685/240 307/686/240 243/687/240
s 2
f 334/688/241 272/689/242 270/690/242
s 4
f 309/691/243 246/692/243 245/542/243
f 272/693/244 335/694/244 271/695/244
s 2
f 311/696/245 245/697/164 247/547/164
s 4
f 337/698/246 274/699/246 273/565/246
s 2
f 246/700/168 312/701/247 248/553/168
f 339/702/248 273/703/178 275/574/178
s 4
f 248/704/249 311/705/249 247/706/249
s 2
f 274/707/182 340/708/250 276/579/182
s 4
f 313/709/251 250/591/251 249/710/251
f 276/711/252 339/712/252 275/713/252
s 2
f 315/714/151 249/715/191 251/595/191
s 4
f 341/716/253 278/606/253 277/717/253
s 2
f 314/718/254 252/719/255 250/720/255
s 4
f 290/721/256 225/722/256 226/723/256
s 2
f 343/724/257 277/614/203 279/725/203
s 4
f 252/726/258 315/727/258 251/728/258
s 2
f 291/729/259 226/619/206 227/730/206
f 342/731/260 280/732/207 278/621/207
s 4
f 317/733/261 254/734/261 253/735/261
s 2
f 225/624/209 292/736/262 228/737/209
s 4
f 280/738/263 343/739/263 279/740/263
s 2
f 319/741/245 253/742/218 255/637/218
s 4
f 228/631/264 291/743/264 227/744/264
f 345/745/265 282/746/265 281/372/265
s 2
f 254/747/113 320/748/266 256/385/113
s 4
f 294/749/267 229/750/267 230/751/267
s 2
f 347/752/268 281/364/99 283/753/99
s 1
f 355/754/269 354/755/74 353/756/74
f 355/754/269 358/757/270 356/758/269
f 359/759/70 358/760/270 357/761/270
f 359/759/70 362/762/271 360/763/70
f 363/764/272 362/762/271 361/765/271
f 365/766/67 364/767/272 363/768/272
f 365/766/67 368/769/273 366/770/67
f 367/771/273 370/772/274 368/769/273
f 371/773/78 370/774/274 369/775/274
f 371/773/78 374/776/275 372/777/78
f 384/778/67 410/779/276 385/780/276
f 375/781/277 374/776/275 373/782/275
f 353/756/74 376/783/277 375/784/277
f 419/785/276 395/786/67 394/787/276
s 2
f 356/788/278 378/789/279 354/790/279
f 378/789/279 376/791/280 354/790/279
f 379/792/280 374/793/281 376/791/280
f 380/794/281 372/795/282 374/793/281
f 368/796/283 384/797/284 366/798/284
f 384/797/284 364/799/285 366/798/284
f 385/800/285 362/801/286 364/799/285
f 386/802/286 360/803/287 362/801/286
f 360/803/287 388/804/288 358/805/288
f 358/805/288 377/806/278 356/788/278
f 389/807/289 355/808/290 353/809/289
f 390/810/290 357/811/291 355/808/290
f 391/812/291 359/813/292 357/811/291
f 359/813/292 393/814/293 361/815/293
f 361/815/293 394/816/294 363/817/294
f 363/817/294 395/818/295 365/819/295
f 395/818/295 367/820/296 365/819/295
f 396/821/296 369/822/297 367/820/296
f 397/823/297 371/824/298 369/822/297
f 371/824/298 399/825/299 373/826/299
f 373/826/299 400/827/300 375/828/300
f 375/828/300 389/807/289 353/809/289
f 437/829/301 414/830/302 413/831/303
f 444/832/304 421/833/305 420/834/306
s 1
f 403/835/307 377/836/308 388/837/307
f 395/786/67 421/833/309 396/838/309
f 385/839/276 411/840/310 386/841/310
f 389/842/74 414/830/308 390/843/308
f 378/844/74 404/845/311 379/846/311
f 396/838/309 422/847/312 397/848/312
f 386/841/310 412/849/70 387/850/70
f 415/851/311 389/842/74 400/852/311
f 379/853/311 405/854/313 380/855/313
f 397/856/312 423/857/78 398/858/78
f 412/849/70 388/859/307 387/850/70
f 390/843/308 416/860/307 391/861/307
f 380/855/313 406/862/78 381/863/78
f 423/857/78 399/864/313 398/858/78
f 391/865/307 417/866/70 392/867/70
f 406/862/78 382/868/312 381/863/78
f 424/869/313 400/870/311 399/864/313
f 417/866/70 393/871/310 392/867/70
f 407/872/312 383/873/309 382/874/312
f 418/875/310 394/876/276 393/871/310
f 408/877/309 384/778/67 383/873/309
f 401/878/308 378/844/74 377/836/308
s 2
f 435/879/314 431/880/315 426/881/316
f 447/882/317 443/883/318 438/884/319
f 406/862/320 431/885/315 407/886/321
f 445/887/322 422/847/323 421/833/305
f 415/851/324 437/829/301 413/831/303
f 407/888/321 432/889/325 408/890/326
f 446/891/327 423/857/328 422/892/323
f 438/884/319 416/893/329 414/894/302
f 408/877/326 433/895/330 409/896/331
f 423/857/328 448/897/332 424/869/333
f 401/878/334 426/898/316 402/899/335
f 440/900/336 417/866/337 416/901/329
f 433/895/330 410/779/338 409/896/331
f 424/869/333 439/902/339 415/903/324
f 403/835/340 425/904/341 401/878/334
f 417/866/337 442/905/342 418/875/343
f 434/906/344 411/907/345 410/908/338
f 426/898/316 404/845/346 402/899/335
f 418/875/343 443/909/318 419/910/347
f 435/911/314 412/849/348 411/840/345
f 428/912/349 405/854/350 404/913/346
f 419/785/347 444/832/304 420/834/306
f 412/849/348 427/914/351 403/915/340
f 429/916/352 406/862/320 405/854/350
s 1
f 452/63/19 451/917/353 450/61/17
f 451/918/353 453/919/354 449/55/15
f 450/61/17 457/920/355 456/99/47
f 457/921/355 449/55/15 455/58/16
f 456/113/47 460/922/356 459/111/54
f 460/923/357 455/58/16 458/65/21
f 459/111/54 463/924/358 462/118/58
f 460/923/357 461/35/5 463/925/358
f 465/121/61 463/924/358 466/926/359
f 466/927/359 461/35/5 464/40/6
f 465/121/61 469/928/360 468/127/24
f 469/929/360 464/40/6 467/44/9
f 468/68/24 472/930/361 471/66/22
f 469/929/360 470/43/8 472/931/361
f 471/66/22 475/932/362 474/72/27
f 472/931/361 473/53/14 475/933/362
f 477/76/30 475/932/362 478/934/363
f 475/933/362 476/52/13 478/935/363
f 477/76/30 481/936/364 480/80/33
f 478/935/363 479/64/20 481/937/365
f 480/84/33 484/938/366 483/89/39
f 481/937/365 482/33/4 484/939/367
f 483/89/39 487/940/368 486/94/43
f 484/939/367 485/32/3 487/941/369
f 489/93/42 487/940/368 490/942/370
f 487/941/369 488/42/7 490/943/370
f 489/93/42 493/944/371 492/97/45
f 490/943/370 491/46/11 493/945/371
f 492/105/45 496/946/372 495/103/50
f 493/945/371 494/45/10 496/947/372
f 452/63/19 496/946/372 454/948/373
f 496/947/372 453/919/354 454/949/373
f 500/120/60 499/950/374 498/50/12
f 499/951/374 501/62/18 497/100/48
f 498/50/12 505/952/375 504/116/57
f 505/953/375 497/100/48 503/954/55
f 504/116/57 508/955/376 507/124/63
f 505/956/375 506/119/59 508/957/376
f 507/124/63 511/958/377 510/125/64
f 511/959/377 506/119/59 509/122/62
f 510/125/64 514/960/378 513/70/25
f 511/959/377 512/128/65 514/961/378
f 513/70/25 517/962/379 516/71/26
f 517/963/379 512/128/65 515/964/23
f 519/74/29 517/962/379 520/965/380
f 517/966/379 518/73/28 520/967/380
f 519/74/29 523/968/381 522/78/32
f 520/967/380 521/77/31 523/969/381
f 525/82/35 523/968/381 526/970/382
f 523/969/381 524/81/34 526/971/382
f 525/82/35 529/972/383 528/87/38
f 526/971/382 527/973/37 529/974/383
f 528/87/38 532/975/384 531/91/41
f 529/976/383 530/85/36 532/977/385
f 531/91/41 535/978/386 534/95/44
f 532/977/385 533/90/40 535/979/386
f 534/95/44 538/980/387 537/102/49
f 535/979/386 536/98/46 538/981/387
f 540/109/52 538/980/387 541/982/388
f 538/981/387 539/983/51 541/984/388
f 540/109/52 544/985/389 543/114/56
f 541/986/388 542/110/53 544/987/389
f 543/114/56 502/988/390 500/120/60
f 544/987/389 501/62/18 502/989/391
f 33/56/1 453/919/354 34/106/1
f 6/1/1 102/11/1 79/2/1
f 20/4/2 69/237/2 115/5/2
f 17/7/2 114/18/2 128/8/2
f 5/10/1 101/17/1 102/11/1
f 19/6/2 115/5/2 113/12/2
f 32/9/2 128/8/2 127/14/2
f 4/16/1 100/22/1 101/17/1
f 18/13/2 113/12/2 114/18/2
f 30/19/2 31/15/2 127/14/2
f 3/21/1 99/26/1 100/22/1
f 30/19/2 126/20/2 125/23/2
f 3/21/1 2/29/1 97/25/1
f 29/24/2 125/23/2 124/27/2
f 2/29/1 1/990/1 98/30/1
f 44/31/1 45/38/1 485/32/3
f 38/34/1 464/40/6 461/35/5
f 46/37/1 488/42/7 485/32/3
f 39/39/1 467/44/9 464/40/6
f 47/41/1 491/46/11 488/42/7
f 39/39/1 40/48/1 470/43/8
f 47/41/1 48/107/1 494/45/10
f 41/47/1 473/53/14 470/43/8
f 50/49/2 500/120/60 498/50/12
f 41/47/1 42/60/1 476/52/13
f 35/54/1 455/58/16 449/55/15
f 36/57/1 458/65/21 455/58/16
f 43/59/1 479/64/20 476/52/13
f 450/61/17 497/100/48 501/62/18
f 43/59/1 44/31/1 482/33/4
f 37/36/1 461/35/5 458/65/21
f 471/66/22 518/73/28 515/67/23
f 55/69/2 54/129/2 513/70/25
f 474/72/27 521/77/31 518/73/28
f 55/69/2 516/71/26 519/74/29
f 477/76/30 524/81/34 521/77/31
f 56/75/2 519/74/29 522/78/32
f 480/80/33 527/973/37 524/81/34
f 57/79/2 522/78/32 525/82/35
f 480/84/33 483/89/39 530/85/36
f 58/83/2 525/82/35 528/87/38
f 483/89/39 486/94/43 533/90/40
f 59/88/2 528/87/38 531/91/41
f 489/93/42 536/98/46 533/90/40
f 60/92/2 531/91/41 534/95/44
f 492/97/45 539/983/51 536/98/46
f 456/99/47 503/954/55 497/100/48
f 62/101/2 61/96/2 534/95/44
f 495/103/50 542/110/53 539/104/51
f 34/106/1 453/919/354 494/45/10
f 63/108/2 62/101/2 537/102/49
f 452/63/19 501/62/18 542/110/53
f 459/111/54 506/119/59 503/112/55
f 63/108/2 540/109/52 543/114/56
f 49/51/2 498/50/12 504/116/57
f 462/118/58 509/122/62 506/119/59
f 64/115/2 543/114/56 500/120/60
f 465/121/61 512/128/65 509/122/62
f 52/123/2 51/117/2 504/116/57
f 52/123/2 507/124/63 510/125/64
f 468/127/24 515/964/23 512/128/65
f 54/129/2 53/126/2 510/125/64
s 2
f 2/130/66 33/134/66 34/131/67
f 3/133/68 35/991/68 33/134/66
f 4/135/69 36/139/69 35/136/68
f 5/138/70 37/141/70 36/139/69
f 6/140/71 38/143/71 37/141/70
f 7/142/72 39/992/72 38/143/71
f 8/144/73 40/148/73 39/145/72
f 9/147/74 41/150/74 40/148/73
f 10/149/75 42/152/75 41/150/74
f 11/151/76 43/993/76 42/152/75
f 12/153/77 44/157/77 43/154/76
f 13/156/78 45/159/78 44/157/77
f 14/158/79 46/161/79 45/159/78
f 15/160/80 47/994/80 46/161/79
f 16/162/81 48/165/81 47/163/80
f 1/132/67 34/131/67 48/165/81
f 17/166/67 50/201/67 49/167/66
f 18/168/66 49/167/66 51/169/68
f 19/171/68 51/995/68 52/172/69
f 20/173/69 52/172/69 53/174/70
f 21/175/70 53/174/70 54/176/71
f 22/177/71 54/176/71 55/178/72
f 23/180/72 55/996/72 56/181/73
f 24/182/73 56/181/73 57/183/74
f 25/184/74 57/183/74 58/185/75
f 26/186/75 58/185/75 59/187/76
f 27/189/76 59/997/76 60/190/77
f 28/191/77 60/190/77 61/192/78
f 29/193/78 61/192/78 62/194/79
f 30/195/79 62/194/79 63/196/80
f 31/198/80 63/998/80 64/199/81
f 32/200/81 64/199/81 50/201/67
f 118/202/1 140/209/1 144/203/1
f 151/205/2 147/210/2 104/206/2
f 117/208/1 136/999/1 140/209/1
f 147/210/2 143/214/2 103/211/2
f 133/212/1 136/999/1 117/208/1
f 143/214/2 139/221/2 75/215/2
f 160/216/1 133/212/1 116/213/1
f 150/218/1 153/1000/1 89/219/1
f 139/221/2 135/1001/2 71/222/2
f 156/223/1 160/216/1 96/217/1
f 146/225/1 150/218/1 86/220/1
f 71/222/2 135/1001/2 134/227/2
f 89/219/1 153/1000/1 156/223/1
f 142/229/1 146/225/1 82/226/1
f 70/228/2 134/227/2 159/231/2
f 90/233/2 154/1002/2 149/234/2
s 1
f 21/236/2 72/241/2 69/237/2
f 7/3/1 79/2/1 83/238/1
f 22/240/2 76/245/2 72/241/2
f 8/239/1 83/238/1 87/242/1
f 23/244/2 80/249/2 76/245/2
f 9/243/1 87/242/1 93/246/1
f 23/244/2 24/252/2 84/248/2
f 10/247/1 93/246/1 66/250/1
f 24/252/2 25/257/2 88/253/2
f 12/254/1 11/251/1 66/250/1
f 26/256/2 94/261/2 88/253/2
f 13/258/1 12/254/1 67/255/1
f 27/260/2 65/264/2 94/261/2
f 13/258/1 73/259/1 77/262/1
f 28/28/2 124/27/2 65/264/2
f 14/263/1 77/262/1 111/265/1
s 2
f 91/267/66 97/271/66 98/268/67
f 95/270/68 99/1003/68 97/271/66
f 70/272/69 100/276/69 99/273/68
f 71/275/70 101/278/70 100/276/69
f 75/277/71 102/280/71 101/278/70
f 103/279/72 79/1004/72 102/280/71
f 104/281/73 83/285/73 79/282/72
f 105/284/74 87/287/74 83/285/73
f 106/286/75 93/289/75 87/287/74
f 107/288/76 66/1005/76 93/289/75
f 108/290/77 67/294/77 66/291/76
f 109/293/78 73/296/78 67/294/77
f 110/295/79 77/298/79 73/296/78
f 81/297/80 111/1006/80 77/298/79
f 85/299/81 112/302/81 111/300/80
f 90/269/67 98/268/67 112/302/81
f 89/303/67 114/338/67 113/304/66
f 96/306/68 92/305/66 113/304/66
f 96/308/68 115/1007/68 69/309/69
f 116/310/69 69/309/69 72/311/70
f 117/312/70 72/311/70 76/313/71
f 118/314/71 76/313/71 80/315/72
f 119/317/72 80/1008/72 84/318/73
f 120/319/73 84/318/73 88/320/74
f 121/321/74 88/320/74 94/322/75
f 122/323/75 94/322/75 65/324/76
f 123/326/76 65/1009/76 124/327/77
f 68/328/77 124/327/77 125/329/78
f 78/331/79 74/330/78 125/329/78
f 78/331/79 126/332/79 127/333/80
f 82/335/80 127/1010/80 128/336/81
f 86/337/81 128/336/81 114/338/67
s 1
f 232/339/82 231/1011/82 168/340/83
s 2
f 208/342/84 271/683/85 269/343/85
s 1
f 219/345/86 284/1012/87 283/346/87
s 2
f 166/348/88 229/527/89 232/349/89
s 1
f 205/351/90 269/1013/91 270/352/91
s 2
f 218/354/92 282/532/93 284/355/93
f 231/357/94 230/534/94 165/358/95
s 1
f 244/360/96 243/1014/96 180/361/97
s 2
f 220/363/98 283/753/99 281/364/99
s 1
f 165/366/100 230/1015/101 229/367/101
s 2
f 242/369/102 244/682/102 179/370/103
s 1
f 281/372/104 282/746/104 218/373/105
s 2
f 180/375/106 243/676/107 241/376/107
s 1
f 191/378/108 256/535/109 255/379/109
f 241/381/110 242/672/110 178/382/111
s 2
f 190/384/112 254/747/113 256/385/113
f 106/387/2 157/1016/2 151/205/2
f 119/204/1 144/203/1 148/388/1
f 130/390/2 157/1016/2 106/387/2
f 120/389/1 148/388/1 152/392/1
f 131/394/2 130/390/2 107/391/2
f 152/392/1 158/1017/1 122/396/1
f 109/397/2 137/401/2 131/394/2
f 122/396/1 158/1017/1 129/398/1
f 110/400/2 141/405/2 137/401/2
f 123/399/1 129/398/1 132/402/1
f 81/404/2 145/409/2 141/405/2
f 155/406/2 154/1002/2 90/233/2
f 132/402/1 138/410/1 74/408/1
f 85/235/2 149/234/2 145/409/2
f 95/232/2 159/231/2 155/406/2
f 138/410/1 142/229/1 78/230/1
s 1
f 161/411/114 162/612/114 129/412/76
f 129/412/76 162/612/114 163/414/115
f 163/414/115 164/417/115 131/416/77
f 164/417/115 161/411/114 130/413/76
f 165/366/100 166/368/100 133/418/69
f 166/368/100 167/341/83 136/420/70
f 167/341/83 168/340/83 135/421/70
f 135/421/70 168/340/83 165/366/100
f 169/422/116 170/556/116 132/415/77
f 132/415/77 170/556/116 171/423/117
f 138/424/78 171/423/117 172/425/117
f 172/425/117 169/422/116 131/416/77
f 173/427/118 174/428/118 136/420/70
f 174/428/118 175/430/119 140/429/71
f 175/430/119 176/617/119 139/431/71
f 139/431/71 176/617/119 173/427/118
f 177/432/111 178/1018/111 138/424/78
f 138/424/78 178/1018/111 179/362/97
f 142/433/79 179/362/97 180/361/97
f 141/434/79 180/361/97 177/432/111
f 181/435/120 182/436/120 140/429/71
f 182/436/120 183/438/121 144/437/72
f 183/438/121 184/560/121 143/439/72
f 143/439/72 184/560/121 181/435/120
f 185/440/122 186/1019/122 142/433/79
f 142/433/79 186/1019/122 187/441/123
f 146/442/80 187/441/123 188/443/123
f 188/443/123 185/440/122 141/434/79
f 189/445/124 190/448/124 144/446/72
f 190/448/124 191/450/108 148/449/73
f 191/450/108 192/452/108 147/451/73
f 192/452/108 189/445/124 143/447/72
f 193/453/125 194/538/125 146/454/80
f 146/454/80 194/538/125 195/456/126
f 150/457/81 195/456/126 196/458/126
f 196/458/126 193/453/125 145/455/80
f 147/451/73 197/464/127 198/460/127
f 198/460/127 199/462/128 152/461/74
f 199/462/128 200/594/128 151/463/74
f 151/463/74 200/594/128 197/464/127
f 201/465/129 202/468/129 153/466/67
f 202/468/129 203/636/217 156/469/66
f 156/469/66 203/636/217 204/470/130
f 155/471/66 204/470/130 201/465/129
f 205/351/90 206/353/90 150/457/81
f 150/457/81 206/353/90 207/472/131
f 153/466/67 207/472/131 208/473/131
f 208/473/131 205/351/90 149/459/81
f 209/474/132 210/475/132 152/461/74
f 210/475/132 211/477/133 158/476/75
f 211/477/133 212/583/133 157/478/75
f 157/478/75 212/583/133 209/474/132
f 213/479/134 214/1020/198 156/469/66
f 156/469/66 214/1020/198 215/480/135
f 160/481/68 215/480/135 216/482/135
f 216/482/135 213/479/134 155/471/66
f 157/478/75 217/487/105 218/484/105
f 218/484/105 219/345/86 129/485/76
f 219/345/86 220/347/86 130/486/76
f 130/486/76 220/347/86 217/487/105
f 221/488/136 222/551/136 160/489/68
f 160/489/68 222/551/136 223/491/137
f 133/418/69 223/491/137 224/492/137
f 224/492/137 221/488/136 159/490/68
s 2
f 325/493/138 326/1021/138 262/494/138
f 350/496/139 352/1022/139 288/497/140
f 235/499/141 299/1023/142 297/500/142
f 260/502/143 324/1024/143 323/503/143
f 287/505/144 351/1025/257 349/506/145
s 4
f 297/508/146 298/1026/146 234/509/146
f 258/511/147 322/1027/148 324/512/148
f 349/514/149 350/1028/149 286/515/149
f 232/517/150 296/1029/150 295/518/150
f 323/520/151 321/1030/151 257/521/152
f 284/523/153 348/1031/153 347/524/153
s 2
f 293/526/154 296/1032/154 232/349/89
f 321/528/155 322/1033/155 258/529/155
f 346/531/156 348/1034/156 284/355/93
f 295/533/157 294/1035/157 230/534/94
s 4
f 256/535/158 320/1036/158 319/536/158
s 1
f 193/453/125 257/1037/159 258/537/159
f 272/539/160 271/1038/160 208/473/131
s 4
f 196/540/161 259/522/152 257/521/152
s 1
f 245/542/162 246/692/162 182/543/120
f 260/502/163 259/504/163 196/545/126
s 2
f 247/547/164 245/697/164 181/548/165
s 1
f 221/488/136 285/1039/166 286/550/166
s 2
f 182/552/167 246/700/168 248/553/168
s 1
f 233/555/169 234/1040/169 170/556/116
s 2
f 224/557/170 287/505/144 285/507/144
s 1
f 248/559/171 247/1041/171 184/560/121
s 2
f 172/561/172 235/499/141 233/501/141
f 286/498/140 288/497/140 223/563/173
s 1
f 273/565/174 274/699/174 210/566/132
s 2
f 234/568/175 236/641/175 171/569/176
s 1
f 288/571/177 287/643/177 224/572/137
s 2
f 275/574/178 273/703/178 209/575/179
s 1
f 236/577/180 235/1042/180 172/425/117
s 2
f 210/578/181 274/707/182 276/579/182
s 1
f 261/581/183 262/1043/183 198/460/127
f 276/582/184 275/1044/184 212/583/133
s 4
f 263/584/185 261/645/185 197/585/186
f 262/587/187 264/650/187 199/588/188
s 1
f 185/590/122 249/710/189 250/591/189
f 199/462/128 264/1045/190 263/593/190
s 2
f 251/595/191 249/715/191 185/596/192
s 1
f 173/598/118 237/652/193 238/599/193
f 252/601/194 251/1046/194 188/443/123
s 2
f 176/602/195 239/656/196 237/603/196
s 1
f 213/605/134 277/717/197 278/606/197
s 2
f 238/608/199 240/662/199 175/609/200
s 1
f 226/611/201 225/1047/201 162/612/114
s 2
f 216/613/202 279/725/203 277/614/203
s 1
f 175/430/119 240/1048/204 239/616/204
s 2
f 164/618/205 227/730/206 226/619/206
f 278/621/207 280/732/207 215/622/208
f 225/624/209 228/737/209 163/625/210
s 1
f 280/627/211 279/1049/211 216/482/135
s 2
f 204/628/212 267/663/213 266/629/213
s 1
f 228/631/214 227/744/214 164/632/115
f 189/445/124 253/1050/215 254/634/215
f 268/635/216 267/1051/216 204/470/130
s 2
f 255/637/218 253/742/218 189/638/219
f 298/640/220 300/1052/220 236/641/175
s 4
f 288/571/221 352/1053/221 351/642/221
f 327/644/222 325/1054/222 261/645/185
f 236/646/223 300/1055/223 299/647/223
f 262/587/187 326/1056/224 328/649/224
f 301/651/225 302/1057/225 238/599/225
s 2
f 264/653/226 328/1058/226 327/654/226
f 239/656/196 303/1059/227 301/657/227
s 1
f 330/658/228 329/1060/228 265/659/228
s 2
f 302/661/229 304/1061/229 240/662/199
f 267/663/213 331/1062/230 330/664/230
s 4
f 240/665/231 304/1063/231 303/666/231
s 2
f 329/668/232 332/1064/232 268/669/233
s 4
f 305/671/234 306/1065/234 242/672/234
f 268/673/235 332/1066/235 331/674/235
s 2
f 243/676/107 307/1067/236 305/677/236
s 4
f 333/678/237 334/1068/237 270/679/237
s 2
f 306/681/238 308/1069/238 244/682/102
f 271/683/85 335/1070/239 333/684/239
s 4
f 244/685/240 308/1071/240 307/686/240
s 2
f 334/688/241 336/1072/241 272/689/242
s 4
f 309/691/243 310/1073/243 246/692/243
f 272/693/244 336/1074/244 335/694/244
s 2
f 311/696/245 309/1075/392 245/697/164
s 4
f 337/698/246 338/1076/246 274/699/246
s 2
f 246/700/168 310/1077/247 312/701/247
f 339/702/248 337/1078/248 273/703/178
s 4
f 248/704/249 312/1079/249 311/705/249
s 2
f 274/707/182 338/1080/250 340/708/250
s 4
f 313/709/251 314/1081/251 250/591/251
f 276/711/252 340/1082/252 339/712/252
s 2
f 315/714/151 313/1083/393 249/715/191
s 4
f 341/716/253 342/1084/253 278/606/253
s 2
f 314/718/254 316/1085/254 252/719/255
s 4
f 290/721/256 289/1086/256 225/722/256
s 2
f 343/724/257 341/1087/145 277/614/203
s 4
f 252/726/258 316/1088/258 315/727/258
s 2
f 291/729/259 290/1089/259 226/619/206
f 342/731/260 344/1090/260 280/732/207
s 4
f 317/733/261 318/1091/261 254/734/261
s 2
f 225/624/209 289/1092/262 292/736/262
s 4
f 280/738/263 344/1093/263 343/739/263
s 2
f 319/741/245 317/1094/245 253/742/218
s 4
f 228/631/264 292/1095/264 291/743/264
f 345/745/265 346/1096/265 282/746/265
s 2
f 254/747/113 318/1097/266 320/748/266
s 4
f 294/749/267 293/1098/267 229/750/267
s 2
f 347/752/268 345/1099/259 281/364/99
s 1
f 355/754/269 356/758/269 354/755/74
f 355/754/269 357/1100/270 358/757/270
f 359/759/70 360/763/70 358/760/270
f 359/759/70 361/765/271 362/762/271
f 363/764/272 364/1101/272 362/762/271
f 365/766/67 366/770/67 364/767/272
f 365/766/67 367/771/273 368/769/273
f 367/771/273 369/1102/274 370/772/274
f 371/773/78 372/777/78 370/774/274
f 371/773/78 373/782/275 374/776/275
f 384/778/67 409/896/67 410/779/276
f 375/781/277 376/1103/277 374/776/275
f 353/756/74 354/755/74 376/783/277
f 419/785/276 420/834/67 395/786/67
s 2
f 356/788/278 377/806/278 378/789/279
f 378/789/279 379/792/280 376/791/280
f 379/792/280 380/794/281 374/793/281
f 380/794/281 381/1104/282 372/795/282
f 368/796/283 383/1105/283 384/797/284
f 384/797/284 385/800/285 364/799/285
f 385/800/285 386/802/286 362/801/286
f 386/802/286 387/1106/287 360/803/287
f 360/803/287 387/1106/287 388/804/288
f 358/805/288 388/804/288 377/806/278
f 389/807/289 390/810/290 355/808/290
f 390/810/290 391/812/291 357/811/291
f 391/812/291 392/1107/292 359/813/292
f 359/813/292 392/1107/292 393/814/293
f 361/815/293 393/814/293 394/816/294
f 363/817/294 394/816/294 395/818/295
f 395/818/295 396/821/296 367/820/296
f 396/821/296 397/823/297 369/822/297
f 397/823/297 398/1108/298 371/824/298
f 371/824/298 398/1108/298 399/825/299
f 373/826/299 399/825/299 400/827/300
f 375/828/300 400/827/300 389/807/289
f 437/829/301 438/1109/319 414/830/302
f 444/832/304 445/887/322 421/833/305
s 1
f 403/835/307 401/878/308 377/836/308
f 395/786/67 420/834/67 421/833/309
f 385/839/276 410/1110/276 411/840/310
f 389/842/74 413/831/74 414/830/308
f 378/844/74 402/899/74 404/845/311
f 396/838/309 421/833/309 422/847/312
f 386/841/310 411/840/310 412/849/70
f 415/851/311 413/831/74 389/842/74
f 379/853/311 404/913/311 405/854/313
f 397/856/312 422/892/312 423/857/78
f 412/849/70 403/915/307 388/859/307
f 390/843/308 414/830/308 416/860/307
f 380/855/313 405/854/313 406/862/78
f 423/857/78 424/869/313 399/864/313
f 391/865/307 416/901/307 417/866/70
f 406/862/78 407/886/312 382/868/312
f 424/869/313 415/903/311 400/870/311
f 417/866/70 418/875/310 393/871/310
f 407/872/312 408/877/309 383/873/309
f 418/875/310 419/910/276 394/876/276
f 408/877/309 409/896/67 384/778/67
f 401/878/308 402/899/74 378/844/74
s 2
f 426/881/316 425/1111/341 427/1112/351
f 427/1112/351 436/1113/394 435/879/314
f 435/879/314 434/906/344 433/1114/330
f 433/1114/330 432/889/325 431/880/315
f 431/880/315 430/1115/395 429/1116/352
f 429/1116/352 428/1117/349 426/881/316
f 426/881/316 427/1112/351 435/879/314
f 435/879/314 433/1114/330 431/880/315
f 431/880/315 429/1116/352 426/881/316
f 438/884/319 437/1118/301 439/1119/339
f 439/1119/339 448/1120/332 447/882/317
f 447/882/317 446/1121/327 445/1122/322
f 445/1122/322 444/1123/304 443/883/318
f 443/883/318 442/1124/342 441/1125/396
f 441/1125/396 440/1126/336 438/884/319
f 438/884/319 439/1119/339 447/882/317
f 447/882/317 445/1122/322 443/883/318
f 443/883/318 441/1125/396 438/884/319
f 406/862/320 430/1127/395 431/885/315
f 445/887/322 446/1128/327 422/847/323
f 415/851/324 439/1129/339 437/829/301
f 407/888/321 431/880/315 432/889/325
f 446/891/327 447/1130/317 423/857/328
f 438/884/319 440/1126/336 416/893/329
f 408/877/326 432/1131/325 433/895/330
f 423/857/328 447/1130/317 448/897/332
f 401/878/334 425/904/341 426/898/316
f 440/900/336 441/1132/396 417/866/337
f 433/895/330 434/1133/344 410/779/338
f 424/869/333 448/897/332 439/902/339
f 403/835/340 427/1134/351 425/904/341
f 417/866/337 441/1132/396 442/905/342
f 434/906/344 435/879/314 411/907/345
f 426/898/316 428/1135/349 404/845/346
f 418/875/343 442/905/342 443/909/318
f 435/911/314 436/1136/394 412/849/348
f 428/912/349 429/916/352 405/854/350
f 419/785/347 443/1137/318 444/832/304
f 412/849/348 436/1136/394 427/914/351
f 429/916/352 430/1127/395 406/862/320
s 1
f 452/63/19 454/948/373 451/917/353
f 451/918/353 454/949/373 453/919/354
f 450/61/17 451/917/353 457/920/355
f 457/921/355 451/918/353 449/55/15
f 456/113/47 457/1138/355 460/922/356
f 460/923/357 457/921/355 455/58/16
f 459/111/54 460/922/356 463/924/358
f 460/923/357 458/65/21 461/35/5
f 465/121/61 462/118/58 463/924/358
f 466/927/359 463/925/358 461/35/5
f 465/121/61 466/926/359 469/928/360
f 469/929/360 466/927/359 464/40/6
f 468/68/24 469/1139/360 472/930/361
f 469/929/360 467/44/9 470/43/8
f 471/66/22 472/930/361 475/932/362
f 472/931/361 470/43/8 473/53/14
f 477/76/30 474/72/27 475/932/362
f 475/933/362 473/53/14 476/52/13
f 477/76/30 478/934/363 481/936/364
f 478/935/363 476/52/13 479/64/20
f 480/84/33 481/1140/364 484/938/366
f 481/937/365 479/64/20 482/33/4
f 483/89/39 484/938/366 487/940/368
f 484/939/367 482/33/4 485/32/3
f 489/93/42 486/94/43 487/940/368
f 487/941/369 485/32/3 488/42/7
f 489/93/42 490/942/370 493/944/371
f 490/943/370 488/42/7 491/46/11
f 492/105/45 493/1141/371 496/946/372
f 493/945/371 491/46/11 494/45/10
f 452/63/19 495/103/50 496/946/372
f 496/947/372 494/45/10 453/919/354
f 500/120/60 502/988/390 499/950/374
f 499/951/374 502/989/391 501/62/18
f 498/50/12 499/950/374 505/952/375
f 505/953/375 499/951/374 497/100/48
f 504/116/57 505/952/375 508/955/376
f 505/956/375 503/112/55 506/119/59
f 507/124/63 508/955/376 511/958/377
f 511/959/377 508/957/376 506/119/59
f 510/125/64 511/958/377 514/960/378
f 511/959/377 509/122/62 512/128/65
f 513/70/25 514/960/378 517/962/379
f 517/963/379 514/961/378 512/128/65
f 519/74/29 516/71/26 517/962/379
f 517/966/379 515/67/23 518/73/28
f 519/74/29 520/965/380 523/968/381
f 520/967/380 518/73/28 521/77/31
f 525/82/35 522/78/32 523/968/381
f 523/969/381 521/77/31 524/81/34
f 525/82/35 526/970/382 529/972/383
f 526/971/382 524/81/34 527/973/37
f 528/87/38 529/972/383 532/975/384
f 529/976/383 527/86/37 530/85/36
f 531/91/41 532/975/384 535/978/386
f 532/977/385 530/85/36 533/90/40
f 534/95/44 535/978/386 538/980/387
f 535/979/386 533/90/40 536/98/46
f 540/109/52 537/102/49 538/980/387
f 538/981/387 536/98/46 539/983/51
f 540/109/52 541/982/388 544/985/389
f 541/986/388 539/104/51 542/110/53
f 543/114/56 544/985/389 502/988/390
f 544/987/389 542/110/53 501/62/18
f 33/56/1 449/55/15 453/919/354
g Cylinder.013_Mesh
v 0.001319 0.614896 -0.112192
v 0.437094 0.434392 -0.112192
v 0.237159 0.567984 -0.112192
v 0.001319 0.600497 -0.112192
v 0.426913 0.424210 -0.112192
v 0.231649 0.554682 -0.112192
v 0.487713 0.257213 -0.069992
v 0.426366 0.349026 -0.069992
v 0.351729 0.423663 -0.069992
v 0.259915 0.485011 -0.069992
v -0.051457 0.546947 -0.057854
v -0.051457 0.546947 -0.069991
v -0.159759 0.525404 -0.069991
v 0.162397 0.525405 -0.069991
v 0.054095 0.546947 -0.069991
v 0.451271 0.272270 -0.066390
v 0.426331 0.309596 -0.066390
v 0.312298 0.423629 -0.066390
v 0.274972 0.448569 -0.066390
v -0.079315 0.519041 -0.066390
v -0.079315 0.519041 -0.061455
v -0.123343 0.510283 -0.066390
v 0.125981 0.510283 -0.066390
v 0.081952 0.519041 -0.066390
v 0.048664 -0.049139 -0.065408
v 0.048664 -0.049139 -0.062668
v 0.063558 -0.026848 -0.062684
v 0.063558 -0.026848 -0.065408
v -0.060698 0.024620 -0.065408
v -0.060698 0.024620 -0.062684
v -0.065928 -0.001674 -0.062689
v -0.065928 -0.001674 -0.065409
v 0.063335 -0.027386 -0.062684
v 0.063335 -0.027386 -0.065408
v 0.068566 -0.001092 -0.062689
v 0.068566 -0.001092 -0.065409
v -0.065928 -0.001092 -0.062689
v -0.065928 -0.001092 -0.065409
v -0.060698 -0.027386 -0.062684
v -0.060698 -0.027386 -0.065408
v 0.068566 -0.001674 -0.062689
v 0.068566 -0.001674 -0.065409
v 0.063335 0.024620 -0.062684
v 0.063335 0.024620 -0.065408
v -0.060921 -0.026848 -0.062684
v -0.060921 -0.026848 -0.065408
v -0.046026 -0.049139 -0.062668
v -0.046026 -0.049139 -0.065408
v 0.063558 0.024082 -0.062684
v 0.063558 0.024082 -0.065408
v 0.048664 0.046374 -0.062668
v 0.048664 0.046374 -0.065408
v -0.046437 -0.048728 -0.062670
v -0.046437 -0.048728 -0.065408
v -0.024146 -0.063622 -0.062684
v -0.024146 -0.063622 -0.065408
v 0.049075 0.045962 -0.062670
v 0.049075 0.045962 -0.065408
v 0.026784 0.060856 -0.062684
v 0.026784 0.060856 -0.065408
v -0.024684 -0.063400 -0.062684
v -0.024684 -0.063400 -0.065408
v 0.001610 -0.068630 -0.062689
v 0.001610 -0.068630 -0.065409
v 0.001610 0.065864 -0.065409
v 0.001610 0.065864 -0.062689
v -0.024684 0.060633 -0.062684
v -0.024684 0.060633 -0.065408
v 0.027322 0.060633 -0.062684
v 0.027322 0.060633 -0.065408
v 0.001028 0.065864 -0.062689
v 0.001028 0.065864 -0.065409
v 0.001028 -0.068630 -0.062689
v 0.001028 -0.068630 -0.065409
v 0.027322 -0.063400 -0.062684
v 0.027322 -0.063400 -0.065408
v -0.024146 0.060856 -0.062684
v -0.024146 0.060856 -0.065408
v -0.046437 0.045962 -0.062670
v -0.046437 0.045962 -0.065408
v 0.026785 -0.063622 -0.062684
v 0.026785 -0.063622 -0.065408
v 0.049076 -0.048728 -0.062670
v 0.049076 -0.048728 -0.065408
v -0.046026 0.046373 -0.062668
v -0.046026 0.046373 -0.065408
v -0.060920 0.024082 -0.062684
v -0.060920 0.024082 -0.065408
v -0.055436 -0.100084 -0.092150
v -0.096984 -0.058368 -0.092149
v -0.112192 -0.001383 -0.092148
v -0.096557 -0.001383 -0.091523
v -0.083444 -0.050578 -0.091524
v -0.047619 -0.086592 -0.091526
vn -0.0000 -0.0000 -1.0000
vn -0.0198 -0.0997 -0.9948
vn -0.0316 -0.1589 -0.9868
vn -0.0565 -0.0845 -0.9948
vn -0.0900 -0.1347 -0.9868
vn -0.1347 -0.0900 -0.9868
vn -0.0845 -0.0565 -0.9948
vn 0.3271 -0.9450 -0.0000
vn 0.7077 -0.7065 -0.0000
vn 0.0316 -0.1589 -0.9868
vn 0.0198 -0.0997 -0.9948
vn -0.8315 0.5556 -0.0000
vn 0.9808 -0.1951 -0.0000
vn -0.9808 0.1951 -0.0000
vn 0.9808 0.1951 -0.0000
vn -0.9808 -0.1951 -0.0000
vn 0.8315 0.5556 -0.0000
vn -0.8315 -0.5556 -0.0000
vn 0.5556 0.8315 -0.0000
vn -0.5556 -0.8315 -0.0000
vn 0.1951 0.9808 -0.0000
vn 0.1951 -0.9808 -0.0000
vn -0.1951 -0.9808 -0.0000
vn -0.1951 0.9808 -0.0000
vn 0.5556 -0.8315 -0.0000
vn -0.5556 0.8315 -0.0000
vn 0.8315 -0.5556 -0.0000
vn 0.0399 -0.0000 -0.9992
vn 0.0346 0.0199 -0.9992
vn 0.0200 0.0346 -0.9992
vt 0.147039 0.755443
vt 0.147743 0.743569
vt 0.147744 0.755302
vt 0.147038 0.743429
vt 0.152231 0.732729
vt 0.302430 0.952558
vt 0.306312 0.953659
vt 0.300795 0.953659
vt 0.912707 0.932048
vt 0.908826 0.930948
vt 0.914342 0.930948
vt 0.798736 0.932884
vt 0.794860 0.933983
vt 0.793220 0.932884
vt 0.977104 0.503397
vt 0.977579 0.501974
vt 0.977784 0.503397
vt 0.545326 0.954057
vt 0.549207 0.952956
vt 0.550843 0.954057
vt 0.876978 0.986499
vt 0.876825 0.985355
vt 0.876978 0.985357
vt 0.947469 0.234791
vt 0.947316 0.233473
vt 0.947469 0.233473
vt 0.940854 0.566010
vt 0.940701 0.564686
vt 0.940854 0.564687
vt 0.751767 0.979939
vt 0.751615 0.981247
vt 0.751615 0.979939
vt 0.982486 0.405532
vt 0.982333 0.406835
vt 0.982333 0.405533
vt 0.442631 0.996697
vt 0.442478 0.997795
vt 0.442478 0.996697
vt 0.950791 0.996642
vt 0.950639 0.997727
vt 0.950639 0.996644
vt 0.357132 0.996493
vt 0.357285 0.997614
vt 0.357132 0.997614
vt 0.996545 0.456467
vt 0.996392 0.455344
vt 0.996545 0.455344
vt 0.369586 0.969329
vt 0.369739 0.970645
vt 0.369586 0.970645
vt 0.979177 0.557854
vt 0.979025 0.559164
vt 0.979025 0.557854
vt 0.713226 0.966751
vt 0.713074 0.965434
vt 0.713226 0.965434
vt 0.369740 0.973046
vt 0.369587 0.974357
vt 0.369587 0.973046
vt 0.656669 0.996665
vt 0.656516 0.997768
vt 0.656516 0.996665
vt 0.449018 0.996670
vt 0.448865 0.997775
vt 0.448865 0.996670
vt 0.580514 0.990283
vt 0.580361 0.989154
vt 0.580514 0.989154
vt 0.937628 0.951043
vt 0.936874 0.948298
vt 0.937628 0.948097
vt 0.935609 0.946098
vt 0.936160 0.945548
vt 0.151633 0.732329
vt 0.304673 0.952558
vt 0.910464 0.932048
vt 0.797103 0.933983
vt 0.977303 0.501974
vt 0.546964 0.952956
vt 0.876825 0.986497
vt 0.947316 0.234791
vt 0.940701 0.566009
vt 0.751767 0.981247
vt 0.982486 0.406834
vt 0.442631 0.997795
vt 0.950791 0.997725
vt 0.357285 0.996493
vt 0.996392 0.456467
vt 0.369739 0.969329
vt 0.979177 0.559163
vt 0.713074 0.966751
vt 0.369740 0.974357
vt 0.656669 0.997768
vt 0.449018 0.997775
vt 0.580361 0.990283
vt 0.936873 0.950840
s 1
g off
g Cylinder.013_Material.002
usemtl Material.002
f 545/1142/397 550/1143/397 548/1144/397
f 547/1145/397 549/1146/397 550/1143/397
f 567/1147/398 559/1148/399 558/1149/399
f 562/1150/400 554/1151/401 553/1152/401
f 551/1153/402 561/1154/403 552/1155/402
f 555/1156/404 564/1157/405 556/1158/404
s 2
f 556/1159/406 566/1160/407 557/1161/406
s 1
f 571/1162/408 569/1163/408 570/1164/408
f 575/1165/409 573/1166/409 574/1167/409
f 579/1168/410 578/1169/410 577/1170/410
f 581/1171/411 584/1172/411 582/1173/411
f 585/1174/412 588/1175/412 586/1176/412
f 589/1177/413 592/1178/413 590/1179/413
f 593/1180/414 596/1181/414 594/1182/414
f 599/1183/415 598/1184/415 597/1185/415
f 603/1186/416 602/1187/416 601/1188/416
f 607/1189/417 606/1190/417 605/1191/417
f 610/1192/418 612/1193/418 609/1194/418
f 615/1195/419 614/1196/419 613/1197/419
f 617/1198/420 620/1199/420 618/1200/420
f 621/1201/421 624/1202/421 622/1203/421
f 625/1204/422 628/1205/422 626/1206/422
f 631/1207/423 630/1208/423 629/1209/423
f 635/1210/424 637/1211/425 634/1212/425
f 634/1212/425 638/1213/426 633/1214/426
f 545/1142/397 547/1145/397 550/1143/397
f 547/1145/397 546/1215/397 549/1146/397
f 567/1147/398 568/1216/398 559/1148/399
f 562/1150/400 563/1217/400 554/1151/401
f 551/1153/402 560/1218/403 561/1154/403
f 555/1156/404 565/1219/405 564/1157/405
s 2
f 556/1159/406 564/1220/407 566/1160/407
s 1
f 571/1162/408 572/1221/408 569/1163/408
f 575/1165/409 576/1222/409 573/1166/409
f 579/1168/410 580/1223/410 578/1169/410
f 581/1171/411 583/1224/411 584/1172/411
f 585/1174/412 587/1225/412 588/1175/412
f 589/1177/413 591/1226/413 592/1178/413
f 593/1180/414 595/1227/414 596/1181/414
f 599/1183/415 600/1228/415 598/1184/415
f 603/1186/416 604/1229/416 602/1187/416
f 607/1189/417 608/1230/417 606/1190/417
f 610/1192/418 611/1231/418 612/1193/418
f 615/1195/419 616/1232/419 614/1196/419
f 617/1198/420 619/1233/420 620/1199/420
f 621/1201/421 623/1234/421 624/1202/421
f 625/1204/422 627/1235/422 628/1205/422
f 631/1207/423 632/1236/423 630/1208/423
f 635/1210/424 636/1237/424 637/1211/425
f 634/1212/425 637/1211/425 638/1213/426
